<svg width="24" height="24" viewBox="0 0 24 24" fill="none" xmlns="http://www.w3.org/2000/svg">
<path d="M6 12C6 10.3665 6.82273 8.73298 8 8M12 6C12 4.66667 12.6 2 15 2M3 11.0278C3 8.0139 5.23858 5 8 5C9.42542 5 10.7115 5.7849 11.6223 6.63254C11.834 6.82949 12.166 6.82949 12.3777 6.63254C13.2885 5.7849 14.5746 5 16 5C18.7614 5 21 8.0139 21 11.0278C21 14.544 20.5 17.0556 18.5 20.0695C16.9796 22.1062 14.9497 22.6168 12.7861 21.1903C12.3243 20.8859 11.6757 20.8859 11.2139 21.1903C9.05026 22.6168 7.02044 22.1062 5.5 20.0695C3.5 17.0556 3 14.544 3 11.0278Z" stroke="#1C1917" stroke-width="1.5" stroke-linecap="round" stroke-linejoin="round"/>
</svg>
