<svg width="24" height="24" viewBox="0 0 24 24" fill="none" xmlns="http://www.w3.org/2000/svg">
<path d="M20.7578 12.1376L20.0325 12.3287C20.1193 12.658 20.4171 12.8876 20.7578 12.8876V12.1376ZM3.24224 12.1376V12.8876C3.58286 12.8876 3.8807 12.658 3.96749 12.3287L3.24224 12.1376ZM16.8461 6.33464C16.4787 6.14349 16.0258 6.28641 15.8346 6.65388C15.6435 7.02135 15.7864 7.4742 16.1539 7.66536L16.5 7L16.8461 6.33464ZM7.84612 7.66536C8.21359 7.4742 8.35651 7.02135 8.16536 6.65388C7.9742 6.28641 7.52135 6.14349 7.15388 6.33464L7.5 7L7.84612 7.66536ZM6 14.5165L6.72685 14.3316C6.64228 13.9992 6.34299 13.7665 6 13.7665C5.65701 13.7665 5.35772 13.9992 5.27315 14.3316L6 14.5165ZM10 14.5165L10.7268 14.3316C10.6423 13.9992 10.343 13.7665 10 13.7665C9.65701 13.7665 9.35772 13.9992 9.27315 14.3316L10 14.5165ZM14 14.5165L14.7268 14.3316C14.6423 13.9992 14.343 13.7665 14 13.7665C13.657 13.7665 13.3577 13.9992 13.2732 14.3316L14 14.5165ZM18 14.5165L18.7268 14.3316C18.6423 13.9992 18.343 13.7665 18 13.7665C17.657 13.7665 17.3577 13.9992 17.2732 14.3316L18 14.5165ZM14.1819 2.72761C14.5837 2.62715 14.8281 2.21994 14.7276 1.8181C14.6271 1.41625 14.2199 1.17193 13.8181 1.27239L14 2L14.1819 2.72761ZM15.1708 10.1646C14.9856 9.79411 14.5351 9.64394 14.1646 9.82918C13.7941 10.0144 13.6439 10.4649 13.8292 10.8354L14.5 10.5L15.1708 10.1646ZM14.3292 11.8354C14.5144 12.2059 14.9649 12.3561 15.3354 12.1708C15.7059 11.9856 15.8561 11.5351 15.6708 11.1646L15 11.5L14.3292 11.8354ZM10.1708 10.8354C10.3561 10.4649 10.2059 10.0144 9.83541 9.82918C9.46493 9.64394 9.01442 9.79411 8.82918 10.1646L9.5 10.5L10.1708 10.8354ZM8.32918 11.1646C8.14394 11.5351 8.29411 11.9856 8.66459 12.1708C9.03507 12.3561 9.48558 12.2059 9.67082 11.8354L9 11.5L8.32918 11.1646ZM4.21151 15.7628C4.08053 15.3699 3.65579 15.1575 3.26283 15.2885C2.86987 15.4195 2.6575 15.8442 2.78849 16.2372L3.5 16L4.21151 15.7628ZM4.13246 17.8974L3.42094 18.1345L4.13246 17.8974ZM19.8675 17.8974L19.156 17.6602L19.8675 17.8974ZM21.2115 16.2372C21.3425 15.8442 21.1301 15.4195 20.7372 15.2885C20.3442 15.1575 19.9195 15.3699 19.7885 15.7628L20.5 16L21.2115 16.2372ZM18.0919 21.4337L18.5304 22.0422L18.0919 21.4337ZM5.90815 21.4337L5.46961 22.0422H5.46961L5.90815 21.4337ZM22 14.0106H22.75C22.75 13.457 22.5908 12.8543 22.3001 12.3706C22.0192 11.903 21.5076 11.3876 20.7578 11.3876V12.1376V12.8876C20.7608 12.8876 20.7804 12.8864 20.8252 12.9188C20.8753 12.9551 20.9437 13.0256 21.0143 13.143C21.1592 13.3843 21.25 13.7181 21.25 14.0106H22ZM3.24224 12.1376V11.3876C2.49241 11.3876 1.98078 11.903 1.69988 12.3706C1.40924 12.8543 1.25 13.457 1.25 14.0106H2H2.75C2.75 13.7181 2.84076 13.3843 2.98568 13.143C3.05625 13.0256 3.12467 12.9551 3.17481 12.9188C3.21956 12.8864 3.23918 12.8876 3.24224 12.8876V12.1376ZM20.7578 12.1376L21.483 11.9465C20.8459 9.5283 19.1241 7.51964 16.8461 6.33464L16.5 7L16.1539 7.66536C18.0982 8.67677 19.5145 10.3625 20.0325 12.3287L20.7578 12.1376ZM7.5 7L7.15388 6.33464C4.87591 7.51964 3.15414 9.5283 2.51699 11.9465L3.24224 12.1376L3.96749 12.3287C4.48553 10.3625 5.90183 8.67677 7.84612 7.66536L7.5 7ZM2 14.0106H1.25C1.25 15.6343 2.47518 16.5679 3.69729 16.7165C4.91416 16.8645 6.33088 16.2578 6.72685 14.7014L6 14.5165L5.27315 14.3316C5.10329 14.9992 4.52001 15.3055 3.87834 15.2275C3.24191 15.1501 2.75 14.7187 2.75 14.0106H2ZM6 14.5165L5.27315 14.7014C5.62679 16.0914 6.85908 16.75 8 16.75C9.14092 16.75 10.3732 16.0914 10.7268 14.7014L10 14.5165L9.27315 14.3316C9.12355 14.9196 8.60746 15.25 8 15.25C7.39254 15.25 6.87645 14.9196 6.72685 14.3316L6 14.5165ZM10 14.5165L9.27315 14.7014C9.62679 16.0914 10.8591 16.75 12 16.75C13.1409 16.75 14.3732 16.0914 14.7268 14.7014L14 14.5165L13.2732 14.3316C13.1236 14.9196 12.6075 15.25 12 15.25C11.3925 15.25 10.8764 14.9196 10.7268 14.3316L10 14.5165ZM14 14.5165L13.2732 14.7014C13.6268 16.0914 14.8591 16.75 16 16.75C17.1409 16.75 18.3732 16.0914 18.7268 14.7014L18 14.5165L17.2732 14.3316C17.1236 14.9196 16.6075 15.25 16 15.25C15.3925 15.25 14.8764 14.9196 14.7268 14.3316L14 14.5165ZM18 14.5165L17.2732 14.7014C17.6691 16.2578 19.0858 16.8645 20.3027 16.7165C21.5248 16.5679 22.75 15.6343 22.75 14.0106H22H21.25C21.25 14.7187 20.7581 15.1501 20.1217 15.2275C19.48 15.3055 18.8967 14.9992 18.7268 14.3316L18 14.5165ZM10 6H9.25C9.25 7.51878 10.4812 8.75 12 8.75V8V7.25C11.3096 7.25 10.75 6.69036 10.75 6H10ZM12 8V8.75C13.5188 8.75 14.75 7.51878 14.75 6H14H13.25C13.25 6.69036 12.6904 7.25 12 7.25V8ZM14 6H14.75C14.75 4.48122 13.5188 3.25 12 3.25V4V4.75C12.6904 4.75 13.25 5.30964 13.25 6H14ZM12 4V3.25C10.4812 3.25 9.25 4.48122 9.25 6H10H10.75C10.75 5.30964 11.3096 4.75 12 4.75V4ZM12 4H12.75C12.75 3.83893 12.9208 3.04288 14.1819 2.72761L14 2L13.8181 1.27239C11.8792 1.75712 11.25 3.16107 11.25 4H12ZM14.5 10.5L13.8292 10.8354L14.3292 11.8354L15 11.5L15.6708 11.1646L15.1708 10.1646L14.5 10.5ZM9.5 10.5L8.82918 10.1646L8.32918 11.1646L9 11.5L9.67082 11.8354L10.1708 10.8354L9.5 10.5ZM3.5 16L2.78849 16.2372L3.42094 18.1345L4.13246 17.8974L4.84397 17.6602L4.21151 15.7628L3.5 16ZM9.82456 22V22.75H14.1754V22V21.25H9.82456V22ZM19.8675 17.8974L20.5791 18.1345L21.2115 16.2372L20.5 16L19.7885 15.7628L19.156 17.6602L19.8675 17.8974ZM14.1754 22V22.75C15.2018 22.75 16.0345 22.7511 16.7068 22.6744C17.3983 22.5954 17.9956 22.4276 18.5304 22.0422L18.0919 21.4337L17.6533 20.8253C17.4025 21.0061 17.0852 21.1214 16.5366 21.1841C15.969 21.2489 15.2363 21.25 14.1754 21.25V22ZM19.8675 17.8974L19.156 17.6602C18.8206 18.6666 18.5878 19.3613 18.3468 19.8794C18.1139 20.3799 17.9042 20.6445 17.6533 20.8253L18.0919 21.4337L18.5304 22.0422C19.0652 21.6567 19.4133 21.1431 19.7068 20.5121C19.9923 19.8985 20.2545 19.1082 20.5791 18.1345L19.8675 17.8974ZM4.13246 17.8974L3.42094 18.1345C3.74549 19.1082 4.00774 19.8985 4.29317 20.5121C4.58673 21.1431 4.9348 21.6567 5.46961 22.0422L5.90815 21.4337L6.34668 20.8253C6.09583 20.6445 5.88607 20.3799 5.6532 19.8794C5.4122 19.3613 5.17944 18.6666 4.84397 17.6602L4.13246 17.8974ZM9.82456 22V21.25C8.7637 21.25 8.03104 21.2489 7.46336 21.1841C6.91485 21.1214 6.59752 21.0061 6.34668 20.8253L5.90815 21.4337L5.46961 22.0422C6.00443 22.4276 6.60173 22.5954 7.29321 22.6744C7.96554 22.7511 8.79825 22.75 9.82456 22.75V22Z" fill="#1C1917"/>
</svg>
