<svg width="24" height="24" viewBox="0 0 24 24" fill="none" xmlns="http://www.w3.org/2000/svg">
<path d="M14.0001 2.75C14.4143 2.75 14.7501 2.41421 14.7501 2C14.7501 1.58579 14.4143 1.25 14.0001 1.25V2V2.75ZM13.1526 13.0797L12.9613 13.8048L13.1526 13.0797ZM13.1526 18.9203L12.9613 18.1952H12.9613L13.1526 18.9203ZM17.3617 12.6071L16.76 13.0549L17.3617 12.6071ZM6.63829 12.6071L6.03659 12.1594H6.03658L6.63829 12.6071ZM12.0001 5H12.7501C12.7501 4.57306 12.8394 3.94298 13.0762 3.44955C13.3047 2.97356 13.5941 2.75 14.0001 2.75V2V1.25C12.8061 1.25 12.0955 2.02644 11.724 2.80045C11.3608 3.55702 11.2501 4.42694 11.2501 5H12.0001ZM12.0001 13.9588H11.2501V18.0412H12.0001H12.7501V13.9588H12.0001ZM13.1526 13.0797L12.9613 13.8048C15.3464 14.434 15.3464 17.566 12.9613 18.1952L13.1526 18.9203L13.3439 19.6455C17.2188 18.6233 17.2188 13.3767 13.3439 12.3545L13.1526 13.0797ZM12.0001 13.9588H12.7501C12.7501 13.7869 12.7629 13.6884 12.776 13.6367C12.788 13.5892 12.7865 13.6357 12.7231 13.6918C12.6923 13.719 12.6605 13.7359 12.6361 13.7449C12.6138 13.7531 12.6064 13.7514 12.6231 13.7505C12.6639 13.748 12.7665 13.7535 12.9613 13.8048L13.1526 13.0797L13.3439 12.3545C12.8553 12.2256 12.2115 12.1418 11.7294 12.5681C11.4946 12.7758 11.38 13.0387 11.3218 13.2688C11.2647 13.4947 11.2501 13.7348 11.2501 13.9588H12.0001ZM12.0001 18.0412H11.2501C11.2501 18.2652 11.2647 18.5053 11.3218 18.7312C11.38 18.9613 11.4946 19.2242 11.7294 19.4319C12.2115 19.8582 12.8553 19.7744 13.3439 19.6455L13.1526 18.9203L12.9613 18.1952C12.7665 18.2465 12.6639 18.252 12.6231 18.2495C12.6064 18.2486 12.6138 18.2469 12.6361 18.2551C12.6605 18.2641 12.6923 18.281 12.7231 18.3082C12.7865 18.3643 12.788 18.4108 12.776 18.3633C12.7629 18.3116 12.7501 18.2131 12.7501 18.0412H12.0001ZM7.66667 9H8.41667C8.41667 7.26049 9.96341 5.75 12.0001 5.75V5V4.25C9.25034 4.25 6.91667 6.32123 6.91667 9H7.66667ZM12.0001 5V5.75C14.0368 5.75 15.5833 7.26045 15.5833 9H16.3333H17.0833C17.0833 6.32128 14.7499 4.25 12.0001 4.25V5ZM18.5 16H17.75C17.75 18.8441 15.2333 21.25 12 21.25V22V22.75C15.9464 22.75 19.25 19.7833 19.25 16H18.5ZM12 22V21.25C8.76671 21.25 6.25 18.8441 6.25 16H5.5H4.75C4.75 19.7833 8.05359 22.75 12 22.75V22ZM17.3617 12.6071L16.76 13.0549C17.3878 13.8985 17.75 14.9118 17.75 16H18.5H19.25C19.25 14.5697 18.7718 13.2458 17.9634 12.1594L17.3617 12.6071ZM5.5 16H6.25C6.25 14.9118 6.61224 13.8985 7.24 13.0549L6.63829 12.6071L6.03658 12.1594C5.22822 13.2458 4.75 14.5697 4.75 16H5.5ZM6.63829 12.6071L7.24 13.0549C8.12301 11.8681 8.41667 10.312 8.41667 9H7.66667H6.91667C6.91667 10.1358 6.65492 11.3284 6.03659 12.1594L6.63829 12.6071ZM17.3617 12.6071L17.9634 12.1594C17.3451 11.3284 17.0833 10.1358 17.0833 9H16.3333H15.5833C15.5833 10.312 15.877 11.8681 16.76 13.0549L17.3617 12.6071Z" fill="#1C1917"/>
</svg>
