<svg width="24" height="24" viewBox="0 0 24 24" fill="none" xmlns="http://www.w3.org/2000/svg">
<path d="M9.68936 15.2954C9.85253 14.9147 9.67616 14.4738 9.29544 14.3106C8.91472 14.1475 8.47381 14.3238 8.31064 14.7046L9 15L9.68936 15.2954ZM5.31064 21.7046C5.14747 22.0853 5.32384 22.5262 5.70456 22.6894C6.08528 22.8525 6.52619 22.6762 6.68936 22.2954L6 22L5.31064 21.7046ZM15.6894 14.7046C15.5262 14.3238 15.0853 14.1475 14.7046 14.3106C14.3238 14.4738 14.1475 14.9147 14.3106 15.2954L15 15L15.6894 14.7046ZM17.3106 22.2954C17.4738 22.6762 17.9147 22.8525 18.2954 22.6894C18.6762 22.5262 18.8525 22.0853 18.6894 21.7046L18 22L17.3106 22.2954ZM11.25 22C11.25 22.4142 11.5858 22.75 12 22.75C12.4142 22.75 12.75 22.4142 12.75 22H12H11.25ZM15.0442 5.45134C14.7412 5.73374 14.7245 6.20832 15.0069 6.51134C15.2893 6.81436 15.7639 6.83107 16.0669 6.54866L15.5556 6L15.0442 5.45134ZM15.5556 4L16.0669 3.45134V3.45134L15.5556 4ZM16.0669 2.54866C16.3699 2.26626 16.3866 1.79168 16.1042 1.48866C15.8218 1.18564 15.3472 1.16893 15.0442 1.45134L15.5556 2L16.0669 2.54866ZM11.4887 5.45134C11.1856 5.73374 11.1689 6.20832 11.4513 6.51134C11.7337 6.81436 12.2083 6.83107 12.5113 6.54866L12 6L11.4887 5.45134ZM12 4L12.5113 3.45134L12 4ZM12.5113 2.54866C12.8144 2.26626 12.8311 1.79168 12.5487 1.48866C12.2663 1.18564 11.7917 1.16893 11.4887 1.45134L12 2L12.5113 2.54866ZM7.9331 5.45134C7.63009 5.73374 7.61338 6.20832 7.89578 6.51134C8.17819 6.81436 8.65277 6.83107 8.95579 6.54866L8.44444 6L7.9331 5.45134ZM8.44444 4L8.95579 3.45134V3.45134L8.44444 4ZM8.95579 2.54866C9.2588 2.26626 9.27551 1.79168 8.99311 1.48866C8.7107 1.18564 8.23612 1.16893 7.9331 1.45134L8.44444 2L8.95579 2.54866ZM7.5 18.25C7.08579 18.25 6.75 18.5858 6.75 19C6.75 19.4142 7.08579 19.75 7.5 19.75V19V18.25ZM16.5 19.75C16.9142 19.75 17.25 19.4142 17.25 19C17.25 18.5858 16.9142 18.25 16.5 18.25V19V19.75ZM18.9485 8.99703L18.206 8.89087V8.89087L18.9485 8.99703ZM5.05151 8.99703L4.30906 9.10319L5.05151 8.99703ZM5.10816 8.17235L4.5423 7.68011L5.10816 8.17235ZM19 9.25C18.5858 9.25 18.25 9.58579 18.25 10C18.25 10.4142 18.5858 10.75 19 10.75V10V9.25ZM20 10.75C20.4142 10.75 20.75 10.4142 20.75 10C20.75 9.58579 20.4142 9.25 20 9.25V10V10.75ZM5 10.75C5.41421 10.75 5.75 10.4142 5.75 10C5.75 9.58579 5.41421 9.25 5 9.25V10V10.75ZM4 9.25C3.58579 9.25 3.25 9.58579 3.25 10C3.25 10.4142 3.58579 10.75 4 10.75V10V9.25ZM9 15L8.31064 14.7046L5.31064 21.7046L6 22L6.68936 22.2954L9.68936 15.2954L9 15ZM15 15L14.3106 15.2954L17.3106 22.2954L18 22L18.6894 21.7046L15.6894 14.7046L15 15ZM12 15H11.25V22H12H12.75V15H12ZM15.5556 6L16.0669 6.54866C16.9777 5.69981 16.9777 4.30019 16.0669 3.45134L15.5556 4L15.0442 4.54866C15.3186 4.80438 15.3186 5.19562 15.0442 5.45134L15.5556 6ZM15.5556 2L15.0442 1.45134C14.1334 2.30019 14.1334 3.69981 15.0442 4.54866L15.5556 4L16.0669 3.45134C15.7925 3.19562 15.7925 2.80438 16.0669 2.54866L15.5556 2ZM12 6L12.5113 6.54866C13.4221 5.69981 13.4221 4.30019 12.5113 3.45134L12 4L11.4887 4.54866C11.763 4.80438 11.763 5.19562 11.4887 5.45134L12 6ZM12 2L11.4887 1.45134C10.5779 2.30019 10.5779 3.69981 11.4887 4.54866L12 4L12.5113 3.45134C12.237 3.19562 12.237 2.80438 12.5113 2.54866L12 2ZM8.44444 6L8.95579 6.54866C9.86659 5.69981 9.86659 4.30019 8.95579 3.45134L8.44444 4L7.9331 4.54866C8.20748 4.80438 8.20748 5.19562 7.9331 5.45134L8.44444 6ZM8.44444 2L7.9331 1.45134C7.0223 2.30019 7.0223 3.69981 7.9331 4.54866L8.44444 4L8.95579 3.45134C8.6814 3.19562 8.6814 2.80438 8.95579 2.54866L8.44444 2ZM7.5 19V19.75H16.5V19V18.25H7.5V19ZM18.9485 8.99703L18.206 8.89087C17.7731 11.9189 15.1602 14.25 12 14.25V15V15.75C15.9141 15.75 19.1534 12.8627 19.6909 9.1032L18.9485 8.99703ZM12 15V14.25C8.8398 14.25 6.22694 11.9189 5.79396 8.89087L5.05151 8.99703L4.30906 9.10319C4.84663 12.8627 8.0859 15.75 12 15.75V15ZM5.98359 8V8.75H18.0164V8V7.25H5.98359V8ZM5.05151 8.99703L5.79396 8.89087C5.77792 8.77868 5.76623 8.69641 5.7585 8.62649C5.75075 8.55645 5.74966 8.52107 5.75007 8.50463C5.75041 8.49049 5.75158 8.5118 5.73859 8.55065C5.72386 8.59469 5.69991 8.63484 5.67402 8.66459L5.10816 8.17235L4.5423 7.68011C4.32183 7.93356 4.25668 8.21678 4.25052 8.46785C4.24543 8.67544 4.28162 8.91128 4.30906 9.10319L5.05151 8.99703ZM5.98359 8V7.25C5.76599 7.25 5.51639 7.24791 5.30638 7.28031C5.06309 7.31784 4.77364 7.41416 4.5423 7.68011L5.10816 8.17235L5.67402 8.66459C5.64162 8.70184 5.60054 8.73196 5.5605 8.75087C5.52673 8.76682 5.51108 8.76648 5.53507 8.76278C5.56028 8.75889 5.60521 8.7547 5.68554 8.75238C5.76549 8.75006 5.85947 8.75 5.98359 8.75V8ZM18.9485 8.99703L19.6909 9.1032C19.7184 8.91128 19.7546 8.67544 19.7495 8.46785C19.7433 8.21678 19.6782 7.93356 19.4577 7.68011L18.8918 8.17235L18.326 8.66459C18.3001 8.63484 18.2761 8.59469 18.2614 8.55065C18.2484 8.5118 18.2496 8.49049 18.2499 8.50463C18.2503 8.52107 18.2493 8.55645 18.2415 8.62649C18.2338 8.69641 18.2221 8.77868 18.206 8.89087L18.9485 8.99703ZM18.0164 8V8.75C18.1405 8.75 18.2345 8.75006 18.3145 8.75238C18.3948 8.7547 18.4397 8.75889 18.4649 8.76278C18.4889 8.76648 18.4733 8.76682 18.4395 8.75087C18.3995 8.73196 18.3584 8.70184 18.326 8.66459L18.8918 8.17235L19.4577 7.68011C19.2264 7.41416 18.9369 7.31784 18.6936 7.28031C18.4836 7.24791 18.234 7.25 18.0164 7.25V8ZM19 10V10.75H20V10V9.25H19V10ZM5 10V9.25H4V10V10.75H5V10Z" fill="#1C1917"/>
</svg>
