<svg width="24" height="24" viewBox="0 0 24 24" fill="none" xmlns="http://www.w3.org/2000/svg">
<path d="M12 2L12.5582 1.49909C12.4159 1.34056 12.213 1.25 12 1.25C11.787 1.25 11.5841 1.34056 11.4418 1.49909L12 2ZM11.25 9C11.25 9.41421 11.5858 9.75 12 9.75C12.4142 9.75 12.75 9.41421 12.75 9H12H11.25ZM14.8333 12L15.5642 11.8319C15.4859 11.4913 15.1828 11.25 14.8333 11.25C14.4839 11.25 14.1808 11.4913 14.1024 11.8319L14.8333 12ZM9.16667 12L9.89757 11.8319C9.81923 11.4913 9.5161 11.25 9.16667 11.25C8.81723 11.25 8.5141 11.4913 8.43576 11.8319L9.16667 12ZM5.73516 13.8516C5.65318 13.4455 5.25757 13.1829 4.85155 13.2648C4.44553 13.3468 4.18285 13.7424 4.26484 14.1484L5 14L5.73516 13.8516ZM5.52089 16.5796L4.78572 16.7281L5.52089 16.5796ZM18.4791 16.5796L17.744 16.4312L18.4791 16.5796ZM19.7352 14.1484C19.8171 13.7424 19.5545 13.3468 19.1484 13.2648C18.7424 13.1829 18.3468 13.4455 18.2648 13.8516L19 14L19.7352 14.1484ZM16.8039 21.2377L17.2923 21.8069L16.8039 21.2377ZM7.19608 21.2377L6.70773 21.8069H6.70773L7.19608 21.2377ZM13.5 4.5H12.75C12.75 4.91421 12.4142 5.25 12 5.25V6V6.75C13.2426 6.75 14.25 5.74264 14.25 4.5H13.5ZM12 6V5.25C11.5858 5.25 11.25 4.91421 11.25 4.5H10.5H9.75C9.75 5.74264 10.7574 6.75 12 6.75V6ZM10.5 4.5H11.25C11.25 4.50296 11.2507 4.46903 11.2771 4.38857C11.3022 4.31191 11.343 4.21621 11.4012 4.10312C11.5182 3.87586 11.6824 3.6227 11.8589 3.37723C12.0335 3.13447 12.2097 2.91367 12.3431 2.75275C12.4094 2.67268 12.4644 2.60837 12.5023 2.56465C12.5212 2.5428 12.5358 2.52616 12.5454 2.51532C12.5502 2.50991 12.5537 2.50595 12.5559 2.50352C12.557 2.5023 12.5577 2.50147 12.5581 2.50103C12.5583 2.50081 12.5584 2.50069 12.5584 2.50067C12.5584 2.50066 12.5584 2.50068 12.5584 2.50072C12.5584 2.50073 12.5583 2.50078 12.5583 2.50079C12.5583 2.50085 12.5582 2.50091 12 2C11.4418 1.49909 11.4417 1.49917 11.4417 1.49925C11.4416 1.49928 11.4415 1.49937 11.4415 1.49944C11.4414 1.49958 11.4412 1.49975 11.441 1.49994C11.4407 1.50032 11.4403 1.50081 11.4397 1.5014C11.4387 1.50257 11.4373 1.50415 11.4355 1.50612C11.432 1.51007 11.4271 1.5156 11.4209 1.52263C11.4085 1.53668 11.3909 1.55676 11.3688 1.58224C11.3246 1.63317 11.2625 1.70592 11.1882 1.7955C11.0403 1.9739 10.8415 2.22276 10.6411 2.50145C10.4426 2.77742 10.2318 3.09749 10.0675 3.41664C9.91573 3.71155 9.75 4.10526 9.75 4.5H10.5ZM12 2C11.4418 2.50091 11.4417 2.50085 11.4417 2.50079C11.4417 2.50078 11.4416 2.50073 11.4416 2.50072C11.4416 2.50068 11.4416 2.50066 11.4416 2.50067C11.4416 2.50069 11.4417 2.50081 11.4419 2.50103C11.4423 2.50147 11.443 2.5023 11.4441 2.50352C11.4463 2.50595 11.4498 2.50991 11.4546 2.51532C11.4642 2.52616 11.4788 2.5428 11.4977 2.56465C11.5356 2.60837 11.5906 2.67268 11.6569 2.75275C11.7903 2.91367 11.9665 3.13447 12.1411 3.37723C12.3176 3.6227 12.4818 3.87586 12.5988 4.10312C12.657 4.21621 12.6978 4.31191 12.7229 4.38857C12.7493 4.46903 12.75 4.50296 12.75 4.5H13.5H14.25C14.25 4.10526 14.0843 3.71155 13.9325 3.41664C13.7682 3.09749 13.5574 2.77742 13.3589 2.50145C13.1585 2.22276 12.9597 1.9739 12.8118 1.7955C12.7375 1.70592 12.6754 1.63317 12.6312 1.58224C12.6091 1.55676 12.5915 1.53668 12.5791 1.52263C12.5729 1.5156 12.568 1.51007 12.5645 1.50612C12.5627 1.50415 12.5613 1.50257 12.5603 1.5014C12.5597 1.50081 12.5593 1.50032 12.559 1.49994C12.5588 1.49975 12.5586 1.49958 12.5585 1.49944C12.5585 1.49937 12.5584 1.49928 12.5583 1.49925C12.5583 1.49917 12.5582 1.49909 12 2ZM12 6H11.25V9H12H12.75V6H12ZM20.5 11.5H19.75C19.75 12.381 18.9082 13.25 17.6667 13.25V14V14.75C19.5547 14.75 21.25 13.3804 21.25 11.5H20.5ZM17.6667 9V9.75C18.9082 9.75 19.75 10.619 19.75 11.5H20.5H21.25C21.25 9.61961 19.5547 8.25 17.6667 8.25V9ZM6.33333 14V13.25C5.09177 13.25 4.25 12.381 4.25 11.5H3.5H2.75C2.75 13.3804 4.44528 14.75 6.33333 14.75V14ZM3.5 11.5H4.25C4.25 10.619 5.09177 9.75 6.33333 9.75V9V8.25C4.44528 8.25 2.75 9.61961 2.75 11.5H3.5ZM6.33333 9V9.75H17.6667V9V8.25H6.33333V9ZM17.6667 14V13.25C16.5717 13.25 15.733 12.5655 15.5642 11.8319L14.8333 12L14.1024 12.1681C14.4587 13.7168 16.0202 14.75 17.6667 14.75V14ZM14.8333 12L14.1024 11.8319C13.9337 12.5655 13.095 13.25 12 13.25V14V14.75C13.6465 14.75 15.208 13.7168 15.5642 12.1681L14.8333 12ZM12 14V13.25C10.905 13.25 10.0663 12.5655 9.89757 11.8319L9.16667 12L8.43576 12.1681C8.79202 13.7168 10.3535 14.75 12 14.75V14ZM9.16667 12L8.43576 11.8319C8.26698 12.5655 7.42833 13.25 6.33333 13.25V14V14.75C7.97982 14.75 9.54131 13.7168 9.89757 12.1681L9.16667 12ZM5 14L4.26484 14.1484L4.78572 16.7281L5.52089 16.5796L6.25605 16.4312L5.73516 13.8516L5 14ZM11.839 22V22.75H12.161V22V21.25H11.839V22ZM18.4791 16.5796L19.2143 16.7281L19.7352 14.1484L19 14L18.2648 13.8516L17.744 16.4312L18.4791 16.5796ZM12.161 22V22.75C13.3927 22.75 14.3881 22.7515 15.184 22.6485C16.0038 22.5425 16.6976 22.3171 17.2923 21.8069L16.8039 21.2377L16.3156 20.6685C16.0217 20.9206 15.6455 21.0764 14.9917 21.1609C14.314 21.2485 13.4323 21.25 12.161 21.25V22ZM18.4791 16.5796L17.744 16.4312C17.4782 17.7473 17.2905 18.671 17.0648 19.3648C16.8445 20.0424 16.614 20.4125 16.3156 20.6685L16.8039 21.2377L17.2923 21.8069C17.8824 21.3007 18.2273 20.6403 18.4913 19.8287C18.75 19.0333 18.9556 18.0092 19.2143 16.7281L18.4791 16.5796ZM5.52089 16.5796L4.78572 16.7281C5.04441 18.0092 5.25001 19.0333 5.50872 19.8287C5.77269 20.6403 6.11761 21.3007 6.70773 21.8069L7.19608 21.2377L7.68442 20.6685C7.386 20.4125 7.15554 20.0424 6.93517 19.3648C6.70952 18.671 6.5218 17.7473 6.25605 16.4312L5.52089 16.5796ZM11.839 22V21.25C10.5677 21.25 9.68597 21.2485 9.00834 21.1609C8.35452 21.0764 7.97834 20.9206 7.68442 20.6685L7.19608 21.2377L6.70773 21.8069C7.30236 22.3171 7.99618 22.5425 8.81595 22.6485C9.61192 22.7515 10.6073 22.75 11.839 22.75V22Z" fill="#1C1917"/>
</svg>
