<svg width="24" height="24" viewBox="0 0 24 24" fill="none" xmlns="http://www.w3.org/2000/svg">
<path d="M5.86019 16.25C5.44598 16.25 5.11019 16.5858 5.11019 17C5.11019 17.4142 5.44598 17.75 5.86019 17.75V17V16.25ZM5.7172 14.5L5.45148 15.2014H5.45148L5.7172 14.5ZM7.79537 13.0032C7.79712 12.589 7.46276 12.2518 7.04855 12.25C6.63434 12.2483 6.29714 12.5826 6.29539 12.9968L7.04538 13L7.79537 13.0032ZM12 14H11.25C11.25 14.6612 11.1262 15.0779 10.9639 15.3486C10.808 15.6085 10.5805 15.7945 10.2484 15.9321C9.90138 16.076 9.45248 16.1612 8.88763 16.2054C8.32431 16.2496 7.69761 16.25 7 16.25V17V17.75C7.6831 17.75 8.37176 17.7504 9.00482 17.7008C9.63635 17.6513 10.2649 17.549 10.8227 17.3179C11.3954 17.0805 11.9001 16.704 12.2503 16.1201C12.594 15.5471 12.75 14.8388 12.75 14H12ZM7 17V16.25C6.30239 16.25 5.67569 16.2496 5.11237 16.2054C4.54752 16.1612 4.09862 16.076 3.75162 15.9321C3.41952 15.7945 3.192 15.6085 3.03612 15.3486C2.87378 15.0779 2.75 14.6612 2.75 14H2H1.25C1.25 14.8388 1.40605 15.5471 1.74973 16.1201C2.09988 16.704 2.60459 17.0805 3.17732 17.3179C3.73513 17.549 4.36365 17.6513 4.99518 17.7008C5.62824 17.7504 6.3169 17.75 7 17.75V17ZM2 14H2.75C2.75 12.6632 3.25703 11.0546 4.09098 9.78728C4.94006 8.497 5.99235 7.75 7 7.75V7V6.25C5.24622 6.25 3.79852 7.503 2.83795 8.96272C1.86226 10.4454 1.25 12.3368 1.25 14H2ZM7 7V7.75C8.00765 7.75 9.05994 8.497 9.90902 9.78728C10.743 11.0546 11.25 12.6632 11.25 14H12H12.75C12.75 12.3368 12.1377 10.4454 11.1621 8.96272C10.2015 7.503 8.75378 6.25 7 6.25V7ZM22 14H21.25C21.25 14.6612 21.1262 15.0779 20.9639 15.3486C20.808 15.6085 20.5805 15.7945 20.2484 15.9321C19.9014 16.076 19.4525 16.1612 18.8876 16.2054C18.3243 16.2496 17.6976 16.25 17 16.25V17V17.75C17.6831 17.75 18.3718 17.7504 19.0048 17.7008C19.6364 17.6513 20.2649 17.549 20.8227 17.3179C21.3954 17.0805 21.9001 16.704 22.2503 16.1201C22.594 15.5471 22.75 14.8388 22.75 14H22ZM17 7V7.75C18.0076 7.75 19.0599 8.497 19.909 9.78728C20.743 11.0546 21.25 12.6632 21.25 14H22H22.75C22.75 12.3368 22.1377 10.4454 21.1621 8.96272C20.2015 7.503 18.7538 6.25 17 6.25V7ZM17 7V6.25H7V7V7.75H17V7ZM17 17V16.25H7V17V17.75H17V17ZM9 14H8.25C8.25 14.8443 7.94546 15.376 7.54242 15.7102C7.11853 16.0616 6.51598 16.25 5.86019 16.25V17V17.75C6.78051 17.75 7.74787 17.4884 8.49986 16.8648C9.27269 16.224 9.75 15.2557 9.75 14H9ZM6.6451 10V10.75C7.02129 10.75 7.40057 10.9747 7.72535 11.5712C8.05156 12.1703 8.25 13.0385 8.25 14H9H9.75C9.75 12.8615 9.51963 11.7297 9.04272 10.8538C8.56436 9.97531 7.7662 9.25 6.6451 9.25V10ZM5.7172 14.5L5.45148 15.2014C5.95143 15.3908 6.45421 15.3796 6.8807 15.1115C7.2651 14.8698 7.46732 14.4918 7.57683 14.2051C7.69087 13.9065 7.74296 13.605 7.76817 13.3934C7.78116 13.2844 7.7879 13.1914 7.79142 13.1241C7.79318 13.0903 7.79416 13.0626 7.7947 13.0422C7.79497 13.0319 7.79513 13.0235 7.79523 13.0169C7.79528 13.0136 7.79531 13.0109 7.79533 13.0086C7.79535 13.0074 7.79535 13.0064 7.79536 13.0055C7.79536 13.005 7.79537 13.0046 7.79537 13.0042C7.79537 13.004 7.79537 13.0038 7.79537 13.0037C7.79537 13.0034 7.79537 13.0032 7.04538 13C6.29539 12.9968 6.29539 12.9966 6.29539 12.9964C6.29539 12.9963 6.29539 12.9961 6.29539 12.996C6.29539 12.9957 6.29539 12.9954 6.29539 12.9952C6.2954 12.9948 6.2954 12.9945 6.2954 12.9943C6.29541 12.994 6.29541 12.994 6.2954 12.9945C6.29538 12.9955 6.29534 12.9982 6.29522 13.0025C6.295 13.0111 6.2945 13.0259 6.29346 13.0458C6.29136 13.0859 6.28713 13.1453 6.27871 13.2159C6.26109 13.3638 6.22859 13.531 6.17554 13.6699C6.11798 13.8207 6.07064 13.849 6.08228 13.8416C6.13601 13.8079 6.14284 13.8592 5.98292 13.7986L5.7172 14.5ZM5.7172 14.5L5.98292 13.7986C5.97881 13.7971 5.86671 13.7521 5.7949 13.4164C5.72685 13.0983 5.73444 12.6616 5.82946 12.2036C5.92432 11.7464 6.09236 11.3354 6.28606 11.0588C6.49169 10.7652 6.62728 10.75 6.6451 10.75V10V9.25C5.91429 9.25 5.38471 9.73102 5.05742 10.1984C4.7182 10.6827 4.48555 11.2973 4.36074 11.8989C4.23609 12.4997 4.20502 13.1549 4.32808 13.7302C4.44737 14.2879 4.75616 14.9379 5.45148 15.2014L5.7172 14.5Z" fill="#1C1917"/>
</svg>
