<svg width="24" height="24" viewBox="0 0 24 24" fill="none" xmlns="http://www.w3.org/2000/svg">
<path d="M15 11C15 8.23858 13.1011 6 10.7588 6C9.1261 6 7.5 7 7 8M19 11C19 8.79086 17.4818 7 15.609 7C15.0267 7 14.4787 7.1731 14 7.47806M22 12C22 15.3137 17.5228 18 12 18C6.47715 18 2 15.3137 2 12M22 12C22 11.0054 20.4499 9.02165 18.5314 9.00018M22 12C22 13.6569 17.5228 15 12 15C6.47715 15 2 13.6569 2 12M2 12C2 9.79086 3.567 8 5.5 8C7.13086 8 8.5012 9.27477 8.88973 11" stroke="#1C1917" stroke-width="1.5" stroke-linecap="round"/>
</svg>
