<svg width="24" height="24" viewBox="0 0 24 24" fill="none" xmlns="http://www.w3.org/2000/svg">
<path d="M11 20H17.1838C19.011 20 19.9246 20 20.4697 19.3744C21.0148 18.7487 20.964 17.7584 20.8625 15.7778L20.629 11.2206C20.4287 9.93848 22 8.92302 22 7.55853C22 5.59321 19.0892 4 15.7826 4H8M2 7.55853C2 5.59321 5.04311 4 8.5 4C11.9569 4 15 5.59321 15 7.55853C15 8.92302 13.3573 9.93848 13.5666 11.2206L13.8108 15.7778C13.9169 17.7584 13.97 18.7487 13.4001 19.3744C12.8303 20 11.8751 20 9.9649 20H7.0351C5.12486 20 4.16975 20 3.59988 19.3744C3.03001 18.7487 3.08307 17.7584 3.18919 15.7778L3.43338 11.2206C3.6427 9.93848 2 8.92302 2 7.55853Z" stroke="#1C1917" stroke-width="1.5"/>
</svg>
