<svg width="24" height="24" viewBox="0 0 24 24" fill="none" xmlns="http://www.w3.org/2000/svg">
<path d="M10.6792 11.907C10.8086 11.5135 10.5945 11.0896 10.201 10.9602C9.80751 10.8308 9.38364 11.0449 9.25424 11.4384L9.96671 11.6727L10.6792 11.907ZM7.95209 4.79869L7.86418 5.54352L8.70209 5.64242V4.79869H7.95209ZM13.996 4.55129H13.246V6.13642L14.4716 5.13119L13.996 4.55129ZM18.8605 7.53846L18.1608 7.26857L18.8605 7.53846ZM16.0106 8.63462C15.5964 8.63462 15.2606 8.9704 15.2606 9.38462C15.2606 9.79883 15.5964 10.1346 16.0106 10.1346V9.38462V8.63462ZM13.996 10.6588H14.746C14.746 10.3289 14.5305 10.0378 14.215 9.94146C13.8996 9.84512 13.5582 9.96615 13.374 10.2397L13.996 10.6588ZM10.3577 11.0523C10.0042 10.8363 9.54264 10.9478 9.3267 11.3013C9.11075 11.6548 9.22224 12.1164 9.57571 12.3323L9.96671 11.6923L10.3577 11.0523ZM5.66375 11.006C6.0494 11.1571 6.48457 10.9671 6.63574 10.5814C6.78691 10.1958 6.59683 9.76059 6.21119 9.60942L5.93747 10.3077L5.66375 11.006ZM4.5609 9.01251C4.8652 8.73147 4.88405 8.25697 4.60302 7.95268C4.32198 7.64839 3.84748 7.62954 3.54319 7.91057L4.05205 8.46154L4.5609 9.01251ZM7.33438 13.3287C6.96361 13.144 6.51333 13.2949 6.32866 13.6656C6.14399 14.0364 6.29486 14.4867 6.66562 14.6713L7 14L7.33438 13.3287ZM9.5 21L8.75014 21.0146L9.5 21ZM17.3344 14.6713C17.7051 14.4867 17.856 14.0364 17.6713 13.6656C17.4867 13.2949 17.0364 13.144 16.6656 13.3287L17 14L17.3344 14.6713ZM14.5 21L13.7501 20.9854L14.5 21ZM9.96671 11.6727L9.25424 11.4384C8.92264 12.4468 7.85502 13.25 6.51566 13.25V14V14.75C8.43807 14.75 10.1256 13.5903 10.6792 11.907L9.96671 11.6727ZM7.95209 4.79869H8.70209C8.70209 3.73394 9.66696 2.75 10.974 2.75V2V1.25C8.94315 1.25 7.20209 2.80463 7.20209 4.79869H7.95209ZM10.974 2V2.75C12.3778 2.75 13.246 3.57089 13.246 4.55129H13.996H14.746C14.746 2.47288 12.9081 1.25 10.974 1.25V2ZM19.0325 6.61538H18.2825C18.2825 6.84449 18.2398 7.06382 18.1608 7.26857L18.8605 7.53846L19.5603 7.80836C19.7041 7.43567 19.7825 7.0336 19.7825 6.61538H19.0325ZM18.8605 7.53846L18.1608 7.26857C17.8655 8.03419 17.039 8.63462 16.0106 8.63462V9.38462V10.1346C17.6137 10.1346 19.0259 9.19386 19.5603 7.80836L18.8605 7.53846ZM16.0106 3.84615V4.59615C17.3283 4.59615 18.2825 5.5605 18.2825 6.61538H19.0325H19.7825C19.7825 4.61146 18.0308 3.09615 16.0106 3.09615V3.84615ZM13.996 4.55129L14.4716 5.13119C14.8718 4.80295 15.4096 4.59615 16.0106 4.59615V3.84615V3.09615C15.0636 3.09615 14.1894 3.42263 13.5203 3.97139L13.996 4.55129ZM17.5215 14V13.25C15.9502 13.25 14.746 12.0524 14.746 10.6588H13.996H13.246C13.246 12.9557 15.1987 14.75 17.5215 14.75V14ZM13.996 10.6588L13.374 10.2397C12.9453 10.8759 12.4531 11.2292 11.9748 11.3582C11.5082 11.4842 10.9632 11.4222 10.3577 11.0523L9.96671 11.6923L9.57571 12.3323C10.4812 12.8855 11.4471 13.0543 12.3656 12.8064C13.2724 12.5617 14.0393 11.9367 14.618 11.0778L13.996 10.6588ZM5.93747 10.3077L6.21119 9.60942C5.4603 9.31508 5.07088 8.89247 4.89341 8.48698C4.7131 8.075 4.71501 7.59808 4.89793 7.13174C5.26505 6.19583 6.34831 5.3646 7.86418 5.54352L7.95209 4.79869L8.04001 4.05386C5.85004 3.79538 4.11883 5.01025 3.50152 6.58399C3.19223 7.37248 3.15944 8.26627 3.51926 9.0884C3.88192 9.91702 4.60749 10.5919 5.66375 11.006L5.93747 10.3077ZM6.51566 14V13.25C5.18135 13.25 4.29751 12.5417 3.93697 11.6914C3.57501 10.8377 3.71486 9.79388 4.5609 9.01251L4.05205 8.46154L3.54319 7.91057C2.21391 9.13826 1.95673 10.8636 2.55598 12.2769C3.15665 13.6936 4.59229 14.75 6.51566 14.75V14ZM18.8605 7.53846L18.6041 8.24324C19.9477 8.7322 20.4271 9.94622 20.1946 11.0969C19.9618 12.2487 19.0272 13.25 17.5215 13.25V14V14.75C19.8291 14.75 21.3089 13.1555 21.6648 11.394C22.021 9.63147 21.2633 7.61472 19.117 6.83368L18.8605 7.53846ZM7 14L6.66562 14.6713C6.88777 14.782 7.3952 15.2367 7.8639 16.2954C8.32006 17.3257 8.70816 18.8642 8.75014 21.0146L9.5 21L10.2499 20.9854C10.2047 18.6724 9.78597 16.9315 9.23549 15.6881C8.69756 14.4731 7.99855 13.6595 7.33438 13.3287L7 14ZM17 14L16.6656 13.3287C16.0015 13.6595 15.3024 14.4731 14.7645 15.6881C14.214 16.9315 13.7953 18.6724 13.7501 20.9854L14.5 21L15.2499 21.0146C15.2918 18.8642 15.6799 17.3257 16.1361 16.2954C16.6048 15.2367 17.1122 14.782 17.3344 14.6713L17 14ZM9.5 21L8.75014 21.0146C8.76042 21.5408 9.11724 21.8764 9.36689 22.0502C9.63542 22.2372 9.96217 22.369 10.262 22.4631C10.8639 22.6519 11.5613 22.75 12 22.75V22V21.25C11.7231 21.25 11.177 21.1781 10.711 21.0319C10.4769 20.9584 10.3136 20.8816 10.224 20.8192C10.1155 20.7436 10.246 20.7892 10.2499 20.9854L9.5 21ZM14.5 21L13.7501 20.9854C13.754 20.7892 13.8845 20.7436 13.776 20.8192C13.6864 20.8816 13.5231 20.9584 13.289 21.0319C12.823 21.1781 12.2769 21.25 12 21.25V22V22.75C12.4387 22.75 13.1361 22.6519 13.738 22.4631C14.0378 22.369 14.3646 22.2371 14.6331 22.0502C14.8828 21.8764 15.2396 21.5408 15.2499 21.0146L14.5 21Z" fill="#1C1917"/>
</svg>
