<svg width="24" height="24" viewBox="0 0 24 24" fill="none" xmlns="http://www.w3.org/2000/svg">
<path d="M18 9L18.9879 9.15513L19.0375 8.839L18.8944 8.55279L18 9ZM16.5218 18.4136L17.5097 18.5687L16.5218 18.4136ZM7.47819 18.4136L8.46608 18.2585L7.47819 18.4136ZM8.41358 21.2644L7.77014 22.0299H7.77014L8.41358 21.2644ZM15.5864 21.2644L16.2299 22.0299H16.2299L15.5864 21.2644ZM6.89443 7.21114L6 6.76393L6.89443 7.21114ZM8.18461 5.2987L8.71034 6.14935H8.71034L8.18461 5.2987ZM5 8C4.44772 8 4 8.44772 4 9C4 9.55228 4.44772 10 5 10V9V8ZM19 10C19.5523 10 20 9.55228 20 9C20 8.44772 19.5523 8 19 8V9V10ZM11 9C11 9.55229 11.4477 10 12 10C12.5523 10 13 9.55229 13 9H12H11ZM13 2C13 1.44772 12.5523 1 12 1C11.4477 1 11 1.44772 11 2H12H13ZM9.93388 12.1057L9.64726 13.0638L9.93388 12.1057ZM18.2061 13.7193C18.5972 13.3294 18.5981 12.6962 18.2081 12.3051C17.8181 11.9141 17.1849 11.9132 16.7939 12.3032L17.5 13.0113L18.2061 13.7193ZM10.0078 18C10.5601 18 11.0078 17.5523 11.0078 17C11.0078 16.4477 10.5601 16 10.0078 16V17V18ZM9.99883 16C9.44655 16 8.99883 16.4477 8.99883 17C8.99883 17.5523 9.44655 18 9.99883 18V17V16ZM14.0078 20C14.5601 20 15.0078 19.5523 15.0078 19C15.0078 18.4477 14.5601 18 14.0078 18V19V20ZM13.9988 18C13.4465 18 12.9988 18.4477 12.9988 19C12.9988 19.5523 13.4465 20 13.9988 20V19V18ZM6.42932 8.14135L7.32375 8.58857L6.42932 8.14135ZM18 9L17.0121 8.84487L15.5339 18.2585L16.5218 18.4136L17.5097 18.5687L18.9879 9.15513L18 9ZM7.47819 18.4136L8.46608 18.2585L7.13681 9.79325L6.14892 9.94837L5.16103 10.1035L6.49029 18.5687L7.47819 18.4136ZM7.47819 18.4136L6.49029 18.5687C6.6107 19.3355 6.71385 20.0047 6.86834 20.5358C7.03117 21.0956 7.28168 21.6193 7.77014 22.0299L8.41358 21.2644L9.05701 20.4989C8.98356 20.4371 8.89087 20.3283 8.78874 19.9772C8.67826 19.5974 8.59466 19.0773 8.46608 18.2585L7.47819 18.4136ZM16.5218 18.4136L15.5339 18.2585C15.4053 19.0773 15.3217 19.5974 15.2113 19.9772C15.1091 20.3283 15.0164 20.4371 14.943 20.4989L15.5864 21.2644L16.2299 22.0299C16.7183 21.6193 16.9688 21.0956 17.1317 20.5358C17.2862 20.0047 17.3893 19.3355 17.5097 18.5687L16.5218 18.4136ZM8.41358 21.2644L7.77014 22.0299C8.26074 22.4422 8.99419 22.661 9.65198 22.7896C10.3579 22.9275 11.1709 22.9961 11.9704 22.9998C12.7697 23.0036 13.5886 22.9426 14.3056 22.8062C14.9786 22.6783 15.7231 22.4559 16.2299 22.0299L15.5864 21.2644L14.943 20.4989C14.8498 20.5772 14.5393 20.726 13.932 20.8414C13.3687 20.9485 12.6819 21.0031 11.9797 20.9999C11.2777 20.9966 10.5933 20.9357 10.0355 20.8267C9.42964 20.7083 9.13312 20.5628 9.05701 20.4989L8.41358 21.2644ZM6.42932 8.14135L7.32375 8.58857L7.78885 7.65836L6.89443 7.21114L6 6.76393L5.5349 7.69414L6.42932 8.14135ZM10.4721 5V6H13.5279V5V4H10.4721V5ZM17.1056 7.21115L16.2111 7.65836L17.1056 9.44721L18 9L18.8944 8.55279L18 6.76393L17.1056 7.21115ZM13.5279 5V6C14.1498 6 14.5407 6.00123 14.8386 6.03203C15.1135 6.06045 15.2215 6.10723 15.2897 6.14935L15.8154 5.2987L16.3411 4.44805C15.926 4.19147 15.4917 4.0889 15.0443 4.04264C14.62 3.99877 14.1087 4 13.5279 4V5ZM17.1056 7.21115L18 6.76393C17.7402 6.24438 17.5127 5.78658 17.2837 5.42667C17.0422 5.04721 16.7563 4.70462 16.3411 4.44805L15.8154 5.2987L15.2897 6.14935C15.3578 6.19147 15.448 6.2672 15.5963 6.50033C15.7571 6.75301 15.933 7.10208 16.2111 7.65836L17.1056 7.21115ZM6.89443 7.21114L7.78885 7.65836C8.06699 7.10208 8.24291 6.75301 8.40369 6.50033C8.55202 6.2672 8.64218 6.19147 8.71034 6.14935L8.18461 5.2987L7.65887 4.44805C7.24373 4.70462 6.95775 5.04721 6.71631 5.42667C6.4873 5.78658 6.25978 6.24438 6 6.76393L6.89443 7.21114ZM10.4721 5V4C9.89126 4 9.38004 3.99877 8.95571 4.04264C8.50833 4.0889 8.07402 4.19147 7.65887 4.44805L8.18461 5.2987L8.71034 6.14935C8.77849 6.10723 8.88654 6.06045 9.1614 6.03203C9.4593 6.00123 9.8502 6 10.4721 6V5ZM5 9V10H19V9V8H5V9ZM12 9H13V2H12H11V9H12ZM6.5 13.0112L7.37359 13.4979C7.30828 13.6151 7.27974 13.584 7.48146 13.4629C7.64014 13.3676 7.86634 13.2625 8.13336 13.1757C8.69354 12.9937 9.25819 12.9474 9.64726 13.0638L9.93388 12.1057L10.2205 11.1477C9.28727 10.8685 8.27271 11.0276 7.5154 11.2736C7.12367 11.4009 6.75655 11.5654 6.45217 11.7481C6.19082 11.9049 5.82946 12.1601 5.62641 12.5245L6.5 13.0112ZM9.93388 12.1057L9.64726 13.0638C9.95159 13.1548 10.3748 13.3715 11.0119 13.6951C11.6025 13.9951 12.3205 14.3545 13.0813 14.6166C14.6109 15.1435 16.5699 15.3511 18.2061 13.7193L17.5 13.0113L16.7939 12.3032C15.9507 13.144 14.9531 13.146 13.7327 12.7257C13.1185 12.5141 12.5132 12.2145 11.9176 11.9119C11.3685 11.633 10.7426 11.3039 10.2205 11.1477L9.93388 12.1057ZM10.0078 17V16H9.99883V17V18H10.0078V17ZM14.0078 19V18H13.9988V19V20H14.0078V19ZM6.14892 9.94837L7.13681 9.79325C7.07224 9.38202 7.13759 8.96089 7.32375 8.58857L6.42932 8.14135L5.5349 7.69414C5.16257 8.43878 5.03188 9.28104 5.16103 10.1035L6.14892 9.94837Z" fill="#1C1917"/>
</svg>
