<svg width="24" height="24" viewBox="0 0 24 24" fill="none" xmlns="http://www.w3.org/2000/svg">
<path d="M18 9L18.9879 9.15513L19.0305 8.88371L18.9285 8.62861L18 9ZM16.5218 18.4136L17.5097 18.5687L16.5218 18.4136ZM7.47819 18.4136L8.46608 18.2585L7.47819 18.4136ZM8.41358 21.2644L7.77014 22.0299H7.77014L8.41358 21.2644ZM15.5864 21.2644L16.2299 22.0299H16.2299L15.5864 21.2644ZM6.51444 7.71391L7.44291 8.0853H7.44291L6.51444 7.71391ZM17.4856 7.71391L16.5571 8.0853V8.0853L17.4856 7.71391ZM5 8C4.44772 8 4 8.44772 4 9C4 9.55228 4.44772 10 5 10V9V8ZM19 10C19.5523 10 20 9.55228 20 9C20 8.44772 19.5523 8 19 8V9V10ZM12.0809 8.60608C11.8633 9.11371 12.0985 9.70159 12.6061 9.91915C13.1137 10.1367 13.7016 9.90155 13.9191 9.39392L13 9L12.0809 8.60608ZM16.9191 2.39392C17.1367 1.88629 16.9015 1.29841 16.3939 1.08085C15.8863 0.863299 15.2984 1.09845 15.0809 1.60608L16 2L16.9191 2.39392ZM10.0089 17.5C10.5612 17.5 11.0089 17.0523 11.0089 16.5C11.0089 15.9477 10.5612 15.5 10.0089 15.5V16.5V17.5ZM10 15.5C9.44772 15.5 9 15.9477 9 16.5C9 17.0523 9.44772 17.5 10 17.5V16.5V15.5ZM14 19C14.5523 19 15 18.5523 15 18C15 17.4477 14.5523 17 14 17V18V19ZM13.9911 17C13.4388 17 12.9911 17.4477 12.9911 18C12.9911 18.5523 13.4388 19 13.9911 19V18V17ZM13.0112 15C13.5635 15 14.0112 14.5523 14.0112 14C14.0112 13.4477 13.5635 13 13.0112 13V14V15ZM13.0023 13C12.45 13 12.0023 13.4477 12.0023 14C12.0023 14.5523 12.45 15 13.0023 15V14V13ZM6.12786 9.81426L5.13997 9.96939L6.12786 9.81426ZM18 9L17.0121 8.84487L15.5339 18.2585L16.5218 18.4136L17.5097 18.5687L18.9879 9.15513L18 9ZM7.47819 18.4136L8.46608 18.2585L7.11576 9.65914L6.12786 9.81426L5.13997 9.96939L6.49029 18.5687L7.47819 18.4136ZM7.47819 18.4136L6.49029 18.5687C6.6107 19.3355 6.71385 20.0047 6.86834 20.5358C7.03117 21.0956 7.28168 21.6193 7.77014 22.0299L8.41358 21.2644L9.05701 20.4989C8.98356 20.4371 8.89087 20.3283 8.78874 19.9772C8.67826 19.5974 8.59466 19.0773 8.46608 18.2585L7.47819 18.4136ZM16.5218 18.4136L15.5339 18.2585C15.4053 19.0773 15.3217 19.5974 15.2113 19.9772C15.1091 20.3283 15.0164 20.4371 14.943 20.4989L15.5864 21.2644L16.2299 22.0299C16.7183 21.6193 16.9688 21.0956 17.1317 20.5358C17.2862 20.0047 17.3893 19.3355 17.5097 18.5687L16.5218 18.4136ZM8.41358 21.2644L7.77014 22.0299C8.26074 22.4422 8.99419 22.661 9.65198 22.7896C10.3579 22.9275 11.1709 22.9961 11.9704 22.9998C12.7697 23.0036 13.5886 22.9426 14.3056 22.8062C14.9786 22.6783 15.7231 22.4559 16.2299 22.0299L15.5864 21.2644L14.943 20.4989C14.8498 20.5772 14.5393 20.726 13.932 20.8414C13.3687 20.9485 12.6819 21.0031 11.9797 20.9999C11.2777 20.9966 10.5933 20.9357 10.0355 20.8267C9.42964 20.7083 9.13312 20.5628 9.05701 20.4989L8.41358 21.2644ZM6.30612 8.23471L7.23459 8.6061L7.44291 8.0853L6.51444 7.71391L5.58596 7.34252L5.37764 7.86332L6.30612 8.23471ZM17.4856 7.71391L16.5571 8.0853L17.0715 9.37139L18 9L18.9285 8.62861L18.414 7.34252L17.4856 7.71391ZM12 4V5C14.007 5 15.8117 6.22188 16.5571 8.0853L17.4856 7.71391L18.414 7.34252C17.3649 4.71979 14.8248 3 12 3V4ZM6.51444 7.71391L7.44291 8.0853C8.18828 6.22188 9.99304 5 12 5V4V3C9.17523 3 6.63505 4.71979 5.58596 7.34252L6.51444 7.71391ZM5 9V10H19V9V8H5V9ZM13 9L13.9191 9.39392L16.9191 2.39392L16 2L15.0809 1.60608L12.0809 8.60608L13 9ZM10.0089 16.5V15.5H10V16.5V17.5H10.0089V16.5ZM14 18V17H13.9911V18V19H14V18ZM13.0112 14V13H13.0023V14V15H13.0112V14ZM6.12786 9.81426L7.11576 9.65914C7.05996 9.30382 7.10102 8.94004 7.23459 8.6061L6.30612 8.23471L5.37764 7.86332C5.11049 8.5312 5.02838 9.25876 5.13997 9.96939L6.12786 9.81426Z" fill="#1C1917"/>
</svg>
