<svg width="24" height="24" viewBox="0 0 24 24" fill="none" xmlns="http://www.w3.org/2000/svg">
<path d="M22.75 10C22.75 9.58579 22.4142 9.25 22 9.25C21.5858 9.25 21.25 9.58579 21.25 10H22H22.75ZM2.75 11.0395C2.75 10.6253 2.41421 10.2895 2 10.2895C1.58579 10.2895 1.25 10.6253 1.25 11.0395H2H2.75ZM8.59703 20.7492L8.51948 20.0032L8.59703 20.7492ZM2.98698 20.3013L3.50089 19.755L2.98698 20.3013ZM21.2244 18.6262L20.6587 18.1338L21.2244 18.6262ZM16.7922 19.4716L17.4688 19.1481L16.7922 19.4716ZM17.3727 19.836L17.2923 19.0903H17.2923L17.3727 19.836ZM13.0652 19.8668L12.338 19.6834L12.338 19.6834L13.0652 19.8668ZM12.5751 20.3357L12.6527 21.0817H12.6527L12.5751 20.3357ZM18.469 11.4342L18.5003 12.1836L18.469 11.4342ZM6.92976 11.9175L6.89838 11.1681L6.92976 11.9175ZM21.5235 7.65944L20.8451 7.97918V7.97918L21.5235 7.65944ZM16.823 3.22601L16.5368 3.91924V3.91924L16.823 3.22601ZM2.01169 11.3933L2.72671 11.167L2.72671 11.167L2.01169 11.3933ZM9.7727 6.46807L9.29167 7.04349L9.29167 7.04349L9.7727 6.46807ZM13.2962 3.89603L12.9148 3.25022L12.9148 3.25022L13.2962 3.89603ZM16.0078 8.95947C16.422 8.95947 16.7578 8.62369 16.7578 8.20947C16.7578 7.79526 16.422 7.45947 16.0078 7.45947V8.20947V8.95947ZM15.9988 7.45947C15.5846 7.45947 15.2488 7.79526 15.2488 8.20947C15.2488 8.62369 15.5846 8.95947 15.9988 8.95947V8.20947V7.45947ZM17.0078 15.9595C17.422 15.9595 17.7578 15.6237 17.7578 15.2095C17.7578 14.7953 17.422 14.4595 17.0078 14.4595V15.2095V15.9595ZM16.9988 14.4595C16.5846 14.4595 16.2488 14.7953 16.2488 15.2095C16.2488 15.6237 16.5846 15.9595 16.9988 15.9595V15.2095V14.4595ZM22 10H21.25V13.7113H22H22.75V10H22ZM2 14.5429H2.75V11.0395H2H1.25V14.5429H2ZM8.59703 20.7492L8.51948 20.0032C6.95541 20.1658 5.86349 20.2775 5.03652 20.2442C4.23437 20.2119 3.81008 20.0459 3.50089 19.755L2.98698 20.3013L2.47308 20.8475C3.15087 21.4852 3.99059 21.7033 4.97621 21.743C5.937 21.7816 7.15661 21.653 8.67457 21.4952L8.59703 20.7492ZM2 14.5429H1.25C1.25 16.1314 1.24841 17.3984 1.38001 18.3809C1.51402 19.3814 1.80021 20.2145 2.47308 20.8475L2.98698 20.3013L3.50089 19.755C3.18677 19.4595 2.97947 19.0234 2.86673 18.1818C2.75159 17.3222 2.75 16.1743 2.75 14.5429H2ZM22 13.7113H21.25C21.25 15.0719 21.2486 16.0232 21.1587 16.7483C21.0712 17.4548 20.9095 17.8457 20.6587 18.1338L21.2244 18.6262L21.79 19.1187C22.3149 18.5158 22.541 17.7906 22.6473 16.9329C22.7514 16.094 22.75 15.0333 22.75 13.7113H22ZM16.7922 19.4716L17.4688 19.1481C17.027 18.2237 16.0967 17.5664 15 17.5664V18.3164V19.0664C15.474 19.0664 15.9028 19.3501 16.1155 19.795L16.7922 19.4716ZM17.3727 19.836L17.4532 20.5816C18.4751 20.4714 19.3261 20.363 20.0149 20.168C20.7258 19.9669 21.3194 19.6592 21.79 19.1187L21.2244 18.6262L20.6587 18.1338C20.436 18.3895 20.1334 18.5756 19.6065 18.7247C19.0577 18.88 18.3294 18.9784 17.2923 19.0903L17.3727 19.836ZM15 18.3164V17.5664C13.7014 17.5664 12.6404 18.4841 12.338 19.6834L13.0652 19.8668L13.7925 20.0502C13.94 19.4651 14.4409 19.0664 15 19.0664V18.3164ZM12.5751 20.3357L12.4976 19.5897L8.51948 20.0032L8.59703 20.7492L8.67457 21.4952L12.6527 21.0817L12.5751 20.3357ZM13.0652 19.8668L12.338 19.6834C12.3386 19.6811 12.3415 19.669 12.3599 19.6506C12.3814 19.6292 12.4284 19.5969 12.4976 19.5897L12.5751 20.3357L12.6527 21.0817C13.2929 21.0151 13.6772 20.5074 13.7925 20.0502L13.0652 19.8668ZM16.7922 19.4716L16.1155 19.795C16.3196 20.222 16.8031 20.6518 17.4532 20.5816L17.3727 19.836L17.2923 19.0903C17.3633 19.0826 17.417 19.1055 17.4422 19.1221C17.4637 19.1362 17.4683 19.1469 17.4688 19.1481L16.7922 19.4716ZM18.469 11.4342L18.4376 10.6849L6.89838 11.1681L6.92976 11.9175L6.96114 12.6668L18.5003 12.1836L18.469 11.4342ZM21.5235 7.65944L22.2019 7.3397C21.1849 5.18174 19.3606 3.46239 17.1093 2.53278L16.823 3.22601L16.5368 3.91924C18.4519 4.71004 19.9916 6.16814 20.8451 7.97918L21.5235 7.65944ZM6.92976 11.9175L6.89838 11.1681C5.31411 11.2344 4.19404 11.2801 3.43672 11.2266C3.05603 11.1996 2.83673 11.151 2.72086 11.1035C2.62427 11.064 2.69547 11.0683 2.72671 11.167L2.01169 11.3933L1.29667 11.6197C1.44197 12.0786 1.79413 12.345 2.15253 12.4917C2.49164 12.6305 2.90136 12.6924 3.33084 12.7228C4.19386 12.7839 5.41878 12.7314 6.96114 12.6668L6.92976 11.9175ZM11.0621 6.93603V7.68603C12.5932 7.68603 13.8288 6.44027 13.8288 4.91045H13.0788H12.3288C12.3288 5.61803 11.7586 6.18603 11.0621 6.18603V6.93603ZM9.7727 6.46807L9.29167 7.04349C9.77086 7.44407 10.3891 7.68603 11.0621 7.68603V6.93603V6.18603C10.7543 6.18603 10.4736 6.07649 10.2537 5.89264L9.7727 6.46807ZM13.2962 3.89603L13.6775 4.54184C14.8106 3.87276 15.565 3.51796 16.5368 3.91924L16.823 3.22601L17.1093 2.53278C15.3834 1.82015 14.0137 2.60134 12.9148 3.25022L13.2962 3.89603ZM18.469 11.4342L18.5003 12.1836C19.2134 12.1537 19.89 12.0782 20.482 11.9232C21.0691 11.7695 21.6289 11.5234 22.0516 11.1128C22.4955 10.6816 22.7368 10.1181 22.7495 9.45222C22.7616 8.81418 22.5647 8.10931 22.2019 7.3397L21.5235 7.65944L20.8451 7.97918C21.1554 8.63757 21.2558 9.1042 21.2497 9.42375C21.2442 9.71542 21.1518 9.89565 21.0065 10.0368C20.84 10.1986 20.5551 10.3535 20.1021 10.4721C19.6542 10.5894 19.0953 10.6574 18.4376 10.6849L18.469 11.4342ZM9.7727 6.46807L10.2537 5.89264C10.0359 5.71059 9.78513 5.6508 9.5921 5.63342C9.39563 5.61573 9.1969 5.63601 9.01504 5.66975C8.65117 5.73725 8.23751 5.88154 7.81625 6.06124C6.966 6.42394 5.95542 6.98733 5.00253 7.59935C4.04932 8.21157 3.12227 8.89274 2.4453 9.50265C2.11021 9.80455 1.81067 10.1118 1.60083 10.4022C1.49639 10.5467 1.39459 10.7136 1.32823 10.8948C1.26406 11.0701 1.20607 11.3336 1.29667 11.6197L2.01169 11.3933L2.72671 11.167C2.75108 11.2439 2.75207 11.3089 2.74841 11.3497C2.74659 11.37 2.74356 11.3853 2.74125 11.395C2.73894 11.4046 2.73701 11.4099 2.73675 11.4107C2.73653 11.4112 2.74078 11.3998 2.75461 11.3755C2.76817 11.3516 2.7882 11.3201 2.81662 11.2808C2.93647 11.1149 3.14714 10.8893 3.44933 10.6171C4.04694 10.0787 4.90276 9.44617 5.81314 8.86145C6.72384 8.27654 7.65758 7.75971 8.40481 7.44095C8.78229 7.27992 9.08066 7.18317 9.28865 7.14458C9.39273 7.12527 9.4449 7.12624 9.4576 7.12738C9.47375 7.12883 9.39039 7.12602 9.29167 7.04349L9.7727 6.46807ZM13.0788 4.91045H13.8288C13.8288 4.77592 13.8133 4.63851 13.8054 4.56011C13.7957 4.46279 13.7927 4.41581 13.794 4.38301C13.795 4.35448 13.7985 4.38151 13.7749 4.42985C13.7458 4.48917 13.7026 4.52702 13.6775 4.54184L13.2962 3.89603L12.9148 3.25022C12.699 3.37766 12.5333 3.55455 12.4277 3.77011C12.3275 3.97469 12.3006 4.17514 12.295 4.32799C12.2895 4.47657 12.3038 4.61893 12.3129 4.70968C12.3239 4.81934 12.3288 4.8687 12.3288 4.91045H13.0788ZM16.0078 8.20947V7.45947H15.9988V8.20947V8.95947H16.0078V8.20947ZM17.0078 15.2095V14.4595H16.9988V15.2095V15.9595H17.0078V15.2095ZM7 16.2095H6.25C6.25 17.4521 7.25736 18.4595 8.5 18.4595V17.7095V16.9595C8.08579 16.9595 7.75 16.6237 7.75 16.2095H7ZM8.5 17.7095V18.4595C9.74264 18.4595 10.75 17.4521 10.75 16.2095H10H9.25C9.25 16.6237 8.91421 16.9595 8.5 16.9595V17.7095ZM10 16.2095H10.75C10.75 14.9668 9.74264 13.9595 8.5 13.9595V14.7095V15.4595C8.91421 15.4595 9.25 15.7953 9.25 16.2095H10ZM8.5 14.7095V13.9595C7.25736 13.9595 6.25 14.9668 6.25 16.2095H7H7.75C7.75 15.7953 8.08579 15.4595 8.5 15.4595V14.7095Z" fill="#1C1917"/>
</svg>
