<svg width="24" height="24" viewBox="0 0 24 24" fill="none" xmlns="http://www.w3.org/2000/svg">
<path d="M3.50391 16.25C3.08969 16.25 2.75391 16.5858 2.75391 17C2.75391 17.4142 3.08969 17.75 3.50391 17.75V17V16.25ZM11.0159 17.75C11.4301 17.75 11.7659 17.4142 11.7659 17C11.7659 16.5858 11.4301 16.25 11.0159 16.25V17V17.75ZM18.5273 16.25C18.1131 16.25 17.7773 16.5858 17.7773 17C17.7773 17.4142 18.1131 17.75 18.5273 17.75V17V16.25ZM21.0313 17.75C21.4456 17.75 21.7813 17.4142 21.7813 17C21.7813 16.5858 21.4456 16.25 21.0313 16.25V17V17.75ZM15.1814 3.7276C15.5833 3.62713 15.8276 3.21993 15.7271 2.81808C15.6266 2.41624 15.2194 2.17193 14.8176 2.2724L14.9995 3L15.1814 3.7276ZM10.2506 8.7169C10.6381 8.57046 10.8335 8.13764 10.687 7.75018C10.5406 7.36272 10.1078 7.16733 9.72032 7.31377L9.98548 8.01534L10.2506 8.7169ZM2.00054 12.0465L1.32663 12.3757C1.4014 12.5288 1.52608 12.6519 1.68012 12.7247L2.00054 12.0465ZM11.3356 12.6015L11.3075 11.852L11.3356 12.6015ZM13.6022 14.0779L12.8714 14.2463L12.8714 14.2463L13.6022 14.0779ZM14.1329 15.8039L13.553 16.2796L13.553 16.2796L14.1329 15.8039ZM14.9149 16.033L14.7251 15.3074H14.7251L14.9149 16.033ZM16.3649 13.4935L17.0923 13.6766V13.6766L16.3649 13.4935ZM16.8235 12.7924L17.0694 13.5009V13.5009L16.8235 12.7924ZM21.9629 11.5426L22.7129 11.5426V11.53L22.7125 11.5173L21.9629 11.5426ZM19.0639 6.82551L19.5298 6.23775V6.23775L19.0639 6.82551ZM16.6075 6.07104L16.5475 5.32345L16.6075 6.07104ZM14.4856 5.93622C14.1722 6.20709 14.1378 6.68072 14.4087 6.99409C14.6795 7.30746 15.1531 7.34191 15.4665 7.07104L14.9761 6.50363L14.4856 5.93622ZM2.70803 11.8272C2.61651 11.4233 2.21484 11.17 1.81086 11.2615C1.40688 11.353 1.15358 11.7547 1.2451 12.1586L1.97656 11.9929L2.70803 11.8272ZM2.95189 16.2984L3.68414 16.1361L3.68336 16.1327L2.95189 16.2984ZM4.52387 20.3397L4.05438 20.9246L4.05439 20.9246L4.52387 20.3397ZM21.3669 17.3927L20.6208 17.3162L20.6205 17.3191L21.3669 17.3927ZM22.7035 11.7103C22.7457 11.2982 22.4459 10.9299 22.0339 10.8877C21.6218 10.8455 21.2535 11.1452 21.2113 11.5573L21.9574 11.6338L22.7035 11.7103ZM3.50391 17V17.75H11.0159V17V16.25H3.50391V17ZM18.5273 17V17.75H21.0313V17V16.25H18.5273V17ZM12.4998 5V5.75C13.466 5.75 14.2495 6.53344 14.2495 7.5H14.9995H15.7495C15.7495 5.70514 14.2946 4.25 12.4998 4.25V5ZM14.9995 7.5H14.2495C14.2495 8.46656 13.466 9.25 12.4998 9.25V10V10.75C14.2946 10.75 15.7495 9.29486 15.7495 7.5H14.9995ZM12.4998 10V9.25C11.5335 9.25 10.75 8.46656 10.75 7.5H10H9.25C9.25 9.29486 10.7049 10.75 12.4998 10.75V10ZM10 7.5H10.75C10.75 6.53344 11.5335 5.75 12.4998 5.75V5V4.25C10.7049 4.25 9.25 5.70514 9.25 7.5H10ZM12.4998 5L13.2113 5.23719C13.3032 4.96132 13.8493 4.06067 15.1814 3.7276L14.9995 3L14.8176 2.2724C12.9501 2.73933 12.0297 4.03868 11.7883 4.76281L12.4998 5ZM9.98548 8.01534L9.72032 7.31377C6.75361 8.43505 4.63189 9.26906 3.2966 9.92089C2.63882 10.242 2.10796 10.5486 1.75976 10.8582C1.58558 11.0131 1.40449 11.214 1.30068 11.4686C1.18361 11.7558 1.18075 12.077 1.32663 12.3757L2.00054 12.0465L2.67445 11.7174C2.72938 11.8299 2.72194 11.9558 2.6897 12.0349C2.67072 12.0814 2.66388 12.0615 2.75644 11.9792C2.94174 11.8144 3.31435 11.5814 3.95461 11.2689C5.21539 10.6534 7.26802 9.84419 10.2506 8.7169L9.98548 8.01534ZM2.00054 12.0465L1.68012 12.7247C2.82217 13.2643 4.36319 13.4372 5.99702 13.4768C7.64852 13.5168 9.52185 13.42 11.3637 13.3509L11.3356 12.6015L11.3075 11.852C9.42923 11.9225 7.62458 12.0158 6.03335 11.9772C4.42446 11.9383 3.15802 11.764 2.32095 11.3684L2.00054 12.0465ZM13.6022 14.0779L12.8714 14.2463C12.909 14.4098 12.9401 14.5694 12.9728 14.7364C13.0044 14.8981 13.0385 15.0717 13.0792 15.2381C13.1587 15.5629 13.2827 15.95 13.553 16.2796L14.1329 15.8039L14.7127 15.3282C14.6597 15.2635 14.6003 15.1434 14.5363 14.8817C14.5052 14.7548 14.4775 14.6153 14.4448 14.4482C14.4132 14.2864 14.3773 14.1017 14.3331 13.9095L13.6022 14.0779ZM14.9149 16.033L15.1047 16.7586C15.7586 16.5875 16.1697 16.1317 16.4496 15.5941C16.7159 15.0825 16.9059 14.4168 17.0923 13.6766L16.3649 13.4935L15.6376 13.3105C15.4487 14.0611 15.2939 14.5656 15.1191 14.9014C14.9579 15.2111 14.8317 15.2796 14.7251 15.3074L14.9149 16.033ZM16.8235 12.7924L17.0694 13.5009C17.2451 13.4399 17.596 13.4113 18.1566 13.4125C18.6538 13.4135 19.3128 13.4377 19.8895 13.4195C20.4642 13.4013 21.1122 13.3411 21.6355 13.1142C21.9082 12.9959 22.1851 12.8165 22.3935 12.5389C22.609 12.252 22.7129 11.9108 22.7129 11.5426L21.9629 11.5426L21.2129 11.5426C21.2129 11.6188 21.1956 11.6362 21.194 11.6383C21.1853 11.6498 21.1493 11.69 21.0386 11.738C20.7952 11.8436 20.3947 11.9028 19.8421 11.9202C19.2914 11.9377 18.7444 11.9137 18.1598 11.9125C17.6386 11.9113 17.032 11.9261 16.5776 12.0838L16.8235 12.7924ZM21.9629 11.5426L22.7125 11.5173C22.6779 10.4946 22.4698 9.611 21.9416 8.74316C21.4268 7.89723 20.6367 7.11512 19.5298 6.23775L19.0639 6.82551L18.598 7.41327C19.6539 8.25018 20.282 8.90152 20.6603 9.52303C21.0252 10.1226 21.1853 10.7405 21.2133 11.568L21.9629 11.5426ZM16.6075 6.07104L16.5475 5.32345C15.6327 5.39688 14.9662 5.52077 14.4856 5.93622L14.9761 6.50363L15.4665 7.07104C15.5363 7.01073 15.7317 6.89375 16.6675 6.81864L16.6075 6.07104ZM19.0639 6.82551L19.5298 6.23775C18.6886 5.57098 17.6227 5.23713 16.5475 5.32345L16.6075 6.07104L16.6675 6.81864C17.3559 6.76338 18.0476 6.97698 18.598 7.41327L19.0639 6.82551ZM16.3649 13.4935L17.0923 13.6766C17.1085 13.6122 17.123 13.5606 17.1379 13.5168C17.1528 13.4728 17.1648 13.4473 17.172 13.4343C17.179 13.4218 17.1761 13.4308 17.158 13.4478C17.1374 13.4673 17.1066 13.488 17.0694 13.5009L16.8235 12.7924L16.5776 12.0838C16.2093 12.2116 15.9885 12.4756 15.8604 12.7065C15.7393 12.9248 15.6761 13.1577 15.6376 13.3105L16.3649 13.4935ZM14.1329 15.8039L13.553 16.2796C13.9549 16.7694 14.59 16.8933 15.1047 16.7586L14.9149 16.033L14.7251 15.3074C14.7185 15.3092 14.7112 15.3101 14.704 15.3101C14.6968 15.31 14.6917 15.309 14.6893 15.3083C14.687 15.3077 14.6888 15.3079 14.6936 15.3109C14.6987 15.3141 14.7058 15.3197 14.7127 15.3282L14.1329 15.8039ZM11.3356 12.6015L11.3637 13.3509C12.1783 13.3204 12.7496 13.7181 12.8714 14.2463L13.6022 14.0779L14.3331 13.9095C13.9905 12.4227 12.5404 11.8057 11.3075 11.852L11.3356 12.6015ZM1.97656 11.9929L1.2451 12.1586L2.22043 16.4641L2.95189 16.2984L3.68336 16.1327L2.70803 11.8272L1.97656 11.9929ZM2.95189 16.2984L2.21966 16.4607C2.46539 17.5695 2.663 18.4671 2.90934 19.166C3.16248 19.8841 3.49342 20.4743 4.05438 20.9246L4.52387 20.3397L4.99336 19.7548C4.73161 19.5447 4.52632 19.2412 4.32403 18.6673C4.11494 18.0741 3.93791 17.2813 3.68413 16.1361L2.95189 16.2984ZM4.52387 20.3397L4.05439 20.9246C4.61537 21.3749 5.26313 21.5703 6.019 21.6621C6.75456 21.7514 7.67357 21.7501 8.80916 21.7501V21.0001V20.2501C7.63637 20.2501 6.82409 20.2488 6.19979 20.173C5.59579 20.0997 5.2551 19.9649 4.99336 19.7548L4.52387 20.3397ZM8.80916 21.0001V21.7501H17.3866V21.0001V20.2501H8.80916V21.0001ZM17.3866 21.0001V21.7501C18.2277 21.7501 18.9306 21.7515 19.4917 21.6792C20.0741 21.6041 20.6024 21.4394 21.0455 21.0378L20.5418 20.4821L20.0381 19.9264C19.9096 20.0428 19.7216 20.1371 19.2998 20.1915C18.8569 20.2486 18.2679 20.2501 17.3866 20.2501V21.0001ZM20.5418 20.4821L21.0455 21.0378C21.4885 20.6363 21.7042 20.1267 21.8361 19.5544C21.9632 19.0031 22.0307 18.3035 22.1133 17.4663L21.3669 17.3927L20.6205 17.3191C20.534 18.1962 20.4748 18.7823 20.3744 19.2176C20.2789 19.632 20.1666 19.8099 20.0381 19.9264L20.5418 20.4821ZM21.3669 17.3927L22.113 17.4692L22.7035 11.7103L21.9574 11.6338L21.2113 11.5573L20.6208 17.3162L21.3669 17.3927Z" fill="#1C1917"/>
</svg>
