<svg width="24" height="24" viewBox="0 0 24 24" fill="none" xmlns="http://www.w3.org/2000/svg">
<path d="M10 15.8446L6.68575 19.1589C7.45757 19.7089 7.56154 20.8655 6.88551 21.5416C6.27426 22.1528 5.28323 22.1528 4.67198 21.5416C4.19008 21.0597 4.02512 20.2787 4.30305 19.6969C3.72125 19.9749 2.94033 19.8099 2.45844 19.328C1.84719 18.7168 1.84719 17.7257 2.45844 17.1145C3.13447 16.4385 4.29108 16.5424 4.84114 17.3142L8.15538 14M20.3181 3.68189C18.1694 1.53315 14.8712 1.34751 12.5368 3.68189C10.2024 6.01628 6.49743 13.2051 8.64618 15.3538C9.73049 16.4381 12.0982 16.0318 14.478 15.0632C13.3426 13.7886 14.7572 11.6697 16.4055 12.3559C15.6579 9.39829 19.6533 7.59535 21.4285 9.94858C22.4975 7.8437 22.033 5.39675 20.3181 3.68189Z" stroke="#1C1917" stroke-width="1.5" stroke-linejoin="round"/>
</svg>
