<svg width="24" height="24" viewBox="0 0 24 24" fill="none" xmlns="http://www.w3.org/2000/svg">
<path d="M16.4392 17.0984L15.8152 16.6824L16.4392 17.0984ZM16.3462 17.2379L15.7222 16.8219L16.3462 17.2379ZM6.90157 7.56078L6.48555 6.93674L6.48555 6.93674L6.90157 7.56078ZM6.76211 7.65376L7.17813 8.27779L7.17813 8.27779L6.76211 7.65376ZM8.68235 13.6344L9.41779 13.4873L8.68235 13.6344ZM8.4123 12.2841L9.14773 12.1371L8.4123 12.2841ZM10.3656 15.3176L10.5127 14.5822L10.3656 15.3176ZM11.7159 15.5877L11.5688 16.3231L11.7159 15.5877ZM12.5117 15.8209L12.1086 16.4534L12.1086 16.4534L12.5117 15.8209ZM13.0914 16.802L12.3799 17.0392V17.0392L13.0914 16.802ZM12.7613 16.0413L13.3389 15.5628L13.3389 15.5628L12.7613 16.0413ZM8.17908 11.4883L7.54662 11.8914L7.54662 11.8914L8.17908 11.4883ZM7.19799 10.9086L7.43516 10.1971L7.19799 10.9086ZM7.95873 11.2387L8.43716 10.6611L8.43716 10.6611L7.95873 11.2387ZM5.02086 9.19212L4.28545 9.04494L5.02086 9.19212ZM5.11333 9.88258L4.44255 10.2181L4.44255 10.2181L5.11333 9.88258ZM14.8079 18.9791L14.6607 18.2437H14.6607L14.8079 18.9791ZM14.1174 18.8867L13.7819 19.5574L13.7819 19.5575L14.1174 18.8867ZM16.9667 15.6673L16.24 15.8526V15.8526L16.9667 15.6673ZM16.9985 15.9885L17.7475 16.0277V16.0277L16.9985 15.9885ZM8.33269 7.03327L8.51802 6.30653H8.51802L8.33269 7.03327ZM8.01149 7.00147L7.97228 6.25249L8.01149 7.00147ZM11.7256 19.8557L12.2559 20.386L12.2619 20.3801L12.2677 20.374L11.7256 19.8557ZM5.66057 19.8557L6.1909 19.3254L5.66057 19.8557ZM4.14431 18.3394L4.67464 17.8091L4.14431 18.3394ZM4.14431 12.2744L3.62599 11.7323L3.61992 11.7381L3.61398 11.7441L4.14431 12.2744ZM12.6459 4.06241L13.1762 4.59274L12.6459 4.06241ZM18.4792 4.06241L19.0096 3.53208V3.53208L18.4792 4.06241ZM19.9376 5.52076L19.4073 6.05109L19.9376 5.52076ZM19.9376 11.3541L19.4073 10.8238V10.8238L19.9376 11.3541ZM22 8.43745L21.25 8.43745V8.43745L22 8.43745ZM9.31135 7.79939L8.78102 8.32972L15.6703 15.219L16.2006 14.6886L16.7309 14.1583L9.84168 7.26906L9.31135 7.79939ZM16.4392 17.0984L15.8152 16.6824L15.7222 16.8219L16.3462 17.2379L16.9703 17.6539L17.0633 17.5145L16.4392 17.0984ZM6.90157 7.56078L6.48555 6.93674L6.34608 7.02972L6.76211 7.65376L7.17813 8.27779L7.3176 8.18481L6.90157 7.56078ZM8.68235 13.6344L9.41779 13.4873L9.14773 12.1371L8.4123 12.2841L7.67686 12.4312L7.94692 13.7815L8.68235 13.6344ZM10.3656 15.3176L10.2185 16.0531L11.5688 16.3231L11.7159 15.5877L11.8629 14.8523L10.5127 14.5822L10.3656 15.3176ZM11.7159 15.5877L11.5688 16.3231C12.0455 16.4185 12.0857 16.4388 12.1086 16.4534L12.5117 15.8209L12.9148 15.1884C12.599 14.9872 12.2215 14.924 11.8629 14.8523L11.7159 15.5877ZM13.0914 16.802L13.8029 16.5648C13.6873 16.2179 13.5778 15.8512 13.3389 15.5628L12.7613 16.0413L12.1837 16.5197C12.201 16.5406 12.2261 16.5779 12.3799 17.0392L13.0914 16.802ZM12.5117 15.8209L12.1086 16.4534C12.1369 16.4714 12.1623 16.4938 12.1837 16.5197L12.7613 16.0413L13.3389 15.5628C13.2179 15.4167 13.0748 15.2904 12.9148 15.1884L12.5117 15.8209ZM8.4123 12.2841L9.14773 12.1371C9.07602 11.7785 9.01282 11.401 8.81155 11.0852L8.17908 11.4883L7.54662 11.8914C7.56117 11.9143 7.58151 11.9545 7.67686 12.4312L8.4123 12.2841ZM7.19799 10.9086L6.96082 11.6201C7.42208 11.7739 7.45945 11.799 7.48031 11.8163L7.95873 11.2387L8.43716 10.6611C8.14877 10.4222 7.78206 10.3127 7.43516 10.1971L7.19799 10.9086ZM8.17908 11.4883L8.81155 11.0852C8.70959 10.9252 8.58327 10.7821 8.43716 10.6611L7.95873 11.2387L7.48031 11.8163C7.50618 11.8377 7.52856 11.8631 7.54662 11.8914L8.17908 11.4883ZM8.68235 13.6344L7.94692 13.7815C8.01171 14.1055 8.07102 14.4073 8.14882 14.6538C8.23214 14.9178 8.3552 15.1838 8.58569 15.4143L9.11602 14.884L9.64635 14.3537C9.64359 14.3509 9.63822 14.3454 9.62889 14.3283C9.61794 14.3082 9.60091 14.2709 9.57927 14.2023C9.53165 14.0514 9.48898 13.8433 9.41779 13.4873L8.68235 13.6344ZM10.3656 15.3176L10.5127 14.5822C10.1567 14.511 9.94856 14.4683 9.79769 14.4207C9.72913 14.3991 9.69179 14.3821 9.6717 14.3711C9.6546 14.3618 9.6491 14.3564 9.64635 14.3537L9.11602 14.884L8.58569 15.4143C8.81618 15.6448 9.08224 15.7679 9.34624 15.8512C9.59274 15.929 9.89453 15.9883 10.2185 16.0531L10.3656 15.3176ZM6.76211 7.65376L6.34608 7.02972C5.80941 7.3875 5.35567 7.68877 5.03121 7.95851C4.71693 8.21978 4.38211 8.56196 4.28545 9.04494L5.02086 9.19212L5.75628 9.33931C5.74681 9.38662 5.73126 9.32718 5.99013 9.11197C6.23882 8.90523 6.61211 8.65514 7.17813 8.27779L6.76211 7.65376ZM7.19799 10.9086L7.43516 10.1971C6.78979 9.98196 6.36385 9.83891 6.06953 9.70488C5.76316 9.56537 5.76252 9.50393 5.7841 9.54708L5.11333 9.88258L4.44255 10.2181C4.66289 10.6586 5.07594 10.9006 5.44789 11.07C5.8319 11.2449 6.34891 11.4161 6.96082 11.6201L7.19799 10.9086ZM5.02086 9.19212L4.28545 9.04494C4.20587 9.44258 4.26115 9.85539 4.44255 10.2181L5.11333 9.88258L5.7841 9.54708C5.75198 9.48285 5.74218 9.40973 5.75628 9.33931L5.02086 9.19212ZM16.3462 17.2379L15.7222 16.8219C15.3449 17.3879 15.0948 17.7612 14.888 18.0099C14.6728 18.2687 14.6134 18.2532 14.6607 18.2437L14.8079 18.9791L14.9551 19.7146C15.438 19.6179 15.7802 19.2831 16.0415 18.9688C16.3112 18.6443 16.6125 18.1906 16.9703 17.6539L16.3462 17.2379ZM13.0914 16.802L12.3799 17.0392C12.5839 17.6511 12.7551 18.1681 12.93 18.5521C13.0994 18.9241 13.3414 19.3371 13.7819 19.5574L14.1174 18.8867L14.4529 18.2159C14.4961 18.2375 14.4346 18.2368 14.2951 17.9305C14.1611 17.6361 14.018 17.2102 13.8029 16.5648L13.0914 16.802ZM14.8079 18.9791L14.6607 18.2437C14.5903 18.2578 14.5172 18.248 14.4529 18.2159L14.1174 18.8867L13.7819 19.5575C14.1446 19.7388 14.5574 19.7941 14.9551 19.7146L14.8079 18.9791ZM16.2006 14.6886L15.6703 15.219C15.9117 15.4604 16.0546 15.6045 16.151 15.7214C16.1952 15.775 16.2175 15.8088 16.2289 15.8289C16.2388 15.8464 16.24 15.8526 16.24 15.8526L16.9667 15.6673L17.6935 15.482C17.6193 15.1913 17.4701 14.9634 17.3084 14.7673C17.1555 14.5818 16.9518 14.3792 16.7309 14.1583L16.2006 14.6886ZM16.4392 17.0984L17.0633 17.5145C17.2365 17.2546 17.3966 17.016 17.5101 16.8041C17.6302 16.58 17.7318 16.3273 17.7475 16.0277L16.9985 15.9885L16.2496 15.9493C16.2496 15.9493 16.2496 15.9557 16.2433 15.9748C16.2361 15.9967 16.2209 16.0342 16.188 16.0955C16.1165 16.229 16.0045 16.3984 15.8152 16.6824L16.4392 17.0984ZM16.9667 15.6673L16.24 15.8526C16.248 15.8842 16.2513 15.9168 16.2496 15.9493L16.9985 15.9885L17.7475 16.0277C17.7571 15.8441 17.7389 15.6601 17.6935 15.482L16.9667 15.6673ZM9.31135 7.79939L9.84168 7.26906C9.62082 7.0482 9.41824 6.84448 9.23272 6.69155C9.0366 6.52989 8.80871 6.38066 8.51802 6.30653L8.33269 7.03327L8.14735 7.76001C8.14736 7.76002 8.1536 7.76121 8.17109 7.77112C8.19119 7.78252 8.22497 7.80478 8.27862 7.849C8.39555 7.94539 8.53965 8.08835 8.78102 8.32972L9.31135 7.79939ZM6.90157 7.56078L7.3176 8.18482C7.60163 7.99546 7.77097 7.88354 7.90452 7.81196C7.96581 7.77912 8.00329 7.76391 8.02523 7.75668C8.04433 7.75039 8.05068 7.75044 8.05069 7.75044L8.01149 7.00147L7.97228 6.25249C7.67269 6.26818 7.41997 6.36981 7.19595 6.48987C6.98404 6.60344 6.74544 6.76348 6.48555 6.93674L6.90157 7.56078ZM8.33269 7.03327L8.51802 6.30653C8.33987 6.2611 8.15587 6.24288 7.97228 6.25249L8.01149 7.00147L8.05069 7.75044C8.08321 7.74874 8.1158 7.75197 8.14735 7.76001L8.33269 7.03327ZM13.5 18L12.9579 17.4817L11.1835 19.3374L11.7256 19.8557L12.2677 20.374L14.0421 18.5183L13.5 18ZM5.66057 19.8557L6.1909 19.3254L4.67464 17.8091L4.14431 18.3394L3.61398 18.8698L5.13024 20.386L5.66057 19.8557ZM4.14431 12.2744L4.66264 12.8165L6.51832 11.0421L6 10.5L5.48168 9.95793L3.62599 11.7323L4.14431 12.2744ZM4.14431 18.3394L4.67464 17.8091C3.94488 17.0793 3.45203 16.5842 3.13234 16.1652C2.82586 15.7635 2.75 15.5211 2.75 15.3069H2H1.25C1.25 15.9809 1.53153 16.54 1.93981 17.0751C2.33489 17.5929 2.91421 18.17 3.61398 18.8698L4.14431 18.3394ZM4.14431 12.2744L3.61398 11.7441C2.91421 12.4438 2.33489 13.0209 1.93981 13.5387C1.53153 14.0738 1.25 14.6329 1.25 15.3069H2H2.75C2.75 15.0927 2.82586 14.8503 3.13234 14.4486C3.45203 14.0296 3.94488 13.5345 4.67464 12.8047L4.14431 12.2744ZM11.7256 19.8557L11.1953 19.3254C10.4655 20.0551 9.97042 20.548 9.55141 20.8677C9.14972 21.1741 8.90728 21.25 8.69309 21.25V22V22.75C9.36711 22.75 9.92616 22.4685 10.4613 22.0602C10.9791 21.6651 11.5562 21.0858 12.2559 20.386L11.7256 19.8557ZM5.66057 19.8557L5.13024 20.386C5.83002 21.0858 6.40708 21.6651 6.9249 22.0602C7.46003 22.4685 8.01907 22.75 8.69309 22.75V22V21.25C8.47891 21.25 8.23647 21.1741 7.83477 20.8677C7.41577 20.548 6.92067 20.0551 6.1909 19.3254L5.66057 19.8557ZM9 7.70827L9.53033 8.2386L13.1762 4.59274L12.6459 4.06241L12.1155 3.53208L8.46967 7.17794L9 7.70827ZM18.4792 4.06241L17.9489 4.59274L19.4073 6.05109L19.9376 5.52076L20.4679 4.99043L19.0096 3.53208L18.4792 4.06241ZM19.9376 11.3541L19.4073 10.8238L15.7614 14.4697L16.2917 15L16.8221 15.5303L20.4679 11.8845L19.9376 11.3541ZM19.9376 5.52076L19.4073 6.05109C20.1097 6.75355 20.5821 7.22817 20.8881 7.62929C21.181 8.01309 21.25 8.24023 21.25 8.43745L22 8.43745L22.75 8.43745C22.75 7.78039 22.4753 7.23665 22.0807 6.71941C21.6992 6.21949 21.1404 5.6629 20.4679 4.99043L19.9376 5.52076ZM19.9376 11.3541L20.4679 11.8845C21.1404 11.212 21.6992 10.6554 22.0807 10.1555C22.4753 9.63825 22.75 9.0945 22.75 8.43745L22 8.43745L21.25 8.43745C21.25 8.63467 21.181 8.8618 20.8881 9.24561C20.5821 9.64672 20.1097 10.1213 19.4073 10.8238L19.9376 11.3541ZM12.6459 4.06241L13.1762 4.59274C13.8787 3.89028 14.3533 3.41791 14.7544 3.11187C15.1382 2.81903 15.3653 2.75 15.5626 2.75V2V1.25C14.9055 1.25 14.3618 1.5247 13.8445 1.91934C13.3446 2.30077 12.788 2.8596 12.1155 3.53208L12.6459 4.06241ZM18.4792 4.06241L19.0096 3.53208C18.3371 2.8596 17.7805 2.30077 17.2806 1.91934C16.7634 1.5247 16.2196 1.25 15.5626 1.25V2V2.75C15.7598 2.75 15.9869 2.81903 16.3707 3.11187C16.7718 3.41791 17.2465 3.89028 17.9489 4.59274L18.4792 4.06241ZM19.6003 4.39996L19.07 3.86963L15.4698 7.46979L16.0001 8.00012L16.5305 8.53046L20.1306 4.93029L19.6003 4.39996ZM16.0001 8.00012L15.4698 7.46979L11.87 11.0696L12.4003 11.6L12.9306 12.1303L16.5305 8.53046L16.0001 8.00012ZM12 4L11.4697 4.53033L15.4698 8.53046L16.0001 8.00012L16.5305 7.46979L12.5303 3.46967L12 4ZM16.0001 8.00012L15.4698 8.53046L19.4697 12.5303L20 12L20.5303 11.4697L16.5305 7.46979L16.0001 8.00012Z" fill="#1C1917"/>
</svg>
