<svg width="24" height="24" viewBox="0 0 24 24" fill="none" xmlns="http://www.w3.org/2000/svg">
<path d="M18.2505 9.75C17.8363 9.75 17.5005 10.0858 17.5005 10.5C17.5005 10.9142 17.8363 11.25 18.2505 11.25V10.5V9.75ZM21.9975 12.0838L22.7471 12.1091L21.9975 12.0838ZM16.8696 16.7614C16.4617 16.8334 16.1894 17.2225 16.2614 17.6304C16.3334 18.0383 16.7225 18.3106 17.1304 18.2386L17 17.5L16.8696 16.7614ZM2.00143 10.5001L1.25157 10.5144L2.00143 10.5001ZM5.94627 20.6145L5.48913 21.209L5.94627 20.6145ZM17.9986 10.5001L18.7484 10.5144V10.5144L17.9986 10.5001ZM14.0537 20.6145L14.5109 21.209H14.5109L14.0537 20.6145ZM11.7038 3.13763C12.056 2.91955 12.1647 2.45729 11.9466 2.10513C11.7285 1.75297 11.2662 1.64428 10.9141 1.86237L11.3089 2.5L11.7038 3.13763ZM9.25125 5.5C9.25125 5.91421 9.58703 6.25 10.0012 6.25C10.4155 6.25 10.7512 5.91421 10.7512 5.5H10.0012H9.25125ZM8.04941 4.55018C8.35327 4.26868 8.37139 3.79415 8.08989 3.4903C7.80839 3.18644 7.33386 3.16831 7.03 3.44982L7.53971 4L8.04941 4.55018ZM6.25 5.5C6.25 5.91421 6.58579 6.25 7 6.25C7.41421 6.25 7.75 5.91421 7.75 5.5H7H6.25ZM14.3961 4.63763C14.7483 4.41955 14.857 3.95729 14.6389 3.60513C14.4208 3.25297 13.9585 3.14428 13.6064 3.36237L14.0012 4L14.3961 4.63763ZM12.75 5.5C12.75 5.91421 13.0858 6.25 13.5 6.25C13.9142 6.25 14.25 5.91421 14.25 5.5H13.5H12.75ZM18.2505 10.5V11.25H19.6403V10.5V9.75H18.2505V10.5ZM21.9975 12.0838L21.248 12.0585C21.2143 13.0553 20.974 14.068 20.3489 14.8992C19.7348 15.7156 18.6865 16.4407 16.8696 16.7614L17 17.5L17.1304 18.2386C19.2525 17.864 20.6661 16.9727 21.5476 15.8008C22.418 14.6436 22.707 13.2958 22.7471 12.1091L21.9975 12.0838ZM19.6403 10.5V11.25C20.0915 11.25 20.4303 11.2666 20.6875 11.3042C20.9482 11.3423 21.0717 11.395 21.1274 11.4304C21.1437 11.4407 21.2676 11.4761 21.248 12.0585L21.9975 12.0838L22.7471 12.1091C22.772 11.3732 22.643 10.6167 21.9324 10.1647C21.6247 9.96895 21.2662 9.87284 20.9044 9.81997C20.5391 9.76658 20.1148 9.75 19.6403 9.75V10.5ZM2.00143 10.5001L1.25157 10.5144C1.32535 14.3823 1.81979 18.3879 5.48913 21.209L5.94627 20.6145L6.40341 20.0199C3.32392 17.6522 2.82401 14.2978 2.75129 10.4858L2.00143 10.5001ZM17.9986 10.5001L17.2487 10.4858C17.176 14.2978 16.6761 17.6522 13.5966 20.0199L14.0537 20.6145L14.5109 21.209C18.1802 18.3879 18.6746 14.3823 18.7484 10.5144L17.9986 10.5001ZM4.65919 8.5V9.25H15.3408V8.5V7.75H4.65919V8.5ZM10.9194 21.5V20.75H9.08064V21.5V22.25H10.9194V21.5ZM2.00143 10.5001L2.75129 10.4858C2.73559 9.66272 2.87286 9.52843 2.93887 9.4792C2.99952 9.43396 3.13253 9.36777 3.42871 9.31947C3.7231 9.27146 4.11887 9.25 4.65919 9.25V8.5V7.75C4.09554 7.75 3.60316 7.7712 3.18728 7.83903C2.77319 7.90656 2.37382 8.02936 2.04207 8.27681C1.32327 8.81293 1.23562 9.6787 1.25157 10.5144L2.00143 10.5001ZM17.9986 10.5001L18.7484 10.5144C18.7644 9.6787 18.6767 8.81292 17.9579 8.27681C17.6262 8.02936 17.2268 7.90656 16.8127 7.83903C16.3968 7.7712 15.9045 7.75 15.3408 7.75V8.5V9.25C15.8811 9.25 16.2769 9.27146 16.5713 9.31947C16.8675 9.36777 17.0005 9.43396 17.0611 9.4792C17.1271 9.52843 17.2644 9.66272 17.2487 10.4858L17.9986 10.5001ZM14.0537 20.6145L13.5966 20.0199C13.1851 20.3363 12.8317 20.5081 12.4479 20.6086C12.0489 20.713 11.582 20.75 10.9194 20.75V21.5V22.25C11.6205 22.25 12.2407 22.2134 12.8278 22.0597C13.4302 21.902 13.9621 21.631 14.5109 21.209L14.0537 20.6145ZM5.94627 20.6145L5.48913 21.209C6.0379 21.631 6.56984 21.902 7.1722 22.0597C7.75933 22.2134 8.37947 22.25 9.08064 22.25V21.5V20.75C8.41803 20.75 7.95113 20.713 7.5521 20.6086C7.1683 20.5081 6.81494 20.3363 6.40341 20.0199L5.94627 20.6145ZM11.3089 2.5L10.9141 1.86237C10.4818 2.13004 10.0742 2.63575 9.77845 3.23063C9.4731 3.84489 9.25125 4.62384 9.25125 5.5H10.0012H10.7512C10.7512 4.87616 10.9098 4.32441 11.1216 3.89833C11.3431 3.45286 11.5893 3.20857 11.7038 3.13763L11.3089 2.5ZM7.53971 4C7.03 3.44982 7.02973 3.45007 7.02946 3.45032C7.02937 3.45041 7.02909 3.45066 7.02891 3.45084C7.02853 3.45118 7.02815 3.45154 7.02776 3.45191C7.02697 3.45264 7.02616 3.4534 7.02531 3.4542C7.0236 3.45581 7.02177 3.45755 7.0198 3.45943C7.01587 3.46319 7.01142 3.46751 7.00648 3.47239C6.9966 3.48215 6.98477 3.49417 6.97127 3.50846C6.9443 3.53701 6.91055 3.57478 6.87246 3.62184C6.7964 3.71579 6.70203 3.84797 6.60984 4.01879C6.424 4.36313 6.25 4.85954 6.25 5.5H7H7.75C7.75 5.14046 7.84585 4.88687 7.92986 4.73121C7.9726 4.65203 8.01316 4.59671 8.0383 4.56566C8.0508 4.55022 8.05922 4.54111 8.06177 4.53842C8.06303 4.53708 8.06279 4.53738 8.06082 4.53933C8.05983 4.54031 8.05841 4.5417 8.05652 4.5435C8.05557 4.54441 8.05451 4.54541 8.05333 4.54653C8.05274 4.54708 8.05211 4.54767 8.05146 4.54828C8.05114 4.54858 8.0508 4.54889 8.05046 4.54921C8.05029 4.54937 8.05003 4.54961 8.04994 4.54969C8.04968 4.54994 8.04941 4.55018 7.53971 4ZM14.0012 4L13.6064 3.36237C13.3704 3.50847 13.2283 3.73148 13.1494 3.87598C13.059 4.04142 12.9875 4.22568 12.9323 4.40207C12.8238 4.74884 12.75 5.15805 12.75 5.5H13.5H14.25C14.25 5.34195 14.2901 5.08582 14.3639 4.84991C14.3999 4.73497 14.4366 4.64856 14.4658 4.595C14.5065 4.5205 14.4954 4.57618 14.3961 4.63763L14.0012 4Z" fill="#1C1917"/>
</svg>
