<svg width="24" height="24" viewBox="0 0 24 24" fill="none" xmlns="http://www.w3.org/2000/svg">
<path d="M5 7L4.31194 6.70154L4.22339 6.90569L4.26051 7.1251L5 7ZM6.7602 17.4048L6.02071 17.53L6.7602 17.4048ZM19 7L19.7395 7.1251L19.7766 6.90569L19.6881 6.70154L19 7ZM17.2398 17.4048L16.5003 17.2797L17.2398 17.4048ZM16.2399 20.7417L15.6732 20.2504L16.2399 20.7417ZM7.76007 20.7417L8.32679 20.2504H8.32679L7.76007 20.7417ZM5.74278 5.2876L6.43084 5.58606L5.74278 5.2876ZM18.2572 5.2876L18.9453 4.98915V4.98915L18.2572 5.2876ZM16.709 2.7856L16.3118 3.42179V3.42179L16.709 2.7856ZM7.29101 2.7856L6.89382 2.14941V2.14941L7.29101 2.7856ZM4 6.25C3.58579 6.25 3.25 6.58579 3.25 7C3.25 7.41421 3.58579 7.75 4 7.75V7V6.25ZM20 7.75C20.4142 7.75 20.75 7.41421 20.75 7C20.75 6.58579 20.4142 6.25 20 6.25V7V7.75ZM5 7L4.26051 7.1251L6.02071 17.53L6.7602 17.4048L7.4997 17.2797L5.73949 6.8749L5 7ZM19 7L18.2605 6.8749L16.5003 17.2797L17.2398 17.4048L17.9793 17.53L19.7395 7.1251L19 7ZM17.2398 17.4048L16.5003 17.2797C16.3449 18.1986 16.2365 18.8343 16.1042 19.3207C15.9757 19.7936 15.8415 20.0563 15.6732 20.2504L16.2399 20.7417L16.8067 21.2329C17.1793 20.8031 17.392 20.3016 17.5517 19.7142C17.7077 19.1403 17.8288 18.4196 17.9793 17.53L17.2398 17.4048ZM6.7602 17.4048L6.02071 17.53C6.17122 18.4196 6.29229 19.1403 6.44828 19.7142C6.60796 20.3016 6.82072 20.8031 7.19335 21.2329L7.76007 20.7417L8.32679 20.2504C8.15849 20.0563 8.02428 19.7936 7.89576 19.3207C7.76354 18.8343 7.65514 18.1986 7.4997 17.2797L6.7602 17.4048ZM16.2399 20.7417L15.6732 20.2504C15.4502 20.5077 14.9953 20.7697 14.3038 20.9632C13.6322 21.1511 12.8237 21.25 12 21.25C11.1763 21.25 10.3678 21.1511 9.69616 20.9632C9.0047 20.7697 8.54976 20.5077 8.32679 20.2504L7.76007 20.7417L7.19334 21.2329C7.69753 21.8146 8.48436 22.1817 9.29199 22.4077C10.1194 22.6392 11.0673 22.75 12 22.75C12.9327 22.75 13.8806 22.6392 14.708 22.4077C15.5156 22.1817 16.3025 21.8146 16.8067 21.2329L16.2399 20.7417ZM5 7L5.68806 7.29846L6.43084 5.58606L5.74278 5.2876L5.05472 4.98915L4.31194 6.70154L5 7ZM19 7L19.6881 6.70154L18.9453 4.98915L18.2572 5.2876L17.5692 5.58606L18.3119 7.29846L19 7ZM18.2572 5.2876L18.9453 4.98915C18.6477 4.30301 18.4003 3.72993 18.1421 3.28339C17.8729 2.81792 17.5618 2.43384 17.1062 2.14941L16.709 2.7856L16.3118 3.42179C16.4911 3.53373 16.6496 3.69877 16.8436 4.03428C17.0485 4.3887 17.2579 4.86844 17.5692 5.58606L18.2572 5.2876ZM5.74278 5.2876L6.43084 5.58606C6.74212 4.86844 6.95147 4.3887 7.15642 4.03428C7.35043 3.69877 7.5089 3.53373 7.6882 3.42179L7.29101 2.7856L6.89382 2.14941C6.43824 2.43384 6.12705 2.81792 5.85789 3.28339C5.59967 3.72993 5.35235 4.30301 5.05472 4.98915L5.74278 5.2876ZM7.29101 2.7856L7.6882 3.42179C7.95118 3.2576 8.50163 3.08236 9.30483 2.95248C10.0797 2.82718 11.0028 2.7571 11.9399 2.75051C12.8772 2.74392 13.8094 2.801 14.6031 2.92282C15.4212 3.04838 16.0052 3.23037 16.3118 3.42179L16.709 2.7856L17.1062 2.14941C16.5309 1.79024 15.6954 1.5729 14.8306 1.44018C13.9415 1.3037 12.9274 1.24353 11.9294 1.25055C10.9311 1.25756 9.92982 1.33193 9.06538 1.47172C8.22928 1.60692 7.42557 1.81742 6.89382 2.14941L7.29101 2.7856ZM4 7V7.75H20V7V6.25H4V7ZM14 14.5H13.25C13.25 15.6313 12.5428 16.25 12 16.25V17V17.75C13.6663 17.75 14.75 16.1301 14.75 14.5H14ZM12 17V16.25C11.4572 16.25 10.75 15.6313 10.75 14.5H10H9.25C9.25 16.1301 10.3337 17.75 12 17.75V17ZM10 14.5H10.75C10.75 13.3687 11.4572 12.75 12 12.75V12V11.25C10.3337 11.25 9.25 12.8699 9.25 14.5H10ZM12 12V12.75C12.5428 12.75 13.25 13.3687 13.25 14.5H14H14.75C14.75 12.8699 13.6663 11.25 12 11.25V12Z" fill="#1C1917"/>
</svg>
