<svg width="24" height="24" viewBox="0 0 24 24" fill="none" xmlns="http://www.w3.org/2000/svg">
<path d="M21.9416 13.8586L21.2047 13.719V13.719L21.9416 13.8586ZM20.3101 12.3438L20.1807 13.0826L20.3101 12.3438ZM18.2333 10.588L18.9469 10.3573L18.9469 10.3573L18.2333 10.588ZM17.2352 9.86554L17.2663 9.11619L17.2352 9.86554ZM15.2032 7.02602L15.8832 7.3424L15.2032 7.02602ZM15.0078 6.19448L14.5473 6.78647V6.78647L15.0078 6.19448ZM14.0978 3.62604L14.8417 3.72154L14.8417 3.72153L14.0978 3.62604ZM13.1854 2.05455L13.1061 2.80034L13.1854 2.05455ZM11.0078 12.75C11.422 12.75 11.7578 12.4142 11.7578 12C11.7578 11.5858 11.422 11.25 11.0078 11.25V12V12.75ZM10.9988 11.25C10.5846 11.25 10.2488 11.5858 10.2488 12C10.2488 12.4142 10.5846 12.75 10.9988 12.75V12V11.25ZM6.00781 10.75C6.42203 10.75 6.75781 10.4142 6.75781 10C6.75781 9.58579 6.42203 9.25 6.00781 9.25V10V10.75ZM5.99883 9.25C5.58462 9.25 5.24883 9.58579 5.24883 10C5.24883 10.4142 5.58462 10.75 5.99883 10.75V10V9.25ZM12.0078 18.75C12.422 18.75 12.7578 18.4142 12.7578 18C12.7578 17.5858 12.422 17.25 12.0078 17.25V18V18.75ZM11.9988 17.25C11.5846 17.25 11.2488 17.5858 11.2488 18C11.2488 18.4142 11.5846 18.75 11.9988 18.75V18V17.25ZM10.5303 6.53033C10.8232 6.23744 10.8232 5.76256 10.5303 5.46967C10.2374 5.17678 9.76256 5.17678 9.46967 5.46967L10 6L10.5303 6.53033ZM8.46967 6.46967C8.17678 6.76256 8.17678 7.23744 8.46967 7.53033C8.76256 7.82322 9.23744 7.82322 9.53033 7.53033L9 7L8.46967 6.46967ZM17.5303 14.5303C17.8232 14.2374 17.8232 13.7626 17.5303 13.4697C17.2374 13.1768 16.7626 13.1768 16.4697 13.4697L17 14L17.5303 14.5303ZM15.4697 14.4697C15.1768 14.7626 15.1768 15.2374 15.4697 15.5303C15.7626 15.8232 16.2374 15.8232 16.5303 15.5303L16 15L15.4697 14.4697ZM7.53033 14.4697C7.23744 14.1768 6.76256 14.1768 6.46967 14.4697C6.17678 14.7626 6.17678 15.2374 6.46967 15.5303L7 15L7.53033 14.4697ZM7.46967 16.5303C7.76256 16.8232 8.23744 16.8232 8.53033 16.5303C8.82322 16.2374 8.82322 15.7626 8.53033 15.4697L8 16L7.46967 16.5303ZM21.9416 13.8586L21.2047 13.719C20.3932 18.0038 16.6082 21.25 12.0579 21.25V22V22.75C17.3368 22.75 21.7343 18.9835 22.6785 13.9982L21.9416 13.8586ZM12.0579 22V21.25C6.91358 21.25 2.75 17.1026 2.75 11.9948H2H1.25C1.25 17.9384 6.09259 22.75 12.0579 22.75V22ZM20.3101 12.3438L20.4395 11.6051C19.7623 11.4865 19.1659 11.0344 18.9469 10.3573L18.2333 10.588L17.5197 10.8188C17.9337 12.099 19.0369 12.8822 20.1807 13.0826L20.3101 12.3438ZM17.2352 9.86554L17.2663 9.11619C16.7964 9.09665 16.3455 8.83186 16.0648 8.44718C15.7848 8.06343 15.7363 7.65814 15.8832 7.3424L15.2032 7.02602L14.5232 6.70965C14.0919 7.63678 14.3349 8.62112 14.8531 9.33135C15.3707 10.0407 16.2248 10.5742 17.204 10.6149L17.2352 9.86554ZM15.0078 6.19448L15.4683 5.60249C15.0212 5.25474 14.7392 4.51977 14.8417 3.72154L14.0978 3.62604L13.3539 3.53054C13.202 4.71344 13.5797 6.03385 14.5473 6.78647L15.0078 6.19448ZM2 11.9948H2.75C2.75 6.48774 7.79762 2.23553 13.1061 2.80034L13.1854 2.05455L13.2648 1.30875C7.11552 0.654491 1.25 5.55145 1.25 11.9948H2ZM14.0978 3.62604L14.8417 3.72153C14.8737 3.47176 14.91 3.20926 14.9209 2.9836C14.9317 2.76113 14.9258 2.47186 14.8066 2.19156C14.521 1.52051 13.8307 1.36897 13.2648 1.30875L13.1854 2.05455L13.1061 2.80034C13.3601 2.82736 13.4695 2.86312 13.5065 2.88039C13.5147 2.88421 13.4575 2.85223 13.4263 2.77893C13.4111 2.74311 13.4301 2.75751 13.4227 2.91095C13.4154 3.06119 13.3903 3.24685 13.3539 3.53054L14.0978 3.62604ZM15.2032 7.02602L15.8832 7.3424C15.9346 7.2321 15.9961 7.09787 16.0367 6.96746C16.0797 6.82925 16.1232 6.62352 16.0691 6.38706C16.0146 6.14855 15.8843 5.98103 15.7806 5.87289C15.6837 5.77175 15.5662 5.67871 15.4683 5.60248L15.0078 6.19448L14.5473 6.78647C14.5953 6.82383 14.6304 6.85184 14.6573 6.87459C14.6846 6.89767 14.6956 6.90862 14.6977 6.91082C14.6997 6.91289 14.6844 6.89746 14.665 6.86594C14.6439 6.83154 14.6208 6.78263 14.6069 6.72152C14.5929 6.66063 14.5926 6.60775 14.5962 6.57003C14.5996 6.53555 14.6059 6.51708 14.6044 6.52195C14.6028 6.52693 14.5973 6.54331 14.5827 6.57767C14.5683 6.61162 14.5494 6.65352 14.5232 6.70965L15.2032 7.02602ZM18.2333 10.588L18.9469 10.3573C18.8929 10.1902 18.8324 10.0139 18.7548 9.86018C18.6715 9.6952 18.548 9.51309 18.3448 9.37194C18.1468 9.23431 17.9389 9.1818 17.7723 9.15593C17.6136 9.13127 17.4339 9.12316 17.2663 9.11619L17.2352 9.86554L17.204 10.6149C17.3876 10.6225 17.4814 10.6287 17.542 10.6381C17.5948 10.6463 17.5521 10.6477 17.4888 10.6037C17.4205 10.5562 17.4013 10.5076 17.4156 10.536C17.4356 10.5756 17.466 10.6526 17.5197 10.8188L18.2333 10.588ZM21.9416 13.8586L22.6785 13.9982C22.7496 13.6232 22.7812 13.2552 22.7091 12.9208C22.6273 12.5417 22.4204 12.2445 22.1101 12.0444C21.8434 11.8725 21.5353 11.797 21.2881 11.7481C21.054 11.7018 20.7102 11.6525 20.4395 11.6051L20.3101 12.3438L20.1807 13.0826C20.5514 13.1475 20.7646 13.1736 20.997 13.2196C21.0985 13.2396 21.1711 13.258 21.2245 13.2755C21.2503 13.2839 21.2684 13.2912 21.2807 13.2967C21.2928 13.3022 21.2976 13.3053 21.2973 13.3051C21.2943 13.3032 21.2763 13.2901 21.2588 13.2647C21.2417 13.2398 21.2402 13.225 21.2428 13.2372C21.2519 13.2793 21.2627 13.4131 21.2047 13.719L21.9416 13.8586ZM11.0078 12V11.25H10.9988V12V12.75H11.0078V12ZM6.00781 10V9.25H5.99883V10V10.75H6.00781V10ZM12.0078 18V17.25H11.9988V18V18.75H12.0078V18ZM10 6L9.46967 5.46967L8.46967 6.46967L9 7L9.53033 7.53033L10.5303 6.53033L10 6ZM17 14L16.4697 13.4697L15.4697 14.4697L16 15L16.5303 15.5303L17.5303 14.5303L17 14ZM7 15L6.46967 15.5303L7.46967 16.5303L8 16L8.53033 15.4697L7.53033 14.4697L7 15Z" fill="#1C1917"/>
</svg>
