<svg width="24" height="24" viewBox="0 0 24 24" fill="none" xmlns="http://www.w3.org/2000/svg">
<path d="M7.06237 18.0148L6.33299 18.1895L7.06237 18.0148ZM18.7366 12.1411C18.8145 11.7343 18.5479 11.3413 18.1411 11.2634C17.7343 11.1855 17.3413 11.4521 17.2634 11.8589L18 12L18.7366 12.1411ZM16.8944 17.7706L17.631 17.9117V17.9117L16.8944 17.7706ZM9.08605 21.6971L8.7542 22.3697H8.7542L9.08605 21.6971ZM8.03895 20.8437L8.62887 20.3806H8.62887L8.03895 20.8437ZM14.9399 21.6754L15.2826 22.3425V22.3425L14.9399 21.6754ZM16.0035 20.7652L15.3993 20.3208L16.0035 20.7652ZM16 13L16.1061 13.7425C16.1198 13.7405 16.1335 13.7382 16.1471 13.7354L16 13ZM16 6H15.25C15.25 6.41421 15.5858 6.75 16 6.75V6ZM12 2V1.25C11.6967 1.25 11.4232 1.43273 11.3071 1.71299C11.191 1.99324 11.2552 2.31583 11.4697 2.53033L12 2ZM12.093 10.7442C12.504 10.6928 12.7956 10.318 12.7442 9.90697C12.6928 9.49596 12.318 9.20441 11.907 9.25579L12 10L12.093 10.7442ZM7.06237 18.0148L7.79174 17.8401L6.72937 13.4043L6 13.5789L5.27063 13.7536L6.33299 18.1895L7.06237 18.0148ZM18 12L17.2634 11.8589L16.1578 17.6294L16.8944 17.7706L17.631 17.9117L18.7366 12.1411L18 12ZM11.9521 22V21.25C11.1889 21.25 10.6624 21.2494 10.2488 21.2148C9.84696 21.1811 9.60875 21.1187 9.4179 21.0246L9.08605 21.6971L8.7542 22.3697C9.17718 22.5784 9.62125 22.6675 10.1236 22.7095C10.6142 22.7506 11.2138 22.75 11.9521 22.75V22ZM7.06237 18.0148L6.33299 18.1895C6.51238 18.9385 6.6563 19.5417 6.8121 20.0243C6.97092 20.5163 7.15773 20.9358 7.44902 21.3069L8.03895 20.8437L8.62887 20.3806C8.48981 20.2035 8.37042 19.9688 8.23957 19.5635C8.1057 19.1488 7.9765 18.6116 7.79174 17.8401L7.06237 18.0148ZM9.08605 21.6971L9.4179 21.0246C9.11509 20.8751 8.84505 20.656 8.62887 20.3806L8.03895 20.8437L7.44902 21.3069C7.80115 21.7554 8.24642 22.1192 8.7542 22.3697L9.08605 21.6971ZM11.9521 22V22.75C12.7246 22.75 13.3512 22.7506 13.8624 22.7067C14.3854 22.6617 14.8469 22.5664 15.2826 22.3425L14.9399 21.6754L14.5972 21.0083C14.4011 21.109 14.154 21.176 13.7338 21.2122C13.3017 21.2494 12.7503 21.25 11.9521 21.25V22ZM16.8944 17.7706L16.1578 17.6294C16.0015 18.445 15.892 19.0137 15.7711 19.4532C15.6528 19.8833 15.5378 20.1325 15.3993 20.3208L16.0035 20.7652L16.6077 21.2096C16.898 20.8149 17.0744 20.3707 17.2174 19.8511C17.3577 19.341 17.4792 18.7039 17.631 17.9117L16.8944 17.7706ZM14.9399 21.6754L15.2826 22.3425C15.8046 22.0743 16.2574 21.6858 16.6077 21.2096L16.0035 20.7652L15.3993 20.3208C15.1838 20.6138 14.9087 20.8482 14.5972 21.0083L14.9399 21.6754ZM20 9.5H19.25C19.25 10.4709 18.2037 11.7944 15.8529 12.2646L16 13L16.1471 13.7354C18.7963 13.2056 20.75 11.5291 20.75 9.5H20ZM16 6V6.75C16.9648 6.75 17.7855 7.03215 18.3503 7.49945C18.9008 7.95487 19.25 8.61745 19.25 9.5H20H20.75C20.75 8.17341 20.2037 7.08599 19.3065 6.3437C18.4236 5.61328 17.2443 5.25 16 5.25V6ZM12 2V2.75C13.7949 2.75 15.25 4.20507 15.25 6H16H16.75C16.75 3.37665 14.6234 1.25 12 1.25V2ZM7 14V13.25C6.17738 13.25 5.63921 12.9797 5.30168 12.6132C4.95484 12.2366 4.75 11.6818 4.75 11H4H3.25C3.25 11.9751 3.54516 12.9202 4.19832 13.6294C4.86079 14.3487 5.82262 14.75 7 14.75V14ZM12 2L11.4697 2.53033C11.5839 2.64454 11.575 2.69919 11.5731 2.72018C11.5679 2.7798 11.5268 2.91265 11.3586 3.11697C11.0192 3.52898 10.3785 3.97225 9.66459 4.32918L10 5L10.3354 5.67082C11.1215 5.27775 11.9808 4.72102 12.5164 4.07053C12.7857 3.7436 13.0258 3.32958 13.0675 2.85013C13.1125 2.33206 12.9161 1.85546 12.5303 1.46967L12 2ZM16 13C15.8939 12.2575 15.8939 12.2575 15.8939 12.2575C15.8938 12.2576 15.8938 12.2576 15.8937 12.2576C15.8935 12.2576 15.8932 12.2576 15.8928 12.2577C15.892 12.2578 15.8907 12.258 15.8891 12.2582C15.8858 12.2587 15.8808 12.2594 15.8743 12.2603C15.8611 12.2622 15.8415 12.265 15.8158 12.2686C15.7644 12.2759 15.6886 12.2866 15.5913 12.3002C15.3968 12.3274 15.1164 12.3664 14.7737 12.4131C14.088 12.5066 13.1534 12.6312 12.157 12.7558C10.1393 13.008 7.94266 13.25 7 13.25V14V14.75C8.05734 14.75 10.3607 14.492 12.343 14.2442C13.3466 14.1188 14.287 13.9934 14.9763 13.8994C15.3211 13.8524 15.6032 13.8132 15.7993 13.7857C15.8973 13.772 15.9739 13.7612 16.026 13.7538C16.052 13.7501 16.072 13.7473 16.0854 13.7454C16.0922 13.7444 16.0973 13.7437 16.1007 13.7432C16.1025 13.743 16.1038 13.7428 16.1047 13.7427C16.1051 13.7426 16.1055 13.7425 16.1057 13.7425C16.1058 13.7425 16.1059 13.7425 16.106 13.7425C16.106 13.7425 16.1061 13.7425 16 13ZM6.48618 7.54383L5.75832 7.36293C5.60263 7.98937 5.63447 8.61051 5.91844 9.16455C6.19963 9.71317 6.68262 10.1074 7.26453 10.3733C8.39959 10.8917 10.0682 10.9973 12.093 10.7442L12 10L11.907 9.25579C9.97284 9.49756 8.64143 9.35313 7.88778 9.00886C7.52534 8.8433 7.34179 8.65299 7.25331 8.48036C7.16761 8.31316 7.12664 8.07637 7.21403 7.72473L6.48618 7.54383ZM4 11H4.75C4.75 10.4271 4.96288 9.76977 5.33192 9.23211C5.70414 8.68983 6.16948 8.35958 6.61374 8.2829L6.48618 7.54383L6.35862 6.80476C5.39082 6.97179 4.61307 7.6288 4.09522 8.38325C3.57419 9.14233 3.25 10.0913 3.25 11H4ZM10 5L9.66459 4.32918C9.47737 4.42279 9.22701 4.50352 8.86728 4.61952C8.53216 4.72759 8.12544 4.85995 7.72868 5.04836C6.90787 5.43815 6.07281 6.09755 5.75832 7.36293L6.48618 7.54383L7.21403 7.72473C7.38572 7.03395 7.80758 6.67143 8.37213 6.40334C8.66806 6.26281 8.98613 6.15726 9.32764 6.04713C9.64453 5.94494 10.0226 5.82721 10.3354 5.67082L10 5Z" fill="#1C1917"/>
</svg>
