<svg width="24" height="24" viewBox="0 0 24 24" fill="none" xmlns="http://www.w3.org/2000/svg">
<path d="M14.1819 2.72761C14.5837 2.62715 14.8281 2.21994 14.7276 1.8181C14.6271 1.41625 14.2199 1.17193 13.8181 1.27239L14 2L14.1819 2.72761ZM7.24928 10.0811L7.09512 10.8151C7.40878 10.881 7.72964 10.7403 7.89365 10.4649C8.05765 10.1896 8.02855 9.84041 7.82122 9.59599L7.24928 10.0811ZM16.7507 10.0811L16.1788 9.59599C15.9715 9.84041 15.9424 10.1896 16.1064 10.4649C16.2704 10.7403 16.5912 10.881 16.9049 10.8151L16.7507 10.0811ZM9.27999 13.0367L10.0132 12.8788C9.93877 12.5334 9.63335 12.2867 9.27999 12.2867C8.92663 12.2867 8.62121 12.5334 8.5468 12.8788L9.27999 13.0367ZM14.72 13.0367L15.4532 12.8788C15.3788 12.5334 15.0734 12.2867 14.72 12.2867C14.3667 12.2867 14.0612 12.5334 13.9868 12.8788L14.72 13.0367ZM6.72114 14.794C6.60735 14.3957 6.19224 14.1651 5.79396 14.2789C5.39568 14.3927 5.16506 14.8078 5.27886 15.206L6 15L6.72114 14.794ZM7.17111 19.0989L6.44997 19.3049L7.17111 19.0989ZM16.8289 19.0989L17.55 19.3049L16.8289 19.0989ZM18.7211 15.206C18.8349 14.8078 18.6043 14.3927 18.206 14.2789C17.8078 14.1651 17.3927 14.3957 17.2789 14.794L18 15L18.7211 15.206ZM15.6958 21.5967L16.1474 22.1955V22.1955L15.6958 21.5967ZM8.30421 21.5967L8.75586 20.9979H8.75586L8.30421 21.5967ZM10 6H9.25C9.25 7.51878 10.4812 8.75 12 8.75V8V7.25C11.3096 7.25 10.75 6.69036 10.75 6H10ZM12 8V8.75C13.5188 8.75 14.75 7.51878 14.75 6H14H13.25C13.25 6.69036 12.6904 7.25 12 7.25V8ZM14 6H14.75C14.75 4.48122 13.5188 3.25 12 3.25V4V4.75C12.6904 4.75 13.25 5.30964 13.25 6H14ZM12 4V3.25C10.4812 3.25 9.25 4.48122 9.25 6H10H10.75C10.75 5.30964 11.3096 4.75 12 4.75V4ZM12 4H12.75C12.75 3.83893 12.9208 3.04288 14.1819 2.72761L14 2L13.8181 1.27239C11.8792 1.75712 11.25 3.16107 11.25 4H12ZM7.24928 10.0811L7.40343 9.34716C5.3707 8.92024 3.25 10.4105 3.25 12.5341H4H4.75C4.75 11.481 5.87549 10.559 7.09512 10.8151L7.24928 10.0811ZM20 12.5341H20.75C20.75 10.4105 18.6293 8.92024 16.5966 9.34716L16.7507 10.0811L16.9049 10.8151C18.1245 10.559 19.25 11.481 19.25 12.5341H20ZM16.7507 10.0811L17.3227 10.5663C18.2889 9.42716 18.0271 8.01193 17.3215 7.01241C16.6195 6.01785 15.3784 5.25 14 5.25V6V6.75C14.8301 6.75 15.638 7.22852 16.0961 7.87743C16.5506 8.52138 16.5599 9.14672 16.1788 9.59599L16.7507 10.0811ZM10 6V5.25C8.62158 5.25 7.38049 6.01785 6.67845 7.01241C5.97292 8.01193 5.71105 9.42716 6.67733 10.5663L7.24928 10.0811L7.82122 9.59599C7.44012 9.14671 7.44936 8.52138 7.90391 7.87743C8.36196 7.22852 9.16991 6.75 10 6.75V6ZM4 12.5341H3.25C3.25 14.5122 4.83656 15.576 6.33869 15.7157C7.83746 15.855 9.6007 15.1097 10.0132 13.1947L9.27999 13.0367L8.5468 12.8788C8.34094 13.8346 7.46418 14.3138 6.47754 14.2221C5.49426 14.1307 4.75 13.5078 4.75 12.5341H4ZM9.27999 13.0367L8.5468 13.1947C8.92676 14.9587 10.5535 15.75 12 15.75C13.4465 15.75 15.0732 14.9587 15.4532 13.1947L14.72 13.0367L13.9868 12.8788C13.8029 13.7325 12.9916 14.25 12 14.25C11.0084 14.25 10.1971 13.7325 10.0132 12.8788L9.27999 13.0367ZM14.72 13.0367L13.9868 13.1947C14.3993 15.1097 16.1625 15.855 17.6613 15.7157C19.1634 15.576 20.75 14.5122 20.75 12.5341H20H19.25C19.25 13.5078 18.5057 14.1307 17.5225 14.2221C16.5358 14.3138 15.6591 13.8346 15.4532 12.8788L14.72 13.0367ZM6 15L5.27886 15.206L6.44997 19.3049L7.17111 19.0989L7.89225 18.8928L6.72114 14.794L6 15ZM11.0172 22V22.75H12.9828V22V21.25H11.0172V22ZM16.8289 19.0989L17.55 19.3049L18.7211 15.206L18 15L17.2789 14.794L16.1077 18.8928L16.8289 19.0989ZM12.9828 22V22.75C13.6911 22.75 14.2871 22.7512 14.7707 22.6945C15.274 22.6355 15.7348 22.5067 16.1474 22.1955L15.6958 21.5967L15.2441 20.9979C15.1221 21.09 14.9525 21.1629 14.596 21.2047C14.2199 21.2488 13.7267 21.25 12.9828 21.25V22ZM16.8289 19.0989L16.1077 18.8928C15.9034 19.6082 15.7667 20.082 15.621 20.4315C15.4829 20.7628 15.3662 20.9059 15.2441 20.9979L15.6958 21.5967L16.1474 22.1955C16.5601 21.8842 16.8105 21.4765 17.0055 21.0088C17.1929 20.5594 17.3555 19.9859 17.55 19.3049L16.8289 19.0989ZM7.17111 19.0989L6.44997 19.3049C6.64454 19.9859 6.80713 20.5594 6.99453 21.0088C7.18955 21.4765 7.43993 21.8842 7.85257 22.1955L8.30421 21.5967L8.75586 20.9979C8.63382 20.9059 8.51713 20.7628 8.379 20.4315C8.23325 20.082 8.09663 19.6082 7.89225 18.8928L7.17111 19.0989ZM11.0172 22V21.25C10.2733 21.25 9.78013 21.2488 9.40398 21.2047C9.0475 21.1629 8.8779 21.09 8.75586 20.9979L8.30421 21.5967L7.85257 22.1955C8.2652 22.5067 8.72598 22.6355 9.22928 22.6945C9.7129 22.7512 10.3089 22.75 11.0172 22.75V22Z" fill="#1C1917"/>
</svg>
