<svg width="24" height="24" viewBox="0 0 24 24" fill="none" xmlns="http://www.w3.org/2000/svg">
<path d="M12 2V1.25C11.5858 1.25 11.25 1.58579 11.25 2H12ZM14.8267 6.00741L14.1202 5.75561L14.8267 6.00741ZM4.25 13C4.25 13.4142 4.58579 13.75 5 13.75C5.41421 13.75 5.75 13.4142 5.75 13H5H4.25ZM16.6846 9.07847L16.0533 8.6735L16.6846 9.07847ZM15.1248 9.46952C14.7662 9.67672 14.6434 10.1354 14.8506 10.4941C15.0578 10.8528 15.5165 10.9756 15.8752 10.7684L15.5 10.119L15.1248 9.46952ZM15.25 14.9487C15.25 15.3629 15.5858 15.6987 16 15.6987C16.4142 15.6987 16.75 15.3629 16.75 14.9487H16H15.25ZM11.25 14.9487C11.25 15.3629 11.5858 15.6987 12 15.6987C12.4142 15.6987 12.75 15.3629 12.75 14.9487H12H11.25ZM7.25 14.9487C7.25 15.3629 7.58579 15.6987 8 15.6987C8.41421 15.6987 8.75 15.3629 8.75 14.9487H8H7.25ZM18.6584 18.659L17.9866 18.3255L18.6584 18.659ZM5.34164 18.659L6.01344 18.3255L5.34164 18.659ZM16.7231 21.5487L16.3267 20.912L16.7231 21.5487ZM7.88457 9.17584L7.67853 8.45469C5.64914 9.03452 4.25 10.8894 4.25 13H5H5.75C5.75 11.5591 6.70518 10.2928 8.09061 9.89698L7.88457 9.17584ZM15.5 10.119L15.8752 10.7684C16.3821 10.4755 16.9491 10.0552 17.3159 9.48344L16.6846 9.07847L16.0533 8.6735C15.8726 8.95517 15.5403 9.22951 15.1248 9.46952L15.5 10.119ZM19 13H19.75C19.75 12.1133 19.6604 11.1129 19.2548 10.2513C18.8285 9.34564 18.0694 8.63153 16.8551 8.3481L16.6846 9.07847L16.5141 9.80884C17.257 9.98224 17.6555 10.3757 17.8977 10.8901C18.1605 11.4484 18.25 12.1805 18.25 13H19ZM14.8267 6.00741L15.5331 6.25921C16.3811 3.88006 14.5714 1.25 12 1.25V2V2.75C13.5223 2.75 14.6242 4.34165 14.1202 5.75561L14.8267 6.00741ZM16.6846 9.07847L17.3159 9.48344C18.5053 7.62941 17.0215 5.06622 14.7625 5.26016L14.8267 6.00741L14.8908 6.75466C15.8865 6.66918 16.5832 7.84756 16.0533 8.6735L16.6846 9.07847ZM14.8267 6.00741L14.1202 5.75561C13.9906 6.1192 13.7118 6.44658 13.2641 6.74667C12.813 7.04911 12.2299 7.2965 11.5676 7.5069C10.9087 7.71622 10.2067 7.87825 9.52859 8.02587C8.8678 8.16971 8.20134 8.30532 7.67853 8.45469L7.88457 9.17584L8.09061 9.89698C8.55302 9.76486 9.147 9.64407 9.84765 9.49155C10.531 9.3428 11.2914 9.16852 12.0218 8.9365C12.7488 8.70556 13.4818 8.4066 14.0994 7.99263C14.7204 7.5763 15.263 7.01721 15.5331 6.25921L14.8267 6.00741ZM7.88457 9.17584H8.63457C8.63457 8.26807 8.85412 7.70042 9.14378 7.28302C9.45081 6.84059 9.86817 6.51524 10.3924 6.12189C10.8884 5.74971 11.5007 5.30325 11.9649 4.66073C12.4507 3.98828 12.75 3.14408 12.75 2H12H11.25C11.25 2.85592 11.0348 3.38672 10.749 3.78226C10.4416 4.20774 10.025 4.52227 9.49216 4.92207C8.98755 5.3007 8.37605 5.75832 7.91144 6.42784C7.42945 7.12239 7.13457 7.99568 7.13457 9.17584H7.88457ZM13.2918 22V21.25H10.7082V22V22.75H13.2918V22ZM10.7082 22V21.25C9.79058 21.25 9.15945 21.2491 8.66552 21.1976C8.18914 21.148 7.90532 21.0564 7.67329 20.912L7.27691 21.5487L6.88053 22.1854C7.37346 22.4922 7.90316 22.6263 8.51014 22.6895C9.09956 22.7509 9.8216 22.75 10.7082 22.75V22ZM5.34164 18.659L4.66985 18.9924C5.06646 19.7915 5.3882 20.4417 5.7059 20.9447C6.03275 21.4621 6.38793 21.8787 6.88053 22.1854L7.27691 21.5487L7.67329 20.912C7.44093 20.7673 7.23192 20.5518 6.97409 20.1436C6.70711 19.721 6.4237 19.1521 6.01344 18.3255L5.34164 18.659ZM18.6584 18.659L17.9866 18.3255C17.5763 19.1521 17.2929 19.721 17.0259 20.1436C16.7681 20.5518 16.5591 20.7673 16.3267 20.912L16.7231 21.5487L17.1195 22.1854C17.6121 21.8787 17.9673 21.4621 18.2941 20.9447C18.6118 20.4417 18.9335 19.7915 19.3302 18.9924L18.6584 18.659ZM13.2918 22V22.75C14.1784 22.75 14.9004 22.7509 15.4899 22.6895C16.0968 22.6263 16.6265 22.4922 17.1195 22.1854L16.7231 21.5487L16.3267 20.912C16.0947 21.0564 15.8109 21.148 15.3345 21.1976C14.8406 21.2491 14.2094 21.25 13.2918 21.25V22ZM5.34164 18.659L6.01344 18.3255C5.69188 17.6777 5.39316 17.1644 5.13998 16.5756C4.89929 16.0158 4.75 15.4893 4.75 14.9487H4H3.25C3.25 15.7705 3.47841 16.5086 3.76197 17.1681C4.03305 17.7986 4.40516 18.4592 4.66985 18.9924L5.34164 18.659ZM20 14.9487H19.25C19.25 15.4893 19.1007 16.0158 18.86 16.5756C18.6068 17.1644 18.3081 17.6777 17.9866 18.3255L18.6584 18.659L19.3302 18.9924C19.5948 18.4592 19.9669 17.7986 20.238 17.1681C20.5216 16.5086 20.75 15.7705 20.75 14.9487H20ZM8 14.9487H8.75C8.75 14.0887 8.41084 13.3921 7.86601 12.9203C7.33641 12.4616 6.65462 12.25 6 12.25C5.34538 12.25 4.66359 12.4616 4.13399 12.9203C3.58916 13.3921 3.25 14.0887 3.25 14.9487H4H4.75C4.75 14.5096 4.91084 14.2318 5.11601 14.0541C5.33641 13.8632 5.65462 13.75 6 13.75C6.34538 13.75 6.66359 13.8632 6.88399 14.0541C7.08916 14.2318 7.25 14.5096 7.25 14.9487H8ZM12 14.9487H12.75C12.75 14.0887 12.4108 13.3921 11.866 12.9203C11.3364 12.4616 10.6546 12.25 10 12.25C9.34538 12.25 8.66359 12.4616 8.13399 12.9203C7.58916 13.3921 7.25 14.0887 7.25 14.9487H8H8.75C8.75 14.5096 8.91084 14.2318 9.11601 14.0541C9.33641 13.8632 9.65462 13.75 10 13.75C10.3454 13.75 10.6636 13.8632 10.884 14.0541C11.0892 14.2318 11.25 14.5096 11.25 14.9487H12ZM16 14.9487H16.75C16.75 14.0887 16.4108 13.3921 15.866 12.9203C15.3364 12.4616 14.6546 12.25 14 12.25C13.3454 12.25 12.6636 12.4616 12.134 12.9203C11.5892 13.3921 11.25 14.0887 11.25 14.9487H12H12.75C12.75 14.5096 12.9108 14.2318 13.116 14.0541C13.3364 13.8632 13.6546 13.75 14 13.75C14.3454 13.75 14.6636 13.8632 14.884 14.0541C15.0892 14.2318 15.25 14.5096 15.25 14.9487H16ZM20 14.9487H20.75C20.75 14.0887 20.4108 13.3921 19.866 12.9203C19.3364 12.4616 18.6546 12.25 18 12.25C17.3454 12.25 16.6636 12.4616 16.134 12.9203C15.5892 13.3921 15.25 14.0887 15.25 14.9487H16H16.75C16.75 14.5096 16.9108 14.2318 17.116 14.0541C17.3364 13.8632 17.6546 13.75 18 13.75C18.3454 13.75 18.6636 13.8632 18.884 14.0541C19.0892 14.2318 19.25 14.5096 19.25 14.9487H20Z" fill="#1C1917"/>
</svg>
