<svg width="24" height="24" viewBox="0 0 24 24" fill="none" xmlns="http://www.w3.org/2000/svg">
<path d="M7.5 11.5L7 12.5M10.5 11.5L11 12.5M16.5 6.5L17 7.5M11 5.01625C11.8344 3.62313 12.11 2.56899 12.1124 2C12.1706 3.61599 14.1049 4.49076 15.0787 3.00542C16.0525 4.49076 17.9868 3.61599 18.045 2C18.0484 2.80672 18.6009 4.58869 20.5169 6.9293C21.4457 8.16365 22 9.6397 22 11.0487C22 13.0987 20.8268 14.9099 19.0337 16M16 16C16 19.3137 12.866 22 9 22C5.13401 22 2 19.3137 2 16C2 14.5985 2.56057 13.1304 3.5 11.9028C5.43778 9.57475 5.99651 7.80237 6 7C6.05882 8.60728 8.0151 9.47735 9 8C9.9849 9.47735 11.9412 8.60728 12 7C12.0035 7.80237 12.5622 9.57475 14.5 11.9028C15.4394 13.1304 16 14.5985 16 16Z" stroke="#1C1917" stroke-width="1.5" stroke-linecap="round" stroke-linejoin="round"/>
</svg>
