<svg width="24" height="24" viewBox="0 0 24 24" fill="none" xmlns="http://www.w3.org/2000/svg">
<path d="M21.5602 12.3098L22.1607 12.7592L21.5602 12.3098ZM19.1639 12.1633L18.5364 12.5742V12.5742L19.1639 12.1633ZM18.95 11.8367L19.5775 11.4258V11.4258L18.95 11.8367ZM16.6269 11.5969L16.0478 11.1203L16.6269 11.5969ZM7.56022 12.3098L8.1607 12.7592V12.7592L7.56022 12.3098ZM5.1639 12.1633L5.79136 11.7525L5.1639 12.1633ZM4.95001 11.8367L4.32255 12.2475L4.95001 11.8367ZM2.62686 11.5969L2.04781 11.1203H2.04781L2.62686 11.5969ZM21.4514 8.57874L20.7421 8.82264L20.7421 8.82264L21.4514 8.57874ZM15.9359 4.97652L15.8824 5.72461L15.9359 4.97652ZM14.0492 3.40443L13.32 3.5795V3.5795L14.0492 3.40443ZM19.9222 7.92582L20.0177 8.66973L19.9222 7.92582ZM17.0437 5.90395L16.3082 6.05045V6.05045L17.0437 5.90395ZM16 12H15.25C15.25 13.7949 13.7949 15.25 12 15.25V16V16.75C14.6234 16.75 16.75 14.6234 16.75 12H16ZM12 16V15.25C10.2051 15.25 8.75 13.7949 8.75 12H8H7.25C7.25 14.6234 9.37665 16.75 12 16.75V16ZM8 12H8.75C8.75 10.2051 10.2051 8.75 12 8.75V8V7.25C9.37665 7.25 7.25 9.37665 7.25 12H8ZM12 8V8.75C13.7949 8.75 15.25 10.2051 15.25 12H16H16.75C16.75 9.37665 14.6234 7.25 12 7.25V8ZM22 11.7221L21.3995 11.2728L20.9597 11.8605L21.5602 12.3098L22.1607 12.7592L22.6005 12.1715L22 11.7221ZM19.1639 12.1633L19.7914 11.7525L19.5775 11.4258L18.95 11.8367L18.3225 12.2475L18.5364 12.5742L19.1639 12.1633ZM16.6269 11.5969L16.0478 11.1203L15.4209 11.8818L16 12.3585L16.5791 12.8351L17.2059 12.0736L16.6269 11.5969ZM18.95 11.8367L19.5775 11.4258C19.1704 10.8041 18.5952 10.3328 17.8856 10.2595C17.1563 10.1843 16.516 10.5515 16.0478 11.1203L16.6269 11.5969L17.2059 12.0736C17.4593 11.7657 17.6466 11.7429 17.7316 11.7516C17.8361 11.7624 18.0618 11.8493 18.3225 12.2475L18.95 11.8367ZM21.5602 12.3098L20.9597 11.8605C20.6915 12.2189 20.4838 12.2549 20.395 12.2494C20.2934 12.2432 20.0622 12.1661 19.7914 11.7525L19.1639 12.1633L18.5364 12.5742C18.9588 13.2192 19.5622 13.7013 20.3035 13.7466C21.0578 13.7927 21.7016 13.3726 22.1607 12.7592L21.5602 12.3098ZM8 11.7221L7.39952 11.2728L6.95973 11.8605L7.56022 12.3098L8.1607 12.7592L8.60048 12.1715L8 11.7221ZM5.1639 12.1633L5.79136 11.7525L5.57746 11.4258L4.95001 11.8367L4.32255 12.2475L4.53644 12.5742L5.1639 12.1633ZM2.62686 11.5969L2.04781 11.1203L1.42095 11.8818L2 12.3585L2.57905 12.8351L3.20592 12.0736L2.62686 11.5969ZM4.95001 11.8367L5.57746 11.4258C5.17036 10.8041 4.59523 10.3328 3.88557 10.2595C3.15631 10.1843 2.51597 10.5515 2.04781 11.1203L2.62686 11.5969L3.20592 12.0736C3.45933 11.7657 3.64662 11.7429 3.73158 11.7516C3.83613 11.7624 4.06178 11.8493 4.32255 12.2475L4.95001 11.8367ZM7.56022 12.3098L6.95973 11.8605C6.69152 12.2189 6.48379 12.2549 6.39505 12.2494C6.29339 12.2432 6.0622 12.1661 5.79136 11.7525L5.1639 12.1633L4.53644 12.5742C4.95882 13.2192 5.56215 13.7013 6.30353 13.7466C7.05783 13.7927 7.70164 13.3726 8.1607 12.7592L7.56022 12.3098ZM22 12H21.25C21.25 17.1086 17.1086 21.25 12 21.25V22V22.75C17.9371 22.75 22.75 17.9371 22.75 12H22ZM12 22V21.25C6.89137 21.25 2.75 17.1086 2.75 12H2H1.25C1.25 17.9371 6.06294 22.75 12 22.75V22ZM2 12H2.75C2.75 6.89137 6.89137 2.75 12 2.75V2V1.25C6.06294 1.25 1.25 6.06294 1.25 12H2ZM21.4514 8.57874L20.7421 8.82264C21.0803 9.80605 21.25 10.8846 21.25 12H22H22.75C22.75 10.7346 22.5578 9.48972 22.1606 8.33484L21.4514 8.57874ZM15.9359 4.97652L15.9893 4.22842C15.4261 4.18818 14.9043 3.75343 14.7785 3.22935L14.0492 3.40443L13.32 3.5795C13.606 4.77093 14.7 5.64012 15.8824 5.72461L15.9359 4.97652ZM19.9222 7.92582L19.8268 7.18192C18.9036 7.30033 17.9519 6.6242 17.7793 5.75745L17.0437 5.90395L16.3082 6.05045C16.6421 7.72712 18.3504 8.88358 20.0177 8.66973L19.9222 7.92582ZM14.0492 3.40443L14.7785 3.22935C14.6189 2.56446 14.4093 1.91171 13.8222 1.55209C13.5402 1.3793 13.2339 1.31325 12.9498 1.28236C12.6697 1.25192 12.3447 1.25 12 1.25V2V2.75C12.3598 2.75 12.6024 2.75344 12.7876 2.77358C12.9688 2.79327 13.0254 2.82303 13.0387 2.83116C13.0423 2.83335 13.1527 2.88282 13.32 3.5795L14.0492 3.40443ZM15.9359 4.97652L15.8824 5.72461C16.1293 5.74225 16.2575 5.75057 16.3502 5.76505C16.4384 5.77885 16.3772 5.78358 16.2956 5.71858C16.2055 5.64677 16.1925 5.57349 16.2124 5.6327C16.2357 5.70224 16.2617 5.8173 16.3082 6.05045L17.0437 5.90395L17.7793 5.75745C17.7374 5.54736 17.694 5.33295 17.6345 5.1556C17.5715 4.96792 17.4623 4.73031 17.2305 4.54554C17.0072 4.36757 16.7587 4.31071 16.5819 4.28306C16.4095 4.2561 16.195 4.24313 15.9893 4.22842L15.9359 4.97652ZM21.4514 8.57874L22.1606 8.33484C21.9871 7.83029 21.7091 7.33661 21.1141 7.16324C20.8673 7.09133 20.6252 7.09545 20.4338 7.10986C20.2465 7.12396 20.0232 7.15673 19.8268 7.18192L19.9222 7.92582L20.0177 8.66973C20.2611 8.63851 20.4114 8.61579 20.5464 8.60563C20.6775 8.59576 20.7064 8.60683 20.6945 8.60336C20.6833 8.60009 20.6651 8.59272 20.6463 8.57994C20.6281 8.56756 20.6211 8.55816 20.6241 8.56185C20.636 8.5768 20.6801 8.64218 20.7421 8.82264L21.4514 8.57874Z" fill="#1C1917"/>
</svg>
