<svg width="24" height="24" viewBox="0 0 24 24" fill="none" xmlns="http://www.w3.org/2000/svg">
<path d="M4.51713 11.0812L5.08511 10.5914L4.51713 11.0812ZM8.20538 15.3582L8.77336 14.8684L8.77336 14.8684L8.20538 15.3582ZM13.4829 11.0812L12.9149 10.5914L13.4829 11.0812ZM9.79462 15.3582L9.22664 14.8684H9.22664L9.79462 15.3582ZM15.9017 6.89474L16.5807 6.57619L16.5807 6.57619L15.9017 6.89474ZM2.09833 6.89474L2.77732 7.21329H2.77732L2.09833 6.89474ZM7.7602 6.1233C7.8283 6.53188 8.21472 6.80789 8.6233 6.7398C9.03188 6.6717 9.30789 6.28528 9.2398 5.8767L8.5 6L7.7602 6.1233ZM8.09898 3.59389L8.83878 3.47059L8.83878 3.47059L8.09898 3.59389ZM5.23717 1.28849C4.84421 1.1575 4.41947 1.36987 4.28849 1.76283C4.1575 2.15579 4.36987 2.58053 4.76283 2.71151L5 2L5.23717 1.28849ZM7.5 21.25C7.08579 21.25 6.75 21.5858 6.75 22C6.75 22.4142 7.08579 22.75 7.5 22.75V22V21.25ZM10.5 22.75C10.9142 22.75 11.25 22.4142 11.25 22C11.25 21.5858 10.9142 21.25 10.5 21.25V22V22.75ZM16.4177 8.33174C16.1407 8.02379 15.6665 7.99872 15.3585 8.27575C15.0506 8.55277 15.0255 9.02698 15.3025 9.33493L15.8601 8.83333L16.4177 8.33174ZM14.2576 5.89327C14.1987 6.30327 14.4833 6.68342 14.8933 6.74237C15.3033 6.80131 15.6834 6.51673 15.7424 6.10673L15 6L14.2576 5.89327ZM4.51713 11.0812L3.94915 11.571L7.6374 15.848L8.20538 15.3582L8.77336 14.8684L5.08511 10.5914L4.51713 11.0812ZM13.4829 11.0812L12.9149 10.5914L9.22664 14.8684L9.79462 15.3582L10.3626 15.848L14.0509 11.571L13.4829 11.0812ZM11.099 6V5.25H6.90099V6V6.75H11.099V6ZM13.4829 11.0812L14.0509 11.571C14.9803 10.4931 15.7349 9.62111 16.1919 8.90344C16.6407 8.19881 16.9647 7.39483 16.5807 6.57619L15.9017 6.89474L15.2227 7.21329C15.2584 7.28939 15.3192 7.48139 14.9267 8.09767C14.5425 8.70092 13.8778 9.47473 12.9149 10.5914L13.4829 11.0812ZM11.099 6V6.75C12.5851 6.75 13.6155 6.75188 14.3326 6.85431C15.0668 6.95919 15.1846 7.13214 15.2227 7.21329L15.9017 6.89474L16.5807 6.57619C16.199 5.7626 15.3764 5.48818 14.5447 5.36938C13.6959 5.24812 12.5349 5.25 11.099 5.25V6ZM8.20538 15.3582L7.6374 15.848C7.80699 16.0446 7.98526 16.2541 8.15706 16.4042C8.34527 16.5687 8.62187 16.75 9 16.75V16V15.25C9.05826 15.25 9.10982 15.2646 9.14469 15.281C9.17215 15.2939 9.17375 15.3007 9.1442 15.2748C9.11457 15.2489 9.07154 15.2063 9.00619 15.1344C8.94125 15.063 8.86752 14.9776 8.77336 14.8684L8.20538 15.3582ZM9.79462 15.3582L9.22664 14.8684C9.13248 14.9776 9.05875 15.063 8.99381 15.1344C8.92846 15.2063 8.88543 15.2489 8.8558 15.2748C8.82625 15.3007 8.82785 15.2939 8.85531 15.281C8.89018 15.2646 8.94174 15.25 9 15.25V16V16.75C9.37813 16.75 9.65473 16.5687 9.84294 16.4042C10.0147 16.2541 10.193 16.0446 10.3626 15.848L9.79462 15.3582ZM4.51713 11.0812L5.08511 10.5914C4.12218 9.47473 3.45746 8.70092 3.07327 8.09767C2.68078 7.48139 2.74162 7.28939 2.77732 7.21329L2.09833 6.89474L1.41934 6.57619C1.03527 7.39483 1.35931 8.19881 1.80807 8.90344C2.26513 9.62111 3.01969 10.4931 3.94915 11.571L4.51713 11.0812ZM6.90099 6V5.25C5.46512 5.25 4.30415 5.24812 3.45529 5.36938C2.6236 5.48818 1.80104 5.7626 1.41934 6.57619L2.09833 6.89474L2.77732 7.21329C2.81539 7.13214 2.9332 6.95919 3.66741 6.85431C4.38447 6.75188 5.41493 6.75 6.90099 6.75V6ZM8.5 6L9.2398 5.8767L8.83878 3.47059L8.09898 3.59389L7.35919 3.71719L7.7602 6.1233L8.5 6ZM7.42882 2.80961L7.66599 2.09809L5.23717 1.28849L5 2L4.76283 2.71151L7.19164 3.52112L7.42882 2.80961ZM8.09898 3.59389L8.83878 3.47059C8.73221 2.83119 8.28094 2.30308 7.66599 2.09809L7.42882 2.80961L7.19164 3.52112C7.2795 3.5504 7.34396 3.62585 7.35919 3.71719L8.09898 3.59389ZM9 16H8.25V22H9H9.75V16H9ZM7.5 22V22.75H9V22V21.25H7.5V22ZM9 22V22.75H10.5V22V21.25H9V22ZM22 6.5H21.25C21.25 8.0152 20.0144 9.25 18.4822 9.25V10V10.75C20.8356 10.75 22.75 8.8508 22.75 6.5H22ZM18.4822 3V3.75C20.0144 3.75 21.25 4.9848 21.25 6.5H22H22.75C22.75 4.1492 20.8356 2.25 18.4822 2.25V3ZM18.4822 10V9.25C17.6612 9.25 16.9252 8.89583 16.4177 8.33174L15.8601 8.83333L15.3025 9.33493C16.0834 10.2029 17.2195 10.75 18.4822 10.75V10ZM15 6L15.7424 6.10673C15.9335 4.77734 17.0854 3.75 18.4822 3.75V3V2.25C16.3345 2.25 14.5542 3.83036 14.2576 5.89327L15 6Z" fill="#1C1917"/>
</svg>
