<svg width="24" height="24" viewBox="0 0 24 24" fill="none" xmlns="http://www.w3.org/2000/svg">
<path d="M19.1747 2.48374L19.5273 1.82181V1.82181L19.1747 2.48374ZM20.684 14.5638L20.0099 14.235L20.684 14.5638ZM11.5051 3.75412C11.1939 4.02743 11.1631 4.5013 11.4364 4.81255C11.7097 5.1238 12.1836 5.15456 12.4949 4.88125L12 4.31768L11.5051 3.75412ZM19.1747 2.48374L18.8221 3.14567C20.177 3.8675 21.0018 5.53748 21.2029 7.70287C21.4018 9.8429 20.9645 12.278 20.0099 14.235L20.684 14.5638L21.358 14.8926C22.4339 12.6871 22.9206 9.97635 22.6965 7.56411C22.4747 5.17722 21.5296 2.88845 19.5273 1.82181L19.1747 2.48374ZM12 4.31768L12.4949 4.88125C14.6721 2.96941 17.0952 2.22571 18.8221 3.14567L19.1747 2.48374L19.5273 1.82181C16.9425 0.444813 13.82 1.72141 11.5051 3.75412L12 4.31768ZM20.684 14.5638L20.0099 14.235C19.217 15.8605 18.2032 16.8291 17.1307 17.3174L17.4415 18L17.7524 18.6826C19.2032 18.0219 20.4449 16.7646 21.358 14.8926L20.684 14.5638ZM15 15.5H14.25C14.25 17.5354 13.5858 18.9453 12.5908 19.8527C11.5843 20.7706 10.1556 21.25 8.5 21.25V22V22.75C10.4342 22.75 12.2555 22.1885 13.6016 20.961C14.9591 19.723 15.75 17.8829 15.75 15.5H15ZM8.5 22V21.25C6.84436 21.25 5.41569 20.7706 4.40918 19.8527C3.4142 18.9453 2.75 17.5354 2.75 15.5H2H1.25C1.25 17.8829 2.04087 19.723 3.39843 20.961C4.74446 22.1885 6.56579 22.75 8.5 22.75V22ZM2 15.5H2.75C2.75 13.433 3.40601 11.1979 4.48976 9.496C5.58408 7.77755 7.00847 6.75 8.5 6.75V6V5.25C6.27724 5.25 4.45163 6.76331 3.22452 8.69029C1.98684 10.6339 1.25 13.1487 1.25 15.5H2ZM8.5 6V6.75C9.99153 6.75 11.4159 7.77755 12.5102 9.496C13.594 11.1979 14.25 13.433 14.25 15.5H15H15.75C15.75 13.1487 15.0132 10.6339 13.7755 8.69029C12.5484 6.76331 10.7228 5.25 8.5 5.25V6Z" fill="#1C1917"/>
</svg>
