<svg width="24" height="24" viewBox="0 0 24 24" fill="none" xmlns="http://www.w3.org/2000/svg">
<path d="M6.00781 12H5.99883M12.3099 16.6525C13.3507 17.3811 14 18.5764 14 19.8845C14 19.9484 13.9465 20.0003 13.8819 20C10.9648 19.9871 9.65844 19.4932 9.1094 18.6782L8 16.8568C5.50848 16.3537 3.21828 14.7625 2 12.0833C3.21828 9.40414 5.50849 7.81296 8.00002 7.30978M12.3099 16.6525C14.4801 15.9922 16.4151 14.4692 17.5 12.0833M12.3099 16.6525C11.9076 16.3708 11.4635 16.1947 11 16.0418M12.31 7.51418C13.3507 6.78561 14 5.59023 14 4.28218C14 3.4556 9.69172 4.62406 9.1094 5.48846L8.00002 7.30978M12.31 7.51418C12.31 7.51419 12.31 7.51417 12.31 7.51418ZM12.31 7.51418C10.9161 7.09011 9.42511 7.02197 8.00002 7.30978M12.31 7.51418C14.4802 8.17443 16.4151 9.69747 17.5 12.0833M17.5 12.0833C17.8333 11.4236 19.6 9.11447 22 9.11447C21.1667 9.93915 19.8 13.0729 21 15.0522C19.8 15.0522 18 12.7431 17.5 12.0833Z" stroke="#1C1917" stroke-width="1.5" stroke-linecap="round" stroke-linejoin="round"/>
</svg>
