<svg width="24" height="24" viewBox="0 0 24 24" fill="none" xmlns="http://www.w3.org/2000/svg">
<path d="M6.82018 8.03115L6.35873 8.62239C6.38414 8.64222 6.41081 8.6604 6.43855 8.6768L6.82018 8.03115ZM6.04798 10.0365L6.79207 9.94253L6.04798 10.0365ZM7.98056 20.2562L8.71941 20.1274C8.71744 20.1161 8.71522 20.1048 8.71273 20.0936L7.98056 20.2562ZM8.8632 21.8316L9.27249 21.2031L8.8632 21.8316ZM12.1409 19.8027L12.714 20.2864L12.1409 19.8027ZM17.6109 13.3224L17.0715 12.8012C17.0598 12.8133 17.0486 12.8257 17.0377 12.8386L17.6109 13.3224ZM17.174 11.7178L17.3854 10.9982L17.174 11.7178ZM15.868 11.1869C15.649 11.5385 15.7565 12.0011 16.1081 12.22C16.4597 12.439 16.9222 12.3316 17.1412 11.98L16.5046 11.5834L15.868 11.1869ZM18.9208 7.70438L19.5574 8.10091L19.5912 8.04667L19.6153 7.9875L18.9208 7.70438ZM16.5046 6.61341L16.2856 5.89611L16.0214 5.97679L15.8726 6.20956L16.5046 6.61341ZM13.3358 10.1795C13.1127 10.5286 13.2149 10.9923 13.5639 11.2154C13.913 11.4384 14.3767 11.3363 14.5998 10.9872L13.9678 10.5834L13.3358 10.1795ZM15.5253 6.7294C15.5253 7.14361 15.8611 7.4794 16.2753 7.4794C16.6895 7.4794 17.0253 7.14361 17.0253 6.7294H16.2753H15.5253ZM15.9799 4.32892L16.5647 3.85933L16.5647 3.85933L15.9799 4.32892ZM13.2419 4.23106C12.9333 4.50733 12.9071 4.98148 13.1834 5.2901C13.4596 5.59872 13.9338 5.62495 14.2424 5.34867L13.7422 4.78987L13.2419 4.23106ZM12.8221 10.3345C12.8221 10.7487 13.1579 11.0845 13.5721 11.0845C13.9863 11.0845 14.3221 10.7487 14.3221 10.3345H13.5721H12.8221ZM13.5721 3.23501H14.3221V3.025L14.213 2.84553L13.5721 3.23501ZM10.854 3.55589L10.104 3.55586V3.55589H10.854ZM10.104 7.00537C10.104 7.41958 10.4398 7.75537 10.854 7.75537C11.2682 7.75537 11.604 7.41958 11.604 7.00537H10.854H10.104ZM8.51018 4.18529L9.00345 4.75026V4.75025L8.51018 4.18529ZM7.4114 8.33866C7.4114 8.75287 7.74718 9.08866 8.1614 9.08866C8.57561 9.08866 8.9114 8.75287 8.9114 8.33866L8.1614 8.33866L7.4114 8.33866ZM7.95112 17.2936C7.5369 17.2936 7.20112 17.6294 7.20112 18.0436C7.20112 18.4578 7.5369 18.7936 7.95112 18.7936V18.0436V17.2936ZM6.39647 12.6248C6.03232 12.8222 5.89715 13.2774 6.09456 13.6416C6.29197 14.0057 6.7472 14.1409 7.11135 13.9435L6.75391 13.2842L6.39647 12.6248ZM6.82018 8.03115L7.28162 7.43991C7.09633 7.29529 6.82073 7.16091 6.49103 7.17093C6.1247 7.18206 5.8032 7.36893 5.58758 7.67319C5.39139 7.95004 5.29547 8.30107 5.25643 8.67966C5.21646 9.06732 5.22999 9.54555 5.3039 10.1305L6.04798 10.0365L6.79207 9.94253C6.72696 9.42713 6.72407 9.07059 6.74852 8.83353C6.7739 8.58741 6.82325 8.52379 6.81142 8.54049C6.78017 8.58459 6.68212 8.66581 6.5366 8.67024C6.42771 8.67355 6.37027 8.63139 6.35873 8.62239L6.82018 8.03115ZM6.04798 10.0365L5.3039 10.1305C5.58667 12.3689 6.69465 17.9248 7.24839 20.4188L7.98056 20.2562L8.71273 20.0936C8.15957 17.6023 7.06534 12.1057 6.79207 9.94253L6.04798 10.0365ZM7.98056 20.2562L7.24172 20.3851C7.30039 20.7215 7.4166 21.1065 7.60093 21.4666C7.78274 21.8217 8.05584 22.2008 8.45392 22.4601L8.8632 21.8316L9.27249 21.2031C9.16678 21.1343 9.04599 20.9976 8.93613 20.7831C8.82881 20.5734 8.75559 20.3348 8.71941 20.1274L7.98056 20.2562ZM12.1409 19.8027L12.714 20.2864L18.184 13.8061L17.6109 13.3224L17.0377 12.8386L11.5678 19.3189L12.1409 19.8027ZM17.6109 13.3224L18.1502 13.8435C18.4397 13.5439 18.7079 13.0252 18.6745 12.4587C18.6566 12.1542 18.5495 11.8351 18.3113 11.5599C18.0773 11.2895 17.7568 11.1073 17.3854 10.9982L17.174 11.7178L16.9627 12.4374C17.1279 12.4859 17.174 12.5379 17.177 12.5414C17.1792 12.544 17.1778 12.5428 17.1764 12.5392C17.1753 12.5364 17.1766 12.5381 17.1771 12.547C17.1784 12.5686 17.1737 12.6143 17.1481 12.676C17.1222 12.7385 17.0887 12.7834 17.0715 12.8012L17.6109 13.3224ZM17.174 11.7178L17.3854 10.9982C16.9913 10.8824 16.4736 10.8099 15.9349 10.7226C15.3694 10.6309 14.693 10.5117 13.882 10.3007C12.264 9.87972 10.0756 9.08412 7.2018 7.3855L6.82018 8.03115L6.43855 8.6768C9.42909 10.4444 11.7468 11.2951 13.5043 11.7524C14.3809 11.9805 15.1096 12.1084 15.6949 12.2033C16.3071 12.3025 16.6859 12.3561 16.9627 12.4374L17.174 11.7178ZM8.8632 21.8316L8.45392 22.4601C8.92769 22.7686 9.43594 22.8351 9.92056 22.7181C10.3724 22.6091 10.7647 22.3512 11.0857 22.0819C11.7104 21.558 12.3063 20.7695 12.714 20.2864L12.1409 19.8027L11.5678 19.3189C11.0693 19.9095 10.615 20.5189 10.1217 20.9327C9.88374 21.1323 9.70018 21.2283 9.56868 21.26C9.46996 21.2838 9.38742 21.278 9.27249 21.2031L8.8632 21.8316ZM16.5046 11.5834L17.1412 11.98L19.5574 8.10091L18.9208 7.70438L18.2842 7.30786L15.868 11.1869L16.5046 11.5834ZM18.9208 7.70438L19.6153 7.9875C19.8771 7.34522 19.7034 6.53828 19.0312 6.05939C18.3808 5.59602 17.4299 5.54663 16.2856 5.89611L16.5046 6.61341L16.7237 7.3307C17.6632 7.04378 18.0563 7.20652 18.1609 7.28106C18.2437 7.34008 18.2362 7.39683 18.2262 7.42127L18.9208 7.70438ZM16.5046 6.61341L15.8726 6.20956L13.3358 10.1795L13.9678 10.5834L14.5998 10.9872L17.1366 7.01725L16.5046 6.61341ZM16.2753 6.7294H17.0253V5.33845H16.2753H15.5253V6.7294H16.2753ZM15.9799 4.32892L16.5647 3.85933C16.3013 3.53135 15.8512 3.1645 15.164 3.21234C14.5569 3.25461 13.9281 3.61684 13.2419 4.23106L13.7422 4.78987L14.2424 5.34867C14.8532 4.80192 15.1681 4.71568 15.2682 4.70872C15.2881 4.70733 15.3084 4.69049 15.3951 4.79852L15.9799 4.32892ZM16.2753 5.33845H17.0253C17.0253 4.90151 16.9426 4.32995 16.5647 3.85933L15.9799 4.32892L15.3951 4.79852C15.4663 4.88714 15.5253 5.05718 15.5253 5.33845H16.2753ZM13.5721 10.3345H14.3221V3.23501H13.5721H12.8221V10.3345H13.5721ZM13.5721 3.23501L14.213 2.84553C14.0133 2.5169 13.6528 2.04753 13.1931 1.70812C12.7459 1.3779 12.0059 1.04031 11.2265 1.447L11.5735 2.11193L11.9204 2.77685C11.9404 2.7664 12.0332 2.71626 12.3022 2.91483C12.5587 3.10421 12.7978 3.40495 12.9312 3.6245L13.5721 3.23501ZM11.5735 2.11193L11.2265 1.447C10.6375 1.75435 10.3298 2.20337 10.1951 2.65618C10.0754 3.05841 10.104 3.46237 10.104 3.55586L10.854 3.55589L11.604 3.55592C11.604 3.32853 11.5926 3.21909 11.6328 3.08384C11.658 2.99917 11.71 2.88665 11.9204 2.77685L11.5735 2.11193ZM10.854 3.55589H10.104V4.8153H10.854H11.604V3.55589H10.854ZM10.854 4.8153H10.104V7.00537H10.854H11.604V4.8153H10.854ZM10.854 4.8153L11.4048 4.30623C11.129 4.00783 10.6336 3.62524 10.0777 3.39999C9.54184 3.18287 8.70023 3.02372 8.01691 3.62033L8.51018 4.18529L9.00345 4.75025C9.04101 4.71746 9.16283 4.64776 9.51441 4.79021C9.84593 4.92453 10.1621 5.17165 10.3032 5.32437L10.854 4.8153ZM8.51018 4.18529L8.01691 3.62033C7.66678 3.92602 7.53003 4.38314 7.46218 4.72633C7.38773 5.10284 7.36237 5.53331 7.35674 5.95195C7.35105 6.37531 7.36546 6.81979 7.38048 7.2297C7.39582 7.64824 7.4114 8.02286 7.4114 8.33866L8.1614 8.33866L8.9114 8.33866C8.9114 7.98781 8.8942 7.57662 8.87947 7.17476C8.86443 6.76426 8.85148 6.35375 8.85661 5.97212C8.8618 5.58575 8.88546 5.26121 8.93369 5.01728C8.98851 4.74003 9.04809 4.71128 9.00345 4.75026L8.51018 4.18529ZM10.4735 15.5125H9.7235C9.7235 16.4986 8.92754 17.2936 7.95112 17.2936V18.0436V18.7936C9.76083 18.7936 11.2235 17.3222 11.2235 15.5125H10.4735ZM7.95112 12.9814V13.7314C8.92754 13.7314 9.7235 14.5264 9.7235 15.5125H10.4735H11.2235C11.2235 13.7029 9.76083 12.2314 7.95112 12.2314V12.9814ZM6.75391 13.2842L7.11135 13.9435C7.36061 13.8084 7.64585 13.7314 7.95112 13.7314V12.9814V12.2314C7.38986 12.2314 6.85959 12.3737 6.39647 12.6248L6.75391 13.2842Z" fill="#1C1917"/>
</svg>
