<svg width="24" height="24" viewBox="0 0 24 24" fill="none" xmlns="http://www.w3.org/2000/svg">
<path d="M3.04243 10.7169L3.76346 10.5104L3.04243 10.7169ZM5.22916 18.3537L4.50813 18.5602L5.22916 18.3537ZM20.9576 10.7169L21.6786 10.9233L21.6786 10.9233L20.9576 10.7169ZM18.7708 18.3537L19.4919 18.5602L18.7708 18.3537ZM15.224 12.9167L15.9441 13.1261L15.9441 13.1261L15.224 12.9167ZM8.77604 12.9167L9.49619 12.7072L8.77604 12.9167ZM20.9938 10.5776L20.2532 10.4591L20.2532 10.4592L20.9938 10.5776ZM20.551 10.0035L20.638 9.25856H20.638L20.551 10.0035ZM6.66444 21.4928L7.11216 20.8911L6.66444 21.4928ZM3.00625 10.5776L3.74684 10.4591L3.74684 10.4591L3.00625 10.5776ZM3.44903 10.0035L3.53602 10.7484H3.53602L3.44903 10.0035ZM12.0078 17.75C12.422 17.75 12.7578 17.4142 12.7578 17C12.7578 16.5858 12.422 16.25 12.0078 16.25V17V17.75ZM11.9988 16.25C11.5846 16.25 11.2488 16.5858 11.2488 17C11.2488 17.4142 11.5846 17.75 11.9988 17.75V17V16.25ZM5.30495 3.77964L5.68968 4.42345H5.68968L5.30495 3.77964ZM5.52564 3.64776L5.14092 3.00395L5.14092 3.00395L5.52564 3.64776ZM8.2009 4.46964L8.87415 4.13913L8.2009 4.46964ZM9.32675 8.46484C9.50929 8.83666 9.95869 8.99011 10.3305 8.80757C10.7023 8.62503 10.8558 8.17563 10.6732 7.80381L10 8.13432L9.32675 8.46484ZM5.89976 10.3654C6.10154 10.7271 6.55837 10.8568 6.92011 10.655C7.28185 10.4532 7.41152 9.99638 7.20974 9.63464L6.55475 10L5.89976 10.3654ZM4.60125 6.4979L3.94626 6.86327H3.94626L4.60125 6.4979ZM7.15805 3.03078L6.9378 3.74771L7.15805 3.03078ZM4.02457 4.88126L4.75064 5.06922L4.02457 4.88126ZM18.4838 5.60926L18.8715 4.96722V4.96721L18.4838 5.60926ZM18.6813 5.72847L18.2936 6.37052V6.37052L18.6813 5.72847ZM13.3434 9.4722C13.1432 9.83482 13.2749 10.2911 13.6375 10.4913C14.0001 10.6915 14.4564 10.5598 14.6566 10.1972L14 9.83468L13.3434 9.4722ZM15.9391 6.32235L16.5957 6.68483L15.9391 6.32235ZM19.3013 8.49411L19.9342 8.89643L19.3013 8.49411ZM17.7111 9.59768C17.489 9.94726 17.5922 10.4108 17.9418 10.633C18.2914 10.8552 18.7549 10.7519 18.9771 10.4023L18.3441 10L17.7111 9.59768ZM19.9816 6.86849L19.2498 7.03255L19.9816 6.86849ZM16.9704 5.0249L17.1727 5.74708L16.9704 5.0249ZM3.04243 10.7169L2.32141 10.9233L4.50813 18.5602L5.22916 18.3537L5.95018 18.1473L3.76346 10.5104L3.04243 10.7169ZM20.9576 10.7169L20.2365 10.5104L18.0498 18.1473L18.7708 18.3537L19.4919 18.5602L21.6786 10.9233L20.9576 10.7169ZM10.1295 22V22.75H13.8705V22V21.25H10.1295V22ZM3.59533 10V10.75H4.83937V10V9.25H3.59533V10ZM20.4047 10V9.25H19.1606V10V10.75H20.4047V10ZM9.56337 13.5V14.25H14.4366V13.5V12.75H9.56337V13.5ZM15.224 12.9167L14.5038 12.7072C14.4987 12.7248 14.4765 12.75 14.4366 12.75V13.5V14.25C15.128 14.25 15.7484 13.7991 15.9441 13.1261L15.224 12.9167ZM19.1606 10V9.25C17.0069 9.25 15.1013 10.6531 14.5038 12.7072L15.224 12.9167L15.9441 13.1261C16.351 11.7274 17.6584 10.75 19.1606 10.75V10ZM8.77604 12.9167L8.05589 13.1261C8.25164 13.7991 8.87204 14.25 9.56337 14.25V13.5V12.75C9.52351 12.75 9.50131 12.7248 9.49619 12.7072L8.77604 12.9167ZM4.83937 10V10.75C6.34161 10.75 7.64902 11.7274 8.05589 13.1261L8.77604 12.9167L9.49619 12.7072C8.89869 10.6531 6.99308 9.25 4.83937 9.25V10ZM18.7708 18.3537L18.0498 18.1473C17.7936 19.0419 17.6185 19.6493 17.4289 20.1006C17.2475 20.5327 17.0823 20.7464 16.8878 20.8911L17.3356 21.4928L17.7833 22.0945C18.2705 21.7319 18.5718 21.2533 18.812 20.6813C19.0441 20.1286 19.2457 19.42 19.4919 18.5602L18.7708 18.3537ZM13.8705 22V22.75C14.7807 22.75 15.5272 22.7512 16.1293 22.6816C16.7501 22.6099 17.2972 22.4561 17.7833 22.0945L17.3356 21.4928L16.8878 20.8911C16.6922 21.0366 16.4345 21.1364 15.9572 21.1915C15.461 21.2488 14.8159 21.25 13.8705 21.25V22ZM20.9576 10.7169L21.6786 10.9233C21.6929 10.8735 21.7207 10.7816 21.7343 10.696L20.9938 10.5776L20.2532 10.4592C20.2551 10.4473 20.2569 10.439 20.2576 10.4356C20.2583 10.4326 20.2583 10.4328 20.2569 10.4384C20.2554 10.4439 20.2532 10.452 20.2496 10.4646C20.2461 10.4771 20.2419 10.4917 20.2365 10.5104L20.9576 10.7169ZM20.4047 10V10.75C20.4245 10.75 20.4399 10.75 20.4533 10.75C20.4667 10.7501 20.4754 10.7502 20.4815 10.7503C20.4955 10.7506 20.4846 10.7508 20.464 10.7484L20.551 10.0035L20.638 9.25856C20.5533 9.24867 20.4588 9.25 20.4047 9.25V10ZM20.9938 10.5776L21.7343 10.6961C21.8486 9.9819 21.3354 9.34 20.638 9.25856L20.551 10.0035L20.464 10.7484C20.3398 10.7339 20.2285 10.6132 20.2532 10.4591L20.9938 10.5776ZM5.22916 18.3537L4.50813 18.5602C4.75434 19.42 4.95594 20.1286 5.18805 20.6813C5.42821 21.2533 5.72946 21.7319 6.21672 22.0945L6.66444 21.4928L7.11216 20.8911C6.91772 20.7464 6.75252 20.5327 6.57107 20.1006C6.38155 19.6493 6.20636 19.0419 5.95018 18.1473L5.22916 18.3537ZM10.1295 22V21.25C9.18414 21.25 8.53897 21.2488 8.0428 21.1915C7.56547 21.1364 7.3078 21.0366 7.11216 20.8911L6.66444 21.4928L6.21672 22.0945C6.70278 22.4561 7.24985 22.6099 7.87074 22.6816C8.47278 22.7512 9.21929 22.75 10.1295 22.75V22ZM3.04243 10.7169L3.76346 10.5104C3.75809 10.4917 3.75392 10.4771 3.75037 10.4645C3.74682 10.452 3.7446 10.4439 3.74314 10.4384C3.74168 10.4329 3.7417 10.4326 3.74239 10.4357C3.74315 10.4391 3.74495 10.4474 3.74684 10.4591L3.00625 10.5776L2.26566 10.6961C2.27935 10.7816 2.3071 10.8734 2.32141 10.9233L3.04243 10.7169ZM3.59533 10V9.25C3.54122 9.25 3.44672 9.24867 3.36204 9.25856L3.44903 10.0035L3.53602 10.7484C3.51537 10.7508 3.50451 10.7506 3.51849 10.7503C3.52456 10.7502 3.53331 10.7501 3.54669 10.75C3.56005 10.75 3.57554 10.75 3.59533 10.75V10ZM3.00625 10.5776L3.74684 10.4591C3.77148 10.6132 3.66024 10.7339 3.53602 10.7484L3.44903 10.0035L3.36204 9.25856C2.66461 9.34 2.15143 9.9819 2.26566 10.6961L3.00625 10.5776ZM12.0078 17V16.25H11.9988V17V17.75H12.0078V17ZM11.8286 2V2.75H12.1714V2V1.25H11.8286V2ZM14 3.76H13.25V13H14H14.75V3.76H14ZM10 13H10.75V3.76H10H9.25V13H10ZM12.1714 2V2.75C12.6229 2.75 12.8888 2.75148 13.0784 2.77602C13.2493 2.79813 13.2418 2.82664 13.2121 2.79811L13.7322 2.25775L14.2523 1.71738C13.9549 1.43111 13.5979 1.33074 13.2709 1.28842C12.9626 1.24852 12.582 1.25 12.1714 1.25V2ZM14 3.76H14.75C14.75 3.36717 14.7517 2.9942 14.7093 2.69064C14.6635 2.36248 14.5538 2.00752 14.2523 1.71738L13.7322 2.25775L13.2121 2.79811C13.1785 2.76571 13.2026 2.74705 13.2237 2.89816C13.2483 3.07388 13.25 3.32316 13.25 3.76H14ZM11.8286 2V1.25C11.418 1.25 11.0374 1.24852 10.7291 1.28842C10.4021 1.33074 10.0451 1.43111 9.74769 1.71738L10.2678 2.25775L10.7879 2.79811C10.7582 2.82664 10.7507 2.79813 10.9216 2.77602C11.1112 2.75148 11.3771 2.75 11.8286 2.75V2ZM10 3.76H10.75C10.75 3.32316 10.7517 3.07388 10.7763 2.89816C10.7974 2.74705 10.8215 2.76571 10.7879 2.79811L10.2678 2.25775L9.74769 1.71738C9.44624 2.00752 9.33652 2.36248 9.29069 2.69064C9.24828 2.9942 9.25 3.36717 9.25 3.76H10ZM5.30495 3.77964L5.68968 4.42345L5.91036 4.29157L5.52564 3.64776L5.14092 3.00395L4.92023 3.13583L5.30495 3.77964ZM8.2009 4.46964L7.52766 4.80016L9.32675 8.46484L10 8.13432L10.6732 7.80381L8.87415 4.13913L8.2009 4.46964ZM6.55475 10L7.20974 9.63464L5.25624 6.13254L4.60125 6.4979L3.94626 6.86327L5.89976 10.3654L6.55475 10ZM5.52564 3.64776L5.91036 4.29157C6.34163 4.03385 6.59814 3.88259 6.79403 3.79988C6.96949 3.7258 6.97726 3.75983 6.9378 3.74771L7.15805 3.03078L7.3783 2.31385C6.94262 2.18 6.54624 2.27628 6.21058 2.41801C5.89535 2.5511 5.53377 2.7692 5.14092 3.00395L5.52564 3.64776ZM8.2009 4.46964L8.87415 4.13913C8.66811 3.71943 8.48148 3.33563 8.28946 3.04907C8.08686 2.74673 7.8109 2.44675 7.3783 2.31385L7.15805 3.03078L6.9378 3.74771C6.90143 3.73653 6.93136 3.71694 7.04336 3.88408C7.16593 4.06699 7.30262 4.34176 7.52766 4.80016L8.2009 4.46964ZM5.30495 3.77964L4.92023 3.13583C4.5461 3.3594 4.19926 3.56477 3.94101 3.77104C3.66406 3.99224 3.40624 4.27714 3.29851 4.69329L4.02457 4.88126L4.75064 5.06922C4.7511 5.06744 4.75124 5.06733 4.75125 5.06729C4.75136 5.06707 4.75319 5.06326 4.75916 5.05523C4.77241 5.03746 4.8043 5.00125 4.87714 4.94307C5.0371 4.8153 5.27893 4.6689 5.68968 4.42345L5.30495 3.77964ZM4.60125 6.4979L5.25624 6.13254C5.01961 5.70834 4.87935 5.45377 4.80139 5.25743C4.76562 5.16734 4.75456 5.11664 4.75126 5.0912C4.74976 5.07959 4.74998 5.07401 4.75005 5.07272C4.75011 5.07167 4.75018 5.071 4.75064 5.06922L4.02457 4.88126L3.29851 4.69329C3.19136 5.10718 3.27656 5.48182 3.40728 5.81101C3.53012 6.12038 3.72973 6.4751 3.94626 6.86327L4.60125 6.4979ZM18.4838 5.60926L18.0962 6.25131L18.2936 6.37052L18.6813 5.72847L19.0689 5.08643L18.8715 4.96722L18.4838 5.60926ZM14 9.83468L14.6566 10.1972L16.5957 6.68483L15.9391 6.32235L15.2825 5.95986L13.3434 9.4722L14 9.83468ZM19.3013 8.49411L18.6683 8.09179L17.7111 9.59768L18.3441 10L18.9771 10.4023L19.9342 8.89643L19.3013 8.49411ZM18.6813 5.72847L18.2936 6.37052C18.7153 6.6251 18.9635 6.77696 19.1262 6.90913C19.2003 6.9693 19.2315 7.00608 19.2437 7.0231C19.2491 7.03065 19.2504 7.03371 19.25 7.03296C19.2496 7.032 19.2495 7.03129 19.2498 7.03255L19.9816 6.86849L20.7135 6.70443C20.6163 6.27119 20.3541 5.974 20.0719 5.74477C19.8088 5.53114 19.4528 5.31821 19.0689 5.08642L18.6813 5.72847ZM19.3013 8.49411L19.9342 8.89643C20.1803 8.50927 20.4067 8.1561 20.5499 7.84589C20.7022 7.5161 20.8099 7.1348 20.7135 6.70443L19.9816 6.86849L19.2498 7.03255C19.2501 7.03381 19.25 7.03374 19.25 7.03394C19.25 7.03441 19.2501 7.03938 19.2481 7.0506C19.2437 7.07543 19.23 7.1263 19.1881 7.21698C19.097 7.41443 18.9371 7.66885 18.6683 8.09179L19.3013 8.49411ZM18.4838 5.60926L18.8715 4.96721C18.51 4.74896 18.1732 4.54364 17.8778 4.41667C17.562 4.28091 17.1862 4.18554 16.768 4.30272L16.9704 5.0249L17.1727 5.74708C17.1273 5.75983 17.1279 5.72705 17.2855 5.79477C17.4635 5.87129 17.6971 6.01037 18.0962 6.25131L18.4838 5.60926ZM15.9391 6.32235L16.5957 6.68483C16.8254 6.26877 16.963 6.02259 17.0831 5.85985C17.1921 5.71212 17.2148 5.7353 17.1727 5.74708L16.9704 5.0249L16.768 4.30272C16.3533 4.41893 16.0799 4.69316 15.8762 4.96921C15.6835 5.23025 15.4919 5.58057 15.2825 5.95986L15.9391 6.32235Z" fill="#1C1917"/>
</svg>
