<svg width="24" height="24" viewBox="0 0 24 24" fill="none" xmlns="http://www.w3.org/2000/svg">
<path d="M16 2.75C16.4142 2.75 16.75 2.41421 16.75 2C16.75 1.58579 16.4142 1.25 16 1.25V2V2.75ZM9 19H8.25C8.25 21.0711 9.92893 22.75 12 22.75V22V21.25C10.7574 21.25 9.75 20.2426 9.75 19H9ZM12 22V22.75C14.0711 22.75 15.75 21.0711 15.75 19H15H14.25C14.25 20.2426 13.2426 21.25 12 21.25V22ZM15 19H15.75C15.75 18.563 15.675 18.142 15.5364 17.7501L14.8293 18L14.1222 18.2499C14.2047 18.4836 14.25 18.7357 14.25 19H15ZM9.17071 18L8.46358 17.7501C8.32505 18.142 8.25 18.563 8.25 19H9H9.75C9.75 18.7357 9.79526 18.4836 9.87784 18.2499L9.17071 18ZM6 15H5.25C5.25 17.0711 6.92893 18.75 9 18.75V18V17.25C7.75736 17.25 6.75 16.2426 6.75 15H6ZM9 18V18.75C11.0711 18.75 12.75 17.0711 12.75 15H12H11.25C11.25 16.2426 10.2426 17.25 9 17.25V18ZM12 15H12.75C12.75 14.04 12.3883 13.1628 11.795 12.4998L11.2361 13L10.6773 13.5002C11.034 13.8988 11.25 14.4233 11.25 15H12ZM6.76389 13L6.20504 12.4998C5.61169 13.1628 5.25 14.04 5.25 15H6H6.75C6.75 14.4233 6.96602 13.8988 7.32274 13.5002L6.76389 13ZM12 15H11.25C11.25 17.0711 12.9289 18.75 15 18.75V18V17.25C13.7574 17.25 12.75 16.2426 12.75 15H12ZM15 18V18.75C17.0711 18.75 18.75 17.0711 18.75 15H18H17.25C17.25 16.2426 16.2426 17.25 15 17.25V18ZM18 15H18.75C18.75 14.04 18.3883 13.1628 17.795 12.4998L17.2361 13L16.6773 13.5002C17.034 13.8988 17.25 14.4233 17.25 15H18ZM12.7639 13L12.205 12.4998C11.6117 13.1628 11.25 14.04 11.25 15H12H12.75C12.75 14.4233 12.966 13.8988 13.3227 13.5002L12.7639 13ZM15 10H14.25C14.25 12.0711 15.9289 13.75 18 13.75V13V12.25C16.7574 12.25 15.75 11.2426 15.75 10H15ZM18 13V13.75C20.0711 13.75 21.75 12.0711 21.75 10H21H20.25C20.25 11.2426 19.2426 12.25 18 12.25V13ZM21 10H21.75C21.75 7.92893 20.0711 6.25 18 6.25V7V7.75C19.2426 7.75 20.25 8.75736 20.25 10H21ZM18 7V6.25C15.9289 6.25 14.25 7.92893 14.25 10H15H15.75C15.75 8.75736 16.7574 7.75 18 7.75V7ZM9 10H8.25C8.25 12.0711 9.92893 13.75 12 13.75V13V12.25C10.7574 12.25 9.75 11.2426 9.75 10H9ZM12 13V13.75C14.0711 13.75 15.75 12.0711 15.75 10H15H14.25C14.25 11.2426 13.2426 12.25 12 12.25V13ZM15 10H15.75C15.75 7.92893 14.0711 6.25 12 6.25V7V7.75C13.2426 7.75 14.25 8.75736 14.25 10H15ZM12 7V6.25C9.92893 6.25 8.25 7.92893 8.25 10H9H9.75C9.75 8.75736 10.7574 7.75 12 7.75V7ZM3 10H2.25C2.25 12.0711 3.92893 13.75 6 13.75V13V12.25C4.75736 12.25 3.75 11.2426 3.75 10H3ZM6 13V13.75C8.07107 13.75 9.75 12.0711 9.75 10H9H8.25C8.25 11.2426 7.24264 12.25 6 12.25V13ZM9 10H9.75C9.75 7.92893 8.07107 6.25 6 6.25V7V7.75C7.24264 7.75 8.25 8.75736 8.25 10H9ZM6 7V6.25C3.92893 6.25 2.25 7.92893 2.25 10H3H3.75C3.75 8.75736 4.75736 7.75 6 7.75V7ZM12 7H12.75C12.75 6.25761 12.9331 5.14659 13.4499 4.24934C13.9452 3.38939 14.722 2.75 16 2.75V2V1.25C14.078 1.25 12.8548 2.27728 12.1501 3.50066C11.4669 4.68674 11.25 6.07572 11.25 7H12Z" fill="#1C1917"/>
</svg>
