<svg width="24" height="24" viewBox="0 0 24 24" fill="none" xmlns="http://www.w3.org/2000/svg">
<path d="M20.2473 8.7004L20.9688 8.49583V8.49583L20.2473 8.7004ZM3.75315 8.7004L4.47471 8.90497L3.75315 8.7004ZM3.69086 10.5259L4.31201 10.1056L4.31201 10.1056L3.69086 10.5259ZM20.3096 10.5259L20.9307 10.9462L20.9307 10.9462L20.3096 10.5259ZM3.75294 16.6426L3.05584 16.9193H3.05584L3.75294 16.6426ZM20.2471 16.6426L19.55 16.3659L20.2471 16.6426ZM20.3093 15.3387L19.7649 15.8545V15.8545L20.3093 15.3387ZM3.69065 15.3387L3.14619 14.8229L3.14618 14.8229L3.69065 15.3387ZM6 15.75C6.41421 15.75 6.75 15.4142 6.75 15C6.75 14.5858 6.41421 14.25 6 14.25V15V15.75ZM14 14.25C13.5858 14.25 13.25 14.5858 13.25 15C13.25 15.4142 13.5858 15.75 14 15.75V15V14.25ZM19 14.25C18.5858 14.25 18.25 14.5858 18.25 15C18.25 15.4142 18.5858 15.75 19 15.75V15V14.25ZM5 15.75C5.41421 15.75 5.75 15.4142 5.75 15C5.75 14.5858 5.41421 14.25 5 14.25V15V15.75ZM7.48149 12.7284L6.91204 13.2165L7.48149 12.7284ZM10.5185 12.7284L9.94907 12.2403H9.94907L10.5185 12.7284ZM9.00781 8.75C9.42203 8.75 9.75781 8.41421 9.75781 8C9.75781 7.58579 9.42203 7.25 9.00781 7.25V8V8.75ZM8.99883 7.25C8.58462 7.25 8.24883 7.58579 8.24883 8C8.24883 8.41421 8.58462 8.75 8.99883 8.75V8V7.25ZM15.5303 7.53033C15.8232 7.23744 15.8232 6.76256 15.5303 6.46967C15.2374 6.17678 14.7626 6.17678 14.4697 6.46967L15 7L15.5303 7.53033ZM13.4697 7.46967C13.1768 7.76256 13.1768 8.23744 13.4697 8.53033C13.7626 8.82322 14.2374 8.82322 14.5303 8.53033L14 8L13.4697 7.46967ZM9.14613 4V4.75H14.8543V4V3.25H9.14613V4ZM14.8543 4V4.75C16.9216 4.75 18.8133 6.39214 19.5257 8.90497L20.2473 8.7004L20.9688 8.49583C20.1297 5.53588 17.7782 3.25 14.8543 3.25V4ZM3.75315 8.7004L4.47471 8.90497C5.18711 6.39214 7.07884 4.75 9.14613 4.75V4V3.25C6.22217 3.25 3.87075 5.53588 3.03158 8.49583L3.75315 8.7004ZM18.4219 11V10.25H5.57854V11V11.75H18.4219V11ZM3.75315 8.7004L3.03158 8.49583C2.91169 8.91873 2.7897 9.33724 2.75851 9.71079C2.72262 10.1407 2.80011 10.5478 3.06971 10.9462L3.69086 10.5259L4.31201 10.1056C4.26078 10.0298 4.24171 9.97461 4.25331 9.83557C4.26963 9.64014 4.33919 9.38298 4.47471 8.90497L3.75315 8.7004ZM5.57854 11V10.25C5.02563 10.25 4.72063 10.2467 4.50808 10.2048C4.35447 10.1746 4.33747 10.1432 4.31201 10.1056L3.69086 10.5259L3.06971 10.9462C3.36509 11.3827 3.76964 11.5883 4.21852 11.6766C4.60846 11.7533 5.08689 11.75 5.57854 11.75V11ZM20.2473 8.7004L19.5257 8.90497C19.6612 9.38297 19.7308 9.64014 19.7471 9.83557C19.7587 9.97461 19.7396 10.0298 19.6884 10.1056L20.3096 10.5259L20.9307 10.9462C21.2003 10.5478 21.2778 10.1407 21.2419 9.71079C21.2107 9.33724 21.0887 8.91873 20.9688 8.49583L20.2473 8.7004ZM18.4219 11V11.75C18.9135 11.75 19.392 11.7533 19.7819 11.6766C20.2308 11.5883 20.6353 11.3827 20.9307 10.9462L20.3096 10.5259L19.6884 10.1056C19.6629 10.1432 19.6459 10.1746 19.4923 10.2048C19.2798 10.2467 18.9748 10.25 18.4219 10.25V11ZM14.8541 20V19.25H9.14593V20V20.75H14.8541V20ZM9.14593 20V19.25C6.91836 19.25 5.09857 17.9998 4.45003 16.3659L3.75294 16.6426L3.05584 16.9193C3.95888 19.1944 6.38223 20.75 9.14593 20.75V20ZM20.2471 16.6426L19.55 16.3659C18.9014 17.9998 17.0816 19.25 14.8541 19.25V20V20.75C17.6178 20.75 20.0411 19.1944 20.9442 16.9193L20.2471 16.6426ZM20.2471 16.6426L20.9442 16.9193C21.0566 16.6359 21.2013 16.2877 21.2392 15.9634C21.2609 15.7776 21.2535 15.5717 21.1827 15.3585C21.1121 15.1459 20.9933 14.9701 20.8538 14.8229L20.3093 15.3387L19.7649 15.8545C19.7858 15.8766 19.7713 15.8679 19.7591 15.831C19.7466 15.7935 19.7514 15.7718 19.7494 15.7892C19.7464 15.8146 19.7354 15.8685 19.6997 15.9733C19.664 16.0779 19.6159 16.1999 19.55 16.3659L20.2471 16.6426ZM18.4217 15V15.75C18.9661 15.75 19.2956 15.7517 19.5325 15.785C19.6417 15.8004 19.6994 15.8188 19.7289 15.8315C19.752 15.8415 19.759 15.8482 19.7649 15.8545L20.3093 15.3387L20.8538 14.8229C20.5315 14.4826 20.1315 14.3545 19.7413 14.2996C19.3757 14.2483 18.9218 14.25 18.4217 14.25V15ZM3.75294 16.6426L4.45004 16.3659C4.38415 16.1999 4.33595 16.0779 4.30032 15.9733C4.26464 15.8685 4.2536 15.8146 4.25063 15.7892C4.24859 15.7718 4.25339 15.7935 4.24094 15.831C4.22869 15.8679 4.21416 15.8766 4.23512 15.8545L3.69065 15.3387L3.14618 14.8229C3.00673 14.9701 2.88785 15.1459 2.8173 15.3585C2.74653 15.5717 2.73907 15.7776 2.76077 15.9634C2.79868 16.2877 2.94339 16.6359 3.05584 16.9193L3.75294 16.6426ZM5.57833 15V14.25C5.07824 14.25 4.62427 14.2483 4.25872 14.2996C3.8685 14.3545 3.46852 14.4826 3.14619 14.8229L3.69065 15.3387L4.23512 15.8545C4.24101 15.8482 4.24797 15.8415 4.27113 15.8315C4.30056 15.8188 4.35832 15.8004 4.46746 15.785C4.7044 15.7517 5.03386 15.75 5.57833 15.75V15ZM5.57833 15V15.75H6V15V14.25H5.57833V15ZM18.4217 15V14.25H14V15V15.75H18.4217V15ZM20 15V15.75C21.5188 15.75 22.75 14.5188 22.75 13H22H21.25C21.25 13.6904 20.6904 14.25 20 14.25V15ZM2 13H1.25C1.25 14.5188 2.48122 15.75 4 15.75V15V14.25C3.30964 14.25 2.75 13.6904 2.75 13H2ZM4 11V10.25C2.48122 10.25 1.25 11.4812 1.25 13H2H2.75C2.75 12.3096 3.30964 11.75 4 11.75V11ZM20 11V11.75C20.6904 11.75 21.25 12.3096 21.25 13H22H22.75C22.75 11.4812 21.5188 10.25 20 10.25V11ZM20 15V14.25H19V15V15.75H20V15ZM4 15V15.75H5V15V14.25H4V15ZM4 11V11.75H6V11V10.25H4V11ZM6 11L5.43056 11.4881L6.91204 13.2165L7.48149 12.7284L8.05093 12.2403L6.56944 10.5119L6 11ZM6 11V11.75H12V11V10.25H6V11ZM12 11V11.75H20V11V10.25H12V11ZM10.5185 12.7284L11.088 13.2165L12.5694 11.4881L12 11L11.4306 10.5119L9.94907 12.2403L10.5185 12.7284ZM7.48149 12.7284L6.91204 13.2165C7.25006 13.6108 7.55438 13.9686 7.83746 14.2177C8.13638 14.4807 8.51043 14.7134 9 14.7134V13.9634V13.2134C8.99944 13.2134 9.00091 13.2135 9.00233 13.2138C9.00343 13.2141 8.99931 13.2133 8.98864 13.2082C8.96441 13.1968 8.91387 13.1668 8.82836 13.0916C8.6436 12.929 8.41863 12.6693 8.05093 12.2403L7.48149 12.7284ZM10.5185 12.7284L9.94907 12.2403C9.58137 12.6693 9.3564 12.929 9.17164 13.0916C9.08613 13.1668 9.03559 13.1968 9.01136 13.2082C9.00069 13.2133 8.99657 13.2141 8.99767 13.2138C8.99909 13.2135 9.00056 13.2134 9 13.2134V13.9634V14.7134C9.48957 14.7134 9.86362 14.4807 10.1625 14.2177C10.4456 13.9686 10.7499 13.6108 11.088 13.2165L10.5185 12.7284ZM9.00781 8V7.25H8.99883V8V8.75H9.00781V8ZM15 7L14.4697 6.46967L13.4697 7.46967L14 8L14.5303 8.53033L15.5303 7.53033L15 7Z" fill="#1C1917"/>
</svg>
