<svg width="24" height="24" viewBox="0 0 24 24" fill="none" xmlns="http://www.w3.org/2000/svg">
<path d="M20.2471 8.02892L20.9591 7.7934V7.7934L20.2471 8.02892ZM3.75294 8.02892L3.04088 7.79339L3.75294 8.02892ZM3.69065 9.59361L4.27932 9.12888L4.27932 9.12888L3.69065 9.59361ZM20.3093 9.59361L20.898 10.0583V10.0583L20.3093 9.59361ZM4.4319 17.7276L3.7043 17.9095L4.4319 17.7276ZM19.5681 17.7276L20.2957 17.9095L19.5681 17.7276ZM17.4962 13.3359L17.9122 13.9599L17.4962 13.3359ZM15.5547 14.6302L15.1387 14.0062L15.5547 14.6302ZM14.4453 14.6302L14.8613 14.0062L14.4453 14.6302ZM12.5038 13.3359L12.0878 13.9599L12.5038 13.3359ZM18.5 15.25C18.0858 15.25 17.75 15.5858 17.75 16C17.75 16.4142 18.0858 16.75 18.5 16.75V16V15.25ZM11 16.75C11.4142 16.75 11.75 16.4142 11.75 16C11.75 15.5858 11.4142 15.25 11 15.25V16V16.75ZM15.0078 7.75C15.422 7.75 15.7578 7.41421 15.7578 7C15.7578 6.58579 15.422 6.25 15.0078 6.25V7V7.75ZM14.9988 6.25C14.5846 6.25 14.2488 6.58579 14.2488 7C14.2488 7.41421 14.5846 7.75 14.9988 7.75V7V6.25ZM11.0303 7.03033C11.3232 6.73744 11.3232 6.26256 11.0303 5.96967C10.7374 5.67678 10.2626 5.67678 9.96967 5.96967L10.5 6.5L11.0303 7.03033ZM8.96967 6.96967C8.67678 7.26256 8.67678 7.73744 8.96967 8.03033C9.26256 8.32322 9.73744 8.32322 10.0303 8.03033L9.5 7.5L8.96967 6.96967ZM9.14593 4V4.75H14.8541V4V3.25H9.14593V4ZM14.8541 4V4.75C16.9968 4.75 18.8512 6.19712 19.535 8.26444L20.2471 8.02892L20.9591 7.7934C20.0913 5.16975 17.7026 3.25 14.8541 3.25V4ZM3.75294 8.02892L4.465 8.26444C5.14878 6.19712 7.00323 4.75 9.14593 4.75V4V3.25C6.29736 3.25 3.90867 5.16975 3.04088 7.79339L3.75294 8.02892ZM18.4217 10V9.25H5.57833V10V10.75H18.4217V10ZM3.75294 8.02892L3.04088 7.79339C2.9238 8.14737 2.79299 8.52913 2.75924 8.87574C2.71839 9.29513 2.81121 9.69001 3.10199 10.0583L3.69065 9.59361L4.27932 9.12888C4.2647 9.11036 4.25786 9.0986 4.255 9.09314C4.25353 9.09035 4.25281 9.08863 4.2525 9.08785C4.2522 9.08708 4.25206 9.08665 4.25198 9.08634C4.25195 9.08625 4.25098 9.08298 4.2504 9.07422C4.24979 9.0649 4.24955 9.04807 4.25217 9.02114C4.26591 8.88005 4.32667 8.68266 4.465 8.26444L3.75294 8.02892ZM5.57833 10V9.25C5.0296 9.25 4.71241 9.24752 4.48781 9.20964C4.30513 9.17884 4.2894 9.14165 4.27932 9.12888L3.69065 9.59361L3.10199 10.0583C3.41273 10.452 3.81857 10.618 4.23838 10.6888C4.61626 10.7525 5.0825 10.75 5.57833 10.75V10ZM20.2471 8.02892L19.535 8.26444C19.6733 8.68266 19.7341 8.88005 19.7478 9.02114C19.7505 9.04807 19.7502 9.0649 19.7496 9.07422C19.749 9.08298 19.748 9.08625 19.748 9.08634C19.7479 9.08665 19.7478 9.08708 19.7475 9.08785C19.7472 9.08863 19.7465 9.09035 19.745 9.09314C19.7421 9.0986 19.7353 9.11036 19.7207 9.12888L20.3093 9.59361L20.898 10.0583C21.1888 9.69001 21.2816 9.29513 21.2408 8.87574C21.207 8.52913 21.0762 8.14737 20.9591 7.7934L20.2471 8.02892ZM18.4217 10V10.75C18.9175 10.75 19.3837 10.7525 19.7616 10.6888C20.1814 10.618 20.5873 10.452 20.898 10.0583L20.3093 9.59361L19.7207 9.12888C19.7106 9.14165 19.6949 9.17884 19.5122 9.20964C19.2876 9.24752 18.9704 9.25 18.4217 9.25V10ZM11.3944 13V12.25H3.5V13V13.75H11.3944V13ZM3.5 16V16.75H4V16V15.25H3.5V16ZM4 16L3.27239 16.1819L3.7043 17.9095L4.4319 17.7276L5.15951 17.5457L4.72761 15.8181L4 16ZM7.34233 20V20.75H16.6577V20V19.25H7.34233V20ZM19.5681 17.7276L20.2957 17.9095L20.7276 16.1819L20 16L19.2724 15.8181L18.8405 17.5457L19.5681 17.7276ZM20 16V16.75H20.5V16V15.25H20V16ZM20.5 13V12.25H18.6056V13V13.75H20.5V13ZM17.4962 13.3359L17.0801 12.7119L15.1387 14.0062L15.5547 14.6302L15.9707 15.2542L17.9122 13.9599L17.4962 13.3359ZM14.4453 14.6302L14.8613 14.0062L12.9199 12.7119L12.5038 13.3359L12.0878 13.9599L14.0293 15.2542L14.4453 14.6302ZM20 16V15.25H18.5V16V16.75H20V16ZM4 16V16.75H11V16V15.25H4V16ZM15.5547 14.6302L15.1387 14.0062C15.0547 14.0621 14.9453 14.0621 14.8613 14.0062L14.4453 14.6302L14.0293 15.2542C14.6171 15.6461 15.3829 15.6461 15.9707 15.2542L15.5547 14.6302ZM18.6056 13V12.25C18.0626 12.25 17.5319 12.4107 17.0801 12.7119L17.4962 13.3359L17.9122 13.9599C18.1175 13.823 18.3588 13.75 18.6056 13.75V13ZM22 14.5H22.75C22.75 13.2574 21.7426 12.25 20.5 12.25V13V13.75C20.9142 13.75 21.25 14.0858 21.25 14.5H22ZM20.5 16V16.75C21.7426 16.75 22.75 15.7426 22.75 14.5H22H21.25C21.25 14.9142 20.9142 15.25 20.5 15.25V16ZM4.4319 17.7276L3.7043 17.9095C4.12164 19.5789 5.62158 20.75 7.34233 20.75V20V19.25C6.30988 19.25 5.40992 18.5473 5.15951 17.5457L4.4319 17.7276ZM2 14.5H1.25C1.25 15.7426 2.25736 16.75 3.5 16.75V16V15.25C3.08579 15.25 2.75 14.9142 2.75 14.5H2ZM3.5 13V12.25C2.25736 12.25 1.25 13.2574 1.25 14.5H2H2.75C2.75 14.0858 3.08579 13.75 3.5 13.75V13ZM16.6577 20V20.75C18.3784 20.75 19.8784 19.5789 20.2957 17.9095L19.5681 17.7276L18.8405 17.5457C18.5901 18.5473 17.6901 19.25 16.6577 19.25V20ZM11.3944 13V13.75C11.6412 13.75 11.8825 13.823 12.0878 13.9599L12.5038 13.3359L12.9199 12.7119C12.4681 12.4107 11.9374 12.25 11.3944 12.25V13ZM15.0078 7V6.25H14.9988V7V7.75H15.0078V7ZM10.5 6.5L9.96967 5.96967L8.96967 6.96967L9.5 7.5L10.0303 8.03033L11.0303 7.03033L10.5 6.5Z" fill="#1C1917"/>
</svg>
