<svg width="24" height="24" viewBox="0 0 24 24" fill="none" xmlns="http://www.w3.org/2000/svg">
<path d="M6 2.75C5.58579 2.75 5.25 3.08579 5.25 3.5C5.25 3.91421 5.58579 4.25 6 4.25V3.5V2.75ZM20 4.25C20.4142 4.25 20.75 3.91421 20.75 3.5C20.75 3.08579 20.4142 2.75 20 2.75V3.5V4.25ZM12.25 2C12.25 1.58579 11.9142 1.25 11.5 1.25C11.0858 1.25 10.75 1.58579 10.75 2H11.5H12.25ZM10.75 5C10.75 5.41421 11.0858 5.75 11.5 5.75C11.9142 5.75 12.25 5.41421 12.25 5H11.5H10.75ZM8.19828 2C8.19828 1.58579 7.86249 1.25 7.44828 1.25C7.03406 1.25 6.69828 1.58579 6.69828 2H7.44828H8.19828ZM6.69828 5C6.69828 5.41421 7.03406 5.75 7.44828 5.75C7.86249 5.75 8.19828 5.41421 8.19828 5H7.44828H6.69828ZM10.25 1C10.25 0.585786 9.91421 0.25 9.5 0.25C9.08579 0.25 8.75 0.585786 8.75 1H9.5H10.25ZM8.75 6C8.75 6.41421 9.08579 6.75 9.5 6.75C9.91421 6.75 10.25 6.41421 10.25 6H9.5H8.75ZM4 8.25C3.58579 8.25 3.25 8.58579 3.25 9C3.25 9.41421 3.58579 9.75 4 9.75V9V8.25ZM16 9.75C16.4142 9.75 16.75 9.41421 16.75 9C16.75 8.58579 16.4142 8.25 16 8.25V9V9.75ZM13.8963 9.36014L14.4755 8.88359L13.8963 9.36014ZM14.1791 8.52345C13.9159 8.2036 13.4433 8.15767 13.1235 8.42086C12.8036 8.68405 12.7577 9.1567 13.0209 9.47655L13.6 9L14.1791 8.52345ZM6.97914 9.47655C7.24233 9.1567 7.1964 8.68405 6.87655 8.42086C6.5567 8.15767 6.08405 8.2036 5.82086 8.52345L6.4 9L6.97914 9.47655ZM6.10366 9.36014L5.52452 8.88359L5.52452 8.88359L6.10366 9.36014ZM15.7294 12.0089L16.4349 11.7544V11.7544L15.7294 12.0089ZM15.2971 22.3166L14.7742 21.7788L15.2971 22.3166ZM4.27058 12.0089L4.97607 12.2635H4.97607L4.27058 12.0089ZM4.70294 22.3166L5.22575 21.7788H5.22575L4.70294 22.3166ZM8.75 15C8.75 14.5858 8.41421 14.25 8 14.25C7.58579 14.25 7.25 14.5858 7.25 15H8H8.75ZM7.25 18C7.25 18.4142 7.58579 18.75 8 18.75C8.41421 18.75 8.75 18.4142 8.75 18H8H7.25ZM4 14.25C3.58579 14.25 3.25 14.5858 3.25 15C3.25 15.4142 3.58579 15.75 4 15.75V15V14.25ZM16 15.75C16.4142 15.75 16.75 15.4142 16.75 15C16.75 14.5858 16.4142 14.25 16 14.25V15V15.75ZM7.44828 3.5V2.75H6V3.5V4.25H7.44828V3.5ZM20 3.5V2.75H11.5V3.5V4.25H20V3.5ZM11.5 2H10.75V3.5H11.5H12.25V2H11.5ZM11.5 3.5H10.75V5H11.5H12.25V3.5H11.5ZM7.44828 2H6.69828V3.5H7.44828H8.19828V2H7.44828ZM7.44828 3.5H6.69828V5H7.44828H8.19828V3.5H7.44828ZM9.5 1H8.75V6H9.5H10.25V1H9.5ZM4 9V9.75H16V9V8.25H4V9ZM8.8 23V23.75H11.2V23V22.25H8.8V23ZM16 18.3333H16.75V15.1906H16H15.25V18.3333H16ZM13.8963 9.36014L14.4755 8.88359L14.1791 8.52345L13.6 9L13.0209 9.47655L13.3172 9.83668L13.8963 9.36014ZM6.4 9L5.82086 8.52345L5.52452 8.88359L6.10366 9.36014L6.6828 9.83668L6.97914 9.47655L6.4 9ZM4 15.1906H3.25V18.3333H4H4.75V15.1906H4ZM16 15.1906H16.75C16.75 13.6218 16.7603 12.6562 16.4349 11.7544L15.7294 12.0089L15.0239 12.2635C15.2397 12.8616 15.25 13.5171 15.25 15.1906H16ZM13.8963 9.36014L13.3172 9.83668C14.3923 11.1432 14.8076 11.6638 15.0239 12.2635L15.7294 12.0089L16.4349 11.7544C16.1101 10.8542 15.4837 10.1088 14.4755 8.88359L13.8963 9.36014ZM11.2 23V23.75C12.3107 23.75 13.2172 23.7515 13.9307 23.6582C14.6636 23.5624 15.3051 23.3548 15.8199 22.8543L15.2971 22.3166L14.7742 21.7788C14.5861 21.9618 14.3104 22.0958 13.7362 22.1709C13.1426 22.2485 12.352 22.25 11.2 22.25V23ZM16 18.3333H15.25C15.25 19.4551 15.2483 20.2188 15.1692 20.7909C15.0934 21.3392 14.9595 21.5988 14.7742 21.7788L15.2971 22.3166L15.8199 22.8543C16.3376 22.351 16.5552 21.7189 16.6551 20.9964C16.7517 20.2977 16.75 19.4115 16.75 18.3333H16ZM6.10366 9.36014L5.52452 8.88359C4.51631 10.1088 3.88989 10.8542 3.5651 11.7544L4.27058 12.0089L4.97607 12.2635C5.19244 11.6638 5.60769 11.1432 6.6828 9.83668L6.10366 9.36014ZM4 15.1906H4.75C4.75 13.5171 4.76026 12.8616 4.97607 12.2635L4.27058 12.0089L3.5651 11.7544C3.23974 12.6562 3.25 13.6218 3.25 15.1906H4ZM8.8 23V22.25C7.648 22.25 6.85738 22.2485 6.26375 22.1709C5.68959 22.0958 5.41391 21.9618 5.22575 21.7788L4.70294 22.3166L4.18013 22.8543C4.69492 23.3548 5.3364 23.5624 6.06934 23.6582C6.78282 23.7515 7.68926 23.75 8.8 23.75V23ZM4 18.3333H3.25C3.25 19.4115 3.24832 20.2977 3.34494 20.9964C3.44485 21.7189 3.6624 22.351 4.18014 22.8543L4.70294 22.3166L5.22575 21.7788C5.04055 21.5988 4.90662 21.3392 4.8308 20.7909C4.75168 20.2188 4.75 19.4551 4.75 18.3333H4ZM8 15H7.25V18H8H8.75V15H8ZM4 15V15.75H16V15V14.25H4V15Z" fill="#1C1917"/>
</svg>
