<svg width="24" height="24" viewBox="0 0 24 24" fill="none" xmlns="http://www.w3.org/2000/svg">
<path d="M17.9239 2.61732L18.6168 2.3303V2.3303L17.9239 2.61732ZM17.3827 2.07612L17.6697 1.38321L17.6697 1.38321L17.3827 2.07612ZM17.3827 4.92388L17.6697 5.61679L17.6697 5.61679L17.3827 4.92388ZM17.9239 4.38268L18.6168 4.6697V4.6697L17.9239 4.38268ZM6.07612 4.38268L5.38321 4.6697H5.38321L6.07612 4.38268ZM6.61732 4.92388L6.3303 5.61679L6.3303 5.61679L6.61732 4.92388ZM6.07612 2.61732L5.38321 2.3303L5.38321 2.3303L6.07612 2.61732ZM6.61732 2.07612L6.3303 1.38321L6.61732 2.07612ZM7.31779 5.21866L7.89395 5.6988L7.89395 5.69879L7.31779 5.21866ZM16.6822 5.21866L17.2584 4.73852L16.6822 5.21866ZM18.1213 21.1213L18.6517 21.6517H18.6517L18.1213 21.1213ZM5.87868 21.1213L5.34835 21.6517H5.34835L5.87868 21.1213ZM10 11.4118L9.56749 10.799C9.3684 10.9396 9.25 11.1681 9.25 11.4118H10ZM12 10L12.4325 9.38727C12.1732 9.20424 11.8268 9.20424 11.5675 9.38727L12 10ZM14 11.4118H14.75C14.75 11.1681 14.6316 10.9396 14.4325 10.799L14 11.4118ZM16 14.7059H16.75C16.75 14.4622 16.6316 14.2337 16.4325 14.0932L16 14.7059ZM16 16.5882L16.4325 17.201C16.6316 17.0604 16.75 16.8319 16.75 16.5882H16ZM14 18L13.5675 18.6127C13.8268 18.7958 14.1732 18.7958 14.4325 18.6127L14 18ZM8 16.5882H7.25C7.25 16.8319 7.3684 17.0604 7.56749 17.201L8 16.5882ZM8 14.7059L7.56749 14.0932C7.3684 14.2337 7.25 14.4622 7.25 14.7059H8ZM10 18L9.56749 18.6127C9.82678 18.7958 10.1732 18.7958 10.4325 18.6127L10 18ZM7.5 5V5.75H16.5V5V4.25H7.5V5ZM16.5 2V1.25H7.5V2V2.75H16.5V2ZM18 3.5H18.75C18.75 3.27729 18.7504 3.0727 18.7387 2.90179C18.7266 2.72415 18.699 2.52881 18.6168 2.3303L17.9239 2.61732L17.231 2.90433C17.2249 2.8896 17.2353 2.90263 17.2422 3.0039C17.2496 3.1119 17.25 3.25677 17.25 3.5H18ZM16.5 2V2.75C16.7432 2.75 16.8881 2.75041 16.9961 2.75778C17.0974 2.76469 17.1104 2.77513 17.0957 2.76903L17.3827 2.07612L17.6697 1.38321C17.4712 1.30099 17.2759 1.27338 17.0982 1.26125C16.9273 1.24959 16.7227 1.25 16.5 1.25V2ZM17.9239 2.61732L18.6168 2.3303C18.4392 1.9015 18.0985 1.56083 17.6697 1.38321L17.3827 2.07612L17.0957 2.76903C17.1569 2.7944 17.2056 2.84307 17.231 2.90433L17.9239 2.61732ZM16.5 5V5.75C16.7227 5.75 16.9273 5.75041 17.0982 5.73875C17.2759 5.72662 17.4712 5.69901 17.6697 5.61679L17.3827 4.92388L17.0957 4.23097C17.1104 4.22487 17.0974 4.23532 16.9961 4.24222C16.8881 4.24959 16.7432 4.25 16.5 4.25V5ZM18 3.5H17.25C17.25 3.74323 17.2496 3.8881 17.2422 3.9961C17.2353 4.09737 17.2249 4.1104 17.231 4.09567L17.9239 4.38268L18.6168 4.6697C18.699 4.47119 18.7266 4.27585 18.7387 4.09821C18.7504 3.9273 18.75 3.72271 18.75 3.5H18ZM17.3827 4.92388L17.6697 5.61679C18.0985 5.43917 18.4392 5.0985 18.6168 4.6697L17.9239 4.38268L17.231 4.09567C17.2056 4.15693 17.1569 4.2056 17.0957 4.23097L17.3827 4.92388ZM6 3.5H5.25C5.25 3.72271 5.24959 3.9273 5.26125 4.09821C5.27338 4.27585 5.30099 4.47119 5.38321 4.6697L6.07612 4.38268L6.76903 4.09567C6.77513 4.1104 6.76469 4.09737 6.75778 3.9961C6.75041 3.8881 6.75 3.74323 6.75 3.5H6ZM7.5 5V4.25C7.25677 4.25 7.1119 4.24959 7.0039 4.24222C6.90263 4.23532 6.8896 4.22487 6.90433 4.23097L6.61732 4.92388L6.3303 5.61679C6.52881 5.69901 6.72415 5.72662 6.90179 5.73875C7.0727 5.75041 7.27729 5.75 7.5 5.75V5ZM6.07612 4.38268L5.38321 4.6697C5.56083 5.0985 5.9015 5.43917 6.3303 5.61679L6.61732 4.92388L6.90433 4.23097C6.84307 4.2056 6.7944 4.15693 6.76903 4.09567L6.07612 4.38268ZM6 3.5H6.75C6.75 3.25677 6.75041 3.1119 6.75778 3.0039C6.76469 2.90263 6.77513 2.8896 6.76903 2.90433L6.07612 2.61732L5.38321 2.3303C5.30099 2.52881 5.27338 2.72415 5.26125 2.90179C5.24959 3.0727 5.25 3.27729 5.25 3.5H6ZM7.5 2V1.25C7.27729 1.25 7.0727 1.24959 6.90179 1.26125C6.72415 1.27338 6.52881 1.30099 6.3303 1.38321L6.61732 2.07612L6.90433 2.76903C6.8896 2.77513 6.90263 2.76469 7.0039 2.75778C7.1119 2.75041 7.25677 2.75 7.5 2.75V2ZM6.07612 2.61732L6.76903 2.90433C6.7944 2.84307 6.84307 2.7944 6.90433 2.76903L6.61732 2.07612L6.3303 1.38321C5.9015 1.56083 5.56083 1.9015 5.38321 2.3303L6.07612 2.61732ZM7.5 5L6.92383 4.51986L6.74162 4.73852L7.31779 5.21866L7.89395 5.69879L8.07617 5.48014L7.5 5ZM5 11.6205H4.25V16H5H5.75V11.6205H5ZM11 22V22.75H13V22V21.25H11V22ZM19 16H19.75V11.6205H19H18.25V16H19ZM16.6822 5.21866L17.2584 4.73852L17.0762 4.51986L16.5 5L15.9238 5.48014L16.106 5.69879L16.6822 5.21866ZM19 11.6205H19.75C19.75 9.88173 19.7604 8.83001 19.4066 7.8528L18.7014 8.10812L17.9962 8.36344C18.2396 9.03597 18.25 9.77592 18.25 11.6205H19ZM16.6822 5.21866L16.106 5.69879C17.2869 7.11584 17.7527 7.69092 17.9962 8.36344L18.7014 8.10812L19.4066 7.8528C19.0528 6.8756 18.3715 6.07428 17.2584 4.73852L16.6822 5.21866ZM13 22V22.75C14.393 22.75 15.5132 22.7516 16.3918 22.6335C17.2919 22.5125 18.0497 22.2536 18.6517 21.6517L18.1213 21.1213L17.591 20.591C17.3142 20.8678 16.9257 21.0482 16.1919 21.1469C15.4365 21.2484 14.4354 21.25 13 21.25V22ZM19 16H18.25C18.25 17.4354 18.2484 18.4365 18.1469 19.1919C18.0482 19.9257 17.8678 20.3142 17.591 20.591L18.1213 21.1213L18.6517 21.6517C19.2536 21.0497 19.5125 20.2919 19.6335 19.3918C19.7516 18.5132 19.75 17.393 19.75 16H19ZM5 16H4.25C4.25 17.393 4.24841 18.5132 4.36652 19.3918C4.48754 20.2919 4.74643 21.0497 5.34835 21.6517L5.87868 21.1213L6.40901 20.591C6.13225 20.3142 5.9518 19.9257 5.85315 19.1919C5.75159 18.4365 5.75 17.4354 5.75 16H5ZM11 22V21.25C9.56458 21.25 8.56347 21.2484 7.80812 21.1469C7.07434 21.0482 6.68577 20.8678 6.40901 20.591L5.87868 21.1213L5.34835 21.6517C5.95027 22.2536 6.70814 22.5125 7.60825 22.6335C8.48678 22.7516 9.60699 22.75 11 22.75V22ZM7.31779 5.21866L6.74162 4.73852C5.62849 6.07428 4.94724 6.8756 4.59344 7.8528L5.29864 8.10812L6.00385 8.36344C6.24733 7.69092 6.71308 7.11584 7.89395 5.6988L7.31779 5.21866ZM5 11.6205H5.75C5.75 9.77592 5.76036 9.03597 6.00385 8.36344L5.29864 8.10812L4.59344 7.8528C4.23964 8.83001 4.25 9.88173 4.25 11.6205H5ZM10 13.2941H10.75V11.4118H10H9.25V13.2941H10ZM10 11.4118L10.4325 12.0245L12.4325 10.6127L12 10L11.5675 9.38727L9.56749 10.799L10 11.4118ZM12 10L11.5675 10.6127L13.5675 12.0245L14 11.4118L14.4325 10.799L12.4325 9.38727L12 10ZM14 11.4118H13.25V13.2941H14H14.75V11.4118H14ZM14 13.2941L13.5675 12.6814L11.5675 14.0932L12 14.7059L12.4325 15.3186L14.4325 13.9068L14 13.2941ZM12 14.7059L12.4325 14.0932L10.4325 12.6814L10 13.2941L9.56749 13.9068L11.5675 15.3186L12 14.7059ZM12 16.5882H12.75V14.7059H12H11.25V16.5882H12ZM14 13.2941L13.5675 13.9068L15.5675 15.3186L16 14.7059L16.4325 14.0932L14.4325 12.6814L14 13.2941ZM16 14.7059H15.25V16.5882H16H16.75V14.7059H16ZM16 16.5882L15.5675 15.9755L13.5675 17.3873L14 18L14.4325 18.6127L16.4325 17.201L16 16.5882ZM14 18L14.4325 17.3873L12.4325 15.9755L12 16.5882L11.5675 17.201L13.5675 18.6127L14 18ZM8 16.5882H8.75V14.7059H8H7.25V16.5882H8ZM8 14.7059L8.43251 15.3186L10.4325 13.9068L10 13.2941L9.56749 12.6814L7.56749 14.0932L8 14.7059ZM12 16.5882L11.5675 15.9755L9.56749 17.3873L10 18L10.4325 18.6127L12.4325 17.201L12 16.5882ZM10 18L10.4325 17.3873L8.43251 15.9755L8 16.5882L7.56749 17.201L9.56749 18.6127L10 18Z" fill="#1C1917"/>
</svg>
