<svg width="24" height="24" viewBox="0 0 24 24" fill="none" xmlns="http://www.w3.org/2000/svg">
<path d="M19 11.0267C19.536 10.4423 20.5 9.64426 21.4626 8.39336C22.1108 7.55101 22.1638 6.36115 21.6693 5.41681C20.7595 3.67971 18.4754 3.55457 17.1607 4.98076C16.8434 5.32492 16.5144 5.66461 16.174 5.99906M6.93327 18.4706C6.20617 18.6902 5.48603 18.871 4.77684 19.0132C3.79101 19.2109 2.82972 18.6666 2.33514 17.7223C1.42537 15.9852 2.46911 13.742 4.24688 13.1999C4.67588 13.0691 5.10725 12.9248 5.5402 12.767M17.006 5.0674C16.879 4.46815 16.3586 3.38838 15.272 3.17033C13.7471 2.86434 13.0926 3.05702 11.2628 4.587C9.79891 5.81099 6.68819 7.21348 5.31581 7.76173C4.04308 8.27017 2.59557 9.6093 3.0801 11.1975C3.56771 12.7958 4.47384 12.8124 4.8283 12.9722M8.34375 11.8354C8.587 11.5507 8.77853 10.9876 8.92492 10.345C9.04619 9.81261 9.73252 9.9242 10.3977 10.1753C10.6329 10.2641 10.9025 10.185 11.0351 9.97136L12.0956 8.2623C12.2045 8.08685 12.4099 7.99786 12.6057 8.06339C13.0927 8.22639 13.7215 8.50031 14.0735 8.32372M21.0061 13.102C20.8791 12.5028 20.3587 11.423 19.272 11.205C17.7471 10.899 17.0927 11.0916 15.2628 12.6216C13.799 13.8456 10.6883 15.2481 9.31587 15.7963C8.04314 16.3048 6.59563 17.6439 7.08016 19.2321C7.56777 20.8305 8.4739 20.847 8.82836 21.0068C9.43549 21.1343 10.9399 21.0068 13.5029 19.6183C15.9988 18.2663 18.5968 16.4477 19.5237 15.7963C20.0848 15.3867 21.1668 14.2744 21.0061 13.102Z" stroke="#1C1917" stroke-width="1.5" stroke-linecap="round" stroke-linejoin="round"/>
</svg>
