<svg width="24" height="24" viewBox="0 0 24 24" fill="none" xmlns="http://www.w3.org/2000/svg">
<path d="M6.48388 13L5.88482 13.4512C6.02652 13.6394 6.24836 13.75 6.48388 13.75V13ZM18.5145 13V13.75C18.7501 13.75 18.9719 13.6394 19.1136 13.4512L18.5145 13ZM16.9689 9.04176L16.8326 9.77927L16.8326 9.77927L16.9689 9.04176ZM13.9053 9.54833C13.656 9.87919 13.7222 10.3494 14.0531 10.5986C14.3839 10.8479 14.8542 10.7817 15.1034 10.4508L14.5043 9.99958L13.9053 9.54833ZM12.6771 3.92272L13.3957 3.70814V3.70814L12.6771 3.92272ZM13.5018 2L13.917 2.62453C14.1924 2.44144 14.3153 2.09962 14.2197 1.78309C14.1241 1.46655 13.8324 1.25 13.5018 1.25V2ZM10.5801 7.62442C10.925 7.85378 11.3906 7.76009 11.6199 7.41517C11.8493 7.07025 11.7556 6.60471 11.4107 6.37536L10.9954 6.99989L10.5801 7.62442ZM9.84399 10.6849C10.25 10.7671 10.6457 10.5046 10.7279 10.0986C10.8101 9.69267 10.5476 9.29693 10.1417 9.21473L9.99282 9.94981L9.84399 10.6849ZM8.48899 9.74984C8.9032 9.74984 9.23899 9.41406 9.23899 8.99984C9.23899 8.58563 8.9032 8.24984 8.48899 8.24984V8.99984V9.74984ZM6.5 13V12.25C6.27251 12.25 6.05732 12.3533 5.91497 12.5307C5.77262 12.7082 5.71851 12.9406 5.76786 13.1627L6.5 13ZM7.80394 18.8677L8.53608 18.705H8.53608L7.80394 18.8677ZM17.1961 18.8677L16.4639 18.705V18.705L17.1961 18.8677ZM18.5 13L19.2321 13.1627C19.2815 12.9406 19.2274 12.7082 19.085 12.5307C18.9427 12.3533 18.7275 12.25 18.5 12.25V13ZM16.1471 21.5601L16.6164 22.1451L16.1471 21.5601ZM8.85289 21.5601L8.38359 22.1451L8.85289 21.5601ZM6.48388 13V13.75H18.5145V13V12.25H6.48388V13ZM16.9689 9.04176L17.1052 8.30425C16.9115 8.26845 16.7123 8.24984 16.5094 8.24984V8.99984V9.74984C16.6204 9.74984 16.7284 9.76001 16.8326 9.77927L16.9689 9.04176ZM16.5094 8.99984V8.24984C15.4445 8.24984 14.4984 8.76087 13.9053 9.54833L14.5043 9.99958L15.1034 10.4508C15.4248 10.0241 15.9346 9.74984 16.5094 9.74984V8.99984ZM12.6771 3.92272L13.3957 3.70814C13.3432 3.5323 13.3436 3.36208 13.4023 3.20225C13.4604 3.04412 13.5971 2.8373 13.917 2.62453L13.5018 2L13.0865 1.37547C12.5478 1.73368 12.1799 2.17934 11.9942 2.68538C11.8091 3.18973 11.8265 3.69538 11.9584 4.1373L12.6771 3.92272ZM13.5018 2V1.25C12.0909 1.25 10.8442 1.68376 9.97938 2.40441C9.11223 3.12703 8.59376 4.18466 8.83783 5.33097L9.57139 5.17479L10.3049 5.0186C10.2045 4.54673 10.3874 4.01697 10.9397 3.55674C11.4943 3.09455 12.3851 2.75 13.5018 2.75V2ZM9.57139 5.17479L8.83783 5.33098C9.02363 6.20358 9.62684 6.99055 10.5801 7.62442L10.9954 6.99989L11.4107 6.37536C10.6816 5.89059 10.3867 5.4025 10.3049 5.0186L9.57139 5.17479ZM9.57139 5.17479L9.29577 4.47727C6.35645 5.63872 6.71001 10.0504 9.84399 10.6849L9.99282 9.94981L10.1417 9.21473C8.48883 8.88009 8.27997 6.49151 9.84701 5.87231L9.57139 5.17479ZM8.48899 8.99984V8.24984C5.82108 8.24984 4.31917 11.3727 5.88482 13.4512L6.48388 13L7.08294 12.5488C6.25206 11.4457 7.07483 9.74984 8.48899 9.74984V8.99984ZM18.5145 13L19.1136 13.4512C20.5295 11.5715 19.4631 8.73998 17.1052 8.30425L16.9689 9.04176L16.8326 9.77927C18.0835 10.0104 18.6676 11.5502 17.9155 12.5488L18.5145 13ZM16.9689 9.04176L17.71 9.15724C17.8792 8.07116 17.72 7.21595 17.2682 6.54241C16.8332 5.89382 16.1925 5.51751 15.6315 5.24483C15.3536 5.10976 15.0516 4.98062 14.8022 4.86822C14.5391 4.74961 14.3098 4.63918 14.1094 4.51806C13.7176 4.28137 13.4949 4.04038 13.3957 3.70814L12.6771 3.92272L11.9584 4.1373C12.2035 4.95795 12.7635 5.45744 13.3337 5.80193C13.6142 5.97141 13.9108 6.11174 14.1858 6.23572C14.4746 6.3659 14.7232 6.47116 14.9758 6.59393C15.4758 6.83695 15.816 7.07015 16.0225 7.37798C16.2123 7.66086 16.3552 8.10899 16.2278 8.92627L16.9689 9.04176ZM6.5 13L5.76786 13.1627L7.0718 19.0304L7.80394 18.8677L8.53608 18.705L7.23214 12.8373L6.5 13ZM11.7087 22V22.75H13.2913V22V21.25H11.7087V22ZM17.1961 18.8677L17.9282 19.0304L19.2321 13.1627L18.5 13L17.7679 12.8373L16.4639 18.705L17.1961 18.8677ZM18.5 13V12.25H6.5V13V13.75H18.5V13ZM13.2913 22V22.75C14.0419 22.75 14.672 22.7513 15.1808 22.6895C15.7098 22.6253 16.1926 22.4851 16.6164 22.1451L16.1471 21.5601L15.6778 20.9751C15.5532 21.075 15.3773 21.1547 15.0001 21.2005C14.6025 21.2487 14.079 21.25 13.2913 21.25V22ZM17.1961 18.8677L16.4639 18.705C16.293 19.474 16.1782 19.9847 16.0449 20.3623C15.9184 20.7206 15.8024 20.8751 15.6778 20.9751L16.1471 21.5601L16.6164 22.1451C17.0402 21.8052 17.2819 21.3643 17.4593 20.8618C17.6299 20.3785 17.7654 19.7631 17.9282 19.0304L17.1961 18.8677ZM7.80394 18.8677L7.0718 19.0304C7.23461 19.7631 7.37007 20.3785 7.54069 20.8618C7.71812 21.3643 7.95981 21.8052 8.38359 22.1451L8.85289 21.5601L9.32218 20.9751C9.19756 20.8751 9.08162 20.7206 8.9551 20.3623C8.82178 19.9847 8.70696 19.474 8.53608 18.705L7.80394 18.8677ZM11.7087 22V21.25C10.921 21.25 10.3975 21.2487 9.99995 21.2005C9.62273 21.1547 9.4468 21.075 9.32218 20.9751L8.85289 21.5601L8.38359 22.1451C8.80738 22.4851 9.29022 22.6253 9.81924 22.6895C10.328 22.7513 10.9581 22.75 11.7087 22.75V22Z" fill="#1C1917"/>
</svg>
