<svg width="24" height="24" viewBox="0 0 24 24" fill="none" xmlns="http://www.w3.org/2000/svg">
<path d="M18.6994 11.202L18.9181 11.9194H18.9181L18.6994 11.202ZM19.9363 12.1577L20.6795 12.2581L20.6796 12.2581L19.9363 12.1577ZM4.06374 12.1577L3.32049 12.2581L3.32049 12.2581L4.06374 12.1577ZM4.15209 11.0982L4.64968 11.6594L4.64969 11.6594L4.15209 11.0982ZM5.30056 11.202L5.08185 11.9194L5.08188 11.9194L5.30056 11.202ZM9 21.25C8.58578 21.25 8.25 21.5858 8.25 22C8.25 22.4142 8.58578 22.75 9 22.75V22V21.25ZM15 22.75C15.4142 22.75 15.75 22.4142 15.75 22C15.75 21.5858 15.4142 21.25 15 21.25V22V22.75ZM7.80154 5.23011C7.92862 4.83587 7.71205 4.41326 7.31781 4.28617C6.92358 4.15909 6.50096 4.37566 6.37388 4.76989L7.08771 5L7.80154 5.23011ZM10.0967 7.22833L10.2383 7.96483L10.2384 7.96483L10.0967 7.22833ZM13.5462 7.89178L13.6985 7.1574L13.6985 7.1574L13.5462 7.89178ZM17.75 5.97439C17.75 5.56018 17.4142 5.22439 17 5.22439C16.5858 5.22439 16.25 5.56018 16.25 5.97439H17H17.75ZM4.25679 8.9029C4.18708 9.3112 4.46156 9.69871 4.86987 9.76842C5.27817 9.83813 5.66568 9.56365 5.73539 9.15534L4.99609 9.02912L4.25679 8.9029ZM10.6725 3.72197C11.0752 3.6253 11.3234 3.22042 11.2267 2.81765C11.1301 2.41487 10.7252 2.16672 10.3224 2.26338L10.4974 2.99268L10.6725 3.72197ZM18.2905 9.15972C18.3782 9.56453 18.7775 9.82156 19.1823 9.7338C19.5871 9.64605 19.8442 9.24675 19.7564 8.84194L19.0234 9.00083L18.2905 9.15972ZM13.7106 2.28128C13.3072 2.1873 12.904 2.43815 12.81 2.84156C12.716 3.24497 12.9669 3.64818 13.3703 3.74216L13.5404 3.01172L13.7106 2.28128ZM12 12.1534V12.9034C14.4962 12.9034 16.8528 12.549 18.9181 11.9194L18.6994 11.202L18.4807 10.4846C16.566 11.0682 14.3574 11.4034 12 11.4034V12.1534ZM18.6994 11.202L18.9181 11.9194C19.0782 11.8706 19.2041 11.8323 19.3122 11.8028C19.4214 11.773 19.4895 11.7586 19.533 11.7527C19.577 11.7467 19.5641 11.754 19.5209 11.7453C19.4652 11.734 19.4018 11.705 19.3503 11.6593L19.8479 11.0982L20.3455 10.5371C20.0083 10.238 19.615 10.2276 19.3302 10.2665C19.0732 10.3015 18.7689 10.3967 18.4807 10.4846L18.6994 11.202ZM19.8479 11.0982L19.3503 11.6593C19.3128 11.6261 19.2798 11.5793 19.2607 11.53C19.245 11.4895 19.2485 11.4723 19.2497 11.5048C19.2509 11.5385 19.2489 11.5959 19.2388 11.6947C19.2287 11.7928 19.2132 11.9078 19.193 12.0573L19.9363 12.1577L20.6796 12.2581C20.7153 11.9935 20.7577 11.6988 20.7487 11.4504C20.7382 11.1601 20.6552 10.8117 20.3455 10.5371L19.8479 11.0982ZM19.9363 12.1577L19.1931 12.0573C18.7309 15.4777 15.6662 18.25 12 18.25V19V19.75C16.417 19.75 20.1169 16.4225 20.6795 12.2581L19.9363 12.1577ZM12 19V18.25C8.33377 18.25 5.26907 15.4777 4.80699 12.0573L4.06374 12.1577L3.32049 12.2581C3.88309 16.4225 7.58297 19.75 12 19.75V19ZM4.06374 12.1577L4.80699 12.0573C4.78679 11.9077 4.77134 11.7928 4.76124 11.6947C4.75107 11.5958 4.74909 11.5384 4.75031 11.5047C4.75149 11.4722 4.75499 11.4895 4.73929 11.53C4.72017 11.5793 4.68722 11.6261 4.64968 11.6594L4.15209 11.0982L3.6545 10.537C3.3447 10.8117 3.2618 11.1601 3.25129 11.4505C3.24231 11.6989 3.28476 11.9936 3.32049 12.2581L4.06374 12.1577ZM4.15209 11.0982L4.64969 11.6594C4.59822 11.705 4.5348 11.734 4.47912 11.7453C4.43589 11.754 4.42301 11.7467 4.46702 11.7527C4.51053 11.7586 4.57858 11.773 4.68776 11.8028C4.79589 11.8323 4.92173 11.8706 5.08185 11.9194L5.30056 11.202L5.51926 10.4846C5.23111 10.3968 4.92682 10.3015 4.66978 10.2665C4.38498 10.2276 3.9917 10.238 3.65449 10.537L4.15209 11.0982ZM5.30056 11.202L5.08188 11.9194C7.14723 12.549 9.50387 12.9034 12 12.9034V12.1534V11.4034C9.6426 11.4034 7.43403 11.0682 5.51923 10.4846L5.30056 11.202ZM13.5 3.5H12.75C12.75 3.91421 12.4142 4.25 12 4.25V5V5.75C13.2426 5.75 14.25 4.74265 14.25 3.5H13.5ZM12 5V4.25C11.5858 4.25 11.25 3.91421 11.25 3.5H10.5H9.75C9.75 4.74265 10.7574 5.75 12 5.75V5ZM10.5 3.5H11.25C11.25 3.08579 11.5858 2.75 12 2.75V2V1.25C10.7574 1.25 9.75 2.25735 9.75 3.5H10.5ZM12 2V2.75C12.4142 2.75 12.75 3.08579 12.75 3.5H13.5H14.25C14.25 2.25735 13.2426 1.25 12 1.25V2ZM12 19H11.25V22H12H12.75V19H12ZM12 22V21.25H9V22V22.75H12V22ZM12 22V22.75H15V22V21.25H12V22ZM7.08771 5L6.37388 4.76989C6.03275 5.82814 6.41992 6.80612 7.21786 7.4056C7.98501 7.98195 9.0828 8.18708 10.2383 7.96483L10.0967 7.22833L9.95505 6.49183C9.11815 6.65279 8.47586 6.47456 8.11884 6.20633C7.79261 5.96124 7.67152 5.63345 7.80154 5.23011L7.08771 5ZM10.0967 7.22833L10.2384 7.96483C10.6436 7.88688 10.874 7.87114 11.0248 7.87879C11.1563 7.88546 11.2501 7.91055 11.3882 7.96584C11.7212 8.0991 12.2413 8.3872 13.3939 8.62616L13.5462 7.89178L13.6985 7.1574C12.7143 6.95336 12.372 6.74387 11.9456 6.57323C11.704 6.47657 11.4439 6.39812 11.1008 6.38072C10.777 6.36429 10.4121 6.40392 9.95504 6.49183L10.0967 7.22833ZM13.5462 7.89178L13.3939 8.62616C14.805 8.91871 15.9049 8.67295 16.6675 8.08811C17.4109 7.51803 17.75 6.68518 17.75 5.97439H17H16.25C16.25 6.238 16.1129 6.62315 15.7547 6.89781C15.4158 7.15772 14.7888 7.38345 13.6985 7.1574L13.5462 7.89178ZM4.99609 9.02912L5.73539 9.15534C6.00996 7.54719 7.34117 4.52147 10.6725 3.72197L10.4974 2.99268L10.3224 2.26338C6.16163 3.26196 4.5816 7.00049 4.25679 8.9029L4.99609 9.02912ZM19.0234 9.00083L19.7564 8.84194C19.576 8.00978 19.0969 6.62903 18.1603 5.32949C17.2173 4.02116 15.7861 2.76478 13.7106 2.28128L13.5404 3.01172L13.3703 3.74216C15.0063 4.12328 16.1541 5.11148 16.9434 6.20656C17.7391 7.31043 18.1457 8.49192 18.2905 9.15972L19.0234 9.00083Z" fill="#1C1917"/>
</svg>
