<svg width="24" height="24" viewBox="0 0 24 24" fill="none" xmlns="http://www.w3.org/2000/svg">
<path d="M20.5424 20.6405L21.0726 21.171L21.0727 21.1709L20.5424 20.6405ZM20.5424 15.1042L20.0122 15.6347L20.5424 15.1042ZM15.0036 20.6405L14.4734 21.171L15.0036 20.6405ZM2.46713 7.46206L1.92747 6.94124L2.46713 7.46206ZM11.8473 22.7531C12.2615 22.7531 12.5973 22.4173 12.5973 22.0031C12.5973 21.5889 12.2615 21.2531 11.8473 21.2531V22.0031V22.7531ZM17.9317 8.04324H18.6817C18.6817 7.87144 18.6227 7.70484 18.5146 7.57131L17.9317 8.04324ZM15.4441 3.53677L14.6942 3.52156V3.52156L15.4441 3.53677ZM15.4231 4.57014L16.1729 4.58535V4.58535L15.4231 4.57014ZM15.6457 5.21965L15.0628 5.69158V5.69158L15.6457 5.21965ZM17.1817 10.4874C17.1817 10.9016 17.5174 11.2374 17.9317 11.2374C18.3459 11.2374 18.6817 10.9016 18.6817 10.4874H17.9317H17.1817ZM20.5424 20.6405L21.0727 21.1709C21.9066 20.3373 22.5563 19.3131 22.6429 18.1324C22.7315 16.9245 22.2198 15.7204 21.0727 14.5738L20.5424 15.1042L20.0122 15.6347C20.9421 16.5641 21.1952 17.3637 21.1469 18.0227C21.0966 18.7089 20.7078 19.4148 20.0122 20.1101L20.5424 20.6405ZM20.5424 15.1042L21.0727 14.5738C19.9238 13.4254 18.4034 12.666 16.968 12.3791C15.5712 12.0999 14.0432 12.2356 13.0887 13.1897L13.6189 13.7201L14.1491 14.2506C14.5793 13.8205 15.4745 13.6102 16.674 13.85C17.8349 14.0821 19.0839 14.7068 20.0122 15.6347L20.5424 15.1042ZM20.5424 20.6405L20.0123 20.11C19.3167 20.8052 18.6103 21.194 17.9235 21.2443C17.2638 21.2927 16.4637 21.0395 15.5338 20.11L15.0036 20.6405L14.4734 21.171C15.6206 22.3176 16.8251 22.8288 18.0331 22.7403C19.2141 22.6538 20.2386 22.0046 21.0726 21.171L20.5424 20.6405ZM15.0036 20.6405L15.5338 20.11C14.6055 19.1822 13.9806 17.9338 13.7485 16.7736C13.5086 15.5749 13.719 14.6805 14.1491 14.2506L13.6189 13.7201L13.0887 13.1897C12.134 14.1438 11.9982 15.6715 12.2776 17.0679C12.5647 18.5028 13.3245 20.0226 14.4734 21.171L15.0036 20.6405ZM20.5424 20.6405L21.0727 20.11L14.1491 13.1897L13.6189 13.7201L13.0887 14.2506L20.0122 21.171L20.5424 20.6405ZM1.90625 20.0031H2.65625V8.85093H1.90625H1.15625V20.0031H1.90625ZM2.46713 7.46206L3.0068 7.98289L5.43066 5.47133L4.89099 4.9505L4.35133 4.42968L1.92747 6.94124L2.46713 7.46206ZM4.89099 4.9505L4.35401 5.47409L7.36956 8.56683L7.90655 8.04324L8.44354 7.51965L5.42798 4.42692L4.89099 4.9505ZM11.8473 22.0031V21.2531H7.90655V22.0031V22.7531H11.8473V22.0031ZM7.90655 22.0031V21.2531H3.90625V22.0031V22.7531H7.90655V22.0031ZM7.90655 8.04324H7.15655V22.0031H7.90655H8.65655V8.04324H7.90655ZM7.90655 8.04324V8.79324H17.9317V8.04324V7.29324H7.90655V8.04324ZM4.89099 4.9505H5.64099V3.50635H4.89099H4.14099V4.9505H4.89099ZM6.39099 2.00635V2.75635H13.9444V2.00635V1.25635H6.39099V2.00635ZM15.4441 3.53677L14.6942 3.52156L14.6733 4.55493L15.4231 4.57014L16.1729 4.58535L16.1939 3.55197L15.4441 3.53677ZM15.6457 5.21965L15.0628 5.69158L17.3487 8.51517L17.9317 8.04324L18.5146 7.57131L16.2286 4.74773L15.6457 5.21965ZM17.9317 8.04324H17.1817V10.4874H17.9317H18.6817V8.04324H17.9317ZM15.4231 4.57014L14.6733 4.55493C14.6649 4.96791 14.8029 5.37054 15.0628 5.69158L15.6457 5.21965L16.2286 4.74773C16.1915 4.70187 16.1718 4.64435 16.1729 4.58535L15.4231 4.57014ZM13.9444 2.00635V2.75635C14.3645 2.75635 14.7027 3.10148 14.6942 3.52156L15.4441 3.53677L16.1939 3.55197C16.2195 2.29174 15.2049 1.25635 13.9444 1.25635V2.00635ZM4.89099 3.50635H5.64099C5.64099 3.09213 5.97678 2.75635 6.39099 2.75635V2.00635V1.25635C5.14835 1.25635 4.14099 2.26371 4.14099 3.50635H4.89099ZM1.90625 8.85093H2.65625C2.65625 8.5271 2.78192 8.2159 3.0068 7.98289L2.46713 7.46206L1.92747 6.94124C1.43273 7.45387 1.15625 8.1385 1.15625 8.85093H1.90625ZM1.90625 20.0031H1.15625C1.15625 21.5219 2.38746 22.7531 3.90625 22.7531V22.0031V21.2531C3.21589 21.2531 2.65625 20.6935 2.65625 20.0031H1.90625Z" fill="#1C1917"/>
</svg>
