<svg width="24" height="24" viewBox="0 0 24 24" fill="none" xmlns="http://www.w3.org/2000/svg">
<path d="M2.56466 7.46209L3.10437 7.98286L2.56466 7.46209ZM4.98807 4.9505L5.52779 5.47127C5.66269 5.33147 5.73807 5.14478 5.73807 4.9505H4.98807ZM15.5391 3.53676L14.7893 3.52155V3.52155L15.5391 3.53676ZM15.5181 4.5702L14.7683 4.55499V4.55499L15.5181 4.5702ZM15.7407 5.21963L15.1577 5.6915V5.6915L15.7407 5.21963ZM18.0262 8.04324H18.7762C18.7762 7.87146 18.7172 7.70489 18.6092 7.57137L18.0262 8.04324ZM17.2762 10.0862C17.2762 10.5004 17.612 10.8362 18.0262 10.8362C18.4404 10.8362 18.7762 10.5004 18.7762 10.0862H18.0262H17.2762ZM7.45046 7.46209L6.91074 7.98286V7.98286L7.45046 7.46209ZM5.56676 4.42973C5.27914 4.13165 4.80435 4.12317 4.50627 4.41078C4.20819 4.6984 4.19971 5.17319 4.48732 5.47127L5.02704 4.9505L5.56676 4.42973ZM10.9724 22.7531C11.3866 22.7531 11.7224 22.4173 11.7224 22.0031C11.7224 21.5889 11.3866 21.2531 10.9724 21.2531V22.0031V22.7531ZM7.84091 8.04324L7.15477 8.34607V8.34607L7.84091 8.04324ZM14.7284 14.7319L15.2587 15.2623L15.2587 15.2623L14.7284 14.7319ZM14.1363 20.6514L14.6665 20.121L14.1363 20.6514ZM20.6495 14.1399L21.1798 13.6095L20.6495 14.1399ZM17.0969 17.0997L17.627 17.6302L17.6271 17.6301L17.0969 17.0997ZM17.6496 20.4343C18.0201 20.6196 18.4706 20.4694 18.6559 20.0989C18.8411 19.7284 18.6909 19.2779 18.3204 19.0926L17.985 19.7635L17.6496 20.4343ZM2.00391 20.0031H2.75391V8.85082H2.00391H1.25391V20.0031H2.00391ZM2.56466 7.46209L3.10437 7.98286L5.52779 5.47127L4.98807 4.9505L4.44835 4.42973L2.02494 6.94132L2.56466 7.46209ZM4.98807 4.9505H5.73807V3.50635H4.98807H4.23807V4.9505H4.98807ZM6.48807 2.00635V2.75635H14.0394V2.00635V1.25635H6.48807V2.00635ZM15.5391 3.53676L14.7893 3.52155L14.7683 4.55499L15.5181 4.5702L16.268 4.5854L16.2889 3.55196L15.5391 3.53676ZM15.7407 5.21963L15.1577 5.6915L17.4433 8.51511L18.0262 8.04324L18.6092 7.57137L16.3236 4.74776L15.7407 5.21963ZM18.0262 8.04324H17.2762V10.0862H18.0262H18.7762V8.04324H18.0262ZM15.5181 4.5702L14.7683 4.55499C14.7599 4.96791 14.8979 5.37049 15.1577 5.6915L15.7407 5.21963L16.3236 4.74776C16.2865 4.7019 16.2668 4.64439 16.268 4.5854L15.5181 4.5702ZM14.0394 2.00635V2.75635C14.4596 2.75635 14.7978 3.10148 14.7893 3.52155L15.5391 3.53676L16.2889 3.55197C16.3145 2.29173 15.2999 1.25635 14.0394 1.25635V2.00635ZM4.98807 3.50635H5.73807C5.73807 3.09213 6.07386 2.75635 6.48807 2.75635V2.00635V1.25635C5.24543 1.25635 4.23807 2.26371 4.23807 3.50635H4.98807ZM2.00391 8.85082H2.75391C2.75391 8.52703 2.87955 8.21587 3.10437 7.98286L2.56466 7.46209L2.02494 6.94132C1.53032 7.45393 1.25391 8.13848 1.25391 8.85082H2.00391ZM2.00391 20.0031H1.25391C1.25391 21.5219 2.48512 22.7531 4.0039 22.7531V22.0031V21.2531C3.31355 21.2531 2.75391 20.6935 2.75391 20.0031H2.00391ZM7.45046 7.46209L7.99018 6.94131L5.56676 4.42973L5.02704 4.9505L4.48732 5.47127L6.91074 7.98286L7.45046 7.46209ZM10.9724 22.0031V21.2531H8.01121V22.0031V22.7531H10.9724V22.0031ZM8.01121 8.85081H7.26121V22.0031H8.01121H8.76121V8.85081H8.01121ZM8.01121 8.85081H8.76121C8.76121 8.46487 8.68006 8.08707 8.52706 7.74041L7.84091 8.04324L7.15477 8.34607C7.22434 8.5037 7.26121 8.67539 7.26121 8.85081H8.01121ZM7.84091 8.04324L8.52706 7.74041C8.39765 7.44721 8.21681 7.17619 7.99018 6.94131L7.45046 7.46209L6.91074 7.98286C7.01377 8.08964 7.09594 8.21278 7.15477 8.34607L7.84091 8.04324ZM18.0262 8.04324V7.29324H7.84091V8.04324V8.79324H18.0262V8.04324ZM13.2482 18.5796L13.7784 18.0492C13.7782 18.0489 13.7774 18.0482 13.7759 18.0458C13.7743 18.0433 13.771 18.0375 13.7671 18.0269C13.759 18.0049 13.7481 17.962 13.7463 17.8908C13.7427 17.7429 13.7797 17.5211 13.8912 17.2315C14.1133 16.6542 14.5793 15.9414 15.2587 15.2623L14.7284 14.7319L14.1982 14.2015C13.406 14.9935 12.8048 15.8776 12.4912 16.6929C12.3347 17.0996 12.2368 17.523 12.2468 17.928C12.257 18.3383 12.3818 18.774 12.7179 19.11L13.2482 18.5796ZM14.7284 14.7319L15.2587 15.2623C15.938 14.5831 16.651 14.1171 17.2285 13.8951C17.5183 13.7837 17.7402 13.7466 17.8882 13.7502C17.9594 13.752 18.0025 13.7629 18.0245 13.771C18.0352 13.775 18.041 13.7783 18.0435 13.7799C18.0459 13.7814 18.0467 13.7821 18.0469 13.7824L18.5772 13.252L19.1074 12.7216C18.7713 12.3856 18.3357 12.2609 17.9254 12.2507C17.5204 12.2407 17.0969 12.3386 16.6902 12.495C15.8747 12.8085 14.9904 13.4095 14.1982 14.2015L14.7284 14.7319ZM13.2482 18.5796H12.4982C12.4982 19.003 12.6193 19.4873 12.7988 19.9232C12.9799 20.3629 13.2501 20.826 13.606 21.1818L14.1363 20.6514L14.6665 20.121C14.4894 19.9439 14.3155 19.667 14.1858 19.352C14.0545 19.0332 13.9982 18.748 13.9982 18.5796H13.2482ZM14.1363 20.6514L13.606 21.1818C15.6975 23.2727 19.0883 23.2727 21.1798 21.1818L20.6495 20.6514L20.1193 20.121C18.6136 21.6263 16.1722 21.6263 14.6665 20.121L14.1363 20.6514ZM20.6495 20.6514L21.1798 21.1818C23.2713 19.0908 23.2713 15.7005 21.1798 13.6095L20.6495 14.1399L20.1193 14.6703C21.6248 16.1755 21.6248 18.6158 20.1193 20.121L20.6495 20.6514ZM20.6495 14.1399L21.1798 13.6095C20.8239 13.2537 20.3607 12.9836 19.9209 12.8026C19.4849 12.6231 19.0006 12.502 18.5772 12.502V13.252V14.002C18.7458 14.002 19.0311 14.0584 19.35 14.1897C19.6651 14.3194 19.9421 14.4932 20.1193 14.6703L20.6495 14.1399ZM13.2482 18.5796L12.7179 19.11C13.2985 19.6904 14.1405 19.6417 14.7924 19.4524C15.4888 19.2502 16.2431 18.8202 16.9498 18.2432L16.4754 17.6623L16.0011 17.0814C15.4015 17.5709 14.8239 17.8813 14.3741 18.0119C14.1497 18.0771 13.9873 18.0888 13.8845 18.078C13.8354 18.0729 13.8068 18.0634 13.793 18.0574C13.7861 18.0544 13.7824 18.0521 13.7808 18.051C13.7793 18.05 13.7787 18.0495 13.7784 18.0492L13.2482 18.5796ZM18.5772 13.252L18.0469 13.7824C18.0471 13.7826 18.0479 13.7834 18.0494 13.7857C18.0509 13.7882 18.0542 13.794 18.0582 13.8047C18.0663 13.8266 18.0772 13.8696 18.0789 13.9407C18.0826 14.0886 18.0455 14.3104 17.9341 14.6C17.712 15.1774 17.246 15.8901 16.5666 16.5693L17.0969 17.0997L17.6271 17.6301C18.4194 16.8381 19.0205 15.9539 19.3341 15.1386C19.4905 14.7319 19.5885 14.3085 19.5785 13.9036C19.5683 13.4932 19.4435 13.0576 19.1074 12.7216L18.5772 13.252ZM17.0969 17.0997L16.5667 16.5692C16.3806 16.7552 16.1909 16.9263 16.001 17.0814L16.4754 17.6623L16.9498 18.2432C17.1792 18.0559 17.4061 17.851 17.627 17.6302L17.0969 17.0997ZM16.4754 17.6623L15.7342 17.777C15.7927 18.1548 15.8915 18.647 16.1818 19.1362C16.4792 19.6375 16.9439 20.0815 17.6496 20.4343L17.985 19.7635L18.3204 19.0926C17.8419 18.8535 17.6061 18.5971 17.4718 18.3708C17.3304 18.1326 17.2665 17.8702 17.2166 17.5476L16.4754 17.6623ZM8.01121 22.0031V21.2531H4.0039V22.0031V22.7531H8.01121V22.0031Z" fill="#1C1917"/>
</svg>
