<svg width="24" height="24" viewBox="0 0 24 24" fill="none" xmlns="http://www.w3.org/2000/svg">
<path d="M9.27273 5.75C9.68694 5.75 10.0227 5.41421 10.0227 5C10.0227 4.58579 9.68694 4.25 9.27273 4.25V5V5.75ZM8.72727 4.91465L8.95844 4.20116L8.95844 4.20116L8.72727 4.91465ZM14.7273 4.25C14.3131 4.25 13.9773 4.58579 13.9773 5C13.9773 5.41421 14.3131 5.75 14.7273 5.75V5V4.25ZM8.98433 12.2789L9.14614 13.0112H9.14614L8.98433 12.2789ZM11.523 13.6658L10.9695 14.1719L11.523 13.6658ZM10.6984 12.7639L11.252 12.2579H11.252L10.6984 12.7639ZM16.004 14.7055L16.5501 14.1915H16.5501L16.004 14.7055ZM14.4681 14.1499L14.5869 14.8904L14.4681 14.1499ZM13.4245 14.3173L13.3057 13.5768L13.4245 14.3173ZM9.27273 2V2.75H14.7273V2V1.25H9.27273V2ZM7.63636 3.5H8.38636C8.38636 3.14588 8.72044 2.75 9.27273 2.75V2V1.25C8.01754 1.25 6.88636 2.19726 6.88636 3.5H7.63636ZM9.27273 5V4.25C9.16033 4.25 9.05473 4.23236 8.95844 4.20116L8.72727 4.91465L8.49611 5.62813C8.74103 5.70749 9.00261 5.75 9.27273 5.75V5ZM8.72727 4.91465L8.95844 4.20116C8.588 4.08114 8.38636 3.78378 8.38636 3.5H7.63636H6.88636C6.88636 4.52244 7.59543 5.33632 8.49611 5.62813L8.72727 4.91465ZM16.3636 3.5H15.6136C15.6136 3.78751 15.406 4.08974 15.0264 4.20595L15.2459 4.92311L15.4654 5.64027C16.3848 5.35885 17.1136 4.53703 17.1136 3.5H16.3636ZM15.2459 4.92311L15.0264 4.20595C14.9342 4.23415 14.8338 4.25 14.7273 4.25V5V5.75C14.9833 5.75 15.2316 5.71182 15.4654 5.64027L15.2459 4.92311ZM16.3636 3.5H17.1136C17.1136 2.19726 15.9825 1.25 14.7273 1.25V2V2.75C15.2796 2.75 15.6136 3.14588 15.6136 3.5H16.3636ZM18 13.7771H17.25V18H18H18.75V13.7771H18ZM13.6364 22V21.25H10.3636V22V22.75H13.6364V22ZM6 18H6.75V13.7771H6H5.25V18H6ZM10.3636 22V21.25C9.47583 21.25 8.81115 21.2067 8.30683 21.1051C7.80757 21.0046 7.51935 20.8573 7.33479 20.6881C6.96436 20.3486 6.75 19.6789 6.75 18H6H5.25C5.25 19.6304 5.41237 20.9608 6.32121 21.7939C6.77629 22.211 7.35333 22.4432 8.01071 22.5756C8.66304 22.707 9.44635 22.75 10.3636 22.75V22ZM18 18H17.25C17.25 19.6789 17.0356 20.3486 16.6652 20.6881C16.4807 20.8573 16.1924 21.0046 15.6932 21.1051C15.1889 21.2067 14.5242 21.25 13.6364 21.25V22V22.75C14.5536 22.75 15.337 22.707 15.9893 22.5756C16.6467 22.4432 17.2237 22.211 17.6788 21.7939C18.5876 20.9608 18.75 19.6304 18.75 18H18ZM6 13.7771H6.75C6.75 10.5695 7.78215 8.21361 9.38569 5.27379L8.72727 4.91465L8.06885 4.55551C6.43133 7.55763 5.25 10.1852 5.25 13.7771H6ZM15.2459 4.92311L14.5875 5.28225C16.194 8.22762 17.25 10.5728 17.25 13.7771H18H18.75C18.75 10.1819 17.5388 7.56054 15.9043 4.56397L15.2459 4.92311ZM8.98433 12.2789L8.82252 11.5466C8.444 11.6302 7.90949 11.6801 7.41423 11.6521C7.16828 11.6382 6.95196 11.6061 6.78034 11.559C6.60058 11.5097 6.51851 11.4571 6.49388 11.4356L6 12L5.50612 12.5644C5.7672 12.7929 6.08949 12.9249 6.38345 13.0055C6.68555 13.0884 7.0123 13.1317 7.32947 13.1497C7.96044 13.1854 8.63239 13.1248 9.14614 13.0112L8.98433 12.2789ZM11.523 13.6658L12.0765 13.1597L11.252 12.2579L10.6984 12.7639L10.1449 13.27L10.9695 14.1719L11.523 13.6658ZM18 16C18 15.25 18.0006 15.25 18.0012 15.25C18.0014 15.25 18.002 15.25 18.0024 15.25C18.0032 15.25 18.004 15.25 18.0047 15.25C18.0063 15.25 18.0078 15.25 18.0092 15.2501C18.0121 15.2501 18.0148 15.2502 18.0174 15.2502C18.0225 15.2504 18.0268 15.2505 18.0305 15.2507C18.0378 15.2511 18.0423 15.2515 18.044 15.2517C18.0474 15.2521 18.0395 15.2514 18.0207 15.2473C17.9834 15.2391 17.9004 15.2166 17.7762 15.1586C17.5284 15.0429 17.1047 14.7805 16.5501 14.1915L16.004 14.7055L15.4579 15.2196C16.122 15.925 16.6963 16.3099 17.1418 16.5178C17.3642 16.6216 17.5517 16.68 17.6983 16.7123C17.7714 16.7283 17.8337 16.7378 17.8845 16.7432C17.9098 16.7459 17.9322 16.7476 17.9515 16.7486C17.9611 16.7492 17.97 16.7495 17.9781 16.7497C17.9821 16.7498 17.986 16.7499 17.9896 16.7499C17.9915 16.75 17.9932 16.75 17.995 16.75C17.9958 16.75 17.9967 16.75 17.9975 16.75C17.9979 16.75 17.9986 16.75 17.9988 16.75C17.9994 16.75 18 16.75 18 16ZM14.4681 14.1499L14.3493 13.4094L13.3057 13.5768L13.4245 14.3173L13.5433 15.0578L14.5869 14.8904L14.4681 14.1499ZM16.004 14.7055L16.5501 14.1915C16.0126 13.6204 15.2011 13.2727 14.3493 13.4094L14.4681 14.1499L14.5869 14.8904C14.8833 14.8429 15.2139 14.9603 15.4579 15.2196L16.004 14.7055ZM11.523 13.6658L10.9695 14.1719C11.6183 14.8815 12.592 15.2105 13.5433 15.0578L13.4245 14.3173L13.3057 13.5768C12.8407 13.6514 12.3763 13.4876 12.0765 13.1597L11.523 13.6658ZM8.98433 12.2789L9.14614 13.0112C9.55519 12.9209 9.9354 13.0408 10.1449 13.27L10.6984 12.7639L11.252 12.2579C10.6181 11.5646 9.65774 11.362 8.82252 11.5466L8.98433 12.2789Z" fill="#1C1917"/>
</svg>
