<svg width="24" height="24" viewBox="0 0 24 24" fill="none" xmlns="http://www.w3.org/2000/svg">
<path d="M7 5L7.53033 4.46967C7.23744 4.17678 6.76256 4.17678 6.46967 4.46967L7 5ZM5.17157 6.82843L5.7019 7.35876L5.17157 6.82843ZM8.82843 6.82843L8.2981 7.35876L8.82843 6.82843ZM9.84776 8.06306L10.5407 7.77605V7.77605L9.84776 8.06306ZM4.58579 21.4142L5.11612 20.8839H5.11612L4.58579 21.4142ZM4.15224 8.06306L4.84515 8.35007H4.84515L4.15224 8.06306ZM17.9184 5.50519L18.4942 5.02469L18.4942 5.02469L17.9184 5.50519ZM20 8H20.75C20.75 7.82439 20.6884 7.65434 20.5759 7.5195L20 8ZM7.38076 2.38786L7.91076 2.91852V2.91852L7.38076 2.38786ZM17.5388 4.91785L18.2596 4.71061L18.2596 4.7106L17.5388 4.91785ZM17.2487 2.53866L17.8535 2.09508L17.8535 2.09508L17.2487 2.53866ZM19.4142 21.4142L18.8839 20.8839L18.8839 20.8839L19.4142 21.4142ZM12.4869 13.2789L12.6792 14.0039L12.4869 13.2789ZM14.6025 14.6658L15.1991 14.2113L14.6025 14.6658ZM13.9154 13.7639L14.5119 13.3094L13.9154 13.7639ZM18.3367 15.7055L18.9268 15.2426V15.2426L18.3367 15.7055ZM17.0567 15.1499L17.1985 15.8864L17.0567 15.1499ZM16.1871 15.3173L16.0453 14.5808L16.1871 15.3173ZM7 5L6.46967 4.46967L4.64124 6.2981L5.17157 6.82843L5.7019 7.35876L7.53033 5.53033L7 5ZM4 9.65685H3.25V18H4H4.75V9.65685H4ZM7 5L6.46967 5.53033L8.2981 7.35876L8.82843 6.82843L9.35876 6.2981L7.53033 4.46967L7 5ZM10 9.65685H9.25V22H10H10.75V9.65685H10ZM8 22V22.75H10V22V21.25H8V22ZM8.82843 6.82843L8.2981 7.35876C8.91943 7.98009 9.07297 8.15241 9.15485 8.35007L9.84776 8.06306L10.5407 7.77605C10.3181 7.23863 9.89355 6.83289 9.35876 6.2981L8.82843 6.82843ZM10 9.65685H10.75C10.75 8.90055 10.7633 8.31347 10.5407 7.77605L9.84776 8.06306L9.15485 8.35007C9.23672 8.54774 9.25 8.77816 9.25 9.65685H10ZM4 18H3.25C3.25 18.9216 3.24841 19.6883 3.32991 20.2945C3.41432 20.9223 3.59999 21.4891 4.05546 21.9445L4.58579 21.4142L5.11612 20.8839C4.9858 20.7536 4.87858 20.5561 4.81654 20.0946C4.75159 19.6116 4.75 18.964 4.75 18H4ZM8 22V21.25C7.03599 21.25 6.38843 21.2484 5.90539 21.1835C5.44393 21.1214 5.24643 21.0142 5.11612 20.8839L4.58579 21.4142L4.05546 21.9445C4.51093 22.4 5.07773 22.5857 5.70552 22.6701C6.31174 22.7516 7.07839 22.75 8 22.75V22ZM5.17157 6.82843L4.64124 6.2981C4.10645 6.83289 3.68194 7.23863 3.45933 7.77605L4.15224 8.06306L4.84515 8.35007C4.92703 8.15241 5.08057 7.98009 5.7019 7.35876L5.17157 6.82843ZM4 9.65685H4.75C4.75 8.77816 4.76328 8.54774 4.84515 8.35007L4.15224 8.06306L3.45933 7.77605C3.23672 8.31347 3.25 8.90055 3.25 9.65685H4ZM7 5.00379H7.75V4.60429H7H6.25V5.00379H7ZM9.6 2.00758V2.75758H15.1535V2.00758V1.25758H9.6V2.00758ZM17.9184 5.50519L17.3425 5.98568L19.4241 8.4805L20 8L20.5759 7.5195L18.4942 5.02469L17.9184 5.50519ZM7 4.60429H7.75C7.75 3.97101 7.7516 3.5716 7.79089 3.2797C7.82727 3.00948 7.88312 2.94612 7.91076 2.91852L7.38076 2.38786L6.85077 1.85719C6.49764 2.20987 6.36311 2.64268 6.3043 3.07958C6.2484 3.49481 6.25 4.01347 6.25 4.60429H7ZM9.6 2.00758V1.25758C9.00835 1.25758 8.48926 1.25599 8.07373 1.31178C7.63673 1.37046 7.20376 1.50464 6.85077 1.85719L7.38076 2.38786L7.91076 2.91852C7.93852 2.89079 8.00234 2.83483 8.27336 2.79844C8.56585 2.75917 8.966 2.75758 9.6 2.75758V2.00758ZM17.9184 5.50519L18.4942 5.02469C18.4027 4.91503 18.3542 4.86034 18.3087 4.79612C18.2697 4.7412 18.2614 4.71662 18.2596 4.71061L17.5388 4.91785L16.818 5.12509C16.9382 5.54284 17.236 5.85804 17.3425 5.98568L17.9184 5.50519ZM17.2487 2.53866L16.644 2.98224C16.7298 3.09922 16.7677 3.26943 16.751 3.66998C16.7379 3.98533 16.6655 4.59459 16.818 5.12509L17.5388 4.91785L18.2596 4.7106C18.1949 4.48536 18.2282 4.24692 18.2497 3.73255C18.2676 3.30338 18.2692 2.66187 17.8535 2.09508L17.2487 2.53866ZM15.1535 2.00758V2.75758C15.5811 2.75758 15.8777 2.73178 16.1857 2.77457C16.4591 2.81255 16.5756 2.8891 16.644 2.98224L17.2487 2.53866L17.8535 2.09508C17.4496 1.54445 16.8717 1.35546 16.3921 1.28884C15.9472 1.22703 15.4323 1.25758 15.1535 1.25758V2.00758ZM10 8V8.75H20V8V7.25H10V8ZM20 8H19.25V18H20H20.75V8H20ZM16 22V21.25H10V22V22.75H16V22ZM20 18H19.25C19.25 18.964 19.2484 19.6116 19.1835 20.0946C19.1214 20.5561 19.0142 20.7536 18.8839 20.8839L19.4142 21.4142L19.9445 21.9445C20.4 21.4891 20.5857 20.9223 20.6701 20.2945C20.7516 19.6883 20.75 18.9216 20.75 18H20ZM16 22V22.75C16.9216 22.75 17.6883 22.7516 18.2945 22.6701C18.9223 22.5857 19.4891 22.4 19.9445 21.9445L19.4142 21.4142L18.8839 20.8839C18.7536 21.0142 18.5561 21.1214 18.0946 21.1835C17.6116 21.2484 16.964 21.25 16 21.25V22ZM12.4869 13.2789L12.2947 12.554C12.0021 12.6315 11.5815 12.6789 11.194 12.6526C10.763 12.6233 10.5765 12.5178 10.5431 12.4828L10 13L9.4569 13.5172C9.89968 13.9822 10.5849 14.1147 11.0924 14.1492C11.6434 14.1866 12.2282 14.1234 12.6792 14.0039L12.4869 13.2789ZM14.6025 14.6658L15.1991 14.2113L14.5119 13.3094L13.9154 13.7639L13.3188 14.2185L14.0059 15.1203L14.6025 14.6658ZM20 17C20 16.25 20.0007 16.25 20.0015 16.25C20.0017 16.25 20.0024 16.25 20.0029 16.25C20.0039 16.25 20.0048 16.25 20.0057 16.25C20.0076 16.25 20.0095 16.2501 20.0113 16.2501C20.0149 16.2501 20.0184 16.2502 20.0217 16.2503C20.0283 16.2505 20.0344 16.2508 20.0399 16.2512C20.0508 16.2519 20.0594 16.2528 20.0657 16.2536C20.0783 16.2552 20.081 16.2564 20.0744 16.2546C20.0616 16.2512 20.0075 16.2353 19.9157 16.1838C19.7314 16.0806 19.3877 15.8302 18.9268 15.2426L18.3367 15.7055L17.7466 16.1684C18.3012 16.8754 18.7891 17.2721 19.1826 17.4925C19.3797 17.6029 19.5511 17.6679 19.6914 17.7049C19.7614 17.7234 19.8227 17.7347 19.8747 17.7414C19.9006 17.7447 19.9241 17.7469 19.9451 17.7482C19.9556 17.7488 19.9654 17.7493 19.9745 17.7496C19.9791 17.7497 19.9835 17.7498 19.9878 17.7499C19.9899 17.7499 19.992 17.75 19.994 17.75C19.995 17.75 19.996 17.75 19.997 17.75C19.9975 17.75 19.9983 17.75 19.9985 17.75C19.9993 17.75 20 17.75 20 17ZM17.0567 15.1499L16.915 14.4134L16.0453 14.5808L16.1871 15.3173L16.3289 16.0538L17.1985 15.8864L17.0567 15.1499ZM18.3367 15.7055L18.9268 15.2426C18.4765 14.6686 17.7393 14.2548 16.915 14.4134L17.0567 15.1499L17.1985 15.8864C17.3311 15.8609 17.5455 15.9121 17.7466 16.1684L18.3367 15.7055ZM14.6025 14.6658L14.0059 15.1203C14.5554 15.8415 15.4304 16.2268 16.3289 16.0538L16.1871 15.3173L16.0453 14.5808C15.7635 14.6351 15.4402 14.5277 15.1991 14.2113L14.6025 14.6658ZM12.4869 13.2789L12.6792 14.0039C12.9228 13.9393 13.1628 14.0137 13.3188 14.2185L13.9154 13.7639L14.5119 13.3094C13.9652 12.5918 13.088 12.3436 12.2947 12.554L12.4869 13.2789Z" fill="#1C1917"/>
</svg>
