<svg width="24" height="24" viewBox="0 0 24 24" fill="none" xmlns="http://www.w3.org/2000/svg">
<path d="M18.7283 20.301C18.3422 20.451 18.1509 20.8857 18.301 21.2717C18.451 21.6578 18.8857 21.8491 19.2717 21.699L19 21L18.7283 20.301ZM8.03033 5.53033C8.32322 5.23744 8.32322 4.76256 8.03033 4.46967C7.73744 4.17678 7.26256 4.17678 6.96967 4.46967L7.5 5L8.03033 5.53033ZM5.96967 5.46967C5.67678 5.76256 5.67678 6.23744 5.96967 6.53033C6.26256 6.82322 6.73744 6.82322 7.03033 6.53033L6.5 6L5.96967 5.46967ZM11.0303 4.46967C10.7374 4.17678 10.2626 4.17678 9.96967 4.46967C9.67678 4.76256 9.67678 5.23744 9.96967 5.53033L10.5 5L11.0303 4.46967ZM10.9697 6.53033C11.2626 6.82322 11.7374 6.82322 12.0303 6.53033C12.3232 6.23744 12.3232 5.76256 12.0303 5.46967L11.5 6L10.9697 6.53033ZM17.0951 18.6513L16.8438 17.9446L17.0951 18.6513ZM12.9447 18.6526L13.1933 17.9449L12.9447 18.6526ZM22 16.7771H22.75C22.75 14.6771 21.7803 12.5619 20.3727 10.9805C18.9698 9.40443 17.0313 8.25 15 8.25V9V9.75C16.4687 9.75 18.0302 10.605 19.2523 11.9779C20.4697 13.3455 21.25 15.1189 21.25 16.7771H22ZM15 9V8.25C12.9687 8.25 11.0302 9.40443 9.62729 10.9805C8.21966 12.5619 7.25 14.6771 7.25 16.7771H8H8.75C8.75 15.1189 9.53034 13.3455 10.7477 11.9779C11.9698 10.605 13.5313 9.75 15 9.75V9ZM19 21L19.2717 21.699C20.2384 21.3233 21.1155 20.7584 21.7511 19.9325C22.3932 19.0982 22.75 18.0476 22.75 16.7771H22H21.25C21.25 17.7514 20.9825 18.4719 20.5624 19.0176C20.1359 19.5717 19.513 19.9959 18.7283 20.301L19 21ZM8 16.7771H7.25C7.25 18.0476 7.60676 19.0982 8.24887 19.9325C8.88452 20.7584 9.76163 21.3233 10.7283 21.699L11 21L11.2717 20.301C10.487 19.9959 9.86406 19.5717 9.43757 19.0176C9.01754 18.4719 8.75 17.7514 8.75 16.7771H8ZM9.03788 2V1.25C6.98988 1.25 5.04061 2.4419 3.63318 4.06175C2.21975 5.68853 1.25 7.8599 1.25 10.0107H2H2.75C2.75 8.2903 3.53972 6.45634 4.76549 5.04556C5.99727 3.62786 7.56693 2.75 9.03788 2.75V2ZM16 9.00935L16.7418 8.8988C16.4514 6.94988 15.4328 5.05754 14.0644 3.65026C12.7016 2.24879 10.9115 1.25 9.03788 1.25V2V2.75C10.3808 2.75 11.8071 3.48047 12.989 4.69596C14.1652 5.90564 15.0195 7.51799 15.2582 9.11989L16 9.00935ZM2 10.0107H1.25C1.25 12.0638 2.13807 13.5052 3.51207 14.4208C4.84045 15.306 6.5705 15.6683 8.26186 15.7491L8.29768 15L8.33349 14.2509C6.7692 14.1761 5.3504 13.8433 4.34386 13.1726C3.38294 12.5322 2.75 11.5569 2.75 10.0107H2ZM7.5 5L6.96967 4.46967L5.96967 5.46967L6.5 6L7.03033 6.53033L8.03033 5.53033L7.5 5ZM10.5 5L9.96967 5.53033L10.9697 6.53033L11.5 6L12.0303 5.46967L11.0303 4.46967L10.5 5ZM19 16.3077H19.75C19.75 15.0383 19.149 13.7878 18.3024 12.8659C17.4588 11.9472 16.2722 11.25 15 11.25V12V12.75C15.7278 12.75 16.5412 13.1658 17.1976 13.8805C17.851 14.592 18.25 15.4954 18.25 16.3077H19ZM15 12V11.25C13.7278 11.25 12.5412 11.9472 11.6976 12.8659C10.851 13.7878 10.25 15.0383 10.25 16.3077H11H11.75C11.75 15.4954 12.149 14.592 12.8024 13.8805C13.4588 13.1658 14.2722 12.75 15 12.75V12ZM17.0951 18.6513L17.3463 19.358C18.5561 18.9279 19.75 18.005 19.75 16.3077H19H18.25C18.25 17.1072 17.7485 17.623 16.8438 17.9446L17.0951 18.6513ZM16.3021 19.6882H15.5521V20.718H16.3021H17.0521V19.6882H16.3021ZM11 16.3077H10.25C10.25 18.0177 11.4871 18.9354 12.6961 19.3602L12.9447 18.6526L13.1933 17.9449C12.2645 17.6187 11.75 17.0973 11.75 16.3077H11ZM13.7381 20.718H14.4881V19.6882H13.7381H12.9881V20.718H13.7381ZM12.9447 18.6526L12.6961 19.3602C12.9101 19.4353 12.9881 19.5914 12.9881 19.6882H13.7381H14.4881C14.4881 18.8295 13.8808 18.1865 13.1933 17.9449L12.9447 18.6526ZM15.0201 22V21.25C14.7263 21.25 14.4881 21.0118 14.4881 20.718H13.7381H12.9881C12.9881 21.8402 13.8978 22.75 15.0201 22.75V22ZM16.3021 20.718H15.5521C15.5521 21.0118 15.3139 21.25 15.0201 21.25V22V22.75C16.1423 22.75 17.0521 21.8402 17.0521 20.718H16.3021ZM17.0951 18.6513L16.8438 17.9446C16.16 18.1877 15.5521 18.8289 15.5521 19.6882H16.3021H17.0521C17.0521 19.592 17.1298 19.4349 17.3463 19.358L17.0951 18.6513Z" fill="#1C1917"/>
</svg>
