<svg width="24" height="24" viewBox="0 0 24 24" fill="none" xmlns="http://www.w3.org/2000/svg">
<path d="M5.13275 8C4.76992 11.1941 5.07536 15.3242 7 20M14 14C11.2644 15.43 8.37778 17.9044 6 22M8.97628 8.56018C8.73113 10.5535 6.97712 11.9781 5.05857 11.7421C3.14003 11.5062 1.78348 9.69901 2.02862 7.70572C2.25056 5.90113 3.66477 2.59449 7.76802 2C6.93885 4.64584 9.22142 6.56689 8.97628 8.56018ZM15.8463 19.1415C13.5206 20.7199 10.6828 20.0602 9.50786 17.6681C8.33296 15.276 9.26587 12.0573 11.5916 10.4789C13.6971 9.04998 18.3054 7.57247 22 11.6651C18.5378 13.1898 18.172 17.5631 15.8463 19.1415Z" stroke="#1C1917" stroke-width="1.5" stroke-linecap="round" stroke-linejoin="round"/>
</svg>
