<svg width="24" height="24" viewBox="0 0 24 24" fill="none" xmlns="http://www.w3.org/2000/svg">
<path d="M6.75 3C6.75 2.58579 6.41421 2.25 6 2.25C5.58579 2.25 5.25 2.58579 5.25 3H6H6.75ZM5.25 12C5.25 12.4142 5.58579 12.75 6 12.75C6.41421 12.75 6.75 12.4142 6.75 12H6H5.25ZM9.25 2.5C9.25 2.08579 8.91421 1.75 8.5 1.75C8.08579 1.75 7.75 2.08579 7.75 2.5H8.5H9.25ZM7.75 7.5C7.75 7.91421 8.08579 8.25 8.5 8.25C8.91421 8.25 9.25 7.91421 9.25 7.5H8.5H7.75ZM11.75 2C11.75 1.58579 11.4142 1.25 11 1.25C10.5858 1.25 10.25 1.58579 10.25 2H11H11.75ZM10.25 7.5C10.25 7.91421 10.5858 8.25 11 8.25C11.4142 8.25 11.75 7.91421 11.75 7.5H11H10.25ZM3.88422 3.75899C3.47497 3.82294 3.19505 4.20653 3.25899 4.61578C3.32294 5.02503 3.70653 5.30495 4.11578 5.24101L4 4.5L3.88422 3.75899ZM6.11578 4.92851C6.52503 4.86456 6.80495 4.48097 6.74101 4.07172C6.67706 3.66247 6.29347 3.38255 5.88422 3.44649L6 4.1875L6.11578 4.92851ZM13.3842 2.27462C12.975 2.33856 12.695 2.72216 12.759 3.13141C12.8229 3.54066 13.2065 3.82058 13.6158 3.75663L13.5 3.01562L13.3842 2.27462ZM20.1158 2.74101C20.525 2.67706 20.805 2.29347 20.741 1.88422C20.6771 1.47497 20.2935 1.19505 19.8842 1.25899L20 2L20.1158 2.74101ZM13.4532 5.65771C13.0398 5.68355 12.7256 6.03963 12.7515 6.45303C12.7773 6.86644 13.1334 7.18063 13.5468 7.15479L13.5 6.40625L13.4532 5.65771ZM20.0468 6.74854C20.4602 6.7227 20.7744 6.36662 20.7485 5.95322C20.7227 5.53981 20.3666 5.22562 19.9532 5.25146L20 6L20.0468 6.74854ZM3.95322 6.25146C3.53981 6.2773 3.22562 6.63338 3.25146 7.04678C3.2773 7.46019 3.63338 7.77438 4.04678 7.74854L4 7L3.95322 6.25146ZM6.04678 7.62354C6.46019 7.5977 6.77438 7.24162 6.74854 6.82822C6.7227 6.41481 6.36662 6.10062 5.95322 6.12646L6 6.875L6.04678 7.62354ZM20.8787 13.9821L20.1508 13.8015V13.8015L20.8787 13.9821ZM3.12128 13.9821L3.8492 13.8015H3.8492L3.12128 13.9821ZM7.41982 20.9992L6.66982 20.9986L7.41982 20.9992ZM7.66957 19.3859L8.20131 18.857L8.20131 18.857L7.66957 19.3859ZM16.5802 20.9992L15.8302 20.9998V20.9998L16.5802 20.9992ZM16.3304 19.3859L15.7987 18.857L15.7987 18.857L16.3304 19.3859ZM13 12H13.75C13.75 11.0335 14.5335 10.25 15.5 10.25V9.5V8.75C13.7051 8.75 12.25 10.2051 12.25 12H13ZM15.5 9.5V10.25C16.4665 10.25 17.25 11.0335 17.25 12H18H18.75C18.75 10.2051 17.2949 8.75 15.5 8.75V9.5ZM6 3H5.25V12H6H6.75V3H6ZM8.5 2.5H7.75V7.5H8.5H9.25V2.5H8.5ZM11 2H10.25V7.5H11H11.75V2H11ZM4 4.5L4.11578 5.24101L6.11578 4.92851L6 4.1875L5.88422 3.44649L3.88422 3.75899L4 4.5ZM13.5 3.01562L13.6158 3.75663L20.1158 2.74101L20 2L19.8842 1.25899L13.3842 2.27462L13.5 3.01562ZM13.5 6.40625L13.5468 7.15479L20.0468 6.74854L20 6L19.9532 5.25146L13.4532 5.65771L13.5 6.40625ZM4 7L4.04678 7.74854L6.04678 7.62354L6 6.875L5.95322 6.12646L3.95322 6.25146L4 7ZM19.0886 12V11.25H4.91145V12V12.75H19.0886V12ZM9.0146 22V22.75H14.9854V22V21.25H9.0146V22ZM4.91145 12V11.25C4.48996 11.25 4.09061 11.2736 3.73913 11.3504C3.38755 11.4272 3.02439 11.57 2.73774 11.8537C2.12809 12.4571 2.18815 13.3359 2.39337 14.1628L3.12128 13.9821L3.8492 13.8015C3.75862 13.4365 3.74074 13.2035 3.75377 13.0608C3.75986 12.994 3.77182 12.9583 3.77862 12.9424C3.78444 12.9288 3.78885 12.9239 3.79289 12.9199C3.8034 12.9095 3.86259 12.8588 4.05943 12.8158C4.25636 12.7728 4.5315 12.75 4.91145 12.75V12ZM19.0886 12V12.75C19.4685 12.75 19.7436 12.7728 19.9406 12.8158C20.1374 12.8588 20.1966 12.9095 20.2071 12.9199C20.2112 12.9239 20.2156 12.9288 20.2214 12.9424C20.2282 12.9583 20.2401 12.994 20.2462 13.0608C20.2593 13.2035 20.2414 13.4365 20.1508 13.8015L20.8787 13.9821L21.6066 14.1628C21.8118 13.3359 21.8719 12.4571 21.2623 11.8537C20.9756 11.57 20.6124 11.4272 20.2609 11.3504C19.9094 11.2736 19.51 11.25 19.0886 11.25V12ZM7.66957 19.3859L7.13782 19.9148C7.07983 19.8565 7.06024 19.7725 7.06124 19.7323C7.06136 19.7274 7.05903 19.768 7.00908 19.8926C6.98624 19.9495 6.95967 20.0095 6.92676 20.0833C6.89595 20.1524 6.8582 20.2367 6.82394 20.3213C6.76151 20.4756 6.67003 20.7239 6.66982 20.9986L7.41982 20.9992L8.16982 20.9998C8.16979 21.0318 8.16309 21.0108 8.21434 20.8842C8.23691 20.8284 8.26323 20.7694 8.29676 20.6941C8.32819 20.6237 8.36623 20.5383 8.40131 20.4509C8.51176 20.1754 8.78275 19.4416 8.20131 18.857L7.66957 19.3859ZM16.3304 19.3859L15.7987 18.857C15.5306 19.1266 15.4247 19.4545 15.4303 19.7717C15.4352 20.0511 15.5261 20.2992 15.5944 20.4636C15.6307 20.551 15.6702 20.6359 15.7024 20.7053C15.7369 20.7797 15.7636 20.8372 15.7864 20.8917C15.8379 21.0143 15.8302 21.0331 15.8302 20.9998L16.5802 20.9992L17.3302 20.9986C17.33 20.7173 17.2349 20.4668 17.1694 20.3109C17.1338 20.2261 17.0946 20.1421 17.0631 20.0741C17.0292 20.0011 17.0024 19.9429 16.9795 19.8878C16.9294 19.7672 16.9298 19.7331 16.93 19.7453C16.9309 19.7953 16.906 19.8708 16.8622 19.9148L16.3304 19.3859ZM14.9854 22V22.75C15.3301 22.75 15.8752 22.7407 16.3447 22.5388C16.5969 22.4303 16.8569 22.2548 17.0496 21.9733C17.2442 21.689 17.3305 21.3549 17.3302 20.9986L16.5802 20.9992L15.8302 20.9998C15.8302 21.0572 15.8235 21.091 15.8188 21.1077C15.8164 21.116 15.8144 21.1209 15.8134 21.1231C15.8128 21.1243 15.8124 21.125 15.8122 21.1254C15.8121 21.1256 15.812 21.1257 15.812 21.1257C15.812 21.1258 15.8119 21.1258 15.8119 21.1258C15.8119 21.1258 15.812 21.1258 15.812 21.1258C15.812 21.1258 15.812 21.1258 15.812 21.1258C15.812 21.1258 15.8118 21.126 15.8115 21.1263C15.8109 21.1269 15.8091 21.1287 15.8054 21.1316C15.7979 21.1374 15.7817 21.1481 15.7521 21.1608C15.6886 21.1881 15.5902 21.2136 15.448 21.2298C15.308 21.2458 15.1536 21.25 14.9854 21.25V22ZM9.0146 22V21.25C8.84642 21.25 8.69195 21.2458 8.55196 21.2298C8.40981 21.2136 8.31145 21.1881 8.24794 21.1608C8.21831 21.1481 8.20212 21.1374 8.19458 21.1316C8.19089 21.1287 8.18909 21.1269 8.1885 21.1263C8.18818 21.126 8.18804 21.1258 8.18803 21.1258C8.18802 21.1258 8.18802 21.1258 8.18803 21.1258C8.18805 21.1258 8.18805 21.1258 8.18805 21.1258C8.18805 21.1258 8.18803 21.1258 8.18799 21.1257C8.18795 21.1257 8.18788 21.1256 8.18777 21.1254C8.18758 21.125 8.18719 21.1243 8.18664 21.1231C8.18561 21.1209 8.18356 21.116 8.18122 21.1077C8.17655 21.091 8.16977 21.0572 8.16982 20.9998L7.41982 20.9992L6.66982 20.9986C6.66953 21.3549 6.75577 21.689 6.95036 21.9733C7.14312 22.2548 7.40309 22.4303 7.65535 22.5388C8.12483 22.7407 8.66989 22.75 9.0146 22.75V22ZM7.66957 19.3859L8.20131 18.857C7.71026 18.3633 7.21339 17.9505 6.75214 17.5762C6.28218 17.1948 5.86457 16.8652 5.47968 16.5059C4.73873 15.8143 4.15854 15.0479 3.8492 13.8015L3.12128 13.9821L2.39337 14.1628C2.78949 15.7588 3.56069 16.7666 4.45615 17.6025C4.88946 18.0069 5.3613 18.3793 5.80693 18.7409C6.26127 19.1096 6.70613 19.4808 7.13783 19.9148L7.66957 19.3859ZM20.8787 13.9821L20.1508 13.8015C19.8415 15.0479 19.2613 15.8143 18.5203 16.5059C18.1354 16.8652 17.7178 17.1948 17.2479 17.5762C16.7866 17.9505 16.2897 18.3633 15.7987 18.857L16.3304 19.3859L16.8622 19.9148C17.2939 19.4808 17.7387 19.1096 18.1931 18.7409C18.6387 18.3793 19.1105 18.0069 19.5439 17.6025C20.4393 16.7666 21.2105 15.7588 21.6066 14.1628L20.8787 13.9821Z" fill="#1C1917"/>
</svg>
