<svg width="24" height="24" viewBox="0 0 24 24" fill="none" xmlns="http://www.w3.org/2000/svg">
<path d="M9.12229 6.79981C9.51759 6.67609 9.73776 6.25534 9.61404 5.86003C9.49032 5.46473 9.06956 5.24456 8.67426 5.36828L8.89827 6.08405L9.12229 6.79981ZM2.86469 10.6413L3.48909 11.0567C3.50112 11.0387 3.51235 11.0201 3.52277 11.001L2.86469 10.6413ZM2.4842 17.1678L3.21481 16.9984C3.21158 16.9845 3.20795 16.9706 3.20394 16.9569L2.4842 17.1678ZM2.80866 20.1857L2.11456 19.9016L1.43267 21.5675L3.09567 20.8786L2.80866 20.1857ZM17.5434 14.2815C17.6658 13.8857 17.4443 13.4657 17.0485 13.3434C16.6528 13.221 16.2328 13.4425 16.1104 13.8383L16.8269 14.0599L17.5434 14.2815ZM12.2967 20.1293L11.9336 19.4731C11.9145 19.4836 11.8959 19.495 11.8778 19.5072L12.2967 20.1293ZM5.80867 20.5121L6.0219 19.793C6.00806 19.7889 5.9941 19.7852 5.98005 19.7819L5.80867 20.5121ZM15.8069 4.08809L16.1614 3.42719L15.8069 4.08809ZM18.7982 7.08753L18.1365 7.44048L18.7982 7.08753ZM9.36154 3.73607L9.96984 4.17478L9.36154 3.73607ZM9.84309 3.37014L10.13 4.06311L9.84309 3.37014ZM13.1579 11.0256L13.6379 10.4493L13.1579 11.0256ZM11.8974 9.75454L12.4773 9.27893L11.8974 9.75454ZM19.2567 13.6259L19.7054 14.2269L19.2567 13.6259ZM19.5786 13.2145L18.8974 12.9008L19.5786 13.2145ZM21.5764 5.53045C21.9171 5.76603 22.3842 5.68081 22.6198 5.34011C22.8554 4.9994 22.7702 4.53224 22.4295 4.29667L22.0029 4.91356L21.5764 5.53045ZM17.2374 4.75896C16.9121 5.01546 16.8564 5.48705 17.1129 5.81229C17.3694 6.13753 17.841 6.19326 18.1662 5.93677L17.7018 5.34786L17.2374 4.75896ZM8.89827 6.08405L8.67426 5.36828C7.45942 5.74849 6.15325 6.42432 5.0056 7.26659C3.86273 8.10536 2.82758 9.14561 2.20661 10.2815L2.86469 10.6413L3.52277 11.001C4.00395 10.1208 4.85835 9.23529 5.8931 8.47587C6.92308 7.71995 8.08262 7.1252 9.12229 6.79981L8.89827 6.08405ZM2.86469 10.6413L2.24029 10.2258C1.4746 11.3765 0.715188 13.7982 1.76447 17.3788L2.4842 17.1678L3.20394 16.9569C2.26493 13.7527 2.99582 11.798 3.48909 11.0567L2.86469 10.6413ZM2.4842 17.1678L1.7536 17.3373C1.84315 17.7234 1.97321 18.3203 2.05432 18.8787C2.09501 19.1588 2.12092 19.413 2.12587 19.6176C2.13152 19.8508 2.10615 19.9221 2.11456 19.9016L2.80866 20.1857L3.50276 20.4698C3.62033 20.1826 3.63173 19.8414 3.62543 19.5813C3.61845 19.2926 3.58371 18.9727 3.53874 18.6631C3.44852 18.042 3.3072 17.3967 3.21481 16.9984L2.4842 17.1678ZM16.8269 14.0599L16.1104 13.8383C15.7866 14.8854 15.1948 16.0526 14.4432 17.089C13.6879 18.1304 12.8076 18.9896 11.9336 19.4731L12.2967 20.1293L12.6597 20.7856C13.7899 20.1604 14.824 19.1188 15.6574 17.9696C16.4945 16.8155 17.1659 15.5023 17.5434 14.2815L16.8269 14.0599ZM12.2967 20.1293L11.8778 19.5072C11.1429 20.002 9.20371 20.7366 6.0219 19.793L5.80867 20.5121L5.59544 21.2311C9.15833 22.2877 11.5696 21.5231 12.7156 20.7515L12.2967 20.1293ZM5.80867 20.5121L5.98005 19.7819C5.58399 19.689 4.94213 19.5467 4.32416 19.4559C4.01614 19.4106 3.69757 19.3756 3.40981 19.3685C3.15083 19.3622 2.80944 19.3736 2.52164 19.4928L2.80866 20.1857L3.09567 20.8786C3.07299 20.888 3.14169 20.8624 3.37308 20.8681C3.5757 20.873 3.82779 20.899 4.10603 20.9399C4.66057 21.0214 5.2536 21.1522 5.63728 21.2422L5.80867 20.5121ZM19.2567 13.6259L18.8081 13.0248C18.5079 13.2489 18.0119 13.3104 17.0594 12.8557C16.1261 12.4101 14.9866 11.5726 13.6379 10.4493L13.1579 11.0256L12.678 11.6019C14.0336 12.7309 15.2966 13.6763 16.4132 14.2093C17.5105 14.7331 18.7118 14.9686 19.7054 14.2269L19.2567 13.6259ZM11.8974 9.75454L12.4773 9.27893C11.3357 7.88696 10.5247 6.76806 10.1039 5.86641C9.68219 4.96266 9.74388 4.4881 9.96984 4.17478L9.36154 3.73607L8.75323 3.29736C8.05026 4.2721 8.23741 5.41375 8.74463 6.50071C9.25283 7.58976 10.1742 8.83606 11.3175 10.2301L11.8974 9.75454ZM9.84309 3.37014L10.13 4.06311C11.0815 3.66919 12.98 3.42267 15.4523 4.74899L15.8069 4.08809L16.1614 3.42719C13.3143 1.89978 10.9455 2.10207 9.55622 2.67717L9.84309 3.37014ZM18.7982 7.08753L18.1365 7.44048C19.3727 9.7583 19.4064 11.7953 18.8974 12.9008L19.5786 13.2145L20.2599 13.5282C21.0313 11.8526 20.8299 9.30298 19.46 6.73458L18.7982 7.08753ZM15.8069 4.08809L15.4523 4.74899C16.5872 5.35781 17.5283 6.3002 18.1365 7.44048L18.7982 7.08753L19.46 6.73458C18.7123 5.33276 17.5574 4.17608 16.1614 3.42719L15.8069 4.08809ZM9.36154 3.73607L9.96984 4.17478C9.99183 4.14429 10.04 4.10036 10.13 4.06311L9.84309 3.37014L9.55622 2.67717C9.26755 2.79668 8.97166 2.99449 8.75323 3.29736L9.36154 3.73607ZM13.1579 11.0256L13.6379 10.4493C13.216 10.0979 12.8267 9.70487 12.4773 9.27893L11.8974 9.75454L11.3175 10.2301C11.7262 10.7285 12.1823 11.1891 12.678 11.6019L13.1579 11.0256ZM19.2567 13.6259L19.7054 14.2269C19.9662 14.0322 20.1447 13.7785 20.2599 13.5282L19.5786 13.2145L18.8974 12.9008C18.8648 12.9717 18.8299 13.0086 18.8081 13.0248L19.2567 13.6259ZM22.0029 4.91356L22.4295 4.29667C21.5717 3.70356 19.409 3.04634 17.2374 4.75896L17.7018 5.34786L18.1662 5.93677C19.715 4.71532 21.1411 5.22948 21.5764 5.53045L22.0029 4.91356Z" fill="#1C1917"/>
</svg>
