<svg width="24" height="24" viewBox="0 0 24 24" fill="none" xmlns="http://www.w3.org/2000/svg">
<path d="M20.7578 10.1693L20.0329 10.3618C20.1202 10.6905 20.4177 10.9193 20.7578 10.9193V10.1693ZM3.24224 10.1693V10.9193C3.58229 10.9193 3.87979 10.6905 3.9671 10.3618L3.24224 10.1693ZM6 12.5287L6.72648 12.3423C6.64139 12.0106 6.34244 11.7787 6 11.7787C5.65756 11.7787 5.35861 12.0106 5.27352 12.3423L6 12.5287ZM10 12.5287L10.7265 12.3423C10.6414 12.0106 10.3424 11.7787 10 11.7787C9.65756 11.7787 9.35861 12.0106 9.27352 12.3423L10 12.5287ZM14 12.5287L14.7265 12.3423C14.6414 12.0106 14.3424 11.7787 14 11.7787C13.6576 11.7787 13.3586 12.0106 13.2735 12.3423L14 12.5287ZM18 12.5287L18.7265 12.3423C18.6414 12.0106 18.3424 11.7787 18 11.7787C17.6576 11.7787 17.3586 12.0106 17.2735 12.3423L18 12.5287ZM15.6708 7.16459C15.4856 6.79411 15.0351 6.64394 14.6646 6.82918C14.2941 7.01442 14.1439 7.46493 14.3292 7.83541L15 7.5L15.6708 7.16459ZM14.8292 8.83541C15.0144 9.20589 15.4649 9.35606 15.8354 9.17082C16.2059 8.98558 16.3561 8.53507 16.1708 8.16459L15.5 8.5L14.8292 8.83541ZM9.67082 7.83541C9.85606 7.46493 9.70589 7.01442 9.33541 6.82918C8.96493 6.64394 8.51442 6.79411 8.32918 7.16459L9 7.5L9.67082 7.83541ZM7.82918 8.16459C7.64394 8.53507 7.79411 8.98558 8.16459 9.17082C8.53507 9.35606 8.98558 9.20589 9.17082 8.83541L8.5 8.5L7.82918 8.16459ZM12.75 7C12.75 6.58579 12.4142 6.25 12 6.25C11.5858 6.25 11.25 6.58579 11.25 7H12H12.75ZM11.25 8C11.25 8.41421 11.5858 8.75 12 8.75C12.4142 8.75 12.75 8.41421 12.75 8H12H11.25ZM4.19231 13.7115C4.03299 13.3292 3.59389 13.1484 3.21154 13.3077C2.82919 13.467 2.64838 13.9061 2.80769 14.2885L3.5 14L4.19231 13.7115ZM3.94872 15.0769L3.25641 15.3654L3.94872 15.0769ZM20.0513 15.0769L20.7436 15.3654V15.3654L20.0513 15.0769ZM21.1923 14.2885C21.3516 13.9061 21.1708 13.467 20.7885 13.3077C20.4061 13.1484 19.967 13.3292 19.8077 13.7115L20.5 14L21.1923 14.2885ZM17.5521 19.3282L17.9682 19.9522L17.5521 19.3282ZM6.44787 19.3282L6.86389 18.7042L6.44787 19.3282ZM22 12.027H22.75C22.75 11.4756 22.5901 10.8759 22.2987 10.3948C22.0164 9.9288 21.5045 9.41927 20.7578 9.41927V10.1693V10.9193C20.7624 10.9193 20.7829 10.9187 20.8276 10.9508C20.8776 10.9867 20.9456 11.0562 21.0157 11.172C21.1599 11.4099 21.25 11.7391 21.25 12.027H22ZM20.7578 10.1693L21.4826 9.9767C20.4443 6.0685 16.548 3.25 12 3.25V4V4.75C15.9591 4.75 19.1916 7.19512 20.0329 10.3618L20.7578 10.1693ZM3.24224 10.1693V9.41927C2.49546 9.41927 1.98359 9.9288 1.70129 10.3948C1.40987 10.8759 1.25 11.4756 1.25 12.027H2H2.75C2.75 11.7391 2.84013 11.4099 2.98427 11.172C3.05439 11.0562 3.12241 10.9867 3.17243 10.9508C3.21712 10.9187 3.23756 10.9193 3.24224 10.9193V10.1693ZM12 4V3.25C7.45195 3.25 3.55565 6.0685 2.51738 9.9767L3.24224 10.1693L3.9671 10.3618C4.80838 7.19512 8.04086 4.75 12 4.75V4ZM6 12.5287L5.27352 12.715C5.62862 14.0993 6.86346 14.75 8 14.75C9.13654 14.75 10.3714 14.0993 10.7265 12.715L10 12.5287L9.27352 12.3423C9.12539 12.9198 8.61184 13.25 8 13.25C7.38816 13.25 6.87461 12.9198 6.72648 12.3423L6 12.5287ZM10 12.5287L9.27352 12.715C9.62862 14.0993 10.8635 14.75 12 14.75C13.1365 14.75 14.3714 14.0993 14.7265 12.715L14 12.5287L13.2735 12.3423C13.1254 12.9198 12.6118 13.25 12 13.25C11.3882 13.25 10.8746 12.9198 10.7265 12.3423L10 12.5287ZM14 12.5287L13.2735 12.715C13.6286 14.0993 14.8635 14.75 16 14.75C17.1365 14.75 18.3714 14.0993 18.7265 12.715L18 12.5287L17.2735 12.3423C17.1254 12.9198 16.6118 13.25 16 13.25C15.3882 13.25 14.8746 12.9198 14.7265 12.3423L14 12.5287ZM18 12.5287L17.2735 12.715C17.6711 14.2648 19.0902 14.863 20.302 14.7168C21.5192 14.5701 22.75 13.6459 22.75 12.027H22H21.25C21.25 12.7207 20.7637 13.1503 20.1224 13.2276C19.4756 13.3056 18.8947 12.9983 18.7265 12.3423L18 12.5287ZM2 12.027H1.25C1.25 13.6459 2.48077 14.5701 3.69802 14.7168C4.90977 14.863 6.32892 14.2648 6.72648 12.715L6 12.5287L5.27352 12.3423C5.10525 12.9983 4.5244 13.3056 3.87761 13.2276C3.23631 13.1503 2.75 12.7207 2.75 12.027H2ZM15 7.5L14.3292 7.83541L14.8292 8.83541L15.5 8.5L16.1708 8.16459L15.6708 7.16459L15 7.5ZM9 7.5L8.32918 7.16459L7.82918 8.16459L8.5 8.5L9.17082 8.83541L9.67082 7.83541L9 7.5ZM12 7H11.25V8H12H12.75V7H12ZM3.5 14L2.80769 14.2885L3.25641 15.3654L3.94872 15.0769L4.64103 14.7885L4.19231 13.7115L3.5 14ZM11.3333 20V20.75H12.6667V20V19.25H11.3333V20ZM20.0513 15.0769L20.7436 15.3654L21.1923 14.2885L20.5 14L19.8077 13.7115L19.359 14.7885L20.0513 15.0769ZM12.6667 20V20.75C13.9429 20.75 14.9599 20.751 15.782 20.6616C16.6224 20.5703 17.3282 20.3789 17.9682 19.9522L17.5521 19.3282L17.1361 18.7042C16.7683 18.9493 16.3241 19.0938 15.6199 19.1704C14.8975 19.249 13.9756 19.25 12.6667 19.25V20ZM20.0513 15.0769L19.359 14.7885C18.8555 15.9967 18.5 16.8473 18.1497 17.4839C17.8081 18.1045 17.5039 18.459 17.1361 18.7042L17.5521 19.3282L17.9682 19.9522C18.6081 19.5256 19.0562 18.9477 19.4638 18.2071C19.8625 17.4826 20.2527 16.5435 20.7436 15.3654L20.0513 15.0769ZM3.94872 15.0769L3.25641 15.3654C3.74729 16.5435 4.13749 17.4826 4.5362 18.2071C4.94376 18.9477 5.39192 19.5256 6.03184 19.9522L6.44787 19.3282L6.86389 18.7042C6.49612 18.459 6.19185 18.1045 5.85033 17.4839C5.49997 16.8473 5.14445 15.9967 4.64103 14.7885L3.94872 15.0769ZM11.3333 20V19.25C10.0244 19.25 9.10253 19.249 8.38012 19.1704C7.67594 19.0938 7.23167 18.9493 6.86389 18.7042L6.44787 19.3282L6.03184 19.9522C6.67176 20.3789 7.37763 20.5703 8.21797 20.6616C9.04007 20.751 10.0571 20.75 11.3333 20.75V20Z" fill="#1C1917"/>
</svg>
