<svg width="24" height="24" viewBox="0 0 24 24" fill="none" xmlns="http://www.w3.org/2000/svg">
<path d="M7.5 5C7.5 5 8.03795 5.1182 8.90014 5.38146C11.6322 6.21565 14.0691 7.83278 16 10.0001M13.009 11H13M6.28358 7.95361C7.35944 8.24857 8.04421 9.23191 8.04421 10.4269C8.04421 12.0941 6.42426 13.3683 4.82422 12.9138M8.2242 18.7486C7.67201 17.7793 7.82277 16.5081 8.66776 15.6631C9.6765 14.6544 11.2926 14.635 12.2775 15.6199C12.4429 15.7853 12.58 15.9685 12.6888 16.1637M12.925 16.9934C12.6288 15.8483 11.6602 15.0088 10.511 15.0088C9.12638 15.0088 8.0039 16.2276 8.0039 17.7311C8.0039 18.5277 8.31898 19.2444 8.82119 19.7422M10.2201 18.821L18.6793 13.1312C20.1246 12.159 20.8472 11.673 20.9785 10.7879C21.1098 9.90283 20.6352 9.30806 19.686 8.11852C17.5076 5.3886 14.548 3.35345 11.1624 2.38141C9.87428 2.01158 9.23023 1.82667 8.53978 2.2186C7.84933 2.61053 7.62404 3.37564 7.17348 4.90586L4.40648 14.3032C3.11201 18.6995 2.46477 20.8977 3.54764 21.7392C4.63051 22.5807 6.49371 21.3275 10.2201 18.821Z" stroke="#1C1917" stroke-width="1.5" stroke-linecap="round"/>
</svg>
