<svg width="24" height="24" viewBox="0 0 24 24" fill="none" xmlns="http://www.w3.org/2000/svg">
<path d="M17.4258 2.87898L17.187 3.58995V3.58995L17.4258 2.87898ZM19.3218 7.28799L20.0189 7.56463L19.3218 7.28799ZM15.994 15.674L15.2968 15.3974H15.2968L15.994 15.674ZM6.57421 2.87898L6.81299 3.58995L6.57421 2.87898ZM8.00604 15.674L8.70315 15.3974L8.00604 15.674ZM4.67819 7.28799L5.37531 7.01135L4.67819 7.28799ZM4.16572 4.30884L3.49502 3.9732L3.49502 3.9732L4.16572 4.30884ZM19.8343 4.30884L20.505 3.9732V3.97319L19.8343 4.30884ZM13.5189 5.30223L13.785 6.00345L13.5189 5.30223ZM18.181 6.97194L17.5207 7.32765V7.32765L18.181 6.97194ZM10.7173 5.2764L10.4382 5.97253L10.7173 5.2764ZM6.02234 6.85986L5.36923 6.49115L6.02234 6.85986ZM18.5117 8.55515C18.8261 8.82482 19.2996 8.78855 19.5693 8.47414C19.839 8.15973 19.8027 7.68625 19.4883 7.41658L19 7.98586L18.5117 8.55515ZM4.56002 7.39262C4.22457 7.63561 4.14962 8.10454 4.39262 8.43998C4.63561 8.77543 5.10454 8.85038 5.43998 8.60738L5 8L4.56002 7.39262ZM5.64566 9.66749C5.28059 9.86319 5.14329 10.3178 5.33899 10.6828C5.53468 11.0479 5.98928 11.1852 6.35434 10.9895L6 10.3285L5.64566 9.66749ZM7.7067 14.2627C7.29948 14.3385 7.03083 14.7301 7.10665 15.1373C7.18247 15.5445 7.57405 15.8131 7.98126 15.7373L7.84398 15L7.7067 14.2627ZM14.0078 9.75C14.422 9.75 14.7578 9.41421 14.7578 9C14.7578 8.58579 14.422 8.25 14.0078 8.25V9V9.75ZM13.9988 8.25C13.5846 8.25 13.2488 8.58579 13.2488 9C13.2488 9.41421 13.5846 9.75 13.9988 9.75V9V8.25ZM14 14.75C14.4142 14.75 14.75 14.4142 14.75 14C14.75 13.5858 14.4142 13.25 14 13.25V14V14.75ZM12.25 15C12.25 15.4142 12.5858 15.75 13 15.75C13.4142 15.75 13.75 15.4142 13.75 15H13H12.25ZM12 2V2.75C13.8233 2.75 15.5697 3.04677 17.187 3.58995L17.4258 2.87898L17.6646 2.168C15.8943 1.57345 13.9866 1.25 12 1.25V2ZM19.3218 7.28799L18.6247 7.01136L15.2968 15.3974L15.994 15.674L16.6911 15.9506L20.0189 7.56463L19.3218 7.28799ZM6.57421 2.87898L6.81299 3.58995C8.43034 3.04677 10.1767 2.75 12 2.75V2V1.25C10.0134 1.25 8.10574 1.57345 6.33543 2.168L6.57421 2.87898ZM8.00604 15.674L8.70315 15.3974L5.37531 7.01135L4.67819 7.28799L3.98108 7.56463L7.30892 15.9506L8.00604 15.674ZM6.57421 2.87898L6.33543 2.168C5.68063 2.38792 5.10111 2.57996 4.64648 2.8241C4.15207 3.08961 3.7639 3.4359 3.49502 3.9732L4.16572 4.30884L4.83643 4.64449C4.94109 4.43535 5.07885 4.29452 5.35615 4.1456C5.67321 3.97534 6.11116 3.82566 6.81299 3.58995L6.57421 2.87898ZM4.67819 7.28799L5.37531 7.01135C5.07064 6.24361 4.87815 5.7521 4.79332 5.36113C4.71748 5.01154 4.7468 4.82358 4.83643 4.64449L4.16572 4.30884L3.49502 3.9732C3.2111 4.54053 3.20132 5.09791 3.32743 5.67917C3.44456 6.21905 3.69507 6.8439 3.98108 7.56463L4.67819 7.28799ZM15.994 15.674L15.2968 15.3974C14.4506 17.5298 13.8455 19.0495 13.2749 20.0458C12.6901 21.0668 12.3028 21.25 12 21.25V22V22.75C13.1808 22.75 13.9537 21.8789 14.5766 20.7912C15.2136 19.6789 15.8637 18.0356 16.6911 15.9506L15.994 15.674ZM8.00604 15.674L7.30892 15.9506C8.13628 18.0356 8.78636 19.6789 9.42344 20.7912C10.0463 21.8789 10.8192 22.75 12 22.75V22V21.25C11.6972 21.25 11.3099 21.0668 10.7251 20.0458C10.1545 19.0495 9.54936 17.5298 8.70315 15.3974L8.00604 15.674ZM17.4258 2.87898L17.187 3.58995C17.8888 3.82566 18.3268 3.97534 18.6439 4.14561C18.9211 4.29452 19.0589 4.43535 19.1636 4.64449L19.8343 4.30884L20.505 3.97319C20.2361 3.4359 19.8479 3.08961 19.3535 2.8241C18.8989 2.57996 18.3194 2.38792 17.6646 2.168L17.4258 2.87898ZM19.3218 7.28799L20.0189 7.56463C20.3049 6.8439 20.5554 6.21905 20.6726 5.67917C20.7987 5.09791 20.7889 4.54053 20.505 3.9732L19.8343 4.30884L19.1636 4.64449C19.2532 4.82358 19.2825 5.01154 19.2067 5.36113C19.1219 5.7521 18.9294 6.24361 18.6247 7.01136L19.3218 7.28799ZM13.5189 5.30223L13.785 6.00345C15.2219 5.45822 16.8347 6.05433 17.5207 7.32765L18.181 6.97194L18.8412 6.61624C17.7821 4.65011 15.3605 3.8013 13.2528 4.60101L13.5189 5.30223ZM10.7173 5.2764L10.4382 5.97253C11.5073 6.40118 12.7077 6.41218 13.785 6.00345L13.5189 5.30223L13.2528 4.60101C12.5272 4.87632 11.716 4.86878 10.9964 4.58027L10.7173 5.2764ZM10.7173 5.2764L10.9964 4.58027C8.90463 3.74159 6.46726 4.54615 5.36923 6.49115L6.02234 6.85986L6.67546 7.22856C7.38771 5.9669 9.01317 5.40118 10.4382 5.97253L10.7173 5.2764ZM18.181 6.97194L17.5207 7.32765C17.7737 7.79727 18.1113 8.21174 18.5117 8.55515L19 7.98586L19.4883 7.41658C19.2242 7.19009 19.0046 6.91939 18.8412 6.61624L18.181 6.97194ZM5 8L5.43998 8.60738C5.94317 8.24288 6.367 7.77495 6.67546 7.22856L6.02234 6.85986L5.36923 6.49115C5.16993 6.84418 4.89355 7.15101 4.56002 7.39262L5 8ZM7.32204 10V10.75C8.42929 10.75 9.25 11.5855 9.25 12.524H10H10.75C10.75 10.6746 9.17278 9.25 7.32204 9.25V10ZM6 10.3285L6.35434 10.9895C6.63667 10.8382 6.96631 10.75 7.32204 10.75V10V9.25C6.71618 9.25 6.14341 9.40066 5.64566 9.66749L6 10.3285ZM10 12.524H9.25C9.25 13.3511 8.61852 14.0929 7.7067 14.2627L7.84398 15L7.98126 15.7373C9.52773 15.4494 10.75 14.148 10.75 12.524H10ZM14.0078 9V8.25H13.9988V9V9.75H14.0078V9ZM14 14V13.25C13.5061 13.25 13.0749 13.4894 12.7822 13.7822C12.4894 14.0749 12.25 14.5061 12.25 15H13H13.75C13.75 14.9939 13.7606 14.9251 13.8428 14.8428C13.9251 14.7606 13.9939 14.75 14 14.75V14Z" fill="#1C1917"/>
</svg>
