<svg width="24" height="24" viewBox="0 0 24 24" fill="none" xmlns="http://www.w3.org/2000/svg">
<path d="M6.03879 17.0164L5.30427 17.168L6.03879 17.0164ZM7.56024 21.0308L7.09363 21.618L7.09366 21.618L7.56024 21.0308ZM16.4415 21.0308L16.9081 21.618L16.9081 21.6179L16.4415 21.0308ZM17.963 17.0164L18.6975 17.168L18.6975 17.168L17.963 17.0164ZM12.0238 3.0286L11.5139 3.57856C11.8015 3.84528 12.2461 3.84528 12.5338 3.57856L12.0238 3.0286ZM11.0933 2.31241L11.4085 1.63186V1.63186L11.0933 2.31241ZM6.51616 3.66391L7.16343 4.04278V4.04278L6.51616 3.66391ZM6.00752 6.03192V6.78192C6.21626 6.78192 6.41556 6.69493 6.55749 6.54186C6.69941 6.38879 6.77113 6.1835 6.75538 5.97535L6.00752 6.03192ZM3.00273 8.83829L3.75231 8.86336L3.00273 8.83829ZM4.59218 11.7758L4.93203 11.1072H4.93203L4.59218 11.7758ZM5.80688 12.0134V12.7634H5.80688L5.80688 12.0134ZM12.9057 2.31238L12.5905 1.63183V1.63183L12.9057 2.31238ZM17.4829 3.66388L16.8356 4.04275V4.04275L17.4829 3.66388ZM18.0476 5.98847L17.2997 5.93189C17.284 6.14004 17.3557 6.34534 17.4976 6.4984C17.6395 6.65147 17.8388 6.73847 18.0476 6.73847V5.98847ZM20.9963 8.83826L21.7459 8.81319V8.81319L20.9963 8.83826ZM19.4068 11.7757L19.7467 12.4443V12.4443L19.4068 11.7757ZM18.1921 12.0134V11.2634H18.1921L18.1921 12.0134ZM5.00391 12.001L4.26938 12.1525L5.30427 17.168L6.03879 17.0164L6.77332 16.8649L5.73843 11.8494L5.00391 12.001ZM6.03879 17.0164L5.30427 17.168C5.53115 18.2676 5.71409 19.161 5.95193 19.8577C6.19706 20.5758 6.526 21.1669 7.09363 21.618L7.56024 21.0308L8.02686 20.4436C7.7654 20.2358 7.56441 19.9383 7.37149 19.3731C7.17126 18.7866 7.00801 18.0023 6.77332 16.8649L6.03879 17.0164ZM7.56024 21.0308L7.09366 21.618C7.63054 22.0446 8.42787 22.3078 9.24318 22.4712C10.0839 22.6396 11.047 22.7212 11.9988 22.7215C12.9505 22.7218 13.914 22.6406 14.7555 22.4723C15.5717 22.3091 16.37 22.0456 16.9081 21.618L16.4415 21.0308L15.9749 20.4436C15.7225 20.6441 15.2123 20.8512 14.4613 21.0014C13.7356 21.1466 12.8731 21.2217 11.9992 21.2215C11.1253 21.2213 10.263 21.1457 9.53781 21.0004C8.78717 20.85 8.27797 20.6431 8.02682 20.4436L7.56024 21.0308ZM16.4415 21.0308L16.9081 21.6179C17.4757 21.1669 17.8047 20.5758 18.0498 19.8577C18.2876 19.161 18.4706 18.2676 18.6975 17.168L17.963 17.0164L17.2284 16.8649C16.9937 18.0023 16.8305 18.7866 16.6302 19.3731C16.4373 19.9383 16.2363 20.2358 15.9749 20.4436L16.4415 21.0308ZM17.963 17.0164L18.6975 17.168L19.7323 12.1525L18.9978 12.001L18.2633 11.8494L17.2284 16.8649L17.963 17.0164ZM15.0039 12.0146L14.2576 11.9399L13.2576 21.9242L14.0039 21.9989L14.7502 22.0737L15.7502 12.0894L15.0039 12.0146ZM12.0238 3.0286L12.5338 2.47864C12.3913 2.34653 11.9423 1.87908 11.4085 1.63186L11.0933 2.31241L10.7781 2.99296C10.8912 3.04532 11.0175 3.13288 11.1521 3.24615C11.293 3.3647 11.3914 3.46502 11.5139 3.57856L12.0238 3.0286ZM6.51616 3.66391L5.86889 3.28504C5.43456 4.02706 5.18175 5.05864 5.25965 6.0885L6.00752 6.03192L6.75538 5.97535C6.69953 5.23706 6.88928 4.51114 7.16343 4.04278L6.51616 3.66391ZM6.00752 6.03192V5.28192C5.24478 5.28192 4.34644 5.54757 3.61676 6.11274C2.86649 6.69386 2.29387 7.59572 2.25315 8.81322L3.00273 8.83829L3.75231 8.86336C3.77665 8.13574 4.10176 7.63441 4.53528 7.29863C4.98939 6.9469 5.56091 6.78192 6.00752 6.78192V6.03192ZM3.00273 8.83829L2.25315 8.81322C2.21901 9.83408 2.46516 10.6318 2.87277 11.2423C3.27539 11.8453 3.80165 12.2153 4.25232 12.4444L4.59218 11.7758L4.93203 11.1072C4.6391 10.9583 4.34118 10.7402 4.12026 10.4093C3.90432 10.0859 3.72755 9.6039 3.75231 8.86336L3.00273 8.83829ZM4.59218 11.7758L4.25232 12.4444C4.77998 12.7126 5.34309 12.7634 5.80688 12.7634V12.0134V11.2634C5.43424 11.2634 5.14961 11.2178 4.93203 11.1072L4.59218 11.7758ZM11.0933 2.31241L11.4085 1.63186C9.51455 0.754678 6.95273 1.4334 5.86889 3.28504L6.51616 3.66391L7.16343 4.04278C7.82654 2.90992 9.52959 2.41471 10.7781 2.99296L11.0933 2.31241ZM12.0238 3.0286L12.5338 3.57856C12.5968 3.52011 12.6666 3.44871 12.7196 3.3953C12.7788 3.33569 12.8348 3.28013 12.8935 3.22663C13.0132 3.11751 13.1206 3.0394 13.2209 2.99293L12.9057 2.31238L12.5905 1.63183C12.0501 1.8821 11.6035 2.39551 11.5139 2.47864L12.0238 3.0286ZM17.4829 3.66388L16.8356 4.04275C17.1314 4.54819 17.3526 5.23283 17.2997 5.93189L18.0476 5.98847L18.7954 6.04504C18.8763 4.97596 18.5428 3.98995 18.1301 3.28501L17.4829 3.66388ZM18.0476 5.98847V6.73847C18.9782 6.73847 20.199 7.4373 20.2467 8.86333L20.9963 8.83826L21.7459 8.81319C21.6635 6.34897 19.5357 5.23847 18.0476 5.23847V5.98847ZM20.9963 8.83826L20.2467 8.86333C20.2715 9.60387 20.0947 10.0859 19.8788 10.4093C19.6578 10.7402 19.3599 10.9583 19.067 11.1072L19.4068 11.7757L19.7467 12.4443C20.1974 12.2152 20.7236 11.8453 21.1263 11.2422C21.5339 10.6318 21.78 9.83405 21.7459 8.81319L20.9963 8.83826ZM19.4068 11.7757L19.067 11.1072C18.8494 11.2178 18.5648 11.2634 18.1921 11.2634V12.0134V12.7634C18.6559 12.7634 19.219 12.7125 19.7467 12.4443L19.4068 11.7757ZM12.9057 2.31238L13.2209 2.99293C14.4694 2.41468 16.1725 2.90989 16.8356 4.04275L17.4829 3.66388L18.1301 3.28501C17.0463 1.43337 14.4845 0.754647 12.5905 1.63183L12.9057 2.31238ZM5.80688 12.0134L5.80688 12.7634L18.1921 12.7634L18.1921 12.0134L18.1921 11.2634L5.80688 11.2634L5.80688 12.0134Z" fill="#1C1917"/>
</svg>
