<svg width="24" height="24" viewBox="0 0 24 24" fill="none" xmlns="http://www.w3.org/2000/svg">
<path d="M10.5 4.99999C5.80558 4.99999 2 8.80557 2 13.5C2 18.1944 5.80558 22 10.5 22C15.1944 22 19 18.1944 19 13.5C19 13.0306 18.6156 12.6411 18.1554 12.7339C16.2128 13.1256 14.75 14.842 14.75 16.9M10.5 4.99999H17.3C18.2389 4.99999 19.0218 5.77293 18.7902 6.68279C18.0413 9.6244 15.3747 11.8 12.2 11.8H10.5C9.09167 11.8 7.95 12.9417 7.95 14.35C7.95 15.7583 9.09167 16.9 10.5 16.9H14.75M10.5 4.99999V8.39999M14.75 16.9V17.75M5.4 20.3L8.8 16.9M3.275 9.24999L7.95 13.075M13.5 7.99999H13.491M9 2.00009H20.1608C21.321 2.00009 22.1912 3.05117 21.9637 4.17774C21.6689 5.63736 20.3433 6.67841 18.9189 7.00009" stroke="#1C1917" stroke-width="1.5" stroke-linecap="round" stroke-linejoin="round"/>
</svg>
