<svg width="24" height="24" viewBox="0 0 24 24" fill="none" xmlns="http://www.w3.org/2000/svg">
<path d="M16.75 18C16.75 17.5858 16.4142 17.25 16 17.25C15.5858 17.25 15.25 17.5858 15.25 18H16H16.75ZM8.75 18C8.75 17.5858 8.41421 17.25 8 17.25C7.58579 17.25 7.25 17.5858 7.25 18H8H8.75ZM14.3294 8.33587C14.5149 8.70623 14.9655 8.85609 15.3359 8.67059C15.7062 8.48509 15.8561 8.03449 15.6706 7.66413L15 8L14.3294 8.33587ZM8.32941 7.66413C8.14391 8.03449 8.29377 8.48509 8.66413 8.67059C9.03449 8.85609 9.48509 8.70623 9.67059 8.33587L9 8L8.32941 7.66413ZM15.7809 18.7548C15.4203 18.5509 14.9627 18.678 14.7589 19.0386C14.555 19.3992 14.6821 19.8567 15.0427 20.0606L15.4118 19.4077L15.7809 18.7548ZM8.95732 20.0606C9.31791 19.8567 9.44497 19.3992 9.24113 19.0386C9.03729 18.678 8.57973 18.5509 8.21915 18.7548L8.58824 19.4077L8.95732 20.0606ZM15 2.75C15.4142 2.75 15.75 2.41421 15.75 2C15.75 1.58579 15.4142 1.25 15 1.25V2V2.75ZM16 18H15.25C15.25 18.7561 14.8644 19.5749 14.2197 20.2197C13.5749 20.8644 12.7561 21.25 12 21.25V22V22.75C13.2439 22.75 14.4251 22.1356 15.2803 21.2803C16.1356 20.4251 16.75 19.2439 16.75 18H16ZM12 22V21.25C11.2439 21.25 10.4251 20.8644 9.78033 20.2197C9.13559 19.5749 8.75 18.7561 8.75 18H8H7.25C7.25 19.2439 7.86441 20.4251 8.71967 21.2803C9.57493 22.1356 10.7561 22.75 12 22.75V22ZM12 6V6.75C12.9476 6.75 13.8335 7.34568 14.3294 8.33587L15 8L15.6706 7.66413C14.9689 6.26312 13.6162 5.25 12 5.25V6ZM9 8L9.67059 8.33587C10.1665 7.34568 11.0524 6.75 12 6.75V6V5.25C10.3838 5.25 9.03112 6.26312 8.32941 7.66413L9 8ZM15.4118 19.4077L15.0427 20.0606C16.24 20.7374 17.3856 20.9037 18.4289 20.6135C19.4547 20.3282 20.2737 19.6316 20.8973 18.7877C22.1316 17.1174 22.75 14.6755 22.75 12.7038H22H21.25C21.25 14.4346 20.6919 16.5417 19.6909 17.8963C19.1968 18.5649 18.6335 18.9997 18.027 19.1684C17.4379 19.3322 16.7012 19.2751 15.7809 18.7548L15.4118 19.4077ZM22 12.7038H22.75C22.75 10.7081 22.1514 8.87179 21.1472 7.51692C20.1431 6.16216 18.6962 5.25 17.0313 5.25V6V6.75C18.1105 6.75 19.148 7.33854 19.9422 8.4101C20.7363 9.48155 21.25 10.9972 21.25 12.7038H22ZM17.0313 6V5.25C15.8598 5.25 14.5219 5.83552 13.4651 6.91084L14 7.43654L14.5349 7.96224C15.3605 7.12217 16.3293 6.75 17.0313 6.75V6ZM8.58824 19.4077L8.21915 18.7548C7.29878 19.2751 6.56212 19.3322 5.97303 19.1684C5.36649 18.9997 4.80315 18.5649 4.30906 17.8963C3.30807 16.5417 2.75 14.4346 2.75 12.7038H2H1.25C1.25 14.6755 1.8684 17.1174 3.1027 18.7877C3.72626 19.6316 4.54528 20.3282 5.57109 20.6135C6.61435 20.9037 7.76004 20.7374 8.95732 20.0606L8.58824 19.4077ZM2 12.7038H2.75C2.75 10.9972 3.26371 9.48155 4.05784 8.4101C4.85205 7.33854 5.88947 6.75 6.9687 6.75V6V5.25C5.30378 5.25 3.85686 6.16216 2.85275 7.51692C1.84857 8.87179 1.25 10.7081 1.25 12.7038H2ZM6.9687 6V6.75C7.67067 6.75 8.6395 7.12217 9.46508 7.96224L10 7.43654L10.5349 6.91084C9.47815 5.83552 8.14016 5.25 6.9687 5.25V6ZM12 6H12.75C12.75 5.41743 12.8856 4.54951 13.2599 3.85636C13.6167 3.19571 14.1468 2.75 15 2.75V2V1.25C13.4532 1.25 12.4833 2.13762 11.9401 3.14364C11.4144 4.11716 11.25 5.24924 11.25 6H12Z" fill="#1C1917"/>
</svg>
