<svg width="24" height="24" viewBox="0 0 24 24" fill="none" xmlns="http://www.w3.org/2000/svg">
<path d="M5.37307 8.58835C5.14572 8.93459 5.2421 9.39958 5.58835 9.62693C5.93459 9.85428 6.39958 9.7579 6.62693 9.41165L6 9L5.37307 8.58835ZM6.73072 7.88715L6.10378 7.47549L6.73072 7.88715ZM17.2693 7.88714L16.6424 8.29879L17.2693 7.88714ZM17.3731 9.41164C17.6004 9.75789 18.0654 9.85427 18.4117 9.62692C18.7579 9.39957 18.8543 8.93459 18.6269 8.58834L18 8.99999L17.3731 9.41164ZM10.684 3.23546L10.4242 2.53191L10.4242 2.53191L10.684 3.23546ZM13.316 3.23546L13.5758 2.53191V2.53191L13.316 3.23546ZM20.9904 15.8357L20.2429 15.7745C20.2403 15.8066 20.2397 15.8389 20.2413 15.8712L20.9904 15.8357ZM5.27439 20.3049L4.87446 20.9394H4.87446L5.27439 20.3049ZM3.00958 15.8357L3.75874 15.8712C3.76027 15.8389 3.75971 15.8066 3.75707 15.7745L3.00958 15.8357ZM4.2748 11L4.94161 10.6567C4.8181 10.4168 4.57528 10.2618 4.30571 10.2506C4.03613 10.2395 3.78137 10.3741 3.63853 10.6029L4.2748 11ZM19.7252 11L20.3615 10.6029C20.2272 10.3878 19.9932 10.255 19.7396 10.2501C19.4861 10.2453 19.2472 10.3689 19.1047 10.5787L19.7252 11ZM14.5 12.25C14.9142 12.25 15.25 11.9142 15.25 11.5C15.25 11.0858 14.9142 10.75 14.5 10.75V11.5V12.25ZM14.491 10.75C14.0768 10.75 13.741 11.0858 13.741 11.5C13.741 11.9142 14.0768 12.25 14.491 12.25V11.5V10.75ZM12.1708 6.66459C11.9856 6.29411 11.5351 6.14394 11.1646 6.32918C10.7941 6.51442 10.6439 6.96493 10.8292 7.33541L11.5 7L12.1708 6.66459ZM13.5 8.75C13.9142 8.75 14.25 8.41421 14.25 8C14.25 7.58579 13.9142 7.25 13.5 7.25V8V8.75ZM10.5303 11.5303C10.8232 11.2374 10.8232 10.7626 10.5303 10.4697C10.2374 10.1768 9.76256 10.1768 9.46967 10.4697L10 11L10.5303 11.5303ZM8.96967 10.9697C8.67678 11.2626 8.67678 11.7374 8.96967 12.0303C9.26256 12.3232 9.73744 12.3232 10.0303 12.0303L9.5 11.5L8.96967 10.9697ZM6 9L6.62693 9.41165L7.35765 8.2988L6.73072 7.88715L6.10378 7.47549L5.37307 8.58835L6 9ZM17.2693 7.88714L16.6424 8.29879L17.3731 9.41164L18 8.99999L18.6269 8.58834L17.8962 7.47549L17.2693 7.88714ZM6.73072 7.88715L7.35765 8.2988C8.28834 6.88138 8.957 5.86458 9.5382 5.14263C10.1185 4.42181 10.5412 4.08772 10.9438 3.93902L10.684 3.23546L10.4242 2.53191C9.64011 2.82148 9.00836 3.40877 8.36978 4.20199C7.73211 4.99408 7.01747 6.08398 6.10378 7.47549L6.73072 7.88715ZM17.2693 7.88714L17.8962 7.47549C16.9825 6.08397 16.2679 4.99408 15.6302 4.20199C14.9916 3.40877 14.3599 2.82148 13.5758 2.53191L13.316 3.23546L13.0562 3.93902C13.4588 4.08772 13.8815 4.42181 14.4618 5.14262C15.043 5.86457 15.7117 6.88137 16.6424 8.29879L17.2693 7.88714ZM10.684 3.23546L10.9438 3.93902C11.6262 3.68699 12.3738 3.68699 13.0562 3.93902L13.316 3.23546L13.5758 2.53191C12.5581 2.15603 11.4419 2.15603 10.4242 2.53191L10.684 3.23546ZM12 21V21.75C13.8613 21.75 15.303 21.7506 16.4154 21.6607C17.5216 21.5713 18.4161 21.3865 19.1255 20.9394L18.7256 20.3049L18.3257 19.6704C17.9323 19.9184 17.3383 20.0812 16.2945 20.1656C15.257 20.2494 13.8873 20.25 12 20.25V21ZM20.9904 15.8357L20.2413 15.8712C20.3151 17.4322 19.5655 18.8889 18.3257 19.6704L18.7256 20.3049L19.1255 20.9394C20.8449 19.8556 21.8377 17.8742 21.7396 15.8003L20.9904 15.8357ZM12 21V20.25C10.1127 20.25 8.74305 20.2494 7.70546 20.1656C6.66169 20.0812 6.06767 19.9184 5.67431 19.6704L5.27439 20.3049L4.87446 20.9394C5.58389 21.3865 6.47841 21.5713 7.58461 21.6607C8.697 21.7506 10.1387 21.75 12 21.75V21ZM3.00958 15.8357L2.26042 15.8003C2.16233 17.8742 3.15511 19.8556 4.87446 20.9394L5.27439 20.3049L5.67431 19.6704C4.43448 18.8889 3.68491 17.4322 3.75874 15.8712L3.00958 15.8357ZM4.2748 11L3.63853 10.6029C2.83417 11.8919 2.49212 13.2077 2.3492 14.1928C2.27749 14.687 2.25507 15.1036 2.25081 15.4003C2.24868 15.5489 2.25108 15.668 2.25422 15.7524C2.25579 15.7946 2.25755 15.8281 2.25902 15.8525C2.25975 15.8646 2.26041 15.8745 2.26094 15.8819C2.26121 15.8856 2.26144 15.8888 2.26163 15.8913C2.26173 15.8925 2.26182 15.8937 2.26189 15.8946C2.26193 15.8951 2.26197 15.8955 2.262 15.8959C2.26202 15.8961 2.26204 15.8964 2.26205 15.8965C2.26207 15.8968 2.26209 15.897 3.00958 15.8357C3.75707 15.7745 3.75709 15.7747 3.75711 15.7749C3.75711 15.775 3.75713 15.7752 3.75714 15.7753C3.75716 15.7756 3.75718 15.7758 3.75719 15.7759C3.75722 15.7763 3.75724 15.7765 3.75724 15.7766C3.75725 15.7767 3.75721 15.7762 3.75714 15.7752C3.75699 15.7731 3.75669 15.7687 3.75629 15.7621C3.75549 15.7489 3.75431 15.7269 3.75319 15.6966C3.75093 15.636 3.74892 15.5428 3.75066 15.4219C3.75414 15.1797 3.77264 14.8286 3.83365 14.4081C3.95617 13.5637 4.24672 12.4617 4.91108 11.3971L4.2748 11ZM19.7252 11L19.0889 11.3971C19.7533 12.4617 20.0438 13.5637 20.1663 14.4081C20.2274 14.8286 20.2459 15.1797 20.2493 15.4219C20.2511 15.5428 20.2491 15.636 20.2468 15.6966C20.2457 15.7269 20.2445 15.7489 20.2437 15.7621C20.2433 15.7687 20.243 15.7731 20.2429 15.7752C20.2428 15.7762 20.2427 15.7767 20.2428 15.7766C20.2428 15.7765 20.2428 15.7763 20.2428 15.7759C20.2428 15.7758 20.2428 15.7756 20.2429 15.7753C20.2429 15.7752 20.2429 15.775 20.2429 15.7749C20.2429 15.7747 20.2429 15.7745 20.9904 15.8357C21.7379 15.897 21.7379 15.8968 21.738 15.8965C21.738 15.8964 21.738 15.8961 21.738 15.8959C21.738 15.8955 21.7381 15.8951 21.7381 15.8946C21.7382 15.8937 21.7383 15.8925 21.7384 15.8913C21.7386 15.8888 21.7388 15.8856 21.7391 15.8819C21.7396 15.8745 21.7402 15.8646 21.741 15.8525C21.7425 15.8281 21.7442 15.7946 21.7458 15.7524C21.7489 15.668 21.7513 15.5489 21.7492 15.4003C21.7449 15.1036 21.7225 14.687 21.6508 14.1928C21.5079 13.2077 21.1658 11.8919 20.3615 10.6029L19.7252 11ZM4.2748 11L3.608 11.3433C4.08979 12.2791 5.081 13.392 6.21477 14.4837C7.36758 15.5938 8.73511 16.7449 10.0401 17.7602L10.5006 17.1682L10.9612 16.5763C9.68444 15.5829 8.35961 14.4667 7.25522 13.4032C6.13179 12.3214 5.30094 11.3546 4.94161 10.6567L4.2748 11ZM10.5006 17.1682L10.0401 17.7602C12.3379 19.5479 15.269 20.9727 18.7077 21.0547L18.7256 20.3049L18.7435 19.5551C15.7122 19.4829 13.0831 18.2271 10.9612 16.5763L10.5006 17.1682ZM19.7252 11L19.1047 10.5787C18.4596 11.5289 17.0193 13.0246 15.3361 14.2779C14.5001 14.9004 13.6249 15.4475 12.7812 15.8336C11.9302 16.223 11.1571 16.4275 10.5114 16.4183L10.5006 17.1682L10.4899 17.9181C11.4435 17.9318 12.4471 17.6361 13.4054 17.1975C14.371 16.7556 15.3378 16.1468 16.232 15.481C18.0093 14.1576 19.5819 12.5462 20.3457 11.4213L19.7252 11ZM14.5 11.5V10.75H14.491V11.5V12.25H14.5V11.5ZM11.5 7L10.8292 7.33541C11.1172 7.91149 12.0035 8.75 13.5 8.75V8V7.25C12.5965 7.25 12.2161 6.75518 12.1708 6.66459L11.5 7ZM10 11L9.46967 10.4697L8.96967 10.9697L9.5 11.5L10.0303 12.0303L10.5303 11.5303L10 11Z" fill="#1C1917"/>
</svg>
