<svg width="24" height="24" viewBox="0 0 24 24" fill="none" xmlns="http://www.w3.org/2000/svg">
<path d="M19.8787 13.9821L19.1508 13.8015V13.8015L19.8787 13.9821ZM2.12128 13.9821L2.8492 13.8015H2.8492L2.12128 13.9821ZM6.41982 20.9992L5.66982 20.9986L6.41982 20.9992ZM6.66957 19.3859L7.20131 18.857L7.20131 18.857L6.66957 19.3859ZM15.5802 20.9992L14.8302 20.9998V20.9998L15.5802 20.9992ZM15.3304 19.3859L14.7987 18.857L14.7987 18.857L15.3304 19.3859ZM2.75 12C2.75 12.4142 3.08579 12.75 3.5 12.75C3.91421 12.75 4.25 12.4142 4.25 12H3.5H2.75ZM5.7151 9.49889L5.80022 10.244C6.03724 10.217 6.24724 10.0787 6.36585 9.87176C6.48445 9.66476 6.4975 9.41369 6.40101 9.19552L5.7151 9.49889ZM9.39889 7.41372C9.64661 7.7457 10.1165 7.81401 10.4485 7.5663C10.7805 7.31859 10.8488 6.84865 10.6011 6.51667L10 6.96519L9.39889 7.41372ZM13.4611 6.01716L12.7226 6.14794C12.7582 6.34924 12.8745 6.52727 13.0445 6.64082C13.2145 6.75438 13.4235 6.79362 13.6231 6.74946L13.4611 6.01716ZM15.604 9.18418C15.4391 9.56416 15.6135 10.0059 15.9934 10.1707C16.3734 10.3356 16.8151 10.1612 16.98 9.78127L16.292 9.48272L15.604 9.18418ZM14.698 9.00568C14.3188 9.17248 14.1467 9.61505 14.3135 9.9942C14.4803 10.3733 14.9229 10.5455 15.302 10.3787L15 9.69218L14.698 9.00568ZM17.75 12C17.75 12.4142 18.0858 12.75 18.5 12.75C18.9142 12.75 19.25 12.4142 19.25 12H18.5H17.75ZM16.4238 8.51986C16.1587 8.83807 16.2017 9.31099 16.5199 9.57617C16.8381 9.84134 17.311 9.79835 17.5762 9.48014L17 9L16.4238 8.51986ZM22.5762 3.48014C22.8413 3.16193 22.7983 2.68901 22.4801 2.42383C22.1619 2.15866 21.689 2.20165 21.4238 2.51986L22 3L22.5762 3.48014ZM15.3292 5.66459C15.1439 6.03507 15.2941 6.48558 15.6646 6.67082C16.0351 6.85606 16.4856 6.70589 16.6708 6.33541L16 6L15.3292 5.66459ZM18.6708 2.33541C18.8561 1.96493 18.7059 1.51442 18.3354 1.32918C17.9649 1.14394 17.5144 1.29411 17.3292 1.66459L18 2L18.6708 2.33541ZM18.0886 12V11.25H3.91145V12V12.75H18.0886V12ZM8.0146 22V22.75H13.9854V22V21.25H8.0146V22ZM3.91145 12V11.25C3.48996 11.25 3.09061 11.2736 2.73913 11.3504C2.38755 11.4272 2.02439 11.57 1.73774 11.8537C1.12809 12.4571 1.18815 13.3359 1.39337 14.1628L2.12128 13.9821L2.8492 13.8015C2.75862 13.4365 2.74074 13.2035 2.75377 13.0608C2.75986 12.994 2.77182 12.9583 2.77862 12.9424C2.78444 12.9288 2.78885 12.9239 2.79289 12.9199C2.8034 12.9095 2.86259 12.8588 3.05943 12.8158C3.25636 12.7728 3.5315 12.75 3.91145 12.75V12ZM18.0886 12V12.75C18.4685 12.75 18.7436 12.7728 18.9406 12.8158C19.1374 12.8588 19.1966 12.9095 19.2071 12.9199C19.2112 12.9239 19.2156 12.9288 19.2214 12.9424C19.2282 12.9583 19.2401 12.994 19.2462 13.0608C19.2593 13.2035 19.2414 13.4365 19.1508 13.8015L19.8787 13.9821L20.6066 14.1628C20.8118 13.3359 20.8719 12.4571 20.2623 11.8537C19.9756 11.57 19.6124 11.4272 19.2609 11.3504C18.9094 11.2736 18.51 11.25 18.0886 11.25V12ZM6.66957 19.3859L6.13782 19.9148C6.07983 19.8565 6.06024 19.7725 6.06124 19.7323C6.06136 19.7274 6.05903 19.768 6.00908 19.8926C5.98624 19.9495 5.95967 20.0095 5.92676 20.0833C5.89595 20.1524 5.8582 20.2367 5.82394 20.3213C5.76151 20.4756 5.67003 20.7239 5.66982 20.9986L6.41982 20.9992L7.16982 20.9998C7.16979 21.0318 7.16309 21.0108 7.21434 20.8842C7.23691 20.8284 7.26323 20.7694 7.29676 20.6941C7.32819 20.6237 7.36623 20.5383 7.40131 20.4509C7.51176 20.1754 7.78275 19.4416 7.20131 18.857L6.66957 19.3859ZM15.3304 19.3859L14.7987 18.857C14.5306 19.1266 14.4247 19.4545 14.4303 19.7717C14.4352 20.0511 14.5261 20.2992 14.5944 20.4636C14.6307 20.551 14.6702 20.6359 14.7024 20.7053C14.7369 20.7797 14.7636 20.8372 14.7864 20.8917C14.8379 21.0143 14.8302 21.0331 14.8302 20.9998L15.5802 20.9992L16.3302 20.9986C16.33 20.7173 16.2349 20.4668 16.1694 20.3109C16.1338 20.2261 16.0946 20.1421 16.0631 20.0741C16.0292 20.0011 16.0024 19.9429 15.9795 19.8878C15.9294 19.7672 15.9298 19.7331 15.93 19.7453C15.9309 19.7953 15.906 19.8708 15.8622 19.9148L15.3304 19.3859ZM13.9854 22V22.75C14.3301 22.75 14.8752 22.7407 15.3447 22.5388C15.5969 22.4303 15.8569 22.2548 16.0496 21.9733C16.2442 21.689 16.3305 21.3549 16.3302 20.9986L15.5802 20.9992L14.8302 20.9998C14.8302 21.0572 14.8235 21.091 14.8188 21.1077C14.8164 21.116 14.8144 21.1209 14.8134 21.1231C14.8128 21.1243 14.8124 21.125 14.8122 21.1254C14.8121 21.1256 14.812 21.1257 14.812 21.1257C14.812 21.1258 14.8119 21.1258 14.8119 21.1258C14.8119 21.1258 14.812 21.1258 14.812 21.1258C14.812 21.1258 14.812 21.1258 14.812 21.1258C14.812 21.1258 14.8118 21.126 14.8115 21.1263C14.8109 21.1269 14.8091 21.1287 14.8054 21.1316C14.7979 21.1374 14.7817 21.1481 14.7521 21.1608C14.6886 21.1881 14.5902 21.2136 14.448 21.2298C14.308 21.2458 14.1536 21.25 13.9854 21.25V22ZM8.0146 22V21.25C7.84642 21.25 7.69195 21.2458 7.55196 21.2298C7.40981 21.2136 7.31145 21.1881 7.24794 21.1608C7.21831 21.1481 7.20212 21.1374 7.19458 21.1316C7.19089 21.1287 7.18909 21.1269 7.1885 21.1263C7.18818 21.126 7.18804 21.1258 7.18803 21.1258C7.18802 21.1258 7.18802 21.1258 7.18803 21.1258C7.18805 21.1258 7.18805 21.1258 7.18805 21.1258C7.18805 21.1258 7.18803 21.1258 7.18799 21.1257C7.18795 21.1257 7.18788 21.1256 7.18777 21.1254C7.18758 21.125 7.18719 21.1243 7.18664 21.1231C7.18561 21.1209 7.18356 21.116 7.18122 21.1077C7.17655 21.091 7.16977 21.0572 7.16982 20.9998L6.41982 20.9992L5.66982 20.9986C5.66953 21.3549 5.75577 21.689 5.95036 21.9733C6.14312 22.2548 6.40309 22.4303 6.65535 22.5388C7.12483 22.7407 7.66989 22.75 8.0146 22.75V22ZM6.66957 19.3859L7.20131 18.857C6.71026 18.3633 6.21339 17.9505 5.75214 17.5762C5.28218 17.1948 4.86457 16.8652 4.47968 16.5059C3.73873 15.8143 3.15854 15.0479 2.8492 13.8015L2.12128 13.9821L1.39337 14.1628C1.78949 15.7588 2.56069 16.7666 3.45615 17.6025C3.88946 18.0069 4.3613 18.3793 4.80693 18.7409C5.26127 19.1096 5.70613 19.4808 6.13783 19.9148L6.66957 19.3859ZM19.8787 13.9821L19.1508 13.8015C18.8415 15.0479 18.2613 15.8143 17.5203 16.5059C17.1354 16.8652 16.7178 17.1948 16.2479 17.5762C15.7866 17.9505 15.2897 18.3633 14.7987 18.857L15.3304 19.3859L15.8622 19.9148C16.2939 19.4808 16.7387 19.1096 17.1931 18.7409C17.6387 18.3793 18.1105 18.0069 18.5439 17.6025C19.4393 16.7666 20.2105 15.7588 20.6066 14.1628L19.8787 13.9821ZM3.5 12H4.25C4.25 11.0883 4.93222 10.3432 5.80022 10.244L5.7151 9.49889L5.62999 8.75373C4.00487 8.93936 2.75 10.3252 2.75 12H3.5ZM8.53891 6.01716L8.37691 6.74946C8.78934 6.8407 9.15014 7.08033 9.39889 7.41372L10 6.96519L10.6011 6.51667C10.144 5.90409 9.4757 5.45627 8.70091 5.28487L8.53891 6.01716ZM5.7151 9.49889L6.40101 9.19552C5.83646 7.9191 7.06262 6.45871 8.37691 6.74946L8.53891 6.01716L8.70091 5.28487C6.19001 4.7294 3.96563 7.39759 5.0292 9.80226L5.7151 9.49889ZM8.53891 6.01716L9.27742 6.14793C9.60747 4.28402 12.3925 4.28402 12.7226 6.14794L13.4611 6.01716L14.1996 5.88639C13.5771 2.3712 8.42285 2.3712 7.8004 5.88639L8.53891 6.01716ZM13.4611 6.01716L13.6231 6.74946C14.959 6.45393 16.1512 7.92312 15.604 9.18418L16.292 9.48272L16.98 9.78127C17.9954 7.44121 15.878 4.71436 13.2991 5.28487L13.4611 6.01716ZM15 9.69218L15.302 10.3787C16.4054 9.89326 17.75 10.7493 17.75 12H18.5H19.25C19.25 9.66855 16.7948 8.0832 14.698 9.00568L15 9.69218ZM17 9L17.5762 9.48014L22.5762 3.48014L22 3L21.4238 2.51986L16.4238 8.51986L17 9ZM16 6L16.6708 6.33541L18.6708 2.33541L18 2L17.3292 1.66459L15.3292 5.66459L16 6Z" fill="#1C1917"/>
</svg>
