<svg width="24" height="24" viewBox="0 0 24 24" fill="none" xmlns="http://www.w3.org/2000/svg">
<path d="M14.5947 5.93067L15.3378 6.03173V6.03173L14.5947 5.93067ZM16.0691 12.5686C15.8431 12.9157 15.9413 13.3803 16.2884 13.6063C16.6356 13.8323 17.1002 13.734 17.3262 13.3869L16.6976 12.9777L16.0691 12.5686ZM9.40534 5.93067L10.1485 5.82961V5.82961L9.40534 5.93067ZM6.67383 13.3869C6.8998 13.734 7.36441 13.8323 7.71155 13.6063C8.05869 13.3803 8.15692 12.9157 7.93094 12.5686L7.30238 12.9777L6.67383 13.3869ZM16.8169 16.7647L16.3834 16.1527L16.3834 16.1527L16.8169 16.7647ZM7.18308 16.7647L6.74955 17.3768L7.18308 16.7647ZM13.786 19.8177L14.4106 20.2329L14.4106 20.2329L13.786 19.8177ZM13.5536 20.1673L12.929 19.752L12.929 19.752L13.5536 20.1673ZM10.4464 20.1673L9.82185 20.5825L10.4464 20.1673ZM10.214 19.8177L9.58945 20.2329L10.214 19.8177ZM13.0296 11.8739C12.9738 12.2843 13.2612 12.6623 13.6717 12.7181C14.0821 12.7739 14.4601 12.4864 14.5159 12.076L13.7727 11.975L13.0296 11.8739ZM9.48412 12.076C9.53993 12.4864 9.9179 12.7739 10.3283 12.7181C10.7388 12.6623 11.0262 12.2843 10.9704 11.8739L10.2273 11.975L9.48412 12.076ZM8.2425 17.5326L8.71174 16.9476L8.2425 17.5326ZM9.62352 18.9552L10.2222 18.5035L10.2222 18.5035L9.62352 18.9552ZM15.7575 17.5326L15.2883 16.9476H15.2883L15.7575 17.5326ZM14.3765 18.9552L13.7778 18.5034L13.7778 18.5034L14.3765 18.9552ZM17.2412 19.7942L17.9766 19.9413L17.2412 19.7942ZM18.7354 16.1471C18.8167 15.7409 18.5533 15.3458 18.1471 15.2646C17.7409 15.1833 17.3458 15.4467 17.2646 15.8529L18 16L18.7354 16.1471ZM6.75883 19.7942L6.0234 19.9413L6.75883 19.7942ZM6.73544 15.8529C6.6542 15.4467 6.25908 15.1833 5.85291 15.2646C5.44674 15.3458 5.18333 15.7409 5.26456 16.1471L6 16L6.73544 15.8529ZM14.5457 4.95548L13.8169 5.13215C13.8701 5.35173 13.8845 5.58662 13.8515 5.82962L14.5947 5.93067L15.3378 6.03173C15.3964 5.60081 15.3713 5.17756 15.2746 4.7788L14.5457 4.95548ZM19 6.95915L18.8759 7.69881C19.2582 7.76295 19.8721 7.98694 20.3765 8.43568C20.8586 8.86471 21.25 9.50344 21.25 10.4708H22H22.75C22.75 9.03144 22.1414 7.99824 21.3735 7.31506C20.6279 6.6516 19.7418 6.32311 19.1241 6.21949L19 6.95915ZM19 6.95915L18.2505 6.98669C18.2784 7.74587 18.0288 8.70417 17.5998 9.72725C17.1768 10.7359 16.6083 11.7403 16.0691 12.5686L16.6976 12.9777L17.3262 13.3869C17.8997 12.5058 18.5162 11.4207 18.9831 10.3074C19.4439 9.2084 19.7892 8.01209 19.7495 6.93161L19 6.95915ZM9.45425 4.95548L8.72536 4.7788C8.6287 5.17755 8.60358 5.60081 8.66218 6.03173L9.40534 5.93067L10.1485 5.82961C10.1155 5.58662 10.1299 5.35173 10.1831 5.13216L9.45425 4.95548ZM5 6.95915L4.87591 6.21949C4.25824 6.32311 3.37211 6.6516 2.62645 7.31506C1.85863 7.99824 1.25 9.03144 1.25 10.4708H2H2.75C2.75 9.50344 3.14137 8.86471 3.62355 8.43568C4.12788 7.98694 4.74176 7.76295 5.12408 7.69881L5 6.95915ZM5 6.95915L4.2505 6.93161C4.21079 8.01209 4.55605 9.2084 5.01692 10.3074C5.48384 11.4207 6.10028 12.5058 6.67383 13.3869L7.30238 12.9777L7.93094 12.5686C7.39175 11.7403 6.8232 10.7359 6.4002 9.72725C5.97116 8.70417 5.72159 7.74587 5.74949 6.98669L5 6.95915ZM22 10.4708H21.25C21.25 11.2706 20.7576 12.2096 19.8189 13.2447C18.8993 14.2586 17.6551 15.2519 16.3834 16.1527L16.8169 16.7647L17.2505 17.3767C18.5546 16.4529 19.9019 15.3859 20.93 14.2524C21.9388 13.1401 22.75 11.8445 22.75 10.4708H22ZM2 10.4708H1.25C1.25 11.8445 2.06122 13.1401 3.07003 14.2524C4.09806 15.3859 5.44541 16.4529 6.74955 17.3768L7.18308 16.7647L7.61661 16.1527C6.34486 15.2519 5.10067 14.2586 4.18114 13.2447C3.24238 12.2096 2.75 11.2706 2.75 10.4708H2ZM13.786 19.8177L13.1614 19.4025L12.929 19.752L13.5536 20.1673L14.1782 20.5825L14.4106 20.2329L13.786 19.8177ZM10.4464 20.1673L11.071 19.752L10.8386 19.4025L10.214 19.8177L9.58945 20.2329L9.82185 20.5825L10.4464 20.1673ZM14.5947 5.93067L13.8515 5.82961L13.0296 11.8739L13.7727 11.975L14.5159 12.076L15.3378 6.03173L14.5947 5.93067ZM9.40534 5.93067L8.66218 6.03173L9.48412 12.076L10.2273 11.975L10.9704 11.8739L10.1485 5.82961L9.40534 5.93067ZM9.45425 4.95548L10.1831 5.13216C10.6298 3.28928 13.3702 3.28928 13.8169 5.13216L14.5457 4.95548L15.2746 4.7788C14.4573 1.40707 9.54265 1.40707 8.72536 4.7788L9.45425 4.95548ZM14.5457 4.95548L15.0829 5.47889C15.5763 4.97252 16.2928 4.92137 16.9996 5.27197C17.7257 5.63212 18.226 6.32083 18.2505 6.98669L19 6.95915L19.7495 6.93161C19.7001 5.58664 18.757 4.4693 17.6662 3.92821C16.5561 3.37757 15.0825 3.33 14.0086 4.43206L14.5457 4.95548ZM9.45425 4.95548L9.99141 4.43206C8.91754 3.33 7.44386 3.37757 6.33382 3.92821C5.24303 4.4693 4.29993 5.58664 4.2505 6.93161L5 6.95915L5.74949 6.98669C5.77396 6.32083 6.27434 5.63212 7.00039 5.27197C7.70718 4.92137 8.42368 4.97252 8.9171 5.47889L9.45425 4.95548ZM12 21V20.25C11.6265 20.25 11.2778 20.0631 11.071 19.752L10.4464 20.1673L9.82185 20.5825C10.3067 21.3118 11.1243 21.75 12 21.75V21ZM13.5536 20.1673L12.929 19.752C12.7222 20.0631 12.3735 20.25 12 20.25V21V21.75C12.8757 21.75 13.6933 21.3118 14.1782 20.5825L13.5536 20.1673ZM7.18308 16.7647L6.74955 17.3768C7.34309 17.7972 7.60942 17.9863 7.77326 18.1177L8.2425 17.5326L8.71174 16.9476C8.50327 16.7804 8.18736 16.557 7.61661 16.1527L7.18308 16.7647ZM10.214 19.8177L10.8386 19.4025C10.5464 18.9629 10.3827 18.7162 10.2222 18.5035L9.62352 18.9552L9.02481 19.4069C9.15176 19.5751 9.28599 19.7765 9.58945 20.2329L10.214 19.8177ZM8.2425 17.5326L7.77326 18.1177C8.29933 18.5396 8.61865 18.8686 9.02481 19.4069L9.62352 18.9552L10.2222 18.5035C9.74115 17.8658 9.33485 17.4473 8.71174 16.9476L8.2425 17.5326ZM16.8169 16.7647L16.3834 16.1527C15.8127 16.557 15.4967 16.7804 15.2883 16.9476L15.7575 17.5326L16.2268 18.1177C16.3906 17.9863 16.6569 17.7972 17.2505 17.3767L16.8169 16.7647ZM13.786 19.8177L14.4106 20.2329C14.714 19.7765 14.8483 19.5751 14.9752 19.4069L14.3765 18.9552L13.7778 18.5034C13.6173 18.7162 13.4536 18.9629 13.1614 19.4025L13.786 19.8177ZM15.7575 17.5326L15.2883 16.9476C14.6652 17.4473 14.2589 17.8658 13.7778 18.5034L14.3765 18.9552L14.9752 19.4069C15.3814 18.8686 15.7007 18.5396 16.2268 18.1177L15.7575 17.5326ZM17.2412 19.7942L17.9766 19.9413L18.7354 16.1471L18 16L17.2646 15.8529L16.5057 19.6471L17.2412 19.7942ZM15.7703 21V21.75C16.8428 21.75 17.7663 20.993 17.9766 19.9413L17.2412 19.7942L16.5057 19.6471C16.4356 19.9977 16.1278 20.25 15.7703 20.25V21ZM6.75883 19.7942L7.49427 19.6471L6.73544 15.8529L6 16L5.26456 16.1471L6.0234 19.9413L6.75883 19.7942ZM8.22971 21V20.25C7.8722 20.25 7.56438 19.9977 7.49427 19.6471L6.75883 19.7942L6.0234 19.9413C6.23374 20.993 7.15717 21.75 8.22971 21.75V21ZM8.22971 21V21.75H15.7703V21V20.25H8.22971V21Z" fill="#1C1917"/>
</svg>
