<svg width="24" height="24" viewBox="0 0 24 24" fill="none" xmlns="http://www.w3.org/2000/svg">
<path d="M6.90031 2.71963L6.32414 2.23949L6.32414 2.23949L6.90031 2.71963ZM5.92711 3.88746L5.35095 3.40732L5.92711 3.88746ZM5.92711 20.1125L6.50328 19.6324H6.50328L5.92711 20.1125ZM7.20015 21.6402L7.77632 21.16L7.77632 21.16L7.20015 21.6402ZM17.0997 2.71963L16.5235 3.19977V3.19977L17.0997 2.71963ZM18.0729 3.88746L17.4967 4.3676L18.0729 3.88746ZM18.0729 20.1125L17.4967 19.6324L18.0729 20.1125ZM16.7998 21.6402L16.2237 21.16L16.2237 21.16L16.7998 21.6402ZM18.8805 18.9568L18.1753 18.7014L18.8805 18.9568ZM18.8805 5.04325L18.1753 5.29857L18.1753 5.29857L18.8805 5.04325ZM5.11946 18.9568L4.41425 19.2121L4.41425 19.2121L5.11946 18.9568ZM7.54422 2.09441L7.86234 2.7736L7.54422 2.09441ZM6 1.25C5.58579 1.25 5.25 1.58579 5.25 2C5.25 2.41421 5.58579 2.75 6 2.75V2V1.25ZM18 2.75C18.4142 2.75 18.75 2.41421 18.75 2C18.75 1.58579 18.4142 1.25 18 1.25V2V2.75ZM6.90031 2.71963L6.32414 2.23949L5.35095 3.40732L5.92711 3.88746L6.50328 4.3676L7.47647 3.19977L6.90031 2.71963ZM5 6.4482H4.25V17.5518H5H5.75V6.4482H5ZM5.92711 20.1125L5.35095 20.5927L6.62399 22.1203L7.20015 21.6402L7.77632 21.16L6.50328 19.6324L5.92711 20.1125ZM17.0997 2.71963L16.5235 3.19977L17.4967 4.3676L18.0729 3.88746L18.6491 3.40732L17.6759 2.23949L17.0997 2.71963ZM19 6.4482H18.25V17.5518H19H19.75V6.4482H19ZM18.0729 20.1125L17.4967 19.6324L16.2237 21.16L16.7998 21.6402L17.376 22.1203L18.6491 20.5927L18.0729 20.1125ZM7.96837 22V22.75H16.0316V22V21.25H7.96837V22ZM8.43675 2V2.75H15.5633V2V1.25H8.43675V2ZM16.7998 21.6402L16.2237 21.16C16.1857 21.2056 16.1577 21.2392 16.1333 21.2675C16.1091 21.2956 16.0953 21.3105 16.0875 21.3184C16.0802 21.3258 16.0842 21.3208 16.0974 21.3108C16.1123 21.2996 16.1335 21.2859 16.1598 21.2736L16.4779 21.9528L16.796 22.632C17.0833 22.4974 17.2734 22.2435 17.376 22.1203L16.7998 21.6402ZM16.0316 22V22.75C16.1919 22.75 16.5087 22.7666 16.796 22.632L16.4779 21.9528L16.1598 21.2736C16.1861 21.2613 16.2102 21.2538 16.2283 21.2495C16.2444 21.2458 16.2508 21.2459 16.2405 21.2467C16.2294 21.2477 16.2091 21.2488 16.172 21.2494C16.1347 21.25 16.091 21.25 16.0316 21.25V22ZM19 17.5518H18.25C18.25 18.3214 18.2396 18.5238 18.1753 18.7014L18.8805 18.9568L19.5857 19.2121C19.7604 18.7298 19.75 18.2156 19.75 17.5518H19ZM18.0729 20.1125L18.6491 20.5927C19.074 20.0828 19.4111 19.6944 19.5857 19.2121L18.8805 18.9568L18.1753 18.7014C18.111 18.879 17.9894 19.0412 17.4967 19.6324L18.0729 20.1125ZM18.0729 3.88746L17.4967 4.3676C17.9894 4.9588 18.111 5.12096 18.1753 5.29857L18.8805 5.04325L19.5857 4.78793C19.4111 4.30565 19.074 3.91724 18.6491 3.40732L18.0729 3.88746ZM19 6.4482H19.75C19.75 5.78443 19.7604 5.27022 19.5857 4.78793L18.8805 5.04325L18.1753 5.29857C18.2396 5.47617 18.25 5.67863 18.25 6.4482H19ZM17.0997 2.71963L17.6759 2.23949C17.4258 1.93942 17.162 1.59701 16.7739 1.41522L16.4558 2.09441L16.1377 2.7736C16.1378 2.77365 16.138 2.77377 16.1389 2.77431C16.1399 2.77489 16.1426 2.77661 16.1474 2.78025C16.1576 2.78797 16.1768 2.804 16.2088 2.83645C16.2806 2.90915 16.3682 3.01343 16.5235 3.19977L17.0997 2.71963ZM15.5633 2V2.75C15.8058 2.75 15.9421 2.75061 16.0438 2.75916C16.0892 2.76298 16.1139 2.76747 16.1263 2.77037C16.1322 2.77173 16.1353 2.77273 16.1363 2.77309C16.1373 2.77342 16.1376 2.77355 16.1377 2.7736L16.4558 2.09441L16.7739 1.41522C16.3858 1.23343 15.9539 1.25 15.5633 1.25V2ZM7.20015 21.6402L6.62399 22.1203C6.7266 22.2435 6.91665 22.4974 7.20399 22.632L7.52211 21.9528L7.84022 21.2736C7.86651 21.2859 7.88774 21.2996 7.90256 21.3108C7.91576 21.3208 7.91982 21.3258 7.91254 21.3184C7.90472 21.3105 7.89091 21.2956 7.86667 21.2675C7.8423 21.2392 7.81432 21.2056 7.77632 21.16L7.20015 21.6402ZM7.96837 22V21.25C7.90902 21.25 7.86533 21.25 7.82801 21.2494C7.79087 21.2488 7.7706 21.2477 7.75951 21.2467C7.74917 21.2459 7.7556 21.2458 7.77172 21.2495C7.78982 21.2538 7.81394 21.2613 7.84022 21.2736L7.52211 21.9528L7.20399 22.632C7.49134 22.7666 7.80808 22.75 7.96837 22.75V22ZM5 17.5518H4.25C4.25 18.2156 4.23964 18.7298 4.41425 19.2121L5.11946 18.9568L5.82466 18.7014C5.76036 18.5238 5.75 18.3214 5.75 17.5518H5ZM5.92711 20.1125L6.50328 19.6324C6.01061 19.0412 5.88896 18.879 5.82466 18.7014L5.11946 18.9568L4.41425 19.2121C4.58886 19.6944 4.92601 20.0828 5.35095 20.5927L5.92711 20.1125ZM5.92711 3.88746L5.35095 3.40732C4.92601 3.91724 4.58886 4.30564 4.41425 4.78793L5.11946 5.04325L5.82466 5.29857C5.88896 5.12096 6.01061 4.9588 6.50328 4.3676L5.92711 3.88746ZM5 6.4482H5.75C5.75 5.67863 5.76036 5.47617 5.82466 5.29857L5.11946 5.04325L4.41425 4.78793C4.23964 5.27022 4.25 5.78443 4.25 6.4482H5ZM6.90031 2.71963L7.47647 3.19977C7.63176 3.01343 7.71945 2.90915 7.79117 2.83645C7.82318 2.804 7.84239 2.78797 7.85258 2.78025C7.8574 2.77661 7.86012 2.77489 7.86108 2.77431C7.86196 2.77377 7.86223 2.77365 7.86234 2.7736L7.54422 2.09441L7.2261 1.41522C6.83798 1.59701 6.5742 1.93942 6.32414 2.23949L6.90031 2.71963ZM8.43675 2V1.25C8.04614 1.25 7.61423 1.23343 7.2261 1.41522L7.54422 2.09441L7.86234 2.7736C7.86244 2.77355 7.8627 2.77342 7.86368 2.77309C7.86474 2.77273 7.86781 2.77173 7.87369 2.77037C7.88614 2.76747 7.91075 2.76298 7.95617 2.75916C8.05794 2.75061 8.19419 2.75 8.43675 2.75V2ZM5 5V5.75H19V5V4.25H5V5ZM5 19V19.75H19V19V18.25H5V19ZM6 2V2.75H18V2V1.25H6V2ZM14.5 12H13.75C13.75 12.9665 12.9665 13.75 12 13.75V14.5V15.25C13.7949 15.25 15.25 13.7949 15.25 12H14.5ZM12 14.5V13.75C11.0335 13.75 10.25 12.9665 10.25 12H9.5H8.75C8.75 13.7949 10.2051 15.25 12 15.25V14.5ZM9.5 12H10.25C10.25 11.0335 11.0335 10.25 12 10.25V9.5V8.75C10.2051 8.75 8.75 10.2051 8.75 12H9.5ZM12 9.5V10.25C12.9665 10.25 13.75 11.0335 13.75 12H14.5H15.25C15.25 10.2051 13.7949 8.75 12 8.75V9.5Z" fill="#1C1917"/>
</svg>
