<svg width="24" height="24" viewBox="0 0 24 24" fill="none" xmlns="http://www.w3.org/2000/svg">
<path d="M5.03072 6.09986L4.03928 6.23042L5.03072 6.09986ZM6.63244 18.2626L5.641 18.3931L6.63244 18.2626ZM17.9693 6.09986L16.9778 5.96929V5.96929L17.9693 6.09986ZM16.3676 18.2626L15.3761 18.132L16.3676 18.2626ZM15.4139 21.2437L16.036 22.0267L15.4139 21.2437ZM7.58606 21.2437L6.96403 22.0267H6.96403L7.58606 21.2437ZM12.5004 18.9722C12.4851 19.5243 12.9202 19.9843 13.4722 19.9996C14.0243 20.0149 14.4843 19.5798 14.4996 19.0278L13.5 19L12.5004 18.9722ZM13.946 2.94128L12.9477 2.88256L12.9468 2.89803L12.9464 2.91352L13.946 2.94128ZM19.0014 3C19.5536 3 20.0014 2.55228 20.0014 2C20.0014 1.44772 19.5536 1 19.0014 1V2V3ZM5.1221 9.52115C4.85764 10.006 5.0363 10.6134 5.52115 10.8779C6.006 11.1424 6.61343 10.9637 6.8779 10.4789L6 10L5.1221 9.52115ZM8.09091 9V8V9ZM16.8319 10.744C17.2428 11.113 17.8751 11.0791 18.244 10.6681C18.613 10.2572 18.5791 9.62495 18.1681 9.25595L17.5 10L16.8319 10.744ZM10.0089 17C10.5612 17 11.0089 16.5523 11.0089 16C11.0089 15.4477 10.5612 15 10.0089 15V16V17ZM10 15C9.44772 15 9 15.4477 9 16C9 16.5523 9.44772 17 10 17V16V15ZM5.03072 6.09986L4.03928 6.23042L5.641 18.3931L6.63244 18.2626L7.62388 18.132L6.02216 5.96929L5.03072 6.09986ZM17.9693 6.09986L16.9778 5.96929L15.3761 18.132L16.3676 18.2626L17.359 18.3931L18.9607 6.23042L17.9693 6.09986ZM16.8745 5V4H6.12552V5V6H16.8745V5ZM16.3676 18.2626L15.3761 18.132C15.2633 18.9887 15.1901 19.5266 15.0807 19.9186C14.982 20.2727 14.8846 20.3871 14.7919 20.4607L15.4139 21.2437L16.036 22.0267C16.5699 21.6026 16.8403 21.0542 17.0072 20.4561C17.1635 19.8958 17.2538 19.192 17.359 18.3931L16.3676 18.2626ZM6.63244 18.2626L5.641 18.3931C5.74621 19.192 5.83653 19.8958 5.99283 20.4561C6.15971 21.0542 6.4301 21.6026 6.96403 22.0267L7.58606 21.2437L8.20808 20.4607C8.11544 20.3871 8.01804 20.2727 7.91926 19.9186C7.8099 19.5266 7.7367 18.9887 7.62388 18.132L6.63244 18.2626ZM7.58606 21.2437L6.96403 22.0267C7.48075 22.4372 8.2576 22.6575 8.96976 22.7881C9.73085 22.9278 10.6098 22.9969 11.4754 22.9999C12.3409 23.0029 13.2246 22.9398 13.9948 22.8014C14.7192 22.6713 15.5054 22.4482 16.036 22.0267L15.4139 21.2437L14.7919 20.4607C14.6738 20.5546 14.3123 20.7124 13.6412 20.8329C13.0159 20.9452 12.2564 21.0026 11.4822 20.9999C10.7082 20.9973 9.95097 20.9348 9.33072 20.821C8.66153 20.6982 8.31183 20.5431 8.20808 20.4607L7.58606 21.2437ZM5.03072 6.09986L6.02216 5.96929C6.00963 5.87418 6.00326 5.80249 6.00098 5.74854C5.99867 5.69384 6.00114 5.66961 6.0015 5.66668C6.00178 5.66447 5.99825 5.69637 5.97664 5.74657C5.9656 5.77219 5.95038 5.80134 5.92982 5.83191C5.90916 5.86264 5.8851 5.89181 5.85824 5.91842C5.80323 5.97292 5.75054 6.00288 5.71922 6.01719C5.69086 6.03014 5.68222 6.02931 5.70777 6.0242C5.73301 6.01915 5.77824 6.01253 5.85138 6.00757C5.9238 6.00265 6.01352 6 6.12552 6V5V4C5.85521 4 5.57373 4.01139 5.3155 4.06305C5.0552 4.11511 4.72494 4.22589 4.45071 4.49755C4.16337 4.78219 4.05317 5.1272 4.01678 5.41995C3.98273 5.69389 4.00596 5.97744 4.03928 6.23042L5.03072 6.09986ZM17.9693 6.09986L18.9607 6.23042C18.994 5.97744 19.0173 5.69389 18.9832 5.41995C18.9468 5.1272 18.8366 4.78219 18.5493 4.49755C18.2751 4.22589 17.9448 4.11511 17.6845 4.06305C17.4263 4.01139 17.1448 4 16.8745 4V5V6C16.9865 6 17.0762 6.00265 17.1486 6.00757C17.2218 6.01253 17.267 6.01915 17.2922 6.0242C17.3178 6.02931 17.3091 6.03014 17.2808 6.01719C17.2495 6.00288 17.1968 5.97292 17.1418 5.91842C17.1149 5.89181 17.0908 5.86264 17.0702 5.83191C17.0496 5.80134 17.0344 5.77219 17.0234 5.74657C17.0018 5.69637 16.9982 5.66447 16.9985 5.66668C16.9989 5.66961 17.0013 5.69384 16.999 5.74854C16.9967 5.80249 16.9904 5.87418 16.9778 5.96929L17.9693 6.09986ZM13.5 19L14.4996 19.0278L14.9456 2.96904L13.946 2.94128L12.9464 2.91352L12.5004 18.9722L13.5 19ZM14.9443 2V3H19.0014V2V1H14.9443V2ZM13.946 2.94128L14.9443 3V3V2V1C13.8853 1 13.0099 1.82543 12.9477 2.88256L13.946 2.94128ZM6 10L6.8779 10.4789C6.89867 10.4408 7.17647 10 8.09091 10V9V8C6.38716 8 5.46496 8.89257 5.1221 9.52115L6 10ZM8.09091 9V10C8.39961 10 8.53002 10.0473 8.57341 10.0669C8.60761 10.0824 8.63536 10.0999 8.71157 10.1817C8.75838 10.232 8.97524 10.4947 9.23702 10.6719C9.56278 10.8924 9.94183 11 10.3864 11V10V9C10.2854 9 10.3094 8.98263 10.3582 9.01564C10.3675 9.02199 10.3618 9.02021 10.3306 8.98801C10.2731 8.92863 10.2768 8.9277 10.1748 8.81827C10.0181 8.65007 9.77876 8.41755 9.3996 8.24556C9.02963 8.07774 8.60039 8 8.09091 8V9ZM10.3864 10V11C10.797 11 11.2086 10.9081 11.5698 10.8062C11.9318 10.7041 12.3257 10.5667 12.6799 10.4487C13.4351 10.1969 14.1126 10 14.75 10V9V8C13.751 8 12.7922 8.30306 12.0474 8.55132C11.6515 8.68328 11.3295 8.79593 11.0268 8.8813C10.7233 8.96693 10.5211 9 10.3864 9V10ZM14.75 9V10C15.3643 10 15.8932 10.1884 16.2789 10.3881C16.4699 10.4869 16.6184 10.5848 16.7154 10.6548C16.7636 10.6896 16.7983 10.7169 16.8183 10.7331C16.8282 10.7412 16.8345 10.7464 16.8368 10.7484C16.838 10.7494 16.8381 10.7496 16.8373 10.7489C16.8369 10.7485 16.8363 10.748 16.8354 10.7472C16.8349 10.7468 16.8344 10.7463 16.8338 10.7458C16.8335 10.7455 16.8332 10.7452 16.8329 10.745C16.8327 10.7448 16.8325 10.7446 16.8324 10.7445C16.8321 10.7443 16.8319 10.744 17.5 10C18.1681 9.25595 18.1679 9.25571 18.1676 9.25546C18.1675 9.25538 18.1672 9.25513 18.167 9.25495C18.1666 9.2546 18.1662 9.25424 18.1658 9.25386C18.1649 9.2531 18.164 9.25227 18.163 9.25139C18.161 9.24962 18.1587 9.24761 18.1562 9.24536C18.1511 9.24087 18.1448 9.23542 18.1374 9.2291C18.1226 9.21644 18.1033 9.20023 18.0796 9.18098C18.0323 9.14252 17.9672 9.09168 17.8854 9.03272C17.7225 8.91517 17.4903 8.76306 17.1983 8.61193C16.6182 8.31162 15.772 8 14.75 8V9ZM10.0089 16V15H10V16V17H10.0089V16Z" fill="#1C1917"/>
</svg>
