<svg width="24" height="24" viewBox="0 0 24 24" fill="none" xmlns="http://www.w3.org/2000/svg">
<path d="M11.25 7C11.25 7.41421 11.5858 7.75 12 7.75C12.4142 7.75 12.75 7.41421 12.75 7H12H11.25ZM14.4968 2.22769L14.6994 1.50559L14.4968 2.22769ZM17.7973 3.93305C18.1961 4.04498 18.6102 3.81242 18.7221 3.41362C18.834 3.01482 18.6015 2.60078 18.2027 2.48885L18 3.21095L17.7973 3.93305ZM6.74612 6.9238C6.70404 6.51173 6.33587 6.2118 5.9238 6.25388C5.51173 6.29596 5.2118 6.66413 5.25388 7.0762L6 7L6.74612 6.9238ZM7.1398 18.1606L7.88592 18.0844L7.1398 18.1606ZM18.7461 7.0762C18.7882 6.66413 18.4883 6.29596 18.0762 6.25388C17.6641 6.2118 17.296 6.51173 17.2539 6.9238L18 7L18.7461 7.0762ZM16.8602 18.1606L16.1141 18.0844L16.8602 18.1606ZM16.032 21.1813L15.5346 20.6199H15.5346L16.032 21.1813ZM7.96796 21.1813L8.46538 20.6199H8.46537L7.96796 21.1813ZM5 6.25C4.58579 6.25 4.25 6.58579 4.25 7C4.25 7.41421 4.58579 7.75 5 7.75V7V6.25ZM19 7.75C19.4142 7.75 19.75 7.41421 19.75 7C19.75 6.58579 19.4142 6.25 19 6.25V7V7.75ZM7 11.25C6.58579 11.25 6.25 11.5858 6.25 12C6.25 12.4142 6.58579 12.75 7 12.75V12V11.25ZM17 12.75C17.4142 12.75 17.75 12.4142 17.75 12C17.75 11.5858 17.4142 11.25 17 11.25V12V12.75ZM7 15.25C6.58579 15.25 6.25 15.5858 6.25 16C6.25 16.4142 6.58579 16.75 7 16.75V16V15.25ZM17 16.75C17.4142 16.75 17.75 16.4142 17.75 16C17.75 15.5858 17.4142 15.25 17 15.25V16V16.75ZM12 7H12.75V4.34832H12H11.25V7H12ZM14.4968 2.22769L14.2941 2.94979L17.7973 3.93305L18 3.21095L18.2027 2.48885L14.6994 1.50559L14.4968 2.22769ZM12 4.34832H12.75C12.75 3.81188 12.7739 3.4283 12.8275 3.15451C12.8818 2.87767 12.9494 2.80593 12.9609 2.79527C12.9648 2.79167 12.9739 2.78344 13.0032 2.77401C13.037 2.76315 13.1011 2.74999 13.2109 2.75C13.441 2.75003 13.7839 2.80658 14.2941 2.94979L14.4968 2.22769L14.6994 1.50559C14.1481 1.35085 13.6481 1.25005 13.211 1.25C12.7604 1.24995 12.3063 1.35816 11.9435 1.69303C11.5963 2.01355 11.4377 2.44697 11.3556 2.86595C11.2728 3.28798 11.25 3.7909 11.25 4.34832H12ZM6 7L5.25388 7.0762L6.39368 18.2368L7.1398 18.1606L7.88592 18.0844L6.74612 6.9238L6 7ZM18 7L17.2539 6.9238L16.1141 18.0844L16.8602 18.1606L17.6063 18.2368L18.7461 7.0762L18 7ZM16.8602 18.1606L16.1141 18.0844C16.0264 18.9429 15.9666 19.5136 15.8664 19.9368C15.7714 20.3378 15.6611 20.5079 15.5346 20.6199L16.032 21.1813L16.5294 21.7426C16.9744 21.3483 17.1925 20.8462 17.326 20.2825C17.4542 19.741 17.5228 19.0546 17.6063 18.2368L16.8602 18.1606ZM7.1398 18.1606L6.39368 18.2368C6.4772 19.0546 6.54578 19.741 6.67399 20.2825C6.80748 20.8462 7.0256 21.3483 7.47055 21.7426L7.96796 21.1813L8.46537 20.6199C8.33895 20.5079 8.22857 20.3378 8.13363 19.9368C8.0334 19.5136 7.97359 18.9429 7.88592 18.0844L7.1398 18.1606ZM7.96796 21.1813L7.47055 21.7426C7.71547 21.9596 8.028 22.1146 8.3375 22.2302C8.65579 22.3491 9.01868 22.4437 9.40139 22.518C10.167 22.6665 11.0651 22.7434 11.9547 22.7496C12.844 22.7558 13.7508 22.6914 14.533 22.5457C15.2761 22.4072 16.0448 22.1721 16.5294 21.7426L16.032 21.1813L15.5346 20.6199C15.3769 20.7597 14.9636 20.9396 14.2583 21.071C13.592 21.1952 12.7839 21.2553 11.9651 21.2496C11.1465 21.244 10.3431 21.1727 9.68701 21.0454C9.35888 20.9818 9.08088 20.9067 8.86238 20.825C8.63509 20.7401 8.51492 20.6638 8.46538 20.6199L7.96796 21.1813ZM5 7V7.75H19V7V6.25H5V7ZM7 12V12.75H17V12V11.25H7V12ZM7 16V16.75H17V16V15.25H7V16Z" fill="#1C1917"/>
</svg>
