<svg width="24" height="24" viewBox="0 0 24 24" fill="none" xmlns="http://www.w3.org/2000/svg">
<path d="M20.8306 15.581L21.1662 16.2518V16.2518L20.8306 15.581ZM18.4697 16.7625L18.8053 17.4332L18.4697 16.7625ZM5.53031 16.7625L5.86594 16.0918H5.86594L5.53031 16.7625ZM3.16941 15.581L3.50504 14.9103H3.50504L3.16941 15.581ZM5.98205 17.026L6.47863 16.4639L6.47863 16.4639L5.98205 17.026ZM8.12986 19.7633L8.48398 19.1022L8.48398 19.1022L8.12986 19.7633ZM15.8701 19.7633L15.516 19.1022V19.1022L15.8701 19.7633ZM18.018 17.026L18.5145 17.588L18.5145 17.588L18.018 17.026ZM2.25 13C2.25 13.4142 2.58579 13.75 3 13.75C3.41421 13.75 3.75 13.4142 3.75 13H3H2.25ZM14.25 13C14.25 13.4142 14.5858 13.75 15 13.75C15.4142 13.75 15.75 13.4142 15.75 13H15H14.25ZM20.25 13C20.25 13.4142 20.5858 13.75 21 13.75C21.4142 13.75 21.75 13.4142 21.75 13H21H20.25ZM13.1159 8.05159C12.7601 8.26374 12.6437 8.72412 12.8558 9.07988C13.068 9.43564 13.5284 9.55206 13.8841 9.33992L13.5 8.69575L13.1159 8.05159ZM6.25 12.2222C6.25 12.6364 6.58579 12.9722 7 12.9722C7.41421 12.9722 7.75 12.6364 7.75 12.2222H7H6.25ZM10.25 14C10.25 14.4142 10.5858 14.75 11 14.75C11.4142 14.75 11.75 14.4142 11.75 14H11H10.25ZM8.27142 6.37763C8.17313 6.78001 8.41964 7.18589 8.82203 7.28418C9.22441 7.38248 9.63028 7.13596 9.72858 6.73358L9 6.55561L8.27142 6.37763ZM13.2369 4.08128L13.3903 3.34714L13.2369 4.08128ZM15.1835 7.82203C15.0852 8.22441 15.3318 8.63029 15.7341 8.72858C16.1365 8.82687 16.5424 8.58036 16.6407 8.17797L15.9121 8L15.1835 7.82203ZM2.70845 13V13.75H21.2916V13V12.25H2.70845V13ZM20.8306 15.581L20.495 14.9103L18.1341 16.0918L18.4697 16.7625L18.8053 17.4332L21.1662 16.2518L20.8306 15.581ZM13.8577 20V19.25H10.1423V20V20.75H13.8577V20ZM5.53031 16.7625L5.86594 16.0918L3.50504 14.9103L3.16941 15.581L2.83377 16.2518L5.19467 17.4332L5.53031 16.7625ZM5.53031 16.7625L5.19467 17.4332C5.31917 17.4955 5.3878 17.5301 5.4385 17.5588C5.461 17.5715 5.47317 17.5794 5.47946 17.5837C5.48246 17.5857 5.48409 17.587 5.48474 17.5875C5.48508 17.5877 5.48528 17.5879 5.48535 17.5879C5.48542 17.588 5.48545 17.588 5.48547 17.588L5.98205 17.026L6.47863 16.4639C6.29066 16.2979 6.06785 16.1928 5.86594 16.0918L5.53031 16.7625ZM10.1423 20V19.25C9.60502 19.25 9.25297 19.2492 8.97879 19.2237C8.72009 19.1995 8.58635 19.1571 8.48398 19.1022L8.12986 19.7633L7.77574 20.4245C8.11518 20.6063 8.46413 20.6822 8.83942 20.7172C9.19922 20.7508 9.63246 20.75 10.1423 20.75V20ZM13.8577 20V20.75C14.3675 20.75 14.8008 20.7508 15.1606 20.7172C15.5359 20.6822 15.8848 20.6063 16.2243 20.4245L15.8701 19.7633L15.516 19.1022C15.4136 19.1571 15.2799 19.1995 15.0212 19.2237C14.747 19.2492 14.395 19.25 13.8577 19.25V20ZM18.4697 16.7625L18.1341 16.0918C17.9322 16.1928 17.7093 16.2979 17.5214 16.4639L18.018 17.026L18.5145 17.588C18.5146 17.588 18.5146 17.588 18.5147 17.5879C18.5147 17.5879 18.5149 17.5877 18.5153 17.5875C18.5159 17.5869 18.5175 17.5857 18.5205 17.5837C18.5268 17.5793 18.539 17.5715 18.5615 17.5588C18.6122 17.5301 18.6808 17.4955 18.8053 17.4332L18.4697 16.7625ZM3.16941 15.581L3.50504 14.9103C3.51214 14.9139 3.47863 14.8966 3.40958 14.8303C3.34583 14.7692 3.27136 14.6852 3.19392 14.5823C3.03642 14.3728 2.89699 14.1254 2.8167 13.9051C2.72425 13.6514 2.76085 13.5772 2.7443 13.6209C2.72623 13.6686 2.685 13.7201 2.63488 13.7486C2.5979 13.7697 2.60509 13.75 2.70845 13.75V13V12.25C2.4319 12.25 2.14715 12.3003 1.89281 12.445C1.62533 12.5973 1.44134 12.8264 1.34169 13.0892C1.16201 13.5632 1.2803 14.07 1.40735 14.4187C1.54657 14.8007 1.76447 15.1772 1.99509 15.4838C2.2097 15.7692 2.5043 16.0869 2.83377 16.2518L3.16941 15.581ZM21.2916 13V13.75C21.3949 13.75 21.4021 13.7697 21.3651 13.7486C21.315 13.7201 21.2738 13.6686 21.2557 13.6209C21.2392 13.5772 21.2758 13.6514 21.1833 13.9051C21.103 14.1254 20.9636 14.3728 20.8061 14.5823C20.7286 14.6852 20.6542 14.7692 20.5904 14.8303C20.5214 14.8966 20.4879 14.9139 20.495 14.9103L20.8306 15.581L21.1662 16.2518C21.4957 16.0869 21.7903 15.7692 22.0049 15.4838C22.2355 15.1772 22.4534 14.8007 22.5926 14.4187C22.7197 14.07 22.838 13.5632 22.6583 13.0892C22.5587 12.8264 22.3747 12.5973 22.1072 12.445C21.8528 12.3003 21.5681 12.25 21.2916 12.25V13ZM8.12986 19.7633L8.48398 19.1022C8.13419 18.9149 7.90503 18.5969 7.62284 18.0951C7.37055 17.6464 7.03829 16.9584 6.47863 16.4639L5.98205 17.026L5.48546 17.588C5.80379 17.8693 5.99063 18.2528 6.31536 18.8303C6.61018 19.3546 7.01594 20.0175 7.77574 20.4245L8.12986 19.7633ZM15.8701 19.7633L16.2243 20.4245C16.9841 20.0175 17.3898 19.3546 17.6846 18.8303C18.0094 18.2528 18.1962 17.8693 18.5145 17.588L18.018 17.026L17.5214 16.4639C16.9617 16.9584 16.6294 17.6464 16.3772 18.0951C16.095 18.5969 15.8658 18.9149 15.516 19.1022L15.8701 19.7633ZM3 13H3.75C3.75 10.1005 6.1005 7.75 9 7.75V7V6.25C5.27208 6.25 2.25 9.27208 2.25 13H3ZM9 7V7.75C11.8995 7.75 14.25 10.1005 14.25 13H15H15.75C15.75 9.27208 12.7279 6.25 9 6.25V7ZM16.03 8V8.75C18.3564 8.75 20.25 10.6485 20.25 13H21H21.75C21.75 9.82863 19.1933 7.25 16.03 7.25V8ZM13.5 8.69575L13.8841 9.33992C14.5125 8.96518 15.2453 8.75 16.03 8.75V8V7.25C14.9668 7.25 13.9697 7.54246 13.1159 8.05159L13.5 8.69575ZM7 12.2222H7.75C7.75 11.3329 8.38202 10.75 9 10.75V10V9.25C7.40884 9.25 6.25 10.657 6.25 12.2222H7ZM9 10V10.75C9.61798 10.75 10.25 11.3329 10.25 12.2222H11H11.75C11.75 10.657 10.5912 9.25 9 9.25V10ZM11 12.2222H10.25V14H11H11.75V12.2222H11ZM9 6.55561L9.72858 6.73358C10.0528 5.40623 11.5235 4.48943 13.0835 4.81542L13.2369 4.08128L13.3903 3.34714C11.1329 2.87541 8.80967 4.1742 8.27142 6.37763L9 6.55561ZM13.2369 4.08128L13.0835 4.81542C14.6292 5.13843 15.5019 6.51857 15.1835 7.82203L15.9121 8L16.6407 8.17797C17.1848 5.95065 15.662 3.82185 13.3903 3.34714L13.2369 4.08128Z" fill="#1C1917"/>
</svg>
