<svg width="24" height="24" viewBox="0 0 24 24" fill="none" xmlns="http://www.w3.org/2000/svg">
<path d="M21 7.99951L20.4004 8.45002L21 7.99951ZM8 13V13.75H8.0092L8.01839 13.7498L8 13ZM14.2356 15.167L13.7873 15.7682L13.8035 15.7803L13.8204 15.7916L14.2356 15.167ZM14.2356 19.167L13.7873 19.7682L13.8035 19.7803L13.8204 19.7916L14.2356 19.167ZM8 17V17.75H8.0092L8.01839 17.7498L8 17ZM22 11H21.25C21.25 13.3472 19.3472 15.25 17 15.25V16V16.75C20.1756 16.75 22.75 14.1756 22.75 11H22ZM2 10.5H2.75C2.75 9.10279 3.93429 7.67237 5.87886 6.53418C7.7794 5.42176 10.15 4.75 12 4.75V4V3.25C9.84998 3.25 7.2206 4.01078 5.12114 5.23963C3.06571 6.44271 1.25 8.26229 1.25 10.5H2ZM21 7.99951L20.4004 8.45002C20.9341 9.16033 21.25 10.0422 21.25 11H22H22.75C22.75 9.70616 22.3218 8.51018 21.5996 7.54901L21 7.99951ZM12 4V4.75C15.826 4.75 18.45 5.8541 20.4004 8.45002L21 7.99951L21.5996 7.54901C19.2991 4.48697 16.174 3.25 12 3.25V4ZM4.5 13V13.75H8V13V12.25H4.5V13ZM17 16V15.25C16.1301 15.25 15.3234 14.9895 14.6508 14.5424L14.2356 15.167L13.8204 15.7916C14.7315 16.3972 15.8257 16.75 17 16.75V16ZM8 13L8.01839 13.7498C9.1894 13.721 11.6979 14.2103 13.7873 15.7682L14.2356 15.167L14.6839 14.5657C12.3021 12.7897 9.45808 12.214 7.98161 12.2502L8 13ZM2 10.5H1.25C1.25 12.2949 2.70507 13.75 4.5 13.75V13V12.25C3.5335 12.25 2.75 11.4665 2.75 10.5H2ZM22 15H21.25C21.25 17.3472 19.3472 19.25 17 19.25V20V20.75C20.1756 20.75 22.75 18.1756 22.75 15H22ZM2 10.5H1.25V11H2H2.75V10.5H2ZM17 20V19.25C16.1301 19.25 15.3234 18.9895 14.6508 18.5424L14.2356 19.167L13.8204 19.7916C14.7315 20.3972 15.8257 20.75 17 20.75V20ZM8 17L8.01839 17.7498C9.1894 17.721 11.6979 18.2103 13.7873 19.7682L14.2356 19.167L14.6839 18.5657C12.3021 16.7897 9.45808 16.214 7.98161 16.2502L8 17ZM22 15H22.75V11H22H21.25V15H22ZM2 11H1.25C1.25 12.393 1.24841 13.5132 1.36652 14.3918C1.48754 15.2919 1.74643 16.0497 2.34835 16.6517L2.87868 16.1213L3.40901 15.591C3.13225 15.3142 2.9518 14.9257 2.85315 14.1919C2.75159 13.4365 2.75 12.4354 2.75 11H2ZM8 17V16.25C6.56458 16.25 5.56347 16.2484 4.80812 16.1469C4.07434 16.0482 3.68577 15.8678 3.40901 15.591L2.87868 16.1213L2.34835 16.6517C2.95027 17.2536 3.70814 17.5125 4.60825 17.6335C5.48678 17.7516 6.60699 17.75 8 17.75V17ZM18.5 11H17.75C17.75 11.4142 17.4142 11.75 17 11.75V12.5V13.25C18.2426 13.25 19.25 12.2426 19.25 11H18.5ZM17 12.5V11.75C16.5858 11.75 16.25 11.4142 16.25 11H15.5H14.75C14.75 12.2426 15.7574 13.25 17 13.25V12.5ZM15.5 11H16.25C16.25 10.5858 16.5858 10.25 17 10.25V9.5V8.75C15.7574 8.75 14.75 9.75736 14.75 11H15.5ZM17 9.5V10.25C17.4142 10.25 17.75 10.5858 17.75 11H18.5H19.25C19.25 9.75736 18.2426 8.75 17 8.75V9.5Z" fill="#1C1917"/>
</svg>
