<svg width="24" height="24" viewBox="0 0 24 24" fill="none" xmlns="http://www.w3.org/2000/svg">
<path d="M20 13C20 16.0024 20 17.5036 19.1213 18.4363C17.0344 20.6515 6.71606 20.3867 4.87868 18.4363C4 17.5036 4 16.0024 4 13M6.99609 12C6.99609 9.47222 7.8828 4.56415 12.9961 4M15 12C15 10.0614 15.5118 6.73584 18 5M2.03855 12.6325C2.47653 8.7964 4.4529 4 12.04 4C19.6269 4 21.5448 8.7961 21.9641 12.6322C22.1436 14.2742 21.6586 14.2494 20.3076 13.5357C18.2639 12.456 15.5657 11.766 12.04 11.766C8.50919 11.766 5.76039 12.458 3.69248 13.5405C2.33921 14.2488 1.851 14.2752 2.03855 12.6325Z" stroke="#1C1917" stroke-width="1.5"/>
</svg>
