<svg width="24" height="24" viewBox="0 0 24 24" fill="none" xmlns="http://www.w3.org/2000/svg">
<path d="M2.53353 16.0723L1.59032 15.7402L2.53353 16.0723ZM21.4665 16.0723L22.4097 15.7402L21.4665 16.0723ZM2.34852 19.159L3.15989 18.5745H3.15989L2.34852 19.159ZM21.6515 19.159L20.8401 18.5745L21.6515 19.159ZM16.6438 5.64417L16.572 6.64159L16.6438 5.64417ZM16.8478 5.65884L16.9195 4.66142L16.9195 4.66142L16.8478 5.65884ZM7.15218 5.65884L7.2239 6.65627L7.2239 6.65627L7.15218 5.65884ZM7.35624 5.64417L7.28451 4.64674L7.28451 4.64674L7.35624 5.64417ZM9.50953 4.83203L8.90048 4.0389V4.0389L9.50953 4.83203ZM3.80765 8.80334L2.81155 8.71512V8.71512L3.80765 8.80334ZM2.90986 10.7778L2.18331 10.0907H2.18331L2.90986 10.7778ZM20.1924 8.80334L21.1885 8.71512V8.71512L20.1924 8.80334ZM21.0901 10.7778L21.8167 10.0907V10.0907L21.0901 10.7778ZM14.4905 4.83203L13.8814 5.62516V5.62516L14.4905 4.83203ZM20.5334 14.3944C20.1989 14.8339 20.2841 15.4613 20.7236 15.7958C21.1631 16.1302 21.7905 16.0451 22.1249 15.6056L21.3292 15L20.5334 14.3944ZM1.87506 15.6056C2.20952 16.0451 2.83693 16.1302 3.27643 15.7958C3.71592 15.4613 3.80107 14.8339 3.46661 14.3944L2.67083 15L1.87506 15.6056ZM16.0078 15C16.5601 15 17.0078 14.5523 17.0078 14C17.0078 13.4477 16.5601 13 16.0078 13V14V15ZM15.9988 13C15.4465 13 14.9988 13.4477 14.9988 14C14.9988 14.5523 15.4465 15 15.9988 15V14V13ZM13.0078 17C13.5601 17 14.0078 16.5523 14.0078 16C14.0078 15.4477 13.5601 15 13.0078 15V16V17ZM12.9988 15C12.4465 15 11.9988 15.4477 11.9988 16C11.9988 16.5523 12.4465 17 12.9988 17V16V15ZM18.0078 18C18.5601 18 19.0078 17.5523 19.0078 17C19.0078 16.4477 18.5601 16 18.0078 16V17V18ZM17.9988 16C17.4465 16 16.9988 16.4477 16.9988 17C16.9988 17.5523 17.4465 18 17.9988 18V17V16ZM2.53353 16.0723L3.47675 16.4045C4.81131 12.615 8.15799 10 12 10V9V8C7.20018 8 3.16859 11.2587 1.59032 15.7402L2.53353 16.0723ZM12 9V10C15.842 10 19.1887 12.615 20.5233 16.4045L21.4665 16.0723L22.4097 15.7402C20.8314 11.2587 16.7998 8 12 8V9ZM18.0788 20V19H5.92117V20V21H18.0788V20ZM2.53353 16.0723L1.59032 15.7402C1.34143 16.4469 1.09492 17.1297 1.02288 17.7456C0.939824 18.4556 1.07824 19.1066 1.53715 19.7436L2.34852 19.159L3.15989 18.5745C3.01293 18.3705 2.98023 18.2267 3.00934 17.9779C3.04945 17.635 3.19839 17.1949 3.47675 16.4045L2.53353 16.0723ZM5.92117 20V19C4.89382 19 4.26062 18.9961 3.80166 18.9115C3.41147 18.8395 3.27339 18.732 3.15989 18.5745L2.34852 19.159L1.53715 19.7436C2.02952 20.427 2.68883 20.74 3.43904 20.8783C4.12047 21.0039 4.97067 21 5.92117 21V20ZM21.4665 16.0723L20.5233 16.4045C20.8016 17.1949 20.9505 17.635 20.9907 17.9779C21.0198 18.2267 20.9871 18.3705 20.8401 18.5745L21.6515 19.159L22.4628 19.7436C22.9218 19.1066 23.0602 18.4556 22.9771 17.7456C22.9051 17.1297 22.6586 16.4469 22.4097 15.7402L21.4665 16.0723ZM18.0788 20V21C19.0293 21 19.8795 21.0039 20.561 20.8783C21.3112 20.74 21.9705 20.427 22.4628 19.7436L21.6515 19.159L20.8401 18.5745C20.7266 18.732 20.5885 18.8395 20.1983 18.9115C19.7394 18.9961 19.1062 19 18.0788 19V20ZM16.6438 5.64417L16.572 6.64159L16.7761 6.65627L16.8478 5.65884L16.9195 4.66142L16.7155 4.64674L16.6438 5.64417ZM7.15218 5.65884L7.2239 6.65627L7.42796 6.64159L7.35624 5.64417L7.28451 4.64674L7.08046 4.66142L7.15218 5.65884ZM7.35624 5.64417L7.42796 6.64159C8.407 6.57119 9.34837 6.2166 10.1186 5.62516L9.50953 4.83203L8.90048 4.0389C8.44597 4.38791 7.87965 4.60395 7.28451 4.64674L7.35624 5.64417ZM3.80765 8.80334L4.80375 8.89155C4.90569 7.74044 5.89652 6.75171 7.2239 6.65627L7.15218 5.65884L7.08046 4.66142C4.8515 4.8217 3.00674 6.51102 2.81155 8.71512L3.80765 8.80334ZM2.90986 10.7778L3.6364 11.4649C4.30536 10.7576 4.7187 9.85196 4.80375 8.89155L3.80765 8.80334L2.81155 8.71512C2.76709 9.21714 2.54967 9.70331 2.18331 10.0907L2.90986 10.7778ZM20.1924 8.80334L19.1963 8.89155C19.2813 9.85196 19.6946 10.7576 20.3636 11.4649L21.0901 10.7778L21.8167 10.0907C21.4503 9.70331 21.2329 9.21714 21.1885 8.71512L20.1924 8.80334ZM16.8478 5.65884L16.7761 6.65627C18.1035 6.75171 19.0943 7.74044 19.1963 8.89155L20.1924 8.80334L21.1885 8.71512C20.9933 6.51103 19.1485 4.8217 16.9195 4.66142L16.8478 5.65884ZM14.4905 4.83203L13.8814 5.62516C14.6516 6.2166 15.593 6.57119 16.572 6.64159L16.6438 5.64417L16.7155 4.64674C16.1204 4.60395 15.554 4.38791 15.0995 4.0389L14.4905 4.83203ZM14.4905 4.83203L15.0995 4.0389C13.2957 2.6537 10.7043 2.6537 8.90048 4.0389L9.50953 4.83203L10.1186 5.62516C11.2041 4.79161 12.7959 4.79161 13.8814 5.62516L14.4905 4.83203ZM21.0901 10.7778L20.3636 11.4649C21.1542 12.3009 21.2051 13.5117 20.5334 14.3944L21.3292 15L22.1249 15.6056C23.3893 13.9442 23.2809 11.6389 21.8167 10.0907L21.0901 10.7778ZM2.67083 15L3.46661 14.3944C2.79485 13.5117 2.84582 12.3009 3.6364 11.4649L2.90986 10.7778L2.18331 10.0907C0.719078 11.6389 0.610695 13.9442 1.87506 15.6056L2.67083 15ZM16.0078 14V13H15.9988V14V15H16.0078V14ZM13.0078 16V15H12.9988V16V17H13.0078V16ZM18.0078 17V16H17.9988V17V18H18.0078V17Z" fill="#1C1917"/>
</svg>
