<svg width="24" height="24" viewBox="0 0 24 24" fill="none" xmlns="http://www.w3.org/2000/svg">
<path d="M18.2551 10.0053C18.2551 10.4195 18.5909 10.7553 19.0051 10.7553C19.4193 10.7553 19.7551 10.4195 19.7551 10.0053H19.0051H18.2551ZM9.21875 10.0053C9.21875 10.4195 9.55454 10.7553 9.96875 10.7553C10.383 10.7553 10.7188 10.4195 10.7188 10.0053H9.96875H9.21875ZM13.7384 9.00476C13.7384 9.41897 14.0741 9.75476 14.4884 9.75476C14.9026 9.75476 15.2384 9.41897 15.2384 9.00476H14.4884H13.7384ZM15.2384 7.50423C15.2384 7.09001 14.9026 6.75423 14.4884 6.75423C14.0741 6.75423 13.7384 7.09001 13.7384 7.50423H14.4884H15.2384ZM6.65067 16.9031L7.2431 16.4432L7.2431 16.4432L6.65067 16.9031ZM2.16788 11.1287L1.57544 11.5886H1.57544L2.16788 11.1287ZM2.17375 10.1419L2.76068 10.6089L2.76068 10.6089L2.17375 10.1419ZM2.80366 9.35011L2.21673 8.88319H2.21673L2.80366 9.35011ZM3.84206 9.15839L4.22283 8.51224L3.84206 9.15839ZM7.81637 11.5004L8.19714 10.8543H8.19714L7.81637 11.5004ZM8.44444 11.4302L8.93508 11.9974L8.44444 11.4302ZM20.1819 11.3633L20.6887 10.8105L20.1819 11.3633ZM21.9925 16.714L21.2426 16.6977L21.2426 16.6978L21.9925 16.714ZM21.932 19.5056L22.6819 19.5218V19.5218L21.932 19.5056ZM6.80321 19.4597L7.55267 19.4315L6.80321 19.4597ZM6.71341 17.0754L7.46288 17.0472V17.0472L6.71341 17.0754ZM8.46537 21.2626L8.64813 20.5352H8.64813L8.46537 21.2626ZM8.21782 21.2004L8.03507 21.9278H8.03507L8.21782 21.2004ZM20.5895 21.2021L20.7795 21.9276L20.5895 21.2021ZM19.0051 10.0053H19.7551V6.50404H19.0051H18.2551V10.0053H19.0051ZM19.0051 6.50404H19.7551C19.7551 3.60107 17.3939 1.25244 14.4869 1.25244V2.00244V2.75244C16.5707 2.75244 18.2551 4.43469 18.2551 6.50404H19.0051ZM14.4869 2.00244V1.25244C11.58 1.25244 9.21875 3.60107 9.21875 6.50404H9.96875H10.7188C10.7188 4.43469 12.4032 2.75244 14.4869 2.75244V2.00244ZM9.96875 6.50404H9.21875V10.0053H9.96875H10.7188V6.50404H9.96875ZM14.4884 9.00476H15.2384V7.50423H14.4884H13.7384V9.00476H14.4884ZM6.65067 16.9031L7.2431 16.4432L2.76031 10.6687L2.16788 11.1287L1.57544 11.5886L6.05823 17.363L6.65067 16.9031ZM2.17375 10.1419L2.76068 10.6089L3.3906 9.81703L2.80366 9.35011L2.21673 8.88319L1.58682 9.67502L2.17375 10.1419ZM3.84206 9.15839L3.46129 9.80454L7.4356 12.1466L7.81637 11.5004L8.19714 10.8543L4.22283 8.51224L3.84206 9.15839ZM8.44444 11.4302L8.93508 11.9974C9.58061 11.4391 11.1197 10.4739 14.5352 10.4739V9.72394V8.97394C10.8059 8.97394 8.90519 10.0401 7.95381 10.8629L8.44444 11.4302ZM14.5352 9.72394V10.4739C16.5627 10.4739 18.4546 10.7972 19.675 11.9161L20.1819 11.3633L20.6887 10.8105C19.0262 9.2863 16.6277 8.97394 14.5352 8.97394V9.72394ZM20.1819 11.3633L19.675 11.9161C20.0179 12.2305 20.3706 12.4878 20.6813 13.1122C20.996 13.7448 21.2837 14.8091 21.2426 16.6977L21.9925 16.714L22.7423 16.7303C22.7867 14.6865 22.4805 13.361 22.0242 12.444C21.564 11.519 20.9686 11.0671 20.6887 10.8105L20.1819 11.3633ZM21.9925 16.714L21.2426 16.6978L21.1822 19.4893L21.932 19.5056L22.6819 19.5218L22.7423 16.7303L21.9925 16.714ZM6.80321 19.4597L7.55267 19.4315L7.46288 17.0472L6.71341 17.0754L5.96394 17.1037L6.05374 19.488L6.80321 19.4597ZM8.46537 21.2626L8.64813 20.5352L8.40058 20.473L8.21782 21.2004L8.03507 21.9278L8.28262 21.9899L8.46537 21.2626ZM20.5895 21.2021L20.3995 20.4766C16.5502 21.4846 12.5073 21.5048 8.64813 20.5352L8.46537 21.2626L8.28262 21.9899C12.3867 23.0211 16.686 22.9996 20.7795 21.9276L20.5895 21.2021ZM6.80321 19.4597L6.05374 19.488C6.09756 20.6515 6.90615 21.6441 8.03507 21.9278L8.21782 21.2004L8.40058 20.473C7.91509 20.351 7.57128 19.9256 7.55267 19.4315L6.80321 19.4597ZM7.81637 11.5004L7.4356 12.1466C7.94394 12.4461 8.5449 12.3349 8.93508 11.9974L8.44444 11.4302L7.95381 10.8629C7.99336 10.8287 8.08844 10.7902 8.19714 10.8543L7.81637 11.5004ZM21.932 19.5056L21.1822 19.4893C21.1722 19.9535 20.8544 20.3574 20.3995 20.4766L20.5895 21.2021L20.7795 21.9276C21.8794 21.6396 22.6573 20.659 22.6819 19.5218L21.932 19.5056ZM2.80366 9.35011L3.3906 9.81703C3.40673 9.79674 3.43721 9.79035 3.46129 9.80454L3.84206 9.15839L4.22283 8.51224C3.55575 8.11914 2.69938 8.27649 2.21673 8.88319L2.80366 9.35011ZM2.16788 11.1287L2.76031 10.6687C2.74644 10.6509 2.74657 10.6266 2.76068 10.6089L2.17375 10.1419L1.58682 9.67502C1.14202 10.2341 1.1373 11.0242 1.57544 11.5886L2.16788 11.1287ZM6.65067 16.9031L6.05823 17.363C6.00061 17.2888 5.9675 17.1981 5.96394 17.1037L6.71341 17.0754L7.46288 17.0472C7.45461 16.8276 7.37761 16.6164 7.2431 16.4432L6.65067 16.9031Z" fill="#1C1917"/>
</svg>
