<svg width="24" height="24" viewBox="0 0 24 24" fill="none" xmlns="http://www.w3.org/2000/svg">
<path d="M17 13.2308L16.6605 13.8996C16.8739 14.0079 17.1261 14.0079 17.3395 13.8996L17 13.2308ZM18.8182 12.7693L18.8182 13.5193H18.8182L18.8182 12.7693ZM19.7273 10.75C20.1415 10.75 20.4773 10.4142 20.4773 10C20.4773 9.58579 20.1415 9.25 19.7273 9.25V10V10.75ZM5.24561 5.75C5.65982 5.75 5.99561 5.41421 5.99561 5C5.99561 4.58579 5.65982 4.25 5.24561 4.25V5V5.75ZM4.70467 4.91465L4.93759 4.20173H4.93758L4.70467 4.91465ZM10.655 4.25C10.2407 4.25 9.90496 4.58579 9.90496 5C9.90496 5.41421 10.2407 5.75 10.655 5.75V5V4.25ZM10.428 22.75C10.8422 22.75 11.178 22.4142 11.178 22C11.178 21.5858 10.8422 21.25 10.428 21.25V22V22.75ZM13.3888 10L14.1112 9.7983V9.7983L13.3888 10ZM12.7718 10.6024C12.8709 11.0045 13.2773 11.2502 13.6795 11.1511C14.0817 11.0519 14.3273 10.6455 14.2282 10.2434L13.5 10.4229L12.7718 10.6024ZM12 17.3846H11.25C11.25 20.668 14.1831 22.75 17 22.75V22V21.25C14.7961 21.25 12.75 19.6394 12.75 17.3846H12ZM17 22V22.75C19.8169 22.75 22.75 20.668 22.75 17.3846H22H21.25C21.25 19.6394 19.2039 21.25 17 21.25V22ZM17 13.2308C17.3395 12.5621 17.3394 12.562 17.3392 12.5619C17.3392 12.5619 17.3391 12.5618 17.339 12.5618C17.3387 12.5617 17.3385 12.5616 17.3383 12.5614C17.3378 12.5612 17.3373 12.5609 17.3367 12.5606C17.3356 12.5601 17.3342 12.5594 17.3326 12.5586C17.3294 12.557 17.3253 12.5549 17.3203 12.5525C17.3104 12.5476 17.297 12.5411 17.2803 12.5332C17.2471 12.5175 17.2007 12.4961 17.143 12.471C17.0281 12.421 16.8662 12.3553 16.6723 12.2896C16.2936 12.1615 15.7515 12.0193 15.1818 12.0193V12.7693V13.5193C15.5212 13.5193 15.8882 13.6078 16.1914 13.7104C16.3384 13.7602 16.4606 13.8099 16.5445 13.8464C16.5862 13.8646 16.618 13.8793 16.638 13.8887C16.648 13.8935 16.655 13.8969 16.6588 13.8988C16.6608 13.8997 16.6619 13.9003 16.6621 13.9004C16.6623 13.9005 16.6622 13.9004 16.6619 13.9003C16.6618 13.9002 16.6616 13.9001 16.6614 13.9C16.6612 13.8999 16.6611 13.8999 16.661 13.8998C16.6609 13.8998 16.6608 13.8997 16.6607 13.8997C16.6606 13.8996 16.6605 13.8996 17 13.2308ZM15.1818 12.7693V12.0193C14.184 12.0193 13.1927 12.6668 12.4864 13.5795C11.7592 14.5192 11.25 15.8346 11.25 17.3846H12H12.75C12.75 16.1654 13.1498 15.1732 13.6727 14.4975C14.2164 13.7949 14.816 13.5193 15.1818 13.5193V12.7693ZM22 17.3846H22.75C22.75 15.8346 22.2408 14.5192 21.5136 13.5795C20.8073 12.6668 19.816 12.0193 18.8182 12.0193L18.8182 12.7693L18.8182 13.5193C19.184 13.5193 19.7836 13.7949 20.3273 14.4975C20.8502 15.1732 21.25 16.1654 21.25 17.3846H22ZM18.8182 12.7693L18.8182 12.0193C18.2485 12.0193 17.7064 12.1615 17.3277 12.2896C17.1338 12.3553 16.9719 12.421 16.857 12.471C16.7993 12.4961 16.7529 12.5175 16.7197 12.5332C16.703 12.5411 16.6896 12.5476 16.6797 12.5525C16.6747 12.5549 16.6706 12.557 16.6674 12.5586C16.6658 12.5594 16.6644 12.5601 16.6633 12.5606C16.6627 12.5609 16.6622 12.5612 16.6617 12.5614C16.6615 12.5616 16.6613 12.5617 16.661 12.5618C16.6609 12.5618 16.6608 12.5619 16.6608 12.5619C16.6606 12.562 16.6605 12.5621 17 13.2308C17.3395 13.8996 17.3394 13.8996 17.3393 13.8997C17.3392 13.8997 17.3391 13.8998 17.339 13.8998C17.3389 13.8999 17.3388 13.9 17.3386 13.9C17.3384 13.9001 17.3382 13.9002 17.3381 13.9003C17.3378 13.9004 17.3377 13.9005 17.3379 13.9004C17.3381 13.9003 17.3392 13.8997 17.3412 13.8988C17.345 13.8969 17.352 13.8935 17.362 13.8887C17.382 13.8793 17.4138 13.8646 17.4555 13.8464C17.5394 13.8099 17.6616 13.7602 17.8086 13.7105C18.1118 13.6078 18.4788 13.5193 18.8182 13.5193L18.8182 12.7693ZM17 13.2308H17.75C17.75 12.6833 17.9349 12.0308 18.2916 11.5329C18.6355 11.0527 19.1077 10.75 19.7273 10.75V10V9.25C18.5286 9.25 17.6372 9.87043 17.0721 10.6594C16.5196 11.4307 16.25 12.3937 16.25 13.2308H17ZM5.24561 2V2.75H10.655V2V1.25H5.24561V2ZM3.6228 3.5H4.3728C4.3728 3.14027 4.70691 2.75 5.24561 2.75V2V1.25C3.99181 1.25 2.8728 2.20288 2.8728 3.5H3.6228ZM5.24561 5V4.25C5.13548 4.25 5.032 4.23257 4.93759 4.20173L4.70467 4.91465L4.47176 5.62756C4.71573 5.70727 4.97639 5.75 5.24561 5.75V5ZM4.70467 4.91465L4.93758 4.20173C4.57505 4.08329 4.3728 3.7878 4.3728 3.5H3.6228H2.8728C2.8728 4.51842 3.57371 5.33417 4.47176 5.62756L4.70467 4.91465ZM12.2778 3.5H11.5278C11.5278 3.79161 11.3195 4.09182 10.9481 4.20646L11.1693 4.92311L11.3904 5.63975C12.3073 5.35678 13.0278 4.53293 13.0278 3.5H12.2778ZM11.1693 4.92311L10.9481 4.20646C10.8577 4.23434 10.7593 4.25 10.655 4.25V5V5.75C10.9101 5.75 11.1576 5.71163 11.3904 5.63975L11.1693 4.92311ZM12.2778 3.5H13.0278C13.0278 2.20288 11.9088 1.25 10.655 1.25V2V2.75C11.1937 2.75 11.5278 3.14027 11.5278 3.5H12.2778ZM10.428 22V21.25H6.32748V22V22.75H10.428V22ZM2 18H2.75V13.7771H2H1.25V18H2ZM6.32748 22V21.25C5.44729 21.25 4.78908 21.2067 4.29013 21.1054C3.79655 21.0051 3.51228 20.8585 3.33022 20.6902C2.96291 20.3507 2.75 19.6797 2.75 18H2H1.25C1.25 19.6296 1.4107 20.9586 2.31206 21.7918C2.76433 22.2098 3.33817 22.4427 3.99164 22.5754C4.63974 22.707 5.41754 22.75 6.32748 22.75V22ZM2 13.7771H2.75C2.75 10.5679 3.77417 8.21117 5.36434 5.27149L4.70467 4.91465L4.045 4.55781C2.42098 7.56007 1.25 10.1868 1.25 13.7771H2ZM11.1693 4.92311L10.5096 5.27994C11.4604 7.03767 12.2109 8.57024 12.6665 10.2017L13.3888 10L14.1112 9.7983C13.6081 7.9965 12.789 6.34119 11.8289 4.56627L11.1693 4.92311ZM13.3888 10L12.6665 10.2017C12.7036 10.3346 12.7387 10.4681 12.7718 10.6024L13.5 10.4229L14.2282 10.2434C14.1914 10.0939 14.1523 9.9456 14.1112 9.7983L13.3888 10Z" fill="#1C1917"/>
</svg>
