<svg width="24" height="24" viewBox="0 0 24 24" fill="none" xmlns="http://www.w3.org/2000/svg">
<path d="M16.5051 3.5843C16.2359 3.26951 15.7625 3.23258 15.4477 3.50181C15.1329 3.77103 15.096 4.24447 15.3652 4.55925L15.9352 4.07178L16.5051 3.5843ZM5.31007 14.7482C5.04984 14.4259 4.57764 14.3757 4.25538 14.6359C3.93311 14.8961 3.88282 15.3683 4.14305 15.6906L4.72656 15.2194L5.31007 14.7482ZM13.4065 6.41039L12.8962 5.86079L12.8962 5.86079L13.4065 6.41039ZM16.4678 3.56782L16.9781 4.11742V4.11742L16.4678 3.56782ZM19.4813 3.95215L20.148 3.60865V3.60865L19.4813 3.95215ZM17.8928 17.731L18.4066 18.2772C18.4152 18.2692 18.4236 18.2609 18.4317 18.2525L17.8928 17.731ZM3.9537 19.3582L3.58966 20.0139H3.58966L3.9537 19.3582ZM8.28906 11.7694L8.38486 11.0256H8.38485L8.28906 11.7694ZM9.93097 11.9809L10.0268 11.237L9.93097 11.9809ZM10.5738 11.5866L11.2804 11.8381L11.2804 11.8381L10.5738 11.5866ZM10.8243 10.8828L11.1675 10.216C10.9752 10.117 10.7495 10.1059 10.5484 10.1854C10.3472 10.265 10.1903 10.4276 10.1177 10.6313L10.8243 10.8828ZM13.3218 10.1656L13.9201 10.6178L13.3218 10.1656ZM13.404 6.72847L13.9657 6.23154L13.9657 6.23153L13.404 6.72847ZM3.63095 16.3737L4.17861 16.8861V16.8861L3.63095 16.3737ZM5.02981 14.8786L4.49321 14.3546C4.48948 14.3584 4.4858 14.3623 4.48215 14.3662L5.02981 14.8786ZM7.95123 11.8869L8.48783 12.4108L7.95123 11.8869ZM17.9695 9.70698H17.2195C17.2195 13.9166 14.1096 17.214 10.4095 17.214V17.964V18.714C15.0599 18.714 18.7195 14.6178 18.7195 9.70698H17.9695ZM15.9352 4.07178L15.3652 4.55925C16.5105 5.8983 17.2195 7.70659 17.2195 9.70698H17.9695H18.7195C18.7195 7.35062 17.8838 5.19621 16.5051 3.5843L15.9352 4.07178ZM10.4095 17.964V17.214C8.33181 17.214 6.53794 16.2688 5.31007 14.7482L4.72656 15.2194L4.14305 15.6906C5.63608 17.5395 7.84821 18.714 10.4095 18.714V17.964ZM13.4065 6.41039L13.9168 6.95999L16.9781 4.11742L16.4678 3.56782L15.9574 3.01822L12.8962 5.86079L13.4065 6.41039ZM19.4813 3.95215L18.8146 4.29565C20.5208 7.60739 21.5486 12.8744 17.3538 17.2094L17.8928 17.731L18.4317 18.2525C23.2672 13.2554 21.9974 7.19816 20.148 3.60865L19.4813 3.95215ZM17.8928 17.731L17.3789 17.1847C12.8099 21.4825 7.61377 20.5322 4.31773 18.7024L3.9537 19.3582L3.58966 20.0139C7.24001 22.0404 13.2039 23.1712 18.4066 18.2772L17.8928 17.731ZM8.28906 11.7694L8.19327 12.5133L9.83518 12.7247L9.93097 11.9809L10.0268 11.237L8.38486 11.0256L8.28906 11.7694ZM10.5738 11.5866L11.2804 11.8381L11.5309 11.1344L10.8243 10.8828L10.1177 10.6313L9.86723 11.3351L10.5738 11.5866ZM10.8243 10.8828L10.4811 11.5497C10.8533 11.7413 11.4325 11.8539 12.0422 11.7609C12.6815 11.6633 13.3777 11.3356 13.9201 10.6178L13.3218 10.1656L12.7234 9.71344C12.4398 10.0887 12.1084 10.2334 11.8159 10.278C11.4939 10.3272 11.2374 10.2519 11.1675 10.216L10.8243 10.8828ZM13.3218 10.1656L13.9201 10.6178C14.4214 9.95447 14.6482 9.12354 14.6579 8.35832C14.6676 7.60584 14.4669 6.79813 13.9657 6.23154L13.404 6.72847L12.8422 7.22541C13.0181 7.42426 13.1647 7.82131 13.1581 8.33914C13.1516 8.84422 12.9987 9.34914 12.7234 9.71344L13.3218 10.1656ZM3.63095 16.3737L4.17861 16.8861L5.57747 15.391L5.02981 14.8786L4.48215 14.3662L3.08328 15.8613L3.63095 16.3737ZM5.02981 14.8786L5.56641 15.4026L8.48783 12.4108L7.95123 11.8869L7.41464 11.3629L4.49321 14.3546L5.02981 14.8786ZM8.28906 11.7694L8.38485 11.0256C8.02649 10.9794 7.66716 11.1043 7.41464 11.3629L7.95123 11.8869L8.48783 12.4108C8.4111 12.4894 8.302 12.5273 8.19327 12.5133L8.28906 11.7694ZM3.9537 19.3582L4.31773 18.7024C3.73599 18.3795 3.58006 17.5258 4.17861 16.8861L3.63095 16.3737L3.08328 15.8613C1.9656 17.0558 1.9748 19.1174 3.58966 20.0139L3.9537 19.3582ZM16.4678 3.56782L16.9781 4.11742C17.6309 3.51128 18.5011 3.68724 18.8146 4.29566L19.4813 3.95215L20.148 3.60865C19.2875 1.93856 17.1832 1.87997 15.9574 3.01822L16.4678 3.56782ZM9.93097 11.9809L9.83518 12.7247C10.4653 12.8059 11.0672 12.437 11.2804 11.8381L10.5738 11.5866L9.86723 11.3351C9.89088 11.2686 9.95743 11.2281 10.0268 11.237L9.93097 11.9809ZM13.4065 6.41039L12.8962 5.86079C12.4518 6.27339 12.5454 6.88989 12.8422 7.22541L13.404 6.72847L13.9657 6.23153C14.1005 6.38387 14.1819 6.71382 13.9168 6.95998L13.4065 6.41039Z" fill="#1C1917"/>
</svg>
