<svg width="24" height="24" viewBox="0 0 24 24" fill="none" xmlns="http://www.w3.org/2000/svg">
<path d="M14.9298 10.6591C14.5232 10.7382 14.2578 11.132 14.337 11.5386C14.4161 11.9451 14.8099 12.2106 15.2165 12.1314L15.0731 11.3952L14.9298 10.6591ZM11.858 3.80353L12.6072 3.83875V3.83875L11.858 3.80353ZM10.7606 2V1.25H8.19544L10.3566 2.63187L10.7606 2ZM15.5911 5.75202L14.8588 5.58988L15.5911 5.75202ZM13.437 7.27709C13.088 7.50023 12.986 7.96402 13.2091 8.31299C13.4323 8.66196 13.896 8.76397 14.245 8.54083L13.841 7.90896L13.437 7.27709ZM4.00942 15.4625C4.26485 15.7886 4.73626 15.8458 5.06234 15.5904C5.38842 15.335 5.44569 14.8636 5.19026 14.5375L4.59984 15L4.00942 15.4625ZM6.49945 10.3221L6.63067 11.0605H6.63067L6.49945 10.3221ZM18.7953 14.5375C18.5398 14.8636 18.5971 15.335 18.9232 15.5904C19.2493 15.8458 19.7207 15.7886 19.9761 15.4625L19.3857 15L18.7953 14.5375ZM8.53789 11.5154C8.86414 11.7706 9.33551 11.713 9.59073 11.3868C9.84594 11.0606 9.78836 10.5892 9.46211 10.334L9 10.9247L8.53789 11.5154ZM3.71787 14.7828C3.59793 14.3864 3.1793 14.1622 2.78283 14.2821C2.38636 14.4021 2.16219 14.8207 2.28213 15.2172L3 15L3.71787 14.7828ZM3.82811 17.7374L3.11024 17.9545L3.82811 17.7374ZM21.7179 15.2172C21.8378 14.8207 21.6136 14.4021 21.2172 14.2821C20.8207 14.1622 20.4021 14.3864 20.2821 14.7828L21 15L21.7179 15.2172ZM20.1719 17.7374L19.454 17.5202L20.1719 17.7374ZM18.4437 21.4089L17.9966 20.8067L17.9966 20.8067L18.4437 21.4089ZM5.55635 21.4089L6.00335 20.8067L6.00335 20.8067L5.55635 21.4089ZM2 14.25C1.58579 14.25 1.25 14.5858 1.25 15C1.25 15.4142 1.58579 15.75 2 15.75V15V14.25ZM22 15.75C22.4142 15.75 22.75 15.4142 22.75 15C22.75 14.5858 22.4142 14.25 22 14.25V15V15.75ZM16.9214 10.2725L16.3309 9.81012C15.9977 10.2356 15.5042 10.5472 14.9298 10.6591L15.0731 11.3952L15.2165 12.1314C16.1456 11.9505 16.9564 11.4442 17.5118 10.735L16.9214 10.2725ZM11.858 3.80353L12.6072 3.83875C12.6505 2.91774 12.1912 2.02452 11.1646 1.36813L10.7606 2L10.3566 2.63187C11.0032 3.04531 11.1231 3.46403 11.1088 3.76831L11.858 3.80353ZM10.7606 2V2.75C12.1739 2.75 13.3134 3.16945 14.0306 3.74413C14.7461 4.31755 14.9923 4.98692 14.8588 5.58988L15.5911 5.75202L16.3233 5.91416C16.6133 4.60473 15.9975 3.39809 14.9686 2.57359C13.9412 1.75037 12.4538 1.25 10.7606 1.25V2ZM15.5911 5.75202L14.8588 5.58988C14.7502 6.08038 14.3614 6.686 13.437 7.27709L13.841 7.90896L14.245 8.54083C15.3882 7.80989 16.1032 6.90862 16.3233 5.91416L15.5911 5.75202ZM4.59984 15L5.19026 14.5375C4.63645 13.8305 4.64968 13.0571 4.98207 12.3879C5.33181 11.6837 6.00123 11.1724 6.63067 11.0605L6.49945 10.3221L6.36823 9.58365C5.20937 9.78957 4.17075 10.6493 3.63864 11.7206C3.08918 12.8269 3.04676 14.2336 4.00942 15.4625L4.59984 15ZM6.49945 10.3221L7.23979 10.2021C7.05678 9.07278 7.26891 8.45236 7.56616 8.05825C7.88953 7.62953 8.40726 7.33739 9.10067 7.04906C9.72317 6.79021 10.5965 6.50253 11.2425 6.09309C11.9638 5.63597 12.555 4.94744 12.6072 3.83875L11.858 3.80353L11.1088 3.76831C11.0855 4.26386 10.8661 4.55579 10.4396 4.8261C9.93782 5.14408 9.32618 5.33078 8.52475 5.66403C7.79423 5.96779 6.94904 6.38545 6.36861 7.15499C5.76207 7.95915 5.52954 9.02545 5.75911 10.4421L6.49945 10.3221ZM15.5911 5.75202L15.3247 6.45312C15.8914 6.66846 16.4024 7.20193 16.6344 7.86105C16.859 8.49935 16.8061 9.20336 16.3309 9.81012L16.9214 10.2725L17.5118 10.735C18.3447 9.67155 18.4201 8.41682 18.0493 7.36315C17.6859 6.33032 16.8778 5.4386 15.8575 5.05093L15.5911 5.75202ZM16.9214 10.2725L16.9213 11.0225C17.5908 11.0226 18.4194 11.487 18.8964 12.2198C19.3407 12.9025 19.4287 13.7288 18.7953 14.5375L19.3857 15L19.9761 15.4625C21.0674 14.0694 20.8894 12.5321 20.1535 11.4015C19.4503 10.3211 18.1843 9.52263 16.9214 9.52254L16.9214 10.2725ZM6.49945 10.3221L6.63067 11.0605C7.28708 10.9439 7.99096 11.0876 8.53789 11.5154L9 10.9247L9.46211 10.334C8.5474 9.61842 7.40227 9.3999 6.36823 9.58365L6.49945 10.3221ZM3 15L2.28213 15.2172L3.11024 17.9545L3.82811 17.7374L4.54598 17.5202L3.71787 14.7828L3 15ZM21 15L20.2821 14.7828L19.454 17.5202L20.1719 17.7374L20.8898 17.9545L21.7179 15.2172L21 15ZM9.57107 22V22.75H14.4289V22V21.25H9.57107V22ZM20.1719 17.7374L19.454 17.5202C19.1383 18.5639 18.9189 19.2849 18.6854 19.8231C18.4597 20.3432 18.2507 20.6182 17.9966 20.8067L18.4437 21.4089L18.8907 22.0112C19.4329 21.6087 19.7774 21.0747 20.0614 20.4202C20.3376 19.7837 20.5842 18.9645 20.8898 17.9545L20.1719 17.7374ZM14.4289 22V22.75C15.4841 22.75 16.3396 22.7512 17.0288 22.6711C17.7375 22.5888 18.3484 22.4137 18.8907 22.0112L18.4437 21.4089L17.9966 20.8067C17.7426 20.9953 17.4189 21.1157 16.8557 21.1811C16.273 21.2488 15.5194 21.25 14.4289 21.25V22ZM3.82811 17.7374L3.11024 17.9545C3.41578 18.9645 3.66238 19.7837 3.93858 20.4202C4.22259 21.0747 4.56705 21.6087 5.10935 22.0112L5.55635 21.4089L6.00335 20.8067C5.74933 20.6182 5.54032 20.3432 5.31461 19.8231C5.08108 19.2849 4.86173 18.5639 4.54598 17.5202L3.82811 17.7374ZM9.57107 22V21.25C8.48063 21.25 7.72697 21.2488 7.14428 21.1811C6.58107 21.1157 6.25737 20.9953 6.00335 20.8067L5.55635 21.4089L5.10935 22.0112C5.65164 22.4137 6.2625 22.5888 6.97117 22.6711C7.66035 22.7512 8.5159 22.75 9.57107 22.75V22ZM2 15V15.75H22V15V14.25H2V15Z" fill="#1C1917"/>
</svg>
