<svg width="24" height="24" viewBox="0 0 24 24" fill="none" xmlns="http://www.w3.org/2000/svg">
<path d="M9 15L12 12M14 10L15 9.00001M9.14801 9.14501C9.07667 9.21438 9.02776 9.30352 9.00756 9.40095C8.98736 9.49837 8.99681 9.59962 9.03469 9.69162C9.07257 9.78363 9.13714 9.86218 9.22008 9.91714C9.30301 9.97211 9.40051 10.001 9.50001 10C9.63075 10.0003 9.75639 9.94929 9.85001 9.85801M14.148 14.145C14.0767 14.2144 14.0278 14.3035 14.0076 14.4009C13.9874 14.4984 13.9968 14.5996 14.0347 14.6916C14.0726 14.7836 14.1371 14.8622 14.2201 14.9171C14.303 14.9721 14.4005 15.001 14.5 15C14.6308 15.0003 14.7564 14.9493 14.85 14.858M5.64097 5.63101C3.95181 7.31766 3.00185 9.60624 3.00006 11.9933C2.99828 14.3804 3.94483 16.6703 5.63147 18.3595C7.31812 20.0487 9.6067 20.9986 11.9938 21.0004C14.3808 21.0022 16.6708 20.0557 18.36 18.369M20.04 16.051C20.8931 14.3609 21.1915 12.4447 20.8927 10.5752C20.5939 8.70567 19.7131 6.97798 18.3757 5.63791C17.0383 4.29785 15.3124 3.41368 13.4435 3.11118C11.5745 2.80868 9.65781 3.10326 7.96597 3.95301M3 3.00001L21 21" stroke="#1C1917" stroke-width="2" stroke-linecap="round" stroke-linejoin="round"/>
</svg>
