<svg width="24" height="24" viewBox="0 0 24 24" fill="none" xmlns="http://www.w3.org/2000/svg">
<path d="M9 15L12 12M14 10L15 9M9.14801 9.145C9.07667 9.21437 9.02776 9.30351 9.00756 9.40094C8.98736 9.49836 8.99681 9.5996 9.03469 9.69161C9.07257 9.78361 9.13714 9.86216 9.22008 9.91713C9.30301 9.9721 9.40051 10.001 9.50001 10C9.63075 10.0002 9.75639 9.94927 9.85001 9.858M14.148 14.145C14.0767 14.2144 14.0278 14.3035 14.0076 14.4009C13.9874 14.4984 13.9968 14.5996 14.0347 14.6916C14.0726 14.7836 14.1371 14.8622 14.2201 14.9171C14.303 14.9721 14.4005 15.001 14.5 15C14.6308 15.0002 14.7564 14.9493 14.85 14.858M8.88697 4.89C9.21194 4.78285 9.50744 4.60138 9.74997 4.36L10.45 3.66C10.6544 3.4544 10.8975 3.29124 11.1652 3.17991C11.4329 3.06857 11.72 3.01126 12.01 3.01126C12.2999 3.01126 12.587 3.06857 12.8547 3.17991C13.1225 3.29124 13.3655 3.4544 13.57 3.66L14.27 4.36C14.682 4.77 15.24 5 15.82 5H16.82C17.4034 5 17.963 5.23179 18.3756 5.64437C18.7882 6.05695 19.02 6.61652 19.02 7.2V8.2C19.02 8.78 19.25 9.338 19.66 9.75L20.36 10.45C20.5656 10.6544 20.7287 10.8975 20.8401 11.1652C20.9514 11.433 21.0087 11.7201 21.0087 12.01C21.0087 12.2999 20.9514 12.587 20.8401 12.8548C20.7287 13.1225 20.5656 13.3656 20.36 13.57L19.66 14.27C19.42 14.5113 19.2392 14.805 19.132 15.128M18.375 18.376C18.171 18.5805 17.9286 18.7426 17.6617 18.8531C17.3949 18.9636 17.1088 19.0203 16.82 19.02H15.82C15.2391 19.0203 14.6819 19.2504 14.27 19.66L13.57 20.36C13.3655 20.5656 13.1225 20.7288 12.8547 20.8401C12.587 20.9514 12.2999 21.0087 12.01 21.0087C11.72 21.0087 11.4329 20.9514 11.1652 20.8401C10.8975 20.7288 10.6544 20.5656 10.45 20.36L9.74997 19.66C9.33806 19.2504 8.78087 19.0203 8.19997 19.02H7.19997C6.6165 19.02 6.05692 18.7882 5.64434 18.3756C5.23176 17.9631 4.99997 17.4035 4.99997 16.82V15.82C4.99964 15.2391 4.76957 14.6819 4.35997 14.27L3.65997 13.57C3.45437 13.3656 3.29121 13.1225 3.17988 12.8548C3.06855 12.587 3.01123 12.2999 3.01123 12.01C3.01123 11.7201 3.06855 11.433 3.17988 11.1652C3.29121 10.8975 3.45437 10.6544 3.65997 10.45L4.35997 9.75C4.76957 9.33809 4.99964 8.7809 4.99997 8.2V7.2C4.99997 6.596 5.24397 6.048 5.63797 5.65M3 3L21 21" stroke="#1C1917" stroke-width="2" stroke-linecap="round" stroke-linejoin="round"/>
</svg>
