<svg width="24" height="24" viewBox="0 0 24 24" fill="none" xmlns="http://www.w3.org/2000/svg">
<path d="M5.641 5.63101C3.95184 7.31766 3.00188 9.60624 3.00009 11.9933C2.99831 14.3804 3.94486 16.6703 5.6315 18.3595C7.31815 20.0487 9.60673 20.9986 11.9938 21.0004C14.3808 21.0022 16.6708 20.0557 18.36 18.369M20.04 16.051C20.8931 14.3609 21.1915 12.4447 20.8927 10.5752C20.5939 8.70567 19.7132 6.97798 18.3758 5.63791C17.0384 4.29785 15.3124 3.41368 13.4435 3.11118C11.5746 2.80868 9.65784 3.10326 7.966 3.95301M12 17V17.01M12 13.5C11.9888 13.2996 12.0178 13.099 12.0855 12.91C12.1532 12.7211 12.2581 12.5477 12.394 12.4M14.5 10.5C14.679 10.0319 14.7189 9.52204 14.6149 9.0318C14.5109 8.54155 14.2675 8.09181 13.9138 7.73671C13.5602 7.3816 13.1115 7.13626 12.6217 7.03022C12.1319 6.92417 11.6219 6.96195 11.153 7.13899M3 3L21 21" stroke="#1C1917" stroke-width="2" stroke-linecap="round" stroke-linejoin="round"/>
</svg>
