<svg width="24" height="24" viewBox="0 0 24 24" fill="none" xmlns="http://www.w3.org/2000/svg">
<path d="M11 17.5V11H11.5L15.5 17H16V10.5M4.5 5.49999L7 7.99999M7 7.99999L20 6.99999M7 7.99999V20.5M19.077 20.071L7.547 20.958C7.37939 20.9708 7.21125 20.9411 7.05814 20.8717C6.90503 20.8023 6.77188 20.6955 6.671 20.561L4.2 17.267C4.07018 17.0939 4 16.8834 4 16.667V5.92599C4.00001 5.67411 4.09507 5.43151 4.26618 5.24667C4.4373 5.06184 4.67187 4.94838 4.923 4.92899L16.312 4.05299C16.7577 4.01886 17.202 4.13504 17.574 4.38299L19.109 5.40599C19.383 5.58857 19.6077 5.83599 19.7631 6.12627C19.9186 6.41655 19.9999 6.74071 20 7.06999V19.074C20 19.3259 19.9049 19.5685 19.7338 19.7533C19.5627 19.9381 19.3281 20.0516 19.077 20.071Z" stroke="#1C1917" stroke-width="2" stroke-linecap="round" stroke-linejoin="round"/>
</svg>
