<svg width="24" height="24" viewBox="0 0 24 24" fill="none" xmlns="http://www.w3.org/2000/svg">
<path d="M11.2171 19.384C11.5029 20.1536 12.0501 20.7983 12.763 21.2054C13.4759 21.6126 14.3093 21.7562 15.1173 21.6112C15.9254 21.4662 16.6568 21.0418 17.1838 20.4123C17.7107 19.7827 17.9996 18.988 18.0001 18.167V13L12.0001 9.65001M5.21406 15.014C4.69003 15.6463 4.40496 16.4428 4.40872 17.264C4.41247 18.0852 4.70481 18.879 5.2346 19.5065C5.76439 20.134 6.49792 20.5553 7.3069 20.6967C8.11589 20.8381 8.94883 20.6906 9.66006 20.28L14.0001 17.746V10.8M6.00006 7.63001C4.60906 7.39401 3.21306 8.02501 2.46606 9.31901C2.00552 10.1168 1.88069 11.0649 2.11904 11.9547C2.35739 12.8445 2.93939 13.6032 3.73706 14.064L8.00006 16.578L14.0001 13.23M12.7831 4.61601C12.4973 3.84638 11.9501 3.20167 11.2371 2.79457C10.5242 2.38746 9.69087 2.24385 8.88279 2.38883C8.07471 2.53382 7.34329 2.95818 6.81635 3.58774C6.28941 4.2173 6.00049 5.01203 6.00006 5.83301V10.9L12.0001 14.35M18.7861 8.98601C19.3101 8.35369 19.5952 7.55726 19.5914 6.73603C19.5877 5.91479 19.2953 5.12101 18.7655 4.4935C18.2357 3.866 17.5022 3.44471 16.6932 3.30331C15.8842 3.16191 15.0513 3.30941 14.3401 3.72001L10.0001 6.25401V13.2M18.0001 16.302C19.3911 16.538 20.7871 15.907 21.5341 14.613C21.9946 13.8152 22.1194 12.8671 21.8811 11.9773C21.6427 11.0875 21.0607 10.3288 20.2631 9.86801L15.9551 7.35401L10.0001 10.774" stroke="#1C1917" stroke-width="2" stroke-linecap="round" stroke-linejoin="round"/>
</svg>
