<svg width="24" height="24" viewBox="0 0 24 24" fill="none" xmlns="http://www.w3.org/2000/svg">
<path d="M13.675 4.317C13.249 2.561 10.751 2.561 10.325 4.317C10.2611 4.5808 10.1358 4.82578 9.95929 5.032C9.7828 5.23822 9.56011 5.39985 9.30935 5.50375C9.05859 5.60764 8.78683 5.65085 8.51621 5.62987C8.24559 5.60889 7.98375 5.5243 7.752 5.383C6.209 4.443 4.442 6.209 5.382 7.753C5.5231 7.98466 5.60755 8.24634 5.62848 8.51677C5.64942 8.78721 5.60624 9.05877 5.50247 9.30938C5.3987 9.55999 5.23726 9.78258 5.03127 9.95905C4.82529 10.1355 4.58056 10.2609 4.317 10.325C2.561 10.751 2.561 13.249 4.317 13.675C4.5808 13.7389 4.82578 13.8642 5.032 14.0407C5.23822 14.2172 5.39985 14.4399 5.50375 14.6907C5.60764 14.9414 5.65085 15.2132 5.62987 15.4838C5.60889 15.7544 5.5243 16.0162 5.383 16.248C4.443 17.791 6.209 19.558 7.753 18.618C7.98466 18.4769 8.24634 18.3924 8.51677 18.3715C8.78721 18.3506 9.05877 18.3938 9.30938 18.4975C9.55999 18.6013 9.78258 18.7627 9.95905 18.9687C10.1355 19.1747 10.2609 19.4194 10.325 19.683C10.751 21.439 13.249 21.439 13.675 19.683C13.7389 19.4192 13.8642 19.1742 14.0407 18.968C14.2172 18.7618 14.4399 18.6001 14.6907 18.4963C14.9414 18.3924 15.2132 18.3491 15.4838 18.3701C15.7544 18.3911 16.0162 18.4757 16.248 18.617C17.791 19.557 19.558 17.791 18.618 16.247C18.4769 16.0153 18.3924 15.7537 18.3715 15.4832C18.3506 15.2128 18.3938 14.9412 18.4975 14.6906C18.6013 14.44 18.7627 14.2174 18.9687 14.0409C19.1747 13.8645 19.4194 13.7391 19.683 13.675C21.439 13.249 21.439 10.751 19.683 10.325C19.4192 10.2611 19.1742 10.1358 18.968 9.95929C18.7618 9.7828 18.6001 9.56011 18.4963 9.30935C18.3924 9.05859 18.3491 8.78683 18.3701 8.51621C18.3911 8.24559 18.4757 7.98375 18.617 7.752C19.557 6.209 17.791 4.442 16.247 5.382C15.247 5.99 13.951 5.452 13.675 4.317Z" stroke="#1C1917" stroke-width="2" stroke-linecap="round" stroke-linejoin="round"/>
<path d="M15 12C15 12.7956 14.6839 13.5587 14.1213 14.1213C13.5587 14.6839 12.7956 15 12 15C11.2044 15 10.4413 14.6839 9.87868 14.1213C9.31607 13.5587 9 12.7956 9 12C9 11.2044 9.31607 10.4413 9.87868 9.87868C10.4413 9.31607 11.2044 9 12 9C12.7956 9 13.5587 9.31607 14.1213 9.87868C14.6839 10.4413 15 11.2044 15 12Z" stroke="#1C1917" stroke-width="2" stroke-linecap="round" stroke-linejoin="round"/>
</svg>
