<svg width="24" height="24" viewBox="0 0 24 24" fill="none" xmlns="http://www.w3.org/2000/svg">
<path d="M7.792 7.793C7.60985 7.9816 7.50905 8.2342 7.51133 8.4964C7.51361 8.7586 7.61878 9.00941 7.80418 9.19482C7.98959 9.38023 8.24041 9.48539 8.5026 9.48767C8.7648 9.48995 9.0174 9.38916 9.206 9.207M4.88 4.877C4.60055 5.15534 4.37892 5.48622 4.22789 5.85058C4.07686 6.21494 3.99941 6.60558 4 7V10.859C4 11.396 4.213 11.911 4.593 12.291L12.709 20.407C12.897 20.5951 13.1203 20.7443 13.366 20.846C13.6117 20.9478 13.8751 21.0002 14.141 21.0002C14.407 21.0002 14.6703 20.9478 14.916 20.846C15.1617 20.7443 15.385 20.5951 15.573 20.407L17.989 17.991M19.989 15.991L20.405 15.575C20.5931 15.387 20.7423 15.1637 20.844 14.918C20.9458 14.6723 20.9982 14.409 20.9982 14.143C20.9982 13.877 20.9458 13.6137 20.844 13.368C20.7423 13.1223 20.5931 12.899 20.405 12.711L12.288 4.595C11.9084 4.2155 11.3937 4.00221 10.857 4.002H7.998M3 3L21 21" stroke="#1C1917" stroke-width="2" stroke-linecap="round" stroke-linejoin="round"/>
</svg>
