<svg width="24" height="24" viewBox="0 0 24 24" fill="none" xmlns="http://www.w3.org/2000/svg">
<path d="M17.573 18.407L20.407 15.573C20.595 15.385 20.7442 15.1617 20.846 14.916C20.9478 14.6703 21.0002 14.407 21.0002 14.141C21.0002 13.8751 20.9478 13.6117 20.846 13.366C20.7442 13.1203 20.595 12.8971 20.407 12.709L13.29 5.59302M5.99999 9.00002H5.98999M7.859 6.00002H5.025C4.48794 6.00002 3.97287 6.21337 3.59311 6.59313C3.21335 6.97289 3 7.48796 3 8.02502V10.859C3 11.396 3.213 11.911 3.593 12.291L9.709 18.407C9.89704 18.5951 10.1203 18.7443 10.366 18.8461C10.6117 18.9478 10.875 19.0002 11.141 19.0002C11.407 19.0002 11.6703 18.9478 11.916 18.8461C12.1617 18.7443 12.385 18.5951 12.573 18.407L15.407 15.573C15.5951 15.385 15.7443 15.1617 15.846 14.916C15.9478 14.6703 16.0002 14.407 16.0002 14.141C16.0002 13.8751 15.9478 13.6117 15.846 13.366C15.7443 13.1203 15.5951 12.8971 15.407 12.709L9.29 6.59302C8.91044 6.21352 8.39574 6.00023 7.859 6.00002Z" stroke="#1C1917" stroke-width="2" stroke-linecap="round" stroke-linejoin="round"/>
</svg>
