<svg width="24" height="24" viewBox="0 0 24 24" fill="none" xmlns="http://www.w3.org/2000/svg">
<path d="M6 6H5.025C4.48794 6 3.97287 6.21335 3.59311 6.59311C3.21335 6.97287 3 7.48794 3 8.025V10.859C3 11.396 3.213 11.911 3.593 12.291L9.709 18.407C9.89704 18.5951 10.1203 18.7443 10.366 18.846C10.6117 18.9478 10.875 19.0002 11.141 19.0002C11.407 19.0002 11.6703 18.9478 11.916 18.846C12.1617 18.7443 12.385 18.5951 12.573 18.407L15.407 15.573C15.435 15.545 15.462 15.517 15.487 15.488M17.573 18.407L17.991 17.989M19.991 15.989L20.41 15.57C20.5981 15.382 20.7473 15.1587 20.849 14.913C20.9508 14.6673 21.0032 14.404 21.0032 14.138C21.0032 13.872 20.9508 13.6087 20.849 13.363C20.7473 13.1173 20.5981 12.894 20.41 12.706L13.293 5.59M5.99999 9H5.98999M3 3L21 21" stroke="#1C1917" stroke-width="2" stroke-linecap="round" stroke-linejoin="round"/>
</svg>
