<svg width="24" height="24" viewBox="0 0 24 24" fill="none" xmlns="http://www.w3.org/2000/svg">
<path d="M16.0831 2H12.0001C11.7348 2 11.4805 2.10536 11.293 2.29289C11.1054 2.48043 11.0001 2.73478 11.0001 3V14.5C11.0002 14.7492 10.9382 14.9944 10.8198 15.2136C10.7014 15.4328 10.5303 15.6191 10.3218 15.7556C10.1134 15.8921 9.87423 15.9745 9.62596 15.9955C9.37768 16.0164 9.12811 15.9751 8.89977 15.8754C8.67144 15.7757 8.47154 15.6207 8.31813 15.4243C8.16472 15.228 8.06262 14.9966 8.02107 14.7509C7.97951 14.5053 7.99981 14.2531 8.08012 14.0173C8.16042 13.7814 8.29822 13.5693 8.48106 13.4L8.60106 13.3C8.72507 13.2067 8.82568 13.0859 8.89493 12.9471C8.96418 12.8082 9.00017 12.6552 9.00006 12.5V8.174C9.00018 8.02305 8.96613 7.87404 8.90046 7.73812C8.83478 7.60221 8.7392 7.48293 8.62086 7.38922C8.50252 7.29551 8.36451 7.22981 8.21716 7.19704C8.06981 7.16427 7.91696 7.16528 7.77006 7.2C5.97914 7.62208 4.40586 8.68778 3.34954 10.1943C2.29323 11.7009 1.82759 13.5432 2.04122 15.3708C2.25484 17.1983 3.13282 18.8836 4.50812 20.1059C5.88342 21.3282 7.66007 22.0023 9.50006 22L9.74306 21.995C11.6889 21.9319 13.534 21.1147 14.8882 19.716C16.2425 18.3173 16.9998 16.4469 17.0001 14.5V11.8L17.3111 11.953C18.4331 12.483 19.6441 12.821 20.9011 12.946C21.0401 12.9598 21.1805 12.9444 21.3133 12.9006C21.446 12.8568 21.568 12.7857 21.6716 12.6919C21.7751 12.598 21.8579 12.4835 21.9144 12.3558C21.971 12.228 22.0002 12.0897 22.0001 11.95V7.917C22 7.68058 21.9162 7.45183 21.7636 7.27132C21.6109 7.09082 21.3992 6.97024 21.1661 6.931C20.1427 6.75737 19.1987 6.26988 18.4647 5.53603C17.7307 4.80218 17.2429 3.85828 17.0691 2.835C17.03 2.60168 16.9095 2.38976 16.729 2.23688C16.5485 2.084 16.3196 2.00007 16.0831 2Z" fill="#1C1917"/>
</svg>
