<svg preserveAspectRatio="none" width="100%" height="100%" overflow="visible" style="display: block;" viewBox="0 0 21 20" fill="none" xmlns="http://www.w3.org/2000/svg">
<path id="Vector" d="M1 19V17C1 15.9391 1.42143 14.9217 2.17157 14.1716C2.92172 13.4214 3.93913 13 5 13H9C9.948 13 10.818 13.33 11.504 13.88M14 1.13C14.8604 1.35031 15.623 1.85071 16.1676 2.55232C16.7122 3.25392 17.0078 4.11683 17.0078 5.005C17.0078 5.89318 16.7122 6.75608 16.1676 7.45769C15.623 8.1593 14.8604 8.6597 14 8.88M14 17H20M3 5C3 6.06087 3.42143 7.07828 4.17157 7.82843C4.92172 8.57857 5.93913 9 7 9C8.06087 9 9.07828 8.57857 9.82843 7.82843C10.5786 7.07828 11 6.06087 11 5C11 3.93913 10.5786 2.92172 9.82843 2.17157C9.07828 1.42143 8.06087 1 7 1C5.93913 1 4.92172 1.42143 4.17157 2.17157C3.42143 2.92172 3 3.93913 3 5Z" stroke="var(--stroke-0, #1C1917)" stroke-width="2" stroke-linecap="round" stroke-linejoin="round"/>
</svg>
