<svg preserveAspectRatio="none" width="100%" height="100%" overflow="visible" style="display: block;" viewBox="0 0 20 21" fill="none" xmlns="http://www.w3.org/2000/svg">
<path id="Vector" d="M8.5 19H3C2.46957 19 1.96086 18.7893 1.58579 18.4142C1.21071 18.0391 1 17.5304 1 17V5C1 4.46957 1.21071 3.96086 1.58579 3.58579C1.96086 3.21071 2.46957 3 3 3H15C15.5304 3 16.0391 3.21071 16.4142 3.58579C16.7893 3.96086 17 4.46957 17 5V9.5M13 1V5M5 1V5M1 9H17M17.2 18.2L19 20M12 16C12 16.7956 12.3161 17.5587 12.8787 18.1213C13.4413 18.6839 14.2044 19 15 19C15.7956 19 16.5587 18.6839 17.1213 18.1213C17.6839 17.5587 18 16.7956 18 16C18 15.2044 17.6839 14.4413 17.1213 13.8787C16.5587 13.3161 15.7956 13 15 13C14.2044 13 13.4413 13.3161 12.8787 13.8787C12.3161 14.4413 12 15.2044 12 16Z" stroke="var(--stroke-0, #1C1917)" stroke-width="2" stroke-linecap="round" stroke-linejoin="round"/>
</svg>
