<svg preserveAspectRatio="none" width="100%" height="100%" overflow="visible" style="display: block;" viewBox="0 0 20 20" fill="none" xmlns="http://www.w3.org/2000/svg">
<path id="Vector" d="M10 14V14.01M10 11C10.4498 11.0014 10.8868 10.8511 11.2407 10.5734C11.5945 10.2958 11.8444 9.907 11.95 9.46983C12.0557 9.03267 12.0109 8.57265 11.8229 8.16407C11.6349 7.75549 11.3147 7.42219 10.914 7.21801C10.5162 7.01422 10.0611 6.95103 9.62281 7.03873C9.18451 7.12642 8.78879 7.35984 8.5 7.70101M10 1C17.2 1 19 2.8 19 10C19 17.2 17.2 19 10 19C2.8 19 1 17.2 1 10C1 2.8 2.8 1 10 1Z" stroke="var(--stroke-0, #1C1917)" stroke-width="2" stroke-linecap="round" stroke-linejoin="round"/>
</svg>
