<svg preserveAspectRatio="none" width="100%" height="100%" overflow="visible" style="display: block;" viewBox="0 0 149 180" fill="none" xmlns="http://www.w3.org/2000/svg">
<g id="Vector">
<path d="M103.591 11.0598C99.372 11.9037 94.0979 21.2563 91.9883 25.8272C95.1527 31.1012 113.084 34.2657 119.413 34.2657C125.742 34.2657 131.016 14.2243 126.797 15.2791C122.578 16.3339 108.865 10.005 103.591 11.0598Z" fill="#FAFBFC"/>
<path d="M134.181 105.992C134.181 138.616 106.318 165.062 71.9468 165.062C37.576 165.062 9.71303 138.616 9.71303 105.992C9.71303 73.3694 37.576 46.9231 71.9468 46.9231C106.318 46.9231 134.181 73.3694 134.181 105.992Z" fill="#8FC766"/>
<path d="M130.048 117.669C131.59 110.318 131.667 102.735 130.278 95.354C128.89 87.9729 126.06 80.9381 121.953 74.6502C117.845 68.3623 112.54 62.9449 106.339 58.7075C102.475 56.0672 98.3105 53.9159 93.942 52.2973L90.0856 70.684C92.3324 70.5197 94.6388 70.1239 97.0132 69.4994C101.52 68.314 106.135 71.0068 107.321 75.5135C108.506 80.0204 105.814 84.6354 101.307 85.8212C85.2206 90.0523 70.2408 86.9104 57.2103 76.5724C53.5594 73.6758 52.9481 68.3678 55.8447 64.7169C58.7413 61.0671 64.0476 60.4553 67.6982 63.3509C69.6218 64.877 71.5763 66.1663 73.5681 67.2196L77.4245 48.8329C72.7735 48.5597 68.096 48.8565 63.4966 49.7217C56.1153 51.1104 49.0788 53.9391 42.7908 58.0468C36.5031 62.1544 31.0853 67.4596 26.848 73.6606C22.6106 79.8618 19.6365 86.8375 18.0947 94.1882C16.553 101.539 16.4738 109.122 17.8623 116.503C19.251 123.884 22.0797 130.921 26.1874 137.209C30.295 143.497 35.6019 148.915 41.8032 153.152C48.0044 157.389 54.9801 160.364 62.3308 161.905C69.6816 163.447 77.2644 163.526 84.6456 162.138C92.0266 160.749 99.0616 157.92 105.349 153.812C111.637 149.705 117.055 144.398 121.293 138.196C125.53 131.995 128.506 125.02 130.048 117.669ZM121.956 19.2136L111.863 17.0966C109.186 16.5351 106.395 17.0596 104.105 18.5554C101.815 20.0513 100.214 22.3963 99.652 25.0732L99.4596 25.9906L109.553 28.1076C112.23 28.6691 115.021 28.1448 117.311 26.6488C119.601 25.1528 121.202 22.8081 121.764 20.131L121.956 19.2136ZM138.281 23.5954C136.801 30.6532 132.579 36.8352 126.541 40.7791C123.317 42.8856 119.715 44.2591 115.984 44.8587C123.962 50.3339 130.791 57.3181 136.083 65.4196C141.403 73.5631 145.067 82.6745 146.865 92.2338C148.664 101.793 148.562 111.614 146.565 121.134C144.569 130.653 140.716 139.687 135.228 147.718C129.74 155.749 122.724 162.621 114.58 167.941C106.437 173.26 97.3254 176.924 87.7662 178.723C78.2069 180.521 68.3863 180.419 58.8664 178.423C49.3465 176.426 40.3128 172.573 32.2816 167.086C24.2504 161.598 17.3793 154.581 12.0595 146.438C6.73975 138.294 3.07556 129.183 1.27714 119.624C-0.521262 110.064 -0.419542 100.244 1.57717 90.7239C3.57392 81.204 7.42665 72.1701 12.9144 64.139C18.4023 56.1081 25.4188 49.2366 33.5622 43.9169C41.7056 38.5974 50.8172 34.9329 60.3764 33.1346C67.1591 31.8586 74.0728 31.5428 80.9176 32.1783L83.1344 21.6088C84.6147 14.5515 88.8372 8.37102 94.8739 4.42717C100.911 0.483264 108.269 -0.90125 115.327 0.579054L133.679 4.42827C138.241 5.38493 141.163 9.85804 140.206 14.4192L138.281 23.5954Z" fill="var(--fill-0, #1C1917)"/>
</g>
</svg>
