<svg preserveAspectRatio="none" width="100%" height="100%" overflow="visible" style="display: block;" viewBox="0 0 20 20" fill="none" xmlns="http://www.w3.org/2000/svg">
<path id="Vector" d="M13 7C13 6.46957 12.7893 5.96086 12.4142 5.58579C12.0391 5.21071 11.5304 5 11 5C10.4696 5 9.96086 5.21071 9.58579 5.58579C9.21071 5.96086 9 6.46957 9 7V12C9 12.5304 8.78929 13.0391 8.41421 13.4142C8.03914 13.7893 7.53043 14 7 14H13M7 10H11M1 10C1 11.1819 1.23279 12.3522 1.68508 13.4442C2.13738 14.5361 2.80031 15.5282 3.63604 16.364C4.47177 17.1997 5.46392 17.8626 6.55585 18.3149C7.64778 18.7672 8.8181 19 10 19C11.1819 19 12.3522 18.7672 13.4442 18.3149C14.5361 17.8626 15.5282 17.1997 16.364 16.364C17.1997 15.5282 17.8626 14.5361 18.3149 13.4442C18.7672 12.3522 19 11.1819 19 10C19 8.8181 18.7672 7.64778 18.3149 6.55585C17.8626 5.46392 17.1997 4.47177 16.364 3.63604C15.5282 2.80031 14.5361 2.13738 13.4442 1.68508C12.3522 1.23279 11.1819 1 10 1C8.8181 1 7.64778 1.23279 6.55585 1.68508C5.46392 2.13738 4.47177 2.80031 3.63604 3.63604C2.80031 4.47177 2.13738 5.46392 1.68508 6.55585C1.23279 7.64778 1 8.8181 1 10Z" stroke="var(--stroke-0, #1C1917)" stroke-width="2" stroke-linecap="round" stroke-linejoin="round"/>
</svg>
