<svg preserveAspectRatio="none" width="100%" height="100%" overflow="visible" style="display: block;" viewBox="0 0 20 21" fill="none" xmlns="http://www.w3.org/2000/svg">
<path id="Vector" d="M8 19H3C2.46957 19 1.96086 18.7893 1.58579 18.4142C1.21071 18.0391 1 17.5304 1 17V5C1 4.46957 1.21071 3.96086 1.58579 3.58579C1.96086 3.21071 2.46957 3 3 3H15C15.5304 3 16.0391 3.21071 16.4142 3.58579C16.7893 3.96086 17 4.46957 17 5V8.5M13 1V5M5 1V5M1 9H12M14.8 18.817L12.628 19.955C12.5635 19.9886 12.491 20.0035 12.4186 19.9982C12.3461 19.993 12.2765 19.9677 12.2176 19.9251C12.1587 19.8826 12.1127 19.8245 12.0849 19.7574C12.0571 19.6903 12.0485 19.6167 12.06 19.545L12.475 17.134L10.718 15.427C10.6656 15.3763 10.6284 15.3119 10.6108 15.2411C10.5933 15.1703 10.5959 15.096 10.6186 15.0267C10.6412 14.9573 10.6829 14.8957 10.7388 14.8489C10.7948 14.8021 10.8627 14.772 10.935 14.762L13.363 14.41L14.449 12.217C14.4815 12.1517 14.5315 12.0967 14.5935 12.0583C14.6556 12.0199 14.727 11.9995 14.8 11.9995C14.8729 11.9995 14.9444 12.0199 15.0064 12.0583C15.0685 12.0967 15.1185 12.1517 15.151 12.217L16.237 14.41L18.665 14.762C18.737 14.7724 18.8047 14.8027 18.8604 14.8495C18.9162 14.8964 18.9576 14.9579 18.9802 15.027C19.0028 15.0962 19.0056 15.1704 18.9882 15.241C18.9708 15.3117 18.9341 15.3761 18.882 15.427L17.125 17.134L17.539 19.544C17.5514 19.6159 17.5434 19.6898 17.516 19.7573C17.4885 19.8249 17.4426 19.8834 17.3836 19.9262C17.3245 19.969 17.2547 19.9944 17.1819 19.9995C17.1092 20.0046 17.0364 19.9892 16.972 19.955L14.8 18.817Z" stroke="var(--stroke-0, #1C1917)" stroke-width="2" stroke-linecap="round" stroke-linejoin="round"/>
</svg>
