<svg preserveAspectRatio="none" width="100%" height="100%" overflow="visible" style="display: block;" viewBox="0 0 20 20" fill="none" xmlns="http://www.w3.org/2000/svg">
<path id="Vector" d="M3.641 3.63547C1.95184 5.32211 1.00188 7.61069 1.00009 9.99775C0.998312 12.3848 1.94486 14.6748 3.6315 16.364C5.31815 18.0531 7.60673 19.0031 9.99378 19.0049C12.3808 19.0067 14.6708 18.0601 16.36 16.3735M18.04 14.0555C18.8931 12.3653 19.1915 10.4492 18.8927 8.57965C18.5939 6.71012 17.7132 4.98243 16.3758 3.64237C15.0384 2.30231 13.3124 1.41813 11.4435 1.11563C9.57457 0.813133 7.65784 1.10771 5.966 1.95747M10 15.0045V15.0145M10 11.5044C9.98876 11.3041 10.0178 11.1035 10.0855 10.9145C10.1532 10.7256 10.2581 10.5521 10.394 10.4044M12.5 8.50444C12.679 8.03635 12.7189 7.5265 12.6149 7.03625C12.5109 6.54601 12.2675 6.09627 11.9138 5.74116C11.5602 5.38606 11.1115 5.14072 10.6217 5.03467C10.1319 4.92863 9.62185 4.9664 9.15302 5.14344M1 1.00446L19 19.0045" stroke="var(--stroke-0, #1C1917)" stroke-width="2" stroke-linecap="round" stroke-linejoin="round"/>
</svg>
