<svg preserveAspectRatio="none" width="100%" height="100%" overflow="visible" style="display: block;" viewBox="0 0 20 20" fill="none" xmlns="http://www.w3.org/2000/svg">
<path id="Vector" d="M4 4H3.025C2.48794 4 1.97287 4.21335 1.59311 4.59311C1.21335 4.97287 1 5.48794 1 6.025V8.859C1 9.396 1.213 9.911 1.593 10.291L7.709 16.407C7.89704 16.5951 8.12029 16.7443 8.366 16.846C8.6117 16.9478 8.87505 17.0002 9.141 17.0002C9.40695 17.0002 9.6703 16.9478 9.91601 16.846C10.1617 16.7443 10.385 16.5951 10.573 16.407L13.407 13.573C13.435 13.545 13.462 13.517 13.487 13.488M15.573 16.407L15.991 15.989M17.991 13.989L18.41 13.57C18.5981 13.382 18.7473 13.1587 18.849 12.913C18.9508 12.6673 19.0032 12.404 19.0032 12.138C19.0032 11.872 18.9508 11.6087 18.849 11.363C18.7473 11.1173 18.5981 10.894 18.41 10.706L11.293 3.59M3.99999 7H3.98999M1 1L19 19" stroke="var(--stroke-0, #1C1917)" stroke-width="2" stroke-linecap="round" stroke-linejoin="round"/>
</svg>
