<svg preserveAspectRatio="none" width="100%" height="100%" overflow="visible" style="display: block;" viewBox="0 0 422 512" fill="none" xmlns="http://www.w3.org/2000/svg">
<g id="Vector">
<path d="M294.659 31.4591C282.658 33.8594 267.656 60.4624 261.656 73.4639C270.657 88.4656 321.663 97.4668 339.665 97.4668C357.667 97.4668 372.668 40.4601 360.667 43.4605C348.666 46.4608 309.661 28.4587 294.659 31.4591Z" fill="#FAFBFC"/>
<path d="M381.669 301.49C381.669 394.284 302.414 469.509 204.649 469.509C106.883 469.509 27.6282 394.284 27.6282 301.49C27.6282 208.695 106.883 133.47 204.649 133.47C302.414 133.47 381.669 208.695 381.669 301.49Z" fill="#8FC766"/>
<path d="M369.914 334.704C374.299 313.795 374.519 292.225 370.569 271.229C366.619 250.234 358.572 230.224 346.888 212.338C335.204 194.453 320.114 179.043 302.475 166.99C291.485 159.48 279.639 153.361 267.213 148.757L256.243 201.057C262.634 200.589 269.195 199.464 275.949 197.687C288.768 194.315 301.895 201.975 305.268 214.794C308.64 227.614 300.981 240.741 288.162 244.114C242.405 256.149 199.796 247.212 162.732 217.806C152.347 209.567 150.608 194.468 158.847 184.084C167.086 173.702 182.18 171.962 192.564 180.198C198.035 184.539 203.595 188.206 209.26 191.202L220.23 138.903C207 138.125 193.695 138.969 180.613 141.431C159.617 145.381 139.602 153.427 121.716 165.111C103.831 176.795 88.4205 191.885 76.3677 209.524C64.3147 227.163 55.855 247.004 51.4694 267.913C47.084 288.822 46.8587 310.391 50.8083 331.386C54.7583 352.382 62.8045 372.397 74.4885 390.283C86.1725 408.169 101.268 423.579 118.907 435.632C136.546 447.685 156.388 456.145 177.297 460.531C198.205 464.916 219.774 465.142 240.77 461.192C261.764 457.242 281.775 449.194 299.661 437.51C317.547 425.826 332.957 410.731 345.01 393.092C357.063 375.453 365.529 355.613 369.914 334.704ZM346.898 54.6521L318.187 48.6303C310.572 47.0333 302.634 48.5251 296.121 52.7799C289.607 57.0349 285.052 63.7049 283.455 71.3193L282.907 73.9288L311.618 79.9506C319.233 81.5477 327.17 80.0562 333.684 75.801C340.198 71.5458 344.753 64.8764 346.35 57.2616L346.898 54.6521ZM393.334 67.1159C389.123 87.1914 377.113 104.776 359.94 115.994C350.768 121.986 340.522 125.893 329.91 127.598C352.602 143.172 372.027 163.038 387.081 186.082C402.212 209.246 412.635 235.163 417.751 262.354C422.866 289.545 422.577 317.479 416.897 344.558C411.218 371.636 400.259 397.333 384.649 420.177C369.039 443.021 349.081 462.566 325.918 477.697C302.754 492.829 276.837 503.252 249.646 508.367C222.455 513.483 194.521 513.193 167.442 507.514C140.363 501.834 114.668 490.876 91.8232 475.266C68.9788 459.656 49.4344 439.698 34.3026 416.534C19.1708 393.37 8.74825 367.454 3.63275 340.263C-1.4827 313.072 -1.19336 285.138 4.48618 258.059C10.1658 230.98 21.1247 205.284 36.7344 182.44C52.3442 159.596 72.3025 140.051 95.4658 124.919C118.629 109.788 144.547 99.3648 171.737 94.2494C191.03 90.62 210.696 89.7218 230.166 91.5293L236.471 61.465C240.682 41.391 252.692 23.8109 269.864 12.5928C287.037 1.37462 307.966 -2.56355 328.041 1.64709L380.244 12.596C393.218 15.3171 401.529 28.0407 398.808 41.0147L393.334 67.1159Z" fill="var(--fill-0, #1C1917)"/>
</g>
</svg>
