<svg preserveAspectRatio="none" width="100%" height="100%" overflow="visible" style="display: block;" viewBox="0 0 19 22" fill="none" xmlns="http://www.w3.org/2000/svg">
<path id="Vector" d="M12 19H3C2.46957 19 1.96086 18.7893 1.58579 18.4142C1.21071 18.0391 1 17.5304 1 17V5C1 4.46957 1.21071 3.96086 1.58579 3.58579C1.96086 3.21071 2.46957 3 3 3H15C15.5304 3 16.0391 3.21071 16.4142 3.58579C16.7893 3.96086 17 4.46957 17 5V9H1M13 1V5M5 1V5M16 20V20.01M16 17C16.4483 16.9986 16.8832 16.8468 17.235 16.569C17.5868 16.2911 17.8352 15.9033 17.9406 15.4675C18.0459 15.0318 18.0019 14.5733 17.8158 14.1655C17.6297 13.7576 17.3122 13.424 16.914 13.218C16.5162 13.0142 16.0611 12.951 15.6228 13.0387C15.1845 13.1264 14.7888 13.3598 14.5 13.701" stroke="var(--stroke-0, #1C1917)" stroke-width="2" stroke-linecap="round" stroke-linejoin="round"/>
</svg>
