<svg preserveAspectRatio="none" width="100%" height="100%" overflow="visible" style="display: block;" viewBox="0 0 15 15" fill="none" xmlns="http://www.w3.org/2000/svg">
<path id="Vector" d="M12.2498 0C13.7198 0 14.9198 1.15275 14.9963 2.604L15 2.75025V12.2498C15 13.7198 13.8472 14.9198 12.396 14.9963L12.2498 15H2.75025C2.04613 15 1.36882 14.73 0.857853 14.2456C0.346888 13.7611 0.0411929 13.0991 0.00375009 12.396L0 12.2498V2.75025C0 1.28025 1.15275 0.0802501 2.604 0.00375009L2.75025 0H12.2498ZM10.2802 5.46975C10.1396 5.32915 9.94887 5.25016 9.75 5.25016C9.55113 5.25016 9.3604 5.32915 9.21975 5.46975L6.75 7.93875L5.78025 6.96975L5.70975 6.9075C5.55901 6.79094 5.36955 6.73613 5.17986 6.7542C4.99016 6.77227 4.81446 6.86187 4.68844 7.00479C4.56241 7.14772 4.49551 7.33325 4.50133 7.52371C4.50714 7.71417 4.58524 7.89528 4.71975 8.03025L6.21975 9.53025L6.29025 9.5925C6.43455 9.70444 6.61474 9.75988 6.79701 9.74842C6.97928 9.73696 7.15111 9.65938 7.28025 9.53025L10.2802 6.53025L10.3425 6.45975C10.4544 6.31545 10.5099 6.13526 10.4984 5.95299C10.487 5.77072 10.4094 5.59889 10.2802 5.46975Z" fill="var(--fill-0, #77A655)"/>
</svg>
