<svg preserveAspectRatio="none" width="100%" height="100%" overflow="visible" style="display: block;" viewBox="0 0 20 20" fill="none" xmlns="http://www.w3.org/2000/svg">
<path id="Vector" d="M12.842 9.053V12.843C12.842 13.887 12.352 13.789 11.422 13.789C10.794 13.789 10.1917 13.5395 9.74757 13.0954C9.30349 12.6513 9.054 12.049 9.054 11.421C9.054 10.793 9.30349 10.1907 9.74757 9.74657C10.1917 9.30249 10.794 9.053 11.422 9.053H12.842ZM12.842 9.053V6.21M6.211 6.211V13.789M1 10C1 5.757 1 3.636 2.318 2.318C3.636 1 5.758 1 10 1C14.242 1 16.364 1 17.682 2.318C19 3.636 19 5.758 19 10C19 14.242 19 16.364 17.682 17.682C16.364 19 14.242 19 10 19C5.758 19 3.636 19 2.318 17.682C1 16.364 1 14.242 1 10Z" stroke="var(--stroke-0, #1C1917)" stroke-width="2" stroke-linecap="round" stroke-linejoin="round"/>
</svg>
