<svg preserveAspectRatio="none" width="100%" height="100%" overflow="visible" style="display: block;" viewBox="0 0 20 20" fill="none" xmlns="http://www.w3.org/2000/svg">
<path id="Vector" d="M4.11566 15.009L15.9547 15M9.95466 1C11.8727 1 13.4747 2.35 13.8647 4.151C14.8888 3.87385 15.9811 4.01488 16.9012 4.54308C17.8214 5.07128 18.494 5.94337 18.7712 6.9675C19.0483 7.99163 18.9073 9.08392 18.3791 10.0041C17.8509 10.9242 16.9788 11.5968 15.9547 11.874V19H3.95466V11.874C3.44756 11.7366 2.97248 11.5007 2.55655 11.1798C2.14062 10.8588 1.79198 10.4591 1.53054 10.0034C1.26909 9.54766 1.09997 9.04492 1.03281 8.52385C0.965663 8.00279 1.0018 7.4736 1.13916 6.9665C1.27653 6.4594 1.51242 5.98432 1.83339 5.56839C2.15435 5.15246 2.5541 4.80382 3.0098 4.54237C3.46551 4.28093 3.96824 4.1118 4.48931 4.04465C5.01037 3.9775 5.53956 4.01364 6.04666 4.151C6.2405 3.25857 6.73388 2.45933 7.44481 1.88611C8.15574 1.31289 9.04142 1.0002 9.95466 1Z" stroke="var(--stroke-0, #99A1AF)" stroke-width="2" stroke-linecap="round" stroke-linejoin="round"/>
</svg>
