<svg preserveAspectRatio="none" width="100%" height="100%" overflow="visible" style="display: block;" viewBox="0 0 40 48" fill="none" xmlns="http://www.w3.org/2000/svg">
<g id="Vector">
<path d="M27.6243 2.94929C26.4992 3.17431 25.0928 5.66835 24.5302 6.88724C25.3741 8.29365 30.1559 9.13751 31.8436 9.13751C33.5313 9.13751 34.9377 3.79314 33.8125 4.07442C32.6874 4.3557 29.0307 2.66801 27.6243 2.94929Z" fill="#FAFBFC"/>
<path d="M35.7815 28.2647C35.7815 36.9641 28.3513 44.0165 19.1858 44.0165C10.0203 44.0165 2.59014 36.9641 2.59014 28.2647C2.59014 19.5652 10.0203 12.5128 19.1858 12.5128C28.3513 12.5128 35.7815 19.5652 35.7815 28.2647Z" fill="#8FC766"/>
<path d="M34.6794 31.3785C35.0906 29.4183 35.1112 27.3961 34.7409 25.4277C34.3706 23.4594 33.6161 21.5835 32.5207 19.9067C31.4254 18.23 30.0107 16.7853 28.3571 15.6553C27.3267 14.9512 26.2161 14.3776 25.0512 13.9459L24.0228 18.8491C24.622 18.8052 25.237 18.6997 25.8702 18.5332C27.072 18.2171 28.3027 18.9352 28.6189 20.1369C28.935 21.3388 28.217 22.5694 27.0152 22.8856C22.7255 24.014 18.7309 23.1761 15.2561 20.4193C14.2825 19.6469 14.1195 18.2314 14.8919 17.2578C15.6643 16.2846 17.0794 16.1214 18.0529 16.8936C18.5658 17.3005 19.087 17.6443 19.6181 17.9252L20.6465 13.0221C19.4063 12.9493 18.1589 13.0284 16.9324 13.2591C14.9641 13.6294 13.0877 14.3838 11.4109 15.4791C9.73415 16.5745 8.28942 17.9892 7.15948 19.6428C6.02951 21.2965 5.23641 23.1567 4.82526 25.1169C4.41413 27.0771 4.393 29.0992 4.76328 31.0675C5.13359 33.0358 5.88792 34.9122 6.9833 36.589C8.07868 38.2658 9.49383 39.7105 11.1475 40.8405C12.8012 41.9705 14.6614 42.7636 16.6216 43.1747C18.5818 43.5859 20.6038 43.607 22.5722 43.2367C24.5404 42.8664 26.4164 42.1119 28.0932 41.0166C29.77 39.9212 31.2147 38.5061 32.3447 36.8524C33.4747 35.1987 34.2683 33.3387 34.6794 31.3785ZM32.5217 5.12363L29.83 4.55909C29.1162 4.40937 28.372 4.54923 27.7613 4.94812C27.1507 5.34702 26.7236 5.97234 26.5739 6.68618L26.5226 6.93083L29.2142 7.49537C29.9281 7.6451 30.6722 7.50527 31.2829 7.10634C31.8936 6.70742 32.3206 6.08216 32.4704 5.36828L32.5217 5.12363ZM36.875 6.29211C36.4803 8.17419 35.3543 9.82271 33.7444 10.8744C32.8845 11.4362 31.9239 11.8024 30.929 11.9623C33.0564 13.4224 34.8776 15.2848 36.2888 17.4452C37.7074 19.6168 38.6845 22.0465 39.1641 24.5957C39.6437 27.1448 39.6166 29.7637 39.0841 32.3023C38.5517 34.8409 37.5242 37.2499 36.0608 39.3916C34.5974 41.5332 32.7263 43.3655 30.5548 44.7841C28.3832 46.2027 25.9534 47.1798 23.4043 47.6594C20.8552 48.139 18.2363 48.1119 15.6977 47.5794C13.1591 47.047 10.7501 46.0196 8.60843 44.5562C6.46677 43.0927 4.63447 41.2217 3.21587 39.0501C1.79727 36.8785 0.820148 34.4488 0.34057 31.8996C-0.139003 29.3505 -0.111878 26.7317 0.420579 24.193C0.953045 21.6544 1.98044 19.2454 3.44385 17.1037C4.90727 14.9621 6.77836 13.1298 8.94992 11.7112C11.1215 10.2926 13.5512 9.31545 16.1004 8.83588C17.9091 8.49562 19.7527 8.41142 21.578 8.58087L22.1692 5.76235C22.5639 3.8804 23.6899 2.23227 25.2997 1.18058C26.9097 0.12887 28.8718 -0.240333 30.7539 0.154414L35.6478 1.18087C36.8642 1.43598 37.6434 2.62881 37.3883 3.84513L36.875 6.29211Z" fill="var(--fill-0, #1C1917)"/>
</g>
</svg>
