<svg preserveAspectRatio="none" width="100%" height="100%" overflow="visible" style="display: block;" viewBox="0 0 20 20" fill="none" xmlns="http://www.w3.org/2000/svg">
<path id="Vector" d="M5.792 5.793C5.60985 5.9816 5.50905 6.2342 5.51133 6.4964C5.51361 6.7586 5.61878 7.00941 5.80418 7.19482C5.98959 7.38023 6.24041 7.48539 6.5026 7.48767C6.7648 7.48995 7.0174 7.38916 7.206 7.207M2.88 2.877C2.60055 3.15534 2.37892 3.48622 2.22789 3.85058C2.07686 4.21494 1.99941 4.60558 2 5V8.859C2 9.396 2.213 9.911 2.593 10.291L10.709 18.407C10.897 18.5951 11.1203 18.7443 11.366 18.846C11.6117 18.9478 11.8751 19.0002 12.141 19.0002C12.407 19.0002 12.6703 18.9478 12.916 18.846C13.1617 18.7443 13.385 18.5951 13.573 18.407L15.989 15.991M17.989 13.991L18.405 13.575C18.5931 13.387 18.7423 13.1637 18.844 12.918C18.9458 12.6723 18.9982 12.409 18.9982 12.143C18.9982 11.877 18.9458 11.6137 18.844 11.368C18.7423 11.1223 18.5931 10.899 18.405 10.711L10.288 2.595C9.90844 2.2155 9.39374 2.00221 8.857 2.002H5.998M1 1L19 19" stroke="var(--stroke-0, #1C1917)" stroke-width="2" stroke-linecap="round" stroke-linejoin="round"/>
</svg>
