<svg preserveAspectRatio="none" width="100%" height="100%" overflow="visible" style="display: block;" viewBox="0 0 18 18" fill="none" xmlns="http://www.w3.org/2000/svg">
<path id="Vector" d="M13 0C14.3261 0 15.5979 0.526784 16.5355 1.46447C17.4732 2.40215 18 3.67392 18 5V13C18 14.3261 17.4732 15.5979 16.5355 16.5355C15.5979 17.4732 14.3261 18 13 18H5C3.67392 18 2.40215 17.4732 1.46447 16.5355C0.526784 15.5979 0 14.3261 0 13V5C0 3.67392 0.526784 2.40215 1.46447 1.46447C2.40215 0.526784 3.67392 0 5 0H13ZM9 5C7.97376 5 6.98677 5.39444 6.24319 6.10172C5.4996 6.80901 5.05631 7.77504 5.005 8.8L5 9C5 9.79113 5.2346 10.5645 5.67412 11.2223C6.11365 11.8801 6.73836 12.3928 7.46927 12.6955C8.20017 12.9983 9.00444 13.0775 9.78036 12.9231C10.5563 12.7688 11.269 12.3878 11.8284 11.8284C12.3878 11.269 12.7688 10.5563 12.9231 9.78036C13.0775 9.00444 12.9983 8.20017 12.6955 7.46927C12.3928 6.73836 11.8801 6.11365 11.2223 5.67412C10.5645 5.2346 9.79113 5 9 5ZM13.5 3.5C13.2551 3.50003 13.0187 3.58996 12.8356 3.75272C12.6526 3.91547 12.5357 4.13975 12.507 4.383L12.5 4.51C12.5003 4.76488 12.5979 5.01003 12.7728 5.19537C12.9478 5.3807 13.187 5.49223 13.4414 5.50717C13.6958 5.52211 13.9464 5.43933 14.1418 5.27573C14.3373 5.11214 14.4629 4.8801 14.493 4.627L14.5 4.5C14.5 4.23478 14.3946 3.98043 14.2071 3.79289C14.0196 3.60536 13.7652 3.5 13.5 3.5Z" fill="var(--fill-0, #1C1917)"/>
</svg>
