<svg preserveAspectRatio="none" width="100%" height="100%" overflow="visible" style="display: block;" viewBox="0 0 28 13" fill="none" xmlns="http://www.w3.org/2000/svg">
<g id="Battery">
<path id="Border" opacity="0.35" d="M6.40039 0.5H18.5996C19.728 0.5 20.5446 0.500287 21.1865 0.552734C21.8226 0.604706 22.2433 0.705753 22.5889 0.881836C23.2474 1.21738 23.7826 1.75262 24.1182 2.41113C24.2942 2.75672 24.3953 3.17741 24.4473 3.81348C24.4997 4.4554 24.5 5.27204 24.5 6.40039V6.59961C24.5 7.72796 24.4997 8.5446 24.4473 9.18652C24.3953 9.82259 24.2942 10.2433 24.1182 10.5889C23.7826 11.2474 23.2474 11.7826 22.5889 12.1182C22.2433 12.2942 21.8226 12.3953 21.1865 12.4473C20.5446 12.4997 19.728 12.5 18.5996 12.5H6.40039C5.27204 12.5 4.4554 12.4997 3.81348 12.4473C3.17741 12.3953 2.75672 12.2942 2.41113 12.1182C1.75262 11.7826 1.21738 11.2474 0.881836 10.5889C0.705753 10.2433 0.604706 9.82259 0.552734 9.18652C0.500287 8.5446 0.5 7.72796 0.5 6.59961V6.40039C0.5 5.27204 0.500287 4.4554 0.552734 3.81348C0.604706 3.17741 0.705753 2.75672 0.881836 2.41113C1.21738 1.75262 1.75262 1.21738 2.41113 0.881836C2.75672 0.705753 3.17741 0.604706 3.81348 0.552734C4.4554 0.500287 5.27204 0.5 6.40039 0.5Z" stroke="var(--stroke-0, #0C0A09)"/>
<path id="Cap" opacity="0.4" d="M26 4.78113V8.8566C26.8047 8.51143 27.328 7.70847 27.328 6.81886C27.328 5.92926 26.8047 5.1263 26 4.78113" fill="var(--fill-0, #0C0A09)"/>
<path id="Capacity" d="M2 6.5C2 6.03566 2 5.80349 2.01926 5.60793C2.20631 3.70882 3.70882 2.20631 5.60793 2.01926C5.80349 2 6.03566 2 6.5 2H18.5C18.9643 2 19.1965 2 19.3921 2.01926C21.2912 2.20631 22.7937 3.70882 22.9807 5.60793C23 5.80349 23 6.03566 23 6.5V6.5C23 6.96434 23 7.19651 22.9807 7.39207C22.7937 9.29118 21.2912 10.7937 19.3921 10.9807C19.1965 11 18.9643 11 18.5 11H6.5C6.03566 11 5.80349 11 5.60793 10.9807C3.70882 10.7937 2.20631 9.29118 2.01926 7.39207C2 7.19651 2 6.96434 2 6.5V6.5Z" fill="var(--fill-0, #0C0A09)"/>
</g>
</svg>
