<svg preserveAspectRatio="none" width="100%" height="100%" overflow="visible" style="display: block;" viewBox="0 0 18 20" fill="none" xmlns="http://www.w3.org/2000/svg">
<path id="Vector" d="M3 15C3.53043 15 4.03914 15.2107 4.41421 15.5858C4.78929 15.9609 5 16.4696 5 17C5 17.5304 4.78929 18.0391 4.41421 18.4142C4.03914 18.7893 3.53043 19 3 19C2.46957 19 1.96086 18.7893 1.58579 18.4142C1.21071 18.0391 1 17.5304 1 17C1 16.4696 1.21071 15.9609 1.58579 15.5858C1.96086 15.2107 2.46957 15 3 15ZM3 15H14M3 15V1H1M14 15C14.5304 15 15.0391 15.2107 15.4142 15.5858C15.7893 15.9609 16 16.4696 16 17C16 17.5304 15.7893 18.0391 15.4142 18.4142C15.0391 18.7893 14.5304 19 14 19C13.4696 19 12.9609 18.7893 12.5858 18.4142C12.2107 18.0391 12 17.5304 12 17C12 16.4696 12.2107 15.9609 12.5858 15.5858C12.9609 15.2107 13.4696 15 14 15ZM17 4L16 11H3M7 8L13 2M7 2.5C7 2.63261 7.05268 2.75979 7.14645 2.85355C7.24021 2.94732 7.36739 3 7.5 3C7.63261 3 7.75979 2.94732 7.85355 2.85355C7.94732 2.75979 8 2.63261 8 2.5C8 2.36739 7.94732 2.24021 7.85355 2.14645C7.75979 2.05268 7.63261 2 7.5 2C7.36739 2 7.24021 2.05268 7.14645 2.14645C7.05268 2.24021 7 2.36739 7 2.5ZM12 7.5C12 7.63261 12.0527 7.75979 12.1464 7.85355C12.2402 7.94732 12.3674 8 12.5 8C12.6326 8 12.7598 7.94732 12.8536 7.85355C12.9473 7.75979 13 7.63261 13 7.5C13 7.36739 12.9473 7.24021 12.8536 7.14645C12.7598 7.05268 12.6326 7 12.5 7C12.3674 7 12.2402 7.05268 12.1464 7.14645C12.0527 7.24021 12 7.36739 12 7.5Z" stroke="var(--stroke-0, #1C1917)" stroke-width="2" stroke-linecap="round" stroke-linejoin="round"/>
</svg>
