<svg preserveAspectRatio="none" width="100%" height="100%" overflow="visible" style="display: block;" viewBox="0 0 20 20" fill="none" xmlns="http://www.w3.org/2000/svg">
<path id="Vector" d="M7 13L10 10M12 8L13 7M7.14801 7.145C7.07667 7.21437 7.02776 7.30351 7.00756 7.40094C6.98736 7.49836 6.99681 7.5996 7.03469 7.69161C7.07257 7.78361 7.13714 7.86216 7.22008 7.91713C7.30301 7.9721 7.40051 8.00096 7.50001 8C7.63075 8.00025 7.75639 7.94927 7.85001 7.858M12.148 12.145C12.0767 12.2144 12.0278 12.3035 12.0076 12.4009C11.9874 12.4984 11.9968 12.5996 12.0347 12.6916C12.0726 12.7836 12.1371 12.8622 12.2201 12.9171C12.303 12.9721 12.4005 13.001 12.5 13C12.6308 13.0002 12.7564 12.9493 12.85 12.858M6.88697 2.89C7.21194 2.78285 7.50744 2.60138 7.74997 2.36L8.44997 1.66C8.65442 1.4544 8.89749 1.29124 9.16521 1.17991C9.43294 1.06857 9.72003 1.01126 10.01 1.01126C10.2999 1.01126 10.587 1.06857 10.8547 1.17991C11.1225 1.29124 11.3655 1.4544 11.57 1.66L12.27 2.36C12.682 2.77 13.24 3 13.82 3H14.82C15.4034 3 15.963 3.23179 16.3756 3.64437C16.7882 4.05695 17.02 4.61652 17.02 5.2V6.2C17.02 6.78 17.25 7.338 17.66 7.75L18.36 8.45C18.5656 8.65445 18.7287 8.89752 18.8401 9.16524C18.9514 9.43296 19.0087 9.72005 19.0087 10.01C19.0087 10.2999 18.9514 10.587 18.8401 10.8548C18.7287 11.1225 18.5656 11.3656 18.36 11.57L17.66 12.27C17.42 12.5113 17.2392 12.805 17.132 13.128M16.375 16.376C16.171 16.5805 15.9286 16.7426 15.6617 16.8531C15.3949 16.9636 15.1088 17.0203 14.82 17.02H13.82C13.2391 17.0203 12.6819 17.2504 12.27 17.66L11.57 18.36C11.3655 18.5656 11.1225 18.7288 10.8547 18.8401C10.587 18.9514 10.2999 19.0087 10.01 19.0087C9.72003 19.0087 9.43294 18.9514 9.16521 18.8401C8.89749 18.7288 8.65442 18.5656 8.44997 18.36L7.74997 17.66C7.33806 17.2504 6.78087 17.0203 6.19997 17.02H5.19997C4.6165 17.02 4.05692 16.7882 3.64434 16.3756C3.23176 15.9631 2.99997 15.4035 2.99997 14.82V13.82C2.99964 13.2391 2.76957 12.6819 2.35997 12.27L1.65997 11.57C1.45437 11.3656 1.29121 11.1225 1.17988 10.8548C1.06855 10.587 1.01123 10.2999 1.01123 10.01C1.01123 9.72005 1.06855 9.43296 1.17988 9.16524C1.29121 8.89752 1.45437 8.65445 1.65997 8.45L2.35997 7.75C2.76957 7.33809 2.99964 6.7809 2.99997 6.2V5.2C2.99997 4.596 3.24397 4.048 3.63797 3.65M1 1L19 19" stroke="var(--stroke-0, #1C1917)" stroke-width="2" stroke-linecap="round" stroke-linejoin="round"/>
</svg>
