<svg preserveAspectRatio="none" width="100%" height="100%" overflow="visible" style="display: block;" viewBox="0 0 14 16" fill="none" xmlns="http://www.w3.org/2000/svg">
<g id="Vector">
<path d="M9.20811 0.983096C8.83306 1.0581 8.36426 1.88945 8.17674 2.29575C8.45802 2.76455 10.052 3.04584 10.6145 3.04584C11.1771 3.04584 11.6459 1.26438 11.2708 1.35814C10.8958 1.4519 9.67691 0.889335 9.20811 0.983096Z" fill="#FAFBFC"/>
<path d="M11.9272 9.42155C11.9272 12.3214 9.45045 14.6722 6.39527 14.6722C3.34009 14.6722 0.863381 12.3214 0.863381 9.42155C0.863381 6.52172 3.34009 4.17095 6.39527 4.17095C9.45045 4.17095 11.9272 6.52172 11.9272 9.42155Z" fill="#8FC766"/>
<path d="M11.5598 10.4595C11.6969 9.80609 11.7037 9.13202 11.5803 8.47591C11.4569 7.81982 11.2054 7.19449 10.8402 6.63557C10.4751 6.07665 10.0036 5.5951 9.45235 5.21844C9.10889 4.98375 8.73871 4.79252 8.3504 4.64865L8.00761 6.28302C8.20733 6.26842 8.41234 6.23324 8.6234 6.17772C9.02401 6.07235 9.43423 6.31172 9.53964 6.71231C9.64501 7.11293 9.40566 7.52315 9.00505 7.62855C7.57516 8.00465 6.24363 7.72537 5.08536 6.80643C4.76083 6.54896 4.7065 6.07714 4.96398 5.75261C5.22144 5.42818 5.69312 5.37381 6.01762 5.63119C6.1886 5.76685 6.36234 5.88145 6.53938 5.97507L6.88217 4.3407C6.46876 4.31642 6.05298 4.3428 5.64414 4.41971C4.98802 4.54315 4.36256 4.79459 3.80362 5.15972C3.24472 5.52483 2.76314 5.99641 2.38649 6.54761C2.00984 7.09883 1.74547 7.71889 1.60842 8.37229C1.47138 9.02568 1.46433 9.69972 1.58776 10.3558C1.7112 11.0119 1.96264 11.6374 2.32777 12.1963C2.69289 12.7553 3.16461 13.2368 3.71584 13.6135C4.26706 13.9902 4.88712 14.2545 5.54052 14.3916C6.19392 14.5286 6.86795 14.5357 7.52405 14.4122C8.18014 14.2888 8.80547 14.0373 9.36439 13.6722C9.92333 13.3071 10.4049 12.8354 10.7816 12.2841C11.1582 11.7329 11.4228 11.1129 11.5598 10.4595ZM10.8406 1.70788L9.94334 1.5197C9.70539 1.46979 9.45733 1.51641 9.25377 1.64937C9.05022 1.78234 8.90787 1.99078 8.85795 2.22873L8.84085 2.31028L9.73806 2.49846C9.97602 2.54837 10.2241 2.50176 10.4276 2.36878C10.6312 2.23581 10.7735 2.02739 10.8234 1.78943L10.8406 1.70788ZM12.2917 2.09737C12.1601 2.72473 11.7848 3.27424 11.2481 3.62481C10.9615 3.81205 10.6413 3.93414 10.3097 3.98744C11.0188 4.47412 11.6259 5.09495 12.0963 5.81508C12.5691 6.53894 12.8948 7.34885 13.0547 8.19856C13.2146 9.04828 13.2055 9.92122 13.028 10.7674C12.8506 11.6136 12.5081 12.4166 12.0203 13.1305C11.5325 13.8444 10.9088 14.4552 10.1849 14.928C9.46107 15.4009 8.65115 15.7266 7.80144 15.8865C6.95172 16.0463 6.07878 16.0373 5.23257 15.8598C4.38635 15.6823 3.58336 15.3399 2.86948 14.8521C2.15559 14.3642 1.54482 13.7406 1.07196 13.0167C0.599089 12.2928 0.273383 11.4829 0.113523 10.6332C-0.0463344 9.78349 -0.0372926 8.91056 0.140193 8.06434C0.317682 7.21813 0.660147 6.41512 1.14795 5.70125C1.63576 4.98738 2.25945 4.37658 2.98331 3.90373C3.70716 3.43088 4.51708 3.10515 5.36679 2.94529C5.9697 2.83187 6.58425 2.80381 7.19268 2.86029L7.38973 1.92078C7.52131 1.29347 7.89664 0.74409 8.43324 0.393526C8.96989 0.0429568 9.62393 -0.0801111 10.2513 0.0514715L11.8826 0.393624C12.2881 0.478661 12.5478 0.87627 12.4628 1.28171L12.2917 2.09737Z" fill="var(--fill-0, #1C1917)"/>
</g>
</svg>
