<svg preserveAspectRatio="none" width="100%" height="100%" overflow="visible" style="display: block;" viewBox="0 0 22 22" fill="none" xmlns="http://www.w3.org/2000/svg">
<path id="Vector" d="M11 15V15.01M11 12C11.4498 12.0014 11.8868 11.8511 12.2407 11.5734C12.5945 11.2958 12.8444 10.907 12.95 10.4698C13.0557 10.0327 13.0109 9.57265 12.8229 9.16407C12.6349 8.75549 12.3147 8.42219 11.914 8.21801C11.5162 8.01422 11.0611 7.95103 10.6228 8.03873C10.1845 8.12642 9.78879 8.35984 9.5 8.70101M8.103 1H13.897C14.2911 0.999954 14.6814 1.07756 15.0455 1.22838C15.4096 1.3792 15.7404 1.60029 16.019 1.879L20.12 5.979C20.3993 6.25791 20.6207 6.58917 20.7717 6.95382C20.9227 7.31846 21.0003 7.70932 21 8.104V13.898C21 14.2921 20.9224 14.6824 20.7716 15.0465C20.6208 15.4106 20.3997 15.7414 20.121 16.02L16.021 20.121C15.7423 20.4 15.4114 20.6214 15.0471 20.7724C14.6828 20.9233 14.2923 21.001 13.898 21.001H8.103C7.70883 21.0009 7.31854 20.9232 6.95443 20.7722C6.59033 20.6212 6.25955 20.3999 5.981 20.121L1.88 16.021C1.60087 15.7422 1.37946 15.4111 1.22846 15.0466C1.07746 14.6822 0.999821 14.2915 1 13.897V8.103C0.999953 7.7089 1.07756 7.31865 1.22838 6.95455C1.3792 6.59045 1.60029 6.25963 1.879 5.981L5.979 1.88C6.25791 1.60075 6.58917 1.37927 6.95382 1.22827C7.31846 1.07726 7.70932 0.999691 8.104 1H8.103Z" stroke="var(--stroke-0, #1C1917)" stroke-width="2" stroke-linecap="round" stroke-linejoin="round"/>
</svg>
