<svg preserveAspectRatio="none" width="100%" height="100%" overflow="visible" style="display: block;" viewBox="0 0 20 16" fill="none" xmlns="http://www.w3.org/2000/svg">
<g id="Vector">
<path d="M1 5C1 3.93913 1.42143 2.92172 2.17157 2.17157C2.92172 1.42143 3.93913 1 5 1H15C16.0609 1 17.0783 1.42143 17.8284 2.17157C18.5786 2.92172 19 3.93913 19 5V11C19 12.0609 18.5786 13.0783 17.8284 13.8284C17.0783 14.5786 16.0609 15 15 15H5C3.93913 15 2.92172 14.5786 2.17157 13.8284C1.42143 13.0783 1 12.0609 1 11V5Z" stroke="var(--stroke-0, #1C1917)" stroke-width="2" stroke-linecap="round" stroke-linejoin="round"/>
<path d="M8 5L13 8L8 11V5Z" stroke="var(--stroke-0, #1C1917)" stroke-width="2" stroke-linecap="round" stroke-linejoin="round"/>
</g>
</svg>
