<svg preserveAspectRatio="none" width="100%" height="100%" overflow="visible" style="display: block;" viewBox="0 0 159 192" fill="none" xmlns="http://www.w3.org/2000/svg">
<g id="Vector">
<path d="M110.497 11.7972C105.997 12.6973 100.371 22.6734 98.1209 27.549C101.496 33.1746 120.623 36.55 127.374 36.55C134.125 36.55 139.751 15.1725 135.25 16.2977C130.75 17.4228 116.123 10.672 110.497 11.7972Z" fill="#FAFBFC"/>
<path d="M143.126 113.059C143.126 147.857 113.405 176.066 76.7432 176.066C40.0811 176.066 10.3606 147.857 10.3606 113.059C10.3606 78.2607 40.0811 50.0514 76.7432 50.0514C113.405 50.0514 143.126 78.2607 143.126 113.059Z" fill="#8FC766"/>
<path d="M138.718 125.514C140.362 117.673 140.445 109.584 138.964 101.711C137.482 93.8378 134.464 86.3339 130.083 79.6269C125.702 72.9198 120.043 67.1412 113.428 62.6213C109.307 59.805 104.865 57.5103 100.205 55.7838L96.0913 75.3962C98.4879 75.221 100.948 74.7988 103.481 74.1327C108.288 72.8682 113.211 75.7406 114.476 80.5477C115.74 85.3551 112.868 90.2778 108.061 91.5426C90.902 96.0558 74.9235 92.7044 61.0243 81.6772C57.13 78.5875 56.478 72.9257 59.5677 69.0313C62.6573 65.1382 68.3174 64.4857 72.2114 67.5743C74.2633 69.2021 76.3481 70.5774 78.4726 71.7009L82.5861 52.0884C77.6251 51.797 72.6358 52.1136 67.7297 53.0365C59.8563 54.5178 52.3508 57.5351 45.6435 61.9166C38.9366 66.298 33.1577 71.9569 28.6379 78.5713C24.118 85.1859 20.9456 92.6267 19.301 100.467C17.6565 108.308 17.572 116.397 19.0531 124.27C20.5344 132.143 23.5517 139.649 27.9332 146.356C32.3147 153.063 37.9753 158.842 44.5901 163.362C51.2047 167.882 58.6454 171.054 66.4862 172.699C74.327 174.343 82.4154 174.428 90.2886 172.947C98.1617 171.466 105.666 168.448 112.373 164.066C119.08 159.685 124.859 154.024 129.379 147.41C133.899 140.795 137.073 133.355 138.718 125.514ZM130.087 20.4945L119.32 18.2364C116.465 17.6375 113.488 18.1969 111.045 19.7925C108.603 21.3881 106.894 23.8894 106.295 26.7447L106.09 27.7233L116.857 29.9815C119.712 30.5804 122.689 30.0211 125.132 28.4254C127.574 26.8297 129.282 24.3286 129.881 21.4731L130.087 20.4945ZM147.5 25.1685C145.921 32.6968 141.417 39.2908 134.978 43.4977C131.538 45.7446 127.696 47.2097 123.716 47.8493C132.226 53.6895 139.51 61.1393 145.155 69.7809C150.83 78.4673 154.738 88.1861 156.657 98.3827C158.575 108.579 158.466 119.055 156.336 129.209C154.207 139.364 150.097 149 144.243 157.566C138.39 166.133 130.905 173.462 122.219 179.137C113.533 184.811 103.814 188.719 93.6173 190.638C83.4207 192.556 72.9454 192.447 62.7909 190.318C52.6362 188.188 43.0003 184.078 34.4337 178.225C25.8671 172.371 18.5379 164.887 12.8635 156.2C7.18906 147.514 3.28059 137.795 1.36228 127.599C-0.556013 117.402 -0.447511 106.927 1.68232 96.7721C3.81218 86.6176 7.92176 76.9815 13.7754 68.415C19.6291 59.8486 27.1134 52.519 35.7997 46.8447C44.486 41.1705 54.205 37.2618 64.4015 35.3435C71.6364 33.9825 79.011 33.6457 86.3121 34.3235L88.6767 23.0494C90.2557 15.5216 94.7597 8.92909 101.199 4.72232C107.639 0.515482 115.487 -0.961333 123.015 0.617658L142.591 4.72349C147.457 5.74393 150.573 10.5152 149.553 15.3805L147.5 25.1685Z" fill="var(--fill-0, #1C1917)"/>
</g>
</svg>
