<svg preserveAspectRatio="none" width="100%" height="100%" overflow="visible" style="display: block;" viewBox="0 0 18 20" fill="none" xmlns="http://www.w3.org/2000/svg">
<path id="Vector" d="M1 4C1 4.79565 1.84285 5.55871 3.34315 6.12132C4.84344 6.68393 6.87827 7 9 7C11.1217 7 13.1566 6.68393 14.6569 6.12132C16.1571 5.55871 17 4.79565 17 4M1 4C1 3.20435 1.84285 2.44129 3.34315 1.87868C4.84344 1.31607 6.87827 1 9 1C11.1217 1 13.1566 1.31607 14.6569 1.87868C16.1571 2.44129 17 3.20435 17 4M1 4V10M17 4V10M1 10C1 10.7956 1.84285 11.5587 3.34315 12.1213C4.84344 12.6839 6.87827 13 9 13C11.1217 13 13.1566 12.6839 14.6569 12.1213C16.1571 11.5587 17 10.7956 17 10M1 10V16C1 16.7956 1.84285 17.5587 3.34315 18.1213C4.84344 18.6839 6.87827 19 9 19C11.1217 19 13.1566 18.6839 14.6569 18.1213C16.1571 17.5587 17 16.7956 17 16V10" stroke="var(--stroke-0, #1C1917)" stroke-width="2" stroke-linecap="round" stroke-linejoin="round"/>
</svg>
