<svg preserveAspectRatio="none" width="100%" height="100%" overflow="visible" style="display: block;" viewBox="0 0 21 21" fill="none" xmlns="http://www.w3.org/2000/svg">
<path id="Vector" d="M12.8523 7.00449C12.6711 6.69025 12.408 6.43119 12.0909 6.25505C11.7738 6.0789 11.4148 5.99229 11.0523 6.00449H10.0523L10.0523 4.00449M7.2323 7.17549C7.09354 7.48014 7.03347 7.81476 7.0576 8.14865C7.08173 8.48254 7.18929 8.80504 7.37041 9.08658C7.55153 9.36811 7.80043 9.59968 8.09428 9.76006C8.38813 9.92043 8.71753 10.0045 9.0523 10.0045H10.0523M12.8763 12.8265C12.718 13.1776 12.4616 13.4756 12.1381 13.6846C11.8145 13.8935 11.4375 14.0046 11.0523 14.0045H9.0523C8.68979 14.0167 8.33079 13.9301 8.01372 13.7539C7.69665 13.5778 7.43345 13.3187 7.2523 13.0045M18.0943 14.0495C18.9463 12.3584 19.2433 10.4416 18.9428 8.57193C18.6423 6.70229 17.7598 4.97505 16.4208 3.63605C15.0818 2.29705 13.3545 1.41451 11.4849 1.11403C9.61523 0.81356 7.69845 1.11046 6.00732 1.96249M3.68932 3.63949C2.84226 4.47255 2.16852 5.46507 1.70696 6.55981C1.2454 7.65455 1.00515 8.82984 1.00008 10.0179C0.995012 11.2059 1.22522 12.3832 1.67742 13.4819C2.12962 14.5805 2.79487 15.5788 3.63479 16.419C4.47471 17.2593 5.47268 17.9249 6.57115 18.3775C7.66961 18.8302 8.84681 19.0608 10.0349 19.0562C11.2229 19.0516 12.3983 18.8118 13.4932 18.3507C14.5881 17.8896 15.5809 17.2162 16.4143 16.3695M10.0523 14.0045V16.0045M1.05231 1.00449L19.0523 19.0045" stroke="var(--stroke-0, #1C1917)" stroke-width="2" stroke-linecap="round" stroke-linejoin="round"/>
</svg>
