<svg preserveAspectRatio="none" width="100%" height="100%" overflow="visible" style="display: block;" viewBox="0 0 22 21" fill="none" xmlns="http://www.w3.org/2000/svg">
<path id="Vector" d="M10.9936 0.000349945C11.1566 0.000969623 11.3169 0.0417072 11.4604 0.118967C11.604 0.196226 11.7263 0.307632 11.8166 0.44335L11.8836 0.55935L14.7356 6.34035L21.1156 7.26535C21.8566 7.37335 22.1956 8.20535 21.8186 8.79135L21.7486 8.88635L21.6706 8.97235L17.0466 13.4713L18.1366 19.8263C18.165 19.9921 18.1511 20.1624 18.0963 20.3214C18.0416 20.4804 17.9476 20.623 17.8231 20.7362C17.6987 20.8493 17.5477 20.9292 17.3842 20.9685C17.2207 21.0079 17.0499 21.0054 16.8876 20.9613L16.7866 20.9263L16.6856 20.8803L10.9926 17.8803L5.28656 20.8803C5.18156 20.9353 5.07456 20.9703 4.96656 20.9863L4.86056 20.9963C4.72099 21.0015 4.5819 20.9774 4.45218 20.9256C4.32247 20.8738 4.20499 20.7956 4.10728 20.6958C4.00956 20.596 3.93376 20.4769 3.88474 20.3461C3.83571 20.2153 3.81453 20.0758 3.82256 19.9363L3.83556 19.8263L4.92556 13.4713L0.302561 8.97135C0.183014 8.85491 0.0944766 8.71043 0.0450014 8.55105C-0.00447374 8.39166 -0.0133161 8.22244 0.0192787 8.05877C0.0518734 7.8951 0.124871 7.74218 0.231631 7.61391C0.338391 7.48565 0.475526 7.38611 0.630561 7.32435L0.743561 7.28835L0.857561 7.26535L7.23656 6.34035L10.0896 0.56035C10.1691 0.38896 10.2971 0.244609 10.4578 0.145099C10.6184 0.0455882 10.8047 -0.0047298 10.9936 0.000349945ZM10.9936 3.27435V15.7503C11.0741 15.7504 11.1544 15.7601 11.2326 15.7793L11.3476 15.8154L11.4596 15.8653L15.8226 18.1643L14.9866 13.2914C14.9453 13.0505 14.9937 12.8029 15.1226 12.5954L15.1926 12.4964L15.2746 12.4064L18.8206 8.95335L13.9296 8.24535C13.6878 8.21026 13.4673 8.08789 13.3096 7.90135L13.2366 7.80435L13.1766 7.69835L10.9936 3.27435Z" fill="var(--fill-0, #1C1917)"/>
</svg>
