<svg preserveAspectRatio="none" width="100%" height="100%" overflow="visible" style="display: block;" viewBox="0 0 20 20" fill="none" xmlns="http://www.w3.org/2000/svg">
<path id="Vector" d="M7 13.0045L10 10.0045M12 8.00447L13 7.00447M7.14801 7.14947C7.07667 7.21884 7.02776 7.30798 7.00756 7.4054C6.98736 7.50283 6.99681 7.60407 7.03469 7.69608C7.07257 7.78808 7.13714 7.86663 7.22008 7.9216C7.30301 7.97657 7.40051 8.00543 7.50001 8.00447C7.63075 8.00472 7.75639 7.95374 7.85001 7.86247M12.148 12.1495C12.0767 12.2188 12.0278 12.308 12.0076 12.4054C11.9874 12.5028 11.9968 12.6041 12.0347 12.6961C12.0726 12.7881 12.1371 12.8666 12.2201 12.9216C12.303 12.9766 12.4005 13.0054 12.5 13.0045C12.6308 13.0047 12.7564 12.9537 12.85 12.8625M3.64097 3.63547C1.95181 5.32211 1.00185 7.61069 1.00006 9.99775C0.998282 12.3848 1.94483 14.6748 3.63147 16.364C5.31812 18.0531 7.6067 19.0031 9.99375 19.0049C12.3808 19.0067 14.6708 18.0601 16.36 16.3735M18.04 14.0555C18.8931 12.3653 19.1915 10.4492 18.8927 8.57965C18.5939 6.71012 17.7131 4.98243 16.3757 3.64237C15.0383 2.30231 13.3124 1.41813 11.4435 1.11563C9.57454 0.813133 7.65781 1.10771 5.96597 1.95747M1 1.00447L19 19.0045" stroke="var(--stroke-0, #1C1917)" stroke-width="2" stroke-linecap="round" stroke-linejoin="round"/>
</svg>
