<svg preserveAspectRatio="none" width="100%" height="100%" overflow="visible" style="display: block;" viewBox="0 0 20 22" fill="none" xmlns="http://www.w3.org/2000/svg">
<path id="Vector" d="M7.75013 8.00537C5.35644 6.70848 2.83069 4.46441 0.750134 0.750134M1.75013 9.75013C1.11107 10.221 0.750134 10.7555 0.750134 11.3221C0.750134 13.2154 4.77957 14.7501 9.75013 14.7501C14.7207 14.7501 18.7501 13.2154 18.7501 11.3221C18.7501 10.7555 18.3892 10.221 17.7501 9.75013M18.7501 11.7501C18.7501 15.3268 16.2437 18.4648 13.5453 20.2323C12.9904 20.5958 12.3305 20.7501 11.6672 20.7501H7.83307C7.16973 20.7501 6.5099 20.5958 5.955 20.2323C3.25653 18.4648 0.750134 15.3268 0.750134 11.7501M9.36562 3.16914C7.33063 1.83363 4.84756 2.39178 3.81952 4.4158C2.79148 6.43983 3.60777 9.16327 5.64276 10.4988C7.4851 11.7078 11.5174 12.958 14.7501 9.49509C11.7207 8.20502 11.4006 4.50465 9.36562 3.16914Z" stroke="var(--stroke-0, #1C1917)" stroke-width="1.5" stroke-linecap="round"/>
</svg>
