<svg preserveAspectRatio="none" width="100%" height="100%" overflow="visible" style="display: block;" viewBox="0 0 16 22" fill="none" xmlns="http://www.w3.org/2000/svg">
<path id="Vector" d="M2.65042 1.47003L2.07426 0.989887L2.07426 0.989887L2.65042 1.47003ZM1.67723 2.63786L1.10106 2.15772L1.67723 2.63786ZM1.67723 18.8629L2.2534 18.3828L2.2534 18.3828L1.67723 18.8629ZM2.95027 20.3906L3.52644 19.9104L3.52644 19.9104L2.95027 20.3906ZM12.8498 1.47003L12.2736 1.95016L12.2736 1.95016L12.8498 1.47003ZM13.823 2.63786L13.2468 3.118L13.2468 3.118L13.823 2.63786ZM13.823 18.8629L13.2468 18.3828L13.2468 18.3828L13.823 18.8629ZM12.55 20.3906L11.9738 19.9104L11.9738 19.9104L12.55 20.3906ZM14.6307 17.7071L13.9255 17.4518L13.9255 17.4518L14.6307 17.7071ZM14.6307 3.79364L13.9255 4.04896L13.9255 4.04896L14.6307 3.79364ZM0.869573 17.7071L0.164369 17.9625L0.16437 17.9625L0.869573 17.7071ZM3.29434 0.844805L3.61245 1.524L3.61245 1.524L3.29434 0.844805ZM1.75012 0.000393987C1.3359 0.000393987 1.00012 0.33618 1.00012 0.750394C1.00012 1.16461 1.3359 1.50039 1.75012 1.50039V0.750394V0.000393987ZM13.7501 1.50039C14.1643 1.50039 14.5001 1.16461 14.5001 0.750394C14.5001 0.33618 14.1643 0.000393987 13.7501 0.000393987V0.750394V1.50039ZM2.65042 1.47003L2.07426 0.989887L1.10106 2.15772L1.67723 2.63786L2.2534 3.118L3.22659 1.95016L2.65042 1.47003ZM0.750117 5.19859H0.000116527V16.3022H0.750117H1.50012V5.19859H0.750117ZM1.67723 18.8629L1.10107 19.3431L2.3741 20.8707L2.95027 20.3906L3.52644 19.9104L2.2534 18.3828L1.67723 18.8629ZM12.8498 1.47003L12.2736 1.95016L13.2468 3.118L13.823 2.63786L14.3992 2.15772L13.426 0.989887L12.8498 1.47003ZM14.7501 5.19859H14.0001V16.3022H14.7501H15.5001V5.19859H14.7501ZM13.823 18.8629L13.2468 18.3828L11.9738 19.9104L12.55 20.3906L13.1261 20.8707L14.3992 19.3431L13.823 18.8629ZM3.71849 20.7504V21.5004H11.7817V20.7504V20.0004H3.71849V20.7504ZM4.18687 0.750394V1.50039H11.3134V0.750394V0.000393987H4.18687V0.750394ZM12.55 20.3906L11.9738 19.9104C11.9358 19.956 11.9078 19.9896 11.8834 20.0179C11.8592 20.046 11.8454 20.0609 11.8376 20.0688C11.8303 20.0762 11.8344 20.0712 11.8476 20.0612C11.8624 20.05 11.8836 20.0363 11.9099 20.024L12.228 20.7032L12.5461 21.3824C12.8335 21.2478 13.0235 20.9939 13.1261 20.8707L12.55 20.3906ZM11.7817 20.7504V21.5004C11.942 21.5004 12.2588 21.517 12.5461 21.3824L12.228 20.7032L11.9099 20.024C11.9362 20.0117 11.9603 20.0041 11.9784 19.9999C11.9945 19.9962 12.0009 19.9963 11.9906 19.9971C11.9795 19.9981 11.9592 19.9991 11.9221 19.9998C11.8848 20.0004 11.8411 20.0004 11.7817 20.0004V20.7504ZM14.7501 16.3022H14.0001C14.0001 17.0718 13.9898 17.2742 13.9255 17.4518L14.6307 17.7071L15.3359 17.9625C15.5105 17.4802 15.5001 16.966 15.5001 16.3022H14.7501ZM13.823 18.8629L14.3992 19.3431C14.8241 18.8331 15.1613 18.4447 15.3359 17.9625L14.6307 17.7071L13.9255 17.4518C13.8612 17.6294 13.7395 17.7916 13.2468 18.3828L13.823 18.8629ZM13.823 2.63786L13.2468 3.118C13.7395 3.7092 13.8612 3.87136 13.9255 4.04896L14.6307 3.79364L15.3359 3.53833C15.1613 3.05604 14.8241 2.66764 14.3992 2.15772L13.823 2.63786ZM14.7501 5.19859H15.5001C15.5001 4.53483 15.5105 4.02061 15.3359 3.53832L14.6307 3.79364L13.9255 4.04896C13.9898 4.22657 14.0001 4.42902 14.0001 5.19859H14.7501ZM12.8498 1.47003L13.426 0.989887C13.1759 0.68981 12.9121 0.347401 12.524 0.165612L12.2059 0.844805L11.8878 1.524C11.8879 1.52405 11.8882 1.52416 11.889 1.5247C11.89 1.52528 11.8927 1.527 11.8975 1.53065C11.9077 1.53836 11.9269 1.55439 11.9589 1.58684C12.0307 1.65954 12.1184 1.76382 12.2736 1.95016L12.8498 1.47003ZM11.3134 0.750394V1.50039C11.5559 1.50039 11.6922 1.501 11.7939 1.50956C11.8394 1.51338 11.864 1.51787 11.8764 1.52076C11.8823 1.52213 11.8854 1.52312 11.8864 1.52348C11.8874 1.52381 11.8877 1.52395 11.8878 1.524L12.2059 0.844805L12.524 0.165612C12.1359 -0.0161763 11.704 0.000393987 11.3134 0.000393987V0.750394ZM2.95027 20.3906L2.3741 20.8707C2.47672 20.9939 2.66677 21.2478 2.95411 21.3824L3.27223 20.7032L3.59034 20.024C3.61663 20.0363 3.63785 20.05 3.65268 20.0612C3.66587 20.0712 3.66994 20.0762 3.66266 20.0688C3.65484 20.0609 3.64103 20.046 3.61678 20.0179C3.59242 19.9896 3.56444 19.956 3.52644 19.9104L2.95027 20.3906ZM3.71849 20.7504V20.0004C3.65914 20.0004 3.61545 20.0004 3.57813 19.9998C3.54099 19.9991 3.52072 19.9981 3.50962 19.9971C3.49929 19.9963 3.50572 19.9962 3.52184 19.9999C3.53994 20.0041 3.56406 20.0117 3.59034 20.024L3.27223 20.7032L2.95411 21.3824C3.24145 21.517 3.5582 21.5004 3.71849 21.5004V20.7504ZM0.750117 16.3022H0.000116527C0.000116527 16.966 -0.0102416 17.4802 0.164369 17.9625L0.869573 17.7071L1.57478 17.4518C1.51047 17.2742 1.50012 17.0718 1.50012 16.3022H0.750117ZM1.67723 18.8629L2.2534 18.3828C1.76073 17.7916 1.63908 17.6294 1.57478 17.4518L0.869573 17.7071L0.16437 17.9625C0.338981 18.4447 0.676131 18.8331 1.10107 19.3431L1.67723 18.8629ZM1.67723 2.63786L1.10106 2.15772C0.676131 2.66764 0.338981 3.05604 0.16437 3.53832L0.869573 3.79364L1.57478 4.04896C1.63908 3.87136 1.76073 3.7092 2.2534 3.118L1.67723 2.63786ZM0.750117 5.19859H1.50012C1.50012 4.42902 1.51047 4.22657 1.57478 4.04896L0.869573 3.79364L0.16437 3.53832C-0.0102417 4.02061 0.000116527 4.53483 0.000116527 5.19859H0.750117ZM2.65042 1.47003L3.22659 1.95016C3.38187 1.76382 3.46957 1.65954 3.54129 1.58684C3.5733 1.55439 3.59251 1.53836 3.6027 1.53065C3.60751 1.527 3.61024 1.52528 3.6112 1.5247C3.61208 1.52416 3.61235 1.52405 3.61245 1.524L3.29434 0.844805L2.97622 0.165612C2.58809 0.347401 2.32432 0.689812 2.07426 0.989887L2.65042 1.47003ZM4.18687 0.750394V0.000393987C3.79625 0.000393987 3.36435 -0.0161763 2.97622 0.165612L3.29434 0.844805L3.61245 1.524C3.61256 1.52395 3.61282 1.52381 3.6138 1.52348C3.61486 1.52312 3.61792 1.52213 3.62381 1.52076C3.63626 1.51787 3.66087 1.51338 3.70629 1.50956C3.80806 1.501 3.9443 1.50039 4.18687 1.50039V0.750394ZM0.750117 3.75039V4.50039H14.7501V3.75039V3.00039H0.750117V3.75039ZM0.750117 17.7504V18.5004H14.7501V17.7504V17.0004H0.750117V17.7504ZM1.75012 0.750394V1.50039H13.7501V0.750394V0.000393987H1.75012V0.750394ZM10.2501 10.7504H9.50012C9.50012 11.7169 8.71661 12.5004 7.75012 12.5004V13.2504V14.0004C9.54504 14.0004 11.0001 12.5453 11.0001 10.7504H10.2501ZM7.75012 13.2504V12.5004C6.78362 12.5004 6.00012 11.7169 6.00012 10.7504H5.25012H4.50012C4.50012 12.5453 5.95519 14.0004 7.75012 14.0004V13.2504ZM5.25012 10.7504H6.00012C6.00012 9.7839 6.78362 9.00039 7.75012 9.00039V8.25039V7.50039C5.95519 7.50039 4.50012 8.95547 4.50012 10.7504H5.25012ZM7.75012 8.25039V9.00039C8.71661 9.00039 9.50012 9.7839 9.50012 10.7504H10.2501H11.0001C11.0001 8.95547 9.54504 7.50039 7.75012 7.50039V8.25039Z" fill="var(--stroke-0, #1C1917)"/>
</svg>
