<svg preserveAspectRatio="none" width="100%" height="100%" overflow="visible" style="display: block;" viewBox="0 0 18 22" fill="none" xmlns="http://www.w3.org/2000/svg">
<path id="Vector" d="M6.43936 14.0454C6.60253 13.6647 6.42616 13.2238 6.04544 13.0606C5.66472 12.8975 5.22381 13.0738 5.06064 13.4546L5.75 13.75L6.43936 14.0454ZM2.06064 20.4546C1.89747 20.8353 2.07384 21.2762 2.45456 21.4394C2.83528 21.6025 3.27619 21.4262 3.43936 21.0454L2.75 20.75L2.06064 20.4546ZM12.4394 13.4546C12.2762 13.0738 11.8353 12.8975 11.4546 13.0606C11.0738 13.2238 10.8975 13.6647 11.0606 14.0454L11.75 13.75L12.4394 13.4546ZM14.0606 21.0454C14.2238 21.4262 14.6647 21.6025 15.0454 21.4394C15.4262 21.2762 15.6025 20.8353 15.4394 20.4546L14.75 20.75L14.0606 21.0454ZM8 20.75C8 21.1642 8.33579 21.5 8.75 21.5C9.16421 21.5 9.5 21.1642 9.5 20.75H8.75H8ZM11.7942 4.20134C11.4912 4.48375 11.4745 4.95833 11.7569 5.26134C12.0393 5.56436 12.5139 5.58107 12.8169 5.29866L12.3056 4.75L11.7942 4.20134ZM12.3056 2.75L12.8169 2.20134L12.8169 2.20134L12.3056 2.75ZM12.8169 1.29866C13.1199 1.01626 13.1366 0.541678 12.8542 0.238661C12.5718 -0.0643563 12.0972 -0.0810649 11.7942 0.201341L12.3056 0.750003L12.8169 1.29866ZM8.23866 4.20134C7.93564 4.48375 7.91893 4.95833 8.20134 5.26134C8.48374 5.56436 8.95832 5.58107 9.26134 5.29866L8.75 4.75L8.23866 4.20134ZM8.75 2.75L9.26134 2.20134L8.75 2.75ZM9.26134 1.29866C9.56436 1.01626 9.58107 0.541678 9.29866 0.238661C9.01626 -0.0643564 8.54168 -0.0810649 8.23866 0.201341L8.75 0.750003L9.26134 1.29866ZM4.6831 4.20134C4.38009 4.48375 4.36338 4.95833 4.64578 5.26134C4.92819 5.56436 5.40277 5.58107 5.70579 5.29866L5.19444 4.75L4.6831 4.20134ZM5.19444 2.75L5.70579 2.20134L5.70579 2.20134L5.19444 2.75ZM5.70579 1.29866C6.0088 1.01626 6.02551 0.541678 5.74311 0.238661C5.4607 -0.0643564 4.98612 -0.0810649 4.6831 0.201341L5.19444 0.750003L5.70579 1.29866ZM4.25 17C3.83579 17 3.5 17.3358 3.5 17.75C3.5 18.1642 3.83579 18.5 4.25 18.5V17.75V17ZM13.25 18.5C13.6642 18.5 14 18.1642 14 17.75C14 17.3358 13.6642 17 13.25 17V17.75V18.5ZM15.6985 7.74703L14.956 7.64087L14.956 7.64087L15.6985 7.74703ZM1.80151 7.74703L1.05906 7.8532L1.80151 7.74703ZM1.85816 6.92235L1.2923 6.43012L1.2923 6.43012L1.85816 6.92235ZM15.75 8C15.3358 8 15 8.33579 15 8.75C15 9.16422 15.3358 9.5 15.75 9.5V8.75V8ZM16.75 9.5C17.1642 9.5 17.5 9.16422 17.5 8.75C17.5 8.33579 17.1642 8 16.75 8V8.75V9.5ZM1.75 9.5C2.16421 9.5 2.5 9.16422 2.5 8.75C2.5 8.33579 2.16421 8 1.75 8V8.75V9.5ZM0.75 8C0.335786 8 0 8.33579 0 8.75C0 9.16422 0.335786 9.5 0.75 9.5V8.75V8ZM5.75 13.75L5.06064 13.4546L2.06064 20.4546L2.75 20.75L3.43936 21.0454L6.43936 14.0454L5.75 13.75ZM11.75 13.75L11.0606 14.0454L14.0606 21.0454L14.75 20.75L15.4394 20.4546L12.4394 13.4546L11.75 13.75ZM8.75 13.75H8V20.75H8.75H9.5V13.75H8.75ZM12.3056 4.75L12.8169 5.29866C13.7277 4.44981 13.7277 3.05019 12.8169 2.20134L12.3056 2.75L11.7942 3.29866C12.0686 3.55438 12.0686 3.94562 11.7942 4.20134L12.3056 4.75ZM12.3056 0.750003L11.7942 0.201341C10.8834 1.05019 10.8834 2.44981 11.7942 3.29866L12.3056 2.75L12.8169 2.20134C12.5425 1.94562 12.5425 1.55438 12.8169 1.29866L12.3056 0.750003ZM8.75 4.75L9.26134 5.29866C10.1721 4.44981 10.1721 3.05019 9.26134 2.20134L8.75 2.75L8.23866 3.29866C8.51304 3.55438 8.51304 3.94562 8.23866 4.20134L8.75 4.75ZM8.75 0.750003L8.23866 0.201341C7.32785 1.05019 7.32785 2.44981 8.23866 3.29866L8.75 2.75L9.26134 2.20134C8.98696 1.94562 8.98696 1.55438 9.26134 1.29866L8.75 0.750003ZM5.19444 4.75L5.70579 5.29866C6.61659 4.44981 6.61659 3.05019 5.70579 2.20134L5.19444 2.75L4.6831 3.29866C4.95748 3.55438 4.95748 3.94562 4.6831 4.20134L5.19444 4.75ZM5.19444 0.750003L4.6831 0.201341C3.7723 1.05019 3.7723 2.44981 4.6831 3.29866L5.19444 2.75L5.70579 2.20134C5.4314 1.94562 5.4314 1.55438 5.70579 1.29866L5.19444 0.750003ZM4.25 17.75V18.5H13.25V17.75V17H4.25V17.75ZM15.6985 7.74703L14.956 7.64087C14.5231 10.6689 11.9102 13 8.75 13V13.75V14.5C12.6641 14.5 15.9034 11.6127 16.4409 7.8532L15.6985 7.74703ZM8.75 13.75V13C5.5898 13 2.97694 10.6689 2.54396 7.64087L1.80151 7.74703L1.05906 7.8532C1.59663 11.6127 4.8359 14.5 8.75 14.5V13.75ZM2.73359 6.75V7.5H14.7664V6.75V6H2.73359V6.75ZM1.80151 7.74703L2.54396 7.64087C2.52792 7.52868 2.51623 7.44641 2.5085 7.37649C2.50075 7.30645 2.49966 7.27108 2.50007 7.25463C2.50041 7.24049 2.50158 7.26181 2.48859 7.30066C2.47386 7.34469 2.44991 7.38484 2.42402 7.41459L1.85816 6.92235L1.2923 6.43012C1.07183 6.68356 1.00668 6.96678 1.00052 7.21786C0.995427 7.42544 1.03162 7.66128 1.05906 7.8532L1.80151 7.74703ZM2.73359 6.75V6C2.51599 6 2.26639 5.99792 2.05638 6.03031C1.81309 6.06784 1.52364 6.16417 1.2923 6.43012L1.85816 6.92235L2.42402 7.41459C2.39162 7.45184 2.35054 7.48196 2.3105 7.50087C2.27673 7.51682 2.26108 7.51648 2.28507 7.51278C2.31028 7.50889 2.35521 7.50471 2.43554 7.50238C2.51549 7.50007 2.60947 7.5 2.73359 7.5V6.75ZM15.6985 7.74703L16.4409 7.8532C16.4684 7.66128 16.5046 7.42544 16.4995 7.21786C16.4933 6.96678 16.4282 6.68356 16.2077 6.43012L15.6418 6.92235L15.076 7.41459C15.0501 7.38484 15.0261 7.34469 15.0114 7.30066C14.9984 7.26181 14.9996 7.24049 14.9999 7.25463C15.0003 7.27108 14.9993 7.30645 14.9915 7.37649C14.9838 7.44641 14.9721 7.52868 14.956 7.64087L15.6985 7.74703ZM14.7664 6.75V7.5C14.8905 7.5 14.9845 7.50007 15.0645 7.50238C15.1448 7.50471 15.1897 7.50889 15.2149 7.51278C15.2389 7.51648 15.2233 7.51682 15.1895 7.50087C15.1495 7.48196 15.1084 7.45184 15.076 7.41459L15.6418 6.92235L16.2077 6.43012C15.9764 6.16417 15.6869 6.06784 15.4436 6.03031C15.2336 5.99792 14.984 6 14.7664 6V6.75ZM15.75 8.75V9.5H16.75V8.75V8H15.75V8.75ZM1.75 8.75V8H0.75V8.75V9.5H1.75V8.75Z" fill="var(--stroke-0, #1C1917)"/>
</svg>
