<svg preserveAspectRatio="none" width="100%" height="100%" overflow="visible" style="display: block;" viewBox="0 0 22 22" fill="none" xmlns="http://www.w3.org/2000/svg">
<path id="Vector" d="M20.3102 11.0598L20.9107 11.5092L20.9107 11.5092L20.3102 11.0598ZM17.9139 10.9133L17.2864 11.3242L17.2864 11.3242L17.9139 10.9133ZM17.7 10.5867L18.3275 10.1758L18.3275 10.1758L17.7 10.5867ZM15.3769 10.3469L14.7978 9.87027L14.7978 9.87027L15.3769 10.3469ZM6.31022 11.0598L6.9107 11.5092L6.9107 11.5092L6.31022 11.0598ZM3.9139 10.9133L4.54136 10.5025L4.54136 10.5025L3.9139 10.9133ZM3.70001 10.5867L3.07255 10.9975L3.07255 10.9975L3.70001 10.5867ZM1.37686 10.3469L0.79781 9.87027L0.79781 9.87027L1.37686 10.3469ZM20.2014 7.32874L19.4921 7.57264L19.4921 7.57264L20.2014 7.32874ZM14.6859 3.72652L14.6324 4.47461L14.6324 4.47461L14.6859 3.72652ZM12.7992 2.15443L12.07 2.3295L12.07 2.3295L12.7992 2.15443ZM18.6722 6.67582L18.7677 7.41973L18.7677 7.41973L18.6722 6.67582ZM15.7937 4.65395L15.0582 4.80045L15.0582 4.80045L15.7937 4.65395ZM14.75 10.75H14C14 12.5449 12.5449 14 10.75 14V14.75V15.5C13.3734 15.5 15.5 13.3734 15.5 10.75H14.75ZM10.75 14.75V14C8.95507 14 7.5 12.5449 7.5 10.75H6.75H6C6 13.3734 8.12665 15.5 10.75 15.5V14.75ZM6.75 10.75H7.5C7.5 8.95507 8.95507 7.5 10.75 7.5V6.75V6C8.12665 6 6 8.12665 6 10.75H6.75ZM10.75 6.75V7.5C12.5449 7.5 14 8.95507 14 10.75H14.75H15.5C15.5 8.12665 13.3734 6 10.75 6V6.75ZM20.75 10.4721L20.1495 10.0228L19.7097 10.6105L20.3102 11.0598L20.9107 11.5092L21.3505 10.9215L20.75 10.4721ZM17.9139 10.9133L18.5414 10.5025L18.3275 10.1758L17.7 10.5867L17.0725 10.9975L17.2864 11.3242L17.9139 10.9133ZM15.3769 10.3469L14.7978 9.87027L14.1709 10.6318L14.75 11.1085L15.3291 11.5851L15.9559 10.8236L15.3769 10.3469ZM17.7 10.5867L18.3275 10.1758C17.9204 9.55408 17.3452 9.08278 16.6356 9.00954C15.9063 8.93428 15.266 9.30154 14.7978 9.87027L15.3769 10.3469L15.9559 10.8236C16.2093 10.5157 16.3966 10.4928 16.4816 10.5016C16.5861 10.5124 16.8118 10.5993 17.0725 10.9975L17.7 10.5867ZM20.3102 11.0598L19.7097 10.6105C19.4415 10.9689 19.2338 11.0049 19.145 10.9994C19.0434 10.9932 18.8122 10.9161 18.5414 10.5025L17.9139 10.9133L17.2864 11.3242C17.7088 11.9692 18.3122 12.4513 19.0535 12.4966C19.8078 12.5427 20.4516 12.1226 20.9107 11.5092L20.3102 11.0598ZM6.75 10.4721L6.14952 10.0228L5.70973 10.6105L6.31022 11.0598L6.9107 11.5092L7.35048 10.9215L6.75 10.4721ZM3.9139 10.9133L4.54136 10.5025L4.32746 10.1758L3.70001 10.5867L3.07255 10.9975L3.28644 11.3242L3.9139 10.9133ZM1.37686 10.3469L0.79781 9.87027L0.170946 10.6318L0.75 11.1085L1.32905 11.5851L1.95592 10.8236L1.37686 10.3469ZM3.70001 10.5867L4.32746 10.1758C3.92036 9.55408 3.34523 9.08278 2.63557 9.00954C1.90631 8.93428 1.26597 9.30154 0.79781 9.87027L1.37686 10.3469L1.95592 10.8236C2.20933 10.5157 2.39662 10.4928 2.48158 10.5016C2.58613 10.5124 2.81178 10.5993 3.07255 10.9975L3.70001 10.5867ZM6.31022 11.0598L5.70973 10.6105C5.44152 10.9689 5.23379 11.0049 5.14505 10.9994C5.04339 10.9932 4.8122 10.9161 4.54136 10.5025L3.9139 10.9133L3.28644 11.3242C3.70882 11.9692 4.31215 12.4513 5.05353 12.4966C5.80783 12.5427 6.45164 12.1226 6.9107 11.5092L6.31022 11.0598ZM20.75 10.75H20C20 15.8586 15.8586 20 10.75 20V20.75V21.5C16.6871 21.5 21.5 16.6871 21.5 10.75H20.75ZM10.75 20.75V20C5.64137 20 1.5 15.8586 1.5 10.75H0.75H0C0 16.6871 4.81294 21.5 10.75 21.5V20.75ZM0.75 10.75H1.5C1.5 5.64137 5.64137 1.5 10.75 1.5V0.75V0C4.81294 0 0 4.81294 0 10.75H0.75ZM20.2014 7.32874L19.4921 7.57264C19.8303 8.55605 20 9.63457 20 10.75H20.75H21.5C21.5 9.48465 21.3078 8.23972 20.9106 7.08484L20.2014 7.32874ZM14.6859 3.72652L14.7393 2.97842C14.1761 2.93818 13.6543 2.50343 13.5285 1.97935L12.7992 2.15443L12.07 2.3295C12.356 3.52093 13.45 4.39012 14.6324 4.47461L14.6859 3.72652ZM18.6722 6.67582L18.5768 5.93192C17.6536 6.05033 16.7019 5.3742 16.5293 4.50745L15.7937 4.65395L15.0582 4.80045C15.3921 6.47712 17.1004 7.63358 18.7677 7.41973L18.6722 6.67582ZM12.7992 2.15443L13.5285 1.97935C13.3689 1.31446 13.1593 0.661713 12.5722 0.302088C12.2902 0.129301 11.9839 0.0632519 11.6998 0.032364C11.4197 0.00192055 11.0947 0 10.75 0V0.75V1.5C11.1098 1.5 11.3524 1.50344 11.5376 1.52358C11.7188 1.54327 11.7754 1.57303 11.7887 1.58116C11.7923 1.58335 11.9027 1.63282 12.07 2.3295L12.7992 2.15443ZM14.6859 3.72652L14.6324 4.47461C14.8793 4.49225 15.0075 4.50057 15.1002 4.51505C15.1884 4.52885 15.1272 4.53358 15.0456 4.46858C14.9555 4.39677 14.9425 4.32349 14.9624 4.3827C14.9857 4.45224 15.0117 4.5673 15.0582 4.80045L15.7937 4.65395L16.5293 4.50745C16.4874 4.29736 16.444 4.08295 16.3845 3.9056C16.3215 3.71792 16.2123 3.48031 15.9805 3.29554C15.7572 3.11757 15.5087 3.06071 15.3319 3.03306C15.1595 3.0061 14.945 2.99313 14.7393 2.97842L14.6859 3.72652ZM20.2014 7.32874L20.9106 7.08484C20.7371 6.58029 20.4591 6.08661 19.8641 5.91324C19.6173 5.84133 19.3752 5.84545 19.1838 5.85986C18.9965 5.87396 18.7732 5.90673 18.5768 5.93192L18.6722 6.67582L18.7677 7.41973C19.0111 7.38851 19.1614 7.36579 19.2964 7.35563C19.4275 7.34576 19.4564 7.35683 19.4445 7.35336C19.4333 7.35009 19.4151 7.34272 19.3963 7.32993C19.3781 7.31756 19.3711 7.30816 19.3741 7.31185C19.3861 7.3268 19.4301 7.39218 19.4921 7.57264L20.2014 7.32874Z" fill="var(--stroke-0, #1C1917)"/>
</svg>
