<svg preserveAspectRatio="none" width="100%" height="100%" overflow="visible" style="display: block;" viewBox="0 0 22 18" fill="none" xmlns="http://www.w3.org/2000/svg">
<path id="Vector" d="M19.5806 12.3303L19.9163 13.001L19.9163 13.001L19.5806 12.3303ZM17.2197 13.5118L17.5554 14.1825L17.5554 14.1825L17.2197 13.5118ZM4.28034 13.5118L4.61597 12.841L4.61597 12.841L4.28034 13.5118ZM1.91944 12.3303L2.25507 11.6596L2.25507 11.6596L1.91944 12.3303ZM4.73208 13.7753L5.22866 13.2132L5.22866 13.2132L4.73208 13.7753ZM6.87989 16.5126L7.23401 15.8515L7.23401 15.8515L6.87989 16.5126ZM14.6202 16.5126L14.2661 15.8515L14.2661 15.8515L14.6202 16.5126ZM16.768 13.7753L17.2646 14.3373L17.2646 14.3373L16.768 13.7753ZM1.00003 9.74928C1.00003 10.1635 1.33582 10.4993 1.75003 10.4993C2.16425 10.4993 2.50003 10.1635 2.50003 9.74928H1.75003H1.00003ZM13 9.74928C13 10.1635 13.3358 10.4993 13.75 10.4993C14.1642 10.4993 14.5 10.1635 14.5 9.74928H13.75H13ZM19 9.74928C19 10.1635 19.3358 10.4993 19.75 10.4993C20.1642 10.4993 20.5 10.1635 20.5 9.74928H19.75H19ZM11.8659 4.80087C11.5101 5.01302 11.3937 5.4734 11.6059 5.82916C11.818 6.18492 12.2784 6.30134 12.6342 6.08919L12.25 5.44503L11.8659 4.80087ZM5.00003 8.9715C5.00003 9.38571 5.33582 9.7215 5.75003 9.7215C6.16425 9.7215 6.50003 9.38571 6.50003 8.9715H5.75003H5.00003ZM9.00003 10.7493C9.00003 11.1635 9.33582 11.4993 9.75003 11.4993C10.1642 11.4993 10.5 11.1635 10.5 10.7493H9.75003H9.00003ZM7.02145 3.12691C6.92316 3.52929 7.16968 3.93517 7.57206 4.03346C7.97444 4.13175 8.38032 3.88524 8.47861 3.48286L7.75003 3.30488L7.02145 3.12691ZM11.9869 0.83056L12.1403 0.0964171L11.9869 0.83056ZM13.9336 4.5713C13.8353 4.97369 14.0818 5.37956 14.4842 5.47786C14.8866 5.57615 15.2924 5.32963 15.3907 4.92725L14.6622 4.74928L13.9336 4.5713ZM1.45848 9.74928V10.4993H20.0416V9.74928V8.99928H1.45848V9.74928ZM19.5806 12.3303L19.245 11.6596L16.8841 12.841L17.2197 13.5118L17.5554 14.1825L19.9163 13.001L19.5806 12.3303ZM12.6078 16.7493V15.9993H8.89231V16.7493V17.4993H12.6078V16.7493ZM4.28034 13.5118L4.61597 12.841L2.25507 11.6596L1.91944 12.3303L1.5838 13.001L3.9447 14.1825L4.28034 13.5118ZM4.28034 13.5118L3.9447 14.1825C4.0692 14.2448 4.13783 14.2794 4.18853 14.3081C4.21104 14.3208 4.2232 14.3286 4.22949 14.3329C4.23249 14.335 4.23412 14.3362 4.23477 14.3367C4.23512 14.337 4.23531 14.3372 4.23538 14.3372C4.23545 14.3373 4.23548 14.3373 4.2355 14.3373L4.73208 13.7753L5.22866 13.2132C5.0407 13.0471 4.81788 12.9421 4.61597 12.841L4.28034 13.5118ZM8.89231 16.7493V15.9993C8.35505 15.9993 8.003 15.9985 7.72882 15.9729C7.47012 15.9488 7.33639 15.9063 7.23401 15.8515L6.87989 16.5126L6.52577 17.1738C6.86522 17.3556 7.21416 17.4314 7.58945 17.4665C7.94925 17.5 8.3825 17.4993 8.89231 17.4993V16.7493ZM12.6078 16.7493V17.4993C13.1176 17.4993 13.5508 17.5 13.9106 17.4665C14.2859 17.4314 14.6348 17.3556 14.9743 17.1738L14.6202 16.5126L14.2661 15.8515C14.1637 15.9063 14.0299 15.9488 13.7712 15.9729C13.4971 15.9985 13.145 15.9993 12.6078 15.9993V16.7493ZM17.2197 13.5118L16.8841 12.841C16.6822 12.9421 16.4594 13.0471 16.2714 13.2132L16.768 13.7753L17.2646 14.3373C17.2646 14.3373 17.2646 14.3373 17.2647 14.3372C17.2648 14.3372 17.265 14.337 17.2653 14.3367C17.2659 14.3362 17.2676 14.335 17.2706 14.3329C17.2769 14.3286 17.289 14.3208 17.3115 14.3081C17.3622 14.2794 17.4309 14.2448 17.5554 14.1825L17.2197 13.5118ZM1.91944 12.3303L2.25507 11.6596C2.26217 11.6632 2.22867 11.6458 2.15961 11.5796C2.09586 11.5185 2.02139 11.4345 1.94395 11.3315C1.78645 11.1221 1.64702 10.8747 1.56673 10.6544C1.47428 10.4007 1.51088 10.3265 1.49433 10.3702C1.47626 10.4179 1.43503 10.4694 1.38491 10.4979C1.34793 10.519 1.35512 10.4993 1.45848 10.4993V9.74928V8.99928C1.18193 8.99928 0.897187 9.04954 0.642842 9.19432C0.375365 9.34659 0.191367 9.57563 0.0917261 9.83848C-0.0879582 10.3125 0.0303343 10.8193 0.157386 11.168C0.296605 11.55 0.5145 11.9264 0.745126 12.2331C0.959728 12.5185 1.25433 12.8362 1.5838 13.001L1.91944 12.3303ZM20.0416 9.74928V10.4993C20.1449 10.4993 20.1521 10.519 20.1152 10.4979C20.065 10.4694 20.0238 10.4179 20.0057 10.3702C19.9892 10.3265 20.0258 10.4007 19.9333 10.6544C19.853 10.8747 19.7136 11.1221 19.5561 11.3315C19.4787 11.4345 19.4042 11.5185 19.3405 11.5796C19.2714 11.6458 19.2379 11.6632 19.245 11.6596L19.5806 12.3303L19.9163 13.001C20.2457 12.8362 20.5403 12.5185 20.7549 12.2331C20.9856 11.9264 21.2035 11.55 21.3427 11.168C21.4697 10.8193 21.588 10.3125 21.4083 9.83848C21.3087 9.57563 21.1247 9.34659 20.8572 9.19432C20.6029 9.04953 20.3181 8.99928 20.0416 8.99928V9.74928ZM6.87989 16.5126L7.23401 15.8515C6.88422 15.6641 6.65506 15.3462 6.37287 14.8444C6.12058 14.3957 5.78832 13.7077 5.22866 13.2132L4.73208 13.7753L4.2355 14.3373C4.55382 14.6186 4.74066 15.0021 5.06539 15.5796C5.36021 16.1039 5.76597 16.7668 6.52577 17.1738L6.87989 16.5126ZM14.6202 16.5126L14.9743 17.1738C15.7341 16.7668 16.1399 16.1039 16.4347 15.5796C16.7594 15.002 16.9462 14.6186 17.2646 14.3373L16.768 13.7753L16.2714 13.2132C15.7117 13.7077 15.3795 14.3957 15.1272 14.8444C14.845 15.3462 14.6158 15.6641 14.2661 15.8515L14.6202 16.5126ZM1.75003 9.74928H2.50003C2.50003 6.84978 4.85054 4.49928 7.75003 4.49928V3.74928V2.99928C4.02211 2.99928 1.00003 6.02136 1.00003 9.74928H1.75003ZM7.75003 3.74928V4.49928C10.6495 4.49928 13 6.84978 13 9.74928H13.75H14.5C14.5 6.02136 11.478 2.99928 7.75003 2.99928V3.74928ZM14.7801 4.74928V5.49928C17.1064 5.49928 19 7.3978 19 9.74928H19.75H20.5C20.5 6.57791 17.9434 3.99928 14.7801 3.99928V4.74928ZM12.25 5.44503L12.6342 6.08919C13.2626 5.71446 13.9953 5.49928 14.7801 5.49928V4.74928V3.99928C13.7169 3.99928 12.7197 4.29174 11.8659 4.80087L12.25 5.44503ZM5.75003 8.9715H6.50003C6.50003 8.08213 7.13205 7.49928 7.75003 7.49928V6.74928V5.99928C6.15887 5.99928 5.00003 7.40627 5.00003 8.9715H5.75003ZM7.75003 6.74928V7.49928C8.36801 7.49928 9.00003 8.08213 9.00003 8.9715H9.75003H10.5C10.5 7.40627 9.34119 5.99928 7.75003 5.99928V6.74928ZM9.75003 8.9715H9.00003V10.7493H9.75003H10.5V8.9715H9.75003ZM7.75003 3.30488L8.47861 3.48286C8.80285 2.15551 10.2735 1.23871 11.8335 1.5647L11.9869 0.83056L12.1403 0.0964171C9.8829 -0.375309 7.5597 0.923483 7.02145 3.12691L7.75003 3.30488ZM11.9869 0.83056L11.8335 1.5647C13.3793 1.88771 14.252 3.26785 13.9336 4.5713L14.6622 4.74928L15.3907 4.92725C15.9348 2.69993 14.412 0.571124 12.1403 0.0964171L11.9869 0.83056Z" fill="var(--stroke-0, #1C1917)"/>
</svg>
