<svg preserveAspectRatio="none" width="100%" height="100%" overflow="visible" style="display: block;" viewBox="0 0 16 22" fill="none" xmlns="http://www.w3.org/2000/svg">
<path id="Vector" d="M13.6739 1.36732L14.3668 1.08031L14.3668 1.08031L13.6739 1.36732ZM13.1327 0.826122L13.4197 0.133213L13.4197 0.133213L13.1327 0.826122ZM13.1327 3.67388L13.4197 4.36679L13.4197 4.36679L13.1327 3.67388ZM13.6739 3.13269L14.3668 3.4197L14.3668 3.4197L13.6739 3.13269ZM1.82615 3.13269L1.13324 3.4197L1.13324 3.4197L1.82615 3.13269ZM2.36735 3.67388L2.08034 4.36679L2.08034 4.36679L2.36735 3.67388ZM1.82615 1.36732L1.13324 1.08031L1.13324 1.08031L1.82615 1.36732ZM2.36735 0.826122L2.08034 0.133213L2.08034 0.133213L2.36735 0.826122ZM3.06782 3.96866L3.64398 4.4488L3.64398 4.4488L3.06782 3.96866ZM12.4322 3.96866L13.0084 3.48852L12.4322 3.96866ZM13.8714 19.8713L14.4017 20.4017L14.4017 20.4017L13.8714 19.8713ZM1.62871 19.8713L1.09838 20.4017L1.09838 20.4017L1.62871 19.8713ZM5.75003 10.1618L5.31752 9.54904C5.11843 9.68957 5.00003 9.91807 5.00003 10.1618H5.75003ZM7.75003 8.75L8.18254 8.13728C7.92325 7.95424 7.57681 7.95424 7.31752 8.13728L7.75003 8.75ZM9.75003 10.1618H10.5C10.5 9.91807 10.3816 9.68957 10.1825 9.54904L9.75003 10.1618ZM11.75 13.4559H12.5C12.5 13.2122 12.3816 12.9837 12.1825 12.8432L11.75 13.4559ZM11.75 15.3382L12.1825 15.951C12.3816 15.8104 12.5 15.5819 12.5 15.3382H11.75ZM9.75003 16.75L9.31752 17.3627C9.57681 17.5458 9.92325 17.5458 10.1825 17.3627L9.75003 16.75ZM3.75003 15.3382H3.00003C3.00003 15.5819 3.11843 15.8104 3.31752 15.951L3.75003 15.3382ZM3.75003 13.4559L3.31752 12.8432C3.11843 12.9837 3.00003 13.2122 3.00003 13.4559H3.75003ZM5.75003 16.75L5.31752 17.3627C5.57681 17.5458 5.92325 17.5458 6.18254 17.3627L5.75003 16.75ZM3.25003 3.75V4.5H12.25V3.75V3H3.25003V3.75ZM12.25 0.750002V1.72853e-06H3.25003V0.750002V1.5H12.25V0.750002ZM13.75 2.25H14.5C14.5 2.02729 14.5004 1.8227 14.4888 1.65179C14.4767 1.47415 14.449 1.27881 14.3668 1.08031L13.6739 1.36732L12.981 1.65433C12.9749 1.6396 12.9853 1.65263 12.9923 1.7539C12.9996 1.86191 13 2.00677 13 2.25H13.75ZM12.25 0.750002V1.5C12.4933 1.5 12.6381 1.50041 12.7461 1.50778C12.8474 1.51469 12.8604 1.52513 12.8457 1.51903L13.1327 0.826122L13.4197 0.133213C13.2212 0.0509897 13.0259 0.0233769 12.8482 0.0112564C12.6773 -0.000404441 12.4727 1.72853e-06 12.25 1.72853e-06V0.750002ZM13.6739 1.36732L14.3668 1.08031C14.1892 0.651506 13.8485 0.310827 13.4197 0.133213L13.1327 0.826122L12.8457 1.51903C12.907 1.54441 12.9556 1.59307 12.981 1.65433L13.6739 1.36732ZM12.25 3.75V4.5C12.4727 4.5 12.6773 4.50041 12.8482 4.48875C13.0259 4.47663 13.2212 4.44901 13.4197 4.36679L13.1327 3.67388L12.8457 2.98097C12.8604 2.97487 12.8474 2.98532 12.7461 2.99223C12.6381 2.9996 12.4933 3 12.25 3V3.75ZM13.75 2.25H13C13 2.49323 12.9996 2.6381 12.9923 2.7461C12.9853 2.84737 12.9749 2.86041 12.981 2.84567L13.6739 3.13269L14.3668 3.4197C14.449 3.22119 14.4767 3.02585 14.4888 2.84821C14.5004 2.6773 14.5 2.47271 14.5 2.25H13.75ZM13.1327 3.67388L13.4197 4.36679C13.8485 4.18918 14.1892 3.8485 14.3668 3.4197L13.6739 3.13269L12.981 2.84567C12.9556 2.90693 12.907 2.9556 12.8457 2.98097L13.1327 3.67388ZM1.75003 2.25H1.00003C1.00003 2.47271 0.999626 2.6773 1.01129 2.84821C1.02341 3.02585 1.05102 3.22119 1.13324 3.4197L1.82615 3.13269L2.51906 2.84567C2.52516 2.86041 2.51472 2.84737 2.50781 2.7461C2.50044 2.6381 2.50003 2.49323 2.50003 2.25H1.75003ZM3.25003 3.75V3C3.0068 3 2.86194 2.9996 2.75393 2.99223C2.65266 2.98532 2.63963 2.97487 2.65436 2.98097L2.36735 3.67388L2.08034 4.36679C2.27884 4.44901 2.47418 4.47663 2.65182 4.48875C2.82273 4.50041 3.02732 4.5 3.25003 4.5V3.75ZM1.82615 3.13269L1.13324 3.4197C1.31086 3.8485 1.65154 4.18918 2.08034 4.36679L2.36735 3.67388L2.65436 2.98097C2.5931 2.9556 2.54444 2.90693 2.51906 2.84567L1.82615 3.13269ZM1.75003 2.25H2.50003C2.50003 2.00677 2.50044 1.86191 2.50781 1.7539C2.51472 1.65263 2.52516 1.6396 2.51906 1.65433L1.82615 1.36732L1.13324 1.08031C1.05102 1.27881 1.02341 1.47415 1.01129 1.65179C0.999626 1.8227 1.00003 2.02729 1.00003 2.25H1.75003ZM3.25003 0.750002V1.72853e-06C3.02732 1.72853e-06 2.82273 -0.000404442 2.65182 0.0112564C2.47418 0.0233769 2.27884 0.0509897 2.08034 0.133213L2.36735 0.826122L2.65436 1.51903C2.63963 1.52513 2.65266 1.51469 2.75393 1.50778C2.86194 1.50041 3.0068 1.5 3.25003 1.5V0.750002ZM1.82615 1.36732L2.51906 1.65433C2.54444 1.59307 2.5931 1.54441 2.65436 1.51903L2.36735 0.826122L2.08034 0.133213C1.65154 0.310827 1.31086 0.651507 1.13324 1.08031L1.82615 1.36732ZM3.25003 3.75L2.67387 3.26986L2.49165 3.48852L3.06782 3.96866L3.64398 4.4488L3.8262 4.23014L3.25003 3.75ZM0.750032 10.3705H3.17097e-05V14.75H0.750032H1.50003V10.3705H0.750032ZM6.75003 20.75V21.5H8.75003V20.75V20H6.75003V20.75ZM14.75 14.75H15.5V10.3705H14.75H14V14.75H14.75ZM12.4322 3.96866L13.0084 3.48852L12.8262 3.26986L12.25 3.75L11.6739 4.23014L11.8561 4.4488L12.4322 3.96866ZM14.75 10.3705H15.5C15.5 8.63173 15.5104 7.58001 15.1566 6.60281L14.4514 6.85813L13.7462 7.11344C13.9897 7.78597 14 8.52592 14 10.3705H14.75ZM12.4322 3.96866L11.8561 4.4488C13.0369 5.86584 13.5027 6.44092 13.7462 7.11344L14.4514 6.85813L15.1566 6.60281C14.8028 5.6256 14.1215 4.82428 13.0084 3.48852L12.4322 3.96866ZM8.75003 20.75V21.5C10.143 21.5 11.2633 21.5016 12.1418 21.3835C13.0419 21.2625 13.7998 21.0036 14.4017 20.4017L13.8714 19.8713L13.341 19.341C13.0643 19.6178 12.6757 19.7982 11.9419 19.8969C11.1866 19.9984 10.1854 20 8.75003 20V20.75ZM14.75 14.75H14C14 16.1854 13.9984 17.1865 13.8969 17.9419C13.7982 18.6757 13.6178 19.0642 13.341 19.341L13.8714 19.8713L14.4017 20.4017C15.0036 19.7997 15.2625 19.0419 15.3835 18.1418C15.5016 17.2632 15.5 16.143 15.5 14.75H14.75ZM0.750032 14.75H3.17097e-05C3.17097e-05 16.143 -0.00156109 17.2632 0.116555 18.1418C0.237571 19.0419 0.496465 19.7997 1.09838 20.4017L1.62871 19.8713L2.15904 19.341C1.88228 19.0642 1.70183 18.6757 1.60318 17.9419C1.50162 17.1865 1.50003 16.1854 1.50003 14.75H0.750032ZM6.75003 20.75V20C5.31462 20 4.3135 19.9984 3.55815 19.8969C2.82438 19.7982 2.4358 19.6178 2.15904 19.341L1.62871 19.8713L1.09838 20.4017C1.7003 21.0036 2.45817 21.2625 3.35828 21.3835C4.23681 21.5016 5.35702 21.5 6.75003 21.5V20.75ZM3.06782 3.96866L2.49165 3.48852C1.37852 4.82428 0.697267 5.6256 0.34347 6.60281L1.04867 6.85813L1.75388 7.11344C1.99737 6.44092 2.46312 5.86584 3.64398 4.4488L3.06782 3.96866ZM0.750032 10.3705H1.50003C1.50003 8.52592 1.51039 7.78597 1.75388 7.11344L1.04867 6.85813L0.34347 6.60281C-0.0103265 7.58001 3.17097e-05 8.63173 3.17097e-05 10.3705H0.750032ZM5.75003 12.0441H6.50003V10.1618H5.75003H5.00003V12.0441H5.75003ZM5.75003 10.1618L6.18254 10.7745L8.18254 9.36273L7.75003 8.75L7.31752 8.13728L5.31752 9.54904L5.75003 10.1618ZM7.75003 8.75L7.31752 9.36273L9.31752 10.7745L9.75003 10.1618L10.1825 9.54904L8.18254 8.13728L7.75003 8.75ZM9.75003 10.1618H9.00003V12.0441H9.75003H10.5V10.1618H9.75003ZM9.75003 12.0441L9.31752 11.4314L7.31752 12.8432L7.75003 13.4559L8.18254 14.0686L10.1825 12.6568L9.75003 12.0441ZM7.75003 13.4559L8.18254 12.8432L6.18254 11.4314L5.75003 12.0441L5.31752 12.6568L7.31752 14.0686L7.75003 13.4559ZM7.75003 15.3382H8.50003V13.4559H7.75003H7.00003V15.3382H7.75003ZM9.75003 12.0441L9.31752 12.6568L11.3175 14.0686L11.75 13.4559L12.1825 12.8432L10.1825 11.4314L9.75003 12.0441ZM11.75 13.4559H11V15.3382H11.75H12.5V13.4559H11.75ZM11.75 15.3382L11.3175 14.7255L9.31752 16.1373L9.75003 16.75L10.1825 17.3627L12.1825 15.951L11.75 15.3382ZM9.75003 16.75L10.1825 16.1373L8.18254 14.7255L7.75003 15.3382L7.31752 15.951L9.31752 17.3627L9.75003 16.75ZM3.75003 15.3382H4.50003V13.4559H3.75003H3.00003V15.3382H3.75003ZM3.75003 13.4559L4.18254 14.0686L6.18254 12.6568L5.75003 12.0441L5.31752 11.4314L3.31752 12.8432L3.75003 13.4559ZM7.75003 15.3382L7.31752 14.7255L5.31752 16.1373L5.75003 16.75L6.18254 17.3627L8.18254 15.951L7.75003 15.3382ZM5.75003 16.75L6.18254 16.1373L4.18254 14.7255L3.75003 15.3382L3.31752 15.951L5.31752 17.3627L5.75003 16.75Z" fill="var(--stroke-0, #1C1917)"/>
</svg>
