<svg preserveAspectRatio="none" width="100%" height="100%" overflow="visible" style="display: block;" viewBox="0 0 22 18" fill="none" xmlns="http://www.w3.org/2000/svg">
<path id="Vector" d="M19.75 4.74951L19.1504 5.20002L19.1504 5.20002L19.75 4.74951ZM6.75 9.75V10.5H6.7592L6.76839 10.4998L6.75 9.75ZM12.9856 11.917L12.5373 12.5182L12.5535 12.5303L12.5704 12.5416L12.9856 11.917ZM12.9856 15.917L12.5373 16.5182L12.5535 16.5303L12.5704 16.5416L12.9856 15.917ZM6.75 13.75V14.5H6.7592L6.76839 14.4998L6.75 13.75ZM20.75 7.75H20C20 10.0972 18.0972 12 15.75 12V12.75V13.5C18.9256 13.5 21.5 10.9256 21.5 7.75H20.75ZM0.750001 7.25H1.5C1.5 5.85279 2.68429 4.42237 4.62886 3.28418C6.5294 2.17176 8.90002 1.5 10.75 1.5V0.75V0C8.59999 0 5.9706 0.760782 3.87114 1.98963C1.81571 3.19271 1.07288e-06 5.01229 1.07288e-06 7.25H0.750001ZM19.75 4.74951L19.1504 5.20002C19.6841 5.91033 20 6.79219 20 7.75H20.75H21.5C21.5 6.45616 21.0718 5.26018 20.3496 4.29901L19.75 4.74951ZM10.75 0.75V1.5C14.576 1.5 17.2 2.6041 19.1504 5.20002L19.75 4.74951L20.3496 4.29901C18.0491 1.23697 14.924 0 10.75 0V0.75ZM3.25 9.75V10.5H6.75V9.75V9H3.25V9.75ZM15.75 12.75V12C14.8802 12 14.0734 11.7395 13.4008 11.2924L12.9856 11.917L12.5704 12.5416C13.4815 13.1472 14.5757 13.5 15.75 13.5V12.75ZM6.75 9.75L6.76839 10.4998C7.9394 10.471 10.4479 10.9603 12.5373 12.5182L12.9856 11.917L13.4339 11.3157C11.0521 9.53975 8.20808 8.964 6.73161 9.00023L6.75 9.75ZM0.750001 7.25H1.07288e-06C1.07288e-06 9.04493 1.45508 10.5 3.25 10.5V9.75V9C2.2835 9 1.5 8.2165 1.5 7.25H0.750001ZM20.75 11.75H20C20 14.0972 18.0972 16 15.75 16V16.75V17.5C18.9256 17.5 21.5 14.9256 21.5 11.75H20.75ZM0.750001 7.25H1.07288e-06V7.75H0.750001H1.5V7.25H0.750001ZM15.75 16.75V16C14.8802 16 14.0734 15.7395 13.4008 15.2924L12.9856 15.917L12.5704 16.5416C13.4815 17.1472 14.5757 17.5 15.75 17.5V16.75ZM6.75 13.75L6.76839 14.4998C7.9394 14.471 10.4479 14.9603 12.5373 16.5182L12.9856 15.917L13.4339 15.3157C11.0521 13.5397 8.20808 12.964 6.73161 13.0002L6.75 13.75ZM20.75 11.75H21.5V7.75H20.75H20V11.75H20.75ZM0.750001 7.75H1.07288e-06C1.07288e-06 9.14301 -0.00159173 10.2632 0.116524 11.1418C0.23754 12.0419 0.496434 12.7997 1.09835 13.4017L1.62868 12.8713L2.15901 12.341C1.88225 12.0642 1.7018 11.6757 1.60315 10.9419C1.50159 10.1865 1.5 9.18542 1.5 7.75H0.750001ZM6.75 13.75V13C5.31459 13 4.31347 12.9984 3.55812 12.8969C2.82435 12.7982 2.43577 12.6178 2.15901 12.341L1.62868 12.8713L1.09835 13.4017C1.70027 14.0036 2.45814 14.2625 3.35825 14.3835C4.23678 14.5016 5.35699 14.5 6.75 14.5V13.75ZM17.25 7.75H16.5C16.5 8.16421 16.1642 8.5 15.75 8.5V9.25V10C16.9926 10 18 8.99264 18 7.75H17.25ZM15.75 9.25V8.5C15.3358 8.5 15 8.16421 15 7.75H14.25H13.5C13.5 8.99264 14.5074 10 15.75 10V9.25ZM14.25 7.75H15C15 7.33579 15.3358 7 15.75 7V6.25V5.5C14.5074 5.5 13.5 6.50736 13.5 7.75H14.25ZM15.75 6.25V7C16.1642 7 16.5 7.33579 16.5 7.75H17.25H18C18 6.50736 16.9926 5.5 15.75 5.5V6.25Z" fill="var(--stroke-0, #1C1917)"/>
</svg>
