<svg preserveAspectRatio="none" width="100%" height="100%" overflow="visible" style="display: block;" viewBox="0 0 20 22" fill="none" xmlns="http://www.w3.org/2000/svg">
<path id="Vector" d="M7.95103 18.75C9.09687 19.9947 10.602 20.75 12.2505 20.75C15.8403 20.75 18.7505 17.1683 18.7505 12.75C18.7505 8.33172 15.8403 4.75 12.2505 4.75C8.9358 4.75 6.14983 7.80369 5.75 11.75M9.75 20.1369C8.98041 20.5319 8.1359 20.75 7.25 20.75C3.66015 20.75 0.75 17.1683 0.75 12.75C0.75 8.33172 3.66015 4.75 7.25 4.75C8.1359 4.75 8.98041 4.96813 9.75 5.36312M9.75 4.75C9.75 3.41667 10.35 0.75 12.75 0.75" stroke="var(--stroke-0, #1C1917)" stroke-width="1.5" stroke-linecap="round" stroke-linejoin="round"/>
</svg>
