<svg preserveAspectRatio="none" width="100%" height="100%" overflow="visible" style="display: block;" viewBox="0 0 20 20" fill="none" xmlns="http://www.w3.org/2000/svg">
<path id="Vector" d="M10.7496 3.39829C7.90759 0.556271 3.95804 -0.101988 1.92802 1.92802M1.92802 1.92802C-0.101988 3.95804 0.556271 7.90759 3.39829 10.7496M1.92802 1.92802C2.17307 3.15324 3.4721 5.82393 6.70668 6.70609M6.96075 17.5385C9.04715 19.6249 13.1064 18.9483 16.0274 16.0274C18.9483 13.1064 19.6249 9.04715 17.5385 6.96076M6.96075 17.5385C4.87436 15.4521 5.5509 11.3928 8.47186 8.47186C11.3928 5.5509 15.4521 4.87436 17.5385 6.96076M6.96075 17.5385C8.47186 17.0348 11.3325 16.6213 12.6277 11.8721C13.5344 8.54772 16.2792 7.21261 17.5385 6.96076" stroke="var(--stroke-0, #1C1917)" stroke-width="1.5" stroke-linecap="round" stroke-linejoin="round"/>
</svg>
