<svg preserveAspectRatio="none" width="100%" height="100%" overflow="visible" style="display: block;" viewBox="0 0 22 20" fill="none" xmlns="http://www.w3.org/2000/svg">
<path id="Vector" d="M21.5001 7.75019C21.5001 7.33598 21.1643 7.00019 20.7501 7.00019C20.3359 7.00019 20.0001 7.33598 20.0001 7.75019H20.7501H21.5001ZM1.50009 8.78974C1.50009 8.37552 1.1643 8.03974 0.750087 8.03974C0.335873 8.03974 8.66657e-05 8.37552 8.66657e-05 8.78974H0.750087H1.50009ZM7.34711 18.4994L7.26956 17.7534L7.26956 17.7534L7.34711 18.4994ZM1.73707 18.0515L2.25098 17.5052L2.25098 17.5052L1.73707 18.0515ZM19.9744 16.3764L19.4088 15.8839L19.4088 15.8839L19.9744 16.3764ZM15.5423 17.2217L16.2189 16.8983L16.2189 16.8983L15.5423 17.2217ZM16.1228 17.5862L16.0423 16.8405L16.0423 16.8405L16.1228 17.5862ZM11.8153 17.617L11.0881 17.4336L11.0881 17.4336L11.8153 17.617ZM11.3252 18.0859L11.4027 18.8318L11.4027 18.8318L11.3252 18.0859ZM17.219 9.18443L17.2504 9.93378L17.2504 9.93378L17.219 9.18443ZM5.67984 9.66764L5.64847 8.9183L5.64847 8.9183L5.67984 9.66764ZM20.2736 5.40963L19.5952 5.72936L19.5952 5.72936L20.2736 5.40963ZM15.5731 0.976199L15.2869 1.66942L15.2869 1.66942L15.5731 0.976199ZM0.761775 9.14353L1.47679 8.91714L1.47679 8.91714L0.761775 9.14353ZM8.52278 4.21826L8.04176 4.79368L8.04176 4.79368L8.52278 4.21826ZM12.0463 1.64622L11.6649 1.00041L11.6649 1.00041L12.0463 1.64622ZM14.7579 6.70966C15.1721 6.70966 15.5079 6.37388 15.5079 5.95966C15.5079 5.54545 15.1721 5.20966 14.7579 5.20966V5.95966V6.70966ZM14.7489 5.20966C14.3347 5.20966 13.9989 5.54545 13.9989 5.95966C13.9989 6.37388 14.3347 6.70966 14.7489 6.70966V5.95966V5.20966ZM15.7579 13.7097C16.1721 13.7097 16.5079 13.3739 16.5079 12.9597C16.5079 12.5454 16.1721 12.2097 15.7579 12.2097V12.9597V13.7097ZM15.7489 12.2097C15.3347 12.2097 14.9989 12.5454 14.9989 12.9597C14.9989 13.3739 15.3347 13.7097 15.7489 13.7097V12.9597V12.2097ZM20.7501 7.75019H20.0001V11.4614H20.7501H21.5001V7.75019H20.7501ZM0.750087 12.2931H1.50009V8.78974H0.750087H8.66657e-05V12.2931H0.750087ZM7.34711 18.4994L7.26956 17.7534C5.7055 17.916 4.61358 18.0277 3.7866 17.9944C2.98446 17.9621 2.56016 17.7961 2.25098 17.5052L1.73707 18.0515L1.22316 18.5977C1.90096 19.2354 2.74067 19.4535 3.72629 19.4932C4.68709 19.5318 5.90669 19.4032 7.42466 19.2454L7.34711 18.4994ZM0.750087 12.2931H8.66657e-05C8.66657e-05 13.8816 -0.00150447 15.1486 0.130099 16.1311C0.264109 17.1316 0.550299 17.9647 1.22316 18.5977L1.73707 18.0515L2.25098 17.5052C1.93686 17.2097 1.72956 16.7736 1.61682 15.932C1.50168 15.0724 1.50009 13.9245 1.50009 12.2931H0.750087ZM20.7501 11.4614H20.0001C20.0001 12.8221 19.9987 13.7733 19.9088 14.4985C19.8212 15.2049 19.6595 15.5959 19.4088 15.8839L19.9744 16.3764L20.5401 16.8689C21.065 16.266 21.2911 15.5407 21.3974 14.6831C21.5014 13.8442 21.5001 12.7835 21.5001 11.4614H20.7501ZM15.5423 17.2217L16.2189 16.8983C15.7771 15.9739 14.8468 15.3166 13.7501 15.3166V16.0666V16.8166C14.224 16.8166 14.6529 17.1003 14.8656 17.5452L15.5423 17.2217ZM16.1228 17.5862L16.2033 18.3318C17.2252 18.2215 18.0762 18.1132 18.765 17.9182C19.4759 17.7171 20.0695 17.4094 20.5401 16.8689L19.9744 16.3764L19.4088 15.8839C19.1861 16.1397 18.8835 16.3258 18.3566 16.4749C17.8077 16.6302 17.0795 16.7286 16.0423 16.8405L16.1228 17.5862ZM13.7501 16.0666V15.3166C12.4515 15.3166 11.3905 16.2343 11.0881 17.4336L11.8153 17.617L12.5426 17.8004C12.6901 17.2153 13.191 16.8166 13.7501 16.8166V16.0666ZM11.3252 18.0859L11.2476 17.3399L7.26956 17.7534L7.34711 18.4994L7.42466 19.2454L11.4027 18.8318L11.3252 18.0859ZM11.8153 17.617L11.0881 17.4336C11.0887 17.4313 11.0915 17.4192 11.11 17.4008C11.1315 17.3794 11.1785 17.3471 11.2476 17.3399L11.3252 18.0859L11.4027 18.8318C12.043 18.7653 12.4273 18.2576 12.5426 17.8004L11.8153 17.617ZM15.5423 17.2217L14.8656 17.5452C15.0697 17.9722 15.5532 18.402 16.2033 18.3318L16.1228 17.5862L16.0423 16.8405C16.1134 16.8328 16.1671 16.8557 16.1923 16.8723C16.2138 16.8864 16.2183 16.8971 16.2189 16.8983L15.5423 17.2217ZM17.219 9.18443L17.1877 8.43509L5.64847 8.9183L5.67984 9.66764L5.71122 10.417L17.2504 9.93378L17.219 9.18443ZM20.2736 5.40963L20.952 5.08989C19.935 2.93193 18.1107 1.21258 15.8594 0.282973L15.5731 0.976199L15.2869 1.66942C17.202 2.46023 18.7416 3.91833 19.5952 5.72936L20.2736 5.40963ZM5.67984 9.66764L5.64847 8.9183C4.06419 8.98464 2.94413 9.03033 2.18681 8.97674C1.80612 8.9498 1.58682 8.90115 1.47094 8.85371C1.37435 8.81417 1.44556 8.81848 1.47679 8.91714L0.761775 9.14353L0.0467564 9.36991C0.192053 9.82882 0.544214 10.0951 0.902614 10.2419C1.24173 10.3807 1.65145 10.4426 2.08093 10.473C2.94395 10.5341 4.16886 10.4816 5.71122 10.417L5.67984 9.66764ZM9.81215 4.68622V5.43622C11.3433 5.43622 12.5789 4.19046 12.5789 2.66064H11.8289H11.0789C11.0789 3.36821 10.5087 3.93622 9.81215 3.93622V4.68622ZM8.52278 4.21826L8.04176 4.79368C8.52094 5.19426 9.13919 5.43622 9.81215 5.43622V4.68622V3.93622C9.50442 3.93622 9.22373 3.82668 9.00381 3.64283L8.52278 4.21826ZM12.0463 1.64622L12.4276 2.29203C13.5607 1.62295 14.3151 1.26815 15.2869 1.66942L15.5731 0.976199L15.8594 0.282973C14.1335 -0.429665 12.7638 0.351531 11.6649 1.00041L12.0463 1.64622ZM17.219 9.18443L17.2504 9.93378C17.9634 9.90392 18.64 9.82837 19.2321 9.67336C19.8192 9.51967 20.379 9.27356 20.8017 8.86295C21.2456 8.43178 21.4869 7.86833 21.4996 7.20241C21.5117 6.56437 21.3147 5.8595 20.952 5.08989L20.2736 5.40963L19.5952 5.72936C19.9055 6.38776 20.0059 6.85439 19.9998 7.17394C19.9943 7.46561 19.9019 7.64584 19.7566 7.78702C19.5901 7.94876 19.3052 8.10367 18.8522 8.22227C18.4042 8.33955 17.8454 8.40755 17.1877 8.43509L17.219 9.18443ZM8.52278 4.21826L9.00381 3.64283C8.78603 3.46078 8.53522 3.40099 8.34219 3.38361C8.14571 3.36592 7.94699 3.3862 7.76513 3.41994C7.40125 3.48744 6.98759 3.63173 6.56633 3.81143C5.71609 4.17413 4.7055 4.73752 3.75261 5.34954C2.7994 5.96176 1.87236 6.64293 1.19539 7.25284C0.860299 7.55474 0.560755 7.862 0.350916 8.15239C0.246482 8.29691 0.144676 8.46382 0.078318 8.64501C0.014142 8.82025 -0.0438476 9.08374 0.046757 9.36991L0.761775 9.14353L1.47679 8.91714C1.50117 8.99413 1.50216 9.05904 1.49849 9.09991C1.49667 9.12021 1.49365 9.13551 1.49134 9.14514C1.48902 9.15479 1.48709 9.16013 1.48684 9.16084C1.48662 9.16143 1.49087 9.15001 1.5047 9.12566C1.51825 9.10179 1.53829 9.07027 1.5667 9.03095C1.68656 8.86509 1.89723 8.63952 2.19942 8.36726C2.79703 7.82884 3.65284 7.19636 4.56323 6.61164C5.47393 6.02672 6.40766 5.5099 7.1549 5.19114C7.53238 5.03011 7.83074 4.93336 8.03874 4.89477C8.14281 4.87546 8.19499 4.87643 8.20769 4.87757C8.22384 4.87902 8.14048 4.87621 8.04176 4.79368L8.52278 4.21826ZM11.8289 2.66064H12.5789C12.5789 2.52611 12.5633 2.3887 12.5555 2.31029C12.5457 2.21298 12.5428 2.166 12.544 2.1332C12.5451 2.10467 12.5486 2.1317 12.5249 2.18003C12.4959 2.23936 12.4527 2.27721 12.4276 2.29203L12.0463 1.64622L11.6649 1.00041C11.4491 1.12785 11.2834 1.30474 11.1778 1.5203C11.0776 1.72488 11.0507 1.92533 11.045 2.07818C11.0396 2.22676 11.0539 2.36912 11.063 2.45986C11.074 2.56953 11.0789 2.61889 11.0789 2.66064H11.8289ZM14.7579 5.95966V5.20966H14.7489V5.95966V6.70966H14.7579V5.95966ZM15.7579 12.9597V12.2097H15.7489V12.9597V13.7097H15.7579V12.9597ZM5.75009 13.9597H5.00009C5.00009 15.2023 6.00745 16.2097 7.25009 16.2097V15.4597V14.7097C6.83587 14.7097 6.50009 14.3739 6.50009 13.9597H5.75009ZM7.25009 15.4597V16.2097C8.49273 16.2097 9.50009 15.2023 9.50009 13.9597H8.75009H8.00009C8.00009 14.3739 7.6643 14.7097 7.25009 14.7097V15.4597ZM8.75009 13.9597H9.50009C9.50009 12.717 8.49273 11.7097 7.25009 11.7097V12.4597V13.2097C7.6643 13.2097 8.00009 13.5454 8.00009 13.9597H8.75009ZM7.25009 12.4597V11.7097C6.00745 11.7097 5.00009 12.717 5.00009 13.9597H5.75009H6.50009C6.50009 13.5454 6.83587 13.2097 7.25009 13.2097V12.4597Z" fill="var(--stroke-0, #1C1917)"/>
</svg>
