<svg preserveAspectRatio="none" width="100%" height="100%" overflow="visible" style="display: block;" viewBox="0 0 22 22" fill="none" xmlns="http://www.w3.org/2000/svg">
<path id="Vector" d="M19.3862 19.3842L19.9164 19.9146L19.9164 19.9146L19.3862 19.3842ZM19.3862 13.8479L18.856 14.3783L19.3862 13.8479ZM13.8474 19.3842L13.3171 19.9146L13.8474 19.3842ZM1.31088 6.20571L0.771215 5.68489L1.31088 6.20571ZM10.6911 21.4967C11.1053 21.4967 11.4411 21.161 11.4411 20.7467C11.4411 20.3325 11.1053 19.9967 10.6911 19.9967V20.7467V21.4967ZM16.7754 6.78689H17.5254C17.5254 6.61509 17.4664 6.44849 17.3583 6.31497L16.7754 6.78689ZM14.2878 2.28042L13.538 2.26521L13.538 2.26521L14.2878 2.28042ZM14.2669 3.3138L15.0167 3.329L15.0167 3.329L14.2669 3.3138ZM14.4894 3.96331L13.9065 4.43523L13.9065 4.43523L14.4894 3.96331ZM16.0254 9.23108C16.0254 9.6453 16.3612 9.98108 16.7754 9.98108C17.1896 9.98108 17.5254 9.6453 17.5254 9.23108H16.7754H16.0254ZM19.3862 19.3842L19.9164 19.9146C20.7504 19.0809 21.4001 18.0568 21.4866 16.876C21.5752 15.6682 21.0636 14.4641 19.9164 13.3174L19.3862 13.8479L18.856 14.3783C19.7859 15.3078 20.039 16.1073 19.9907 16.7664C19.9404 17.4525 19.5515 18.1585 18.856 18.8537L19.3862 19.3842ZM19.3862 13.8479L19.9164 13.3174C18.7676 12.1691 17.2472 11.4097 15.8118 11.1227C14.415 10.8435 12.8869 10.9793 11.9324 11.9333L12.4626 12.4638L12.9928 12.9942C13.4231 12.5642 14.3182 12.3538 15.5177 12.5936C16.6787 12.8257 17.9277 13.4504 18.856 14.3783L19.3862 13.8479ZM19.3862 19.3842L18.856 18.8537C18.1605 19.5489 17.4541 19.9377 16.7673 19.988C16.1075 20.0363 15.3074 19.7831 14.3776 18.8537L13.8474 19.3842L13.3171 19.9146C14.4644 21.0613 15.6688 21.5725 16.8769 21.484C18.0578 21.3975 19.0823 20.7483 19.9164 19.9146L19.3862 19.3842ZM13.8474 19.3842L14.3776 18.8537C13.4493 17.9258 12.8243 16.6775 12.5922 15.5173C12.3523 14.3185 12.5627 13.4241 12.9928 12.9942L12.4626 12.4638L11.9324 11.9333C10.9778 12.8875 10.842 14.4152 11.1214 15.8116C11.4085 17.2465 12.1683 18.7663 13.3171 19.9146L13.8474 19.3842ZM19.3862 19.3842L19.9164 18.8537L12.9928 11.9333L12.4626 12.4638L11.9324 12.9942L18.856 19.9146L19.3862 19.3842ZM0.75 18.7467H1.5V7.59458H0.75H0V18.7467H0.75ZM1.31088 6.20571L1.85055 6.72654L4.27441 4.21498L3.73474 3.69415L3.19508 3.17333L0.771215 5.68489L1.31088 6.20571ZM3.73474 3.69415L3.19776 4.21774L6.21331 7.31048L6.7503 6.78689L7.28729 6.26331L4.27173 3.17057L3.73474 3.69415ZM10.6911 20.7467V19.9967H6.7503V20.7467V21.4967H10.6911V20.7467ZM6.7503 20.7467V19.9967H2.75V20.7467V21.4967H6.7503V20.7467ZM6.7503 6.78689H6.0003V20.7467H6.7503H7.5003V6.78689H6.7503ZM6.7503 6.78689V7.53689H16.7754V6.78689V6.03689H6.7503V6.78689ZM3.73474 3.69415H4.48474V2.25H3.73474H2.98474V3.69415H3.73474ZM5.23474 0.75V1.5H12.7881V0.75V0H5.23474V0.75ZM14.2878 2.28042L13.538 2.26521L13.517 3.29859L14.2669 3.3138L15.0167 3.329L15.0377 2.29563L14.2878 2.28042ZM14.4894 3.96331L13.9065 4.43523L16.1925 7.25882L16.7754 6.78689L17.3583 6.31497L15.0723 3.49138L14.4894 3.96331ZM16.7754 6.78689H16.0254V9.23108H16.7754H17.5254V6.78689H16.7754ZM14.2669 3.3138L13.517 3.29859C13.5086 3.71156 13.6466 4.11419 13.9065 4.43523L14.4894 3.96331L15.0723 3.49138C15.0352 3.44552 15.0155 3.388 15.0167 3.329L14.2669 3.3138ZM12.7881 0.75V1.5C13.2083 1.5 13.5465 1.84513 13.538 2.26521L14.2878 2.28042L15.0377 2.29563C15.0632 1.03539 14.0486 0 12.7881 0V0.75ZM3.73474 2.25H4.48474C4.48474 1.83579 4.82053 1.5 5.23474 1.5V0.75V0C3.9921 0 2.98474 1.00736 2.98474 2.25H3.73474ZM0.75 7.59458H1.5C1.5 7.27075 1.62567 6.95955 1.85055 6.72654L1.31088 6.20571L0.771215 5.68489C0.276482 6.19752 0 6.88215 0 7.59458H0.75ZM0.75 18.7467H0C0 20.2655 1.23121 21.4967 2.75 21.4967V20.7467V19.9967C2.05964 19.9967 1.5 19.4371 1.5 18.7467H0.75Z" fill="var(--stroke-0, #1C1917)"/>
</svg>
