<svg preserveAspectRatio="none" width="100%" height="100%" overflow="visible" style="display: block;" viewBox="0 0 15 22" fill="none" xmlns="http://www.w3.org/2000/svg">
<path id="Vector" d="M9.25011 1.5C9.66432 1.5 10.0001 1.16421 10.0001 0.75C10.0001 0.335786 9.66432 0 9.25011 0V0.75V1.5ZM8.40261 11.8297L8.21131 12.5548L8.40261 11.8297ZM8.40261 17.6703L8.21131 16.9452L8.21131 16.9452L8.40261 17.6703ZM12.6117 11.3571L12.01 11.8049L12.01 11.8049L12.6117 11.3571ZM1.88829 11.3571L1.28659 10.9094L1.28658 10.9094L1.88829 11.3571ZM7.25011 3.75H8.00011C8.00011 3.32306 8.0894 2.69298 8.32625 2.19955C8.55472 1.72356 8.84407 1.5 9.25011 1.5V0.75V0C8.05614 0 7.34549 0.776441 6.97396 1.55045C6.61081 2.30702 6.50011 3.17694 6.50011 3.75H7.25011ZM7.25011 12.7088H6.50011V16.7912H7.25011H8.00011V12.7088H7.25011ZM8.40261 11.8297L8.21131 12.5548C10.5964 13.184 10.5964 16.316 8.21131 16.9452L8.40261 17.6703L8.59392 18.3955C12.4688 17.3733 12.4688 12.1267 8.59392 11.1045L8.40261 11.8297ZM7.25011 12.7088H8.00011C8.00011 12.5369 8.01292 12.4384 8.02599 12.3867C8.03799 12.3392 8.03646 12.3857 7.97309 12.4418C7.94231 12.469 7.91054 12.4859 7.8861 12.4949C7.86379 12.5031 7.85643 12.5014 7.87311 12.5005C7.91392 12.498 8.01649 12.5035 8.21131 12.5548L8.40261 11.8297L8.59392 11.1045C8.10531 10.9756 7.46147 10.8918 6.97941 11.3181C6.74461 11.5258 6.63001 11.7887 6.5718 12.0188C6.51465 12.2447 6.50011 12.4848 6.50011 12.7088H7.25011ZM7.25011 16.7912H6.50011C6.50011 17.0152 6.51465 17.2553 6.5718 17.4812C6.63001 17.7113 6.74461 17.9742 6.97941 18.1819C7.46147 18.6082 8.10531 18.5244 8.59392 18.3955L8.40261 17.6703L8.21131 16.9452C8.01649 16.9965 7.91392 17.002 7.87311 16.9995C7.85643 16.9986 7.86379 16.9969 7.8861 17.0051C7.91054 17.0141 7.94231 17.031 7.97309 17.0582C8.03646 17.1143 8.03799 17.1608 8.02599 17.1133C8.01292 17.0616 8.00011 16.9631 8.00011 16.7912H7.25011ZM2.91667 7.75H3.66667C3.66667 6.01049 5.21341 4.5 7.25011 4.5V3.75V3C4.50034 3 2.16667 5.07123 2.16667 7.75H2.91667ZM7.25011 3.75V4.5C9.28675 4.5 10.8333 6.01044 10.8333 7.75H11.5833H12.3333C12.3333 5.07128 9.99992 3 7.25011 3V3.75ZM13.75 14.75H13C13 17.5941 10.4833 20 7.25 20V20.75V21.5C11.1964 21.5 14.5 18.5333 14.5 14.75H13.75ZM7.25 20.75V20C4.01671 20 1.5 17.5941 1.5 14.75H0.75H0C0 18.5333 3.30359 21.5 7.25 21.5V20.75ZM12.6117 11.3571L12.01 11.8049C12.6378 12.6485 13 13.6618 13 14.75H13.75H14.5C14.5 13.3197 14.0218 11.9958 13.2134 10.9094L12.6117 11.3571ZM0.75 14.75H1.5C1.5 13.6618 1.86224 12.6485 2.49 11.8049L1.88829 11.3571L1.28658 10.9094C0.478215 11.9958 0 13.3197 0 14.75H0.75ZM1.88829 11.3571L2.49 11.8049C3.37301 10.6181 3.66667 9.06204 3.66667 7.75H2.91667H2.16667C2.16667 8.88579 1.90492 10.0784 1.28659 10.9094L1.88829 11.3571ZM12.6117 11.3571L13.2134 10.9094C12.5951 10.0784 12.3333 8.88579 12.3333 7.75H11.5833H10.8333C10.8333 9.06204 11.127 10.6181 12.01 11.8049L12.6117 11.3571Z" fill="var(--stroke-0, #1C1917)"/>
</svg>
