<svg preserveAspectRatio="none" width="100%" height="100%" overflow="visible" style="display: block;" viewBox="0 0 22 22" fill="none" xmlns="http://www.w3.org/2000/svg">
<path id="Vector" d="M15.25 5.75018C16.1835 6.17458 16.75 6.73207 16.75 7.34265C16.75 8.67229 14.0637 9.75018 10.75 9.75018C7.43629 9.75018 4.75 8.67229 4.75 7.34265C4.75 6.73207 5.31645 6.17458 6.25 5.75018M4.75 11.7502C4.75 12.8547 7.43629 13.7502 10.75 13.7502C14.0637 13.7502 16.75 12.8547 16.75 11.7502M16.75 7.75018V15.7502C16.75 16.8547 14.0637 17.7502 10.75 17.7502C7.43629 17.7502 4.75 16.8547 4.75 15.7502V7.75018M19.25 14.7502C20.2009 15.3515 20.75 16.061 20.75 16.821C20.75 18.991 16.2728 20.7502 10.75 20.7502C5.22715 20.7502 0.75 18.991 0.75 16.821C0.75 16.061 1.29913 15.3515 2.25 14.7502M10.75 2.75018C11.8546 2.75018 12.75 3.64561 12.75 4.75018C12.75 5.85475 11.8546 6.75018 10.75 6.75018C9.64543 6.75018 8.75 5.85475 8.75 4.75018C8.75 3.64561 9.64543 2.75018 10.75 2.75018ZM10.75 2.75018C10.75 2.25018 11.15 1.15018 12.75 0.750177" stroke="var(--stroke-0, #1C1917)" stroke-width="1.5" stroke-linecap="round" stroke-linejoin="round"/>
</svg>
