<svg preserveAspectRatio="none" width="100%" height="100%" overflow="visible" style="display: block;" viewBox="0 0 22 16" fill="none" xmlns="http://www.w3.org/2000/svg">
<path id="Vector" d="M3.7502 5.25019C3.7502 6.6309 5.76492 7.75019 8.2502 7.75019C10.7355 7.75019 12.7502 6.6309 12.7502 5.25019M3.7502 5.25019C3.7502 3.86947 5.76492 2.75019 8.2502 2.75019C10.7355 2.75019 12.7502 3.86947 12.7502 5.25019M3.7502 5.25019V12.3972C3.7502 13.6967 5.76492 14.7502 8.2502 14.7502C10.7355 14.7502 12.7502 13.6967 12.7502 12.3972M12.7502 5.25019V9.25019M8.2502 5.25019H8.24122M0.750204 13.7502L20.7502 6.75019M12.7502 4.35019L20.7502 0.750185M0.750204 9.75019L3.7502 8.40019" stroke="var(--stroke-0, #1C1917)" stroke-width="1.5" stroke-linecap="round" stroke-linejoin="round"/>
</svg>
