<svg preserveAspectRatio="none" width="100%" height="100%" overflow="visible" style="display: block;" viewBox="0 0 22 22" fill="none" xmlns="http://www.w3.org/2000/svg">
<path id="Vector" d="M3.2682 9.83137L3.83618 9.34157L3.83618 9.34157L3.2682 9.83137ZM6.95646 14.1084L7.52444 13.6186L7.52444 13.6186L6.95646 14.1084ZM12.234 9.83137L11.666 9.34157L11.666 9.34157L12.234 9.83137ZM8.5457 14.1084L7.97772 13.6186L7.97772 13.6186L8.5457 14.1084ZM14.6527 5.64494L15.3317 5.32639L15.3317 5.32639L14.6527 5.64494ZM0.849407 5.64494L1.52839 5.9635L1.52839 5.9635L0.849407 5.64494ZM6.51128 4.8735C6.57938 5.28208 6.9658 5.5581 7.37438 5.49C7.78295 5.4219 8.05897 5.03548 7.99087 4.6269L7.25108 4.7502L6.51128 4.8735ZM6.85006 2.34409L7.58985 2.22079L7.58985 2.22079L6.85006 2.34409ZM3.98825 0.038691C3.59529 -0.0922948 3.17055 0.120075 3.03956 0.513033C2.90858 0.90599 3.12095 1.33073 3.51391 1.46172L3.75108 0.750203L3.98825 0.038691ZM6.25108 20.0002C5.83686 20.0002 5.50108 20.336 5.50108 20.7502C5.50108 21.1644 5.83686 21.5002 6.25108 21.5002V20.7502V20.0002ZM9.25108 21.5002C9.66529 21.5002 10.0011 21.1644 10.0011 20.7502C10.0011 20.336 9.66529 20.0002 9.25108 20.0002V20.7502V21.5002ZM15.1688 7.08194C14.8918 6.774 14.4176 6.74893 14.1096 7.02595C13.8017 7.30297 13.7766 7.77718 14.0536 8.08513L14.6112 7.58354L15.1688 7.08194ZM13.0087 4.64348C12.9498 5.05347 13.2344 5.43363 13.6443 5.49257C14.0543 5.55151 14.4345 5.26693 14.4934 4.85693L13.7511 4.7502L13.0087 4.64348ZM3.2682 9.83137L2.70022 10.3212L6.38848 14.5982L6.95646 14.1084L7.52444 13.6186L3.83618 9.34157L3.2682 9.83137ZM12.234 9.83137L11.666 9.34157L7.97772 13.6186L8.5457 14.1084L9.11368 14.5982L12.8019 10.3212L12.234 9.83137ZM9.85009 4.7502V4.0002H5.65207V4.7502V5.5002H9.85009V4.7502ZM12.234 9.83137L12.8019 10.3212C13.7314 9.24334 14.486 8.37131 14.943 7.65364C15.3918 6.94902 15.7158 6.14503 15.3317 5.32639L14.6527 5.64494L13.9738 5.96349C14.0095 6.03959 14.0703 6.23159 13.6778 6.84788C13.2936 7.45113 12.6289 8.22494 11.666 9.34157L12.234 9.83137ZM9.85009 4.7502V5.5002C11.3361 5.5002 12.3666 5.50208 13.0837 5.60451C13.8179 5.70939 13.9357 5.88234 13.9738 5.9635L14.6527 5.64494L15.3317 5.32639C14.95 4.51281 14.1275 4.23839 13.2958 4.11958C12.4469 3.99833 11.286 4.0002 9.85009 4.0002V4.7502ZM6.95646 14.1084L6.38848 14.5982C6.55807 14.7948 6.73633 15.0043 6.90814 15.1544C7.09634 15.3189 7.37294 15.5002 7.75108 15.5002V14.7502V14.0002C7.80934 14.0002 7.8609 14.0148 7.89577 14.0312C7.92323 14.0441 7.92482 14.0509 7.89528 14.025C7.86565 13.9991 7.82262 13.9565 7.75727 13.8846C7.69232 13.8132 7.61859 13.7278 7.52444 13.6186L6.95646 14.1084ZM8.5457 14.1084L7.97772 13.6186C7.88356 13.7278 7.80983 13.8132 7.74489 13.8846C7.67954 13.9565 7.63651 13.9991 7.60688 14.025C7.57733 14.0509 7.57893 14.0441 7.60639 14.0312C7.64126 14.0148 7.69282 14.0002 7.75108 14.0002V14.7502V15.5002C8.12921 15.5002 8.40581 15.3189 8.59401 15.1544C8.76582 15.0043 8.94409 14.7948 9.11368 14.5982L8.5457 14.1084ZM3.2682 9.83137L3.83618 9.34157C2.87326 8.22494 2.20854 7.45113 1.82435 6.84788C1.43186 6.23159 1.49269 6.03959 1.52839 5.9635L0.849407 5.64494L0.170419 5.32639C-0.213653 6.14503 0.110391 6.94902 0.559146 7.65364C1.0162 8.37131 1.77077 9.24334 2.70022 10.3212L3.2682 9.83137ZM5.65207 4.7502V4.0002C4.2162 4.0002 3.05522 3.99833 2.20637 4.11958C1.37468 4.23839 0.552118 4.51281 0.170419 5.32639L0.849407 5.64494L1.52839 5.9635C1.56647 5.88234 1.68427 5.70939 2.41849 5.60451C3.13554 5.50208 4.16601 5.5002 5.65207 5.5002V4.7502ZM7.25108 4.7502L7.99087 4.6269L7.58985 2.22079L6.85006 2.34409L6.11026 2.46739L6.51128 4.8735L7.25108 4.7502ZM6.17989 1.55981L6.41706 0.848296L3.98825 0.038691L3.75108 0.750203L3.51391 1.46172L5.94272 2.27132L6.17989 1.55981ZM6.85006 2.34409L7.58985 2.22079C7.48329 1.5814 7.03202 1.05328 6.41706 0.848296L6.17989 1.55981L5.94272 2.27132C6.03057 2.3006 6.09504 2.37605 6.11026 2.46739L6.85006 2.34409ZM7.75108 14.7502H7.00108V20.7502H7.75108H8.50108V14.7502H7.75108ZM6.25108 20.7502V21.5002H7.75108V20.7502V20.0002H6.25108V20.7502ZM7.75108 20.7502V21.5002H9.25108V20.7502V20.0002H7.75108V20.7502ZM20.7511 5.2502H20.0011C20.0011 6.7654 18.7655 8.0002 17.2333 8.0002V8.7502V9.5002C19.5867 9.5002 21.5011 7.601 21.5011 5.2502H20.7511ZM17.2333 1.7502V2.5002C18.7655 2.5002 20.0011 3.73501 20.0011 5.2502H20.7511H21.5011C21.5011 2.89941 19.5867 1.0002 17.2333 1.0002V1.7502ZM17.2333 8.7502V8.0002C16.4122 8.0002 15.6762 7.64603 15.1688 7.08194L14.6112 7.58354L14.0536 8.08513C14.8344 8.95312 15.9706 9.5002 17.2333 9.5002V8.7502ZM13.7511 4.7502L14.4934 4.85693C14.6846 3.52755 15.8365 2.5002 17.2333 2.5002V1.7502V1.0002C15.0856 1.0002 13.3053 2.58057 13.0087 4.64348L13.7511 4.7502Z" fill="var(--stroke-0, #1C1917)"/>
</svg>
