<svg preserveAspectRatio="none" width="100%" height="100%" overflow="visible" style="display: block;" viewBox="0 0 22 22" fill="none" xmlns="http://www.w3.org/2000/svg">
<path id="Vector" d="M14.8425 11.75C15.9809 10.8481 16.75 9.59928 16.75 8.21931C16.75 5.46919 13.6955 0.75 10.75 0.75C7.80448 0.75 4.75 5.46919 4.75 8.21931C4.75 9.59928 5.51907 10.8481 6.65754 11.75M12.7617 8.75H12.7527M8.76172 8.75H8.75274M15.75 20.75C12.6497 18.4643 11.7664 16.75 12.25 12.75C13.25 14.75 15.8291 17.25 17.7975 17.25C19.7658 17.25 20.75 16.0188 20.75 14.5C20.75 12.9812 19.6484 11.75 18.2896 11.75M5.75 20.75C8.85024 18.4643 9.73364 16.75 9.25 12.75C8.25 14.75 5.67082 17.25 3.70249 17.25C1.73416 17.25 0.75 16.0188 0.75 14.5C0.75 12.9812 1.85156 11.75 3.21041 11.75" stroke="var(--stroke-0, #1C1917)" stroke-width="1.5" stroke-linecap="round" stroke-linejoin="round"/>
</svg>
