<svg preserveAspectRatio="none" width="100%" height="100%" overflow="visible" style="display: block;" viewBox="0 0 20 21" fill="none" xmlns="http://www.w3.org/2000/svg">
<path id="Vector" d="M9.5 19H3C2.46957 19 1.96086 18.7893 1.58579 18.4142C1.21071 18.0391 1 17.5304 1 17V5C1 4.46957 1.21071 3.96086 1.58579 3.58579C1.96086 3.21071 2.46957 3 3 3H15C15.5304 3 16.0391 3.21071 16.4142 3.58579C16.7893 3.96086 17 4.46957 17 5V9H1M13 1V5M16 16V16.01M5 1V5M18.121 18.121C18.5407 17.7015 18.8265 17.1669 18.9423 16.585C19.0581 16.003 18.9988 15.3997 18.7717 14.8515C18.5447 14.3033 18.1602 13.8347 17.6668 13.505C17.1734 13.1753 16.5934 12.9994 16 12.9994C15.4066 12.9994 14.8266 13.1753 14.3332 13.505C13.8398 13.8347 13.4553 14.3033 13.2283 14.8515C13.0012 15.3997 12.9419 16.003 13.0577 16.585C13.1735 17.1669 13.4594 17.7015 13.879 18.121C14.297 18.54 15.004 19.166 16 20C17.051 19.11 17.759 18.484 18.121 18.121Z" stroke="var(--stroke-0, #1C1917)" stroke-width="2" stroke-linecap="round" stroke-linejoin="round"/>
</svg>
