<svg preserveAspectRatio="none" width="100%" height="100%" overflow="visible" style="display: block;" viewBox="0 0 22 22" fill="none" xmlns="http://www.w3.org/2000/svg">
<path id="Vector" d="M1.94404 12.8266C0.695624 14.0578 0.594364 16.3672 0.886546 18.5004C1.15166 20.436 3.32936 21.3481 4.96199 20.3258C7.9486 18.4557 11.0679 15.9917 14.0567 13.0443C17.1272 10.0162 18.8096 7.71098 20.2935 5.11707C21.1933 3.54417 20.7718 1.44689 18.9497 0.981778C16.9548 0.472585 14.3691 0.681497 12.0875 2.82705M1.94404 12.8266C1.1103 9.08656 4.04026 4.68143 10.9156 8.54385M1.94404 12.8266C2.56735 12.8393 3.96758 13.1213 5.3044 14.074M5.59591 6.94501C5.65898 5.00441 7.57258 1.75441 12.0875 2.82705M12.0875 2.82705C13.054 3.05667 14.1397 3.48437 15.352 4.1654" stroke="var(--stroke-0, #1C1917)" stroke-width="1.5" stroke-linecap="round" stroke-linejoin="round"/>
</svg>
