<svg preserveAspectRatio="none" width="100%" height="100%" overflow="visible" style="display: block;" viewBox="0 0 22 22" fill="none" xmlns="http://www.w3.org/2000/svg">
<path id="Vector" d="M15.1892 15.8484L14.5652 15.4324L14.5652 15.4324L15.1892 15.8484ZM15.0962 15.9879L14.4722 15.5719L14.4722 15.5719L15.0962 15.9879ZM5.65157 6.31078L5.23555 5.68674L5.23555 5.68674L5.65157 6.31078ZM5.51211 6.40376L5.92813 7.02779L5.92813 7.02779L5.51211 6.40376ZM7.43235 12.3844L8.16779 12.2373L8.16779 12.2373L7.43235 12.3844ZM7.1623 11.0341L7.89773 10.8871L7.89773 10.8871L7.1623 11.0341ZM9.11558 14.0676L9.26266 13.3322L9.26266 13.3322L9.11558 14.0676ZM10.4659 14.3377L10.3188 15.0731L10.3188 15.0731L10.4659 14.3377ZM11.2617 14.5709L10.8586 15.2034L10.8586 15.2034L11.2617 14.5709ZM11.8414 15.552L11.1299 15.7892L11.1299 15.7892L11.8414 15.552ZM11.5113 14.7913L12.0889 14.3128L12.0889 14.3128L11.5113 14.7913ZM6.92908 10.2383L6.29662 10.6414L6.29662 10.6414L6.92908 10.2383ZM5.94799 9.65859L6.18516 8.94708L6.18516 8.94708L5.94799 9.65859ZM6.70873 9.98871L7.18716 9.41112L7.18716 9.41112L6.70873 9.98871ZM3.77086 7.94212L3.03545 7.79494L3.03545 7.79494L3.77086 7.94212ZM3.86333 8.63258L3.19255 8.96808L3.19255 8.96808L3.86333 8.63258ZM13.5579 17.7291L13.4107 16.9937L13.4107 16.9937L13.5579 17.7291ZM12.8674 17.6367L12.5319 18.3074L12.5319 18.3075L12.8674 17.6367ZM15.7167 14.4173L14.99 14.6026L14.99 14.6026L15.7167 14.4173ZM15.7485 14.7385L16.4975 14.7777L16.4975 14.7777L15.7485 14.7385ZM7.08269 5.78327L7.26802 5.05653L7.26802 5.05653L7.08269 5.78327ZM6.76149 5.75147L6.72228 5.00249L6.72228 5.00249L6.76149 5.75147ZM10.4756 18.6057L11.0059 19.136L11.0119 19.1301L11.0177 19.124L10.4756 18.6057ZM4.41057 18.6057L4.9409 18.0754L4.41057 18.6057ZM2.89431 17.0894L3.42464 16.5591L3.42464 16.5591L2.89431 17.0894ZM2.89431 11.0244L2.37599 10.4823L2.36992 10.4881L2.36398 10.4941L2.89431 11.0244ZM11.3959 2.81241L11.9262 3.34274L11.3959 2.81241ZM17.2292 2.81241L17.7596 2.28208L17.7596 2.28208L17.2292 2.81241ZM18.6876 4.27076L18.1573 4.80109L18.1573 4.80109L18.6876 4.27076ZM18.6876 10.1041L18.1573 9.57381L18.1573 9.57381L18.6876 10.1041ZM20.75 7.18745L20 7.18745L20 7.18745L20.75 7.18745ZM8.06135 6.54939L7.53102 7.07972L14.4203 13.969L14.9506 13.4386L15.4809 12.9083L8.59168 6.01906L8.06135 6.54939ZM15.1892 15.8484L14.5652 15.4324L14.4722 15.5719L15.0962 15.9879L15.7203 16.4039L15.8133 16.2645L15.1892 15.8484ZM5.65157 6.31078L5.23555 5.68674L5.09608 5.77972L5.51211 6.40376L5.92813 7.02779L6.0676 6.93481L5.65157 6.31078ZM7.43235 12.3844L8.16779 12.2373L7.89773 10.8871L7.1623 11.0341L6.42686 11.1812L6.69692 12.5315L7.43235 12.3844ZM9.11558 14.0676L8.96849 14.8031L10.3188 15.0731L10.4659 14.3377L10.6129 13.6023L9.26266 13.3322L9.11558 14.0676ZM10.4659 14.3377L10.3188 15.0731C10.7955 15.1685 10.8357 15.1888 10.8586 15.2034L11.2617 14.5709L11.6648 13.9384C11.349 13.7372 10.9715 13.674 10.6129 13.6023L10.4659 14.3377ZM11.8414 15.552L12.5529 15.3148C12.4373 14.9679 12.3278 14.6012 12.0889 14.3128L11.5113 14.7913L10.9337 15.2697C10.951 15.2906 10.9761 15.3279 11.1299 15.7892L11.8414 15.552ZM11.2617 14.5709L10.8586 15.2034C10.8869 15.2214 10.9123 15.2438 10.9337 15.2697L11.5113 14.7913L12.0889 14.3128C11.9679 14.1667 11.8248 14.0404 11.6648 13.9384L11.2617 14.5709ZM7.1623 11.0341L7.89773 10.8871C7.82602 10.5285 7.76282 10.151 7.56155 9.83523L6.92908 10.2383L6.29662 10.6414C6.31117 10.6643 6.33151 10.7045 6.42686 11.1812L7.1623 11.0341ZM5.94799 9.65859L5.71082 10.3701C6.17208 10.5239 6.20945 10.549 6.23031 10.5663L6.70873 9.98871L7.18716 9.41112C6.89877 9.17224 6.53206 9.06271 6.18516 8.94708L5.94799 9.65859ZM6.92908 10.2383L7.56155 9.83523C7.45959 9.67524 7.33327 9.53215 7.18716 9.41112L6.70873 9.98871L6.23031 10.5663C6.25618 10.5877 6.27856 10.6131 6.29662 10.6414L6.92908 10.2383ZM7.43235 12.3844L6.69692 12.5315C6.76171 12.8555 6.82102 13.1573 6.89882 13.4038C6.98214 13.6678 7.1052 13.9338 7.33569 14.1643L7.86602 13.634L8.39635 13.1037C8.39359 13.1009 8.38822 13.0954 8.37889 13.0783C8.36794 13.0582 8.35091 13.0209 8.32927 12.9523C8.28165 12.8014 8.23898 12.5933 8.16779 12.2373L7.43235 12.3844ZM9.11558 14.0676L9.26266 13.3322C8.90671 13.261 8.69856 13.2183 8.54769 13.1707C8.47913 13.1491 8.44179 13.1321 8.4217 13.1211C8.4046 13.1118 8.3991 13.1064 8.39635 13.1037L7.86602 13.634L7.33569 14.1643C7.56618 14.3948 7.83224 14.5179 8.09624 14.6012C8.34274 14.679 8.64453 14.7383 8.96849 14.8031L9.11558 14.0676ZM5.51211 6.40376L5.09608 5.77972C4.55941 6.1375 4.10567 6.43877 3.78121 6.70851C3.46693 6.96978 3.13211 7.31196 3.03545 7.79494L3.77086 7.94212L4.50628 8.08931C4.49681 8.13662 4.48126 8.07718 4.74013 7.86197C4.98882 7.65523 5.36211 7.40514 5.92813 7.02779L5.51211 6.40376ZM5.94799 9.65859L6.18516 8.94708C5.53979 8.73196 5.11385 8.58891 4.81953 8.45488C4.51316 8.31537 4.51252 8.25393 4.5341 8.29708L3.86333 8.63258L3.19255 8.96808C3.41289 9.40861 3.82594 9.65063 4.19789 9.82C4.5819 9.99487 5.09891 10.1661 5.71082 10.3701L5.94799 9.65859ZM3.77086 7.94212L3.03545 7.79494C2.95587 8.19258 3.01115 8.60539 3.19255 8.96808L3.86333 8.63258L4.5341 8.29708C4.50198 8.23285 4.49218 8.15973 4.50628 8.08931L3.77086 7.94212ZM15.0962 15.9879L14.4722 15.5719C14.0949 16.1379 13.8448 16.5112 13.638 16.7599C13.4228 17.0187 13.3634 17.0032 13.4107 16.9937L13.5579 17.7291L13.7051 18.4646C14.188 18.3679 14.5302 18.0331 14.7915 17.7188C15.0612 17.3943 15.3625 16.9406 15.7203 16.4039L15.0962 15.9879ZM11.8414 15.552L11.1299 15.7892C11.3339 16.4011 11.5051 16.9181 11.68 17.3021C11.8494 17.6741 12.0914 18.0871 12.5319 18.3074L12.8674 17.6367L13.2029 16.9659C13.2461 16.9875 13.1846 16.9868 13.0451 16.6805C12.9111 16.3861 12.768 15.9602 12.5529 15.3148L11.8414 15.552ZM13.5579 17.7291L13.4107 16.9937C13.3403 17.0078 13.2672 16.998 13.2029 16.9659L12.8674 17.6367L12.5319 18.3075C12.8946 18.4888 13.3074 18.5441 13.7051 18.4646L13.5579 17.7291ZM14.9506 13.4386L14.4203 13.969C14.6617 14.2104 14.8046 14.3545 14.901 14.4714C14.9452 14.525 14.9675 14.5588 14.9789 14.5789C14.9888 14.5964 14.99 14.6026 14.99 14.6026L15.7167 14.4173L16.4435 14.232C16.3693 13.9413 16.2201 13.7134 16.0584 13.5173C15.9055 13.3318 15.7018 13.1292 15.4809 12.9083L14.9506 13.4386ZM15.1892 15.8484L15.8133 16.2645C15.9865 16.0046 16.1466 15.766 16.2601 15.5541C16.3802 15.33 16.4818 15.0773 16.4975 14.7777L15.7485 14.7385L14.9996 14.6993C14.9996 14.6993 14.9996 14.7057 14.9933 14.7248C14.9861 14.7467 14.9709 14.7842 14.938 14.8455C14.8665 14.979 14.7545 15.1484 14.5652 15.4324L15.1892 15.8484ZM15.7167 14.4173L14.99 14.6026C14.998 14.6342 15.0013 14.6668 14.9996 14.6993L15.7485 14.7385L16.4975 14.7777C16.5071 14.5941 16.4889 14.4101 16.4435 14.232L15.7167 14.4173ZM8.06135 6.54939L8.59168 6.01906C8.37082 5.7982 8.16824 5.59448 7.98272 5.44155C7.7866 5.27989 7.55871 5.13066 7.26802 5.05653L7.08269 5.78327L6.89735 6.51001C6.89736 6.51001 6.9036 6.51121 6.92109 6.52112C6.94119 6.53252 6.97497 6.55478 7.02862 6.599C7.14554 6.69539 7.28965 6.83835 7.53102 7.07972L8.06135 6.54939ZM5.65157 6.31078L6.0676 6.93482C6.35163 6.74546 6.52097 6.63354 6.65452 6.56196C6.71581 6.52912 6.75329 6.51391 6.77523 6.50668C6.79433 6.50039 6.80068 6.50044 6.8007 6.50044L6.76149 5.75147L6.72228 5.00249C6.42269 5.01818 6.16997 5.11981 5.94595 5.23987C5.73404 5.35344 5.49544 5.51348 5.23555 5.68674L5.65157 6.31078ZM7.08269 5.78327L7.26802 5.05653C7.08987 5.0111 6.90587 4.99288 6.72228 5.00249L6.76149 5.75147L6.8007 6.50044C6.83321 6.49874 6.8658 6.50197 6.89735 6.51001L7.08269 5.78327ZM12.25 16.75L11.7079 16.2317L9.93354 18.0874L10.4756 18.6057L11.0177 19.124L12.7921 17.2683L12.25 16.75ZM4.41057 18.6057L4.9409 18.0754L3.42464 16.5591L2.89431 17.0894L2.36398 17.6198L3.88024 19.136L4.41057 18.6057ZM2.89431 11.0244L3.41264 11.5665L5.26832 9.79207L4.75 9.25L4.23168 8.70793L2.37599 10.4823L2.89431 11.0244ZM2.89431 17.0894L3.42464 16.5591C2.69488 15.8293 2.20203 15.3342 1.88234 14.9152C1.57586 14.5135 1.5 14.2711 1.5 14.0569H0.75H0C0 14.7309 0.281526 15.29 0.689812 15.8251C1.08489 16.3429 1.66421 16.92 2.36398 17.6198L2.89431 17.0894ZM2.89431 11.0244L2.36398 10.4941C1.66421 11.1938 1.08489 11.7709 0.689812 12.2887C0.281526 12.8238 0 13.3829 0 14.0569H0.75H1.5C1.5 13.8427 1.57586 13.6003 1.88234 13.1986C2.20203 12.7796 2.69488 12.2845 3.42464 11.5547L2.89431 11.0244ZM10.4756 18.6057L9.94528 18.0754C9.21552 18.8051 8.72042 19.298 8.30141 19.6177C7.89972 19.9241 7.65728 20 7.44309 20V20.75V21.5C8.11711 21.5 8.67616 21.2185 9.21129 20.8102C9.7291 20.4151 10.3062 19.8358 11.0059 19.136L10.4756 18.6057ZM4.41057 18.6057L3.88024 19.136C4.58002 19.8358 5.15708 20.4151 5.6749 20.8102C6.21003 21.2185 6.76907 21.5 7.44309 21.5V20.75V20C7.22891 20 6.98647 19.9241 6.58477 19.6177C6.16577 19.298 5.67067 18.8051 4.9409 18.0754L4.41057 18.6057ZM7.75 6.45827L8.28033 6.9886L11.9262 3.34274L11.3959 2.81241L10.8655 2.28208L7.21967 5.92794L7.75 6.45827ZM17.2292 2.81241L16.6989 3.34274L18.1573 4.80109L18.6876 4.27076L19.2179 3.74043L17.7596 2.28208L17.2292 2.81241ZM18.6876 10.1041L18.1573 9.57381L14.5114 13.2197L15.0417 13.75L15.5721 14.2803L19.2179 10.6345L18.6876 10.1041ZM18.6876 4.27076L18.1573 4.80109C18.8597 5.50355 19.3321 5.97817 19.6381 6.37929C19.931 6.76309 20 6.99023 20 7.18745L20.75 7.18745L21.5 7.18745C21.5 6.53039 21.2253 5.98665 20.8307 5.46941C20.4492 4.96949 19.8904 4.4129 19.2179 3.74043L18.6876 4.27076ZM18.6876 10.1041L19.2179 10.6345C19.8904 9.96199 20.4492 9.40541 20.8307 8.90548C21.2253 8.38825 21.5 7.8445 21.5 7.18745L20.75 7.18745L20 7.18745C20 7.38467 19.931 7.6118 19.6381 7.99561C19.3321 8.39672 18.8597 8.87134 18.1573 9.57381L18.6876 10.1041ZM11.3959 2.81241L11.9262 3.34274C12.6287 2.64028 13.1033 2.16791 13.5044 1.86187C13.8882 1.56903 14.1153 1.5 14.3126 1.5V0.75V0C13.6555 0 13.1118 0.2747 12.5945 0.669336C12.0946 1.05077 11.538 1.6096 10.8655 2.28208L11.3959 2.81241ZM17.2292 2.81241L17.7596 2.28208C17.0871 1.6096 16.5305 1.05077 16.0306 0.669336C15.5134 0.2747 14.9696 0 14.3126 0V0.75V1.5C14.5098 1.5 14.7369 1.56903 15.1207 1.86187C15.5218 2.16791 15.9965 2.64028 16.6989 3.34274L17.2292 2.81241ZM18.3503 3.14996L17.82 2.61963L14.2198 6.21979L14.7501 6.75012L15.2805 7.28045L18.8806 3.68029L18.3503 3.14996ZM14.7501 6.75012L14.2198 6.21979L10.62 9.81963L11.1503 10.35L11.6806 10.8803L15.2805 7.28046L14.7501 6.75012ZM10.75 2.75L10.2197 3.28033L14.2198 7.28046L14.7501 6.75012L15.2805 6.21979L11.2803 2.21967L10.75 2.75ZM14.7501 6.75012L14.2198 7.28046L18.2197 11.2803L18.75 10.75L19.2803 10.2197L15.2805 6.21979L14.7501 6.75012Z" fill="var(--stroke-0, #1C1917)"/>
</svg>
