<svg preserveAspectRatio="none" width="100%" height="100%" overflow="visible" style="display: block;" viewBox="0 0 20 18" fill="none" xmlns="http://www.w3.org/2000/svg">
<path id="Vector" d="M5.00001 7L10 1L15 7M19 7L17 15C16.9065 15.5732 16.6552 16.0872 16.2897 16.4527C15.9243 16.8181 15.4679 17.0118 15 17H5.00001C4.53212 17.0118 4.07573 16.8181 3.71029 16.4527C3.34486 16.0872 3.09351 15.5732 3.00001 15L1.00001 7H19ZM8.00001 12C8.00001 12.5304 8.21072 13.0391 8.5858 13.4142C8.96087 13.7893 9.46958 14 10 14C10.5304 14 11.0391 13.7893 11.4142 13.4142C11.7893 13.0391 12 12.5304 12 12C12 11.4696 11.7893 10.9609 11.4142 10.5858C11.0391 10.2107 10.5304 10 10 10C9.46958 10 8.96087 10.2107 8.5858 10.5858C8.21072 10.9609 8.00001 11.4696 8.00001 12Z" stroke="var(--stroke-0, #1C1917)" stroke-width="2" stroke-linecap="round" stroke-linejoin="round"/>
</svg>
