<svg preserveAspectRatio="none" width="100%" height="100%" overflow="visible" style="display: block;" viewBox="0 0 18 22" fill="none" xmlns="http://www.w3.org/2000/svg">
<path id="Vector" d="M10.9319 1.47778C11.3337 1.37732 11.5781 0.970122 11.4776 0.568276C11.3771 0.16643 10.9699 -0.077891 10.5681 0.0225706L10.75 0.750177L10.9319 1.47778ZM3.99928 8.83132L3.84512 9.56531C4.15878 9.63119 4.47964 9.49047 4.64365 9.2151C4.80765 8.93974 4.77855 8.59058 4.57122 8.34617L3.99928 8.83132ZM13.5007 8.83132L12.9288 8.34617C12.7215 8.59058 12.6924 8.93974 12.8564 9.2151C13.0204 9.49047 13.3412 9.63119 13.6549 9.56531L13.5007 8.83132ZM6.02999 11.7869L6.76318 11.629C6.68877 11.2836 6.38335 11.0369 6.02999 11.0369C5.67663 11.0369 5.37121 11.2836 5.2968 11.629L6.02999 11.7869ZM11.47 11.7869L12.2032 11.629C12.1288 11.2836 11.8234 11.0369 11.47 11.0369C11.1167 11.0369 10.8112 11.2836 10.7368 11.629L11.47 11.7869ZM3.47114 13.5441C3.35735 13.1459 2.94224 12.9152 2.54396 13.029C2.14568 13.1428 1.91506 13.5579 2.02886 13.9562L2.75 13.7502L3.47114 13.5441ZM3.92111 17.8491L3.19997 18.0551L3.92111 17.8491ZM13.5789 17.8491L14.3 18.0551L14.3 18.0551L13.5789 17.8491ZM15.4711 13.9562C15.5849 13.5579 15.3543 13.1428 14.956 13.029C14.5578 12.9152 14.1427 13.1459 14.0289 13.5441L14.75 13.7502L15.4711 13.9562ZM12.4458 20.3469L12.8974 20.9456L12.8974 20.9456L12.4458 20.3469ZM5.05421 20.3469L5.50586 19.7481L5.50586 19.7481L5.05421 20.3469ZM6.75 4.75018H6C6 6.26896 7.23122 7.50018 8.75 7.50018V6.75018V6.00018C8.05964 6.00018 7.5 5.44053 7.5 4.75018H6.75ZM8.75 6.75018V7.50018C10.2688 7.50018 11.5 6.26896 11.5 4.75018H10.75H10C10 5.44053 9.44036 6.00018 8.75 6.00018V6.75018ZM10.75 4.75018H11.5C11.5 3.23139 10.2688 2.00018 8.75 2.00018V2.75018V3.50018C9.44036 3.50018 10 4.05982 10 4.75018H10.75ZM8.75 2.75018V2.00018C7.23122 2.00018 6 3.23139 6 4.75018H6.75H7.5C7.5 4.05982 8.05964 3.50018 8.75 3.50018V2.75018ZM8.75 2.75018H9.5C9.5 2.58911 9.67081 1.79306 10.9319 1.47778L10.75 0.750177L10.5681 0.0225706C8.62919 0.507299 8 1.91125 8 2.75018H8.75ZM3.99928 8.83132L4.15343 8.09734C2.1207 7.67042 0 9.16071 0 11.2843H0.75H1.5C1.5 10.2311 2.62549 9.30916 3.84512 9.56531L3.99928 8.83132ZM16.75 11.2843H17.5C17.5 9.16071 15.3793 7.67042 13.3466 8.09734L13.5007 8.83132L13.6549 9.56531C14.8745 9.30916 16 10.2311 16 11.2843H16.75ZM13.5007 8.83132L14.0727 9.31648C15.0389 8.17734 14.7771 6.7621 14.0715 5.76259C13.3695 4.76803 12.1284 4.00018 10.75 4.00018V4.75018V5.50018C11.5801 5.50018 12.388 5.97869 12.8461 6.6276C13.3006 7.27156 13.3099 7.89689 12.9288 8.34617L13.5007 8.83132ZM6.75 4.75018V4.00018C5.37158 4.00018 4.13049 4.76803 3.42845 5.76259C2.72292 6.7621 2.46105 8.17734 3.42733 9.31648L3.99928 8.83132L4.57122 8.34617C4.19012 7.89689 4.19936 7.27156 4.65391 6.6276C5.11196 5.97869 5.91991 5.50018 6.75 5.50018V4.75018ZM0.75 11.2843H0C0 13.2624 1.58656 14.3262 3.08869 14.4659C4.58746 14.6052 6.3507 13.8598 6.76318 11.9448L6.02999 11.7869L5.2968 11.629C5.09094 12.5848 4.21418 13.064 3.22754 12.9723C2.24426 12.8809 1.5 12.258 1.5 11.2843H0.75ZM6.02999 11.7869L5.2968 11.9448C5.67676 13.7088 7.30354 14.5002 8.75 14.5002C10.1965 14.5002 11.8232 13.7088 12.2032 11.9448L11.47 11.7869L10.7368 11.629C10.5529 12.4827 9.74163 13.0002 8.75 13.0002C7.75837 13.0002 6.94705 12.4827 6.76318 11.629L6.02999 11.7869ZM11.47 11.7869L10.7368 11.9448C11.1493 13.8598 12.9125 14.6052 14.4113 14.4659C15.9134 14.3262 17.5 13.2624 17.5 11.2843H16.75H16C16 12.258 15.2557 12.8809 14.2725 12.9723C13.2858 13.064 12.4091 12.5848 12.2032 11.629L11.47 11.7869ZM2.75 13.7502L2.02886 13.9562L3.19997 18.0551L3.92111 17.8491L4.64225 17.643L3.47114 13.5441L2.75 13.7502ZM7.76721 20.7502V21.5002H9.73279V20.7502V20.0002H7.76721V20.7502ZM13.5789 17.8491L14.3 18.0551L15.4711 13.9562L14.75 13.7502L14.0289 13.5441L12.8577 17.643L13.5789 17.8491ZM9.73279 20.7502V21.5002C10.4411 21.5002 11.0371 21.5014 11.5207 21.4447C12.024 21.3856 12.4848 21.2569 12.8974 20.9456L12.4458 20.3469L11.9941 19.7481C11.8721 19.8402 11.7025 19.9131 11.346 19.9549C10.9699 19.999 10.4767 20.0002 9.73279 20.0002V20.7502ZM13.5789 17.8491L12.8577 17.643C12.6534 18.3583 12.5167 18.8322 12.371 19.1817C12.2329 19.513 12.1162 19.6561 11.9941 19.7481L12.4458 20.3469L12.8974 20.9456C13.3101 20.6344 13.5605 20.2267 13.7555 19.759C13.9429 19.3096 14.1055 18.7361 14.3 18.0551L13.5789 17.8491ZM3.92111 17.8491L3.19997 18.0551C3.39454 18.7361 3.55713 19.3095 3.74453 19.759C3.93955 20.2267 4.18993 20.6344 4.60257 20.9456L5.05421 20.3469L5.50586 19.7481C5.38382 19.6561 5.26713 19.513 5.129 19.1817C4.98325 18.8322 4.84663 18.3583 4.64225 17.643L3.92111 17.8491ZM7.76721 20.7502V20.0002C7.02326 20.0002 6.53013 19.999 6.15398 19.9549C5.7975 19.9131 5.6279 19.8402 5.50586 19.7481L5.05421 20.3469L4.60256 20.9456C5.0152 21.2569 5.47598 21.3856 5.97928 21.4447C6.4629 21.5014 7.05893 21.5002 7.76721 21.5002V20.7502Z" fill="var(--stroke-0, #1C1917)"/>
</svg>
