<svg preserveAspectRatio="none" width="100%" height="100%" overflow="visible" style="display: block;" viewBox="0 0 18 24" fill="none" xmlns="http://www.w3.org/2000/svg">
<path id="Vector" d="M2.75004 2.5C2.33582 2.5 2.00004 2.83579 2.00004 3.25C2.00004 3.66421 2.33582 4 2.75004 4V3.25V2.5ZM16.75 4C17.1642 4 17.5 3.66421 17.5 3.25C17.5 2.83579 17.1642 2.5 16.75 2.5V3.25V4ZM9.00004 1.75C9.00004 1.33579 8.66425 1 8.25004 1C7.83582 1 7.50004 1.33579 7.50004 1.75H8.25004H9.00004ZM7.50004 4.75C7.50004 5.16421 7.83582 5.5 8.25004 5.5C8.66425 5.5 9.00004 5.16421 9.00004 4.75H8.25004H7.50004ZM4.94831 1.75C4.94831 1.33579 4.61253 1 4.19831 1C3.7841 1 3.44831 1.33579 3.44831 1.75H4.19831H4.94831ZM3.44831 4.75C3.44831 5.16421 3.7841 5.5 4.19831 5.5C4.61253 5.5 4.94831 5.16421 4.94831 4.75H4.19831H3.44831ZM7.00004 0.75C7.00004 0.335786 6.66425 0 6.25004 0C5.83582 0 5.50004 0.335786 5.50004 0.75H6.25004H7.00004ZM5.50004 5.75C5.50004 6.16421 5.83582 6.5 6.25004 6.5C6.66425 6.5 7.00004 6.16421 7.00004 5.75H6.25004H5.50004ZM0.750036 8C0.335823 8 3.61204e-05 8.33579 3.61204e-05 8.75C3.61204e-05 9.16421 0.335823 9.5 0.750036 9.5V8.75V8ZM12.75 9.5C13.1642 9.5 13.5 9.16421 13.5 8.75C13.5 8.33579 13.1642 8 12.75 8V8.75V9.5ZM10.6464 9.11014L11.2255 8.63359L11.2255 8.63359L10.6464 9.11014ZM10.9292 8.27345C10.666 7.9536 10.1933 7.90767 9.87349 8.17086C9.55364 8.43405 9.50771 8.9067 9.7709 9.22655L10.35 8.75L10.9292 8.27345ZM3.72917 9.22655C3.99237 8.9067 3.94643 8.43405 3.62659 8.17086C3.30674 7.90767 2.83409 7.9536 2.5709 8.27345L3.15004 8.75L3.72917 9.22655ZM2.8537 9.11014L2.27456 8.63359L2.27456 8.63359L2.8537 9.11014ZM12.4795 11.7589L13.1849 11.5044L13.1849 11.5044L12.4795 11.7589ZM12.0471 22.0666L11.5243 21.5288L11.5243 21.5288L12.0471 22.0666ZM1.02062 11.7589L1.7261 12.0135L1.7261 12.0135L1.02062 11.7589ZM1.45298 22.0666L1.97579 21.5288L1.97579 21.5288L1.45298 22.0666ZM5.50004 14.75C5.50004 14.3358 5.16425 14 4.75004 14C4.33582 14 4.00004 14.3358 4.00004 14.75H4.75004H5.50004ZM4.00004 17.75C4.00004 18.1642 4.33582 18.5 4.75004 18.5C5.16425 18.5 5.50004 18.1642 5.50004 17.75H4.75004H4.00004ZM0.750036 14C0.335823 14 3.61204e-05 14.3358 3.61204e-05 14.75C3.61204e-05 15.1642 0.335823 15.5 0.750036 15.5V14.75V14ZM12.75 15.5C13.1642 15.5 13.5 15.1642 13.5 14.75C13.5 14.3358 13.1642 14 12.75 14V14.75V15.5ZM4.19831 3.25V2.5H2.75004V3.25V4H4.19831V3.25ZM16.75 3.25V2.5H8.25004V3.25V4H16.75V3.25ZM8.25004 1.75H7.50004V3.25H8.25004H9.00004V1.75H8.25004ZM8.25004 3.25H7.50004V4.75H8.25004H9.00004V3.25H8.25004ZM4.19831 1.75H3.44831V3.25H4.19831H4.94831V1.75H4.19831ZM4.19831 3.25H3.44831V4.75H4.19831H4.94831V3.25H4.19831ZM6.25004 0.75H5.50004V5.75H6.25004H7.00004V0.75H6.25004ZM0.750036 8.75V9.5H12.75V8.75V8H0.750036V8.75ZM5.55004 22.75V23.5H7.95004V22.75V22H5.55004V22.75ZM12.75 18.0833H13.5V14.9406H12.75H12V18.0833H12.75ZM10.6464 9.11014L11.2255 8.63359L10.9292 8.27345L10.35 8.75L9.7709 9.22655L10.0672 9.58668L10.6464 9.11014ZM3.15004 8.75L2.5709 8.27345L2.27456 8.63359L2.8537 9.11014L3.43283 9.58668L3.72917 9.22655L3.15004 8.75ZM0.750036 14.9406H3.61204e-05V18.0833H0.750036H1.50004V14.9406H0.750036ZM12.75 14.9406H13.5C13.5 13.3718 13.5103 12.4062 13.1849 11.5044L12.4795 11.7589L11.774 12.0135C11.9898 12.6116 12 13.2671 12 14.9406H12.75ZM10.6464 9.11014L10.0672 9.58668C11.1423 10.8932 11.5576 11.4138 11.774 12.0135L12.4795 11.7589L13.1849 11.5044C12.8601 10.6042 12.2337 9.85883 11.2255 8.63359L10.6464 9.11014ZM7.95004 22.75V23.5C9.06078 23.5 9.96722 23.5015 10.6807 23.4082C11.4136 23.3124 12.0551 23.1048 12.5699 22.6043L12.0471 22.0666L11.5243 21.5288C11.3361 21.7118 11.0604 21.8458 10.4863 21.9209C9.89266 21.9985 9.10204 22 7.95004 22V22.75ZM12.75 18.0833H12C12 19.2051 11.9984 19.9688 11.9192 20.5409C11.8434 21.0892 11.7095 21.3488 11.5243 21.5288L12.0471 22.0666L12.5699 22.6043C13.0876 22.101 13.3052 21.4689 13.4051 20.7464C13.5017 20.0477 13.5 19.1615 13.5 18.0833H12.75ZM2.8537 9.11014L2.27456 8.63359C1.26635 9.85884 0.639928 10.6042 0.315135 11.5044L1.02062 11.7589L1.7261 12.0135C1.94248 11.4138 2.35772 10.8932 3.43283 9.58668L2.8537 9.11014ZM0.750036 14.9406H1.50004C1.50004 13.2671 1.5103 12.6116 1.7261 12.0135L1.02062 11.7589L0.315135 11.5044C-0.0102243 12.4062 3.61204e-05 13.3718 3.61204e-05 14.9406H0.750036ZM5.55004 22.75V22C4.39804 22 3.60742 21.9985 3.01379 21.9209C2.43962 21.8458 2.16394 21.7118 1.97579 21.5288L1.45298 22.0666L0.930171 22.6043C1.44496 23.1048 2.08644 23.3124 2.81938 23.4082C3.53286 23.5015 4.43929 23.5 5.55004 23.5V22.75ZM0.750036 18.0833H3.61204e-05C3.61204e-05 19.1615 -0.0016472 20.0477 0.0949742 20.7464C0.194886 21.4689 0.412433 22.101 0.930171 22.6043L1.45298 22.0666L1.97579 21.5288C1.79058 21.3488 1.65666 21.0892 1.58083 20.5409C1.50172 19.9688 1.50004 19.2051 1.50004 18.0833H0.750036ZM4.75004 14.75H4.00004V17.75H4.75004H5.50004V14.75H4.75004ZM0.750036 14.75V15.5H12.75V14.75V14H0.750036V14.75Z" fill="var(--stroke-0, #1C1917)"/>
</svg>
