<svg preserveAspectRatio="none" width="100%" height="100%" overflow="visible" style="display: block;" viewBox="0 0 18 22" fill="none" xmlns="http://www.w3.org/2000/svg">
<path id="Vector" d="M3.81237 16.7648L3.08299 16.9395L3.08299 16.9395L3.81237 16.7648ZM15.4866 10.8911C15.5645 10.4843 15.2979 10.0913 14.8911 10.0134C14.4843 9.93545 14.0913 10.2021 14.0134 10.6089L14.75 10.75L15.4866 10.8911ZM13.6444 16.5206L14.381 16.6617L14.381 16.6617L13.6444 16.5206ZM5.83605 20.4471L5.5042 21.1197L5.5042 21.1197L5.83605 20.4471ZM4.78895 19.5937L5.37887 19.1306L5.37887 19.1306L4.78895 19.5937ZM11.6899 20.4254L12.0326 21.0925L12.0326 21.0925L11.6899 20.4254ZM12.7535 19.5152L12.1493 19.0708L12.1493 19.0708L12.7535 19.5152ZM12.75 11.75L12.8561 12.4925C12.8698 12.4905 12.8835 12.4882 12.8971 12.4854L12.75 11.75ZM12.75 4.75H12C12 5.16421 12.3358 5.5 12.75 5.5V4.75ZM8.75 0.75V0C8.44665 0 8.17318 0.182732 8.05709 0.462987C7.941 0.743243 8.00517 1.06583 8.21967 1.28033L8.75 0.75ZM8.84303 9.49421C9.25404 9.44283 9.54559 9.06799 9.49421 8.65697C9.44283 8.24596 9.06799 7.95441 8.65697 8.00579L8.75 8.75L8.84303 9.49421ZM3.81237 16.7648L4.54174 16.5901L3.47937 12.1543L2.75 12.3289L2.02063 12.5036L3.08299 16.9395L3.81237 16.7648ZM14.75 10.75L14.0134 10.6089L12.9078 16.3794L13.6444 16.5206L14.381 16.6617L15.4866 10.8911L14.75 10.75ZM8.70207 20.75V20C7.93889 20 7.41238 19.9994 6.99878 19.9648C6.59696 19.9311 6.35875 19.8687 6.1679 19.7746L5.83605 20.4471L5.5042 21.1197C5.92718 21.3284 6.37125 21.4175 6.87361 21.4595C7.3642 21.5006 7.96378 21.5 8.70207 21.5V20.75ZM3.81237 16.7648L3.08299 16.9395C3.26238 17.6885 3.4063 18.2917 3.5621 18.7743C3.72092 19.2663 3.90773 19.6858 4.19902 20.0569L4.78895 19.5937L5.37887 19.1306C5.23981 18.9535 5.12042 18.7188 4.98957 18.3135C4.8557 17.8988 4.7265 17.3616 4.54174 16.5901L3.81237 16.7648ZM5.83605 20.4471L6.1679 19.7746C5.86509 19.6251 5.59505 19.406 5.37887 19.1306L4.78895 19.5937L4.19902 20.0569C4.55115 20.5054 4.99642 20.8692 5.5042 21.1197L5.83605 20.4471ZM8.70207 20.75V21.5C9.47458 21.5 10.1012 21.5006 10.6124 21.4567C11.1354 21.4117 11.5969 21.3164 12.0326 21.0925L11.6899 20.4254L11.3472 19.7583C11.1511 19.859 10.904 19.926 10.4838 19.9622C10.0517 19.9994 9.50026 20 8.70207 20V20.75ZM13.6444 16.5206L12.9078 16.3794C12.7515 17.195 12.642 17.7637 12.5211 18.2032C12.4028 18.6333 12.2878 18.8825 12.1493 19.0708L12.7535 19.5152L13.3577 19.9596C13.648 19.5649 13.8244 19.1207 13.9674 18.6011C14.1077 18.091 14.2292 17.4539 14.381 16.6617L13.6444 16.5206ZM11.6899 20.4254L12.0326 21.0925C12.5546 20.8243 13.0074 20.4358 13.3577 19.9596L12.7535 19.5152L12.1493 19.0708C11.9338 19.3638 11.6587 19.5982 11.3472 19.7583L11.6899 20.4254ZM16.75 8.25H16C16 9.22085 14.9537 10.5444 12.6029 11.0146L12.75 11.75L12.8971 12.4854C15.5463 11.9556 17.5 10.2791 17.5 8.25H16.75ZM12.75 4.75V5.5C13.7148 5.5 14.5355 5.78215 15.1003 6.24945C15.6508 6.70487 16 7.36745 16 8.25H16.75H17.5C17.5 6.92341 16.9537 5.83599 16.0565 5.0937C15.1736 4.36328 13.9943 4 12.75 4V4.75ZM8.75 0.75V1.5C10.5449 1.5 12 2.95507 12 4.75H12.75H13.5C13.5 2.12665 11.3734 0 8.75 0V0.75ZM3.75 12.75V12C2.92738 12 2.38921 11.7297 2.05168 11.3632C1.70484 10.9866 1.5 10.4318 1.5 9.75H0.75H0C0 10.7251 0.29516 11.6702 0.948324 12.3794C1.61079 13.0987 2.57262 13.5 3.75 13.5V12.75ZM8.75 0.75L8.21967 1.28033C8.33388 1.39454 8.32496 1.44919 8.32313 1.47018C8.31795 1.5298 8.27682 1.66265 8.10855 1.86697C7.76925 2.27898 7.12845 2.72225 6.41459 3.07918L6.75 3.75L7.08541 4.42082C7.87155 4.02775 8.73075 3.47102 9.26645 2.82053C9.53568 2.4936 9.7758 2.07958 9.81749 1.60013C9.86254 1.08206 9.66612 0.605456 9.28033 0.21967L8.75 0.75ZM12.75 11.75C12.6439 11.0075 12.6439 11.0075 12.6439 11.0075C12.6438 11.0076 12.6438 11.0076 12.6437 11.0076C12.6435 11.0076 12.6432 11.0076 12.6428 11.0077C12.642 11.0078 12.6407 11.008 12.6391 11.0082C12.6358 11.0087 12.6308 11.0094 12.6243 11.0103C12.6111 11.0122 12.5915 11.015 12.5658 11.0186C12.5144 11.0259 12.4386 11.0366 12.3413 11.0502C12.1468 11.0774 11.8664 11.1164 11.5237 11.1631C10.838 11.2566 9.90339 11.3812 8.90697 11.5058C6.88935 11.758 4.69266 12 3.75 12V12.75V13.5C4.80734 13.5 7.11065 13.242 9.09303 12.9942C10.0966 12.8688 11.037 12.7434 11.7263 12.6494C12.0711 12.6024 12.3532 12.5632 12.5493 12.5357C12.6473 12.522 12.7239 12.5112 12.776 12.5038C12.802 12.5001 12.822 12.4973 12.8354 12.4954C12.8422 12.4944 12.8473 12.4937 12.8507 12.4932C12.8525 12.493 12.8538 12.4928 12.8547 12.4927C12.8551 12.4926 12.8555 12.4925 12.8557 12.4925C12.8558 12.4925 12.8559 12.4925 12.856 12.4925C12.856 12.4925 12.8561 12.4925 12.75 11.75ZM3.23618 6.29383L2.50832 6.11293C2.35263 6.73937 2.38447 7.36051 2.66844 7.91455C2.94963 8.46317 3.43262 8.85743 4.01453 9.12325C5.14959 9.64175 6.81818 9.74731 8.84303 9.49421L8.75 8.75L8.65697 8.00579C6.72284 8.24756 5.39143 8.10313 4.63778 7.75886C4.27534 7.5933 4.09179 7.40299 4.00331 7.23036C3.91761 7.06316 3.87664 6.82637 3.96403 6.47473L3.23618 6.29383ZM0.75 9.75H1.5C1.5 9.17707 1.71288 8.51977 2.08192 7.98211C2.45414 7.43983 2.91948 7.10958 3.36374 7.0329L3.23618 6.29383L3.10862 5.55476C2.14082 5.72179 1.36307 6.3788 0.84522 7.13325C0.324188 7.89233 0 8.84127 0 9.75H0.75ZM6.75 3.75L6.41459 3.07918C6.22737 3.17279 5.97701 3.25352 5.61728 3.36952C5.28216 3.47759 4.87544 3.60995 4.47868 3.79836C3.65787 4.18815 2.82281 4.84755 2.50832 6.11293L3.23618 6.29383L3.96403 6.47473C4.13572 5.78395 4.55758 5.42143 5.12213 5.15334C5.41806 5.01281 5.73613 4.90726 6.07764 4.79713C6.39453 4.69494 6.77263 4.57721 7.08541 4.42082L6.75 3.75Z" fill="var(--stroke-0, #1C1917)"/>
</svg>
