<svg preserveAspectRatio="none" width="100%" height="100%" overflow="visible" style="display: block;" viewBox="0 0 16 22" fill="none" xmlns="http://www.w3.org/2000/svg">
<path id="Vector" d="M14 8.00026L14.9879 8.15538L15.0305 7.88396L14.9285 7.62887L14 8.00026ZM12.5218 17.4139L13.5097 17.569L13.5097 17.569L12.5218 17.4139ZM3.47819 17.4139L4.46608 17.2587L3.47819 17.4139ZM4.41358 20.2646L3.77014 21.0301L3.77014 21.0301L4.41358 20.2646ZM11.5864 20.2646L12.2299 21.0301L12.2299 21.0301L11.5864 20.2646ZM2.51444 6.71416L3.44291 7.08555L3.44291 7.08555L2.51444 6.71416ZM13.4856 6.71416L12.5571 7.08555L12.5571 7.08555L13.4856 6.71416ZM1 7.00026C0.447715 7.00026 0 7.44797 0 8.00026C0 8.55254 0.447715 9.00026 1 9.00026V8.00026V7.00026ZM15 9.00026C15.5523 9.00026 16 8.55254 16 8.00026C16 7.44797 15.5523 7.00026 15 7.00026V8.00026V9.00026ZM8.08085 7.60634C7.8633 8.11397 8.09845 8.70185 8.60608 8.9194C9.11371 9.13696 9.70159 8.90181 9.91915 8.39418L9 8.00026L8.08085 7.60634ZM12.9191 1.39418C13.1367 0.886546 12.9015 0.298667 12.3939 0.0811114C11.8863 -0.136444 11.2984 0.0987073 11.0809 0.606337L12 1.00026L12.9191 1.39418ZM6.00894 16.5003C6.56123 16.5003 7.00894 16.0525 7.00894 15.5003C7.00894 14.948 6.56123 14.5003 6.00894 14.5003V15.5003V16.5003ZM6 14.5003C5.44772 14.5003 5 14.948 5 15.5003C5 16.0525 5.44772 16.5003 6 16.5003V15.5003V14.5003ZM10 18.0003C10.5523 18.0003 11 17.5525 11 17.0003C11 16.448 10.5523 16.0003 10 16.0003V17.0003V18.0003ZM9.99106 16.0003C9.43877 16.0003 8.99106 16.448 8.99106 17.0003C8.99106 17.5525 9.43877 18.0003 9.99106 18.0003V17.0003V16.0003ZM9.01124 14.0003C9.56352 14.0003 10.0112 13.5525 10.0112 13.0003C10.0112 12.448 9.56352 12.0003 9.01124 12.0003V13.0003V14.0003ZM9.00229 12.0003C8.45001 12.0003 8.00229 12.448 8.00229 13.0003C8.00229 13.5525 8.45001 14.0003 9.00229 14.0003V13.0003V12.0003ZM2.12786 8.81452L1.13997 8.96964L2.12786 8.81452ZM14 8.00026L13.0121 7.84513L11.5339 17.2587L12.5218 17.4139L13.5097 17.569L14.9879 8.15538L14 8.00026ZM3.47819 17.4139L4.46608 17.2587L3.11576 8.65939L2.12786 8.81452L1.13997 8.96964L2.49029 17.569L3.47819 17.4139ZM3.47819 17.4139L2.49029 17.569C2.6107 18.3358 2.71385 19.0049 2.86834 19.5361C3.03117 20.0958 3.28168 20.6196 3.77014 21.0301L4.41358 20.2646L5.05701 19.4991C4.98356 19.4374 4.89087 19.3285 4.78874 18.9774C4.67826 18.5976 4.59466 18.0776 4.46608 17.2587L3.47819 17.4139ZM12.5218 17.4139L11.5339 17.2587C11.4053 18.0776 11.3217 18.5976 11.2113 18.9774C11.1091 19.3285 11.0164 19.4374 10.943 19.4991L11.5864 20.2646L12.2299 21.0301C12.7183 20.6196 12.9688 20.0958 13.1317 19.5361C13.2862 19.0049 13.3893 18.3358 13.5097 17.569L12.5218 17.4139ZM4.41358 20.2646L3.77014 21.0301C4.26074 21.4425 4.99419 21.6613 5.65198 21.7898C6.35788 21.9277 7.17086 21.9964 7.97039 22.0001C8.76971 22.0038 9.58861 21.9428 10.3056 21.8065C10.9786 21.6786 11.7231 21.4561 12.2299 21.0301L11.5864 20.2646L10.943 19.4991C10.8498 19.5774 10.5393 19.7262 9.93204 19.8417C9.36872 19.9488 8.68192 20.0034 7.9797 20.0001C7.27769 19.9968 6.59329 19.9359 6.03551 19.8269C5.42964 19.7085 5.13312 19.5631 5.05701 19.4991L4.41358 20.2646ZM2.30612 7.23497L3.23459 7.60636L3.44291 7.08555L2.51444 6.71416L1.58596 6.34277L1.37764 6.86358L2.30612 7.23497ZM13.4856 6.71416L12.5571 7.08555L13.0715 8.37165L14 8.00026L14.9285 7.62887L14.414 6.34277L13.4856 6.71416ZM8 3.00026V4.00026C10.007 4.00026 11.8117 5.22214 12.5571 7.08555L13.4856 6.71416L14.414 6.34277C13.3649 3.72004 10.8248 2.00026 8 2.00026V3.00026ZM2.51444 6.71416L3.44291 7.08555C4.18828 5.22214 5.99304 4.00026 8 4.00026V3.00026V2.00026C5.17523 2.00026 2.63505 3.72004 1.58596 6.34277L2.51444 6.71416ZM1 8.00026V9.00026H15V8.00026V7.00026H1V8.00026ZM9 8.00026L9.91915 8.39418L12.9191 1.39418L12 1.00026L11.0809 0.606337L8.08085 7.60634L9 8.00026ZM6.00894 15.5003V14.5003H6V15.5003V16.5003H6.00894V15.5003ZM10 17.0003V16.0003H9.99106V17.0003V18.0003H10V17.0003ZM9.01124 13.0003V12.0003H9.00229V13.0003V14.0003H9.01124V13.0003ZM2.12786 8.81452L3.11576 8.65939C3.05996 8.30408 3.10102 7.9403 3.23459 7.60636L2.30612 7.23497L1.37764 6.86358C1.11049 7.53146 1.02838 8.25902 1.13997 8.96964L2.12786 8.81452Z" fill="var(--stroke-0, #1C1917)"/>
</svg>
