<svg preserveAspectRatio="none" width="100%" height="100%" overflow="visible" style="display: block;" viewBox="0 0 20 20" fill="none" xmlns="http://www.w3.org/2000/svg">
<path id="Vector" d="M1 1L19 19M7 3H16C16.7956 3 17.5587 3.31607 18.1213 3.87868C18.6839 4.44129 19 5.20435 19 6V14C19.0003 14.2947 18.9572 14.5879 18.872 14.87M16.87 16.872C16.5879 16.9572 16.2947 17.0003 16 17H4C3.20435 17 2.44129 16.6839 1.87868 16.1213C1.31607 15.5587 1 14.7956 1 14V6C1 4.648 1.894 3.505 3.124 3.13M1 9H9M13 9H19M5 13H5.01M9 13H11" stroke="var(--stroke-0, #1C1917)" stroke-width="2" stroke-linecap="round" stroke-linejoin="round"/>
</svg>
