<svg preserveAspectRatio="none" width="100%" height="100%" overflow="visible" style="display: block;" viewBox="0 0 22 20" fill="none" xmlns="http://www.w3.org/2000/svg">
<path id="Vector" d="M13.3447 3.68067L14.0878 3.78173L14.0878 3.78173L13.3447 3.68067ZM14.8191 10.3186C14.5931 10.6657 14.6913 11.1303 15.0384 11.3563C15.3856 11.5823 15.8502 11.484 16.0762 11.1369L15.4476 10.7277L14.8191 10.3186ZM8.15534 3.68067L8.8985 3.57961L8.8985 3.57961L8.15534 3.68067ZM5.42383 11.1369C5.6498 11.484 6.11441 11.5823 6.46155 11.3563C6.80869 11.1303 6.90692 10.6657 6.68094 10.3186L6.05238 10.7277L5.42383 11.1369ZM15.5669 14.5147L15.1334 13.9027L15.1334 13.9027L15.5669 14.5147ZM5.93308 14.5147L5.49955 15.1268L5.49955 15.1268L5.93308 14.5147ZM12.536 17.5677L13.1606 17.9829L13.1606 17.9829L12.536 17.5677ZM12.3036 17.9173L11.679 17.502L11.679 17.502L12.3036 17.9173ZM9.19642 17.9173L8.57185 18.3325L8.57185 18.3325L9.19642 17.9173ZM8.96402 17.5677L8.33945 17.9829L8.33945 17.9829L8.96402 17.5677ZM11.7796 9.6239C11.7238 10.0343 12.0112 10.4123 12.4217 10.4681C12.8321 10.5239 13.2101 10.2364 13.2659 9.82601L12.5227 9.72495L11.7796 9.6239ZM8.23412 9.82601C8.28993 10.2364 8.6679 10.5239 9.07833 10.4681C9.48877 10.4123 9.77625 10.0343 9.72044 9.6239L8.97728 9.72495L8.23412 9.82601ZM6.9925 15.2826L7.46174 14.6976L7.46174 14.6976L6.9925 15.2826ZM8.37352 16.7052L8.97223 16.2535L8.97223 16.2535L8.37352 16.7052ZM14.5075 15.2826L14.0383 14.6976L14.0383 14.6976L14.5075 15.2826ZM13.1265 16.7052L12.5278 16.2534L12.5278 16.2534L13.1265 16.7052ZM15.9912 17.5442L16.7266 17.6913L16.7266 17.6913L15.9912 17.5442ZM17.4854 13.8971C17.5667 13.4909 17.3033 13.0958 16.8971 13.0146C16.4909 12.9333 16.0958 13.1967 16.0146 13.6029L16.75 13.75L17.4854 13.8971ZM5.50883 17.5442L4.7734 17.6913L4.7734 17.6913L5.50883 17.5442ZM5.48544 13.6029C5.4042 13.1967 5.00908 12.9333 4.60291 13.0146C4.19674 13.0958 3.93333 13.4909 4.01456 13.8971L4.75 13.75L5.48544 13.6029ZM13.2957 2.70548L12.5669 2.88215C12.6201 3.10173 12.6345 3.33662 12.6015 3.57962L13.3447 3.68067L14.0878 3.78173C14.1464 3.35081 14.1213 2.92756 14.0246 2.5288L13.2957 2.70548ZM17.75 4.70915L17.6259 5.44881C18.0082 5.51295 18.6221 5.73694 19.1265 6.18568C19.6086 6.61471 20 7.25344 20 8.22078H20.75H21.5C21.5 6.78144 20.8914 5.74824 20.1235 5.06506C19.3779 4.4016 18.4918 4.07311 17.8741 3.96949L17.75 4.70915ZM17.75 4.70915L17.0005 4.73669C17.0284 5.49587 16.7788 6.45417 16.3498 7.47725C15.9268 8.48589 15.3583 9.49027 14.8191 10.3186L15.4476 10.7277L16.0762 11.1369C16.6497 10.2558 17.2662 9.17074 17.7331 8.05735C18.1939 6.9584 18.5392 5.76209 18.4995 4.68161L17.75 4.70915ZM8.20425 2.70548L7.47536 2.5288C7.3787 2.92755 7.35358 3.35081 7.41218 3.78173L8.15534 3.68067L8.8985 3.57961C8.86546 3.33662 8.87992 3.10173 8.93315 2.88216L8.20425 2.70548ZM3.75 4.70915L3.62591 3.96949C3.00824 4.07311 2.12211 4.4016 1.37645 5.06506C0.608626 5.74824 0 6.78144 0 8.22078H0.75H1.5C1.5 7.25344 1.89137 6.61471 2.37355 6.18568C2.87788 5.73694 3.49176 5.51295 3.87408 5.44881L3.75 4.70915ZM3.75 4.70915L3.0005 4.68161C2.96079 5.76209 3.30605 6.9584 3.76692 8.05735C4.23384 9.17074 4.85028 10.2558 5.42383 11.1369L6.05238 10.7277L6.68094 10.3186C6.14175 9.49027 5.5732 8.48589 5.1502 7.47725C4.72116 6.45417 4.47159 5.49587 4.49949 4.73669L3.75 4.70915ZM20.75 8.22078H20C20 9.02055 19.5076 9.95962 18.5689 10.9947C17.6493 12.0086 16.4051 13.0019 15.1334 13.9027L15.5669 14.5147L16.0005 15.1268C17.3046 14.2029 18.6519 13.1359 19.68 12.0024C20.6888 10.8901 21.5 9.59449 21.5 8.22078H20.75ZM0.75 8.22078H0C0 9.59449 0.811217 10.8901 1.82003 12.0024C2.84806 13.1359 4.19541 14.2029 5.49955 15.1268L5.93308 14.5147L6.36661 13.9027C5.09486 13.0019 3.85067 12.0086 2.93114 10.9947C1.99238 9.95961 1.5 9.02055 1.5 8.22078H0.75ZM12.536 17.5677L11.9114 17.1525L11.679 17.502L12.3036 17.9173L12.9282 18.3325L13.1606 17.9829L12.536 17.5677ZM9.19642 17.9173L9.82099 17.502L9.5886 17.1525L8.96402 17.5677L8.33945 17.9829L8.57185 18.3325L9.19642 17.9173ZM13.3447 3.68067L12.6015 3.57961L11.7796 9.6239L12.5227 9.72495L13.2659 9.82601L14.0878 3.78173L13.3447 3.68067ZM8.15534 3.68067L7.41218 3.78173L8.23412 9.82601L8.97728 9.72495L9.72044 9.6239L8.8985 3.57961L8.15534 3.68067ZM8.20425 2.70548L8.93315 2.88216C9.37985 1.03928 12.1202 1.03928 12.5669 2.88216L13.2957 2.70548L14.0246 2.5288C13.2073 -0.842932 8.29265 -0.842932 7.47536 2.5288L8.20425 2.70548ZM13.2957 2.70548L13.8329 3.22889C14.3263 2.72252 15.0428 2.67137 15.7496 3.02197C16.4757 3.38212 16.976 4.07083 17.0005 4.73669L17.75 4.70915L18.4995 4.68161C18.4501 3.33664 17.507 2.2193 16.4162 1.67821C15.3061 1.12757 13.8325 1.08 12.7586 2.18206L13.2957 2.70548ZM8.20425 2.70548L8.74141 2.18206C7.66754 1.08 6.19386 1.12757 5.08382 1.67821C3.99303 2.2193 3.04993 3.33664 3.0005 4.68161L3.75 4.70915L4.49949 4.73669C4.52396 4.07083 5.02434 3.38212 5.75039 3.02197C6.45718 2.67137 7.17368 2.72252 7.6671 3.22889L8.20425 2.70548ZM10.75 18.75V18C10.3765 18 10.0278 17.8131 9.82099 17.502L9.19642 17.9173L8.57185 18.3325C9.05668 19.0618 9.87429 19.5 10.75 19.5V18.75ZM12.3036 17.9173L11.679 17.502C11.4722 17.8131 11.1235 18 10.75 18V18.75V19.5C11.6257 19.5 12.4433 19.0618 12.9282 18.3325L12.3036 17.9173ZM5.93308 14.5147L5.49955 15.1268C6.09309 15.5472 6.35942 15.7363 6.52326 15.8677L6.9925 15.2826L7.46174 14.6976C7.25327 14.5304 6.93736 14.307 6.36661 13.9027L5.93308 14.5147ZM8.96402 17.5677L9.5886 17.1525C9.29636 16.7129 9.13274 16.4662 8.97223 16.2535L8.37352 16.7052L7.77481 17.1569C7.90176 17.3251 8.03599 17.5265 8.33945 17.9829L8.96402 17.5677ZM6.9925 15.2826L6.52326 15.8677C7.04933 16.2896 7.36865 16.6186 7.77481 17.1569L8.37352 16.7052L8.97223 16.2535C8.49115 15.6158 8.08485 15.1973 7.46174 14.6976L6.9925 15.2826ZM15.5669 14.5147L15.1334 13.9027C14.5627 14.307 14.2467 14.5304 14.0383 14.6976L14.5075 15.2826L14.9768 15.8677C15.1406 15.7363 15.4069 15.5472 16.0005 15.1267L15.5669 14.5147ZM12.536 17.5677L13.1606 17.9829C13.464 17.5265 13.5983 17.3251 13.7252 17.1569L13.1265 16.7052L12.5278 16.2534C12.3673 16.4662 12.2036 16.7129 11.9114 17.1525L12.536 17.5677ZM14.5075 15.2826L14.0383 14.6976C13.4152 15.1973 13.0089 15.6158 12.5278 16.2534L13.1265 16.7052L13.7252 17.1569C14.1314 16.6186 14.4507 16.2896 14.9768 15.8677L14.5075 15.2826ZM15.9912 17.5442L16.7266 17.6913L17.4854 13.8971L16.75 13.75L16.0146 13.6029L15.2557 17.3971L15.9912 17.5442ZM14.5203 18.75V19.5C15.5928 19.5 16.5163 18.743 16.7266 17.6913L15.9912 17.5442L15.2557 17.3971C15.1856 17.7477 14.8778 18 14.5203 18V18.75ZM5.50883 17.5442L6.24427 17.3971L5.48544 13.6029L4.75 13.75L4.01456 13.8971L4.7734 17.6913L5.50883 17.5442ZM6.97971 18.75V18C6.6222 18 6.31438 17.7477 6.24427 17.3971L5.50883 17.5442L4.7734 17.6913C4.98374 18.743 5.90717 19.5 6.97971 19.5V18.75ZM6.97971 18.75V19.5H14.5203V18.75V18H6.97971V18.75Z" fill="var(--stroke-0, #1C1917)"/>
</svg>
