<svg preserveAspectRatio="none" width="100%" height="100%" overflow="visible" style="display: block;" viewBox="0 0 22 18" fill="none" xmlns="http://www.w3.org/2000/svg">
<path id="Vector" d="M9.75 16.75H15.9338C17.761 16.75 18.6746 16.75 19.2197 16.1244C19.7648 15.4987 19.714 14.5084 19.6125 12.5278L19.379 7.97057C19.1787 6.68848 20.75 5.67302 20.75 4.30853C20.75 2.34321 17.8392 0.75 14.5326 0.75H6.75M0.75 4.30853C0.75 2.34321 3.79311 0.75 7.25 0.75C10.7069 0.75 13.75 2.34321 13.75 4.30853C13.75 5.67302 12.1073 6.68848 12.3166 7.97057L12.5608 12.5278C12.6669 14.5084 12.72 15.4987 12.1501 16.1244C11.5803 16.75 10.6251 16.75 8.7149 16.75H5.7851C3.87486 16.75 2.91975 16.75 2.34988 16.1244C1.78001 15.4987 1.83307 14.5084 1.93919 12.5278L2.18338 7.97057C2.3927 6.68848 0.75 5.67302 0.75 4.30853Z" stroke="var(--stroke-0, #1C1917)" stroke-width="1.5"/>
</svg>
