<svg preserveAspectRatio="none" width="100%" height="100%" overflow="visible" style="display: block;" viewBox="0 0 18 18" fill="none" xmlns="http://www.w3.org/2000/svg">
<path id="Vector" d="M5.26635 0C5.40325 5.72854e-05 5.53868 0.0282221 5.66424 0.0827501C5.78981 0.137278 5.90285 0.217008 5.99635 0.317L6.07235 0.409L10.3464 6.237L16.2924 0.293C16.4723 0.113652 16.7138 0.00952652 16.9677 0.00177193C17.2217 -0.00598267 17.4691 0.0832152 17.6596 0.251249C17.8502 0.419282 17.9697 0.653552 17.9937 0.906475C18.0178 1.1594 17.9448 1.41201 17.7894 1.613L17.7064 1.707L11.5434 7.869L17.8054 16.409C17.909 16.5505 17.9737 16.7168 17.9928 16.8912C18.0119 17.0656 17.9847 17.242 17.9141 17.4026C17.8435 17.5632 17.7318 17.7024 17.5904 17.8062C17.449 17.91 17.2827 17.9748 17.1084 17.994L16.9994 18H12.7324C12.5955 17.9999 12.46 17.9718 12.3345 17.9172C12.2089 17.8627 12.0959 17.783 12.0024 17.683L11.9264 17.591L7.65035 11.762L1.70635 17.707C1.52639 17.8863 1.28492 17.9905 1.03097 17.9982C0.777017 18.006 0.529637 17.9168 0.339072 17.7488C0.148507 17.5807 0.0290454 17.3464 0.00495174 17.0935C-0.0191419 16.8406 0.0539388 16.588 0.209351 16.387L0.292351 16.293L6.45335 10.13L0.193351 1.591C0.0896601 1.44948 0.0250257 1.28317 0.00593713 1.10877C-0.0131515 0.934375 0.0139775 0.758023 0.0846002 0.597425C0.155223 0.436827 0.266854 0.297635 0.408284 0.193824C0.549715 0.0900129 0.715968 0.0252371 0.890351 0.00600004L0.999351 0H5.26635Z" fill="var(--fill-0, #1C1917)"/>
</svg>
