<svg preserveAspectRatio="none" width="100%" height="100%" overflow="visible" style="display: block;" viewBox="0 0 17 19" fill="none" xmlns="http://www.w3.org/2000/svg">
<path id="Vector" d="M7.75532 9.37296C7.92784 8.84831 7.64239 8.28314 7.11774 8.11062C6.59309 7.9381 6.02792 8.22355 5.8554 8.74819L6.80536 9.06058L7.75532 9.37296ZM5.12651 3.33224L5.00929 4.32535L6.12651 4.45722V3.33224H5.12651ZM10.1631 3.12607H9.16306V5.23958L10.7972 3.89927L10.1631 3.12607ZM14.2169 5.61538L13.2839 5.25552L13.2839 5.25552L14.2169 5.61538ZM11.8419 6.15385C11.2896 6.15385 10.8419 6.60156 10.8419 7.15385C10.8419 7.70613 11.2896 8.15385 11.8419 8.15385V7.15385V6.15385ZM10.1631 8.21563H11.1631C11.1631 7.77586 10.8758 7.38771 10.4552 7.25924C10.0346 7.13078 9.57945 7.29216 9.33373 7.65687L10.1631 8.21563ZM7.32669 8.22357C6.85539 7.93565 6.23993 8.0843 5.952 8.55559C5.66408 9.02689 5.81273 9.64236 6.28403 9.93028L6.80536 9.07692L7.32669 8.22357ZM3.0827 8.8541C3.59689 9.05566 4.17712 8.80223 4.37868 8.28804C4.58024 7.77385 4.32681 7.19361 3.81262 6.99205L3.44766 7.92308L3.0827 8.8541ZM2.55495 7.11924C2.96067 6.74453 2.98581 6.11186 2.6111 5.70614C2.23638 5.30042 1.60372 5.27528 1.198 5.64999L1.87647 6.38462L2.55495 7.11924ZM4.77893 10.1049C4.28457 9.85866 3.68421 10.0598 3.43798 10.5542C3.19176 11.0485 3.39291 11.6489 3.88726 11.8951L4.3331 11L4.77893 10.1049ZM6.41643 16.8333L5.41662 16.8529L5.41662 16.8529L6.41643 16.8333ZM13.1123 11.8951C13.6066 11.6489 13.8078 11.0485 13.5615 10.5542C13.3153 10.0598 12.715 9.85866 12.2206 10.1049L12.6664 11L13.1123 11.8951ZM10.5831 16.8333L9.58329 16.8138L9.58329 16.8138L10.5831 16.8333ZM6.80536 9.06058L5.8554 8.74819C5.63454 9.41983 4.89985 10 3.92949 10V11V12C5.67725 12 7.23855 10.9445 7.75532 9.37296L6.80536 9.06058ZM5.12651 3.33224H6.12651C6.12651 2.67728 6.73652 2 7.64478 2V1V0C5.77144 0 4.12651 1.4382 4.12651 3.33224H5.12651ZM7.64478 1V2C8.68207 2 9.16306 2.58358 9.16306 3.12607H10.1631H11.1631C11.1631 1.11956 9.38911 0 7.64478 0V1ZM14.3602 4.84615H13.3602C13.3602 4.9898 13.3335 5.12688 13.2839 5.25552L14.2169 5.61538L15.1499 5.97525C15.2859 5.62269 15.3602 5.24195 15.3602 4.84615H14.3602ZM14.2169 5.61538L13.2839 5.25552C13.0976 5.73857 12.5553 6.15385 11.8419 6.15385V7.15385V8.15385C13.3215 8.15385 14.6448 7.2848 15.1499 5.97525L14.2169 5.61538ZM11.8419 2.53846V3.53846C12.7644 3.53846 13.3602 4.20434 13.3602 4.84615H14.3602H15.3602C15.3602 2.93896 13.701 1.53846 11.8419 1.53846V2.53846ZM10.1631 3.12607L10.7972 3.89927C11.0635 3.68087 11.4276 3.53846 11.8419 3.53846V2.53846V1.53846C10.9663 1.53846 10.1537 1.84044 9.5289 2.35287L10.1631 3.12607ZM13.101 11V10C11.9794 10 11.1631 9.15119 11.1631 8.21563H10.1631H9.16306C9.16306 10.3556 10.9774 12 13.101 12V11ZM10.1631 8.21563L9.33373 7.65687C9.01404 8.13136 8.67249 8.35784 8.38106 8.43649C8.10525 8.51092 7.75623 8.48599 7.32669 8.22357L6.80536 9.07692L6.28403 9.93028C7.11362 10.4371 8.02374 10.6045 8.90214 10.3674C9.76492 10.1346 10.4726 9.54581 10.9924 8.77438L10.1631 8.21563ZM3.44766 7.92308L3.81262 6.99205C3.26321 6.77669 3.02274 6.48758 2.92114 6.25546C2.81577 6.01469 2.80964 5.72146 2.93048 5.41339C3.17387 4.79292 3.9146 4.19614 5.00929 4.32535L5.12651 3.33224L5.24373 2.33914C3.25023 2.10384 1.64557 3.21215 1.0686 4.68305C0.779262 5.42067 0.744212 6.26971 1.08895 7.05736C1.43746 7.85366 2.12614 8.47913 3.0827 8.8541L3.44766 7.92308ZM3.92949 11V10C2.96482 10 2.36624 9.49679 2.12582 8.92977C1.88351 8.3583 1.97072 7.65881 2.55495 7.11924L1.87647 6.38462L1.198 5.64999C-0.0305527 6.78464 -0.274201 8.39284 0.284503 9.71051C0.845096 11.0326 2.17941 12 3.92949 12V11ZM14.2169 5.61538L13.8749 6.5551C14.7939 6.88954 15.1238 7.70054 14.961 8.50651C14.7978 9.31392 14.1552 10 13.101 10V11V12C15.2245 12 16.594 10.5229 16.9214 8.90262C17.2491 7.28087 16.548 5.39956 14.5589 4.67567L14.2169 5.61538ZM4.3331 11L3.88726 11.8951C3.96188 11.9323 4.33684 12.2215 4.71011 13.0646C5.06667 13.87 5.38243 15.1014 5.41662 16.8529L6.41643 16.8333L7.41624 16.8138C7.37782 14.8457 7.02122 13.3444 6.53891 12.255C6.07332 11.2033 5.44292 10.4356 4.77893 10.1049L4.3331 11ZM12.6664 11L12.2206 10.1049C11.5566 10.4356 10.9262 11.2033 10.4606 12.255C9.97831 13.3444 9.62171 14.8457 9.58329 16.8138L10.5831 16.8333L11.5829 16.8529C11.6171 15.1014 11.9329 13.87 12.2894 13.0646C12.6627 12.2215 13.0377 11.9323 13.1123 11.8951L12.6664 11ZM6.41643 16.8333L5.41662 16.8529C5.42871 17.4719 5.8479 17.8468 6.09123 18.0162C6.35973 18.2032 6.67289 18.3269 6.9392 18.4104C7.47479 18.5784 8.09377 18.6667 8.49977 18.6667V17.6667V16.6667C8.3095 16.6667 7.89218 16.6132 7.53785 16.5021C7.3592 16.4461 7.264 16.3958 7.23404 16.3749C7.1789 16.3365 7.40952 16.4697 7.41624 16.8138L6.41643 16.8333ZM10.5831 16.8333L9.58329 16.8138C9.59001 16.4697 9.82063 16.3365 9.76549 16.3749C9.73553 16.3958 9.64033 16.4461 9.46168 16.5021C9.10735 16.6132 8.69003 16.6667 8.49977 16.6667V17.6667V18.6667C8.90576 18.6667 9.52474 18.5784 10.0603 18.4104C10.3266 18.3269 10.6398 18.2032 10.9083 18.0162C11.1516 17.8468 11.5708 17.4719 11.5829 16.8529L10.5831 16.8333Z" fill="var(--stroke-0, #99A1AF)"/>
</svg>
