<svg preserveAspectRatio="none" width="100%" height="100%" overflow="visible" style="display: block;" viewBox="0 0 20 22" fill="none" xmlns="http://www.w3.org/2000/svg">
<path id="Vector" d="M4.4997 1.75011C4.4997 1.33589 4.16392 1.00011 3.7497 1.00011C3.33549 1.00011 2.9997 1.33589 2.9997 1.75011H3.7497H4.4997ZM2.9997 10.7501C2.9997 11.1643 3.33549 11.5001 3.7497 11.5001C4.16392 11.5001 4.4997 11.1643 4.4997 10.7501H3.7497H2.9997ZM6.9997 1.25011C6.9997 0.835894 6.66392 0.500108 6.2497 0.500108C5.83549 0.500108 5.4997 0.835894 5.4997 1.25011H6.2497H6.9997ZM5.4997 6.25011C5.4997 6.66432 5.83549 7.00011 6.2497 7.00011C6.66392 7.00011 6.9997 6.66432 6.9997 6.25011H6.2497H5.4997ZM9.4997 0.750108C9.4997 0.335894 9.16392 0.000107765 8.7497 0.000107765C8.33549 0.000107765 7.9997 0.335894 7.9997 0.750108H8.7497H9.4997ZM7.9997 6.25011C7.9997 6.66432 8.33549 7.00011 8.7497 7.00011C9.16392 7.00011 9.4997 6.66432 9.4997 6.25011H8.7497H7.9997ZM1.63392 2.5091C1.22467 2.57304 0.94475 2.95664 1.0087 3.36589C1.07264 3.77514 1.45624 4.05506 1.86549 3.99112L1.7497 3.25011L1.63392 2.5091ZM3.86549 3.67862C4.27473 3.61467 4.55466 3.23107 4.49071 2.82183C4.42677 2.41258 4.04317 2.13265 3.63392 2.1966L3.7497 2.93761L3.86549 3.67862ZM11.1339 1.02472C10.7247 1.08867 10.4448 1.47227 10.5087 1.88152C10.5726 2.29076 10.9562 2.57069 11.3655 2.50674L11.2497 1.76573L11.1339 1.02472ZM17.8655 1.49112C18.2747 1.42717 18.5547 1.04357 18.4907 0.634325C18.4268 0.225077 18.0432 -0.0548463 17.6339 0.00909874L17.7497 0.750108L17.8655 1.49112ZM11.2029 4.40782C10.7895 4.43366 10.4753 4.78973 10.5012 5.20314C10.527 5.61655 10.8831 5.93074 11.2965 5.9049L11.2497 5.15636L11.2029 4.40782ZM17.7965 5.49865C18.2099 5.47281 18.5241 5.11673 18.4982 4.70332C18.4724 4.28992 18.1163 3.97573 17.7029 4.00157L17.7497 4.75011L17.7965 5.49865ZM1.70292 5.00157C1.28951 5.02741 0.975327 5.38348 1.00116 5.79689C1.027 6.2103 1.38308 6.52449 1.79649 6.49865L1.7497 5.75011L1.70292 5.00157ZM3.79649 6.37365C4.20989 6.34781 4.52408 5.99173 4.49824 5.57832C4.47241 5.16492 4.11633 4.85073 3.70292 4.87657L3.7497 5.62511L3.79649 6.37365ZM18.6284 12.7322L17.9005 12.5516L17.9005 12.5516L18.6284 12.7322ZM0.870987 12.7322L1.5989 12.5516L1.5989 12.5516L0.870987 12.7322ZM5.16952 19.7493L4.41952 19.7487L4.41952 19.7487L5.16952 19.7493ZM5.41927 18.136L5.95101 17.6071L5.95101 17.6071L5.41927 18.136ZM14.3299 19.7493L13.5799 19.7499L13.5799 19.7499L14.3299 19.7493ZM14.0801 18.136L13.5484 17.6071L13.5484 17.6071L14.0801 18.136ZM10.7497 10.7501H11.4997C11.4997 9.78361 12.2832 9.00011 13.2497 9.00011V8.25011V7.50011C11.4548 7.50011 9.9997 8.95518 9.9997 10.7501H10.7497ZM13.2497 8.25011V9.00011C14.2162 9.00011 14.9997 9.78361 14.9997 10.7501H15.7497H16.4997C16.4997 8.95518 15.0446 7.50011 13.2497 7.50011V8.25011ZM3.7497 1.75011H2.9997V10.7501H3.7497H4.4997V1.75011H3.7497ZM6.2497 1.25011H5.4997V6.25011H6.2497H6.9997V1.25011H6.2497ZM8.7497 0.750108H7.9997V6.25011H8.7497H9.4997V0.750108H8.7497ZM1.7497 3.25011L1.86549 3.99112L3.86549 3.67862L3.7497 2.93761L3.63392 2.1966L1.63392 2.5091L1.7497 3.25011ZM11.2497 1.76573L11.3655 2.50674L17.8655 1.49112L17.7497 0.750108L17.6339 0.00909874L11.1339 1.02472L11.2497 1.76573ZM11.2497 5.15636L11.2965 5.9049L17.7965 5.49865L17.7497 4.75011L17.7029 4.00157L11.2029 4.40782L11.2497 5.15636ZM1.7497 5.75011L1.79649 6.49865L3.79649 6.37365L3.7497 5.62511L3.70292 4.87657L1.70292 5.00157L1.7497 5.75011ZM16.8383 10.7501V10.0001H2.66115V10.7501V11.5001H16.8383V10.7501ZM6.7643 20.7501V21.5001H12.7351V20.7501V20.0001H6.7643V20.7501ZM2.66115 10.7501V10.0001C2.23966 10.0001 1.84032 10.0237 1.48884 10.1005C1.13726 10.1774 0.774097 10.3201 0.487443 10.6038C-0.122208 11.2072 -0.0621471 12.086 0.143071 12.9129L0.870987 12.7322L1.5989 12.5516C1.50833 12.1866 1.49044 11.9536 1.50347 11.8109C1.50957 11.7441 1.52152 11.7084 1.52832 11.6925C1.53414 11.6789 1.53855 11.674 1.54259 11.67C1.55311 11.6596 1.61229 11.6089 1.80913 11.5659C2.00606 11.5229 2.2812 11.5001 2.66115 11.5001V10.7501ZM16.8383 10.7501V11.5001C17.2182 11.5001 17.4933 11.5229 17.6903 11.5659C17.8871 11.6089 17.9463 11.6596 17.9568 11.67C17.9609 11.674 17.9653 11.6789 17.9711 11.6925C17.9779 11.7084 17.9898 11.7441 17.9959 11.8109C18.009 11.9536 17.9911 12.1866 17.9005 12.5516L18.6284 12.7322L19.3563 12.9129C19.5616 12.086 19.6216 11.2072 19.012 10.6038C18.7253 10.3201 18.3621 10.1774 18.0106 10.1005C17.6591 10.0237 17.2597 10.0001 16.8383 10.0001V10.7501ZM5.41927 18.136L4.88753 18.665C4.82954 18.6067 4.80994 18.5226 4.81094 18.4825C4.81107 18.4775 4.80873 18.5181 4.75879 18.6427C4.73595 18.6996 4.70938 18.7596 4.67647 18.8334C4.64566 18.9025 4.60791 18.9868 4.57364 19.0714C4.51121 19.2257 4.41974 19.474 4.41952 19.7487L5.16952 19.7493L5.91952 19.7499C5.91949 19.7819 5.91279 19.7609 5.96404 19.6343C5.98662 19.5785 6.01294 19.5195 6.04647 19.4443C6.0779 19.3738 6.11594 19.2884 6.15102 19.201C6.26147 18.9255 6.53245 18.1917 5.95101 17.6071L5.41927 18.136ZM14.0801 18.136L13.5484 17.6071C13.2803 17.8767 13.1744 18.2046 13.18 18.5218C13.1849 18.8012 13.2758 19.0493 13.3441 19.2137C13.3804 19.3011 13.4199 19.386 13.4521 19.4555C13.4866 19.5298 13.5133 19.5874 13.5361 19.6418C13.5876 19.7644 13.5799 19.7832 13.5799 19.7499L14.3299 19.7493L15.0799 19.7487C15.0797 19.4674 14.9846 19.2169 14.9191 19.0611C14.8835 18.9762 14.8443 18.8922 14.8128 18.8242C14.7789 18.7512 14.7521 18.693 14.7292 18.6379C14.6791 18.5173 14.6795 18.4833 14.6798 18.4954C14.6806 18.5454 14.6557 18.6209 14.6119 18.665L14.0801 18.136ZM12.7351 20.7501V21.5001C13.0798 21.5001 13.6249 21.4908 14.0944 21.2889C14.3466 21.1804 14.6066 21.0049 14.7993 20.7234C14.9939 20.4392 15.0802 20.105 15.0799 19.7487L14.3299 19.7493L13.5799 19.7499C13.5799 19.8073 13.5732 19.8411 13.5685 19.8578C13.5661 19.8661 13.5641 19.871 13.5631 19.8732C13.5625 19.8744 13.5621 19.8751 13.5619 19.8755C13.5618 19.8757 13.5617 19.8758 13.5617 19.8759C13.5617 19.8759 13.5616 19.8759 13.5616 19.8759C13.5616 19.8759 13.5617 19.8759 13.5617 19.8759C13.5617 19.8759 13.5617 19.8759 13.5617 19.8759C13.5617 19.8759 13.5615 19.8761 13.5612 19.8764C13.5606 19.8771 13.5588 19.8788 13.5551 19.8817C13.5476 19.8875 13.5314 19.8982 13.5018 19.9109C13.4383 19.9382 13.3399 19.9637 13.1977 19.9799C13.0578 19.9959 12.9033 20.0001 12.7351 20.0001V20.7501ZM6.7643 20.7501V20.0001C6.59612 20.0001 6.44165 19.9959 6.30167 19.9799C6.15952 19.9637 6.06115 19.9382 5.99764 19.9109C5.96802 19.8982 5.95183 19.8875 5.94428 19.8817C5.9406 19.8788 5.9388 19.8771 5.93821 19.8764C5.93788 19.8761 5.93775 19.8759 5.93774 19.8759C5.93772 19.8759 5.93773 19.8759 5.93774 19.8759C5.93775 19.8759 5.93776 19.8759 5.93776 19.8759C5.93776 19.8759 5.93774 19.8759 5.9377 19.8759C5.93766 19.8758 5.93758 19.8757 5.93748 19.8755C5.93728 19.8751 5.93689 19.8744 5.93635 19.8732C5.93531 19.871 5.93326 19.8661 5.93092 19.8578C5.92625 19.8411 5.91947 19.8073 5.91952 19.7499L5.16952 19.7493L4.41952 19.7487C4.41924 20.1051 4.50547 20.4392 4.70006 20.7234C4.89282 21.0049 5.1528 21.1804 5.40505 21.2889C5.87453 21.4908 6.41959 21.5001 6.7643 21.5001V20.7501ZM5.41927 18.136L5.95101 17.6071C5.45996 17.1135 4.9631 16.7006 4.50184 16.3263C4.03188 15.9449 3.61427 15.6153 3.22938 15.256C2.48843 14.5644 1.90825 13.798 1.5989 12.5516L0.870987 12.7322L0.143071 12.9129C0.53919 14.5089 1.3104 15.5167 2.20585 16.3526C2.63916 16.757 3.111 17.1294 3.55664 17.4911C4.01097 17.8598 4.45583 18.231 4.88753 18.665L5.41927 18.136ZM18.6284 12.7322L17.9005 12.5516C17.5912 13.798 17.011 14.5644 16.27 15.256C15.8851 15.6153 15.4675 15.9449 14.9976 16.3263C14.5363 16.7006 14.0394 17.1135 13.5484 17.6071L14.0801 18.136L14.6119 18.665C15.0436 18.231 15.4884 17.8598 15.9428 17.4911C16.3884 17.1294 16.8602 16.757 17.2936 16.3526C18.189 15.5167 18.9602 14.5089 19.3563 12.9129L18.6284 12.7322Z" fill="var(--stroke-0, #1C1917)"/>
</svg>
