<svg preserveAspectRatio="none" width="100%" height="100%" overflow="visible" style="display: block;" viewBox="0 0 20 22" fill="none" xmlns="http://www.w3.org/2000/svg">
<path id="Vector" d="M13.75 1.5C14.1642 1.5 14.5 1.16421 14.5 0.75C14.5 0.335786 14.1642 0 13.75 0V0.75V1.5ZM6.75 17.75H6C6 19.8211 7.67893 21.5 9.75 21.5V20.75V20C8.50736 20 7.5 18.9926 7.5 17.75H6.75ZM9.75 20.75V21.5C11.8211 21.5 13.5 19.8211 13.5 17.75H12.75H12C12 18.9926 10.9926 20 9.75 20V20.75ZM12.75 17.75H13.5C13.5 17.313 13.425 16.892 13.2864 16.5001L12.5793 16.75L11.8722 16.9999C11.9547 17.2336 12 17.4857 12 17.75H12.75ZM6.92071 16.75L6.21358 16.5001C6.07505 16.892 6 17.313 6 17.75H6.75H7.5C7.5 17.4857 7.54526 17.2336 7.62784 16.9999L6.92071 16.75ZM3.75 13.75H3C3 15.8211 4.67893 17.5 6.75 17.5V16.75V16C5.50736 16 4.5 14.9926 4.5 13.75H3.75ZM6.75 16.75V17.5C8.82107 17.5 10.5 15.8211 10.5 13.75H9.75H9C9 14.9926 7.99264 16 6.75 16V16.75ZM9.75 13.75H10.5C10.5 12.79 10.1383 11.9128 9.54496 11.2498L8.98611 11.75L8.42726 12.2502C8.78398 12.6488 9 13.1733 9 13.75H9.75ZM4.51389 11.75L3.95504 11.2498C3.36169 11.9128 3 12.79 3 13.75H3.75H4.5C4.5 13.1733 4.71602 12.6488 5.07274 12.2502L4.51389 11.75ZM9.75 13.75H9C9 15.8211 10.6789 17.5 12.75 17.5V16.75V16C11.5074 16 10.5 14.9926 10.5 13.75H9.75ZM12.75 16.75V17.5C14.8211 17.5 16.5 15.8211 16.5 13.75H15.75H15C15 14.9926 13.9926 16 12.75 16V16.75ZM15.75 13.75H16.5C16.5 12.79 16.1383 11.9128 15.545 11.2498L14.9861 11.75L14.4273 12.2502C14.784 12.6488 15 13.1733 15 13.75H15.75ZM10.5139 11.75L9.95504 11.2498C9.36169 11.9128 9 12.79 9 13.75H9.75H10.5C10.5 13.1733 10.716 12.6488 11.0727 12.2502L10.5139 11.75ZM12.75 8.75H12C12 10.8211 13.6789 12.5 15.75 12.5V11.75V11C14.5074 11 13.5 9.99264 13.5 8.75H12.75ZM15.75 11.75V12.5C17.8211 12.5 19.5 10.8211 19.5 8.75H18.75H18C18 9.99264 16.9926 11 15.75 11V11.75ZM18.75 8.75H19.5C19.5 6.67893 17.8211 5 15.75 5V5.75V6.5C16.9926 6.5 18 7.50736 18 8.75H18.75ZM15.75 5.75V5C13.6789 5 12 6.67893 12 8.75H12.75H13.5C13.5 7.50736 14.5074 6.5 15.75 6.5V5.75ZM6.75 8.75H6C6 10.8211 7.67893 12.5 9.75 12.5V11.75V11C8.50736 11 7.5 9.99264 7.5 8.75H6.75ZM9.75 11.75V12.5C11.8211 12.5 13.5 10.8211 13.5 8.75H12.75H12C12 9.99264 10.9926 11 9.75 11V11.75ZM12.75 8.75H13.5C13.5 6.67893 11.8211 5 9.75 5V5.75V6.5C10.9926 6.5 12 7.50736 12 8.75H12.75ZM9.75 5.75V5C7.67893 5 6 6.67893 6 8.75H6.75H7.5C7.5 7.50736 8.50736 6.5 9.75 6.5V5.75ZM0.75 8.75H0C0 10.8211 1.67893 12.5 3.75 12.5V11.75V11C2.50736 11 1.5 9.99264 1.5 8.75H0.75ZM3.75 11.75V12.5C5.82107 12.5 7.5 10.8211 7.5 8.75H6.75H6C6 9.99264 4.99264 11 3.75 11V11.75ZM6.75 8.75H7.5C7.5 6.67893 5.82107 5 3.75 5V5.75V6.5C4.99264 6.5 6 7.50736 6 8.75H6.75ZM3.75 5.75V5C1.67893 5 0 6.67893 0 8.75H0.75H1.5C1.5 7.50736 2.50736 6.5 3.75 6.5V5.75ZM9.75 5.75H10.5C10.5 5.00761 10.6831 3.89659 11.1999 2.99934C11.6952 2.13939 12.472 1.5 13.75 1.5V0.75V0C11.828 0 10.6048 1.02728 9.9001 2.25066C9.21692 3.43674 9 4.82572 9 5.75H9.75Z" fill="var(--stroke-0, #1C1917)"/>
</svg>
