<svg preserveAspectRatio="none" width="100%" height="100%" overflow="visible" style="display: block;" viewBox="0 0 22 20" fill="none" xmlns="http://www.w3.org/2000/svg">
<path id="Vector" d="M20.7502 0.750028L18.7502 3.25003L20.7502 3.94985M0.750204 0.750028L2.7502 3.25003L0.750204 3.94985M10.7502 3.41699L10.7502 5.25003M13.7502 2.97534L14.2502 4.75003M7.75015 2.97534L7.2502 4.75003M2.67893 13.4491C1.97314 14.6277 2.24656 16.2105 3.41123 16.8529C5.6094 18.0653 8.10482 18.75 10.7502 18.75C13.3955 18.75 15.891 18.0653 18.0891 16.8529C19.2538 16.2105 19.5272 14.6277 18.8214 13.4491M2.67893 13.4491C3.45464 12.1537 5.0996 11.87 6.42438 12.475C6.85297 12.6707 7.29558 12.8382 7.75015 12.9753M2.67893 13.4491L0.750204 10.75M2.67893 13.4491L0.750204 13.9498M18.8214 13.4491C18.0457 12.1537 16.4008 11.87 15.076 12.475C14.6474 12.6707 14.2048 12.8382 13.7502 12.9753M18.8214 13.4491L20.7502 13.9498M18.8214 13.417L20.7502 10.75M10.7502 13.417V15.0165M10.7502 13.417C11.7902 13.417 12.7965 13.263 13.7502 12.9753M10.7502 13.417C9.71015 13.417 8.70382 13.263 7.75015 12.9753M13.7502 12.9753L14.2502 14.4832M7.75015 12.9753L7.2502 14.4832M17.6926 6.73158C15.6132 8.02149 13.2526 8.75003 10.7502 8.75003C8.2478 8.75003 5.88723 8.02149 3.80784 6.73158C2.70611 6.04814 2.44747 4.36409 3.11511 3.11011C3.84891 1.73188 5.40498 1.43 6.65816 2.07366C7.91418 2.71878 9.29743 3.07594 10.7502 3.07594C12.203 3.07594 13.5862 2.71878 14.8422 2.07366C16.0954 1.43 17.6515 1.73189 18.3853 3.11011C19.0529 4.36409 18.7943 6.04814 17.6926 6.73158Z" stroke="var(--stroke-0, #1C1917)" stroke-width="1.5" stroke-linecap="round" stroke-linejoin="round"/>
</svg>
