<svg preserveAspectRatio="none" width="100%" height="100%" overflow="visible" style="display: block;" viewBox="0 0 16 22" fill="none" xmlns="http://www.w3.org/2000/svg">
<path id="Vector" d="M14 8L14.9879 8.15513L15.0375 7.839L14.8944 7.55279L14 8ZM12.5218 17.4136L13.5097 17.5687L13.5097 17.5687L12.5218 17.4136ZM3.47819 17.4136L4.46608 17.2585L3.47819 17.4136ZM4.41358 20.2644L3.77014 21.0299L3.77014 21.0299L4.41358 20.2644ZM11.5864 20.2644L12.2299 21.0299L12.2299 21.0299L11.5864 20.2644ZM2.89443 6.21114L2 5.76393L2 5.76393L2.89443 6.21114ZM4.18461 4.2987L4.71034 5.14935L4.71034 5.14935L4.18461 4.2987ZM1 7C0.447715 7 0 7.44772 0 8C0 8.55228 0.447715 9 1 9V8V7ZM15 9C15.5523 9 16 8.55228 16 8C16 7.44772 15.5523 7 15 7V8V9ZM7 8C7 8.55229 7.44772 9 8 9C8.55228 9 9 8.55229 9 8H8H7ZM9 1C9 0.447715 8.55228 0 8 0C7.44772 0 7 0.447715 7 1H8H9ZM5.93388 11.1057L5.64726 12.0638L5.64726 12.0638L5.93388 11.1057ZM14.2061 12.7193C14.5972 12.3294 14.5981 11.6962 14.2081 11.3051C13.8181 10.9141 13.1849 10.9132 12.7939 11.3032L13.5 12.0113L14.2061 12.7193ZM6.00781 17C6.5601 17 7.00781 16.5523 7.00781 16C7.00781 15.4477 6.5601 15 6.00781 15V16V17ZM5.99883 15C5.44655 15 4.99883 15.4477 4.99883 16C4.99883 16.5523 5.44655 17 5.99883 17V16V15ZM10.0078 19C10.5601 19 11.0078 18.5523 11.0078 18C11.0078 17.4477 10.5601 17 10.0078 17V18V19ZM9.99883 17C9.44655 17 8.99883 17.4477 8.99883 18C8.99883 18.5523 9.44655 19 9.99883 19V18V17ZM2.42932 7.14135L3.32375 7.58857L2.42932 7.14135ZM14 8L13.0121 7.84487L11.5339 17.2585L12.5218 17.4136L13.5097 17.5687L14.9879 8.15513L14 8ZM3.47819 17.4136L4.46608 17.2585L3.13681 8.79325L2.14892 8.94837L1.16103 9.1035L2.49029 17.5687L3.47819 17.4136ZM3.47819 17.4136L2.49029 17.5687C2.6107 18.3355 2.71385 19.0047 2.86834 19.5358C3.03117 20.0956 3.28168 20.6193 3.77014 21.0299L4.41358 20.2644L5.05701 19.4989C4.98356 19.4371 4.89087 19.3283 4.78874 18.9772C4.67826 18.5974 4.59466 18.0773 4.46608 17.2585L3.47819 17.4136ZM12.5218 17.4136L11.5339 17.2585C11.4053 18.0773 11.3217 18.5974 11.2113 18.9772C11.1091 19.3283 11.0164 19.4371 10.943 19.4989L11.5864 20.2644L12.2299 21.0299C12.7183 20.6193 12.9688 20.0956 13.1317 19.5358C13.2862 19.0047 13.3893 18.3355 13.5097 17.5687L12.5218 17.4136ZM4.41358 20.2644L3.77014 21.0299C4.26074 21.4422 4.99419 21.661 5.65198 21.7896C6.35788 21.9275 7.17086 21.9961 7.97039 21.9998C8.76971 22.0036 9.58861 21.9426 10.3056 21.8062C10.9786 21.6783 11.7231 21.4559 12.2299 21.0299L11.5864 20.2644L10.943 19.4989C10.8498 19.5772 10.5393 19.726 9.93204 19.8414C9.36872 19.9485 8.68192 20.0031 7.9797 19.9999C7.27769 19.9966 6.59329 19.9357 6.03551 19.8267C5.42964 19.7083 5.13312 19.5628 5.05701 19.4989L4.41358 20.2644ZM2.42932 7.14135L3.32375 7.58857L3.78885 6.65836L2.89443 6.21114L2 5.76393L1.5349 6.69414L2.42932 7.14135ZM6.47214 4V5H9.52786V4V3H6.47214V4ZM13.1056 6.21115L12.2111 6.65836L13.1056 8.44721L14 8L14.8944 7.55279L14 5.76393L13.1056 6.21115ZM9.52786 4V5C10.1498 5 10.5407 5.00123 10.8386 5.03203C11.1135 5.06045 11.2215 5.10723 11.2897 5.14935L11.8154 4.2987L12.3411 3.44805C11.926 3.19147 11.4917 3.0889 11.0443 3.04264C10.62 2.99877 10.1087 3 9.52786 3V4ZM13.1056 6.21115L14 5.76393C13.7402 5.24438 13.5127 4.78658 13.2837 4.42667C13.0422 4.04721 12.7563 3.70462 12.3411 3.44805L11.8154 4.2987L11.2897 5.14935C11.3578 5.19147 11.448 5.2672 11.5963 5.50033C11.7571 5.75301 11.933 6.10208 12.2111 6.65836L13.1056 6.21115ZM2.89443 6.21114L3.78885 6.65836C4.06699 6.10208 4.24291 5.75301 4.40369 5.50033C4.55202 5.2672 4.64218 5.19147 4.71034 5.14935L4.18461 4.2987L3.65887 3.44805C3.24373 3.70462 2.95775 4.04721 2.71631 4.42667C2.4873 4.78658 2.25978 5.24438 2 5.76393L2.89443 6.21114ZM6.47214 4V3C5.89126 3 5.38004 2.99877 4.95571 3.04264C4.50833 3.0889 4.07402 3.19147 3.65887 3.44805L4.18461 4.2987L4.71034 5.14935C4.77849 5.10723 4.88654 5.06045 5.1614 5.03203C5.4593 5.00123 5.8502 5 6.47214 5V4ZM1 8V9H15V8V7H1V8ZM8 8H9V1H8H7V8H8ZM2.5 12.0112L3.37359 12.4979C3.30828 12.6151 3.27974 12.584 3.48146 12.4629C3.64014 12.3676 3.86634 12.2625 4.13336 12.1757C4.69354 11.9937 5.25819 11.9474 5.64726 12.0638L5.93388 11.1057L6.22051 10.1477C5.28727 9.86847 4.27271 10.0276 3.5154 10.2736C3.12367 10.4009 2.75655 10.5654 2.45217 10.7481C2.19082 10.9049 1.82946 11.1601 1.62641 11.5245L2.5 12.0112ZM5.93388 11.1057L5.64726 12.0638C5.95159 12.1548 6.37482 12.3715 7.0119 12.6951C7.60247 12.9951 8.32052 13.3545 9.08134 13.6166C10.6109 14.1435 12.5699 14.3511 14.2061 12.7193L13.5 12.0113L12.7939 11.3032C11.9507 12.144 10.9531 12.146 9.73271 11.7257C9.11854 11.5141 8.51323 11.2145 7.91759 10.9119C7.36847 10.633 6.74262 10.3039 6.22051 10.1477L5.93388 11.1057ZM6.00781 16V15H5.99883V16V17H6.00781V16ZM10.0078 18V17H9.99883V18V19H10.0078V18ZM2.14892 8.94837L3.13681 8.79325C3.07224 8.38202 3.13759 7.96089 3.32375 7.58857L2.42932 7.14135L1.5349 6.69414C1.16257 7.43878 1.03188 8.28104 1.16103 9.1035L2.14892 8.94837Z" fill="var(--stroke-0, #1C1917)"/>
</svg>
