<svg preserveAspectRatio="none" width="100%" height="100%" overflow="visible" style="display: block;" viewBox="0 0 22 22" fill="none" xmlns="http://www.w3.org/2000/svg">
<path id="Vector" d="M13.25 14.25L11.75 12.75M5.75 9.75L7.25 11.25M7.75 17.75L6.75 16.75M13.75 0.75C14.2685 1.26852 14.6055 2.38331 13.7501 3.86102M20.75 7.75C20.2315 7.23148 19.1168 6.89445 17.6392 7.75M18.0282 3.47192L16.0839 5.41636M6.95026 7.82541C4.84891 9.92676 -0.61461 18.7524 1.06647 20.4335C2.74755 22.1146 11.5732 16.6511 13.6746 14.5497C15.7759 12.4484 17.0368 11.1876 13.6746 7.82541C10.3124 4.46325 9.05161 5.72406 6.95026 7.82541Z" stroke="var(--stroke-0, #1C1917)" stroke-width="1.5" stroke-linecap="round" stroke-linejoin="round"/>
</svg>
