<svg preserveAspectRatio="none" width="100%" height="100%" overflow="visible" style="display: block;" viewBox="0 0 22 20" fill="none" xmlns="http://www.w3.org/2000/svg">
<path id="Vector" d="M7.87216 4.54985C8.26746 4.42613 8.48763 4.00537 8.36391 3.61007C8.24019 3.21476 7.81943 2.9946 7.42413 3.11832L7.64814 3.83408L7.87216 4.54985ZM1.61456 8.39129L2.23896 8.80677C2.25099 8.78869 2.26222 8.7701 2.27264 8.75105L1.61456 8.39129ZM1.23407 14.9179L1.96468 14.7484C1.96145 14.7345 1.95782 14.7207 1.95381 14.707L1.23407 14.9179ZM1.55853 17.9357L0.864424 17.6516L0.182537 19.3175L1.84554 18.6287L1.55853 17.9357ZM16.2933 12.0315C16.4157 11.6358 16.1941 11.2158 15.7984 11.0934C15.4027 10.971 14.9827 11.1926 14.8603 11.5883L15.5768 11.8099L16.2933 12.0315ZM11.0465 17.8794L10.6835 17.2231C10.6644 17.2337 10.6457 17.2451 10.6276 17.2573L11.0465 17.8794ZM4.55854 18.2621L4.77177 17.5431C4.75793 17.539 4.74397 17.5353 4.72992 17.532L4.55854 18.2621ZM14.5568 1.83813L14.9113 1.17723L14.5568 1.83813ZM17.5481 4.83757L16.8864 5.19052L16.8864 5.19052L17.5481 4.83757ZM8.1114 1.48611L8.71971 1.92481L8.1114 1.48611ZM8.59296 1.12018L8.87983 1.81315L8.87983 1.81315L8.59296 1.12018ZM11.9078 8.77564L12.3878 8.19933L11.9078 8.77564ZM10.6473 7.50458L11.2272 7.02897L11.2272 7.02897L10.6473 7.50458ZM18.0066 11.3759L18.4553 11.9769L18.4553 11.9769L18.0066 11.3759ZM18.3285 10.9645L17.6472 10.6509L17.6472 10.6509L18.3285 10.9645ZM20.3262 3.28049C20.6669 3.51607 21.1341 3.43084 21.3697 3.09014C21.6052 2.74944 21.52 2.28228 21.1793 2.0467L20.7528 2.6636L20.3262 3.28049ZM15.9873 2.509C15.662 2.7655 15.6063 3.23709 15.8628 3.56233C16.1193 3.88757 16.5909 3.9433 16.9161 3.6868L16.4517 3.0979L15.9873 2.509ZM7.64814 3.83408L7.42413 3.11832C6.20929 3.49853 4.90312 4.17436 3.75547 5.01663C2.6126 5.8554 1.57745 6.89565 0.956479 8.03152L1.61456 8.39129L2.27264 8.75105C2.75382 7.87088 3.60821 6.98533 4.64297 6.2259C5.67295 5.46999 6.83249 4.87523 7.87216 4.54985L7.64814 3.83408ZM1.61456 8.39129L0.990158 7.97581C0.224469 9.12651 -0.534943 11.5482 0.514342 15.1288L1.23407 14.9179L1.95381 14.707C1.01479 11.5027 1.74569 9.54807 2.23896 8.80677L1.61456 8.39129ZM1.23407 14.9179L0.50347 15.0874C0.593017 15.4734 0.723083 16.0704 0.804189 16.6287C0.84488 16.9089 0.870791 17.1631 0.875742 17.3676C0.881385 17.6008 0.856016 17.6722 0.864424 17.6516L1.55853 17.9357L2.25263 18.2199C2.3702 17.9326 2.3816 17.5915 2.3753 17.3313C2.36832 17.0426 2.33358 16.7227 2.28861 16.4131C2.19839 15.792 2.05707 15.1467 1.96468 14.7484L1.23407 14.9179ZM15.5768 11.8099L14.8603 11.5883C14.5364 12.6354 13.9447 13.8026 13.193 14.839C12.4377 15.8805 11.5575 16.7396 10.6835 17.2231L11.0465 17.8794L11.4096 18.5356C12.5398 17.9104 13.5739 16.8688 14.4073 15.7197C15.2444 14.5655 15.9157 13.2523 16.2933 12.0315L15.5768 11.8099ZM11.0465 17.8794L10.6276 17.2573C9.89279 17.7521 7.95358 18.4866 4.77177 17.5431L4.55854 18.2621L4.3453 18.9812C7.9082 20.0377 10.3195 19.2731 11.4654 18.5015L11.0465 17.8794ZM4.55854 18.2621L4.72992 17.532C4.33386 17.439 3.692 17.2967 3.07403 17.2059C2.76601 17.1606 2.44744 17.1256 2.15968 17.1186C1.9007 17.1122 1.55931 17.1236 1.27151 17.2428L1.55853 17.9357L1.84554 18.6287C1.82285 18.638 1.89156 18.6125 2.12295 18.6181C2.32557 18.6231 2.57766 18.6491 2.8559 18.69C3.41044 18.7715 4.00347 18.9022 4.38715 18.9923L4.55854 18.2621ZM18.0066 11.3759L17.558 10.7749C17.2577 10.999 16.7618 11.0604 15.8092 10.6057C14.8759 10.1602 13.7365 9.32259 12.3878 8.19933L11.9078 8.77564L11.4278 9.35195C12.7834 10.4809 14.0465 11.4264 15.1631 11.9594C16.2604 12.4832 17.4617 12.7186 18.4553 11.9769L18.0066 11.3759ZM10.6473 7.50458L11.2272 7.02897C10.0856 5.637 9.27453 4.51809 8.85379 3.61645C8.43206 2.7127 8.49374 2.23814 8.71971 1.92481L8.1114 1.48611L7.5031 1.0474C6.80013 2.02214 6.98728 3.16379 7.4945 4.25074C8.0027 5.3398 8.92404 6.5861 10.0674 7.98018L10.6473 7.50458ZM8.59296 1.12018L8.87983 1.81315C9.83139 1.41923 11.7299 1.17271 14.2022 2.49903L14.5568 1.83813L14.9113 1.17723C12.0642 -0.350179 9.69533 -0.147892 8.30609 0.427211L8.59296 1.12018ZM17.5481 4.83757L16.8864 5.19052C18.1226 7.50834 18.1562 9.54533 17.6472 10.6509L18.3285 10.9645L19.0098 11.2782C19.7812 9.60269 19.5797 7.05302 18.2099 4.48462L17.5481 4.83757ZM14.5568 1.83813L14.2022 2.49903C15.3371 3.10785 16.2782 4.05024 16.8864 5.19052L17.5481 4.83757L18.2099 4.48462C17.4622 3.0828 16.3073 1.92611 14.9113 1.17723L14.5568 1.83813ZM8.1114 1.48611L8.71971 1.92481C8.7417 1.89433 8.78984 1.8504 8.87983 1.81315L8.59296 1.12018L8.30609 0.427211C8.01741 0.546714 7.72153 0.744524 7.5031 1.0474L8.1114 1.48611ZM11.9078 8.77564L12.3878 8.19933C11.9658 7.84793 11.5765 7.45491 11.2272 7.02897L10.6473 7.50458L10.0674 7.98018C10.4761 8.47855 10.9322 8.93916 11.4278 9.35195L11.9078 8.77564ZM18.0066 11.3759L18.4553 11.9769C18.7161 11.7822 18.8945 11.5285 19.0098 11.2782L18.3285 10.9645L17.6472 10.6509C17.6146 10.7217 17.5798 10.7586 17.558 10.7749L18.0066 11.3759ZM20.7528 2.6636L21.1793 2.0467C20.3216 1.4536 18.1589 0.796374 15.9873 2.509L16.4517 3.0979L16.9161 3.6868C18.4649 2.46536 19.891 2.97952 20.3262 3.28049L20.7528 2.6636Z" fill="var(--stroke-0, #1C1917)"/>
</svg>
