<svg preserveAspectRatio="none" width="100%" height="100%" overflow="visible" style="display: block;" viewBox="0 0 22 22" fill="none" xmlns="http://www.w3.org/2000/svg">
<path id="Vector" d="M12.7499 10.6671C14.7499 9.65871 17.2279 10.5029 18.3276 12.9358C19.9781 16.5869 16.5118 20.6326 12.7576 20.7475C12.6496 20.7508 12.5358 20.7324 12.436 20.6909C9.68904 19.5477 16.2218 15.4911 14.0818 13.2981M11.009 11.75C11.5029 9.88826 10.7204 8.00852 8.74506 8.47396C7.54888 8.7558 7.26632 9.63319 6.54296 9.70662C5.98103 9.76366 5.63431 9.12198 5.78532 8.58562C6.85901 4.77216 14.2499 4.78124 14.2499 8.75729M18.4464 12.5491C19.158 11.3272 19.6557 10.0178 20.0764 8.70847C21.6692 3.75117 20.1052 0.75 18.8028 0.75C17.5005 0.75 17.276 1.21023 16.4963 4.46395C14.7446 11.774 9.43299 12.2534 4.53149 15.031C3.77 15.4626 2.74895 15.1806 2.18743 14.9634C0.599827 14.3493 0.138187 17.5365 1.77371 17.5365C2.44844 17.5365 3.19072 17.4092 3.76858 17.8298C5.87666 19.3641 10.5569 18.7494 12.7508 17.6584" stroke="var(--stroke-0, #1C1917)" stroke-width="1.5" stroke-linecap="round"/>
</svg>
