<svg preserveAspectRatio="none" width="100%" height="100%" overflow="visible" style="display: block;" viewBox="0 0 18 22" fill="none" xmlns="http://www.w3.org/2000/svg">
<path id="Vector" d="M15.4493 9.952L15.668 10.6694L15.668 10.6694L15.4493 9.952ZM16.6862 10.9077L17.4295 11.0081L17.4295 11.0081L16.6862 10.9077ZM0.813665 10.9077L0.0704145 11.0081L0.0704167 11.0081L0.813665 10.9077ZM0.902015 9.8482L1.3996 10.4094L1.39962 10.4094L0.902015 9.8482ZM2.05049 9.952L1.83178 10.6694L1.83181 10.6694L2.05049 9.952ZM5.74993 20C5.33571 20 4.99993 20.3358 4.99993 20.75C4.99993 21.1642 5.33571 21.5 5.74993 21.5V20.75V20ZM11.7499 21.5C12.1641 21.5 12.4999 21.1642 12.4999 20.75C12.4999 20.3358 12.1641 20 11.7499 20V20.75V21.5ZM4.55146 3.98011C4.67855 3.58587 4.46198 3.16326 4.06774 3.03617C3.6735 2.90909 3.25089 3.12566 3.12381 3.51989L3.83764 3.75L4.55146 3.98011ZM6.84663 5.97833L6.98828 6.71483L6.98828 6.71483L6.84663 5.97833ZM10.2961 6.64178L10.4484 5.9074L10.4484 5.9074L10.2961 6.64178ZM14.4999 4.72439C14.4999 4.31018 14.1641 3.97439 13.7499 3.97439C13.3357 3.97439 12.9999 4.31018 12.9999 4.72439H13.7499H14.4999ZM1.00672 7.6529C0.937005 8.0612 1.21149 8.44871 1.61979 8.51842C2.0281 8.58813 2.41561 8.31365 2.48532 7.90534L1.74602 7.77912L1.00672 7.6529ZM7.42238 2.47197C7.82516 2.3753 8.07331 1.97042 7.97664 1.56765C7.87998 1.16487 7.4751 0.91672 7.07232 1.01338L7.24735 1.74268L7.42238 2.47197ZM15.0404 7.90972C15.1281 8.31453 15.5274 8.57156 15.9323 8.4838C16.3371 8.39605 16.5941 7.99675 16.5063 7.59194L15.7734 7.75083L15.0404 7.90972ZM10.4605 1.03128C10.0571 0.9373 9.6539 1.18815 9.55993 1.59156C9.46595 1.99497 9.7168 2.39818 10.1202 2.49216L10.2904 1.76172L10.4605 1.03128ZM8.74993 10.9034V11.6534C11.2461 11.6534 13.6027 11.299 15.668 10.6694L15.4493 9.952L15.2306 9.23459C13.3159 9.81824 11.1074 10.1534 8.74993 10.1534V10.9034ZM15.4493 9.952L15.668 10.6694C15.8281 10.6206 15.954 10.5823 16.0621 10.5528C16.1713 10.523 16.2394 10.5086 16.2829 10.5027C16.3269 10.4967 16.314 10.504 16.2708 10.4953C16.2151 10.484 16.1517 10.455 16.1002 10.4093L16.5978 9.8482L17.0954 9.28706C16.7582 8.98802 16.3649 8.97762 16.0802 9.01647C15.8231 9.05153 15.5188 9.14675 15.2306 9.23459L15.4493 9.952ZM16.5978 9.8482L16.1002 10.4093C16.0627 10.3761 16.0297 10.3293 16.0106 10.28C15.9949 10.2395 15.9984 10.2223 15.9996 10.2548C16.0008 10.2885 15.9989 10.3459 15.9887 10.4447C15.9786 10.5428 15.9632 10.6578 15.943 10.8073L16.6862 10.9077L17.4295 11.0081C17.4652 10.7435 17.5076 10.4488 17.4986 10.2004C17.4881 9.91007 17.4052 9.56173 17.0954 9.28706L16.5978 9.8482ZM16.6862 10.9077L15.943 10.8073C15.4808 14.2277 12.4161 17 8.74993 17V17.75V18.5C13.1669 18.5 16.8668 15.1725 17.4295 11.0081L16.6862 10.9077ZM8.74993 17.75V17C5.0837 17 2.01899 14.2277 1.55691 10.8073L0.813665 10.9077L0.0704167 11.0081C0.633017 15.1725 4.33289 18.5 8.74993 18.5V17.75ZM0.813665 10.9077L1.55692 10.8073C1.53671 10.6577 1.52127 10.5428 1.51117 10.4447C1.50099 10.3458 1.49902 10.2884 1.50024 10.2547C1.50141 10.2222 1.50491 10.2395 1.48922 10.28C1.4701 10.3293 1.43714 10.3761 1.3996 10.4094L0.902015 9.8482L0.404427 9.28704C0.0946322 9.56173 0.0117231 9.91013 0.00121903 10.2005C-0.00776587 10.4489 0.0346866 10.7436 0.0704145 11.0081L0.813665 10.9077ZM0.902015 9.8482L1.39962 10.4094C1.34815 10.455 1.28473 10.484 1.22904 10.4953C1.18582 10.504 1.17294 10.4967 1.21695 10.5027C1.26046 10.5086 1.3285 10.523 1.43769 10.5528C1.54581 10.5823 1.67166 10.6206 1.83178 10.6694L2.05049 9.952L2.26919 9.2346C1.98104 9.14675 1.67674 9.05154 1.4197 9.01647C1.13491 8.97762 0.741629 8.98802 0.404413 9.28705L0.902015 9.8482ZM2.05049 9.952L1.83181 10.6694C3.89715 11.299 6.2538 11.6534 8.74993 11.6534V10.9034V10.1534C6.39253 10.1534 4.18396 9.81824 2.26916 9.23459L2.05049 9.952ZM10.2499 2.25H9.49993C9.49993 2.66421 9.16412 3 8.74993 3V3.75V4.5C9.99253 4.5 10.9999 3.49265 10.9999 2.25H10.2499ZM8.74993 3.75V3C8.33573 3 7.99993 2.66421 7.99993 2.25H7.24993H6.49993C6.49993 3.49265 7.50732 4.5 8.74993 4.5V3.75ZM7.24993 2.25H7.99993C7.99993 1.83579 8.33573 1.5 8.74993 1.5V0.75V0C7.50732 0 6.49993 1.00735 6.49993 2.25H7.24993ZM8.74993 0.75V1.5C9.16412 1.5 9.49993 1.83579 9.49993 2.25H10.2499H10.9999C10.9999 1.00735 9.99253 0 8.74993 0V0.75ZM8.74993 17.75H7.99993V20.75H8.74993H9.49993V17.75H8.74993ZM8.74993 20.75V20H5.74993V20.75V21.5H8.74993V20.75ZM8.74993 20.75V21.5H11.7499V20.75V20H8.74993V20.75ZM3.83764 3.75L3.12381 3.51989C2.78268 4.57814 3.16985 5.55612 3.96779 6.1556C4.73494 6.73195 5.83273 6.93708 6.98828 6.71483L6.84663 5.97833L6.70497 5.24183C5.86807 5.40279 5.22579 5.22456 4.86877 4.95633C4.54254 4.71124 4.42144 4.38345 4.55146 3.98011L3.83764 3.75ZM6.84663 5.97833L6.98828 6.71483C7.39354 6.63688 7.62397 6.62114 7.77473 6.62879C7.90621 6.63546 8.00001 6.66055 8.13817 6.71584C8.47115 6.8491 8.99123 7.1372 10.1439 7.37616L10.2961 6.64178L10.4484 5.9074C9.46422 5.70336 9.1219 5.49387 8.6955 5.32323C8.45397 5.22657 8.19385 5.14812 7.85073 5.13072C7.52689 5.11429 7.16206 5.15392 6.70497 5.24183L6.84663 5.97833ZM10.2961 6.64178L10.1439 7.37616C11.5549 7.66871 12.6548 7.42295 13.4174 6.83811C14.1608 6.26803 14.4999 5.43518 14.4999 4.72439H13.7499H12.9999C12.9999 4.988 12.8628 5.37315 12.5047 5.64781C12.1657 5.90772 11.5387 6.13345 10.4484 5.9074L10.2961 6.64178ZM1.74602 7.77912L2.48532 7.90534C2.75989 6.29719 4.09109 3.27147 7.42238 2.47197L7.24735 1.74268L7.07232 1.01338C2.91156 2.01196 1.33152 5.75049 1.00672 7.6529L1.74602 7.77912ZM15.7734 7.75083L16.5063 7.59194C16.3259 6.75978 15.8469 5.37903 14.9102 4.07949C13.9672 2.77116 12.536 1.51478 10.4605 1.03128L10.2904 1.76172L10.1202 2.49216C11.7563 2.87328 12.904 3.86148 13.6933 4.95656C14.489 6.06043 14.8956 7.24192 15.0404 7.90972L15.7734 7.75083Z" fill="var(--stroke-0, #1C1917)"/>
</svg>
