<svg preserveAspectRatio="none" width="100%" height="100%" overflow="visible" style="display: block;" viewBox="0 0 22 22" fill="none" xmlns="http://www.w3.org/2000/svg">
<path id="Vector" d="M9.25 3.7499C4.55558 3.7499 0.75 7.55548 0.75 12.2499C0.75 16.9443 4.55558 20.7499 9.25 20.7499C13.9444 20.7499 17.75 16.9443 17.75 12.2499C17.75 11.7805 17.3656 11.391 16.9054 11.4838C14.9628 11.8755 13.5 13.5919 13.5 15.6499M9.25 3.7499H16.05C16.9889 3.7499 17.7718 4.52284 17.5402 5.4327C16.7913 8.37431 14.1247 10.5499 10.95 10.5499H9.25C7.84167 10.5499 6.7 11.6916 6.7 13.0999C6.7 14.5082 7.84167 15.6499 9.25 15.6499H13.5M9.25 3.7499V7.1499M13.5 15.6499V16.4999M4.15 19.0499L7.55 15.6499M2.025 7.9999L6.7 11.8249M12.25 6.7499H12.241M7.75 0.75H18.9108C20.071 0.75 20.9412 1.80108 20.7137 2.92765C20.4189 4.38726 19.0933 5.42831 17.6689 5.75" stroke="var(--stroke-0, #1C1917)" stroke-width="1.5" stroke-linecap="round" stroke-linejoin="round"/>
</svg>
