<svg preserveAspectRatio="none" width="100%" height="100%" overflow="visible" style="display: block;" viewBox="0 0 22 20" fill="none" xmlns="http://www.w3.org/2000/svg">
<path id="Vector" d="M12.25 6.25009L20.75 0.750089M6.75 14.7501L20.75 6.75009M14.3025 10.4476C14.0487 9.8189 13.6993 9.21102 13.2714 8.65284C11.3303 6.32483 10.7706 4.55246 10.7671 3.75009C10.7082 5.35737 8.74859 6.22744 7.762 4.75009C6.77541 6.22744 4.81578 5.35737 4.75686 3.75009C4.75336 4.55246 4.19368 6.32483 2.25257 8.65284C1.31153 9.88054 0.75 11.3486 0.75 12.7501C0.75 16.0638 3.88938 18.7501 7.762 18.7501C11.4378 18.7501 14.4531 16.3299 14.75 13.2501M6.25 8.25009L5.75 9.25009M9.25 8.25009L9.75 9.25009" stroke="var(--stroke-0, #1C1917)" stroke-width="1.5" stroke-linecap="round" stroke-linejoin="round"/>
</svg>
