<svg preserveAspectRatio="none" width="100%" height="100%" overflow="visible" style="display: block;" viewBox="0 0 22 22" fill="none" xmlns="http://www.w3.org/2000/svg">
<path id="Vector" d="M17.0051 8.75284C17.0051 9.16706 17.3409 9.50284 17.7551 9.50284C18.1693 9.50284 18.5051 9.16706 18.5051 8.75284H17.7551H17.0051ZM7.96875 8.75284C7.96875 9.16706 8.30454 9.50284 8.71875 9.50284C9.13296 9.50284 9.46875 9.16706 9.46875 8.75284H8.71875H7.96875ZM12.4884 7.75232C12.4884 8.16653 12.8241 8.50232 13.2384 8.50232C13.6526 8.50232 13.9884 8.16653 13.9884 7.75232H13.2384H12.4884ZM13.9884 6.25179C13.9884 5.83757 13.6526 5.50179 13.2384 5.50179C12.8241 5.50179 12.4884 5.83757 12.4884 6.25179H13.2384H13.9884ZM5.40067 15.6506L5.9931 15.1907L5.9931 15.1907L5.40067 15.6506ZM0.917875 9.87622L0.325442 10.3361L0.325443 10.3361L0.917875 9.87622ZM0.923749 8.88949L1.51068 9.35641L1.51068 9.35641L0.923749 8.88949ZM1.55366 8.09767L0.966734 7.63075L0.966733 7.63075L1.55366 8.09767ZM2.59206 7.90595L2.97283 7.2598L2.97283 7.2598L2.59206 7.90595ZM6.56637 10.248L6.94714 9.60182L6.94714 9.60182L6.56637 10.248ZM7.19444 10.1778L7.68508 10.745L7.68508 10.745L7.19444 10.1778ZM18.9319 10.1109L19.4387 9.55804L19.4387 9.55804L18.9319 10.1109ZM20.7425 15.4616L19.9926 15.4453L19.9926 15.4454L20.7425 15.4616ZM20.682 18.2531L21.4319 18.2693L21.4319 18.2693L20.682 18.2531ZM5.55321 18.2073L6.30267 18.1791L6.30267 18.1791L5.55321 18.2073ZM5.46341 15.823L6.21288 15.7948L6.21288 15.7948L5.46341 15.823ZM7.21537 20.0101L7.39813 19.2827L7.39813 19.2827L7.21537 20.0101ZM6.96782 19.9479L6.78507 20.6753L6.78507 20.6753L6.96782 19.9479ZM19.3395 19.9497L19.5295 20.6752L19.5295 20.6752L19.3395 19.9497ZM17.7551 8.75284H18.5051V5.2516H17.7551H17.0051V8.75284H17.7551ZM17.7551 5.2516H18.5051C18.5051 2.34863 16.1439 0 13.2369 0V0.75V1.5C15.3207 1.5 17.0051 3.18224 17.0051 5.2516H17.7551ZM13.2369 0.75V0C10.33 0 7.96875 2.34863 7.96875 5.2516H8.71875H9.46875C9.46875 3.18224 11.1532 1.5 13.2369 1.5V0.75ZM8.71875 5.2516H7.96875V8.75284H8.71875H9.46875V5.2516H8.71875ZM13.2384 7.75232H13.9884V6.25179H13.2384H12.4884V7.75232H13.2384ZM5.40067 15.6506L5.9931 15.1907L1.51031 9.4163L0.917875 9.87622L0.325443 10.3361L4.80823 16.1106L5.40067 15.6506ZM0.923749 8.88949L1.51068 9.35641L2.1406 8.56459L1.55366 8.09767L0.966733 7.63075L0.336818 8.42258L0.923749 8.88949ZM2.59206 7.90595L2.21129 8.5521L6.1856 10.8941L6.56637 10.248L6.94714 9.60182L2.97283 7.2598L2.59206 7.90595ZM7.19444 10.1778L7.68508 10.745C8.33061 10.1867 9.86966 9.2215 13.2852 9.2215V8.4715V7.7215C9.55587 7.7215 7.65519 8.78762 6.70381 9.6105L7.19444 10.1778ZM13.2852 8.4715V9.2215C15.3127 9.2215 17.2046 9.5448 18.425 10.6637L18.9319 10.1109L19.4387 9.55804C17.7762 8.03386 15.3777 7.7215 13.2852 7.7215V8.4715ZM18.9319 10.1109L18.425 10.6637C18.7679 10.9781 19.1206 11.2354 19.4313 11.8598C19.746 12.4924 20.0337 13.5567 19.9926 15.4453L20.7425 15.4616L21.4923 15.4779C21.5367 13.4341 21.2305 12.1085 20.7742 11.1916C20.314 10.2666 19.7186 9.81468 19.4387 9.55804L18.9319 10.1109ZM20.7425 15.4616L19.9926 15.4454L19.9322 18.2369L20.682 18.2531L21.4319 18.2693L21.4923 15.4778L20.7425 15.4616ZM5.55321 18.2073L6.30267 18.1791L6.21288 15.7948L5.46341 15.823L4.71394 15.8512L4.80374 18.2355L5.55321 18.2073ZM7.21537 20.0101L7.39813 19.2827L7.15058 19.2205L6.96782 19.9479L6.78507 20.6753L7.03262 20.7375L7.21537 20.0101ZM19.3395 19.9497L19.1495 19.2241C15.3002 20.2322 11.2573 20.2523 7.39813 19.2827L7.21537 20.0101L7.03262 20.7375C11.1367 21.7686 15.436 21.7472 19.5295 20.6752L19.3395 19.9497ZM5.55321 18.2073L4.80374 18.2355C4.84756 19.3991 5.65615 20.3917 6.78507 20.6753L6.96782 19.9479L7.15058 19.2205C6.66509 19.0985 6.32128 18.6732 6.30267 18.1791L5.55321 18.2073ZM6.56637 10.248L6.1856 10.8941C6.69394 11.1937 7.2949 11.0825 7.68508 10.745L7.19444 10.1778L6.70381 9.6105C6.74336 9.57628 6.83844 9.53776 6.94714 9.60182L6.56637 10.248ZM20.682 18.2531L19.9322 18.2369C19.9222 18.701 19.6044 19.105 19.1495 19.2241L19.3395 19.9497L19.5295 20.6752C20.6294 20.3872 21.4073 19.4066 21.4319 18.2693L20.682 18.2531ZM1.55366 8.09767L2.1406 8.56459C2.15673 8.5443 2.18721 8.53791 2.21129 8.5521L2.59206 7.90595L2.97283 7.2598C2.30575 6.86669 1.44938 7.02405 0.966734 7.63075L1.55366 8.09767ZM0.917875 9.87622L1.51031 9.4163C1.49644 9.39844 1.49657 9.37415 1.51068 9.35641L0.923749 8.88949L0.336818 8.42258C-0.107979 8.9817 -0.112702 9.77175 0.325442 10.3361L0.917875 9.87622ZM5.40067 15.6506L4.80823 16.1105C4.75061 16.0363 4.7175 15.9457 4.71394 15.8512L5.46341 15.823L6.21288 15.7948C6.20461 15.5752 6.12761 15.364 5.9931 15.1907L5.40067 15.6506Z" fill="var(--stroke-0, #1C1917)"/>
</svg>
