<svg preserveAspectRatio="none" width="100%" height="100%" overflow="visible" style="display: block;" viewBox="0 0 18 22" fill="none" xmlns="http://www.w3.org/2000/svg">
<path id="Vector" d="M8.75 0.75V0C8.33579 0 8 0.335786 8 0.75L8.75 0.75ZM11.5767 4.75741L10.8702 4.50561L10.8702 4.50561L11.5767 4.75741ZM1 11.75C1 12.1642 1.33579 12.5 1.75 12.5C2.16421 12.5 2.5 12.1642 2.5 11.75H1.75H1ZM13.4346 7.82847L12.8033 7.4235L12.8033 7.4235L13.4346 7.82847ZM11.8748 8.21952C11.5162 8.42672 11.3934 8.88544 11.6006 9.24411C11.8078 9.60278 12.2665 9.72557 12.6252 9.51838L12.25 8.86895L11.8748 8.21952ZM12 13.6987C12 14.1129 12.3358 14.4487 12.75 14.4487C13.1642 14.4487 13.5 14.1129 13.5 13.6987H12.75H12ZM8 13.6987C8 14.1129 8.33579 14.4487 8.75 14.4487C9.16421 14.4487 9.5 14.1129 9.5 13.6987H8.75H8ZM4 13.6987C4 14.1129 4.33579 14.4487 4.75 14.4487C5.16421 14.4487 5.5 14.1129 5.5 13.6987H4.75H4ZM15.4084 17.409L14.7366 17.0755L14.7366 17.0755L15.4084 17.409ZM2.09164 17.409L2.76344 17.0755L2.09164 17.409ZM13.4731 20.2987L13.0767 19.662L13.0767 19.662L13.4731 20.2987ZM4.63457 7.92584L4.42853 7.20469C2.39914 7.78452 1 9.6394 1 11.75H1.75H2.5C2.5 10.3091 3.45518 9.04282 4.84061 8.64698L4.63457 7.92584ZM12.25 8.86895L12.6252 9.51838C13.1321 9.22553 13.6991 8.80517 14.0659 8.23344L13.4346 7.82847L12.8033 7.4235C12.6226 7.70517 12.2903 7.97951 11.8748 8.21952L12.25 8.86895ZM15.75 11.75H16.5C16.5 10.8633 16.4104 9.86293 16.0048 9.00127C15.5785 8.09564 14.8194 7.38153 13.6051 7.0981L13.4346 7.82847L13.2641 8.55884C14.007 8.73224 14.4055 9.12574 14.6477 9.6401C14.9105 10.1984 15 10.9305 15 11.75H15.75ZM11.5767 4.75741L12.2831 5.00921C13.1311 2.63006 11.3214 0 8.75 0V0.75V1.5C10.2723 1.5 11.3742 3.09165 10.8702 4.50561L11.5767 4.75741ZM13.4346 7.82847L14.0659 8.23344C15.2553 6.37941 13.7715 3.81622 11.5125 4.01016L11.5767 4.75741L11.6408 5.50466C12.6365 5.41918 13.3332 6.59756 12.8033 7.4235L13.4346 7.82847ZM11.5767 4.75741L10.8702 4.50561C10.7406 4.8692 10.4618 5.19658 10.0141 5.49667C9.56299 5.79911 8.97994 6.0465 8.31764 6.2569C7.65873 6.46622 6.95674 6.62825 6.2786 6.77587C5.6178 6.91971 4.95134 7.05532 4.42853 7.20469L4.63457 7.92584L4.84061 8.64698C5.30302 8.51486 5.897 8.39407 6.59765 8.24155C7.28095 8.0928 8.04141 7.91852 8.77179 7.6865C9.49876 7.45556 10.2318 7.1566 10.8494 6.74263C11.4704 6.3263 12.013 5.76721 12.2831 5.00921L11.5767 4.75741ZM4.63457 7.92584H5.38457C5.38457 7.01807 5.60412 6.45042 5.89378 6.03302C6.20081 5.59059 6.61816 5.26524 7.14241 4.87189C7.63843 4.49971 8.25066 4.05325 8.71489 3.41073C9.20074 2.73828 9.5 1.89408 9.5 0.75H8.75H8C8 1.60592 7.78483 2.13672 7.49904 2.53226C7.19163 2.95774 6.775 3.27227 6.24216 3.67207C5.73755 4.0507 5.12605 4.50832 4.66144 5.17784C4.17945 5.87239 3.88457 6.74568 3.88457 7.92584H4.63457ZM10.0418 20.75V20H7.4582V20.75V21.5H10.0418V20.75ZM7.4582 20.75V20C6.54058 20 5.90945 19.9991 5.41552 19.9476C4.93914 19.898 4.65532 19.8064 4.42329 19.662L4.02691 20.2987L3.63053 20.9354C4.12346 21.2422 4.65316 21.3763 5.26014 21.4395C5.84956 21.5009 6.5716 21.5 7.4582 21.5V20.75ZM2.09164 17.409L1.41985 17.7424C1.81646 18.5415 2.1382 19.1917 2.4559 19.6947C2.78275 20.2121 3.13793 20.6287 3.63053 20.9354L4.02691 20.2987L4.42329 19.662C4.19093 19.5173 3.98192 19.3018 3.72409 18.8936C3.45711 18.471 3.1737 17.9021 2.76344 17.0755L2.09164 17.409ZM15.4084 17.409L14.7366 17.0755C14.3263 17.9021 14.0429 18.471 13.7759 18.8936C13.5181 19.3018 13.3091 19.5173 13.0767 19.662L13.4731 20.2987L13.8695 20.9354C14.3621 20.6287 14.7173 20.2121 15.0441 19.6947C15.3618 19.1917 15.6835 18.5415 16.0802 17.7424L15.4084 17.409ZM10.0418 20.75V21.5C10.9284 21.5 11.6504 21.5009 12.2399 21.4395C12.8468 21.3763 13.3765 21.2422 13.8695 20.9354L13.4731 20.2987L13.0767 19.662C12.8447 19.8064 12.5609 19.898 12.0845 19.9476C11.5906 19.9991 10.9594 20 10.0418 20V20.75ZM2.09164 17.409L2.76344 17.0755C2.44188 16.4277 2.14316 15.9144 1.88999 15.3256C1.64929 14.7658 1.5 14.2393 1.5 13.6987H0.75H0C0 14.5205 0.228406 15.2586 0.511972 15.9181C0.783053 16.5486 1.15516 17.2092 1.41985 17.7424L2.09164 17.409ZM16.75 13.6987H16C16 14.2393 15.8507 14.7658 15.61 15.3256C15.3568 15.9144 15.0581 16.4277 14.7366 17.0755L15.4084 17.409L16.0802 17.7424C16.3448 17.2092 16.7169 16.5486 16.988 15.9181C17.2716 15.2586 17.5 14.5205 17.5 13.6987H16.75ZM4.75 13.6987H5.5C5.5 12.8387 5.16084 12.1421 4.61601 11.6703C4.08641 11.2116 3.40462 11 2.75 11C2.09538 11 1.41359 11.2116 0.883987 11.6703C0.339155 12.1421 0 12.8387 0 13.6987H0.75H1.5C1.5 13.2596 1.66084 12.9818 1.86601 12.8041C2.08641 12.6132 2.40462 12.5 2.75 12.5C3.09538 12.5 3.41359 12.6132 3.63399 12.8041C3.83916 12.9818 4 13.2596 4 13.6987H4.75ZM8.75 13.6987H9.5C9.5 12.8387 9.16084 12.1421 8.61601 11.6703C8.08641 11.2116 7.40462 11 6.75 11C6.09538 11 5.41359 11.2116 4.88399 11.6703C4.33916 12.1421 4 12.8387 4 13.6987H4.75H5.5C5.5 13.2596 5.66084 12.9818 5.86601 12.8041C6.08641 12.6132 6.40462 12.5 6.75 12.5C7.09538 12.5 7.41359 12.6132 7.63399 12.8041C7.83916 12.9818 8 13.2596 8 13.6987H8.75ZM12.75 13.6987H13.5C13.5 12.8387 13.1608 12.1421 12.616 11.6703C12.0864 11.2116 11.4046 11 10.75 11C10.0954 11 9.41359 11.2116 8.88399 11.6703C8.33916 12.1421 8 12.8387 8 13.6987H8.75H9.5C9.5 13.2596 9.66084 12.9818 9.86601 12.8041C10.0864 12.6132 10.4046 12.5 10.75 12.5C11.0954 12.5 11.4136 12.6132 11.634 12.8041C11.8392 12.9818 12 13.2596 12 13.6987H12.75ZM16.75 13.6987H17.5C17.5 12.8387 17.1608 12.1421 16.616 11.6703C16.0864 11.2116 15.4046 11 14.75 11C14.0954 11 13.4136 11.2116 12.884 11.6703C12.3392 12.1421 12 12.8387 12 13.6987H12.75H13.5C13.5 13.2596 13.6608 12.9818 13.866 12.8041C14.0864 12.6132 14.4046 12.5 14.75 12.5C15.0954 12.5 15.4136 12.6132 15.634 12.8041C15.8392 12.9818 16 13.2596 16 13.6987H16.75Z" fill="var(--stroke-0, #1C1917)"/>
</svg>
