<svg preserveAspectRatio="none" width="100%" height="100%" overflow="visible" style="display: block;" viewBox="0 0 16 22" fill="none" xmlns="http://www.w3.org/2000/svg">
<path id="Vector" d="M3.25 10.75L4.07693 13.4457C5.57073 18.3152 6.31763 20.75 7.75 20.75C9.18237 20.75 9.92927 18.3152 11.4231 13.4457L12.25 10.75M8.20308 9.05812C7.46726 10.0798 6.23248 10.75 4.83333 10.75C2.57817 10.75 0.75 9.00889 0.75 6.86111C0.75 4.97776 2.15574 3.40709 4.02244 3.0489C4.66067 1.69384 6.0896 0.75 7.75 0.75C9.82186 0.75 11.5333 2.21957 11.7979 4.12393M8.20308 9.05812C8.80439 10.0683 9.94361 10.75 11.25 10.75C13.183 10.75 14.75 9.25762 14.75 7.41667C14.75 5.75322 13.4706 4.37436 11.7979 4.12393M8.20308 9.05812C7.91466 8.57357 7.75 8.01343 7.75 7.41667M11.4404 6.30556C11.6923 5.80041 11.8333 5.23533 11.8333 4.63889C11.8333 4.46431 11.8213 4.29242 11.7979 4.12393" stroke="var(--stroke-0, #1C1917)" stroke-width="1.5" stroke-linecap="round" stroke-linejoin="round"/>
</svg>
