<svg preserveAspectRatio="none" width="100%" height="100%" overflow="visible" style="display: block;" viewBox="0 0 22 22" fill="none" xmlns="http://www.w3.org/2000/svg">
<path id="Vector" d="M3.88261 6.75001C3.51977 9.94415 3.82522 14.0742 5.74986 18.75M12.7499 12.75C10.0142 14.18 7.12764 16.6545 4.74986 20.75M7.72613 7.31019C7.48099 9.30348 5.72697 10.7281 3.80843 10.4921C1.88989 10.2562 0.533334 8.44902 0.77848 6.45573C1.00042 4.65114 2.41462 1.3445 6.51787 0.750012C5.68871 3.39586 7.97128 5.3169 7.72613 7.31019ZM14.5961 17.8915C12.2704 19.4699 9.43262 18.8103 8.25772 16.4182C7.08282 14.026 8.01573 10.8073 10.3414 9.22894C12.447 7.79999 17.0553 6.32248 20.7499 10.4152C17.2877 11.9398 16.9218 16.3132 14.5961 17.8915Z" stroke="var(--stroke-0, #1C1917)" stroke-width="1.5" stroke-linecap="round" stroke-linejoin="round"/>
</svg>
