<svg preserveAspectRatio="none" width="100%" height="100%" overflow="visible" style="display: block;" viewBox="0 0 20 22" fill="none" xmlns="http://www.w3.org/2000/svg">
<path id="Vector" d="M3.78879 15.7646L3.05426 15.9161L3.05426 15.9161L3.78879 15.7646ZM5.31024 19.7789L4.84362 20.3661L4.84366 20.3661L5.31024 19.7789ZM14.1915 19.7789L14.6581 20.3661L14.6581 20.3661L14.1915 19.7789ZM15.713 15.7646L16.4475 15.9161L16.4475 15.9161L15.713 15.7646ZM9.77383 1.77673L9.26389 2.32669C9.55154 2.59341 9.99613 2.59341 10.2838 2.32669L9.77383 1.77673ZM8.8433 1.06054L9.1585 0.37999L9.1585 0.37999L8.8433 1.06054ZM4.26615 2.41204L4.91342 2.79092L4.91342 2.79091L4.26615 2.41204ZM3.75751 4.78005V5.53005C3.96625 5.53005 4.16555 5.44306 4.30748 5.28999C4.44941 5.13692 4.52112 4.93163 4.50537 4.72348L3.75751 4.78005ZM0.752728 7.58642L1.50231 7.61149L0.752728 7.58642ZM2.34217 10.5239L2.68203 9.85533L2.68203 9.85533L2.34217 10.5239ZM3.55687 10.7615L3.55687 11.5115L3.55687 11.5115L3.55687 10.7615ZM10.6557 1.06051L10.3405 0.379959L10.3405 0.379959L10.6557 1.06051ZM15.2329 2.41201L14.5856 2.79088L14.5856 2.79089L15.2329 2.41201ZM15.7976 4.7366L15.0497 4.68003C15.034 4.88817 15.1057 5.09347 15.2476 5.24653C15.3895 5.3996 15.5888 5.4866 15.7976 5.4866V4.7366ZM18.7463 7.58639L19.4959 7.56132L19.4959 7.56132L18.7463 7.58639ZM17.1568 10.5239L17.4967 11.1925L17.4967 11.1925L17.1568 10.5239ZM15.9421 10.7615L15.9421 10.0115L15.9421 10.0115L15.9421 10.7615ZM2.7539 10.7491L2.01937 10.9007L3.05426 15.9161L3.78879 15.7646L4.52331 15.613L3.48843 10.5975L2.7539 10.7491ZM3.78879 15.7646L3.05426 15.9161C3.28115 17.0157 3.46408 17.9092 3.70192 18.6059C3.94705 19.3239 4.276 19.915 4.84362 20.3661L5.31024 19.7789L5.77685 19.1917C5.5154 18.984 5.31441 18.6864 5.12148 18.1212C4.92126 17.5347 4.75801 16.7504 4.52331 15.613L3.78879 15.7646ZM5.31024 19.7789L4.84366 20.3661C5.38053 20.7927 6.17787 21.056 6.99317 21.2193C7.83389 21.3877 8.79703 21.4694 9.74877 21.4696C10.7005 21.4699 11.664 21.3887 12.5055 21.2204C13.3217 21.0572 14.12 20.7937 14.6581 20.3661L14.1915 19.7789L13.7249 19.1917C13.4725 19.3923 12.9623 19.5994 12.2113 19.7496C11.4856 19.8947 10.6231 19.9699 9.74918 19.9696C8.87525 19.9694 8.01304 19.8938 7.28781 19.7485C6.53716 19.5981 6.02796 19.3913 5.77681 19.1917L5.31024 19.7789ZM14.1915 19.7789L14.6581 20.3661C15.2257 19.915 15.5547 19.3239 15.7998 18.6059C16.0376 17.9092 16.2206 17.0157 16.4475 15.9161L15.713 15.7646L14.9784 15.613C14.7437 16.7504 14.5805 17.5347 14.3802 18.1212C14.1873 18.6864 13.9863 18.984 13.7249 19.1918L14.1915 19.7789ZM15.713 15.7646L16.4475 15.9161L17.4823 10.9007L16.7478 10.7491L16.0133 10.5976L14.9784 15.613L15.713 15.7646ZM12.7539 10.7628L12.0076 10.688L11.0076 20.6723L11.7539 20.7471L12.5002 20.8218L13.5002 10.8375L12.7539 10.7628ZM9.77383 1.77673L10.2838 1.22677C10.1413 1.09466 9.69228 0.627212 9.1585 0.37999L8.8433 1.06054L8.5281 1.74109C8.64116 1.79345 8.7675 1.88101 8.90212 1.99429C9.043 2.11283 9.14144 2.21315 9.26389 2.32669L9.77383 1.77673ZM4.26615 2.41204L3.61888 2.03317C3.18455 2.77519 2.93174 3.80677 3.00965 4.83663L3.75751 4.78005L4.50537 4.72348C4.44953 3.98519 4.63928 3.25927 4.91342 2.79092L4.26615 2.41204ZM3.75751 4.78005V4.03005C2.99478 4.03005 2.09643 4.2957 1.36675 4.86087C0.616482 5.44199 0.0438665 6.34385 0.0031467 7.56135L0.752728 7.58642L1.50231 7.61149C1.52664 6.88387 1.85175 6.38254 2.28527 6.04676C2.73938 5.69503 3.3109 5.53005 3.75751 5.53005V4.78005ZM0.752728 7.58642L0.0031467 7.56135C-0.0309963 8.58221 0.21515 9.37992 0.622762 9.99041C1.02539 10.5934 1.55164 10.9634 2.00232 11.1925L2.34217 10.5239L2.68203 9.85533C2.3891 9.70642 2.09117 9.48835 1.87025 9.15748C1.65431 8.83407 1.47754 8.35203 1.50231 7.61149L0.752728 7.58642ZM2.34217 10.5239L2.00231 11.1925C2.52998 11.4607 3.09308 11.5115 3.55687 11.5115V10.7615V10.0115C3.18424 10.0115 2.8996 9.96593 2.68203 9.85533L2.34217 10.5239ZM8.8433 1.06054L9.1585 0.37999C7.26455 -0.497192 4.70272 0.18153 3.61888 2.03317L4.26615 2.41204L4.91342 2.79091C5.57653 1.65805 7.27959 1.16284 8.5281 1.74109L8.8433 1.06054ZM9.77383 1.77673L10.2838 2.32669C10.3468 2.26824 10.4166 2.19684 10.4696 2.14343C10.5288 2.08382 10.5848 2.02826 10.6435 1.97476C10.7632 1.86564 10.8706 1.78753 10.9709 1.74106L10.6557 1.06051L10.3405 0.379959C9.80013 0.630235 9.35353 1.14365 9.26389 1.22677L9.77383 1.77673ZM15.2329 2.41201L14.5856 2.79089C14.8814 3.29632 15.1026 3.98096 15.0497 4.68003L15.7976 4.7366L16.5454 4.79317C16.6263 3.72409 16.2928 2.73808 15.8801 2.03314L15.2329 2.41201ZM15.7976 4.7366V5.4866C16.7282 5.4866 17.949 6.18543 17.9967 7.61146L18.7463 7.58639L19.4959 7.56132C19.4134 5.09711 17.2857 3.9866 15.7976 3.9866V4.7366ZM18.7463 7.58639L17.9967 7.61146C18.0215 8.352 17.8447 8.83404 17.6288 9.15745C17.4078 9.48832 17.1099 9.70639 16.817 9.8553L17.1568 10.5239L17.4967 11.1925C17.9474 10.9634 18.4736 10.5934 18.8762 9.99038C19.2839 9.37989 19.53 8.58218 19.4959 7.56132L18.7463 7.58639ZM17.1568 10.5239L16.817 9.8553C16.5994 9.9659 16.3148 10.0115 15.9421 10.0115V10.7615V11.5115C16.4059 11.5115 16.969 11.4607 17.4967 11.1925L17.1568 10.5239ZM10.6557 1.06051L10.9709 1.74106C12.2194 1.16281 13.9225 1.65802 14.5856 2.79088L15.2329 2.41201L15.8801 2.03314C14.7963 0.181499 12.2345 -0.497222 10.3405 0.379959L10.6557 1.06051ZM3.55687 10.7615L3.55687 11.5115L15.9421 11.5115L15.9421 10.7615L15.9421 10.0115L3.55687 10.0115L3.55687 10.7615Z" fill="var(--stroke-0, #1C1917)"/>
</svg>
