<svg preserveAspectRatio="none" width="100%" height="100%" overflow="visible" style="display: block;" viewBox="0 0 20 22" fill="none" xmlns="http://www.w3.org/2000/svg">
<path id="Vector" d="M10 14.9996V15.0096M10 11.9996C10.4498 12.001 10.8868 11.8507 11.2407 11.573C11.5945 11.2954 11.8444 10.9066 11.95 10.4694C12.0557 10.0323 12.0109 9.57225 11.8229 9.16367C11.6349 8.75509 11.3147 8.4218 10.914 8.21761C10.5162 8.01382 10.0611 7.95064 9.62281 8.03833C9.18452 8.12603 8.78879 8.35944 8.5 8.70061M17.875 5.26959C18.575 5.66759 19.005 6.41259 19 7.21759V14.5016C19 15.3106 18.557 16.0566 17.842 16.4496L11.092 20.7196C10.7574 20.9033 10.3818 20.9996 10 20.9996C9.61824 20.9996 9.24265 20.9033 8.908 20.7196L2.158 16.4496C1.80817 16.2584 1.51613 15.9768 1.31241 15.6341C1.1087 15.2914 1.0008 14.9003 1 14.5016V7.21659C1 6.40759 1.443 5.66259 2.158 5.26959L8.908 1.28959C9.25254 1.09963 9.63957 1 10.033 1C10.4264 1 10.8135 1.09963 11.158 1.28959L17.908 5.26959H17.875Z" stroke="var(--stroke-0, #1C1917)" stroke-width="2" stroke-linecap="round" stroke-linejoin="round"/>
</svg>
