<svg preserveAspectRatio="none" width="100%" height="100%" overflow="visible" style="display: block;" viewBox="0 0 22 22" fill="none" xmlns="http://www.w3.org/2000/svg">
<path id="Vector" d="M12.7578 9.75H12.7488M6.75781 14.75H6.74883M4.99887 8.05307C4.54205 9.08809 4.73187 10.2392 5.42285 10.6241C6.11383 11.009 7.04431 10.4819 7.50113 9.44693C7.95795 8.41191 7.76813 7.26084 7.07715 6.87594C6.38617 6.49103 5.45569 7.01805 4.99887 8.05307ZM11.9266 14.6219C11.537 15.374 11.8136 16.2649 12.5445 16.6118C13.2754 16.9587 14.1838 16.6302 14.5734 15.8781C14.963 15.126 14.6864 14.2351 13.9555 13.8882C13.2246 13.5413 12.3162 13.8698 11.9266 14.6219ZM0.75 10.75C0.75 16.2728 5.22715 20.75 10.75 20.75C16.2728 20.75 20.75 16.2728 20.75 10.75C20.75 10.5697 20.7452 10.3905 20.7358 10.2125C20.7191 9.89635 20.4012 9.69621 20.0865 9.73133C19.9761 9.74367 19.8638 9.75 19.75 9.75C18.0931 9.75 16.75 8.40685 16.75 6.75C16.75 6.52954 16.4987 6.35533 16.2953 6.44056C15.8199 6.63988 15.2978 6.75 14.75 6.75C12.5409 6.75 10.75 4.95914 10.75 2.75C10.75 2.2147 10.8552 1.70395 11.0459 1.23729C11.1374 1.01355 10.9917 0.75 10.75 0.75C5.22715 0.75 0.75 5.22715 0.75 10.75Z" stroke="var(--stroke-0, #1C1917)" stroke-width="1.5" stroke-linecap="round" stroke-linejoin="round"/>
</svg>
