<svg preserveAspectRatio="none" width="100%" height="100%" overflow="visible" style="display: block;" viewBox="0 0 22 22" fill="none" xmlns="http://www.w3.org/2000/svg">
<path id="Vector" d="M5.57519 17.7502L4.75019 20.7502M10.2502 0.750189L6.28688 15.1622M20.7502 11.2502L0.750189 16.7502M11.7502 7.75019C11.7502 8.85476 12.6456 9.75019 13.7502 9.75019C14.8548 9.75019 15.7502 8.85476 15.7502 7.75019C15.7502 6.64562 14.8548 5.75019 13.7502 5.75019C12.6456 5.75019 11.7502 6.64562 11.7502 7.75019ZM8.75019 7.75019C8.75019 10.5116 10.9888 12.7502 13.7502 12.7502C16.5116 12.7502 18.7502 10.5116 18.7502 7.75019C18.7502 4.98877 16.5116 2.75019 13.7502 2.75019C10.9888 2.75019 8.75019 4.98877 8.75019 7.75019Z" stroke="var(--stroke-0, #1C1917)" stroke-width="1.5" stroke-linecap="round" stroke-linejoin="round"/>
</svg>
