<svg preserveAspectRatio="none" width="100%" height="100%" overflow="visible" style="display: block;" viewBox="0 0 22 22" fill="none" xmlns="http://www.w3.org/2000/svg">
<path id="Vector" d="M17.4783 19.051C17.0922 19.201 16.9009 19.6357 17.051 20.0217C17.201 20.4078 17.6357 20.5991 18.0217 20.449L17.75 19.75L17.4783 19.051ZM6.78033 4.28033C7.07322 3.98744 7.07322 3.51256 6.78033 3.21967C6.48744 2.92678 6.01256 2.92678 5.71967 3.21967L6.25 3.75L6.78033 4.28033ZM4.71967 4.21967C4.42678 4.51256 4.42678 4.98744 4.71967 5.28033C5.01256 5.57322 5.48744 5.57322 5.78033 5.28033L5.25 4.75L4.71967 4.21967ZM9.78033 3.21967C9.48744 2.92678 9.01256 2.92678 8.71967 3.21967C8.42678 3.51256 8.42678 3.98744 8.71967 4.28033L9.25 3.75L9.78033 3.21967ZM9.71967 5.28033C10.0126 5.57322 10.4874 5.57322 10.7803 5.28033C11.0732 4.98744 11.0732 4.51256 10.7803 4.21967L10.25 4.75L9.71967 5.28033ZM15.8451 17.4013L15.5938 16.6946L15.5938 16.6946L15.8451 17.4013ZM11.6947 17.4026L11.9433 16.6949L11.9433 16.6949L11.6947 17.4026ZM20.75 15.5271H21.5C21.5 13.4271 20.5303 11.3119 19.1227 9.73055C17.7198 8.15443 15.7813 7 13.75 7V7.75V8.5C15.2187 8.5 16.7802 9.35499 18.0023 10.7279C19.2197 12.0955 20 13.8689 20 15.5271H20.75ZM13.75 7.75V7C11.7187 7 9.78024 8.15443 8.37729 9.73055C6.96966 11.3119 6 13.4271 6 15.5271H6.75H7.5C7.5 13.8689 8.28034 12.0955 9.49771 10.7279C10.7198 9.35499 12.2813 8.5 13.75 8.5V7.75ZM17.75 19.75L18.0217 20.449C18.9884 20.0733 19.8655 19.5084 20.5011 18.6825C21.1432 17.8482 21.5 16.7976 21.5 15.5271H20.75H20C20 16.5014 19.7325 17.2219 19.3124 17.7676C18.8859 18.3217 18.263 18.7459 17.4783 19.051L17.75 19.75ZM6.75 15.5271H6C6 16.7976 6.35676 17.8482 6.99887 18.6825C7.63452 19.5084 8.51163 20.0733 9.47826 20.449L9.75 19.75L10.0217 19.051C9.23696 18.7459 8.61406 18.3217 8.18757 17.7676C7.76754 17.2219 7.5 16.5014 7.5 15.5271H6.75ZM7.78788 0.75V0C5.73988 0 3.79061 1.1919 2.38318 2.81175C0.969745 4.43853 0 6.6099 0 8.76068H0.75H1.5C1.5 7.0403 2.28972 5.20634 3.51549 3.79556C4.74727 2.37786 6.31693 1.5 7.78788 1.5V0.75ZM14.75 7.75935L15.4918 7.6488C15.2014 5.69988 14.1828 3.80754 12.8144 2.40026C11.4516 0.998793 9.66149 0 7.78788 0V0.75V1.5C9.13075 1.5 10.5571 2.23047 11.739 3.44596C12.9152 4.65564 13.7695 6.26799 14.0082 7.86989L14.75 7.75935ZM0.75 8.76068H0C0 10.8138 0.88807 12.2552 2.26207 13.1708C3.59045 14.056 5.3205 14.4183 7.01186 14.4991L7.04768 13.75L7.08349 13.0009C5.5192 12.9261 4.1004 12.5933 3.09386 11.9226C2.13294 11.2822 1.5 10.3069 1.5 8.76068H0.75ZM6.25 3.75L5.71967 3.21967L4.71967 4.21967L5.25 4.75L5.78033 5.28033L6.78033 4.28033L6.25 3.75ZM9.25 3.75L8.71967 4.28033L9.71967 5.28033L10.25 4.75L10.7803 4.21967L9.78033 3.21967L9.25 3.75ZM17.75 15.0577H18.5C18.5 13.7883 17.899 12.5378 17.0524 11.6159C16.2088 10.6972 15.0222 10 13.75 10V10.75V11.5C14.4778 11.5 15.2912 11.9158 15.9476 12.6305C16.601 13.342 17 14.2454 17 15.0577H17.75ZM13.75 10.75V10C12.4778 10 11.2912 10.6972 10.4476 11.6159C9.60099 12.5378 9 13.7883 9 15.0577H9.75H10.5C10.5 14.2454 10.899 13.342 11.5524 12.6305C12.2088 11.9158 13.0222 11.5 13.75 11.5V10.75ZM15.8451 17.4013L16.0963 18.108C17.3061 17.6779 18.5 16.755 18.5 15.0577H17.75H17C17 15.8572 16.4985 16.373 15.5938 16.6946L15.8451 17.4013ZM15.0521 18.4382H14.3021V19.468H15.0521H15.8021V18.4382H15.0521ZM9.75 15.0577H9C9 16.7677 10.2371 17.6854 11.4461 18.1102L11.6947 17.4026L11.9433 16.6949C11.0145 16.3687 10.5 15.8473 10.5 15.0577H9.75ZM12.4881 19.468H13.2381V18.4382H12.4881H11.7381V19.468H12.4881ZM11.6947 17.4026L11.4461 18.1102C11.6601 18.1853 11.7381 18.3414 11.7381 18.4382H12.4881H13.2381C13.2381 17.5795 12.6308 16.9365 11.9433 16.6949L11.6947 17.4026ZM13.7701 20.75V20C13.4763 20 13.2381 19.7618 13.2381 19.468H12.4881H11.7381C11.7381 20.5902 12.6478 21.5 13.7701 21.5V20.75ZM15.0521 19.468H14.3021C14.3021 19.7618 14.0639 20 13.7701 20V20.75V21.5C14.8923 21.5 15.8021 20.5902 15.8021 19.468H15.0521ZM15.8451 17.4013L15.5938 16.6946C14.91 16.9377 14.3021 17.5789 14.3021 18.4382H15.0521H15.8021C15.8021 18.342 15.8798 18.1849 16.0963 18.108L15.8451 17.4013Z" fill="var(--stroke-0, #1C1917)"/>
</svg>
