<svg preserveAspectRatio="none" width="100%" height="100%" overflow="visible" style="display: block;" viewBox="0 0 18 22" fill="none" xmlns="http://www.w3.org/2000/svg">
<path id="Vector" d="M3.75015 3.74997L4.28048 3.21964C3.98759 2.92675 3.51271 2.92675 3.21982 3.21964L3.75015 3.74997ZM1.92172 5.5784L2.45205 6.10873L2.45205 6.10873L1.92172 5.5784ZM5.57858 5.5784L5.04825 6.10873L5.04825 6.10873L5.57858 5.5784ZM6.59791 6.81303L7.29082 6.52602L7.29082 6.52602L6.59791 6.81303ZM1.33594 20.1642L1.86627 19.6339L1.86627 19.6339L1.33594 20.1642ZM0.902392 6.81303L1.5953 7.10004L1.5953 7.10004L0.902392 6.81303ZM14.6685 4.25516L15.2444 3.77466L15.2444 3.77466L14.6685 4.25516ZM16.7502 6.74997H17.5002C17.5002 6.57436 17.4385 6.40431 17.326 6.26947L16.7502 6.74997ZM4.13091 1.13783L4.66091 1.66849L4.66091 1.66849L4.13091 1.13783ZM14.289 3.66782L15.0098 3.46058L15.0098 3.46057L14.289 3.66782ZM13.9989 1.28863L14.6036 0.845047L14.6036 0.845045L13.9989 1.28863ZM16.1644 20.1642L15.634 19.6339L15.634 19.6339L16.1644 20.1642ZM9.23709 12.0289L9.4293 12.7538L9.4293 12.7538L9.23709 12.0289ZM11.3527 13.4158L11.9492 12.9612L11.9492 12.9612L11.3527 13.4158ZM10.6655 12.5139L11.2621 12.0594L11.2621 12.0594L10.6655 12.5139ZM15.0869 14.4555L15.677 13.9926L15.677 13.9926L15.0869 14.4555ZM13.8069 13.8999L13.9487 14.6364L13.9487 14.6364L13.8069 13.8999ZM12.9373 14.0673L12.7955 13.3308L12.7955 13.3308L12.9373 14.0673ZM3.75015 3.74997L3.21982 3.21964L1.39139 5.04807L1.92172 5.5784L2.45205 6.10873L4.28048 4.2803L3.75015 3.74997ZM0.750151 8.40682H0.00015074V16.75H0.750151H1.50015V8.40682H0.750151ZM3.75015 3.74997L3.21982 4.2803L5.04825 6.10873L5.57858 5.5784L6.10891 5.04807L4.28048 3.21964L3.75015 3.74997ZM6.75015 8.40682H6.00015V20.75H6.75015H7.50015V8.40682H6.75015ZM4.75015 20.75V21.5H6.75015V20.75V20H4.75015V20.75ZM5.57858 5.5784L5.04825 6.10873C5.66958 6.73006 5.82313 6.90238 5.905 7.10004L6.59791 6.81303L7.29082 6.52602C7.06821 5.9886 6.6437 5.58286 6.10891 5.04807L5.57858 5.5784ZM6.75015 8.40682H7.50015C7.50015 7.65052 7.51343 7.06344 7.29082 6.52602L6.59791 6.81303L5.905 7.10004C5.98688 7.29771 6.00015 7.52813 6.00015 8.40682H6.75015ZM0.750151 16.75H0.00015074C0.00015074 17.6716 -0.00144206 18.4382 0.080062 19.0444C0.164467 19.6722 0.350137 20.239 0.805607 20.6945L1.33594 20.1642L1.86627 19.6339C1.73595 19.5035 1.62873 19.306 1.56669 18.8446C1.50174 18.3615 1.50015 17.714 1.50015 16.75H0.750151ZM4.75015 20.75V20C3.78614 20 3.13858 19.9984 2.65554 19.9334C2.19408 19.8714 1.99658 19.7642 1.86627 19.6339L1.33594 20.1642L0.805607 20.6945C1.26108 21.15 1.82788 21.3357 2.45567 21.4201C3.06189 21.5016 3.82854 21.5 4.75015 21.5V20.75ZM1.92172 5.5784L1.39139 5.04807C0.856605 5.58286 0.432089 5.9886 0.209482 6.52602L0.902392 6.81303L1.5953 7.10004C1.67718 6.90238 1.83072 6.73006 2.45205 6.10873L1.92172 5.5784ZM0.750151 8.40682H1.50015C1.50015 7.52813 1.51343 7.29771 1.5953 7.10004L0.902392 6.81303L0.209482 6.52602C-0.0131247 7.06344 0.00015074 7.65052 0.00015074 8.40682H0.750151ZM3.75015 3.75376H4.50015V3.35426H3.75015H3.00015V3.75376H3.75015ZM6.35015 0.757546V1.50755H11.9037V0.757546V0.00754613H6.35015V0.757546ZM14.6685 4.25516L14.0926 4.73565L16.1743 7.23047L16.7502 6.74997L17.326 6.26947L15.2444 3.77466L14.6685 4.25516ZM3.75015 3.35426H4.50015C4.50015 2.72098 4.50175 2.32156 4.54104 2.02967C4.57742 1.75945 4.63327 1.69609 4.66091 1.66849L4.13091 1.13783L3.60092 0.607161C3.24779 0.959841 3.11326 1.39265 3.05445 1.82955C2.99855 2.24478 3.00015 2.76344 3.00015 3.35426H3.75015ZM6.35015 0.757546V0.00754613C5.7585 0.00754613 5.23941 0.00595728 4.82389 0.0617525C4.38688 0.120432 3.95391 0.254613 3.60092 0.607162L4.13091 1.13783L4.66091 1.66849C4.68867 1.64076 4.75249 1.5848 5.02351 1.54841C5.316 1.50913 5.71615 1.50755 6.35015 1.50755V0.757546ZM14.6685 4.25516L15.2444 3.77466C15.1529 3.665 15.1044 3.61031 15.0588 3.54609C15.0199 3.49116 15.0115 3.46659 15.0098 3.46058L14.289 3.66782L13.5682 3.87506C13.6883 4.29281 13.9861 4.60801 14.0926 4.73565L14.6685 4.25516ZM13.9989 1.28863L13.3941 1.73221C13.4799 1.84919 13.5179 2.0194 13.5012 2.41995C13.488 2.7353 13.4157 3.34456 13.5682 3.87506L14.289 3.66782L15.0098 3.46057C14.945 3.23533 14.9784 2.99689 14.9999 2.48252C15.0178 2.05335 15.0194 1.41184 14.6036 0.845047L13.9989 1.28863ZM11.9037 0.757546V1.50755C12.3313 1.50755 12.6278 1.48175 12.9359 1.52454C13.2093 1.56252 13.3258 1.63907 13.3941 1.73221L13.9989 1.28863L14.6036 0.845045C14.1997 0.294419 13.6219 0.105433 13.1423 0.0388092C12.6974 -0.0229959 12.1824 0.00754613 11.9037 0.00754613V0.757546ZM6.75015 6.74997V7.49997H16.7502V6.74997V5.99997H6.75015V6.74997ZM16.7502 6.74997H16.0002V16.75H16.7502H17.5002V6.74997H16.7502ZM12.7502 20.75V20H6.75015V20.75V21.5H12.7502V20.75ZM16.7502 16.75H16.0002C16.0002 17.714 15.9986 18.3615 15.9336 18.8446C15.8716 19.306 15.7644 19.5035 15.634 19.6339L16.1644 20.1642L16.6947 20.6945C17.1502 20.239 17.3358 19.6722 17.4202 19.0444C17.5017 18.4382 17.5002 17.6716 17.5002 16.75H16.7502ZM12.7502 20.75V21.5C13.6718 21.5 14.4384 21.5016 15.0446 21.4201C15.6724 21.3357 16.2392 21.15 16.6947 20.6945L16.1644 20.1642L15.634 19.6339C15.5037 19.7642 15.3062 19.8714 14.8448 19.9334C14.3617 19.9984 13.7142 20 12.7502 20V20.75ZM9.23709 12.0289L9.04488 11.3039C8.75227 11.3815 8.33168 11.4289 7.94418 11.4026C7.51317 11.3733 7.32666 11.2678 7.29325 11.2327L6.75015 11.75L6.20705 12.2672C6.64983 12.7321 7.33501 12.8647 7.84254 12.8991C8.39356 12.9366 8.97835 12.8734 9.4293 12.7538L9.23709 12.0289ZM11.3527 13.4158L11.9492 12.9612L11.2621 12.0594L10.6655 12.5139L10.069 12.9684L10.7561 13.8703L11.3527 13.4158ZM16.7502 15.75C16.7502 15 16.7509 15 16.7516 15C16.7518 15 16.7526 15 16.7531 15C16.754 15 16.755 15 16.7559 15C16.7578 15 16.7596 15 16.7614 15.0001C16.765 15.0001 16.7685 15.0002 16.7718 15.0003C16.7785 15.0005 16.7845 15.0008 16.79 15.0012C16.801 15.0018 16.8096 15.0027 16.8158 15.0035C16.8284 15.0052 16.8312 15.0064 16.8245 15.0046C16.8117 15.0012 16.7576 14.9852 16.6658 14.9338C16.4816 14.8306 16.1379 14.5801 15.677 13.9926L15.0869 14.4555L14.4968 14.9184C15.0513 15.6253 15.5393 16.0221 15.9328 16.2425C16.1299 16.3529 16.3012 16.4178 16.4416 16.4549C16.5115 16.4734 16.5729 16.4847 16.6248 16.4913C16.6508 16.4947 16.6743 16.4968 16.6952 16.4982C16.7057 16.4988 16.7155 16.4993 16.7247 16.4996C16.7293 16.4997 16.7337 16.4998 16.7379 16.4999C16.7401 16.4999 16.7421 16.4999 16.7442 16.4999C16.7452 16.5 16.7462 16.5 16.7472 16.5C16.7477 16.5 16.7484 16.5 16.7487 16.5C16.7494 16.5 16.7502 16.5 16.7502 15.75ZM13.8069 13.8999L13.6651 13.1634L12.7955 13.3308L12.9373 14.0673L13.079 14.8038L13.9487 14.6364L13.8069 13.8999ZM15.0869 14.4555L15.677 13.9926C15.2267 13.4186 14.4894 13.0047 13.6651 13.1634L13.8069 13.8999L13.9487 14.6364C14.0812 14.6108 14.2957 14.6621 14.4968 14.9184L15.0869 14.4555ZM11.3527 13.4158L10.7561 13.8703C11.3055 14.5915 12.1805 14.9767 13.079 14.8038L12.9373 14.0673L12.7955 13.3308C12.5136 13.3851 12.1903 13.2776 11.9492 12.9612L11.3527 13.4158ZM9.23709 12.0289L9.4293 12.7538C9.67293 12.6892 9.91291 12.7636 10.069 12.9684L10.6655 12.5139L11.2621 12.0594C10.7153 11.3417 9.83814 11.0936 9.04488 11.3039L9.23709 12.0289Z" fill="var(--stroke-0, #1C1917)"/>
</svg>
