<svg preserveAspectRatio="none" width="100%" height="100%" overflow="visible" style="display: block;" viewBox="0 0 22 22" fill="none" xmlns="http://www.w3.org/2000/svg">
<path id="Vector" d="M13.7578 7.75H13.7488M0.75 20.75L7.75 13.75M20.75 8.25C20.75 12.3921 17.3921 15.75 13.25 15.75C9.10786 15.75 5.75 12.3921 5.75 8.25C5.75 4.10786 9.10786 0.75 13.25 0.75C17.3921 0.75 20.75 4.10786 20.75 8.25ZM17.75 7.75C17.75 9.95914 15.9591 11.75 13.75 11.75C11.5409 11.75 9.75 9.95914 9.75 7.75C9.75 5.54086 11.5409 3.75 13.75 3.75C15.9591 3.75 17.75 5.54086 17.75 7.75Z" stroke="var(--stroke-0, #1C1917)" stroke-width="1.5" stroke-linecap="round" stroke-linejoin="round"/>
</svg>
