<svg preserveAspectRatio="none" width="100%" height="100%" overflow="visible" style="display: block;" viewBox="0 0 22 18" fill="none" xmlns="http://www.w3.org/2000/svg">
<path id="Vector" d="M1.53354 13.0723L0.590319 12.7402L0.590319 12.7402L1.53354 13.0723ZM20.4665 13.0723L21.4097 12.7402L21.4097 12.7402L20.4665 13.0723ZM1.34852 16.159L2.15989 15.5745L2.15989 15.5745L1.34852 16.159ZM20.6515 16.159L19.8401 15.5745L19.8401 15.5745L20.6515 16.159ZM15.6438 2.64417L15.572 3.64159L15.572 3.64159L15.6438 2.64417ZM15.8478 2.65884L15.9195 1.66142L15.9195 1.66142L15.8478 2.65884ZM6.15218 2.65884L6.2239 3.65627L6.2239 3.65627L6.15218 2.65884ZM6.35624 2.64417L6.28452 1.64674L6.28452 1.64674L6.35624 2.64417ZM8.50953 1.83203L7.90048 1.0389L7.90048 1.0389L8.50953 1.83203ZM2.80765 5.80334L1.81155 5.71512L1.81155 5.71512L2.80765 5.80334ZM1.90986 7.77782L1.18331 7.0907L1.18331 7.0907L1.90986 7.77782ZM19.1924 5.80334L20.1885 5.71512L20.1885 5.71512L19.1924 5.80334ZM20.0901 7.77782L20.8167 7.0907L20.8167 7.0907L20.0901 7.77782ZM13.4905 1.83203L12.8814 2.62516L12.8814 2.62516L13.4905 1.83203ZM19.5334 11.3944C19.1989 11.8339 19.2841 12.4613 19.7236 12.7958C20.1631 13.1302 20.7905 13.0451 21.1249 12.6056L20.3292 12L19.5334 11.3944ZM0.87506 12.6056C1.20952 13.0451 1.83693 13.1302 2.27643 12.7958C2.71592 12.4613 2.80107 11.8339 2.46661 11.3944L1.67084 12L0.87506 12.6056ZM15.0078 12C15.5601 12 16.0078 11.5523 16.0078 11C16.0078 10.4477 15.5601 10 15.0078 10V11V12ZM14.9988 10C14.4465 10 13.9988 10.4477 13.9988 11C13.9988 11.5523 14.4465 12 14.9988 12V11V10ZM12.0078 14C12.5601 14 13.0078 13.5523 13.0078 13C13.0078 12.4477 12.5601 12 12.0078 12V13V14ZM11.9988 12C11.4465 12 10.9988 12.4477 10.9988 13C10.9988 13.5523 11.4465 14 11.9988 14V13V12ZM17.0078 15C17.5601 15 18.0078 14.5523 18.0078 14C18.0078 13.4477 17.5601 13 17.0078 13V14V15ZM16.9988 13C16.4465 13 15.9988 13.4477 15.9988 14C15.9988 14.5523 16.4465 15 16.9988 15V14V13ZM1.53354 13.0723L2.47675 13.4045C3.81131 9.61504 7.158 7 11 7V6V5C6.20018 5 2.16859 8.25866 0.590319 12.7402L1.53354 13.0723ZM11 6V7C14.842 7 18.1887 9.61504 19.5233 13.4045L20.4665 13.0723L21.4097 12.7402C19.8314 8.25866 15.7998 5 11 5V6ZM17.0788 17V16H4.92117V17V18H17.0788V17ZM1.53354 13.0723L0.590319 12.7402C0.341429 13.4469 0.0949236 14.1297 0.0228823 14.7456C-0.0601739 15.4556 0.078245 16.1066 0.537153 16.7436L1.34852 16.159L2.15989 15.5745C2.01293 15.3705 1.98023 15.2267 2.00934 14.9779C2.04946 14.635 2.19839 14.1949 2.47675 13.4045L1.53354 13.0723ZM4.92117 17V16C3.89382 16 3.26062 15.9961 2.80166 15.9115C2.41147 15.8395 2.27339 15.732 2.15989 15.5745L1.34852 16.159L0.537153 16.7436C1.02952 17.427 1.68884 17.74 2.43904 17.8783C3.12048 18.0039 3.97067 18 4.92117 18V17ZM20.4665 13.0723L19.5233 13.4045C19.8016 14.1949 19.9505 14.635 19.9907 14.9779C20.0198 15.2267 19.9871 15.3705 19.8401 15.5745L20.6515 16.159L21.4629 16.7436C21.9218 16.1066 22.0602 15.4556 21.9771 14.7456C21.9051 14.1297 21.6586 13.4469 21.4097 12.7402L20.4665 13.0723ZM17.0788 17V18C18.0293 18 18.8795 18.0039 19.561 17.8783C20.3112 17.74 20.9705 17.427 21.4629 16.7436L20.6515 16.159L19.8401 15.5745C19.7266 15.732 19.5885 15.8395 19.1983 15.9115C18.7394 15.9961 18.1062 16 17.0788 16V17ZM15.6438 2.64417L15.572 3.64159L15.7761 3.65627L15.8478 2.65884L15.9195 1.66142L15.7155 1.64674L15.6438 2.64417ZM6.15218 2.65884L6.2239 3.65627L6.42796 3.64159L6.35624 2.64417L6.28452 1.64674L6.08046 1.66142L6.15218 2.65884ZM6.35624 2.64417L6.42796 3.64159C7.407 3.57119 8.34838 3.2166 9.11858 2.62516L8.50953 1.83203L7.90048 1.0389C7.44598 1.38791 6.87965 1.60395 6.28452 1.64674L6.35624 2.64417ZM2.80765 5.80334L3.80375 5.89155C3.9057 4.74044 4.89652 3.75171 6.2239 3.65627L6.15218 2.65884L6.08046 1.66142C3.8515 1.8217 2.00675 3.51102 1.81155 5.71512L2.80765 5.80334ZM1.90986 7.77782L2.6364 8.46494C3.30536 7.75759 3.7187 6.85196 3.80375 5.89155L2.80765 5.80334L1.81155 5.71512C1.76709 6.21714 1.54968 6.70331 1.18331 7.0907L1.90986 7.77782ZM19.1924 5.80334L18.1963 5.89155C18.2813 6.85196 18.6946 7.75759 19.3636 8.46494L20.0901 7.77782L20.8167 7.0907C20.4503 6.70331 20.2329 6.21714 20.1885 5.71512L19.1924 5.80334ZM15.8478 2.65884L15.7761 3.65627C17.1035 3.75171 18.0943 4.74044 18.1963 5.89155L19.1924 5.80334L20.1885 5.71512C19.9933 3.51103 18.1485 1.8217 15.9195 1.66142L15.8478 2.65884ZM13.4905 1.83203L12.8814 2.62516C13.6516 3.2166 14.593 3.57119 15.572 3.64159L15.6438 2.64417L15.7155 1.64674C15.1204 1.60395 14.554 1.38791 14.0995 1.0389L13.4905 1.83203ZM13.4905 1.83203L14.0995 1.0389C12.2957 -0.3463 9.70434 -0.346299 7.90048 1.0389L8.50953 1.83203L9.11858 2.62516C10.2041 1.79161 11.7959 1.79161 12.8814 2.62516L13.4905 1.83203ZM20.0901 7.77782L19.3636 8.46494C20.1542 9.30089 20.2052 10.5117 19.5334 11.3944L20.3292 12L21.1249 12.6056C22.3893 10.9442 22.2809 8.63895 20.8167 7.0907L20.0901 7.77782ZM1.67084 12L2.46661 11.3944C1.79485 10.5117 1.84582 9.30089 2.6364 8.46494L1.90986 7.77782L1.18331 7.0907C-0.28092 8.63895 -0.389303 10.9442 0.87506 12.6056L1.67084 12ZM15.0078 11V10H14.9988V11V12H15.0078V11ZM12.0078 13V12H11.9988V13V14H12.0078V13ZM17.0078 14V13H16.9988V14V15H17.0078V14Z" fill="var(--stroke-0, #1C1917)"/>
</svg>
