<svg preserveAspectRatio="none" width="100%" height="100%" overflow="visible" style="display: block;" viewBox="0 0 20 20" fill="none" xmlns="http://www.w3.org/2000/svg">
<path id="Vector" d="M4 15C4.53043 15 5.03914 15.2107 5.41421 15.5858C5.78929 15.9609 6 16.4696 6 17C6 17.5304 5.78929 18.0391 5.41421 18.4142C5.03914 18.7893 4.53043 19 4 19C3.46957 19 2.96086 18.7893 2.58579 18.4142C2.21071 18.0391 2 17.5304 2 17C2 16.4696 2.21071 15.9609 2.58579 15.5858C2.96086 15.2107 3.46957 15 4 15ZM4 15H15C14.6044 15 14.2178 15.1173 13.8889 15.3371C13.56 15.5568 13.3036 15.8692 13.1522 16.2346C13.0009 16.6001 12.9613 17.0022 13.0384 17.3902C13.1156 17.7781 13.3061 18.1345 13.5858 18.4142C13.8655 18.6939 14.2219 18.8844 14.6098 18.9616C14.9978 19.0387 15.3999 18.9991 15.7654 18.8478C16.1308 18.6964 16.4432 18.44 16.6629 18.1111C16.8827 17.7822 17 17.3956 17 17M4 15V4M7.239 3.231L18 4L17 11H15M11 11H4M1 1L19 19" stroke="var(--stroke-0, #1C1917)" stroke-width="2" stroke-linecap="round" stroke-linejoin="round"/>
</svg>
