<svg preserveAspectRatio="none" width="100%" height="100%" overflow="visible" style="display: block;" viewBox="0 0 22 22" fill="none" xmlns="http://www.w3.org/2000/svg">
<path id="Vector" d="M13.6798 9.40906C13.2732 9.48822 13.0078 9.88198 13.087 10.2886C13.1661 10.6951 13.5599 10.9606 13.9665 10.8814L13.8231 10.1452L13.6798 9.40906ZM10.608 2.55353L11.3572 2.58875L11.3572 2.58875L10.608 2.55353ZM9.51061 0.75V0H6.94544L9.10658 1.38187L9.51061 0.75ZM14.3411 4.50202L13.6088 4.33988L13.6088 4.33988L14.3411 4.50202ZM12.187 6.02709C11.838 6.25023 11.736 6.71402 11.9591 7.06299C12.1823 7.41196 12.646 7.51397 12.995 7.29083L12.591 6.65896L12.187 6.02709ZM2.75942 14.2125C3.01485 14.5386 3.48626 14.5958 3.81234 14.3404C4.13842 14.085 4.19569 13.6136 3.94026 13.2875L3.34984 13.75L2.75942 14.2125ZM5.24945 9.07208L5.38067 9.81051L5.38067 9.81051L5.24945 9.07208ZM17.5453 13.2875C17.2898 13.6136 17.3471 14.085 17.6732 14.3404C17.9993 14.5958 18.4707 14.5386 18.7261 14.2125L18.1357 13.75L17.5453 13.2875ZM7.28789 10.2654C7.61414 10.5206 8.08551 10.463 8.34073 10.1368C8.59594 9.81055 8.53836 9.33918 8.21211 9.08397L7.75 9.67469L7.28789 10.2654ZM2.46787 13.5328C2.34793 13.1364 1.9293 12.9122 1.53283 13.0321C1.13636 13.1521 0.91219 13.5707 1.03213 13.9672L1.75 13.75L2.46787 13.5328ZM2.57811 16.4874L1.86024 16.7045L2.57811 16.4874ZM20.4679 13.9672C20.5878 13.5707 20.3636 13.1521 19.9672 13.0321C19.5707 12.9122 19.1521 13.1364 19.0321 13.5328L19.75 13.75L20.4679 13.9672ZM18.9219 16.4874L18.204 16.2702L18.204 16.2702L18.9219 16.4874ZM17.1937 20.1589L16.7466 19.5567L16.7466 19.5567L17.1937 20.1589ZM4.30635 20.1589L4.75335 19.5567L4.75335 19.5567L4.30635 20.1589ZM0.75 13C0.335786 13 0 13.3358 0 13.75C0 14.1642 0.335786 14.5 0.75 14.5V13.75V13ZM20.75 14.5C21.1642 14.5 21.5 14.1642 21.5 13.75C21.5 13.3358 21.1642 13 20.75 13V13.75V14.5ZM15.6714 9.02254L15.0809 8.56012C14.7477 8.98564 14.2542 9.29723 13.6798 9.40906L13.8231 10.1452L13.9665 10.8814C14.8956 10.7005 15.7064 10.1942 16.2618 9.48497L15.6714 9.02254ZM10.608 2.55353L11.3572 2.58875C11.4005 1.66774 10.9412 0.774519 9.91464 0.11813L9.51061 0.75L9.10658 1.38187C9.75316 1.79531 9.87312 2.21403 9.85881 2.51831L10.608 2.55353ZM9.51061 0.75V1.5C10.9239 1.5 12.0634 1.91945 12.7806 2.49413C13.4961 3.06755 13.7423 3.73692 13.6088 4.33988L14.3411 4.50202L15.0733 4.66416C15.3633 3.35473 14.7475 2.14809 13.7186 1.32359C12.6912 0.500367 11.2038 0 9.51061 0V0.75ZM14.3411 4.50202L13.6088 4.33988C13.5002 4.83038 13.1114 5.436 12.187 6.02709L12.591 6.65896L12.995 7.29083C14.1382 6.55989 14.8532 5.65862 15.0733 4.66416L14.3411 4.50202ZM3.34984 13.75L3.94026 13.2875C3.38645 12.5805 3.39968 11.8071 3.73207 11.1379C4.08181 10.4337 4.75123 9.92236 5.38067 9.81051L5.24945 9.07208L5.11823 8.33365C3.95937 8.53957 2.92075 9.39926 2.38864 10.4706C1.83918 11.5769 1.79676 12.9836 2.75942 14.2125L3.34984 13.75ZM5.24945 9.07208L5.98979 8.9521C5.80678 7.82278 6.01891 7.20236 6.31616 6.80825C6.63953 6.37953 7.15726 6.08739 7.85067 5.79906C8.47317 5.54021 9.34646 5.25253 9.99252 4.84309C10.7138 4.38597 11.305 3.69744 11.3572 2.58875L10.608 2.55353L9.85881 2.51831C9.83552 3.01386 9.61608 3.30579 9.18956 3.5761C8.68782 3.89408 8.07618 4.08078 7.27475 4.41403C6.54423 4.71779 5.69904 5.13545 5.11861 5.90499C4.51207 6.70915 4.27954 7.77545 4.50911 9.19206L5.24945 9.07208ZM14.3411 4.50202L14.0747 5.20312C14.6414 5.41846 15.1524 5.95193 15.3844 6.61105C15.609 7.24935 15.5561 7.95336 15.0809 8.56012L15.6714 9.02254L16.2618 9.48497C17.0947 8.42155 17.1701 7.16682 16.7993 6.11315C16.4359 5.08032 15.6278 4.1886 14.6075 3.80093L14.3411 4.50202ZM15.6714 9.02254L15.6713 9.77254C16.3408 9.77259 17.1694 10.237 17.6464 10.9698C18.0907 11.6525 18.1787 12.4788 17.5453 13.2875L18.1357 13.75L18.7261 14.2125C19.8174 12.8194 19.6394 11.2821 18.9035 10.1515C18.2003 9.07106 16.9343 8.27263 15.6714 8.27254L15.6714 9.02254ZM5.24945 9.07208L5.38067 9.81051C6.03708 9.69386 6.74096 9.83756 7.28789 10.2654L7.75 9.67469L8.21211 9.08397C7.2974 8.36842 6.15227 8.1499 5.11823 8.33365L5.24945 9.07208ZM1.75 13.75L1.03213 13.9672L1.86024 16.7045L2.57811 16.4874L3.29598 16.2702L2.46787 13.5328L1.75 13.75ZM19.75 13.75L19.0321 13.5328L18.204 16.2702L18.9219 16.4874L19.6398 16.7045L20.4679 13.9672L19.75 13.75ZM8.32107 20.75V21.5H13.1789V20.75V20H8.32107V20.75ZM18.9219 16.4874L18.204 16.2702C17.8883 17.3139 17.6689 18.0349 17.4354 18.5731C17.2097 19.0932 17.0007 19.3682 16.7466 19.5567L17.1937 20.1589L17.6407 20.7612C18.1829 20.3587 18.5274 19.8247 18.8114 19.1702C19.0876 18.5337 19.3342 17.7145 19.6398 16.7045L18.9219 16.4874ZM13.1789 20.75V21.5C14.2341 21.5 15.0896 21.5012 15.7788 21.4211C16.4875 21.3388 17.0984 21.1637 17.6407 20.7612L17.1937 20.1589L16.7466 19.5567C16.4926 19.7453 16.1689 19.8657 15.6057 19.9311C15.023 19.9988 14.2694 20 13.1789 20V20.75ZM2.57811 16.4874L1.86024 16.7045C2.16578 17.7145 2.41238 18.5337 2.68858 19.1702C2.97259 19.8247 3.31705 20.3587 3.85935 20.7612L4.30635 20.1589L4.75335 19.5567C4.49933 19.3682 4.29032 19.0932 4.06461 18.5731C3.83108 18.0349 3.61173 17.3139 3.29598 16.2702L2.57811 16.4874ZM8.32107 20.75V20C7.23063 20 6.47697 19.9988 5.89428 19.9311C5.33107 19.8657 5.00737 19.7453 4.75335 19.5567L4.30635 20.1589L3.85935 20.7612C4.40164 21.1637 5.0125 21.3388 5.72117 21.4211C6.41035 21.5012 7.2659 21.5 8.32107 21.5V20.75ZM0.75 13.75V14.5H20.75V13.75V13H0.75V13.75Z" fill="var(--stroke-0, #1C1917)"/>
</svg>
