<svg preserveAspectRatio="none" width="100%" height="100%" overflow="visible" style="display: block;" viewBox="0 0 22 18" fill="none" xmlns="http://www.w3.org/2000/svg">
<path id="Vector" d="M19.5078 6.91927L18.7829 7.11184C18.8702 7.44049 19.1677 7.66927 19.5078 7.66927V6.91927ZM1.99224 6.91927V7.66927C2.33229 7.66927 2.62979 7.44049 2.7171 7.11184L1.99224 6.91927ZM4.75 9.27866L5.47648 9.0923C5.39139 8.7606 5.09244 8.52866 4.75 8.52866C4.40756 8.52866 4.10861 8.7606 4.02352 9.0923L4.75 9.27866ZM8.75 9.27866L9.47648 9.0923C9.39139 8.7606 9.09244 8.52866 8.75 8.52866C8.40756 8.52866 8.10861 8.7606 8.02352 9.0923L8.75 9.27866ZM12.75 9.27866L13.4765 9.0923C13.3914 8.7606 13.0924 8.52866 12.75 8.52866C12.4076 8.52866 12.1086 8.7606 12.0235 9.0923L12.75 9.27866ZM16.75 9.27866L17.4765 9.0923C17.3914 8.7606 17.0924 8.52866 16.75 8.52866C16.4076 8.52866 16.1086 8.7606 16.0235 9.0923L16.75 9.27866ZM14.4208 3.91459C14.2356 3.54411 13.7851 3.39394 13.4146 3.57918C13.0441 3.76442 12.8939 4.21493 13.0792 4.58541L13.75 4.25L14.4208 3.91459ZM13.5792 5.58541C13.7644 5.95589 14.2149 6.10606 14.5854 5.92082C14.9559 5.73558 15.1061 5.28507 14.9208 4.91459L14.25 5.25L13.5792 5.58541ZM8.42082 4.58541C8.60606 4.21493 8.45589 3.76442 8.08541 3.57918C7.71493 3.39394 7.26442 3.54411 7.07918 3.91459L7.75 4.25L8.42082 4.58541ZM6.57918 4.91459C6.39394 5.28507 6.54411 5.73558 6.91459 5.92082C7.28507 6.10606 7.73558 5.95589 7.92082 5.58541L7.25 5.25L6.57918 4.91459ZM11.5 3.75C11.5 3.33579 11.1642 3 10.75 3C10.3358 3 10 3.33579 10 3.75H10.75H11.5ZM10 4.75C10 5.16421 10.3358 5.5 10.75 5.5C11.1642 5.5 11.5 5.16421 11.5 4.75H10.75H10ZM2.94231 10.4615C2.78299 10.0792 2.34389 9.89838 1.96154 10.0577C1.57919 10.217 1.39838 10.6561 1.55769 11.0385L2.25 10.75L2.94231 10.4615ZM2.69872 11.8269L2.00641 12.1154L2.00641 12.1154L2.69872 11.8269ZM18.8013 11.8269L19.4936 12.1154L19.4936 12.1154L18.8013 11.8269ZM19.9423 11.0385C20.1016 10.6561 19.9208 10.217 19.5385 10.0577C19.1561 9.89838 18.717 10.0792 18.5577 10.4615L19.25 10.75L19.9423 11.0385ZM16.3021 16.0782L16.7182 16.7022L16.7182 16.7022L16.3021 16.0782ZM5.19787 16.0782L5.61389 15.4542L5.61389 15.4542L5.19787 16.0782ZM20.75 8.77697H21.5C21.5 8.22559 21.3401 7.62594 21.0487 7.14484C20.7664 6.6788 20.2545 6.16927 19.5078 6.16927V6.91927V7.66927C19.5124 7.66927 19.5329 7.66866 19.5776 7.70075C19.6276 7.73666 19.6956 7.80623 19.7657 7.922C19.9099 8.15995 20 8.48915 20 8.77697H20.75ZM19.5078 6.91927L20.2326 6.7267C19.1943 2.8185 15.298 0 10.75 0V0.75V1.5C14.7091 1.5 17.9416 3.94512 18.7829 7.11184L19.5078 6.91927ZM1.99224 6.91927V6.16927C1.24546 6.16927 0.733593 6.6788 0.451291 7.14484C0.159867 7.62594 0 8.22559 0 8.77697H0.75H1.5C1.5 8.48915 1.59013 8.15995 1.73427 7.922C1.80439 7.80623 1.87241 7.73666 1.92243 7.70075C1.96712 7.66866 1.98756 7.66927 1.99224 7.66927V6.91927ZM10.75 0.75V0C6.20195 0 2.30565 2.8185 1.26738 6.7267L1.99224 6.91927L2.7171 7.11184C3.55838 3.94512 6.79086 1.5 10.75 1.5V0.75ZM4.75 9.27866L4.02352 9.46501C4.37862 10.8493 5.61346 11.5 6.75 11.5C7.88654 11.5 9.12138 10.8493 9.47648 9.46501L8.75 9.27866L8.02352 9.0923C7.87539 9.66978 7.36184 10 6.75 10C6.13816 10 5.62461 9.66978 5.47648 9.0923L4.75 9.27866ZM8.75 9.27866L8.02352 9.46501C8.37862 10.8493 9.61346 11.5 10.75 11.5C11.8865 11.5 13.1214 10.8493 13.4765 9.46501L12.75 9.27866L12.0235 9.0923C11.8754 9.66978 11.3618 10 10.75 10C10.1382 10 9.62461 9.66978 9.47648 9.0923L8.75 9.27866ZM12.75 9.27866L12.0235 9.46501C12.3786 10.8493 13.6135 11.5 14.75 11.5C15.8865 11.5 17.1214 10.8493 17.4765 9.46501L16.75 9.27866L16.0235 9.0923C15.8754 9.66978 15.3618 10 14.75 10C14.1382 10 13.6246 9.66978 13.4765 9.0923L12.75 9.27866ZM16.75 9.27866L16.0235 9.46501C16.4211 11.0148 17.8402 11.613 19.052 11.4668C20.2692 11.3201 21.5 10.3959 21.5 8.77697H20.75H20C20 9.47068 19.5137 9.9003 18.8724 9.97764C18.2256 10.0556 17.6447 9.74828 17.4765 9.0923L16.75 9.27866ZM0.75 8.77697H0C0 10.3959 1.23077 11.3201 2.44802 11.4668C3.65977 11.613 5.07892 11.0148 5.47648 9.46501L4.75 9.27866L4.02352 9.0923C3.85525 9.74828 3.2744 10.0556 2.62761 9.97764C1.98631 9.9003 1.5 9.47068 1.5 8.77697H0.75ZM13.75 4.25L13.0792 4.58541L13.5792 5.58541L14.25 5.25L14.9208 4.91459L14.4208 3.91459L13.75 4.25ZM7.75 4.25L7.07918 3.91459L6.57918 4.91459L7.25 5.25L7.92082 5.58541L8.42082 4.58541L7.75 4.25ZM10.75 3.75H10V4.75H10.75H11.5V3.75H10.75ZM2.25 10.75L1.55769 11.0385L2.00641 12.1154L2.69872 11.8269L3.39103 11.5385L2.94231 10.4615L2.25 10.75ZM10.0833 16.75V17.5H11.4167V16.75V16H10.0833V16.75ZM18.8013 11.8269L19.4936 12.1154L19.9423 11.0385L19.25 10.75L18.5577 10.4615L18.109 11.5385L18.8013 11.8269ZM11.4167 16.75V17.5C12.6929 17.5 13.7099 17.501 14.532 17.4116C15.3724 17.3203 16.0782 17.1289 16.7182 16.7022L16.3021 16.0782L15.8861 15.4542C15.5183 15.6993 15.0741 15.8438 14.3699 15.9204C13.6475 15.999 12.7256 16 11.4167 16V16.75ZM18.8013 11.8269L18.109 11.5385C17.6055 12.7467 17.25 13.5973 16.8997 14.2339C16.5581 14.8545 16.2539 15.209 15.8861 15.4542L16.3021 16.0782L16.7182 16.7022C17.3581 16.2756 17.8062 15.6977 18.2138 14.9571C18.6125 14.2326 19.0027 13.2935 19.4936 12.1154L18.8013 11.8269ZM2.69872 11.8269L2.00641 12.1154C2.49729 13.2935 2.88749 14.2326 3.2862 14.9571C3.69376 15.6977 4.14192 16.2756 4.78184 16.7022L5.19787 16.0782L5.61389 15.4542C5.24612 15.209 4.94185 14.8545 4.60033 14.2339C4.24997 13.5973 3.89445 12.7467 3.39103 11.5385L2.69872 11.8269ZM10.0833 16.75V16C8.77443 16 7.85253 15.999 7.13012 15.9204C6.42594 15.8438 5.98167 15.6993 5.61389 15.4542L5.19787 16.0782L4.78184 16.7022C5.42176 17.1289 6.12763 17.3203 6.96797 17.4116C7.79007 17.501 8.80706 17.5 10.0833 17.5V16.75Z" fill="var(--stroke-0, #1C1917)"/>
</svg>
