<svg preserveAspectRatio="none" width="100%" height="100%" overflow="visible" style="display: block;" viewBox="0 0 20 22" fill="none" xmlns="http://www.w3.org/2000/svg">
<path id="Vector" d="M0.792718 9.46688L1.51374 9.26043L1.51374 9.26043L0.792718 9.46688ZM2.97944 17.1037L2.25842 17.3102L2.25842 17.3102L2.97944 17.1037ZM18.7079 9.46688L19.4289 9.67334L19.4289 9.67332L18.7079 9.46688ZM16.5211 17.1037L17.2422 17.3102L17.2422 17.3102L16.5211 17.1037ZM12.9742 11.6667L13.6944 11.8762L13.6944 11.8762L12.9742 11.6667ZM6.52632 11.6667L7.24648 11.4572L7.24648 11.4572L6.52632 11.6667ZM18.744 9.32761L18.0035 9.20915L18.0034 9.20917L18.744 9.32761ZM18.3013 8.7535L18.3882 8.00857L18.3882 8.00857L18.3013 8.7535ZM4.41473 20.2428L4.86245 19.6411L4.86245 19.6411L4.41473 20.2428ZM0.756536 9.32761L1.49712 9.20915L1.49712 9.20915L0.756536 9.32761ZM1.19932 8.7535L1.28631 9.49844L1.28631 9.49844L1.19932 8.7535ZM9.7581 16.5C10.1723 16.5 10.5081 16.1642 10.5081 15.75C10.5081 15.3358 10.1723 15 9.7581 15V15.75V16.5ZM9.74912 15C9.3349 15 8.99912 15.3358 8.99912 15.75C8.99912 16.1642 9.3349 16.5 9.74912 16.5V15.75V15ZM3.05524 2.52965L3.43996 3.17345L3.43996 3.17345L3.05524 2.52965ZM3.27592 2.39777L2.8912 1.75396L2.8912 1.75396L3.27592 2.39777ZM5.95119 3.21965L6.62443 2.88914L6.62443 2.88914L5.95119 3.21965ZM7.07704 7.21485C7.25958 7.58667 7.70898 7.74011 8.0808 7.55758C8.45262 7.37504 8.60607 6.92564 8.42353 6.55382L7.75029 6.88433L7.07704 7.21485ZM3.65005 9.11537C3.85183 9.47711 4.30866 9.60678 4.6704 9.405C5.03214 9.20321 5.16181 8.74639 4.96003 8.38465L4.30504 8.75001L3.65005 9.11537ZM2.35153 5.24791L1.69654 5.61327L1.69654 5.61327L2.35153 5.24791ZM4.90834 1.78078L4.68809 2.49771L4.68809 2.49771L4.90834 1.78078ZM1.77486 3.63126L2.50092 3.81923L2.50092 3.81923L1.77486 3.63126ZM16.2341 4.35927L16.6218 3.71722L16.6218 3.71722L16.2341 4.35927ZM16.4316 4.47848L16.0439 5.12052L16.0439 5.12052L16.4316 4.47848ZM11.0937 8.2222C10.8935 8.58482 11.0252 9.04108 11.3878 9.24127C11.7504 9.44147 12.2067 9.30979 12.4069 8.94717L11.7503 8.58469L11.0937 8.2222ZM13.6894 5.07235L14.3459 5.43484L14.3459 5.43484L13.6894 5.07235ZM17.0516 7.24412L17.6845 7.64643L17.6845 7.64643L17.0516 7.24412ZM15.4614 8.34769C15.2392 8.69727 15.3425 9.16078 15.6921 9.38297C16.0417 9.60516 16.5052 9.5019 16.7274 9.15232L16.0944 8.75001L15.4614 8.34769ZM17.7319 5.6185L17.0001 5.78256L17.0001 5.78256L17.7319 5.6185ZM14.7207 3.77491L14.923 4.49709L14.7207 3.77491ZM0.792718 9.46688L0.0716939 9.67334L2.25842 17.3102L2.97944 17.1037L3.70047 16.8973L1.51374 9.26043L0.792718 9.46688ZM18.7079 9.46688L17.9868 9.26043L15.8001 16.8973L16.5211 17.1037L17.2422 17.3102L19.4289 9.67334L18.7079 9.46688ZM7.87978 20.75V21.5H11.6208V20.75V20H7.87978V20.75ZM1.34561 8.75001V9.50001H2.58965V8.75001V8.00001H1.34561V8.75001ZM18.155 8.75001V8.00001H16.9109V8.75001V9.50001H18.155V8.75001ZM7.31366 12.25V13H12.1869V12.25V11.5H7.31366V12.25ZM12.9742 11.6667L12.2541 11.4572C12.249 11.4748 12.2268 11.5 12.1869 11.5V12.25V13C12.8782 13 13.4986 12.5491 13.6944 11.8762L12.9742 11.6667ZM16.9109 8.75001V8.00001C14.7572 8.00001 12.8516 9.4031 12.2541 11.4572L12.9742 11.6667L13.6944 11.8762C14.1013 10.4774 15.4087 9.50001 16.9109 9.50001V8.75001ZM6.52632 11.6667L5.80617 11.8762C6.00193 12.5491 6.62233 13 7.31366 13V12.25V11.5C7.2738 11.5 7.25159 11.4748 7.24648 11.4572L6.52632 11.6667ZM2.58965 8.75001V9.50001C4.0919 9.50001 5.39931 10.4774 5.80617 11.8762L6.52632 11.6667L7.24648 11.4572C6.64897 9.4031 4.74337 8.00001 2.58965 8.00001V8.75001ZM16.5211 17.1037L15.8001 16.8973C15.5439 17.7919 15.3687 18.3993 15.1792 18.8506C14.9978 19.2827 14.8326 19.4964 14.6381 19.6411L15.0858 20.2428L15.5336 20.8445C16.0208 20.4819 16.3221 20.0033 16.5622 19.4313C16.7943 18.8786 16.9959 18.17 17.2422 17.3102L16.5211 17.1037ZM11.6208 20.75V21.5C12.531 21.5 13.2775 21.5012 13.8796 21.4317C14.5004 21.36 15.0475 21.2061 15.5336 20.8445L15.0858 20.2428L14.6381 19.6411C14.4425 19.7866 14.1848 19.8864 13.7075 19.9416C13.2113 19.9988 12.5662 20 11.6208 20V20.75ZM18.7079 9.46688L19.4289 9.67332C19.4432 9.62347 19.4709 9.53162 19.4846 9.44604L18.744 9.32761L18.0034 9.20917C18.0053 9.19735 18.0071 9.18902 18.0079 9.18565C18.0086 9.1826 18.0086 9.18284 18.0071 9.18837C18.0057 9.19388 18.0035 9.20198 17.9999 9.21457C17.9964 9.22715 17.9922 9.24172 17.9868 9.26045L18.7079 9.46688ZM18.155 8.75001V9.50001C18.1747 9.50001 18.1902 9.50001 18.2036 9.50006C18.217 9.50011 18.2257 9.5002 18.2318 9.50031C18.2458 9.50057 18.2349 9.50085 18.2143 9.49844L18.3013 8.7535L18.3882 8.00857C18.3036 7.99868 18.2091 8.00001 18.155 8.00001V8.75001ZM18.744 9.32761L19.4846 9.44606C19.5989 8.73191 19.0857 8.09001 18.3882 8.00857L18.3013 8.7535L18.2143 9.49844C18.09 9.48394 17.9788 9.36319 18.0035 9.20915L18.744 9.32761ZM2.97944 17.1037L2.25842 17.3102C2.50463 18.17 2.70623 18.8786 2.93833 19.4313C3.17849 20.0033 3.47974 20.4819 3.96701 20.8445L4.41473 20.2428L4.86245 19.6411C4.66801 19.4964 4.50281 19.2827 4.32135 18.8506C4.13184 18.3993 3.95665 17.7919 3.70047 16.8973L2.97944 17.1037ZM7.87978 20.75V20C6.93442 20 6.28926 19.9988 5.79308 19.9416C5.31576 19.8864 5.05809 19.7866 4.86245 19.6411L4.41473 20.2428L3.96701 20.8445C4.45306 21.2061 5.00014 21.36 5.62102 21.4317C6.22306 21.5012 6.96958 21.5 7.87978 21.5V20.75ZM0.792718 9.46688L1.51374 9.26043C1.50838 9.2417 1.50421 9.22713 1.50066 9.21455C1.49711 9.20197 1.49488 9.19388 1.49342 9.18838C1.49196 9.18286 1.49198 9.18263 1.49267 9.18568C1.49344 9.18906 1.49524 9.19737 1.49712 9.20915L0.756536 9.32761L0.0159496 9.44606C0.0296368 9.53164 0.057383 9.62336 0.0716939 9.67334L0.792718 9.46688ZM1.34561 8.75001V8.00001C1.2915 8.00001 1.19701 7.99868 1.11233 8.00857L1.19932 8.7535L1.28631 9.49844C1.26565 9.50085 1.2548 9.50057 1.26878 9.50031C1.27484 9.5002 1.2836 9.50011 1.29697 9.50006C1.31034 9.50001 1.32583 9.50001 1.34561 9.50001V8.75001ZM0.756536 9.32761L1.49712 9.20915C1.52176 9.3632 1.41053 9.48394 1.28631 9.49844L1.19932 8.7535L1.11233 8.00857C0.414896 8.09001 -0.0982799 8.73191 0.0159496 9.44606L0.756536 9.32761ZM9.7581 15.75V15H9.74912V15.75V16.5H9.7581V15.75ZM9.57886 0.750007V1.50001H9.92171V0.750007V7.03335e-06H9.57886V0.750007ZM11.7503 2.51001H11.0003V11.75H11.7503H12.5003V2.51001H11.7503ZM7.75029 11.75H8.50029V2.51001H7.75029H7.00029V11.75H7.75029ZM9.92171 0.750007V1.50001C10.3731 1.50001 10.6391 1.50148 10.8287 1.52602C10.9996 1.54814 10.992 1.57665 10.9624 1.54812L11.4825 1.00775L12.0026 0.467388C11.7052 0.181113 11.3482 0.0807483 11.0212 0.0384271C10.7129 -0.00147056 10.3323 7.03335e-06 9.92171 7.03335e-06V0.750007ZM11.7503 2.51001H12.5003C12.5003 2.11718 12.502 1.74421 12.4596 1.44065C12.4138 1.11249 12.304 0.757531 12.0026 0.467388L11.4825 1.00775L10.9624 1.54812C10.9287 1.51572 10.9529 1.49705 10.974 1.64816C10.9986 1.82388 11.0003 2.07317 11.0003 2.51001H11.7503ZM9.57886 0.750007V7.03335e-06C9.16829 7.03335e-06 8.7877 -0.00147056 8.47939 0.0384271C8.15234 0.0807483 7.7954 0.181113 7.49797 0.467388L8.01807 1.00775L8.53817 1.54812C8.50853 1.57665 8.50099 1.54814 8.67189 1.52602C8.86152 1.50148 9.12743 1.50001 9.57886 1.50001V0.750007ZM7.75029 2.51001H8.50029C8.50029 2.07317 8.502 1.82388 8.52655 1.64816C8.54766 1.49705 8.57183 1.51572 8.53817 1.54812L8.01807 1.00775L7.49797 0.467388C7.19652 0.757531 7.08681 1.11249 7.04097 1.44065C6.99857 1.74421 7.00029 2.11718 7.00029 2.51001H7.75029ZM3.05524 2.52965L3.43996 3.17345L3.66065 3.04158L3.27592 2.39777L2.8912 1.75396L2.67051 1.88584L3.05524 2.52965ZM5.95119 3.21965L5.27794 3.55017L7.07704 7.21485L7.75029 6.88433L8.42353 6.55382L6.62443 2.88914L5.95119 3.21965ZM4.30504 8.75001L4.96003 8.38465L3.00652 4.88255L2.35153 5.24791L1.69654 5.61327L3.65005 9.11537L4.30504 8.75001ZM3.27592 2.39777L3.66065 3.04158C4.09192 2.78386 4.34843 2.6326 4.54432 2.54989C4.71978 2.4758 4.72754 2.50984 4.68809 2.49771L4.90834 1.78078L5.12859 1.06385C4.6929 0.930004 4.29652 1.02629 3.96086 1.16801C3.64564 1.30111 3.28405 1.5192 2.8912 1.75396L3.27592 2.39777ZM5.95119 3.21965L6.62443 2.88914C6.41839 2.46944 6.23177 2.08564 6.03974 1.79908C5.83715 1.49674 5.56119 1.19675 5.12859 1.06385L4.90834 1.78078L4.68809 2.49771C4.65172 2.48654 4.68164 2.46694 4.79365 2.63409C4.91622 2.817 5.0529 3.09177 5.27794 3.55017L5.95119 3.21965ZM3.05524 2.52965L2.67051 1.88584C2.29638 2.10941 1.94954 2.31477 1.6913 2.52105C1.41435 2.74225 1.15653 3.02714 1.04879 3.4433L1.77486 3.63126L2.50092 3.81923C2.50138 3.81745 2.50152 3.81733 2.50154 3.8173C2.50164 3.81708 2.50347 3.81326 2.50945 3.80524C2.52269 3.78746 2.55458 3.75126 2.62743 3.69307C2.78739 3.56531 3.02921 3.41891 3.43996 3.17345L3.05524 2.52965ZM2.35153 5.24791L3.00652 4.88255C2.76989 4.45834 2.62964 4.20378 2.55167 4.00743C2.5159 3.91735 2.50484 3.86665 2.50155 3.84121C2.50004 3.8296 2.50027 3.82401 2.50034 3.82272C2.5004 3.82168 2.50046 3.82101 2.50092 3.81923L1.77486 3.63126L1.04879 3.4433C0.941646 3.85719 1.02684 4.23183 1.15756 4.56102C1.28041 4.87039 1.48002 5.2251 1.69654 5.61327L2.35153 5.24791ZM16.2341 4.35927L15.8465 5.00131L16.0439 5.12052L16.4316 4.47848L16.8192 3.83643L16.6218 3.71722L16.2341 4.35927ZM11.7503 8.58469L12.4069 8.94717L14.3459 5.43484L13.6894 5.07235L13.0328 4.70987L11.0937 8.2222L11.7503 8.58469ZM17.0516 7.24412L16.4186 6.8418L15.4614 8.34769L16.0944 8.75001L16.7274 9.15232L17.6845 7.64643L17.0516 7.24412ZM16.4316 4.47848L16.0439 5.12052C16.4656 5.37511 16.7137 5.52696 16.8765 5.65913C16.9506 5.71931 16.9818 5.75609 16.994 5.7731C16.9994 5.78066 17.0007 5.78372 17.0003 5.78296C16.9999 5.78201 16.9998 5.7813 17.0001 5.78256L17.7319 5.6185L18.4637 5.45444C18.3666 5.02119 18.1044 4.72401 17.8221 4.49477C17.5591 4.28114 17.2031 4.06822 16.8192 3.83643L16.4316 4.47848ZM17.0516 7.24412L17.6845 7.64643C17.9306 7.25928 18.157 6.90611 18.3002 6.59589C18.4525 6.26611 18.5602 5.8848 18.4637 5.45444L17.7319 5.6185L17.0001 5.78256C17.0003 5.78381 17.0003 5.78375 17.0003 5.78395C17.0003 5.78442 17.0004 5.78939 16.9984 5.8006C16.994 5.82543 16.9803 5.87631 16.9384 5.96699C16.8472 6.16444 16.6874 6.41885 16.4186 6.8418L17.0516 7.24412ZM16.2341 4.35927L16.6218 3.71722C16.2603 3.49897 15.9235 3.29365 15.6281 3.16668C15.3123 3.03092 14.9365 2.93555 14.5183 3.05273L14.7207 3.77491L14.923 4.49709C14.8775 4.50984 14.8782 4.47705 15.0358 4.54478C15.2138 4.6213 15.4474 4.76037 15.8465 5.00131L16.2341 4.35927ZM13.6894 5.07235L14.3459 5.43484C14.5756 5.01878 14.7133 4.77259 14.8334 4.60986C14.9424 4.46213 14.9651 4.48531 14.923 4.49709L14.7207 3.77491L14.5183 3.05273C14.1036 3.16893 13.8301 3.44317 13.6264 3.71922C13.4338 3.98026 13.2422 4.33058 13.0328 4.70987L13.6894 5.07235Z" fill="var(--stroke-0, #1C1917)"/>
</svg>
