<svg preserveAspectRatio="none" width="100%" height="100%" overflow="visible" style="display: block;" viewBox="0 0 22 20" fill="none" xmlns="http://www.w3.org/2000/svg">
<path id="Vector" d="M20.75 6.75C20.75 10.0637 16.2728 12.75 10.75 12.75C5.22715 12.75 0.75 10.0637 0.75 6.75M20.75 6.75C20.75 3.43629 16.2728 0.75 10.75 0.75M20.75 6.75V12.75C20.75 16.0637 16.2728 18.75 10.75 18.75C5.22715 18.75 0.75 16.0637 0.75 12.75V6.75M0.75 6.75C0.75 3.43629 5.22715 0.75 10.75 0.75M10.75 0.75C7.75 0.75 5.75 3.24755 5.75 5.63187C5.75 9.53737 15.75 9.70139 15.75 6.5317C15.75 5.46729 13.75 3.19094 10.75 4.60441" stroke="var(--stroke-0, #1C1917)" stroke-width="1.5" stroke-linecap="round"/>
</svg>
