<svg preserveAspectRatio="none" width="100%" height="100%" overflow="visible" style="display: block;" viewBox="0 0 22 22" fill="none" xmlns="http://www.w3.org/2000/svg">
<path id="Vector" d="M9.25 9.75012C8.37217 9.12009 7.30171 8.75012 6.14646 8.75012C3.16608 8.75012 0.75 11.2126 0.75 14.2501C0.75 17.2877 3.16608 19.7501 6.14646 19.7501C6.83877 19.7501 7.50062 19.6173 8.10882 19.3752M14.75 11.7501C12.9131 9.85359 10.4791 5.88704 12.5446 2.75012M12.5446 2.75012C13.0203 2.02764 13.7347 1.34916 14.75 0.750119M12.5446 2.75012C10.1506 3.25012 4.84142 5.25012 5.88408 10.7501M20.75 15.2501C20.75 18.2877 18.2876 20.7501 15.25 20.7501C12.2124 20.7501 9.75 18.2877 9.75 15.2501C9.75 12.2126 12.2124 9.75012 15.25 9.75012C18.2876 9.75012 20.75 12.2126 20.75 15.2501Z" stroke="var(--stroke-0, #1C1917)" stroke-width="1.5" stroke-linecap="round" stroke-linejoin="round"/>
</svg>
