<svg preserveAspectRatio="none" width="100%" height="100%" overflow="visible" style="display: block;" viewBox="0 0 16 22" fill="none" xmlns="http://www.w3.org/2000/svg">
<path id="Vector" d="M1.03067 5.09986L0.0392257 5.23042L1.03067 5.09986ZM2.63239 17.2626L1.64095 17.3931L1.64095 17.3931L2.63239 17.2626ZM13.9692 5.09986L12.9778 4.96929L12.9778 4.96929L13.9692 5.09986ZM12.3675 17.2626L11.3761 17.132L11.3761 17.132L12.3675 17.2626ZM11.4139 20.2437L12.0359 21.0267L12.0359 21.0267L11.4139 20.2437ZM3.58601 20.2437L2.96398 21.0267L2.96398 21.0267L3.58601 20.2437ZM8.50033 17.9722C8.485 18.5243 8.92011 18.9843 9.47219 18.9996C10.0243 19.0149 10.4842 18.5798 10.4996 18.0278L9.49995 18L8.50033 17.9722ZM9.94594 1.94128L8.94767 1.88256L8.94676 1.89803L8.94633 1.91352L9.94594 1.94128ZM15.0013 2C15.5536 2 16.0013 1.55228 16.0013 1C16.0013 0.447715 15.5536 0 15.0013 0V1V2ZM1.12205 8.52115C0.85759 9.006 1.03625 9.61343 1.5211 9.8779C2.00594 10.1424 2.61338 9.9637 2.87784 9.47885L1.99995 9L1.12205 8.52115ZM4.09086 8V7V8ZM12.8318 9.74405C13.2428 10.113 13.875 10.0791 14.244 9.66812C14.613 9.2572 14.579 8.62495 14.1681 8.25595L13.4999 9L12.8318 9.74405ZM6.00889 16C6.56117 16 7.00889 15.5523 7.00889 15C7.00889 14.4477 6.56117 14 6.00889 14V15V16ZM5.99995 14C5.44766 14 4.99995 14.4477 4.99995 15C4.99995 15.5523 5.44766 16 5.99995 16V15V14ZM1.03067 5.09986L0.0392257 5.23042L1.64095 17.3931L2.63239 17.2626L3.62383 17.132L2.02211 4.96929L1.03067 5.09986ZM13.9692 5.09986L12.9778 4.96929L11.3761 17.132L12.3675 17.2626L13.3589 17.3931L14.9607 5.23042L13.9692 5.09986ZM12.8744 4V3H2.12547V4V5H12.8744V4ZM12.3675 17.2626L11.3761 17.132C11.2632 17.9887 11.19 18.5266 11.0807 18.9186C10.9819 19.2727 10.8845 19.3871 10.7919 19.4607L11.4139 20.2437L12.0359 21.0267C12.5698 20.6026 12.8402 20.0542 13.0071 19.4561C13.1634 18.8958 13.2537 18.192 13.3589 17.3931L12.3675 17.2626ZM2.63239 17.2626L1.64095 17.3931C1.74616 18.192 1.83647 18.8958 1.99277 19.4561C2.15965 20.0542 2.43005 20.6026 2.96398 21.0267L3.58601 20.2437L4.20803 19.4607C4.11538 19.3871 4.01799 19.2727 3.91921 18.9186C3.80985 18.5266 3.73665 17.9887 3.62383 17.132L2.63239 17.2626ZM3.58601 20.2437L2.96398 21.0267C3.4807 21.4372 4.25755 21.6575 4.96971 21.7881C5.7308 21.9278 6.60972 21.9969 7.47536 21.9999C8.34084 22.0029 9.22458 21.9398 9.99475 21.8014C10.7191 21.6713 11.5054 21.4482 12.0359 21.0267L11.4139 20.2437L10.7919 19.4607C10.6737 19.5546 10.3123 19.7124 9.64116 19.8329C9.01587 19.9452 8.2564 20.0026 7.4822 19.9999C6.70815 19.9973 5.95092 19.9348 5.33067 19.821C4.66148 19.6982 4.31178 19.5431 4.20803 19.4607L3.58601 20.2437ZM1.03067 5.09986L2.02211 4.96929C2.00958 4.87418 2.00321 4.80249 2.00093 4.74855C1.99861 4.69384 2.00109 4.66961 2.00145 4.66668C2.00173 4.66447 1.99819 4.69637 1.97658 4.74657C1.96555 4.77219 1.95033 4.80134 1.92977 4.83191C1.9091 4.86264 1.88505 4.89181 1.85819 4.91842C1.80317 4.97292 1.75049 5.00288 1.71916 5.01719C1.6908 5.03014 1.68217 5.02931 1.70772 5.0242C1.73296 5.01915 1.77819 5.01253 1.85133 5.00756C1.92375 5.00265 2.01347 5 2.12547 5V4V3C1.85515 3 1.57368 3.01139 1.31544 3.06305C1.05515 3.11511 0.724892 3.22589 0.450662 3.49755C0.163323 3.78219 0.0531214 4.1272 0.0167284 4.41995C-0.0173264 4.69389 0.00591063 4.97744 0.0392257 5.23042L1.03067 5.09986ZM13.9692 5.09986L14.9607 5.23042C14.994 4.97744 15.0172 4.69389 14.9832 4.41995C14.9468 4.1272 14.8366 3.78219 14.5492 3.49755C14.275 3.22589 13.9448 3.11511 13.6845 3.06305C13.4262 3.01139 13.1447 3 12.8744 3V4V5C12.9864 5 13.0761 5.00265 13.1486 5.00756C13.2217 5.01253 13.2669 5.01915 13.2922 5.0242C13.3177 5.02931 13.3091 5.03014 13.2807 5.01719C13.2494 5.00288 13.1967 4.97292 13.1417 4.91842C13.1148 4.89181 13.0908 4.86264 13.0701 4.83191C13.0496 4.80134 13.0343 4.77219 13.0233 4.74657C13.0017 4.69637 12.9982 4.66447 12.9984 4.66668C12.9988 4.66961 13.0013 4.69384 12.999 4.74854C12.9967 4.80249 12.9903 4.87418 12.9778 4.96929L13.9692 5.09986ZM9.49995 18L10.4996 18.0278L10.9456 1.96904L9.94594 1.94128L8.94633 1.91352L8.50033 17.9722L9.49995 18ZM10.9442 1V2H15.0013V1V0H10.9442V1ZM9.94594 1.94128L10.9442 2L10.9442 2V1V0C9.88526 0 9.00985 0.825433 8.94767 1.88256L9.94594 1.94128ZM1.99995 9L2.87784 9.47885C2.89862 9.44076 3.17642 9 4.09086 9V8V7C2.38711 7 1.46491 7.89257 1.12205 8.52115L1.99995 9ZM4.09086 8L4.09086 9C4.39955 9 4.52997 9.04726 4.57336 9.06694C4.60756 9.08245 4.63531 9.09993 4.71152 9.18173C4.75833 9.23196 4.97519 9.49466 5.23697 9.67186C5.56273 9.89237 5.94178 10 6.38631 10V9V8C6.28539 8 6.30933 7.98263 6.3581 8.01564C6.36748 8.02199 6.3617 8.02021 6.33052 7.98801C6.27303 7.92863 6.2767 7.9277 6.17474 7.81827C6.018 7.65007 5.7787 7.41755 5.39955 7.24556C5.02958 7.07774 4.60034 7 4.09086 7L4.09086 8ZM6.38631 9V10C6.797 10 7.20852 9.90807 7.5697 9.8062C7.9318 9.70407 8.32569 9.56672 8.67981 9.44868C9.43504 9.19694 10.1126 9 10.7499 9V8V7C9.75094 7 8.79213 7.30306 8.04736 7.55132C7.65148 7.68328 7.32946 7.79593 7.02678 7.8813C6.7232 7.96693 6.52108 8 6.38631 8V9ZM10.7499 8V9C11.3643 9 11.8931 9.18838 12.2789 9.38807C12.4699 9.48694 12.6184 9.58483 12.7154 9.65478C12.7636 9.68957 12.7983 9.71686 12.8182 9.73308C12.8282 9.74118 12.8344 9.74645 12.8367 9.74844C12.8379 9.74944 12.8381 9.74961 12.8373 9.7489C12.8369 9.74854 12.8362 9.74797 12.8353 9.74716C12.8349 9.74676 12.8343 9.7463 12.8338 9.74578C12.8335 9.74552 12.8332 9.74525 12.8328 9.74496C12.8327 9.74481 12.8324 9.74459 12.8323 9.74451C12.8321 9.74428 12.8318 9.74405 13.4999 9C14.1681 8.25595 14.1678 8.25571 14.1675 8.25546C14.1674 8.25538 14.1672 8.25512 14.167 8.25495C14.1666 8.2546 14.1662 8.25424 14.1657 8.25386C14.1649 8.2531 14.164 8.25227 14.163 8.25139C14.161 8.24962 14.1587 8.24761 14.1561 8.24536C14.151 8.24087 14.1447 8.23542 14.1373 8.2291C14.1226 8.21644 14.1033 8.20023 14.0796 8.18098C14.0322 8.14252 13.9671 8.09168 13.8854 8.03272C13.7224 7.91517 13.4903 7.76306 13.1983 7.61193C12.6182 7.31162 11.772 7 10.7499 7V8ZM6.00889 15V14H5.99995V15V16H6.00889V15Z" fill="var(--stroke-0, #1C1917)"/>
</svg>
