<svg preserveAspectRatio="none" width="100%" height="100%" overflow="visible" style="display: block;" viewBox="0 0 21 21" fill="none" xmlns="http://www.w3.org/2000/svg">
<path id="Vector" d="M2.13481 18.3814C4.23804 20.4589 8.11304 19.9996 10.7899 17.3555C13.8488 14.334 15.4323 13.4281 16.5431 12.8084C16.7675 12.6833 16.8233 12.3722 16.6412 12.1922C13.0324 8.62759 7.00783 11.2956 6.35703 15.9993M2.13481 18.3814L0.75 19.7493M2.13481 18.3814C0.031584 16.3039 0.497172 12.477 3.17401 9.83287C4.02111 9.20531 5.64551 7.42607 5.90754 5.02354C5.93407 4.78027 6.24311 4.65718 6.41826 4.83019C7.72265 6.11863 8.37412 7.80777 8.37268 9.49647M15.8417 11.2493C18.1918 7.62497 20.7821 2.97352 19.3291 1.29485C17.5981 -0.704971 12.2584 3.18773 8.25 6.58591" stroke="var(--stroke-0, #1C1917)" stroke-width="1.5" stroke-linecap="round" stroke-linejoin="round"/>
</svg>
