<svg preserveAspectRatio="none" width="100%" height="100%" overflow="visible" style="display: block;" viewBox="0 0 22 20" fill="none" xmlns="http://www.w3.org/2000/svg">
<path id="Vector" d="M17.7515 8.72927C18.2875 8.14491 19.2515 7.34684 20.2141 6.09593C20.8623 5.25359 20.9153 4.06373 20.4208 3.11938C19.511 1.38228 17.2269 1.25714 15.9122 2.68333C15.5949 3.02749 15.2659 3.36719 14.9255 3.70164M5.68476 16.1732C4.95766 16.3928 4.23752 16.5736 3.52833 16.7158C2.5425 16.9134 1.58121 16.3692 1.08663 15.4249C0.17686 13.6877 1.2206 11.4445 2.99837 10.9024C3.42737 10.7717 3.85874 10.6274 4.29169 10.4696M15.7575 2.76997C15.6305 2.17073 15.1101 1.09096 14.0235 0.872906C12.4986 0.566915 11.8441 0.759594 10.0143 2.28958C8.55041 3.51356 5.43968 4.91605 4.06731 5.4643C2.79457 5.97274 1.34707 7.31187 1.83159 8.90007C2.3192 10.4984 3.22533 10.515 3.57979 10.6747M7.09524 9.53797C7.3385 9.25323 7.53003 8.6902 7.67642 8.04753C7.79768 7.51519 8.48401 7.62677 9.14917 7.87791C9.38439 7.96672 9.65402 7.88757 9.78658 7.67393L10.8471 5.96487C10.9559 5.78943 11.1614 5.70043 11.3572 5.76596C11.8442 5.92896 12.473 6.20289 12.825 6.02629M19.7576 10.8046C19.6305 10.2054 19.1102 9.12558 18.0235 8.90753C16.4986 8.60154 15.8442 8.79422 14.0143 10.3242C12.5505 11.5482 9.43974 12.9507 8.06737 13.4989C6.79463 14.0074 5.34713 15.3465 5.83165 16.9347C6.31926 18.533 7.22539 18.5496 7.57986 18.7094C8.18698 18.8369 9.69139 18.7094 12.2544 17.3209C14.7503 15.9689 17.3483 14.1502 18.2752 13.4989C18.8363 13.0893 19.9183 11.977 19.7576 10.8046Z" stroke="var(--stroke-0, #1C1917)" stroke-width="1.5" stroke-linecap="round" stroke-linejoin="round"/>
</svg>
