<svg preserveAspectRatio="none" width="100%" height="100%" overflow="visible" style="display: block;" viewBox="0 0 22 22" fill="none" xmlns="http://www.w3.org/2000/svg">
<path id="Vector" d="M17.9247 1.2367L18.2773 0.574764L18.2773 0.574764L17.9247 1.2367ZM19.434 13.3168L18.7599 12.988L18.7599 12.988L19.434 13.3168ZM10.2551 2.50707C9.94388 2.78038 9.91313 3.25426 10.1864 3.56551C10.4597 3.87676 10.9336 3.90751 11.2449 3.63421L10.75 3.07064L10.2551 2.50707ZM17.9247 1.2367L17.5721 1.89863C18.927 2.62046 19.7518 4.29044 19.9529 6.45583C20.1518 8.59586 19.7145 11.0309 18.7599 12.988L19.434 13.3168L20.108 13.6456C21.1839 11.44 21.6706 8.72931 21.4465 6.31706C21.2247 3.93018 20.2796 1.64141 18.2773 0.574764L17.9247 1.2367ZM10.75 3.07064L11.2449 3.63421C13.4221 1.72236 15.8452 0.97867 17.5721 1.89863L17.9247 1.2367L18.2773 0.574764C15.6925 -0.80223 12.57 0.474365 10.2551 2.50707L10.75 3.07064ZM19.434 13.3168L18.7599 12.988C17.967 14.6135 16.9532 15.582 15.8807 16.0704L16.1915 16.753L16.5024 17.4355C17.9532 16.7748 19.1949 15.5176 20.108 13.6456L19.434 13.3168ZM13.75 14.253H13C13 16.2883 12.3358 17.6983 11.3408 18.6056C10.3343 19.5236 8.90564 20.003 7.25 20.003V20.753V21.503C9.18421 21.503 11.0055 20.9415 12.3516 19.714C13.7091 18.4759 14.5 16.6359 14.5 14.253H13.75ZM7.25 20.753V20.003C5.59436 20.003 4.16569 19.5236 3.15918 18.6056C2.1642 17.6983 1.5 16.2883 1.5 14.253H0.75H0C0 16.6359 0.79087 18.4759 2.14843 19.714C3.49446 20.9415 5.31579 21.503 7.25 21.503V20.753ZM0.75 14.253H1.5C1.5 12.186 2.15601 9.95081 3.23976 8.24896C4.33408 6.5305 5.75847 5.50296 7.25 5.50296V4.75296V4.00296C5.02724 4.00296 3.20163 5.51627 1.97452 7.44325C0.736844 9.38682 0 11.9017 0 14.253H0.75ZM7.25 4.75296V5.50296C8.74153 5.50296 10.1659 6.5305 11.2602 8.24896C12.344 9.95081 13 12.186 13 14.253H13.75H14.5C14.5 11.9017 13.7632 9.38682 12.5255 7.44325C11.2984 5.51627 9.47276 4.00296 7.25 4.00296V4.75296Z" fill="var(--stroke-0, #1C1917)"/>
</svg>
