<svg preserveAspectRatio="none" width="100%" height="100%" overflow="visible" style="display: block;" viewBox="0 0 22 18" fill="none" xmlns="http://www.w3.org/2000/svg">
<path id="Vector" d="M18.9971 4.77892L19.7091 4.5434L19.7091 4.5434L18.9971 4.77892ZM2.50294 4.77892L1.79088 4.54339L1.79088 4.54339L2.50294 4.77892ZM2.44065 6.34361L3.02932 5.87888L3.02932 5.87888L2.44065 6.34361ZM19.0593 6.34361L19.648 6.80834L19.648 6.80834L19.0593 6.34361ZM3.1819 14.4776L2.4543 14.6595L2.4543 14.6595L3.1819 14.4776ZM18.3181 14.4776L19.0457 14.6595L19.0457 14.6595L18.3181 14.4776ZM16.2462 10.0859L16.6622 10.7099L16.6622 10.7099L16.2462 10.0859ZM14.3047 11.3802L13.8887 10.7562L13.8887 10.7562L14.3047 11.3802ZM13.1953 11.3802L13.6113 10.7562L13.6113 10.7562L13.1953 11.3802ZM11.2538 10.0859L10.8378 10.7099L10.8378 10.7099L11.2538 10.0859ZM17.25 12C16.8358 12 16.5 12.3358 16.5 12.75C16.5 13.1642 16.8358 13.5 17.25 13.5V12.75V12ZM9.75 13.5C10.1642 13.5 10.5 13.1642 10.5 12.75C10.5 12.3358 10.1642 12 9.75 12V12.75V13.5ZM13.7578 4.5C14.172 4.5 14.5078 4.16421 14.5078 3.75C14.5078 3.33579 14.172 3 13.7578 3V3.75V4.5ZM13.7488 3C13.3346 3 12.9988 3.33579 12.9988 3.75C12.9988 4.16421 13.3346 4.5 13.7488 4.5V3.75V3ZM9.78033 3.78033C10.0732 3.48744 10.0732 3.01256 9.78033 2.71967C9.48744 2.42678 9.01256 2.42678 8.71967 2.71967L9.25 3.25L9.78033 3.78033ZM7.71967 3.71967C7.42678 4.01256 7.42678 4.48744 7.71967 4.78033C8.01256 5.07322 8.48744 5.07322 8.78033 4.78033L8.25 4.25L7.71967 3.71967ZM7.89593 0.75V1.5H13.6041V0.75V0H7.89593V0.75ZM13.6041 0.75V1.5C15.7468 1.5 17.6012 2.94712 18.285 5.01444L18.9971 4.77892L19.7091 4.5434C18.8413 1.91975 16.4526 0 13.6041 0V0.75ZM2.50294 4.77892L3.215 5.01444C3.89878 2.94712 5.75323 1.5 7.89593 1.5V0.75V0C5.04736 0 2.65867 1.91975 1.79088 4.54339L2.50294 4.77892ZM17.1717 6.75V6H4.32833V6.75V7.5H17.1717V6.75ZM2.50294 4.77892L1.79088 4.54339C1.6738 4.89737 1.54299 5.27913 1.50924 5.62574C1.46839 6.04513 1.56121 6.44001 1.85199 6.80834L2.44065 6.34361L3.02932 5.87888C3.0147 5.86036 3.00786 5.8486 3.005 5.84314C3.00353 5.84035 3.00281 5.83863 3.0025 5.83785C3.0022 5.83708 3.00206 5.83665 3.00198 5.83634C3.00195 5.83625 3.00098 5.83298 3.0004 5.82422C2.99979 5.8149 2.99955 5.79807 3.00217 5.77114C3.01591 5.63005 3.07667 5.43266 3.215 5.01444L2.50294 4.77892ZM4.32833 6.75V6C3.7796 6 3.46241 5.99752 3.23781 5.95964C3.05513 5.92884 3.0394 5.89165 3.02932 5.87888L2.44065 6.34361L1.85199 6.80834C2.16273 7.20195 2.56857 7.36797 2.98838 7.43876C3.36626 7.50248 3.8325 7.5 4.32833 7.5V6.75ZM18.9971 4.77892L18.285 5.01444C18.4233 5.43266 18.4841 5.63005 18.4978 5.77114C18.5005 5.79807 18.5002 5.8149 18.4996 5.82422C18.499 5.83298 18.498 5.83625 18.498 5.83634C18.4979 5.83665 18.4978 5.83708 18.4975 5.83785C18.4972 5.83863 18.4965 5.84035 18.495 5.84315C18.4921 5.8486 18.4853 5.86036 18.4707 5.87888L19.0593 6.34361L19.648 6.80834C19.9388 6.44001 20.0316 6.04513 19.9908 5.62574C19.957 5.27913 19.8262 4.89737 19.7091 4.5434L18.9971 4.77892ZM17.1717 6.75V7.5C17.6675 7.5 18.1337 7.50248 18.5116 7.43876C18.9314 7.36797 19.3373 7.20195 19.648 6.80834L19.0593 6.34361L18.4707 5.87888C18.4606 5.89165 18.4449 5.92884 18.2622 5.95964C18.0376 5.99752 17.7204 6 17.1717 6V6.75ZM10.1444 9.75V9H2.25V9.75V10.5H10.1444V9.75ZM2.25 12.75V13.5H2.75V12.75V12H2.25V12.75ZM2.75 12.75L2.02239 12.9319L2.4543 14.6595L3.1819 14.4776L3.90951 14.2957L3.47761 12.5681L2.75 12.75ZM6.09233 16.75V17.5H15.4077V16.75V16H6.09233V16.75ZM18.3181 14.4776L19.0457 14.6595L19.4776 12.9319L18.75 12.75L18.0224 12.5681L17.5905 14.2957L18.3181 14.4776ZM18.75 12.75V13.5H19.25V12.75V12H18.75V12.75ZM19.25 9.75V9H17.3556V9.75V10.5H19.25V9.75ZM16.2462 10.0859L15.8301 9.46186L13.8887 10.7562L14.3047 11.3802L14.7207 12.0042L16.6622 10.7099L16.2462 10.0859ZM13.1953 11.3802L13.6113 10.7562L11.6699 9.46186L11.2538 10.0859L10.8378 10.7099L12.7793 12.0042L13.1953 11.3802ZM18.75 12.75V12H17.25V12.75V13.5H18.75V12.75ZM2.75 12.75V13.5H9.75V12.75V12H2.75V12.75ZM14.3047 11.3802L13.8887 10.7562C13.8047 10.8121 13.6953 10.8121 13.6113 10.7562L13.1953 11.3802L12.7793 12.0042C13.3671 12.3961 14.1329 12.3961 14.7207 12.0042L14.3047 11.3802ZM17.3556 9.75V9C16.8126 9 16.2819 9.1607 15.8301 9.46186L16.2462 10.0859L16.6622 10.7099C16.8675 10.573 17.1088 10.5 17.3556 10.5V9.75ZM20.75 11.25H21.5C21.5 10.0074 20.4926 9 19.25 9V9.75V10.5C19.6642 10.5 20 10.8358 20 11.25H20.75ZM19.25 12.75V13.5C20.4926 13.5 21.5 12.4926 21.5 11.25H20.75H20C20 11.6642 19.6642 12 19.25 12V12.75ZM3.1819 14.4776L2.4543 14.6595C2.87164 16.3289 4.37158 17.5 6.09233 17.5V16.75V16C5.05988 16 4.15992 15.2973 3.90951 14.2957L3.1819 14.4776ZM0.75 11.25H0C0 12.4926 1.00736 13.5 2.25 13.5V12.75V12C1.83579 12 1.5 11.6642 1.5 11.25H0.75ZM2.25 9.75V9C1.00736 9 0 10.0074 0 11.25H0.75H1.5C1.5 10.8358 1.83579 10.5 2.25 10.5V9.75ZM15.4077 16.75V17.5C17.1284 17.5 18.6284 16.3289 19.0457 14.6595L18.3181 14.4776L17.5905 14.2957C17.3401 15.2973 16.4401 16 15.4077 16V16.75ZM10.1444 9.75V10.5C10.3912 10.5 10.6325 10.573 10.8378 10.7099L11.2538 10.0859L11.6699 9.46186C11.2181 9.1607 10.6874 9 10.1444 9V9.75ZM13.7578 3.75V3H13.7488V3.75V4.5H13.7578V3.75ZM9.25 3.25L8.71967 2.71967L7.71967 3.71967L8.25 4.25L8.78033 4.78033L9.78033 3.78033L9.25 3.25Z" fill="var(--stroke-0, #1C1917)"/>
</svg>
