<svg preserveAspectRatio="none" width="100%" height="100%" overflow="visible" style="display: block;" viewBox="0 0 18 19" fill="none" xmlns="http://www.w3.org/2000/svg">
<path id="Vector" d="M8 14.4528V7.95284H8.5L12.5 13.9528H13V7.45284M1.5 2.45284L4 4.95284M4 4.95284L17 3.95284M4 4.95284V17.4528M16.077 17.0238L4.547 17.9108C4.37939 17.9236 4.21125 17.894 4.05814 17.8246C3.90503 17.7552 3.77188 17.6483 3.671 17.5138L1.2 14.2198C1.07018 14.0467 1 13.8362 1 13.6198V2.87884C1.00001 2.62696 1.09507 2.38436 1.26618 2.19952C1.4373 2.01469 1.67187 1.90124 1.923 1.88184L13.312 1.00584C13.7577 0.971711 14.202 1.08789 14.574 1.33584L16.109 2.35884C16.383 2.54142 16.6077 2.78884 16.7631 3.07912C16.9186 3.3694 16.9999 3.69357 17 4.02284V16.0268C17 16.2787 16.9049 16.5213 16.7338 16.7062C16.5627 16.891 16.3281 17.0044 16.077 17.0238Z" stroke="var(--stroke-0, #1C1917)" stroke-width="2" stroke-linecap="round" stroke-linejoin="round"/>
</svg>
