<svg preserveAspectRatio="none" width="100%" height="100%" overflow="visible" style="display: block;" viewBox="0 0 22 18" fill="none" xmlns="http://www.w3.org/2000/svg">
<path id="Vector" d="M4.75781 8.75001H4.74883M11.0599 13.4025C12.1007 14.1311 12.75 15.3265 12.75 16.6345C12.75 16.6985 12.6965 16.7503 12.6319 16.75C9.71485 16.7371 8.40844 16.2433 7.8594 15.4282L6.75 13.6069C4.25848 13.1037 1.96828 11.5125 0.75 8.83333C1.96828 6.15415 4.25849 4.56297 6.75002 4.05979M11.0599 13.4025C13.2301 12.7423 15.1651 11.2192 16.25 8.83333M11.0599 13.4025C10.6576 13.1209 10.2135 12.9447 9.75 12.7918M11.06 4.2642C12.1007 3.53563 12.75 2.34024 12.75 1.03219C12.75 0.205611 8.44172 1.37407 7.8594 2.23847L6.75002 4.05979M11.06 4.2642C11.06 4.2642 11.06 4.26419 11.06 4.2642ZM11.06 4.2642C9.66606 3.84012 8.17511 3.77199 6.75002 4.05979M11.06 4.2642C13.2302 4.92444 15.1651 6.44749 16.25 8.83333M16.25 8.83333C16.5833 8.17358 18.35 5.86449 20.75 5.86449C19.9167 6.68916 18.55 9.82294 19.75 11.8022C18.55 11.8022 16.75 9.49307 16.25 8.83333Z" stroke="var(--stroke-0, #1C1917)" stroke-width="1.5" stroke-linecap="round" stroke-linejoin="round"/>
</svg>
