<svg preserveAspectRatio="none" width="100%" height="100%" overflow="visible" style="display: block;" viewBox="0 0 22 21" fill="none" xmlns="http://www.w3.org/2000/svg">
<path id="Vector" d="M17.0006 8.0001C16.5864 8.0001 16.2506 8.33589 16.2506 8.7501C16.2506 9.16432 16.5864 9.5001 17.0006 9.5001V8.7501V8.0001ZM20.7476 10.3339L21.4972 10.3592L21.4972 10.3592L20.7476 10.3339ZM15.6197 15.0115C15.2118 15.0835 14.9395 15.4726 15.0115 15.8805C15.0835 16.2884 15.4726 16.5607 15.8805 16.4887L15.7501 15.7501L15.6197 15.0115ZM0.751515 8.75022L0.00165122 8.76453L0.751515 8.75022ZM4.69635 18.8646L4.23921 19.4591L4.23921 19.4591L4.69635 18.8646ZM16.7487 8.75022L17.4985 8.76453L17.4985 8.76453L16.7487 8.75022ZM12.8038 18.8646L13.261 19.4591L13.261 19.4591L12.8038 18.8646ZM9.50008 6.7501C9.50008 6.33589 9.1643 6.0001 8.75008 6.0001C8.33587 6.0001 8.00008 6.33589 8.00008 6.7501H8.75008H9.50008ZM8.00008 11.7501C8.00008 12.1643 8.33587 12.5001 8.75008 12.5001C9.1643 12.5001 9.50008 12.1643 9.50008 11.7501H8.75008H8.00008ZM7.25432 14.5467L6.51347 14.4299L7.25432 14.5467ZM10.2435 14.5467L9.50269 14.6635L9.50269 14.6635L10.2435 14.5467ZM9.95162 12.6952L10.6925 12.5784L10.6925 12.5784L9.95162 12.6952ZM7.54624 12.6952L6.80539 12.5784L7.54624 12.6952ZM10.4539 1.38774C10.806 1.16966 10.9147 0.70739 10.6967 0.355234C10.4786 0.00307786 10.0163 -0.105612 9.66415 0.112469L10.059 0.750103L10.4539 1.38774ZM8.00133 3.7501C8.00133 4.16432 8.33712 4.5001 8.75133 4.5001C9.16554 4.5001 9.50133 4.16432 9.50133 3.7501H8.75133H8.00133ZM6.7995 2.80029C7.10335 2.51878 7.12148 2.04426 6.83998 1.7404C6.55847 1.43654 6.08395 1.41842 5.78009 1.69992L6.28979 2.2501L6.7995 2.80029ZM5.00008 3.7501C5.00008 4.16432 5.33587 4.5001 5.75008 4.5001C6.1643 4.5001 6.50008 4.16432 6.50008 3.7501H5.75008H5.00008ZM13.1462 2.88774C13.4984 2.66966 13.607 2.20739 13.389 1.85523C13.1709 1.50308 12.7086 1.39439 12.3565 1.61247L12.7513 2.2501L13.1462 2.88774ZM11.5001 3.7501C11.5001 4.16432 11.8359 4.5001 12.2501 4.5001C12.6643 4.5001 13.0001 4.16432 13.0001 3.7501H12.2501H11.5001ZM17.0006 8.7501V9.5001H18.3904V8.7501V8.0001H17.0006V8.7501ZM20.7476 10.3339L19.998 10.3086C19.9644 11.3054 19.7241 12.3181 19.0989 13.1493C18.4849 13.9657 17.4366 14.6908 15.6197 15.0115L15.7501 15.7501L15.8805 16.4887C18.0026 16.1141 19.4162 15.2228 20.2977 14.0509C21.1681 12.8937 21.4571 11.5459 21.4972 10.3592L20.7476 10.3339ZM18.3904 8.7501V9.5001C18.8416 9.5001 19.1804 9.51671 19.4376 9.5543C19.6983 9.59241 19.8218 9.64507 19.8775 9.68049C19.8938 9.69084 20.0177 9.7262 19.998 10.3086L20.7476 10.3339L21.4972 10.3592C21.5221 9.62331 21.3931 8.86677 20.6825 8.4148C20.3747 8.21906 20.0163 8.12294 19.6545 8.07007C19.2892 8.01668 18.8649 8.0001 18.3904 8.0001V8.7501ZM0.751515 8.75022L0.00165122 8.76453C0.0754359 12.6324 0.569874 16.638 4.23921 19.4591L4.69635 18.8646L5.15349 18.27C2.074 15.9023 1.5741 12.5479 1.50138 8.73592L0.751515 8.75022ZM16.7487 8.75022L15.9988 8.73592C15.9261 12.5479 15.4262 15.9023 12.3467 18.27L12.8038 18.8646L13.261 19.4591C16.9303 16.638 17.4247 12.6324 17.4985 8.76453L16.7487 8.75022ZM3.40927 6.7501V7.5001H14.0909V6.7501V6.0001H3.40927V6.7501ZM9.66944 19.7501V19.0001H7.83073V19.7501V20.5001H9.66944V19.7501ZM0.751515 8.75022L1.50138 8.73592C1.48568 7.91282 1.62294 7.77854 1.68896 7.7293C1.7496 7.68407 1.88262 7.61787 2.1788 7.56957C2.47318 7.52156 2.86896 7.5001 3.40927 7.5001V6.7501V6.0001C2.84562 6.0001 2.35324 6.02131 1.93736 6.08913C1.52327 6.15666 1.12391 6.27947 0.792151 6.52691C0.0733575 7.06303 -0.0142913 7.9288 0.00165122 8.76453L0.751515 8.75022ZM16.7487 8.75022L17.4985 8.76453C17.5145 7.9288 17.4268 7.06303 16.708 6.52691C16.3763 6.27947 15.9769 6.15666 15.5628 6.08913C15.1469 6.02131 14.6545 6.0001 14.0909 6.0001V6.7501V7.5001C14.6312 7.5001 15.027 7.52156 15.3214 7.56957C15.6175 7.61787 15.7506 7.68407 15.8112 7.7293C15.8772 7.77854 16.0145 7.91282 15.9988 8.73592L16.7487 8.75022ZM12.8038 18.8646L12.3467 18.27C11.9351 18.5864 11.5818 18.7582 11.198 18.8587C10.799 18.9631 10.3321 19.0001 9.66944 19.0001V19.7501V20.5001C10.3706 20.5001 10.9908 20.4635 11.5779 20.3098C12.1802 20.1521 12.7122 19.8811 13.261 19.4591L12.8038 18.8646ZM4.69635 18.8646L4.23921 19.4591C4.78799 19.8811 5.31992 20.1521 5.92228 20.3098C6.50942 20.4635 7.12956 20.5001 7.83073 20.5001V19.7501V19.0001C7.16811 19.0001 6.70122 18.9631 6.30219 18.8587C5.91838 18.7582 5.56503 18.5864 5.15349 18.27L4.69635 18.8646ZM8.75008 6.7501H8.00008V11.7501H8.75008H9.50008V6.7501H8.75008ZM9.95162 12.6952L9.21077 12.812L9.50269 14.6635L10.2435 14.5467L10.9844 14.4299L10.6925 12.5784L9.95162 12.6952ZM7.25432 14.5467L7.99517 14.6635L8.28709 12.812L7.54624 12.6952L6.80539 12.5784L6.51347 14.4299L7.25432 14.5467ZM8.74893 11.7501V12.5001C9.03984 12.5001 9.19098 12.6865 9.21077 12.812L9.95162 12.6952L10.6925 12.5784C10.5412 11.6193 9.6672 11.0001 8.74893 11.0001V11.7501ZM8.74893 11.7501V11.0001C7.83065 11.0001 6.95661 11.6193 6.80539 12.5784L7.54624 12.6952L8.28709 12.812C8.30688 12.6865 8.45802 12.5001 8.74893 12.5001V11.7501ZM10.2435 14.5467L9.50269 14.6635C9.4868 14.5628 9.52273 14.4566 9.57566 14.3923C9.60937 14.3514 9.61875 14.3645 9.5412 14.396C9.3863 14.4589 9.10666 14.506 8.77069 14.4995C8.43757 14.493 8.1453 14.4357 7.97333 14.3641C7.88491 14.3273 7.8812 14.3086 7.90834 14.3389C7.95311 14.3889 8.01931 14.5104 7.99517 14.6635L7.25432 14.5467L6.51347 14.4299C6.45481 14.802 6.59345 15.119 6.79079 15.3394C6.97051 15.5402 7.19953 15.6668 7.39716 15.749C7.7973 15.9155 8.29046 15.9905 8.74157 15.9992C9.18983 16.0079 9.69322 15.9532 10.1056 15.7857C10.3117 15.702 10.5508 15.5677 10.7335 15.3459C10.9354 15.1008 11.0396 14.7801 10.9844 14.4299L10.2435 14.5467ZM10.059 0.750103L9.66415 0.112469C9.23191 0.380143 8.82424 0.885856 8.52853 1.48073C8.22319 2.09499 8.00133 2.87395 8.00133 3.7501H8.75133H9.50133C9.50133 3.12626 9.65993 2.57452 9.87173 2.14843C10.0932 1.70296 10.3393 1.45867 10.4539 1.38774L10.059 0.750103ZM6.28979 2.2501C5.78009 1.69992 5.77982 1.70017 5.77955 1.70042C5.77945 1.70051 5.77918 1.70077 5.77899 1.70094C5.77862 1.70129 5.77823 1.70164 5.77784 1.70201C5.77706 1.70274 5.77624 1.70351 5.77539 1.70431C5.77369 1.70591 5.77185 1.70765 5.76989 1.70953C5.76595 1.71329 5.7615 1.71761 5.75656 1.72249C5.74668 1.73225 5.73485 1.74427 5.72135 1.75856C5.69439 1.78711 5.66063 1.82489 5.62254 1.87194C5.54648 1.96589 5.45212 2.09808 5.35993 2.26889C5.17409 2.61323 5.00008 3.10964 5.00008 3.7501H5.75008H6.50008C6.50008 3.39056 6.59594 3.13698 6.67995 2.98132C6.72269 2.90213 6.76325 2.84681 6.78839 2.81577C6.80089 2.80032 6.8093 2.79122 6.81185 2.78852C6.81311 2.78719 6.81287 2.78749 6.8109 2.78943C6.80992 2.79041 6.80849 2.7918 6.8066 2.79361C6.80566 2.79451 6.8046 2.79552 6.80341 2.79663C6.80282 2.79719 6.8022 2.79777 6.80155 2.79838C6.80122 2.79868 6.80089 2.799 6.80055 2.79931C6.80037 2.79947 6.80011 2.79972 6.80003 2.79979C6.79976 2.80004 6.7995 2.80029 6.28979 2.2501ZM12.7513 2.2501L12.3565 1.61247C12.1205 1.75857 11.9784 1.98159 11.8995 2.12608C11.8091 2.29152 11.7376 2.47578 11.6824 2.65217C11.5739 2.99894 11.5001 3.40816 11.5001 3.7501H12.2501H13.0001C13.0001 3.59205 13.0402 3.33592 13.114 3.10001C13.1499 2.98507 13.1866 2.89866 13.2159 2.8451C13.2566 2.7706 13.2454 2.82628 13.1462 2.88774L12.7513 2.2501Z" fill="var(--stroke-0, #1C1917)"/>
</svg>
