<svg preserveAspectRatio="none" width="100%" height="100%" overflow="visible" style="display: block;" viewBox="0 0 15 22" fill="none" xmlns="http://www.w3.org/2000/svg">
<path id="Vector" d="M1.23446 11.75L0.6354 12.2012C0.777103 12.3894 0.998944 12.5 1.23446 12.5V11.75ZM13.2651 11.75V12.5C13.5006 12.5 13.7225 12.3894 13.8642 12.2012L13.2651 11.75ZM11.7195 7.79176L11.5832 8.52927L11.5832 8.52927L11.7195 7.79176ZM8.65584 8.29833C8.40662 8.62919 8.4728 9.09943 8.80365 9.34864C9.13451 9.59786 9.60474 9.53168 9.85396 9.20083L9.2549 8.74958L8.65584 8.29833ZM7.42766 2.67272L8.14631 2.45814L8.14631 2.45814L7.42766 2.67272ZM8.25234 0.75L8.66763 1.37453C8.94298 1.19144 9.06593 0.849622 8.97029 0.533088C8.87466 0.216554 8.58301 0 8.25234 0V0.75ZM5.33067 6.37442C5.67559 6.60378 6.14113 6.51009 6.37049 6.16517C6.59984 5.82025 6.50616 5.35471 6.16124 5.12536L5.74596 5.74989L5.33067 6.37442ZM4.59457 9.4349C5.00055 9.5171 5.39629 9.25462 5.47849 8.84865C5.56068 8.44267 5.29821 8.04693 4.89223 7.96473L4.7434 8.69981L4.59457 9.4349ZM3.23957 8.49984C3.65378 8.49984 3.98957 8.16406 3.98957 7.74984C3.98957 7.33563 3.65378 6.99984 3.23957 6.99984V7.74984V8.49984ZM1.25058 11.75V11C1.02309 11 0.807898 11.1033 0.665552 11.2807C0.523205 11.4582 0.469093 11.6906 0.518443 11.9127L1.25058 11.75ZM2.55452 17.6177L3.28666 17.455L3.28666 17.455L2.55452 17.6177ZM11.9466 17.6177L11.2145 17.455L11.2145 17.455L11.9466 17.6177ZM13.2506 11.75L13.9827 11.9127C14.0321 11.6906 13.978 11.4582 13.8356 11.2807C13.6933 11.1033 13.4781 11 13.2506 11V11.75ZM10.8977 20.3101L11.367 20.8951L11.367 20.8951L10.8977 20.3101ZM3.60347 20.3101L3.13418 20.8951L3.13418 20.8951L3.60347 20.3101ZM1.23446 11.75V12.5H13.2651V11.75V11H1.23446V11.75ZM11.7195 7.79176L11.8558 7.05425C11.6621 7.01845 11.4629 6.99984 11.26 6.99984V7.74984V8.49984C11.371 8.49984 11.479 8.51001 11.5832 8.52927L11.7195 7.79176ZM11.26 7.74984V6.99984C10.1951 6.99984 9.249 7.51087 8.65584 8.29833L9.2549 8.74958L9.85396 9.20083C10.1754 8.77415 10.6851 8.49984 11.26 8.49984V7.74984ZM7.42766 2.67272L8.14631 2.45814C8.0938 2.2823 8.09423 2.11208 8.1529 1.95225C8.21094 1.79412 8.34765 1.5873 8.66763 1.37453L8.25234 0.75L7.83706 0.125469C7.29837 0.483675 6.93051 0.929335 6.74476 1.43538C6.55964 1.93973 6.57706 2.44538 6.70901 2.8873L7.42766 2.67272ZM8.25234 0.75V0C6.84144 0 5.59475 0.433759 4.72996 1.15441C3.86282 1.87703 3.34435 2.93466 3.58842 4.08097L4.32197 3.92479L5.05553 3.7686C4.95506 3.29673 5.13797 2.76697 5.69024 2.30674C6.24488 1.84455 7.13564 1.5 8.25234 1.5V0.75ZM4.32197 3.92479L3.58842 4.08098C3.77421 4.95358 4.37742 5.74055 5.33067 6.37442L5.74596 5.74989L6.16124 5.12536C5.43221 4.64059 5.13727 4.1525 5.05553 3.7686L4.32197 3.92479ZM4.32197 3.92479L4.04635 3.22727C1.10703 4.38872 1.4606 8.80037 4.59457 9.4349L4.7434 8.69981L4.89223 7.96473C3.23941 7.63009 3.03055 5.24151 4.59759 4.62231L4.32197 3.92479ZM3.23957 7.74984V6.99984C0.571668 6.99984 -0.930249 10.1227 0.6354 12.2012L1.23446 11.75L1.83353 11.2988C1.00265 10.1957 1.82542 8.49984 3.23957 8.49984V7.74984ZM13.2651 11.75L13.8642 12.2012C15.2801 10.3215 14.2137 7.48998 11.8558 7.05425L11.7195 7.79176L11.5832 8.52927C12.8341 8.76044 13.4182 10.3002 12.6661 11.2988L13.2651 11.75ZM11.7195 7.79176L12.4605 7.90724C12.6298 6.82116 12.4706 5.96595 12.0188 5.29241C11.5838 4.64382 10.9431 4.26751 10.3821 3.99483C10.1041 3.85976 9.80215 3.73062 9.55279 3.61822C9.28966 3.49961 9.06043 3.38918 8.85997 3.26806C8.4682 3.03137 8.24551 2.79038 8.14631 2.45814L7.42766 2.67272L6.70901 2.8873C6.95404 3.70795 7.5141 4.20744 8.08429 4.55193C8.3648 4.72141 8.66135 4.86174 8.93638 4.98572C9.22518 5.1159 9.47374 5.22116 9.72636 5.34393C10.2264 5.58695 10.5666 5.82015 10.7731 6.12798C10.9628 6.41086 11.1058 6.85899 10.9784 7.67627L11.7195 7.79176ZM1.25058 11.75L0.518443 11.9127L1.82238 17.7804L2.55452 17.6177L3.28666 17.455L1.98272 11.5873L1.25058 11.75ZM6.45927 20.75V21.5H8.0419V20.75V20H6.45927V20.75ZM11.9466 17.6177L12.6788 17.7804L13.9827 11.9127L13.2506 11.75L12.5184 11.5873L11.2145 17.455L11.9466 17.6177ZM13.2506 11.75V11H1.25058V11.75V12.5H13.2506V11.75ZM8.0419 20.75V21.5C8.79243 21.5 9.42263 21.5013 9.93135 21.4395C10.4604 21.3753 10.9432 21.2351 11.367 20.8951L10.8977 20.3101L10.4284 19.7251C10.3038 19.825 10.1278 19.9047 9.75063 19.9505C9.35312 19.9987 8.82962 20 8.0419 20V20.75ZM11.9466 17.6177L11.2145 17.455C11.0436 18.224 10.9288 18.7347 10.7955 19.1123C10.669 19.4706 10.553 19.6251 10.4284 19.7251L10.8977 20.3101L11.367 20.8951C11.7908 20.5552 12.0325 20.1143 12.2099 19.6118C12.3805 19.1285 12.516 18.5131 12.6788 17.7804L11.9466 17.6177ZM2.55452 17.6177L1.82238 17.7804C1.9852 18.5131 2.12065 19.1285 2.29127 19.6118C2.46871 20.1143 2.71039 20.5552 3.13418 20.8951L3.60347 20.3101L4.07277 19.7251C3.94815 19.6251 3.8322 19.4706 3.70569 19.1123C3.57236 18.7347 3.45754 18.224 3.28666 17.455L2.55452 17.6177ZM6.45927 20.75V20C5.67155 20 5.14804 19.9987 4.75053 19.9505C4.37332 19.9047 4.19739 19.825 4.07277 19.7251L3.60347 20.3101L3.13418 20.8951C3.55796 21.2351 4.0408 21.3753 4.56982 21.4395C5.07854 21.5013 5.70873 21.5 6.45927 21.5V20.75Z" fill="var(--stroke-0, #1C1917)"/>
</svg>
