<svg preserveAspectRatio="none" width="100%" height="100%" overflow="visible" style="display: block;" viewBox="0 0 16 22" fill="none" xmlns="http://www.w3.org/2000/svg">
<path id="Vector" d="M7 5.75C7 6.16421 7.33579 6.5 7.75 6.5C8.16421 6.5 8.5 6.16421 8.5 5.75H7.75H7ZM10.2468 0.977691L10.4494 0.255594L10.4494 0.255594L10.2468 0.977691ZM13.5473 2.68305C13.9461 2.79498 14.3602 2.56242 14.4721 2.16362C14.584 1.76482 14.3515 1.35078 13.9527 1.23885L13.75 1.96095L13.5473 2.68305ZM2.49612 5.6738C2.45404 5.26173 2.08587 4.9618 1.6738 5.00388C1.26173 5.04596 0.961797 5.41413 1.00388 5.8262L1.75 5.75L2.49612 5.6738ZM2.8898 16.9106L3.63592 16.8344L2.8898 16.9106ZM14.4961 5.8262C14.5382 5.41413 14.2383 5.04596 13.8262 5.00388C13.4141 4.9618 13.046 5.26173 13.0039 5.6738L13.75 5.75L14.4961 5.8262ZM12.6102 16.9106L11.8641 16.8344L11.8641 16.8344L12.6102 16.9106ZM11.782 19.9313L11.2846 19.3699L11.2846 19.3699L11.782 19.9313ZM3.71796 19.9313L4.21538 19.3699L4.21537 19.3699L3.71796 19.9313ZM0.75 5C0.335786 5 0 5.33579 0 5.75C0 6.16421 0.335786 6.5 0.75 6.5V5.75V5ZM14.75 6.5C15.1642 6.5 15.5 6.16421 15.5 5.75C15.5 5.33579 15.1642 5 14.75 5V5.75V6.5ZM2.75 10C2.33579 10 2 10.3358 2 10.75C2 11.1642 2.33579 11.5 2.75 11.5V10.75V10ZM12.75 11.5C13.1642 11.5 13.5 11.1642 13.5 10.75C13.5 10.3358 13.1642 10 12.75 10V10.75V11.5ZM2.75 14C2.33579 14 2 14.3358 2 14.75C2 15.1642 2.33579 15.5 2.75 15.5V14.75V14ZM12.75 15.5C13.1642 15.5 13.5 15.1642 13.5 14.75C13.5 14.3358 13.1642 14 12.75 14V14.75V15.5ZM7.75 5.75H8.5V3.09832H7.75H7V5.75H7.75ZM10.2468 0.977691L10.0441 1.69979L13.5473 2.68305L13.75 1.96095L13.9527 1.23885L10.4494 0.255594L10.2468 0.977691ZM7.75 3.09832H8.5C8.5 2.56188 8.52387 2.1783 8.57755 1.90451C8.63182 1.62767 8.69936 1.55593 8.71091 1.54527C8.71481 1.54167 8.72386 1.53344 8.75319 1.52401C8.78699 1.51315 8.85106 1.49999 8.96086 1.5C9.19098 1.50003 9.53386 1.55658 10.0441 1.69979L10.2468 0.977691L10.4494 0.255594C9.89809 0.100851 9.39811 5.07406e-05 8.96104 1.94857e-08C8.51037 -5.22802e-05 8.05632 0.108162 7.69352 0.443034C7.34627 0.763555 7.1877 1.19697 7.10557 1.61595C7.02283 2.03798 7 2.5409 7 3.09832H7.75ZM1.75 5.75L1.00388 5.8262L2.14368 16.9868L2.8898 16.9106L3.63592 16.8344L2.49612 5.6738L1.75 5.75ZM13.75 5.75L13.0039 5.6738L11.8641 16.8344L12.6102 16.9106L13.3563 16.9868L14.4961 5.8262L13.75 5.75ZM12.6102 16.9106L11.8641 16.8344C11.7764 17.6929 11.7166 18.2636 11.6164 18.6868C11.5214 19.0878 11.4111 19.2579 11.2846 19.3699L11.782 19.9313L12.2794 20.4926C12.7244 20.0983 12.9425 19.5962 13.076 19.0325C13.2042 18.491 13.2728 17.8046 13.3563 16.9868L12.6102 16.9106ZM2.8898 16.9106L2.14368 16.9868C2.2272 17.8046 2.29578 18.491 2.42399 19.0325C2.55748 19.5962 2.7756 20.0983 3.22055 20.4926L3.71796 19.9313L4.21537 19.3699C4.08895 19.2579 3.97857 19.0878 3.88363 18.6868C3.7834 18.2636 3.72359 17.6929 3.63592 16.8344L2.8898 16.9106ZM3.71796 19.9313L3.22055 20.4926C3.46547 20.7096 3.778 20.8646 4.0875 20.9802C4.40579 21.0991 4.76868 21.1937 5.15139 21.268C5.91699 21.4165 6.81508 21.4934 7.70468 21.4996C8.59402 21.5058 9.50084 21.4414 10.283 21.2957C11.0261 21.1572 11.7948 20.9221 12.2794 20.4926L11.782 19.9313L11.2846 19.3699C11.1269 19.5097 10.7136 19.6896 10.0083 19.821C9.34199 19.9452 8.53393 20.0053 7.71509 19.9996C6.8965 19.994 6.09309 19.9227 5.43701 19.7954C5.10888 19.7318 4.83088 19.6567 4.61238 19.575C4.38509 19.4901 4.26492 19.4138 4.21538 19.3699L3.71796 19.9313ZM0.75 5.75V6.5H14.75V5.75V5H0.75V5.75ZM2.75 10.75V11.5H12.75V10.75V10H2.75V10.75ZM2.75 14.75V15.5H12.75V14.75V14H2.75V14.75Z" fill="var(--stroke-0, #1C1917)"/>
</svg>
