<svg preserveAspectRatio="none" width="100%" height="100%" overflow="visible" style="display: block;" viewBox="0 0 22 20" fill="none" xmlns="http://www.w3.org/2000/svg">
<path id="Vector" d="M2.28905 14.0002C1.87483 14.0002 1.53905 14.336 1.53905 14.7502C1.53905 15.1644 1.87483 15.5002 2.28905 15.5002V14.7502V14.0002ZM9.80105 15.5002C10.2153 15.5002 10.551 15.1644 10.551 14.7502C10.551 14.336 10.2153 14.0002 9.80105 14.0002V14.7502V15.5002ZM17.3125 14.0002C16.8983 14.0002 16.5625 14.336 16.5625 14.7502C16.5625 15.1644 16.8983 15.5002 17.3125 15.5002V14.7502V14.0002ZM19.8165 15.5002C20.2307 15.5002 20.5665 15.1644 20.5665 14.7502C20.5665 14.336 20.2307 14.0002 19.8165 14.0002V14.7502V15.5002ZM13.9666 1.47778C14.3684 1.37731 14.6127 0.970103 14.5123 0.568259C14.4118 0.166415 14.0046 -0.077896 13.6027 0.0225747L13.7847 0.750177L13.9666 1.47778ZM9.03578 6.46708C9.42324 6.32063 9.61863 5.88782 9.47218 5.50036C9.32574 5.11289 8.89293 4.91751 8.50546 5.06395L8.77062 5.76551L9.03578 6.46708ZM0.785679 9.79672L0.11177 10.1259C0.186546 10.279 0.311219 10.402 0.465267 10.4748L0.785679 9.79672ZM10.1208 10.3516L10.0926 9.60216L10.0926 9.60216L10.1208 10.3516ZM12.3873 11.828L11.6565 11.9965L11.6565 11.9965L12.3873 11.828ZM12.918 13.5541L12.3382 14.0298L12.3382 14.0298L12.918 13.5541ZM13.7001 13.7832L13.5102 13.0576L13.5102 13.0576L13.7001 13.7832ZM15.1501 11.2437L15.8774 11.4268L15.8774 11.4268L15.1501 11.2437ZM15.6086 10.5425L15.8545 11.2511L15.8545 11.2511L15.6086 10.5425ZM20.748 9.29282L21.498 9.29282L21.498 9.28014L21.4976 9.26746L20.748 9.29282ZM17.8491 4.57569L18.3149 3.98793L18.3149 3.98793L17.8491 4.57569ZM15.3926 3.82122L15.3326 3.07362L15.3326 3.07362L15.3926 3.82122ZM13.2708 3.6864C12.9574 3.95727 12.9229 4.43089 13.1938 4.74427C13.4647 5.05764 13.9383 5.09209 14.2517 4.82122L13.7612 4.25381L13.2708 3.6864ZM1.49317 9.57741C1.40166 9.17343 0.99998 8.92013 0.596002 9.01165C0.192025 9.10316 -0.0612763 9.50484 0.0302385 9.90882L0.761705 9.74311L1.49317 9.57741ZM1.73704 14.0486L2.46928 13.8863L2.4685 13.8829L1.73704 14.0486ZM3.30901 18.0899L2.83953 18.6747L2.83953 18.6747L3.30901 18.0899ZM20.1521 15.1429L19.406 15.0664L19.4057 15.0692L20.1521 15.1429ZM21.4886 9.46046C21.5309 9.04841 21.2311 8.68013 20.819 8.63788C20.407 8.59563 20.0387 8.89542 19.9964 9.30747L20.7425 9.38397L21.4886 9.46046ZM2.28905 14.7502V15.5002H9.80105V14.7502V14.0002H2.28905V14.7502ZM17.3125 14.7502V15.5002H19.8165V14.7502V14.0002H17.3125V14.7502ZM11.2849 2.75018V3.50018C12.2512 3.50018 13.0347 4.28361 13.0347 5.25018H13.7847H14.5347C14.5347 3.45532 13.0797 2.00018 11.2849 2.00018V2.75018ZM13.7847 5.25018H13.0347C13.0347 6.21674 12.2512 7.00018 11.2849 7.00018V7.75018V8.50018C13.0797 8.50018 14.5347 7.04503 14.5347 5.25018H13.7847ZM11.2849 7.75018V7.00018C10.3186 7.00018 9.53514 6.21674 9.53514 5.25018H8.78514H8.03514C8.03514 7.04503 9.49005 8.50018 11.2849 8.50018V7.75018ZM8.78514 5.25018H9.53514C9.53514 4.28361 10.3186 3.50018 11.2849 3.50018V2.75018V2.00018C9.49005 2.00018 8.03514 3.45532 8.03514 5.25018H8.78514ZM11.2849 2.75018L11.9964 2.98737C12.0884 2.7115 12.6344 1.81085 13.9666 1.47778L13.7847 0.750177L13.6027 0.0225747C11.7352 0.489506 10.8148 1.78886 10.5734 2.51298L11.2849 2.75018ZM8.77062 5.76551L8.50546 5.06395C5.53875 6.18523 3.41704 7.01924 2.08174 7.67107C1.42396 7.99217 0.893099 8.29879 0.544903 8.60837C0.370725 8.76323 0.189633 8.96414 0.0858225 9.21879C-0.0312499 9.50597 -0.0341063 9.82722 0.11177 10.1259L0.785679 9.79672L1.45959 9.46756C1.51453 9.58004 1.50708 9.70595 1.47484 9.78504C1.45586 9.83159 1.44902 9.81166 1.54159 9.72936C1.72688 9.56461 2.09949 9.33158 2.73975 9.01904C4.00053 8.40359 6.05316 7.59436 9.03578 6.46708L8.77062 5.76551ZM0.785679 9.79672L0.465267 10.4748C1.60731 11.0145 3.14834 11.1874 4.78216 11.227C6.43366 11.267 8.307 11.1702 10.1489 11.1011L10.1208 10.3516L10.0926 9.60216C8.21437 9.67263 6.40972 9.76597 4.81849 9.72742C3.2096 9.68844 1.94316 9.51413 1.10609 9.11861L0.785679 9.79672ZM12.3873 11.828L11.6565 11.9965C11.6942 12.16 11.7252 12.3196 11.7579 12.4865C11.7896 12.6483 11.8237 12.8219 11.8644 12.9883C11.9438 13.3131 12.0678 13.7002 12.3382 14.0298L12.918 13.5541L13.4978 13.0784C13.4448 13.0137 13.3854 12.8936 13.3214 12.6318C13.2904 12.5049 13.2627 12.3654 13.23 12.1984C13.1983 12.0366 13.1625 11.8518 13.1182 11.6596L12.3873 11.828ZM13.7001 13.7832L13.8899 14.5088C14.5437 14.3377 14.9549 13.8819 15.2347 13.3442C15.501 12.8327 15.6911 12.167 15.8774 11.4268L15.1501 11.2437L14.4228 11.0606C14.2338 11.8112 14.0791 12.3158 13.9042 12.6516C13.743 12.9612 13.6168 13.0297 13.5102 13.0576L13.7001 13.7832ZM15.6086 10.5425L15.8545 11.2511C16.0302 11.1901 16.3811 11.1614 16.9417 11.1626C17.4389 11.1637 18.098 11.1879 18.6746 11.1697C19.2494 11.1515 19.8974 11.0913 20.4207 10.8643C20.6934 10.7461 20.9702 10.5667 21.1786 10.2891C21.3941 10.0021 21.498 9.66094 21.498 9.29282L20.748 9.29282L19.998 9.29282C19.998 9.36896 19.9807 9.38634 19.9791 9.38846C19.9705 9.39998 19.9345 9.4402 19.8238 9.48821C19.5804 9.59379 19.1798 9.65296 18.6272 9.67042C18.0766 9.68783 17.5295 9.66391 16.945 9.66265C16.4238 9.66152 15.8172 9.67628 15.3627 9.83399L15.6086 10.5425ZM20.748 9.29282L21.4976 9.26746C21.463 8.24478 21.255 7.36117 20.7268 6.49334C20.2119 5.6474 19.4218 4.86529 18.3149 3.98793L17.8491 4.57569L17.3832 5.16344C18.4391 6.00036 19.0672 6.6517 19.4454 7.27321C19.8104 7.87281 19.9705 8.49063 19.9985 9.31818L20.748 9.29282ZM15.3926 3.82122L15.3326 3.07362C14.4179 3.14705 13.7514 3.27095 13.2708 3.6864L13.7612 4.25381L14.2517 4.82122C14.3214 4.76091 14.5168 4.64393 15.4526 4.56881L15.3926 3.82122ZM17.8491 4.57569L18.3149 3.98793C17.4737 3.32116 16.4079 2.98731 15.3326 3.07362L15.3926 3.82122L15.4526 4.56881C16.141 4.51355 16.8328 4.72716 17.3832 5.16344L17.8491 4.57569ZM15.1501 11.2437L15.8774 11.4268C15.8936 11.3624 15.9081 11.3107 15.923 11.267C15.938 11.223 15.9499 11.1975 15.9571 11.1845C15.9641 11.1719 15.9613 11.181 15.9432 11.198C15.9225 11.2175 15.8917 11.2382 15.8545 11.2511L15.6086 10.5425L15.3627 9.83399C14.9944 9.96181 14.7737 10.2258 14.6456 10.4567C14.5244 10.675 14.4612 10.9078 14.4228 11.0606L15.1501 11.2437ZM12.918 13.5541L12.3382 14.0298C12.74 14.5196 13.3751 14.6434 13.8899 14.5088L13.7001 13.7832L13.5102 13.0576C13.5037 13.0593 13.4963 13.0603 13.4891 13.0602C13.4819 13.0602 13.4768 13.0592 13.4744 13.0585C13.4721 13.0579 13.4739 13.058 13.4787 13.061C13.4838 13.0642 13.4909 13.0699 13.4978 13.0784L12.918 13.5541ZM10.1208 10.3516L10.1489 11.1011C10.9635 11.0705 11.5348 11.4683 11.6565 11.9965L12.3873 11.828L13.1182 11.6596C12.7756 10.1729 11.3255 9.55591 10.0926 9.60216L10.1208 10.3516ZM0.761705 9.74311L0.0302385 9.90882L1.00557 14.2143L1.73704 14.0486L2.4685 13.8829L1.49317 9.57741L0.761705 9.74311ZM1.73704 14.0486L1.0048 14.2108C1.25053 15.3197 1.44814 16.2173 1.69448 16.9161C1.94762 17.6343 2.27856 18.2244 2.83953 18.6747L3.30901 18.0899L3.7785 17.505C3.51676 17.2949 3.31146 16.9914 3.10917 16.4175C2.90008 15.8243 2.72305 15.0314 2.46927 13.8863L1.73704 14.0486ZM3.30901 18.0899L2.83953 18.6747C3.40051 19.125 4.04827 19.3205 4.80414 19.4122C5.5397 19.5015 6.45872 19.5003 7.59431 19.5003V18.7503V18.0003C6.42151 18.0003 5.60923 17.999 4.98493 17.9232C4.38093 17.8498 4.04024 17.7151 3.7785 17.505L3.30901 18.0899ZM7.59431 18.7503V19.5003H16.1717V18.7503V18.0003H7.59431V18.7503ZM16.1717 18.7503V19.5003C17.0129 19.5003 17.7157 19.5017 18.2769 19.4294C18.8592 19.3542 19.3875 19.1895 19.8306 18.788L19.3269 18.2323L18.8233 17.6765C18.6948 17.793 18.5067 17.8873 18.085 17.9417C17.642 17.9988 17.053 18.0003 16.1717 18.0003V18.7503ZM19.3269 18.2323L19.8306 18.788C20.2736 18.3864 20.4894 17.8768 20.6213 17.3046C20.7483 16.7533 20.8159 16.0536 20.8984 15.2165L20.1521 15.1429L19.4057 15.0692C19.3192 15.9464 19.2599 16.5324 19.1596 16.9677C19.0641 17.3821 18.9518 17.5601 18.8233 17.6765L19.3269 18.2323ZM20.1521 15.1429L20.8981 15.2194L21.4886 9.46046L20.7425 9.38397L19.9964 9.30747L19.406 15.0664L20.1521 15.1429Z" fill="var(--stroke-0, #1C1917)"/>
</svg>
