<svg preserveAspectRatio="none" width="100%" height="100%" overflow="visible" style="display: block;" viewBox="0 0 20 20" fill="none" xmlns="http://www.w3.org/2000/svg">
<path id="Vector" d="M14.2026 1.33814C13.9333 1.02335 13.4599 0.986416 13.1451 1.25564C12.8303 1.52487 12.7934 1.9983 13.0626 2.31309L13.6326 1.82561L14.2026 1.33814ZM3.00748 12.502C2.74725 12.1798 2.27504 12.1295 1.95278 12.3897C1.63052 12.6499 1.58023 13.1221 1.84046 13.4444L2.42397 12.9732L3.00748 12.502ZM11.1039 4.16422L10.5936 3.61463L10.5936 3.61463L11.1039 4.16422ZM14.1652 1.32165L14.6755 1.87125L14.6755 1.87125L14.1652 1.32165ZM17.1787 1.70599L17.8454 1.36248L17.8454 1.36248L17.1787 1.70599ZM15.5902 15.4848L16.104 16.0311C16.1126 16.023 16.121 16.0148 16.1291 16.0063L15.5902 15.4848ZM1.6511 17.112L1.28707 17.7677L1.28707 17.7677L1.6511 17.112ZM5.98647 9.52327L6.08226 8.77941L6.08226 8.77941L5.98647 9.52327ZM7.62838 9.73471L7.72417 8.99085L7.72417 8.99085L7.62838 9.73471ZM8.27121 9.34042L8.97778 9.59193L8.97778 9.59193L8.27121 9.34042ZM8.52171 8.63668L8.86493 7.96983C8.67261 7.87084 8.44691 7.85971 8.24578 7.93928C8.04465 8.01886 7.88767 8.1814 7.81514 8.38517L8.52171 8.63668ZM11.0192 7.91945L11.6175 8.37163L11.6175 8.37163L11.0192 7.91945ZM11.1014 4.48231L11.6631 3.98537L11.6631 3.98537L11.1014 4.48231ZM1.32835 14.1275L1.87601 14.6399L1.87601 14.6399L1.32835 14.1275ZM2.72721 12.6324L2.19062 12.1084C2.18689 12.1122 2.1832 12.1161 2.17955 12.12L2.72721 12.6324ZM5.64864 9.6407L6.18523 10.1647L6.18523 10.1647L5.64864 9.6407ZM15.6669 7.46082H14.9169C14.9169 11.6705 11.807 14.9678 8.1069 14.9678V15.7178V16.4678C12.7573 16.4678 16.4169 12.3716 16.4169 7.46082H15.6669ZM13.6326 1.82561L13.0626 2.31309C14.2079 3.65214 14.9169 5.46043 14.9169 7.46082H15.6669H16.4169C16.4169 5.10446 15.5812 2.95004 14.2026 1.33814L13.6326 1.82561ZM8.1069 15.7178V14.9678C6.02922 14.9678 4.23534 14.0226 3.00748 12.502L2.42397 12.9732L1.84046 13.4444C3.33349 15.2934 5.54561 16.4678 8.1069 16.4678V15.7178ZM11.1039 4.16422L11.6142 4.71382L14.6755 1.87125L14.1652 1.32165L13.6548 0.772057L10.5936 3.61463L11.1039 4.16422ZM17.1787 1.70599L16.512 2.04949C18.2182 5.36122 19.246 10.6283 15.0512 14.9632L15.5902 15.4848L16.1291 16.0063C20.9646 11.0093 19.6948 4.952 17.8454 1.36248L17.1787 1.70599ZM15.5902 15.4848L15.0763 14.9385C10.5073 19.2364 5.31117 18.2861 2.01513 16.4563L1.6511 17.112L1.28707 17.7677C4.93741 19.7942 10.9013 20.9251 16.104 16.0311L15.5902 15.4848ZM5.98647 9.52327L5.89067 10.2671L7.53258 10.4786L7.62838 9.73471L7.72417 8.99085L6.08226 8.77941L5.98647 9.52327ZM8.27121 9.34042L8.97778 9.59193L9.22828 8.88819L8.52171 8.63668L7.81514 8.38517L7.56463 9.08891L8.27121 9.34042ZM8.52171 8.63668L8.17848 9.30354C8.55067 9.4951 9.12989 9.60778 9.73963 9.5147C10.3789 9.41712 11.0751 9.08945 11.6175 8.37163L11.0192 7.91945L10.4208 7.46728C10.1372 7.84253 9.80575 7.98723 9.51327 8.03188C9.1913 8.08103 8.93479 8.00578 8.86493 7.96983L8.52171 8.63668ZM11.0192 7.91945L11.6175 8.37163C12.1188 7.70831 12.3456 6.87738 12.3553 6.11216C12.365 5.35968 12.1643 4.55197 11.6631 3.98537L11.1014 4.48231L10.5396 4.97924C10.7155 5.1781 10.8621 5.57515 10.8555 6.09298C10.849 6.59806 10.6961 7.10298 10.4208 7.46728L11.0192 7.91945ZM1.32835 14.1275L1.87601 14.6399L3.27488 13.1448L2.72721 12.6324L2.17955 12.12L0.780687 13.6151L1.32835 14.1275ZM2.72721 12.6324L3.26381 13.1564L6.18523 10.1647L5.64864 9.6407L5.11204 9.11671L2.19062 12.1084L2.72721 12.6324ZM5.98647 9.52327L6.08226 8.77941C5.72389 8.73326 5.36457 8.85811 5.11204 9.11671L5.64864 9.6407L6.18523 10.1647C6.1085 10.2433 5.99941 10.2811 5.89068 10.2671L5.98647 9.52327ZM1.6511 17.112L2.01513 16.4563C1.4334 16.1333 1.27746 15.2796 1.87601 14.6399L1.32835 14.1275L0.780687 13.6151C-0.337 14.8097 -0.327795 16.8712 1.28707 17.7677L1.6511 17.112ZM14.1652 1.32165L14.6755 1.87125C15.3283 1.26511 16.1985 1.44107 16.512 2.04949L17.1787 1.70599L17.8454 1.36248C16.9849 -0.307608 14.8806 -0.366192 13.6548 0.772057L14.1652 1.32165ZM7.62838 9.73471L7.53258 10.4786C8.16273 10.5597 8.7646 10.1908 8.97778 9.59193L8.27121 9.34042L7.56463 9.08891C7.58828 9.02248 7.65484 8.98193 7.72417 8.99085L7.62838 9.73471ZM11.1039 4.16422L10.5936 3.61463C10.1492 4.02722 10.2428 4.64372 10.5396 4.97925L11.1014 4.48231L11.6631 3.98537C11.7979 4.1377 11.8793 4.46766 11.6142 4.71382L11.1039 4.16422Z" fill="var(--stroke-0, #1C1917)"/>
</svg>
