<svg preserveAspectRatio="none" width="100%" height="100%" overflow="visible" style="display: block;" viewBox="0 0 22 22" fill="none" xmlns="http://www.w3.org/2000/svg">
<path id="Vector" d="M6.25 10.25L5.75 11.25M9.25 10.25L9.75 11.25M15.25 5.25L15.75 6.25M9.75 3.76625C10.5844 2.37313 10.86 1.31899 10.8624 0.750002C10.9206 2.36599 12.8549 3.24076 13.8287 1.75542C14.8025 3.24076 16.7368 2.36599 16.795 0.750002C16.7984 1.55672 17.3509 3.33869 19.2669 5.67931C20.1957 6.91365 20.75 8.3897 20.75 9.79874C20.75 11.8487 19.5768 13.6599 17.7837 14.75M14.75 14.75C14.75 18.0637 11.616 20.75 7.75 20.75C3.88401 20.75 0.75 18.0637 0.75 14.75C0.75 13.3485 1.31057 11.8805 2.25 10.6528C4.18778 8.32475 4.74651 6.55237 4.75 5.75C4.80882 7.35728 6.7651 8.22735 7.75 6.75C8.7349 8.22735 10.6912 7.35728 10.75 5.75C10.7535 6.55237 11.3122 8.32475 13.25 10.6528C14.1894 11.8805 14.75 13.3485 14.75 14.75Z" stroke="var(--stroke-0, #1C1917)" stroke-width="1.5" stroke-linecap="round" stroke-linejoin="round"/>
</svg>
