<svg preserveAspectRatio="none" width="100%" height="100%" overflow="visible" style="display: block;" viewBox="0 0 22 22" fill="none" xmlns="http://www.w3.org/2000/svg">
<path id="Vector" d="M15.5 16.75C15.5 16.3358 15.1642 16 14.75 16C14.3358 16 14 16.3358 14 16.75H14.75H15.5ZM7.5 16.75C7.5 16.3358 7.16421 16 6.75 16C6.33579 16 6 16.3358 6 16.75H6.75H7.5ZM13.0794 7.08587C13.2649 7.45623 13.7155 7.60609 14.0859 7.42059C14.4562 7.23509 14.6061 6.78449 14.4206 6.41413L13.75 6.75L13.0794 7.08587ZM7.07941 6.41413C6.89391 6.78449 7.04377 7.23509 7.41413 7.42059C7.78449 7.60609 8.23509 7.45623 8.42059 7.08587L7.75 6.75L7.07941 6.41413ZM14.5309 17.5048C14.1703 17.3009 13.7127 17.428 13.5089 17.7886C13.305 18.1492 13.4321 18.6067 13.7927 18.8106L14.1618 18.1577L14.5309 17.5048ZM7.70732 18.8106C8.06791 18.6067 8.19497 18.1492 7.99113 17.7886C7.78729 17.428 7.32973 17.3009 6.96915 17.5048L7.33824 18.1577L7.70732 18.8106ZM13.75 1.5C14.1642 1.5 14.5 1.16421 14.5 0.75C14.5 0.335786 14.1642 0 13.75 0V0.75V1.5ZM14.75 16.75H14C14 17.5061 13.6144 18.3249 12.9697 18.9697C12.3249 19.6144 11.5061 20 10.75 20V20.75V21.5C11.9939 21.5 13.1751 20.8856 14.0303 20.0303C14.8856 19.1751 15.5 17.9939 15.5 16.75H14.75ZM10.75 20.75V20C9.99392 20 9.17507 19.6144 8.53033 18.9697C7.88559 18.3249 7.5 17.5061 7.5 16.75H6.75H6C6 17.9939 6.61441 19.1751 7.46967 20.0303C8.32493 20.8856 9.50608 21.5 10.75 21.5V20.75ZM10.75 4.75V5.5C11.6976 5.5 12.5835 6.09568 13.0794 7.08587L13.75 6.75L14.4206 6.41413C13.7189 5.01312 12.3662 4 10.75 4V4.75ZM7.75 6.75L8.42059 7.08587C8.91654 6.09568 9.80237 5.5 10.75 5.5V4.75V4C9.13379 4 7.78112 5.01312 7.07941 6.41413L7.75 6.75ZM14.1618 18.1577L13.7927 18.8106C14.99 19.4874 16.1356 19.6537 17.1789 19.3635C18.2047 19.0782 19.0237 18.3816 19.6473 17.5377C20.8816 15.8674 21.5 13.4255 21.5 11.4538H20.75H20C20 13.1846 19.4419 15.2917 18.4409 16.6463C17.9469 17.3149 17.3835 17.7497 16.777 17.9184C16.1879 18.0822 15.4512 18.0251 14.5309 17.5048L14.1618 18.1577ZM20.75 11.4538H21.5C21.5 9.4581 20.9014 7.62179 19.8972 6.26692C18.8931 4.91216 17.4462 4 15.7813 4V4.75V5.5C16.8605 5.5 17.898 6.08854 18.6922 7.1601C19.4863 8.23155 20 9.74715 20 11.4538H20.75ZM15.7813 4.75V4C14.6098 4 13.2719 4.58552 12.2151 5.66084L12.75 6.18654L13.2849 6.71224C14.1105 5.87217 15.0793 5.5 15.7813 5.5V4.75ZM7.33824 18.1577L6.96915 17.5048C6.04878 18.0251 5.31212 18.0822 4.72303 17.9184C4.11649 17.7497 3.55315 17.3149 3.05906 16.6463C2.05807 15.2917 1.5 13.1846 1.5 11.4538H0.75H0C0 13.4255 0.6184 15.8674 1.8527 17.5377C2.47626 18.3816 3.29528 19.0782 4.32109 19.3635C5.36435 19.6537 6.51004 19.4874 7.70732 18.8106L7.33824 18.1577ZM0.75 11.4538H1.5C1.5 9.74715 2.01371 8.23155 2.80784 7.1601C3.60205 6.08854 4.63947 5.5 5.7187 5.5V4.75V4C4.05378 4 2.60686 4.91216 1.60275 6.26692C0.598566 7.62179 0 9.4581 0 11.4538H0.75ZM5.7187 4.75V5.5C6.42067 5.5 7.3895 5.87217 8.21508 6.71224L8.75 6.18654L9.28492 5.66084C8.22815 4.58552 6.89016 4 5.7187 4V4.75ZM10.75 4.75H11.5C11.5 4.16743 11.6356 3.29951 12.0099 2.60636C12.3667 1.94571 12.8968 1.5 13.75 1.5V0.75V0C12.2032 0 11.2333 0.887625 10.6901 1.89364C10.1644 2.86716 10 3.99924 10 4.75H10.75Z" fill="var(--stroke-0, #1C1917)"/>
</svg>
