<svg preserveAspectRatio="none" width="100%" height="100%" overflow="visible" style="display: block;" viewBox="0 0 20 20" fill="none" xmlns="http://www.w3.org/2000/svg">
<path id="Vector" d="M14.0926 0H10.0096C9.74436 0 9.49001 0.105357 9.30247 0.292893C9.11494 0.48043 9.00958 0.734784 9.00958 1V12.5C9.0097 12.7492 8.94776 12.9944 8.82935 13.2136C8.71094 13.4328 8.53978 13.6191 8.33134 13.7556C8.12291 13.8921 7.88375 13.9745 7.63548 13.9955C7.3872 14.0164 7.13763 13.9751 6.9093 13.8754C6.68096 13.7757 6.48106 13.6207 6.32765 13.4243C6.17424 13.228 6.07214 12.9966 6.03059 12.7509C5.98903 12.5053 6.00933 12.2531 6.08964 12.0173C6.16995 11.7814 6.30774 11.5693 6.49058 11.4L6.61058 11.3C6.73459 11.2067 6.8352 11.0859 6.90445 10.9471C6.9737 10.8082 7.0097 10.6552 7.00958 10.5V6.174C7.0097 6.02305 6.97565 5.87404 6.90998 5.73812C6.84431 5.60221 6.74872 5.48293 6.63038 5.38922C6.51204 5.29551 6.37403 5.22981 6.22668 5.19704C6.07933 5.16427 5.92648 5.16528 5.77958 5.2C3.98866 5.62208 2.41538 6.68778 1.35907 8.19435C0.302752 9.70092 -0.162887 11.5432 0.0507379 13.3708C0.264363 15.1983 1.14234 16.8836 2.51765 18.1059C3.89295 19.3282 5.66959 20.0023 7.50958 20L7.75258 19.995C9.69842 19.9319 11.5435 19.1147 12.8977 17.716C14.252 16.3173 15.0093 14.4469 15.0096 12.5V9.8L15.3206 9.953C16.4426 10.483 17.6536 10.821 18.9106 10.946C19.0496 10.9598 19.1901 10.9444 19.3228 10.9006C19.4555 10.8568 19.5776 10.7857 19.6811 10.6919C19.7847 10.598 19.8674 10.4835 19.924 10.3558C19.9805 10.228 20.0097 10.0897 20.0096 9.95V5.917C20.0095 5.68058 19.9258 5.45183 19.7731 5.27132C19.6204 5.09082 19.4087 4.97025 19.1756 4.931C18.1523 4.75737 17.2082 4.26988 16.4742 3.53603C15.7402 2.80218 15.2525 1.85828 15.0786 0.835C15.0395 0.601682 14.9191 0.389756 14.7385 0.236878C14.558 0.0839997 14.3291 6.9448e-05 14.0926 0Z" fill="var(--fill-0, #1C1917)"/>
</svg>
