<svg preserveAspectRatio="none" width="100%" height="100%" overflow="visible" style="display: block;" viewBox="0 0 22 18" fill="none" xmlns="http://www.w3.org/2000/svg">
<path id="Vector" d="M18.75 9.75C18.75 12.7524 18.75 14.2536 17.8713 15.1863C15.7844 17.4015 5.46604 17.1367 3.62866 15.1863C2.74998 14.2536 2.74998 12.7524 2.74998 9.75M5.74607 8.75C5.74607 6.22222 6.63278 1.31415 11.7461 0.75M13.75 8.75C13.75 6.81137 14.2618 3.48584 16.75 1.75M0.788527 9.38253C1.22651 5.5464 3.20287 0.75 10.79 0.75C18.3769 0.75 20.2948 5.5461 20.7141 9.38217C20.8936 11.0242 20.4086 10.9994 19.0576 10.2857C17.0138 9.20597 14.3157 8.51603 10.79 8.51603C7.25917 8.51603 4.51037 9.20801 2.44246 10.2905C1.08919 10.9988 0.600976 11.0252 0.788527 9.38253Z" stroke="var(--stroke-0, #1C1917)" stroke-width="1.5"/>
</svg>
