<svg preserveAspectRatio="none" width="100%" height="100%" overflow="visible" style="display: block;" viewBox="0 0 19 22" fill="none" xmlns="http://www.w3.org/2000/svg">
<path id="Vector" d="M9.25 0.75L9.8082 0.249092C9.66595 0.0905643 9.463 0 9.25 0C9.037 0 8.83405 0.0905643 8.6918 0.249092L9.25 0.75ZM8.5 7.75C8.5 8.16421 8.83579 8.5 9.25 8.5C9.66421 8.5 10 8.16421 10 7.75H9.25H8.5ZM12.0833 10.75L12.8142 10.5819C12.7359 10.2413 12.4328 10 12.0833 10C11.7339 10 11.4308 10.2413 11.3524 10.5819L12.0833 10.75ZM6.41667 10.75L7.14757 10.5819C7.06923 10.2413 6.7661 10 6.41667 10C6.06723 10 5.7641 10.2413 5.68576 10.5819L6.41667 10.75ZM2.98516 12.6016C2.90318 12.1955 2.50757 11.9329 2.10155 12.0148C1.69553 12.0968 1.43285 12.4924 1.51484 12.8984L2.25 12.75L2.98516 12.6016ZM2.77089 15.3296L2.03572 15.4781L2.03572 15.4781L2.77089 15.3296ZM15.7291 15.3296L14.994 15.1812L14.994 15.1812L15.7291 15.3296ZM16.9852 12.8984C17.0671 12.4924 16.8045 12.0968 16.3984 12.0148C15.9924 11.9329 15.5968 12.1955 15.5148 12.6016L16.25 12.75L16.9852 12.8984ZM14.0539 19.9877L14.5423 20.5569L14.5423 20.5569L14.0539 19.9877ZM4.44608 19.9877L3.95773 20.5569L3.95773 20.5569L4.44608 19.9877ZM10.75 3.25H10C10 3.66421 9.66421 4 9.25 4V4.75V5.5C10.4926 5.5 11.5 4.49264 11.5 3.25H10.75ZM9.25 4.75V4C8.83579 4 8.5 3.66421 8.5 3.25H7.75H7C7 4.49264 8.00736 5.5 9.25 5.5V4.75ZM7.75 3.25H8.5C8.5 3.25296 8.50066 3.21903 8.52707 3.13857C8.55222 3.06191 8.59301 2.96621 8.65122 2.85312C8.7682 2.62586 8.93236 2.3727 9.1089 2.12723C9.28347 1.88447 9.45967 1.66367 9.59305 1.50275C9.65942 1.42268 9.71442 1.35837 9.75231 1.31465C9.77124 1.2928 9.78585 1.27616 9.79541 1.26532C9.8002 1.25991 9.80371 1.25595 9.80588 1.25352C9.80696 1.2523 9.8077 1.25147 9.80809 1.25103C9.80829 1.25081 9.8084 1.25069 9.80842 1.25067C9.80842 1.25066 9.80841 1.25068 9.80838 1.25072C9.80836 1.25073 9.80832 1.25078 9.80831 1.25079C9.80826 1.25085 9.8082 1.25091 9.25 0.75C8.6918 0.249092 8.69173 0.249165 8.69166 0.249245C8.69163 0.24928 8.69155 0.249367 8.69149 0.249438C8.69136 0.249579 8.69121 0.249745 8.69104 0.249938C8.69069 0.250322 8.69026 0.250809 8.68973 0.251396C8.68868 0.252571 8.68727 0.254151 8.68552 0.256124C8.682 0.260071 8.6771 0.265597 8.67089 0.272625C8.65849 0.286678 8.64087 0.306757 8.61878 0.332242C8.57464 0.383172 8.51245 0.455921 8.4382 0.545504C8.29033 0.723895 8.09153 0.972759 7.8911 1.25145C7.69264 1.52742 7.4818 1.84749 7.31753 2.16664C7.16573 2.46155 7 2.85526 7 3.25H7.75ZM9.25 0.75C8.6918 1.25091 8.69174 1.25085 8.69169 1.25079C8.69168 1.25078 8.69164 1.25073 8.69162 1.25072C8.69159 1.25068 8.69158 1.25066 8.69158 1.25067C8.6916 1.25069 8.69171 1.25081 8.69191 1.25103C8.6923 1.25147 8.69304 1.2523 8.69412 1.25352C8.69629 1.25595 8.6998 1.25991 8.70459 1.26532C8.71415 1.27616 8.72876 1.2928 8.74769 1.31465C8.78558 1.35837 8.84058 1.42268 8.90695 1.50275C9.04033 1.66367 9.21653 1.88447 9.3911 2.12723C9.56764 2.3727 9.7318 2.62586 9.84878 2.85312C9.90699 2.96621 9.94778 3.06191 9.97293 3.13857C9.99934 3.21903 10 3.25296 10 3.25H10.75H11.5C11.5 2.85526 11.3343 2.46155 11.1825 2.16664C11.0182 1.84749 10.8074 1.52742 10.6089 1.25145C10.4085 0.972759 10.2097 0.723895 10.0618 0.545504C9.98755 0.455921 9.92536 0.383172 9.88122 0.332242C9.85913 0.306757 9.84151 0.286678 9.82911 0.272625C9.8229 0.265597 9.818 0.260071 9.81448 0.256124C9.81273 0.254151 9.81132 0.252571 9.81027 0.251396C9.80974 0.250809 9.80931 0.250322 9.80896 0.249938C9.80879 0.249745 9.80864 0.249579 9.80851 0.249438C9.80845 0.249367 9.80837 0.24928 9.80834 0.249245C9.80827 0.249165 9.8082 0.249092 9.25 0.75ZM9.25 4.75H8.5V7.75H9.25H10V4.75H9.25ZM17.75 10.25H17C17 11.131 16.1582 12 14.9167 12V12.75V13.5C16.8047 13.5 18.5 12.1304 18.5 10.25H17.75ZM14.9167 7.75V8.5C16.1582 8.5 17 9.36896 17 10.25H17.75H18.5C18.5 8.36961 16.8047 7 14.9167 7V7.75ZM3.58333 12.75V12C2.34177 12 1.5 11.131 1.5 10.25H0.75H0C0 12.1304 1.69528 13.5 3.58333 13.5V12.75ZM0.75 10.25H1.5C1.5 9.36896 2.34177 8.5 3.58333 8.5V7.75V7C1.69528 7 0 8.36961 0 10.25H0.75ZM3.58333 7.75V8.5H14.9167V7.75V7H3.58333V7.75ZM14.9167 12.75V12C13.8217 12 12.983 11.3155 12.8142 10.5819L12.0833 10.75L11.3524 10.9181C11.7087 12.4668 13.2702 13.5 14.9167 13.5V12.75ZM12.0833 10.75L11.3524 10.5819C11.1837 11.3155 10.345 12 9.25 12V12.75V13.5C10.8965 13.5 12.458 12.4668 12.8142 10.9181L12.0833 10.75ZM9.25 12.75V12C8.155 12 7.31635 11.3155 7.14757 10.5819L6.41667 10.75L5.68576 10.9181C6.04202 12.4668 7.60351 13.5 9.25 13.5V12.75ZM6.41667 10.75L5.68576 10.5819C5.51698 11.3155 4.67833 12 3.58333 12V12.75V13.5C5.22982 13.5 6.79131 12.4668 7.14757 10.9181L6.41667 10.75ZM2.25 12.75L1.51484 12.8984L2.03572 15.4781L2.77089 15.3296L3.50605 15.1812L2.98516 12.6016L2.25 12.75ZM9.08899 20.75V21.5H9.41101V20.75V20H9.08899V20.75ZM15.7291 15.3296L16.4643 15.4781L16.9852 12.8984L16.25 12.75L15.5148 12.6016L14.994 15.1812L15.7291 15.3296ZM9.41101 20.75V21.5C10.6427 21.5 11.6381 21.5015 12.434 21.3985C13.2538 21.2925 13.9476 21.0671 14.5423 20.5569L14.0539 19.9877L13.5656 19.4185C13.2717 19.6706 12.8955 19.8264 12.2417 19.9109C11.564 19.9985 10.6823 20 9.41101 20V20.75ZM15.7291 15.3296L14.994 15.1812C14.7282 16.4973 14.5405 17.421 14.3148 18.1148C14.0945 18.7924 13.864 19.1625 13.5656 19.4185L14.0539 19.9877L14.5423 20.5569C15.1324 20.0507 15.4773 19.3903 15.7413 18.5787C16 17.7833 16.2056 16.7592 16.4643 15.4781L15.7291 15.3296ZM2.77089 15.3296L2.03572 15.4781C2.29441 16.7592 2.50001 17.7833 2.75872 18.5787C3.02269 19.3903 3.36761 20.0507 3.95773 20.5569L4.44608 19.9877L4.93442 19.4185C4.636 19.1625 4.40554 18.7924 4.18517 18.1148C3.95952 17.421 3.7718 16.4973 3.50605 15.1812L2.77089 15.3296ZM9.08899 20.75V20C7.81773 20 6.93597 19.9985 6.25834 19.9109C5.60452 19.8264 5.22834 19.6706 4.93442 19.4185L4.44608 19.9877L3.95773 20.5569C4.55236 21.0671 5.24618 21.2925 6.06595 21.3985C6.86191 21.5015 7.85734 21.5 9.08899 21.5V20.75Z" fill="var(--stroke-0, #1C1917)"/>
</svg>
