<svg preserveAspectRatio="none" width="100%" height="100%" overflow="visible" style="display: block;" viewBox="0 0 22 14" fill="none" xmlns="http://www.w3.org/2000/svg">
<path id="Vector" d="M13.75 5.75C13.75 2.98858 11.8511 0.75 9.50877 0.75C7.8761 0.75 6.25 1.75 5.75 2.75M17.75 5.75C17.75 3.54086 16.2318 1.75 14.359 1.75C13.7767 1.75 13.2287 1.9231 12.75 2.22806M20.75 6.75C20.75 10.0637 16.2728 12.75 10.75 12.75C5.22715 12.75 0.75 10.0637 0.75 6.75M20.75 6.75C20.75 5.75542 19.1999 3.77165 17.2814 3.75018M20.75 6.75C20.75 8.40685 16.2728 9.75 10.75 9.75C5.22715 9.75 0.75 8.40685 0.75 6.75M0.75 6.75C0.75 4.54086 2.317 2.75 4.25 2.75C5.88086 2.75 7.2512 4.02477 7.63973 5.75" stroke="var(--stroke-0, #1C1917)" stroke-width="1.5" stroke-linecap="round"/>
</svg>
