<svg preserveAspectRatio="none" width="100%" height="100%" overflow="visible" style="display: block;" viewBox="0 0 22 22" fill="none" xmlns="http://www.w3.org/2000/svg">
<path id="Vector" d="M19.5078 10.8877L18.7825 11.0788C18.8693 11.4082 19.1671 11.6377 19.5078 11.6377V10.8877ZM1.99224 10.8877V11.6377C2.33286 11.6377 2.6307 11.4082 2.71749 11.0788L1.99224 10.8877ZM15.5961 5.08482C15.2287 4.89366 14.7758 5.03659 14.5846 5.40406C14.3935 5.77153 14.5364 6.22438 14.9039 6.41554L15.25 5.75018L15.5961 5.08482ZM6.59612 6.41554C6.96359 6.22438 7.10651 5.77153 6.91536 5.40406C6.7242 5.03659 6.27135 4.89366 5.90388 5.08482L6.25 5.75018L6.59612 6.41554ZM4.75 13.2667L5.47685 13.0817C5.39228 12.7493 5.09299 12.5167 4.75 12.5167C4.40701 12.5167 4.10772 12.7493 4.02315 13.0817L4.75 13.2667ZM8.75 13.2667L9.47685 13.0817C9.39228 12.7493 9.09299 12.5167 8.75 12.5167C8.40701 12.5167 8.10772 12.7493 8.02315 13.0817L8.75 13.2667ZM12.75 13.2667L13.4768 13.0817C13.3923 12.7493 13.093 12.5167 12.75 12.5167C12.407 12.5167 12.1077 12.7493 12.0232 13.0817L12.75 13.2667ZM16.75 13.2667L17.4768 13.0817C17.3923 12.7493 17.093 12.5167 16.75 12.5167C16.407 12.5167 16.1077 12.7493 16.0232 13.0817L16.75 13.2667ZM12.9319 1.47778C13.3337 1.37732 13.5781 0.970122 13.4776 0.568276C13.3771 0.16643 12.9699 -0.077891 12.5681 0.0225706L12.75 0.750177L12.9319 1.47778ZM13.9208 8.91477C13.7356 8.54428 13.2851 8.39412 12.9146 8.57936C12.5441 8.7646 12.3939 9.2151 12.5792 9.58559L13.25 9.25018L13.9208 8.91477ZM13.0792 10.5856C13.2644 10.9561 13.7149 11.1062 14.0854 10.921C14.4559 10.7358 14.6061 10.2853 14.4208 9.91477L13.75 10.2502L13.0792 10.5856ZM8.92082 9.58559C9.10606 9.2151 8.95589 8.7646 8.58541 8.57936C8.21493 8.39412 7.76442 8.54428 7.57918 8.91477L8.25 9.25018L8.92082 9.58559ZM7.07918 9.91477C6.89394 10.2853 7.04411 10.7358 7.41459 10.921C7.78507 11.1062 8.23558 10.9561 8.42082 10.5856L7.75 10.2502L7.07918 9.91477ZM2.96151 14.513C2.83053 14.12 2.40579 13.9077 2.01283 14.0387C1.61987 14.1697 1.4075 14.5944 1.53849 14.9873L2.25 14.7502L2.96151 14.513ZM2.88246 16.6475L2.17094 16.8847L2.17094 16.8847L2.88246 16.6475ZM18.6175 16.6475L17.906 16.4104L17.906 16.4104L18.6175 16.6475ZM19.9615 14.9873C20.0925 14.5944 19.8801 14.1697 19.4872 14.0387C19.0942 13.9077 18.6695 14.12 18.5385 14.513L19.25 14.7502L19.9615 14.9873ZM16.8419 20.1839L17.2804 20.7923L17.2804 20.7923L16.8419 20.1839ZM4.65815 20.1839L4.21961 20.7923L4.21961 20.7923L4.65815 20.1839ZM20.75 12.7608H21.5C21.5 12.2072 21.3408 11.6045 21.0501 11.1207C20.7692 10.6532 20.2576 10.1377 19.5078 10.1377V10.8877V11.6377C19.5108 11.6377 19.5304 11.6365 19.5752 11.6689C19.6253 11.7052 19.6937 11.7757 19.7643 11.8932C19.9092 12.1344 20 12.4683 20 12.7608H20.75ZM1.99224 10.8877V10.1377C1.24241 10.1377 0.730779 10.6532 0.449879 11.1207C0.159237 11.6045 0 12.2072 0 12.7608H0.75H1.5C1.5 12.4683 1.59076 12.1344 1.73568 11.8932C1.80625 11.7757 1.87467 11.7052 1.92481 11.6689C1.96956 11.6365 1.98918 11.6377 1.99224 11.6377V10.8877ZM19.5078 10.8877L20.233 10.6967C19.5959 8.27848 17.8741 6.26982 15.5961 5.08482L15.25 5.75018L14.9039 6.41554C16.8482 7.42695 18.2645 9.11271 18.7825 11.0788L19.5078 10.8877ZM6.25 5.75018L5.90388 5.08482C3.62591 6.26982 1.90414 8.27848 1.26699 10.6967L1.99224 10.8877L2.71749 11.0788C3.23553 9.11271 4.65183 7.42695 6.59612 6.41554L6.25 5.75018ZM0.75 12.7608H0C0 14.3845 1.22518 15.3181 2.44729 15.4667C3.66416 15.6147 5.08088 15.008 5.47685 13.4516L4.75 13.2667L4.02315 13.0817C3.85329 13.7494 3.27001 14.0557 2.62834 13.9777C1.99191 13.9003 1.5 13.4689 1.5 12.7608H0.75ZM4.75 13.2667L4.02315 13.4516C4.37679 14.8416 5.60908 15.5002 6.75 15.5002C7.89092 15.5002 9.12321 14.8416 9.47685 13.4516L8.75 13.2667L8.02315 13.0817C7.87355 13.6698 7.35746 14.0002 6.75 14.0002C6.14254 14.0002 5.62645 13.6698 5.47685 13.0817L4.75 13.2667ZM8.75 13.2667L8.02315 13.4516C8.37679 14.8416 9.60908 15.5002 10.75 15.5002C11.8909 15.5002 13.1232 14.8416 13.4768 13.4516L12.75 13.2667L12.0232 13.0817C11.8736 13.6698 11.3575 14.0002 10.75 14.0002C10.1425 14.0002 9.62645 13.6698 9.47685 13.0817L8.75 13.2667ZM12.75 13.2667L12.0232 13.4516C12.3768 14.8416 13.6091 15.5002 14.75 15.5002C15.8909 15.5002 17.1232 14.8416 17.4768 13.4516L16.75 13.2667L16.0232 13.0817C15.8736 13.6698 15.3575 14.0002 14.75 14.0002C14.1425 14.0002 13.6264 13.6698 13.4768 13.0817L12.75 13.2667ZM16.75 13.2667L16.0232 13.4516C16.4191 15.008 17.8358 15.6147 19.0527 15.4667C20.2748 15.3181 21.5 14.3845 21.5 12.7608H20.75H20C20 13.4689 19.5081 13.9003 18.8717 13.9777C18.23 14.0557 17.6467 13.7494 17.4768 13.0817L16.75 13.2667ZM8.75 4.75018H8C8 6.26896 9.23122 7.50018 10.75 7.50018V6.75018V6.00018C10.0596 6.00018 9.5 5.44053 9.5 4.75018H8.75ZM10.75 6.75018V7.50018C12.2688 7.50018 13.5 6.26896 13.5 4.75018H12.75H12C12 5.44053 11.4404 6.00018 10.75 6.00018V6.75018ZM12.75 4.75018H13.5C13.5 3.23139 12.2688 2.00018 10.75 2.00018V2.75018V3.50018C11.4404 3.50018 12 4.05982 12 4.75018H12.75ZM10.75 2.75018V2.00018C9.23122 2.00018 8 3.23139 8 4.75018H8.75H9.5C9.5 4.05982 10.0596 3.50018 10.75 3.50018V2.75018ZM10.75 2.75018H11.5C11.5 2.58911 11.6708 1.79306 12.9319 1.47778L12.75 0.750177L12.5681 0.0225706C10.6292 0.507299 10 1.91125 10 2.75018H10.75ZM13.25 9.25018L12.5792 9.58559L13.0792 10.5856L13.75 10.2502L14.4208 9.91477L13.9208 8.91477L13.25 9.25018ZM8.25 9.25018L7.57918 8.91477L7.07918 9.91477L7.75 10.2502L8.42082 10.5856L8.92082 9.58559L8.25 9.25018ZM2.25 14.7502L1.53849 14.9873L2.17094 16.8847L2.88246 16.6475L3.59397 16.4104L2.96151 14.513L2.25 14.7502ZM8.57456 20.7502V21.5002H12.9254V20.7502V20.0002H8.57456V20.7502ZM18.6175 16.6475L19.3291 16.8847L19.9615 14.9873L19.25 14.7502L18.5385 14.513L17.906 16.4104L18.6175 16.6475ZM12.9254 20.7502V21.5002C13.9518 21.5002 14.7845 21.5013 15.4568 21.4246C16.1483 21.3456 16.7456 21.1778 17.2804 20.7923L16.8419 20.1839L16.4033 19.5755C16.1525 19.7563 15.8352 19.8716 15.2866 19.9342C14.719 19.999 13.9863 20.0002 12.9254 20.0002V20.7502ZM18.6175 16.6475L17.906 16.4104C17.5706 17.4168 17.3378 18.1115 17.0968 18.6295C16.8639 19.1301 16.6542 19.3947 16.4033 19.5755L16.8419 20.1839L17.2804 20.7923C17.8152 20.4069 18.1633 19.8933 18.4568 19.2622C18.7423 18.6487 19.0045 17.8584 19.3291 16.8847L18.6175 16.6475ZM2.88246 16.6475L2.17094 16.8847C2.49549 17.8584 2.75774 18.6487 3.04317 19.2622C3.33673 19.8933 3.6848 20.4069 4.21961 20.7923L4.65815 20.1839L5.09668 19.5755C4.84583 19.3947 4.63607 19.1301 4.4032 18.6295C4.1622 18.1115 3.92944 17.4168 3.59397 16.4104L2.88246 16.6475ZM8.57456 20.7502V20.0002C7.5137 20.0002 6.78104 19.999 6.21336 19.9342C5.66485 19.8716 5.34752 19.7563 5.09668 19.5755L4.65815 20.1839L4.21961 20.7923C4.75443 21.1778 5.35173 21.3456 6.04321 21.4246C6.71554 21.5013 7.54825 21.5002 8.57456 21.5002V20.7502Z" fill="var(--stroke-0, #1C1917)"/>
</svg>
