<svg preserveAspectRatio="none" width="100%" height="100%" overflow="visible" style="display: block;" viewBox="0 0 14 22" fill="none" xmlns="http://www.w3.org/2000/svg">
<path id="Vector" d="M2.25 9.75L3.07693 12.7152C4.57073 18.0717 5.31763 20.75 6.75 20.75C8.18237 20.75 8.92927 18.0717 10.4231 12.7152L11.25 9.75M6.75 0.75C3.75353 0.75 1.06715 3.49891 1.90597 6.53336C2.13917 7.377 0.75 7.71316 0.75 8.623C0.75 11.3324 5.25 8.58716 5.25 11.5368C5.25 13.1544 7.75 13.1544 7.75 11.5368C7.75 8.37712 12.75 11.5744 12.75 8.623C12.75 7.71316 11.3608 7.377 11.594 6.53336C12.4328 3.49891 9.74647 0.75 6.75 0.75Z" stroke="var(--stroke-0, #1C1917)" stroke-width="1.5" stroke-linejoin="round"/>
</svg>
