<svg preserveAspectRatio="none" width="100%" height="100%" overflow="visible" style="display: block;" viewBox="0 0 22 12" fill="none" xmlns="http://www.w3.org/2000/svg">
<path id="Vector" d="M4.61019 10C4.19598 10 3.86019 10.3358 3.86019 10.75C3.86019 11.1642 4.19598 11.5 4.61019 11.5V10.75V10ZM4.4672 8.25L4.20148 8.95135L4.20148 8.95135L4.4672 8.25ZM6.54537 6.75317C6.54712 6.33896 6.21276 6.00176 5.79855 6.00001C5.38434 5.99826 5.04714 6.33262 5.04539 6.74683L5.79538 6.75L6.54537 6.75317ZM10.75 7.75H10C10 8.41118 9.87622 8.82794 9.71388 9.09863C9.558 9.35854 9.33048 9.54451 8.99838 9.68215C8.65138 9.82596 8.20248 9.91116 7.63763 9.95542C7.07431 9.99956 6.44761 10 5.75 10V10.75V11.5C6.4331 11.5 7.12176 11.5004 7.75482 11.4508C8.38635 11.4013 9.01487 11.299 9.57268 11.0679C10.1454 10.8305 10.6501 10.454 11.0003 9.87012C11.344 9.29706 11.5 8.58882 11.5 7.75H10.75ZM5.75 10.75V10C5.05239 10 4.42569 9.99956 3.86237 9.95542C3.29752 9.91116 2.84862 9.82596 2.50162 9.68215C2.16952 9.54451 1.942 9.35854 1.78612 9.09863C1.62378 8.82794 1.5 8.41118 1.5 7.75H0.75H0C0 8.58882 0.156046 9.29706 0.49973 9.87012C0.849879 10.454 1.35459 10.8305 1.92732 11.0679C2.48513 11.299 3.11365 11.4013 3.74518 11.4508C4.37824 11.5004 5.0669 11.5 5.75 11.5V10.75ZM0.75 7.75H1.5C1.5 6.41322 2.00703 4.80459 2.84098 3.53728C3.69006 2.247 4.74235 1.5 5.75 1.5V0.75V0C3.99622 0 2.54852 1.253 1.58795 2.71272C0.612261 4.19541 0 6.08678 0 7.75H0.75ZM5.75 0.75V1.5C6.75765 1.5 7.80994 2.247 8.65902 3.53728C9.49297 4.80459 10 6.41322 10 7.75H10.75H11.5C11.5 6.08678 10.8877 4.19541 9.91205 2.71272C8.95148 1.253 7.50378 0 5.75 0V0.75ZM20.75 7.75H20C20 8.41118 19.8762 8.82794 19.7139 9.09863C19.558 9.35854 19.3305 9.54451 18.9984 9.68215C18.6514 9.82596 18.2025 9.91116 17.6376 9.95542C17.0743 9.99956 16.4476 10 15.75 10V10.75V11.5C16.4331 11.5 17.1218 11.5004 17.7548 11.4508C18.3864 11.4013 19.0149 11.299 19.5727 11.0679C20.1454 10.8305 20.6501 10.454 21.0003 9.87012C21.344 9.29706 21.5 8.58882 21.5 7.75H20.75ZM15.75 0.75V1.5C16.7576 1.5 17.8099 2.247 18.659 3.53728C19.493 4.80459 20 6.41322 20 7.75H20.75H21.5C21.5 6.08678 20.8877 4.19541 19.9121 2.71272C18.9515 1.253 17.5038 0 15.75 0V0.75ZM15.75 0.75V0H5.75V0.75V1.5H15.75V0.75ZM15.75 10.75V10H5.75V10.75V11.5H15.75V10.75ZM7.75 7.75H7C7 8.5943 6.69546 9.12596 6.29242 9.46015C5.86853 9.81163 5.26598 10 4.61019 10V10.75V11.5C5.53051 11.5 6.49787 11.2384 7.24986 10.6148C8.02269 9.97404 8.5 9.0057 8.5 7.75H7.75ZM5.3951 3.75V4.5C5.77129 4.5 6.15057 4.72469 6.47535 5.32115C6.80156 5.92027 7 6.78849 7 7.75H7.75H8.5C8.5 6.61151 8.26963 5.47973 7.79272 4.60385C7.31436 3.72531 6.5162 3 5.3951 3V3.75ZM4.4672 8.25L4.20148 8.95135C4.70143 9.14076 5.20421 9.12965 5.6307 8.86149C6.0151 8.61979 6.21732 8.24185 6.32683 7.95507C6.44087 7.65647 6.49296 7.35495 6.51817 7.14344C6.53116 7.03439 6.5379 6.94142 6.54142 6.87413C6.54318 6.84034 6.54416 6.81263 6.5447 6.79216C6.54497 6.78192 6.54513 6.77346 6.54523 6.76692C6.54528 6.76365 6.54531 6.76085 6.54533 6.75856C6.54535 6.75741 6.54535 6.75638 6.54536 6.75549C6.54536 6.75504 6.54537 6.75462 6.54537 6.75423C6.54537 6.75404 6.54537 6.75377 6.54537 6.75368C6.54537 6.75342 6.54537 6.75317 5.79538 6.75C5.04539 6.74683 5.04539 6.7466 5.04539 6.74637C5.04539 6.7463 5.04539 6.74608 5.04539 6.74595C5.04539 6.74569 5.04539 6.74545 5.04539 6.74524C5.0454 6.74483 5.0454 6.74453 5.0454 6.74434C5.04541 6.74396 5.04541 6.74403 5.0454 6.74453C5.04538 6.74553 5.04534 6.74823 5.04522 6.75252C5.045 6.7611 5.0445 6.77587 5.04346 6.7958C5.04136 6.83592 5.03713 6.8953 5.02871 6.96594C5.01109 7.1138 4.97859 7.28103 4.92554 7.41993C4.86798 7.57065 4.82064 7.59896 4.83228 7.59164C4.88601 7.55785 4.89284 7.60924 4.73292 7.54865L4.4672 8.25ZM4.4672 8.25L4.73292 7.54865C4.72881 7.54709 4.61671 7.50215 4.5449 7.16641C4.47685 6.84829 4.48444 6.41161 4.57946 5.95362C4.67432 5.49641 4.84236 5.08542 5.03606 4.80884C5.24169 4.51523 5.37728 4.5 5.3951 4.5V3.75V3C4.66429 3 4.13471 3.48102 3.80742 3.94836C3.4682 4.43272 3.23555 5.04735 3.11074 5.64889C2.98609 6.24966 2.95502 6.90486 3.07808 7.48017C3.19737 8.03787 3.50616 8.68792 4.20148 8.95135L4.4672 8.25Z" fill="var(--stroke-0, #1C1917)"/>
</svg>
