<svg preserveAspectRatio="none" width="100%" height="100%" overflow="visible" style="display: block;" viewBox="0 0 22 22" fill="none" xmlns="http://www.w3.org/2000/svg">
<path id="Vector" d="M15.0636 2.69924C14.9226 2.30052 14.6926 1.92625 14.3737 1.60727C13.2306 0.464242 11.3774 0.464242 10.2344 1.60727C9.99178 1.84988 9.80067 2.12447 9.66105 2.41747C9.35072 3.06872 8.57241 3.6604 7.85397 3.72567C7.08633 3.79541 6.3378 4.1241 5.75015 4.71174C4.41662 6.04528 4.41662 8.20737 5.75015 9.54091C6.12586 9.91662 6.56733 10.1865 7.03751 10.3505M15.0636 2.69924C15.4277 3.72932 15.1977 4.9225 14.3737 5.74656M15.0636 2.69924C15.2045 2.30052 15.4345 1.92625 15.7534 1.60727C16.8965 0.464242 18.7497 0.464242 19.8927 1.60727C21.0358 2.75031 21.0358 4.60353 19.8927 5.74656C19.5858 6.05352 19.5858 6.81937 19.8927 7.12633C21.0358 8.26936 21.0358 10.1226 19.8927 11.2656C19.2549 11.9035 18.3958 12.1854 17.5624 12.1113M7.03751 10.3505C6.95012 10.4199 6.86577 10.4949 6.78498 10.5757C5.64194 11.7188 5.64194 13.572 6.78498 14.715C7.92801 15.8581 9.78123 15.8581 10.9243 14.715C11.0281 14.6112 11.2148 14.6429 11.2768 14.7761C11.4408 15.1286 11.6682 15.459 11.9591 15.7498C13.2926 17.0834 15.4547 17.0834 16.7883 15.7498C17.772 14.7661 18.03 13.3316 17.5624 12.1113M7.03751 10.3505C8.18645 9.43841 9.86203 9.5135 10.9243 10.5757M15.1813 10.458C15.3208 10.75 15.5115 11.0237 15.7534 11.2656C16.2586 11.7708 16.9025 12.0527 17.5624 12.1113M0.75 20.75L6.75 14.75" stroke="var(--stroke-0, #1C1917)" stroke-width="1.5" stroke-linecap="round"/>
</svg>
