<svg preserveAspectRatio="none" width="100%" height="100%" overflow="visible" style="display: block;" viewBox="0 0 22 22" fill="none" xmlns="http://www.w3.org/2000/svg">
<path id="Vector" d="M10.2163 18.0502C10.5021 18.8198 11.0493 19.4645 11.7623 19.8716C12.4752 20.2788 13.3085 20.4224 14.1166 20.2774C14.9247 20.1324 15.6561 19.708 16.183 19.0785C16.71 18.4489 16.9989 17.6542 16.9993 16.8332V11.6662L10.9993 8.31621M4.21333 13.6802C3.6893 14.3125 3.40423 15.109 3.40799 15.9302C3.41174 16.7514 3.70408 17.5452 4.23387 18.1727C4.76366 18.8002 5.49719 19.2215 6.30617 19.3629C7.11516 19.5043 7.9481 19.3568 8.65933 18.9462L12.9993 16.4122V9.46621M4.99933 6.29621C3.60833 6.06021 2.21233 6.69121 1.46533 7.98521C1.00479 8.78301 0.879963 9.73107 1.11831 10.6209C1.35666 11.5107 1.93866 12.2694 2.73633 12.7302L6.99933 15.2442L12.9993 11.8962M11.7823 3.28221C11.4965 2.51258 10.9493 1.86787 10.2364 1.46077C9.52347 1.05366 8.69014 0.91005 7.88206 1.05503C7.07398 1.20002 6.34256 1.62438 5.81562 2.25394C5.28868 2.8835 4.99976 3.67823 4.99933 4.49921V9.56621L10.9993 13.0162M17.7853 7.65221C18.3094 7.01989 18.5944 6.22346 18.5907 5.40223C18.5869 4.58099 18.2946 3.78721 17.7648 3.1597C17.235 2.5322 16.5015 2.11091 15.6925 1.96951C14.8835 1.82812 14.0506 1.97561 13.3393 2.38621L8.99933 4.92021V11.8662M16.9993 14.9682C18.3903 15.2042 19.7863 14.5732 20.5333 13.2792C20.9939 12.4814 21.1187 11.5334 20.8804 10.6435C20.642 9.75371 20.06 8.99498 19.2623 8.53421L14.9543 6.02021L8.99933 9.44021" stroke="var(--stroke-0, #1C1917)" stroke-width="2" stroke-linecap="round" stroke-linejoin="round"/>
</svg>
