<svg preserveAspectRatio="none" width="100%" height="100%" overflow="visible" style="display: block;" viewBox="0 0 20 22" fill="none" xmlns="http://www.w3.org/2000/svg">
<path id="Vector" d="M8.429 10.657C8.5584 10.2635 8.34431 9.83962 7.95082 9.71022C7.55734 9.58083 7.13346 9.79492 7.00407 10.1884L7.71654 10.4227L8.429 10.657ZM5.70192 3.54869L5.614 4.29352L6.45192 4.39242V3.54869H5.70192ZM11.7458 3.30129H10.9958V4.88642L12.2214 3.88119L11.7458 3.30129ZM16.6104 6.28846L15.9106 6.01857L15.9106 6.01857L16.6104 6.28846ZM13.7604 7.38462C13.3462 7.38462 13.0104 7.7204 13.0104 8.13462C13.0104 8.54883 13.3462 8.88462 13.7604 8.88462V8.13462V7.38462ZM11.7458 9.40875H12.4958C12.4958 9.07893 12.2803 8.78781 11.9649 8.69146C11.6494 8.59512 11.3081 8.71615 11.1238 8.98968L11.7458 9.40875ZM8.10753 9.80229C7.75406 9.58635 7.29246 9.69784 7.07652 10.0513C6.86058 10.4048 6.97207 10.8664 7.32554 11.0823L7.71654 10.4423L8.10753 9.80229ZM3.41358 9.75596C3.79922 9.90713 4.23439 9.71705 4.38556 9.33141C4.53673 8.94577 4.34666 8.5106 3.96101 8.35942L3.68729 9.05769L3.41358 9.75596ZM2.31073 7.76251C2.61502 7.48147 2.63387 7.00697 2.35284 6.70268C2.07181 6.39839 1.59731 6.37954 1.29302 6.66057L1.80187 7.21154L2.31073 7.76251ZM5.0842 12.0787C4.71343 11.894 4.26316 12.0449 4.07849 12.4156C3.89382 12.7864 4.04468 13.2367 4.41545 13.4213L4.74982 12.75L5.0842 12.0787ZM7.24982 19.75L6.49997 19.7646L6.49997 19.7646L7.24982 19.75ZM15.0842 13.4213C15.455 13.2367 15.6058 12.7864 15.4212 12.4156C15.2365 12.0449 14.7862 11.894 14.4154 12.0787L14.7498 12.75L15.0842 13.4213ZM12.2498 19.75L11.5 19.7354L11.5 19.7354L12.2498 19.75ZM7.71654 10.4227L7.00407 10.1884C6.67246 11.1968 5.60484 12 4.26549 12V12.75V13.5C6.18789 13.5 7.87546 12.3403 8.429 10.657L7.71654 10.4227ZM5.70192 3.54869H6.45192C6.45192 2.48394 7.41678 1.5 8.72385 1.5V0.75V0C6.69297 0 4.95192 1.55463 4.95192 3.54869H5.70192ZM8.72385 0.75V1.5C10.1277 1.5 10.9958 2.32089 10.9958 3.30129H11.7458H12.4958C12.4958 1.22288 10.658 0 8.72385 0V0.75ZM16.7823 5.36538H16.0323C16.0323 5.59449 15.9896 5.81382 15.9106 6.01857L16.6104 6.28846L17.3101 6.55836C17.4539 6.18567 17.5323 5.7836 17.5323 5.36538H16.7823ZM16.6104 6.28846L15.9106 6.01857C15.6153 6.78419 14.7888 7.38462 13.7604 7.38462V8.13462V8.88462C15.3635 8.88462 16.7757 7.94386 17.3101 6.55836L16.6104 6.28846ZM13.7604 2.59615V3.34615C15.0781 3.34615 16.0323 4.3105 16.0323 5.36538H16.7823H17.5323C17.5323 3.36146 15.7806 1.84615 13.7604 1.84615V2.59615ZM11.7458 3.30129L12.2214 3.88119C12.6216 3.55295 13.1594 3.34615 13.7604 3.34615V2.59615V1.84615C12.8134 1.84615 11.9392 2.17263 11.2702 2.72139L11.7458 3.30129ZM15.2714 12.75V12C13.7 12 12.4958 10.8024 12.4958 9.40875H11.7458H10.9958C10.9958 11.7057 12.9485 13.5 15.2714 13.5V12.75ZM11.7458 9.40875L11.1238 8.98968C10.6951 9.62588 10.2029 9.97918 9.72462 10.1082C9.25807 10.2342 8.713 10.1722 8.10753 9.80229L7.71654 10.4423L7.32554 11.0823C8.23104 11.6355 9.19694 11.8043 10.1154 11.5564C11.0222 11.3117 11.7891 10.6867 12.3678 9.82782L11.7458 9.40875ZM3.68729 9.05769L3.96101 8.35942C3.21012 8.06508 2.82071 7.64247 2.64323 7.23698C2.46292 6.825 2.46483 6.34808 2.64776 5.88174C3.01488 4.94583 4.09814 4.1146 5.614 4.29352L5.70192 3.54869L5.78983 2.80386C3.59986 2.54538 1.86866 3.76025 1.25135 5.33399C0.942054 6.12248 0.909258 7.01627 1.26909 7.8384C1.63175 8.66702 2.35731 9.34191 3.41358 9.75596L3.68729 9.05769ZM4.26549 12.75V12C2.93117 12 2.04734 11.2917 1.68679 10.4414C1.32483 9.58773 1.46469 8.54388 2.31073 7.76251L1.80187 7.21154L1.29302 6.66057C-0.0362709 7.88826 -0.293452 9.61364 0.305805 11.0269C0.906478 12.4436 2.34212 13.5 4.26549 13.5V12.75ZM16.6104 6.28846L16.3539 6.99324C17.6975 7.4822 18.1769 8.69622 17.9444 9.84693C17.7116 10.9987 16.777 12 15.2714 12V12.75V13.5C17.579 13.5 19.0587 11.9055 19.4147 10.144C19.7708 8.38147 19.0131 6.36472 16.8669 5.58368L16.6104 6.28846ZM4.74982 12.75L4.41545 13.4213C4.63759 13.532 5.14502 13.9867 5.61372 15.0454C6.06988 16.0757 6.45799 17.6142 6.49997 19.7646L7.24982 19.75L7.99968 19.7354C7.95453 17.4224 7.53579 15.6815 6.98532 14.4381C6.44738 13.2231 5.74837 12.4095 5.0842 12.0787L4.74982 12.75ZM14.7498 12.75L14.4154 12.0787C13.7513 12.4095 13.0523 13.2231 12.5143 14.4381C11.9639 15.6815 11.5451 17.4224 11.5 19.7354L12.2498 19.75L12.9997 19.7646C13.0417 17.6142 13.4298 16.0757 13.8859 15.0454C14.3546 13.9867 14.8621 13.532 15.0842 13.4213L14.7498 12.75ZM7.24982 19.75L6.49997 19.7646C6.51024 20.2908 6.86706 20.6264 7.11671 20.8002C7.38524 20.9871 7.712 21.119 8.01185 21.2131C8.61376 21.4019 9.31117 21.5 9.74982 21.5V20.75V20C9.47297 20 8.92681 19.9281 8.46083 19.7819C8.22673 19.7084 8.06345 19.6316 7.97382 19.5692C7.86531 19.4936 7.99585 19.5392 7.99968 19.7354L7.24982 19.75ZM12.2498 19.75L11.5 19.7354C11.5038 19.5392 11.6343 19.4936 11.5258 19.5692C11.4362 19.6316 11.2729 19.7084 11.0388 19.7819C10.5728 19.9281 10.0267 20 9.74982 20V20.75V21.5C10.1885 21.5 10.8859 21.4019 11.4878 21.2131C11.7877 21.119 12.1144 20.9871 12.3829 20.8002C12.6326 20.6264 12.9894 20.2908 12.9997 19.7646L12.2498 19.75Z" fill="var(--stroke-0, #1C1917)"/>
</svg>
