<svg preserveAspectRatio="none" width="100%" height="100%" overflow="visible" style="display: block;" viewBox="0 0 15 22" fill="none" xmlns="http://www.w3.org/2000/svg">
<path id="Vector" d="M1.5858 6.77064L1.12435 7.36188C1.14976 7.38171 1.17643 7.39989 1.20417 7.41629L1.5858 6.77064ZM0.813602 8.77602L1.55769 8.68202L0.813602 8.77602ZM2.74618 18.9957L3.48503 18.8668C3.48306 18.8556 3.48084 18.8443 3.47835 18.8331L2.74618 18.9957ZM3.62882 20.5711L4.03811 19.9426L4.03811 19.9426L3.62882 20.5711ZM6.90653 18.5422L7.47965 19.0259L7.47965 19.0259L6.90653 18.5422ZM12.3765 12.0619L11.8372 11.5407C11.8255 11.5528 11.8142 11.5652 11.8034 11.5781L12.3765 12.0619ZM11.9396 10.4573L12.151 9.73766L12.151 9.73766L11.9396 10.4573ZM10.6336 9.92641C10.4146 10.278 10.5221 10.7405 10.8737 10.9595C11.2253 11.1785 11.6879 11.071 11.9069 10.7195L11.2702 10.3229L10.6336 9.92641ZM13.6864 6.44387L14.323 6.8404L14.3568 6.78616L14.3809 6.72699L13.6864 6.44387ZM11.2702 5.3529L11.0512 4.6356L10.787 4.71628L10.6383 4.94905L11.2702 5.3529ZM8.1014 8.91902C7.87836 9.26805 7.9805 9.73181 8.32954 9.95485C8.67858 10.1779 9.14234 10.0757 9.36538 9.72671L8.73339 9.32286L8.1014 8.91902ZM10.2909 5.46889C10.2909 5.8831 10.6267 6.21889 11.0409 6.21889C11.4552 6.21889 11.7909 5.8831 11.7909 5.46889H11.0409H10.2909ZM10.7455 3.06841L11.3303 2.59882L11.3303 2.59882L10.7455 3.06841ZM8.00756 2.97055C7.69894 3.24682 7.67272 3.72097 7.94899 4.02959C8.22526 4.33821 8.69941 4.36444 9.00803 4.08816L8.50779 3.52936L8.00756 2.97055ZM7.58773 9.07402C7.58773 9.48824 7.92352 9.82402 8.33773 9.82402C8.75194 9.82402 9.08773 9.48824 9.08773 9.07402H8.33773H7.58773ZM8.33773 1.9745H9.08773V1.76449L8.97867 1.58502L8.33773 1.9745ZM5.6196 2.29538L4.8696 2.29535V2.29538H5.6196ZM4.8696 5.74486C4.8696 6.15907 5.20539 6.49486 5.6196 6.49486C6.03382 6.49486 6.3696 6.15907 6.3696 5.74486H5.6196H4.8696ZM3.2758 2.92478L3.76907 3.48975L3.76907 3.48975L3.2758 2.92478ZM2.17702 7.07815C2.17702 7.49236 2.5128 7.82815 2.92702 7.82815C3.34123 7.82815 3.67702 7.49236 3.67702 7.07815L2.92702 7.07815L2.17702 7.07815ZM2.71674 16.0331C2.30252 16.0331 1.96674 16.3689 1.96674 16.7831C1.96674 17.1973 2.30252 17.5331 2.71674 17.5331V16.7831V16.0331ZM1.16209 11.3643C0.797941 11.5617 0.662772 12.0169 0.86018 12.3811C1.05759 12.7452 1.51282 12.8804 1.87697 12.683L1.51953 12.0236L1.16209 11.3643ZM1.5858 6.77064L2.04724 6.1794C1.86195 6.03478 1.58635 5.9004 1.25665 5.91042C0.890324 5.92155 0.568818 6.10842 0.353201 6.41268C0.157006 6.68953 0.0610939 7.04057 0.0220525 7.41915C-0.0179237 7.80681 -0.00438536 8.28504 0.0695157 8.87002L0.813602 8.77602L1.55769 8.68202C1.49258 8.16662 1.48969 7.81008 1.51414 7.57302C1.53952 7.3269 1.58888 7.26328 1.57704 7.27998C1.54579 7.32408 1.44774 7.4053 1.30222 7.40973C1.19333 7.41304 1.13589 7.37088 1.12435 7.36188L1.5858 6.77064ZM0.813602 8.77602L0.0695157 8.87002C0.35229 11.1084 1.46027 16.6643 2.01401 19.1583L2.74618 18.9957L3.47835 18.8331C2.92519 16.3418 1.83096 10.8452 1.55769 8.68202L0.813602 8.77602ZM2.74618 18.9957L2.00734 19.1246C2.06601 19.461 2.18222 19.846 2.36655 20.2061C2.54836 20.5612 2.82146 20.9403 3.21954 21.1996L3.62882 20.5711L4.03811 19.9426C3.9324 19.8738 3.81161 19.7371 3.70175 19.5225C3.59443 19.3129 3.52122 19.0743 3.48503 18.8668L2.74618 18.9957ZM6.90653 18.5422L7.47965 19.0259L12.9496 12.5456L12.3765 12.0619L11.8034 11.5781L6.3334 18.0584L6.90653 18.5422ZM12.3765 12.0619L12.9158 12.583C13.2053 12.2834 13.4736 11.7647 13.4401 11.1982C13.4222 10.8937 13.3151 10.5746 13.0769 10.2994C12.8429 10.0289 12.5224 9.84675 12.151 9.73766L11.9396 10.4573L11.7283 11.1769C11.8935 11.2254 11.9396 11.2774 11.9426 11.2809C11.9449 11.2835 11.9434 11.2823 11.942 11.2787C11.9409 11.2759 11.9422 11.2776 11.9427 11.2865C11.944 11.3081 11.9394 11.3538 11.9137 11.4155C11.8878 11.478 11.8544 11.5229 11.8372 11.5407L12.3765 12.0619ZM11.9396 10.4573L12.151 9.73766C11.7569 9.62193 11.2392 9.54944 10.7006 9.46211C10.135 9.37042 9.45867 9.25123 8.64759 9.0402C7.0296 8.61921 4.84123 7.82361 1.96742 6.12499L1.5858 6.77064L1.20417 7.41629C4.19471 9.1839 6.51245 10.0346 8.26988 10.4919C9.14651 10.72 9.87519 10.8479 10.4605 10.9428C11.0727 11.042 11.4515 11.0956 11.7283 11.1769L11.9396 10.4573ZM3.62882 20.5711L3.21954 21.1996C3.69331 21.5081 4.20156 21.5746 4.68618 21.4576C5.13802 21.3486 5.53036 21.0907 5.85134 20.8214C6.47597 20.2975 7.07187 19.509 7.47965 19.0259L6.90653 18.5422L6.3334 18.0584C5.83487 18.649 5.38063 19.2584 4.88734 19.6722C4.64936 19.8718 4.4658 19.9677 4.3343 19.9995C4.23558 20.0233 4.15304 20.0175 4.03811 19.9426L3.62882 20.5711ZM11.2702 10.3229L11.9069 10.7195L14.323 6.8404L13.6864 6.44387L13.0498 6.04735L10.6336 9.92641L11.2702 10.3229ZM13.6864 6.44387L14.3809 6.72699C14.6427 6.08471 14.4691 5.27777 13.7969 4.79888C13.1464 4.33551 12.1955 4.28612 11.0512 4.6356L11.2702 5.3529L11.4893 6.07019C12.4288 5.78327 12.8219 5.94601 12.9265 6.02055C13.0094 6.07957 13.0018 6.13632 12.9919 6.16076L13.6864 6.44387ZM11.2702 5.3529L10.6383 4.94905L8.1014 8.91902L8.73339 9.32286L9.36538 9.72671L11.9022 5.75674L11.2702 5.3529ZM11.0409 5.46889H11.7909V4.07794H11.0409H10.2909V5.46889H11.0409ZM10.7455 3.06841L11.3303 2.59882C11.067 2.27084 10.6169 1.90399 9.92963 1.95183C9.32255 1.9941 8.6937 2.35633 8.00756 2.97055L8.50779 3.52936L9.00803 4.08816C9.6188 3.54141 9.93377 3.45517 10.0338 3.44821C10.0537 3.44683 10.074 3.42998 10.1607 3.53801L10.7455 3.06841ZM11.0409 4.07794H11.7909C11.7909 3.641 11.7082 3.06944 11.3303 2.59882L10.7455 3.06841L10.1607 3.53801C10.2319 3.62663 10.2909 3.79667 10.2909 4.07794H11.0409ZM8.33773 9.07402H9.08773V1.9745H8.33773H7.58773V9.07402H8.33773ZM8.33773 1.9745L8.97867 1.58502C8.77897 1.25639 8.41847 0.78702 7.95877 0.447605C7.51153 0.11739 6.77155 -0.220202 5.99213 0.186493L6.33908 0.851417L6.68604 1.51634C6.70607 1.50589 6.79886 1.45575 7.0678 1.65433C7.32428 1.8437 7.56338 2.14444 7.69679 2.36399L8.33773 1.9745ZM6.33908 0.851417L5.99213 0.186493C5.40311 0.493842 5.09537 0.942864 4.96068 1.39567C4.84104 1.7979 4.86961 2.20186 4.8696 2.29535L5.6196 2.29538L6.3696 2.29541C6.36961 2.06802 6.3582 1.95858 6.39843 1.82333C6.42361 1.73866 6.47561 1.62614 6.68604 1.51634L6.33908 0.851417ZM5.6196 2.29538H4.8696V3.55479H5.6196H6.3696V2.29538H5.6196ZM5.6196 3.55479H4.8696V5.74486H5.6196H6.3696V3.55479H5.6196ZM5.6196 3.55479L6.17038 3.04572C5.89457 2.74732 5.39924 2.36473 4.84332 2.13948C4.30746 1.92236 3.46585 1.76321 2.78253 2.35982L3.2758 2.92478L3.76907 3.48975C3.80663 3.45695 3.92845 3.38725 4.28003 3.5297C4.61155 3.66403 4.92768 3.91114 5.06883 4.06386L5.6196 3.55479ZM3.2758 2.92478L2.78253 2.35982C2.4324 2.66551 2.29565 3.12263 2.2278 3.46582C2.15335 3.84233 2.12799 4.2728 2.12236 4.69144C2.11667 5.1148 2.13108 5.55928 2.1461 5.96919C2.16144 6.38773 2.17702 6.76235 2.17702 7.07815L2.92702 7.07815L3.67702 7.07815C3.67702 6.7273 3.65982 6.31611 3.64509 5.91425C3.63005 5.50375 3.6171 5.09324 3.62223 4.71161C3.62742 4.32524 3.65108 4.0007 3.69931 3.75677C3.75413 3.47953 3.81371 3.45077 3.76907 3.48975L3.2758 2.92478ZM5.23912 14.252H4.48912C4.48912 15.2381 3.69316 16.0331 2.71674 16.0331V16.7831V17.5331C4.52645 17.5331 5.98912 16.0617 5.98912 14.252H5.23912ZM2.71674 11.7209V12.4709C3.69316 12.4709 4.48912 13.2659 4.48912 14.252H5.23912H5.98912C5.98912 12.4424 4.52645 10.9709 2.71674 10.9709V11.7209ZM1.51953 12.0236L1.87697 12.683C2.12623 12.5479 2.41147 12.4709 2.71674 12.4709V11.7209V10.9709C2.15548 10.9709 1.62521 11.1132 1.16209 11.3643L1.51953 12.0236Z" fill="var(--stroke-0, #1C1917)"/>
</svg>
