<svg preserveAspectRatio="none" width="100%" height="100%" overflow="visible" style="display: block;" viewBox="0 0 22 22" fill="none" xmlns="http://www.w3.org/2000/svg">
<path id="Vector" d="M2.25239 9.24537C1.79676 9.70655 1.47414 10.5765 0.922219 12.5759C0.805465 12.9989 0.71993 13.4362 0.759944 13.8728C0.81933 14.5209 1.03996 14.922 1.4806 15.2536C1.94806 15.6054 2.55681 15.693 3.14413 15.693H4.6633C5.71115 15.693 6.81006 15.4855 7.51124 14.715C8.30955 13.8378 8.5166 12.864 8.26737 12.2212M8.76862 2.30176L12.1183 0.975967C13.1429 0.570457 14.3742 0.688169 15.1209 1.49207C15.4832 1.88213 15.7146 2.27886 15.7861 2.79773V4.86053C15.7861 6.06472 15.2654 7.25402 14.2222 7.87427C13.6238 8.23012 13.0451 8.47974 12.2774 8.7494M15.7862 6.29331C16.9635 6.4981 17.6245 6.61634 18.7937 6.79144C19.2516 6.85841 19.5941 6.79672 19.9782 6.53894C20.5731 6.13964 20.9037 5.37837 20.672 4.70313C20.4443 4.03977 19.8911 3.5119 18.7937 2.80636C17.6408 2.0055 16.9824 1.67197 15.7862 1.31196M1.24996 15.7579C1.34378 17.1453 1.82818 18.0302 3.25495 19.7429C3.90085 20.404 4.37207 20.6761 4.99688 20.7415C5.48697 20.7929 5.96361 20.5548 6.27077 20.1719C6.64833 19.7012 6.80172 19.3149 6.76369 18.7467L6.26244 15.7579M2.75364 6.76551C3.96005 4.61579 4.82922 3.73507 6.76363 2.79773C7.20534 2.55986 7.57389 2.42338 7.9225 2.39953C9.31521 2.30424 10.064 3.94573 10.631 5.20802L11.6386 7.45121C11.73 7.65473 11.8007 7.86739 11.8352 8.08747C11.9916 9.08575 11.8378 9.58623 11.2749 10.2373L10.3578 11.1448C9.96802 11.5304 9.55177 11.9185 9.02553 12.0806C8.8769 12.1264 8.73466 12.1518 8.59339 12.1573C7.65626 12.194 6.77644 11.6893 5.89185 11.381C4.75922 10.9862 3.92177 10.3502 2.75364 9.24537C2.13157 8.26092 2.16137 7.71683 2.75364 6.76551Z" stroke="var(--stroke-0, #1C1917)" stroke-width="1.5" stroke-linecap="round" stroke-linejoin="round"/>
</svg>
