<svg preserveAspectRatio="none" width="100%" height="100%" overflow="visible" style="display: block;" viewBox="0 0 20 20" fill="none" xmlns="http://www.w3.org/2000/svg">
<path id="Vector" d="M3.12307 6.33835C2.89572 6.68459 2.9921 7.14958 3.33835 7.37693C3.68459 7.60428 4.14958 7.5079 4.37693 7.16165L3.75 6.75L3.12307 6.33835ZM4.48072 5.63715L3.85378 5.22549L3.85378 5.2255L4.48072 5.63715ZM15.0193 5.63714L14.3924 6.04879L14.3924 6.04879L15.0193 5.63714ZM15.1231 7.16164C15.3504 7.50789 15.8154 7.60427 16.1617 7.37692C16.5079 7.14957 16.6043 6.68459 16.3769 6.33834L15.75 6.74999L15.1231 7.16164ZM8.43401 0.985464L8.17418 0.281912L8.17418 0.281912L8.43401 0.985464ZM11.066 0.985464L11.3258 0.281912L11.3258 0.281912L11.066 0.985464ZM18.7404 13.5857L17.9929 13.5245C17.9903 13.5566 17.9897 13.5889 17.9913 13.6212L18.7404 13.5857ZM3.02439 18.0549L2.62446 18.6894L2.62446 18.6894L3.02439 18.0549ZM0.75958 13.5857L1.50874 13.6212C1.51027 13.5889 1.50971 13.5566 1.50707 13.5245L0.75958 13.5857ZM2.0248 8.75L2.69161 8.40668C2.5681 8.1668 2.32528 8.01175 2.05571 8.00064C1.78613 7.98952 1.53137 8.12405 1.38853 8.35294L2.0248 8.75ZM17.4752 8.75L18.1115 8.35294C17.9772 8.13776 17.7432 8.00503 17.4896 8.00014C17.2361 7.99525 16.9972 8.11887 16.8547 8.32872L17.4752 8.75ZM12.25 10C12.6642 10 13 9.66421 13 9.25C13 8.83579 12.6642 8.5 12.25 8.5V9.25V10ZM12.241 8.5C11.8268 8.5 11.491 8.83579 11.491 9.25C11.491 9.66421 11.8268 10 12.241 10V9.25V8.5ZM9.92082 4.41459C9.73558 4.04411 9.28507 3.89394 8.91459 4.07918C8.54411 4.26442 8.39394 4.71493 8.57918 5.08541L9.25 4.75L9.92082 4.41459ZM11.25 6.5C11.6642 6.5 12 6.16421 12 5.75C12 5.33579 11.6642 5 11.25 5V5.75V6.5ZM8.28033 9.28033C8.57322 8.98744 8.57322 8.51256 8.28033 8.21967C7.98744 7.92678 7.51256 7.92678 7.21967 8.21967L7.75 8.75L8.28033 9.28033ZM6.71967 8.71967C6.42678 9.01256 6.42678 9.48744 6.71967 9.78033C7.01256 10.0732 7.48744 10.0732 7.78033 9.78033L7.25 9.25L6.71967 8.71967ZM3.75 6.75L4.37693 7.16165L5.10765 6.0488L4.48072 5.63715L3.85378 5.2255L3.12307 6.33835L3.75 6.75ZM15.0193 5.63714L14.3924 6.04879L15.1231 7.16164L15.75 6.74999L16.3769 6.33834L15.6462 5.22549L15.0193 5.63714ZM4.48072 5.63715L5.10765 6.0488C6.03834 4.63138 6.707 3.61458 7.2882 2.89263C7.8685 2.17181 8.2912 1.83772 8.69385 1.68902L8.43401 0.985464L8.17418 0.281912C7.39011 0.571482 6.75836 1.15877 6.11978 1.95199C5.48211 2.74408 4.76747 3.83398 3.85378 5.22549L4.48072 5.63715ZM15.0193 5.63714L15.6462 5.22549C14.7325 3.83397 14.0179 2.74408 13.3802 1.95199C12.7416 1.15877 12.1099 0.571482 11.3258 0.281912L11.066 0.985464L10.8062 1.68902C11.2088 1.83772 11.6315 2.17181 12.2118 2.89262C12.793 3.61457 13.4617 4.63137 14.3924 6.04879L15.0193 5.63714ZM8.43401 0.985464L8.69385 1.68902C9.37624 1.43699 10.1238 1.43699 10.8062 1.68902L11.066 0.985464L11.3258 0.281912C10.3081 -0.0939706 9.19195 -0.0939706 8.17418 0.281912L8.43401 0.985464ZM9.75 18.75V19.5C11.6113 19.5 13.053 19.5006 14.1654 19.4107C15.2716 19.3213 16.1661 19.1365 16.8755 18.6894L16.4756 18.0549L16.0757 17.4204C15.6823 17.6684 15.0883 17.8312 14.0445 17.9155C13.007 17.9994 11.6373 18 9.75 18V18.75ZM18.7404 13.5857L17.9913 13.6212C18.0651 15.1822 17.3155 16.6389 16.0757 17.4204L16.4756 18.0549L16.8755 18.6894C18.5949 17.6056 19.5877 15.6242 19.4896 13.5503L18.7404 13.5857ZM9.75 18.75V18C7.86273 18 6.49305 17.9994 5.45546 17.9155C4.41169 17.8312 3.81767 17.6684 3.42431 17.4204L3.02439 18.0549L2.62446 18.6894C3.33389 19.1365 4.22841 19.3213 5.33461 19.4107C6.447 19.5006 7.88873 19.5 9.75 19.5V18.75ZM0.75958 13.5857L0.0104171 13.5503C-0.0876694 15.6242 0.905112 17.6056 2.62446 18.6894L3.02439 18.0549L3.42431 17.4204C2.18448 16.6389 1.43491 15.1822 1.50874 13.6212L0.75958 13.5857ZM2.0248 8.75L1.38853 8.35294C0.584173 9.64189 0.242118 10.9577 0.0991964 11.9428C0.0274901 12.437 0.005074 12.8536 0.00081081 13.1503C-0.00132353 13.2989 0.0010843 13.418 0.00422295 13.5024C0.00579294 13.5446 0.00754789 13.5781 0.00901501 13.6025C0.00974869 13.6146 0.0104108 13.6245 0.0109423 13.6319C0.0112081 13.6356 0.0114413 13.6388 0.0116345 13.6413C0.0117312 13.6425 0.0118178 13.6437 0.0118936 13.6446C0.0119315 13.6451 0.0119666 13.6455 0.011999 13.6459C0.0120151 13.6461 0.0120372 13.6464 0.0120453 13.6465C0.0120666 13.6468 0.0120873 13.647 0.75958 13.5857C1.50707 13.5245 1.50709 13.5247 1.50711 13.5249C1.50711 13.525 1.50713 13.5252 1.50714 13.5253C1.50716 13.5256 1.50718 13.5258 1.50719 13.5259C1.50722 13.5263 1.50724 13.5265 1.50724 13.5266C1.50725 13.5267 1.50721 13.5262 1.50714 13.5252C1.50699 13.5231 1.50669 13.5187 1.50629 13.5121C1.50549 13.4989 1.50431 13.4769 1.50319 13.4466C1.50093 13.386 1.49892 13.2928 1.50066 13.1719C1.50414 12.9297 1.52264 12.5786 1.58365 12.1581C1.70617 11.3137 1.99672 10.2117 2.66108 9.14706L2.0248 8.75ZM17.4752 8.75L16.8389 9.14706C17.5033 10.2117 17.7938 11.3137 17.9163 12.1581C17.9774 12.5786 17.9959 12.9297 17.9993 13.1719C18.0011 13.2928 17.9991 13.386 17.9968 13.4466C17.9957 13.4769 17.9945 13.4989 17.9937 13.5121C17.9933 13.5187 17.993 13.5231 17.9929 13.5252C17.9928 13.5262 17.9927 13.5267 17.9928 13.5266C17.9928 13.5265 17.9928 13.5263 17.9928 13.5259C17.9928 13.5258 17.9928 13.5256 17.9929 13.5253C17.9929 13.5252 17.9929 13.525 17.9929 13.5249C17.9929 13.5247 17.9929 13.5245 18.7404 13.5857C19.4879 13.647 19.4879 13.6468 19.488 13.6465C19.488 13.6464 19.488 13.6461 19.488 13.6459C19.488 13.6455 19.4881 13.6451 19.4881 13.6446C19.4882 13.6437 19.4883 13.6425 19.4884 13.6413C19.4886 13.6388 19.4888 13.6356 19.4891 13.6319C19.4896 13.6245 19.4903 13.6146 19.491 13.6025C19.4925 13.5781 19.4942 13.5446 19.4958 13.5024C19.4989 13.418 19.5013 13.2989 19.4992 13.1503C19.4949 12.8536 19.4725 12.437 19.4008 11.9428C19.2579 10.9577 18.9158 9.64189 18.1115 8.35294L17.4752 8.75ZM2.0248 8.75L1.358 9.09332C1.83979 10.0291 2.831 11.142 3.96477 12.2337C5.11758 13.3438 6.4851 14.4949 7.79008 15.5102L8.25063 14.9182L8.71117 14.3263C7.43444 13.3329 6.10961 12.2167 5.00522 11.1532C3.88179 10.0714 3.05094 9.10458 2.69161 8.40668L2.0248 8.75ZM8.25063 14.9182L7.79008 15.5102C10.0879 17.2979 13.019 18.7227 16.4577 18.8047L16.4756 18.0549L16.4935 17.3051C13.4622 17.2329 10.8331 15.9771 8.71117 14.3263L8.25063 14.9182ZM17.4752 8.75L16.8547 8.32872C16.2096 9.27889 14.7693 10.7746 13.0861 12.0279C12.2501 12.6504 11.3749 13.1975 10.5312 13.5836C9.68015 13.973 8.90712 14.1775 8.26135 14.1683L8.25063 14.9182L8.2399 15.6681C9.19346 15.6818 10.1971 15.3861 11.1554 14.9475C12.121 14.5056 13.0878 13.8968 13.982 13.231C15.7593 11.9076 17.3319 10.2962 18.0957 9.17128L17.4752 8.75ZM12.25 9.25V8.5H12.241V9.25V10H12.25V9.25ZM9.25 4.75L8.57918 5.08541C8.86722 5.66149 9.75346 6.5 11.25 6.5V5.75V5C10.3465 5 9.96611 4.50518 9.92082 4.41459L9.25 4.75ZM7.75 8.75L7.21967 8.21967L6.71967 8.71967L7.25 9.25L7.78033 9.78033L8.28033 9.28033L7.75 8.75Z" fill="var(--stroke-0, #1C1917)"/>
</svg>
