<svg preserveAspectRatio="none" width="100%" height="100%" overflow="visible" style="display: block;" viewBox="0 0 22 22" fill="none" xmlns="http://www.w3.org/2000/svg">
<path id="Vector" d="M18.6284 12.7323L17.9005 12.5516L17.9005 12.5516L18.6284 12.7323ZM0.870987 12.7323L1.5989 12.5516L1.5989 12.5516L0.870987 12.7323ZM5.16952 19.7494L4.41952 19.7488L4.41952 19.7488L5.16952 19.7494ZM5.41927 18.1361L5.95101 17.6072L5.95101 17.6072L5.41927 18.1361ZM14.3299 19.7494L13.5799 19.75L13.5799 19.75L14.3299 19.7494ZM14.0801 18.1361L13.5484 17.6072L13.5484 17.6072L14.0801 18.1361ZM1.4997 10.7502C1.4997 11.1644 1.83549 11.5002 2.2497 11.5002C2.66392 11.5002 2.9997 11.1644 2.9997 10.7502H2.2497H1.4997ZM4.46481 8.24905L4.54992 8.99421C4.78694 8.96713 4.99695 8.82891 5.11555 8.62192C5.23415 8.41493 5.24721 8.16386 5.15071 7.94568L4.46481 8.24905ZM8.1486 6.16388C8.39631 6.49586 8.86624 6.56418 9.19823 6.31646C9.53021 6.06875 9.59852 5.59882 9.35081 5.26684L8.7497 5.71536L8.1486 6.16388ZM12.2108 4.76733L11.4723 4.8981C11.5079 5.0994 11.6242 5.27743 11.7942 5.39099C11.9642 5.50454 12.1732 5.54378 12.3728 5.49962L12.2108 4.76733ZM14.3537 7.93434C14.1888 8.31432 14.3632 8.75602 14.7431 8.9209C15.1231 9.08579 15.5648 8.91141 15.7297 8.53143L15.0417 8.23288L14.3537 7.93434ZM13.4477 7.75584C13.0685 7.92264 12.8964 8.36522 13.0632 8.74436C13.23 9.12351 13.6726 9.29565 14.0517 9.12885L13.7497 8.44234L13.4477 7.75584ZM16.4997 10.7502C16.4997 11.1644 16.8355 11.5002 17.2497 11.5002C17.6639 11.5002 17.9997 11.1644 17.9997 10.7502H17.2497H16.4997ZM15.1735 7.27003C14.9084 7.58823 14.9514 8.06116 15.2696 8.32633C15.5878 8.5915 16.0607 8.54851 16.3259 8.2303L15.7497 7.75016L15.1735 7.27003ZM21.3259 2.2303C21.591 1.91209 21.5481 1.43917 21.2298 1.174C20.9116 0.908825 20.4387 0.951818 20.1735 1.27003L20.7497 1.75016L21.3259 2.2303ZM14.0789 4.41475C13.8936 4.78524 14.0438 5.23574 14.4143 5.42098C14.7848 5.60623 15.2353 5.45606 15.4205 5.08557L14.7497 4.75016L14.0789 4.41475ZM17.4205 1.08557C17.6058 0.715091 17.4556 0.264586 17.0851 0.0793439C16.7146 -0.105898 16.2641 0.0442702 16.0789 0.414754L16.7497 0.750164L17.4205 1.08557ZM16.8383 10.7502V10.0002H2.66115V10.7502V11.5002H16.8383V10.7502ZM6.7643 20.7502V21.5002H12.7351V20.7502V20.0002H6.7643V20.7502ZM2.66115 10.7502V10.0002C2.23966 10.0002 1.84032 10.0237 1.48884 10.1006C1.13726 10.1774 0.774097 10.3202 0.487443 10.6039C-0.122208 11.2072 -0.0621471 12.0861 0.143071 12.9129L0.870987 12.7323L1.5989 12.5516C1.50833 12.1867 1.49044 11.9537 1.50347 11.8109C1.50957 11.7442 1.52152 11.7084 1.52832 11.6926C1.53414 11.679 1.53855 11.674 1.54259 11.67C1.55311 11.6596 1.61229 11.609 1.80913 11.566C2.00606 11.5229 2.2812 11.5002 2.66115 11.5002V10.7502ZM16.8383 10.7502V11.5002C17.2182 11.5002 17.4933 11.5229 17.6903 11.566C17.8871 11.609 17.9463 11.6596 17.9568 11.67C17.9609 11.674 17.9653 11.679 17.9711 11.6926C17.9779 11.7084 17.9898 11.7442 17.9959 11.8109C18.009 11.9537 17.9911 12.1867 17.9005 12.5516L18.6284 12.7323L19.3563 12.9129C19.5616 12.0861 19.6216 11.2072 19.012 10.6039C18.7253 10.3202 18.3621 10.1774 18.0106 10.1006C17.6591 10.0237 17.2597 10.0002 16.8383 10.0002V10.7502ZM5.41927 18.1361L4.88753 18.665C4.82954 18.6067 4.80994 18.5227 4.81094 18.4825C4.81107 18.4775 4.80873 18.5182 4.75879 18.6427C4.73595 18.6997 4.70938 18.7597 4.67647 18.8335C4.64566 18.9026 4.60791 18.9869 4.57364 19.0715C4.51121 19.2257 4.41974 19.474 4.41952 19.7488L5.16952 19.7494L5.91952 19.75C5.91949 19.782 5.91279 19.7609 5.96404 19.6343C5.98662 19.5786 6.01294 19.5195 6.04647 19.4443C6.0779 19.3738 6.11594 19.2885 6.15102 19.201C6.26147 18.9256 6.53245 18.1917 5.95101 17.6072L5.41927 18.1361ZM14.0801 18.1361L13.5484 17.6072C13.2803 17.8767 13.1744 18.2046 13.18 18.5219C13.1849 18.8013 13.2758 19.0494 13.3441 19.2137C13.3804 19.3011 13.4199 19.3861 13.4521 19.4555C13.4866 19.5299 13.5133 19.5874 13.5361 19.6418C13.5876 19.7645 13.5799 19.7833 13.5799 19.75L14.3299 19.7494L15.0799 19.7488C15.0797 19.4675 14.9846 19.217 14.9191 19.0611C14.8835 18.9763 14.8443 18.8922 14.8128 18.8242C14.7789 18.7513 14.7521 18.693 14.7292 18.638C14.6791 18.5174 14.6795 18.4833 14.6798 18.4954C14.6806 18.5455 14.6557 18.6209 14.6119 18.665L14.0801 18.1361ZM12.7351 20.7502V21.5002C13.0798 21.5002 13.6249 21.4908 14.0944 21.2889C14.3466 21.1805 14.6066 21.005 14.7993 20.7234C14.9939 20.4392 15.0802 20.1051 15.0799 19.7488L14.3299 19.7494L13.5799 19.75C13.5799 19.8073 13.5732 19.8412 13.5685 19.8578C13.5661 19.8662 13.5641 19.8711 13.5631 19.8733C13.5625 19.8745 13.5621 19.8752 13.5619 19.8755C13.5618 19.8757 13.5617 19.8758 13.5617 19.8759C13.5617 19.876 13.5616 19.876 13.5616 19.876C13.5616 19.876 13.5617 19.876 13.5617 19.876C13.5617 19.876 13.5617 19.876 13.5617 19.876C13.5617 19.876 13.5615 19.8762 13.5612 19.8765C13.5606 19.8771 13.5588 19.8789 13.5551 19.8817C13.5476 19.8875 13.5314 19.8982 13.5018 19.911C13.4383 19.9383 13.3399 19.9637 13.1977 19.98C13.0578 19.9959 12.9033 20.0002 12.7351 20.0002V20.7502ZM6.7643 20.7502V20.0002C6.59612 20.0002 6.44165 19.9959 6.30167 19.98C6.15952 19.9637 6.06115 19.9383 5.99764 19.911C5.96802 19.8982 5.95183 19.8875 5.94428 19.8817C5.9406 19.8789 5.9388 19.8771 5.93821 19.8765C5.93788 19.8762 5.93775 19.876 5.93774 19.876C5.93772 19.876 5.93773 19.876 5.93774 19.876C5.93775 19.876 5.93776 19.876 5.93776 19.876C5.93776 19.876 5.93774 19.876 5.9377 19.8759C5.93766 19.8758 5.93758 19.8757 5.93748 19.8755C5.93728 19.8752 5.93689 19.8745 5.93635 19.8733C5.93531 19.8711 5.93326 19.8662 5.93092 19.8578C5.92625 19.8412 5.91947 19.8073 5.91952 19.75L5.16952 19.7494L4.41952 19.7488C4.41924 20.1051 4.50547 20.4392 4.70006 20.7234C4.89282 21.005 5.1528 21.1805 5.40505 21.2889C5.87453 21.4908 6.41959 21.5002 6.7643 21.5002V20.7502ZM5.41927 18.1361L5.95101 17.6072C5.45996 17.1135 4.9631 16.7007 4.50184 16.3264C4.03188 15.945 3.61427 15.6153 3.22938 15.2561C2.48843 14.5645 1.90825 13.798 1.5989 12.5516L0.870987 12.7323L0.143071 12.9129C0.53919 14.509 1.3104 15.5168 2.20585 16.3526C2.63916 16.7571 3.111 17.1295 3.55664 17.4911C4.01097 17.8598 4.45583 18.231 4.88753 18.665L5.41927 18.1361ZM18.6284 12.7323L17.9005 12.5516C17.5912 13.798 17.011 14.5645 16.27 15.2561C15.8851 15.6153 15.4675 15.945 14.9976 16.3264C14.5363 16.7007 14.0394 17.1135 13.5484 17.6072L14.0801 18.1361L14.6119 18.665C15.0436 18.231 15.4884 17.8598 15.9428 17.4911C16.3884 17.1295 16.8602 16.7571 17.2936 16.3526C18.189 15.5168 18.9602 14.509 19.3563 12.9129L18.6284 12.7323ZM2.2497 10.7502H2.9997C2.9997 9.83846 3.68192 9.09335 4.54992 8.99421L4.46481 8.24905L4.37969 7.5039C2.75458 7.68952 1.4997 9.07537 1.4997 10.7502H2.2497ZM7.28861 4.76733L7.12661 5.49962C7.53904 5.59086 7.89984 5.8305 8.1486 6.16388L8.7497 5.71536L9.35081 5.26684C8.89372 4.65425 8.22541 4.20643 7.45061 4.03503L7.28861 4.76733ZM4.46481 8.24905L5.15071 7.94568C4.58616 6.66927 5.81232 5.20887 7.12661 5.49962L7.28861 4.76733L7.45061 4.03503C4.93972 3.47957 2.71533 6.14775 3.7789 8.55242L4.46481 8.24905ZM7.28861 4.76733L8.02712 4.8981C8.35718 3.03419 11.1422 3.03418 11.4723 4.8981L12.2108 4.76733L12.9493 4.63655C12.3269 1.12137 7.17256 1.12137 6.5501 4.63655L7.28861 4.76733ZM12.2108 4.76733L12.3728 5.49962C13.7087 5.2041 14.9009 6.67328 14.3537 7.93434L15.0417 8.23288L15.7297 8.53143C16.7451 6.19138 14.6277 3.46452 12.0488 4.03503L12.2108 4.76733ZM13.7497 8.44234L14.0517 9.12885C15.1551 8.64342 16.4997 9.49949 16.4997 10.7502H17.2497H17.9997C17.9997 8.41871 15.5445 6.83337 13.4477 7.75584L13.7497 8.44234ZM15.7497 7.75016L16.3259 8.2303L21.3259 2.2303L20.7497 1.75016L20.1735 1.27003L15.1735 7.27003L15.7497 7.75016ZM14.7497 4.75016L15.4205 5.08557L17.4205 1.08557L16.7497 0.750164L16.0789 0.414754L14.0789 4.41475L14.7497 4.75016Z" fill="var(--stroke-0, #1C1917)"/>
</svg>
