<svg preserveAspectRatio="none" width="100%" height="100%" overflow="visible" style="display: block;" viewBox="0 0 23 20" fill="none" xmlns="http://www.w3.org/2000/svg">
<path id="Vector" d="M11.4483 14.9995V15.0095M11.4483 11.9995C11.898 12.0008 12.3351 11.8506 12.6889 11.5729C13.0428 11.2953 13.2927 10.9065 13.3983 10.4693C13.504 10.0321 13.4592 9.57213 13.2712 9.16355C13.0832 8.75497 12.763 8.42167 12.3623 8.21749C11.9644 8.0137 11.5094 7.95051 11.0711 8.03821C10.6328 8.1259 10.2371 8.35932 9.94827 8.70049M9.68826 1.95647L1.26626 16.0165C1.09274 16.3172 1.00094 16.6581 1.00001 17.0052C0.999071 17.3524 1.08902 17.6938 1.26092 17.9954C1.43283 18.2971 1.68068 18.5484 1.97986 18.7246C2.27904 18.9007 2.61911 18.9955 2.96626 18.9995H19.8113C20.1584 18.9955 20.4985 18.9007 20.7977 18.7246C21.0968 18.5484 21.3447 18.2971 21.5166 17.9954C21.6885 17.6938 21.7785 17.3524 21.7775 17.0052C21.7766 16.6581 21.6848 16.3172 21.5113 16.0165L13.0883 1.95647C12.9109 1.66446 12.6613 1.42306 12.3636 1.25553C12.0658 1.088 11.7299 1 11.3883 1C11.0466 1 10.7107 1.088 10.413 1.25553C10.1152 1.42306 9.86562 1.66446 9.68826 1.95647Z" stroke="var(--stroke-0, #1C1917)" stroke-width="2" stroke-linecap="round" stroke-linejoin="round"/>
</svg>
