<svg preserveAspectRatio="none" width="100%" height="100%" overflow="visible" style="display: block;" viewBox="0 0 18 22" fill="none" xmlns="http://www.w3.org/2000/svg">
<path id="Vector" d="M1.75 5.75L1.06194 5.45154L0.973389 5.65569L1.01051 5.8751L1.75 5.75ZM3.5102 16.1548L2.77071 16.28L2.77071 16.28L3.5102 16.1548ZM15.75 5.75L16.4895 5.8751L16.5266 5.65569L16.4381 5.45154L15.75 5.75ZM13.9898 16.1548L13.2503 16.0297L13.2503 16.0297L13.9898 16.1548ZM12.9899 19.4917L12.4232 19.0004L12.4232 19.0004L12.9899 19.4917ZM4.51007 19.4917L5.07679 19.0004L5.07679 19.0004L4.51007 19.4917ZM2.49278 4.0376L3.18084 4.33606L3.18084 4.33606L2.49278 4.0376ZM15.0072 4.0376L15.6953 3.73915L15.6953 3.73915L15.0072 4.0376ZM13.459 1.5356L13.0618 2.17179L13.0618 2.17179L13.459 1.5356ZM4.04101 1.5356L3.64382 0.899408L3.64382 0.899408L4.04101 1.5356ZM0.75 5C0.335786 5 0 5.33579 0 5.75C0 6.16421 0.335786 6.5 0.75 6.5V5.75V5ZM16.75 6.5C17.1642 6.5 17.5 6.16421 17.5 5.75C17.5 5.33579 17.1642 5 16.75 5V5.75V6.5ZM1.75 5.75L1.01051 5.8751L2.77071 16.28L3.5102 16.1548L4.2497 16.0297L2.48949 5.6249L1.75 5.75ZM15.75 5.75L15.0105 5.6249L13.2503 16.0297L13.9898 16.1548L14.7293 16.28L16.4895 5.8751L15.75 5.75ZM13.9898 16.1548L13.2503 16.0297C13.0949 16.9486 12.9865 17.5843 12.8542 18.0707C12.7257 18.5436 12.5915 18.8063 12.4232 19.0004L12.9899 19.4917L13.5567 19.9829C13.9293 19.5531 14.142 19.0516 14.3017 18.4642C14.4577 17.8903 14.5788 17.1696 14.7293 16.28L13.9898 16.1548ZM3.5102 16.1548L2.77071 16.28C2.92122 17.1696 3.04229 17.8903 3.19828 18.4642C3.35796 19.0516 3.57072 19.5531 3.94335 19.9829L4.51007 19.4917L5.07679 19.0004C4.90849 18.8063 4.77428 18.5436 4.64576 18.0707C4.51354 17.5843 4.40514 16.9486 4.2497 16.0297L3.5102 16.1548ZM12.9899 19.4917L12.4232 19.0004C12.2002 19.2577 11.7453 19.5197 11.0538 19.7132C10.3822 19.9011 9.57373 20 8.75 20C7.92627 20 7.11779 19.9011 6.44616 19.7132C5.7547 19.5197 5.29976 19.2577 5.07679 19.0004L4.51007 19.4917L3.94334 19.9829C4.44753 20.5646 5.23436 20.9317 6.04199 21.1577C6.86943 21.3892 7.81734 21.5 8.75 21.5C9.68266 21.5 10.6306 21.3892 11.458 21.1577C12.2656 20.9317 13.0525 20.5646 13.5567 19.9829L12.9899 19.4917ZM1.75 5.75L2.43806 6.04846L3.18084 4.33606L2.49278 4.0376L1.80472 3.73915L1.06194 5.45154L1.75 5.75ZM15.75 5.75L16.4381 5.45154L15.6953 3.73915L15.0072 4.0376L14.3192 4.33606L15.0619 6.04846L15.75 5.75ZM15.0072 4.0376L15.6953 3.73915C15.3977 3.05301 15.1503 2.47993 14.8921 2.03339C14.6229 1.56792 14.3118 1.18384 13.8562 0.899408L13.459 1.5356L13.0618 2.17179C13.2411 2.28373 13.3996 2.44877 13.5936 2.78428C13.7985 3.1387 14.0079 3.61844 14.3192 4.33606L15.0072 4.0376ZM2.49278 4.0376L3.18084 4.33606C3.49212 3.61844 3.70147 3.1387 3.90642 2.78428C4.10043 2.44877 4.2589 2.28373 4.4382 2.17179L4.04101 1.5356L3.64382 0.899408C3.18824 1.18384 2.87705 1.56792 2.60789 2.03339C2.34967 2.47993 2.10235 3.05301 1.80472 3.73915L2.49278 4.0376ZM4.04101 1.5356L4.4382 2.17179C4.70118 2.0076 5.25163 1.83236 6.05483 1.70248C6.82968 1.57718 7.75285 1.5071 8.68992 1.50051C9.62719 1.49392 10.5594 1.551 11.3531 1.67282C12.1712 1.79838 12.7552 1.98037 13.0618 2.17179L13.459 1.5356L13.8562 0.899408C13.2809 0.540244 12.4454 0.3229 11.5806 0.190176C10.6915 0.0537044 9.67745 -0.00646612 8.67938 0.000547935C7.68111 0.00756337 6.67982 0.0819271 5.81538 0.221716C4.97928 0.356921 4.17557 0.567417 3.64382 0.899408L4.04101 1.5356ZM0.75 5.75V6.5H16.75V5.75V5H0.75V5.75ZM10.75 13.25H10C10 14.3813 9.29283 15 8.75 15V15.75V16.5C10.4163 16.5 11.5 14.8801 11.5 13.25H10.75ZM8.75 15.75V15C8.20717 15 7.5 14.3813 7.5 13.25H6.75H6C6 14.8801 7.08369 16.5 8.75 16.5V15.75ZM6.75 13.25H7.5C7.5 12.1187 8.20717 11.5 8.75 11.5V10.75V10C7.08369 10 6 11.6199 6 13.25H6.75ZM8.75 10.75V11.5C9.29283 11.5 10 12.1187 10 13.25H10.75H11.5C11.5 11.6199 10.4163 10 8.75 10V10.75Z" fill="var(--stroke-0, #1C1917)"/>
</svg>
