<svg preserveAspectRatio="none" width="100%" height="100%" overflow="visible" style="display: block;" viewBox="0 0 22 22" fill="none" xmlns="http://www.w3.org/2000/svg">
<path id="Vector" d="M8.75 14.5947L5.43575 17.9089C6.20757 18.459 6.31154 19.6156 5.63551 20.2916C5.02426 20.9029 4.03323 20.9029 3.42198 20.2916C2.94008 19.8097 2.77512 19.0288 3.05305 18.447C2.47125 18.7249 1.69033 18.56 1.20844 18.0781C0.597187 17.4668 0.597187 16.4758 1.20844 15.8645C1.88447 15.1885 3.04108 15.2925 3.59114 16.0643L6.90538 12.7501M19.0681 2.43196C16.9194 0.283212 13.6212 0.0975697 11.2868 2.43196C8.95243 4.76634 5.24743 11.9551 7.39618 14.1039C8.48049 15.1882 10.8482 14.7819 13.228 13.8132C12.0926 12.5387 13.5072 10.4198 15.1555 11.106C14.4079 8.14835 18.4033 6.34541 20.1785 8.69864C21.2475 6.59377 20.783 4.14682 19.0681 2.43196Z" stroke="var(--stroke-0, #1C1917)" stroke-width="1.5" stroke-linejoin="round"/>
</svg>
