<svg preserveAspectRatio="none" width="100%" height="100%" overflow="visible" style="display: block;" viewBox="0 0 20 20" fill="none" xmlns="http://www.w3.org/2000/svg">
<path id="Vector" d="M1 10C1 12.3869 1.94821 14.6761 3.63604 16.364C5.32387 18.0518 7.61305 19 10 19C12.3869 19 14.6761 18.0518 16.364 16.364C18.0518 14.6761 19 12.3869 19 10C19 7.61305 18.0518 5.32387 16.364 3.63604C14.6761 1.94821 12.3869 1 10 1M15 10C15 9.0111 14.7068 8.0444 14.1574 7.22215C13.6079 6.39991 12.8271 5.75904 11.9134 5.3806C10.9998 5.00217 9.99446 4.90315 9.02455 5.09608C8.05465 5.289 7.16373 5.76521 6.46447 6.46447C5.76521 7.16373 5.289 8.05465 5.09608 9.02455C4.90315 9.99446 5.00217 10.9998 5.3806 11.9134C5.75904 12.8271 6.39991 13.6079 7.22215 14.1574C8.0444 14.7068 9.0111 15 10 15" stroke="var(--stroke-0, #1C1917)" stroke-width="2" stroke-linecap="round" stroke-linejoin="round"/>
</svg>
