<svg preserveAspectRatio="none" width="100%" height="100%" overflow="visible" style="display: block;" viewBox="0 0 14 22" fill="none" xmlns="http://www.w3.org/2000/svg">
<path id="Vector" d="M4.02273 4.5C4.43694 4.5 4.77273 4.16421 4.77273 3.75C4.77273 3.33579 4.43694 3 4.02273 3V3.75V4.5ZM3.47727 3.66465L3.70844 2.95116L3.70844 2.95116L3.47727 3.66465ZM9.47727 3C9.06306 3 8.72727 3.33579 8.72727 3.75C8.72727 4.16421 9.06306 4.5 9.47727 4.5V3.75V3ZM3.73433 11.0289L3.89614 11.7612L3.89614 11.7612L3.73433 11.0289ZM6.273 12.4158L5.71948 12.9219L5.71948 12.9219L6.273 12.4158ZM5.44845 11.5139L6.00197 11.0079L6.00197 11.0079L5.44845 11.5139ZM10.754 13.4555L11.3001 12.9415L11.3001 12.9415L10.754 13.4555ZM9.21808 12.8999L9.33688 13.6404L9.33688 13.6404L9.21808 12.8999ZM8.17453 13.0673L8.05574 12.3268L8.05574 12.3268L8.17453 13.0673ZM4.02273 0.75V1.5H9.47727V0.75V0H4.02273V0.75ZM2.38636 2.25H3.13636C3.13636 1.89588 3.47044 1.5 4.02273 1.5V0.75V0C2.76754 0 1.63636 0.947265 1.63636 2.25H2.38636ZM4.02273 3.75V3C3.91033 3 3.80473 2.98236 3.70844 2.95116L3.47727 3.66465L3.24611 4.37813C3.49103 4.45749 3.75261 4.5 4.02273 4.5V3.75ZM3.47727 3.66465L3.70844 2.95116C3.338 2.83114 3.13636 2.53378 3.13636 2.25H2.38636H1.63636C1.63636 3.27244 2.34543 4.08632 3.24611 4.37813L3.47727 3.66465ZM11.1136 2.25H10.3636C10.3636 2.53751 10.156 2.83974 9.77637 2.95595L9.99587 3.67311L10.2154 4.39027C11.1348 4.10885 11.8636 3.28703 11.8636 2.25H11.1136ZM9.99587 3.67311L9.77637 2.95595C9.68422 2.98415 9.58381 3 9.47727 3V3.75V4.5C9.73326 4.5 9.9816 4.46182 10.2154 4.39027L9.99587 3.67311ZM11.1136 2.25H11.8636C11.8636 0.947264 10.7325 0 9.47727 0V0.75V1.5C10.0296 1.5 10.3636 1.89588 10.3636 2.25H11.1136ZM12.75 12.5271H12V16.75H12.75H13.5V12.5271H12.75ZM8.38636 20.75V20H5.11364V20.75V21.5H8.38636V20.75ZM0.75 16.75H1.5V12.5271H0.75H0V16.75H0.75ZM5.11364 20.75V20C4.22583 20 3.56115 19.9567 3.05683 19.8551C2.55757 19.7546 2.26935 19.6073 2.08479 19.4381C1.71436 19.0986 1.5 18.4289 1.5 16.75H0.75H0C0 18.3804 0.162367 19.7108 1.07121 20.5439C1.52629 20.961 2.10333 21.1932 2.76071 21.3256C3.41304 21.457 4.19635 21.5 5.11364 21.5V20.75ZM12.75 16.75H12C12 18.4289 11.7856 19.0986 11.4152 19.4381C11.2307 19.6073 10.9424 19.7546 10.4432 19.8551C9.93885 19.9567 9.27417 20 8.38636 20V20.75V21.5C9.30365 21.5 10.087 21.457 10.7393 21.3256C11.3967 21.1932 11.9737 20.961 12.4288 20.5439C13.3376 19.7108 13.5 18.3804 13.5 16.75H12.75ZM0.75 12.5271H1.5C1.5 9.3195 2.53215 6.96361 4.13569 4.02379L3.47727 3.66465L2.81885 3.30551C1.18133 6.30763 0 8.9352 0 12.5271H0.75ZM9.99587 3.67311L9.33745 4.03225C10.944 6.97762 12 9.32284 12 12.5271H12.75H13.5C13.5 8.93186 12.2888 6.31054 10.6543 3.31397L9.99587 3.67311ZM3.73433 11.0289L3.57252 10.2966C3.194 10.3802 2.65949 10.4301 2.16423 10.4021C1.91828 10.3882 1.70196 10.3561 1.53034 10.309C1.35058 10.2597 1.26851 10.2071 1.24388 10.1856L0.75 10.75L0.256122 11.3144C0.517203 11.5429 0.839494 11.6749 1.13345 11.7555C1.43555 11.8384 1.7623 11.8817 2.07947 11.8997C2.71044 11.9354 3.38239 11.8748 3.89614 11.7612L3.73433 11.0289ZM6.273 12.4158L6.82652 11.9097L6.00197 11.0079L5.44845 11.5139L4.89493 12.02L5.71948 12.9219L6.273 12.4158ZM12.75 14.75C12.75 14 12.7506 14 12.7512 14C12.7514 14 12.752 14 12.7524 14C12.7532 14 12.754 14 12.7547 14C12.7563 14 12.7578 14 12.7592 14.0001C12.7621 14.0001 12.7648 14.0002 12.7674 14.0002C12.7725 14.0004 12.7768 14.0005 12.7805 14.0007C12.7878 14.0011 12.7923 14.0015 12.794 14.0017C12.7974 14.0021 12.7895 14.0014 12.7707 13.9973C12.7334 13.9891 12.6504 13.9666 12.5262 13.9086C12.2784 13.7929 11.8547 13.5305 11.3001 12.9415L10.754 13.4555L10.2079 13.9696C10.872 14.675 11.4463 15.0599 11.8918 15.2678C12.1142 15.3716 12.3017 15.43 12.4483 15.4623C12.5214 15.4783 12.5837 15.4878 12.6345 15.4932C12.6598 15.4959 12.6822 15.4976 12.7015 15.4986C12.7111 15.4992 12.72 15.4995 12.7281 15.4997C12.7321 15.4998 12.736 15.4999 12.7396 15.4999C12.7415 15.5 12.7432 15.5 12.745 15.5C12.7458 15.5 12.7467 15.5 12.7475 15.5C12.7479 15.5 12.7486 15.5 12.7488 15.5C12.7494 15.5 12.75 15.5 12.75 14.75ZM9.21808 12.8999L9.09929 12.1594L8.05574 12.3268L8.17453 13.0673L8.29333 13.8078L9.33688 13.6404L9.21808 12.8999ZM10.754 13.4555L11.3001 12.9415C10.7626 12.3704 9.95113 12.0227 9.09929 12.1594L9.21808 12.8999L9.33688 13.6404C9.63329 13.5929 9.96386 13.7103 10.2079 13.9696L10.754 13.4555ZM6.273 12.4158L5.71948 12.9219C6.36832 13.6315 7.34196 13.9605 8.29333 13.8078L8.17453 13.0673L8.05574 12.3268C7.59066 12.4014 7.12634 12.2376 6.82652 11.9097L6.273 12.4158ZM3.73433 11.0289L3.89614 11.7612C4.30519 11.6709 4.6854 11.7908 4.89493 12.02L5.44845 11.5139L6.00197 11.0079C5.36812 10.3146 4.40774 10.112 3.57252 10.2966L3.73433 11.0289Z" fill="var(--stroke-0, #1C1917)"/>
</svg>
