<svg preserveAspectRatio="none" width="100%" height="100%" overflow="visible" style="display: block;" viewBox="0 0 20 16" fill="none" xmlns="http://www.w3.org/2000/svg">
<path id="Vector" d="M15.573 13.814L18.407 10.98C18.595 10.792 18.7442 10.5687 18.846 10.323C18.9478 10.0773 19.0002 9.81395 19.0002 9.548C19.0002 9.28205 18.9478 9.0187 18.846 8.773C18.7442 8.52729 18.595 8.30404 18.407 8.116L11.29 1M3.99999 4.407H3.98999M5.859 1.407H3.025C2.48794 1.407 1.97287 1.62035 1.59311 2.00011C1.21335 2.37987 1 2.89494 1 3.432V6.266C1 6.803 1.213 7.318 1.593 7.698L7.709 13.814C7.89704 14.0021 8.12029 14.1513 8.366 14.253C8.6117 14.3548 8.87505 14.4072 9.141 14.4072C9.40695 14.4072 9.6703 14.3548 9.91601 14.253C10.1617 14.1513 10.385 14.0021 10.573 13.814L13.407 10.98C13.5951 10.792 13.7443 10.5687 13.846 10.323C13.9478 10.0773 14.0002 9.81395 14.0002 9.548C14.0002 9.28205 13.9478 9.0187 13.846 8.773C13.7443 8.52729 13.5951 8.30404 13.407 8.116L7.29 2C6.91044 1.6205 6.39574 1.40721 5.859 1.407Z" stroke="var(--stroke-0, #1C1917)" stroke-width="2" stroke-linecap="round" stroke-linejoin="round"/>
</svg>
