<svg preserveAspectRatio="none" width="100%" height="100%" overflow="visible" style="display: block;" viewBox="0 0 22 22" fill="none" xmlns="http://www.w3.org/2000/svg">
<path id="Vector" d="M1.31075 6.20574L1.85047 6.72651L1.85047 6.72651L1.31075 6.20574ZM3.73417 3.69415L4.27389 4.21493C4.40878 4.07512 4.48417 3.88843 4.48417 3.69415H3.73417ZM14.2852 2.28041L13.5353 2.26521L13.5353 2.26521L14.2852 2.28041ZM14.2642 3.31385L13.5144 3.29865L13.5144 3.29865L14.2642 3.31385ZM14.4868 3.96329L13.9038 4.43516L13.9038 4.43516L14.4868 3.96329ZM16.7723 6.78689H17.5223C17.5223 6.61511 17.4633 6.44854 17.3553 6.31502L16.7723 6.78689ZM16.0223 8.82981C16.0223 9.24402 16.3581 9.57981 16.7723 9.57981C17.1865 9.57981 17.5223 9.24402 17.5223 8.82981H16.7723H16.0223ZM6.19655 6.20574L5.65683 6.72651L5.65683 6.72651L6.19655 6.20574ZM4.31285 3.17338C4.02524 2.8753 3.55044 2.86682 3.25236 3.15443C2.95428 3.44205 2.9458 3.91685 3.23341 4.21492L3.77313 3.69415L4.31285 3.17338ZM9.71845 21.4967C10.1327 21.4967 10.4684 21.161 10.4684 20.7467C10.4684 20.3325 10.1327 19.9967 9.71845 19.9967V20.7467V21.4967ZM6.58701 6.78689L5.90086 7.08972L5.90086 7.08972L6.58701 6.78689ZM13.4745 13.4755L14.0048 14.006L14.0048 14.0059L13.4745 13.4755ZM12.8824 19.395L13.4126 18.8646L13.4126 18.8646L12.8824 19.395ZM19.3956 12.8835L19.9259 12.3531L19.9259 12.3531L19.3956 12.8835ZM15.843 15.8433L16.3731 16.3739L16.3732 16.3737L15.843 15.8433ZM16.3957 19.178C16.7662 19.3632 17.2167 19.213 17.4019 18.8425C17.5872 18.472 17.437 18.0215 17.0665 17.8363L16.7311 18.5071L16.3957 19.178ZM0.75 18.7467H1.5V7.59447H0.75H0V18.7467H0.75ZM1.31075 6.20574L1.85047 6.72651L4.27389 4.21493L3.73417 3.69415L3.19445 3.17338L0.771031 5.68497L1.31075 6.20574ZM3.73417 3.69415H4.48417V2.25H3.73417H2.98417V3.69415H3.73417ZM5.23417 0.75V1.5H12.7855V0.75V0H5.23417V0.75ZM14.2852 2.28041L13.5353 2.26521L13.5144 3.29865L14.2642 3.31385L15.0141 3.32906L15.035 2.29562L14.2852 2.28041ZM14.4868 3.96329L13.9038 4.43516L16.1893 7.25876L16.7723 6.78689L17.3553 6.31502L15.0697 3.49142L14.4868 3.96329ZM16.7723 6.78689H16.0223V8.82981H16.7723H17.5223V6.78689H16.7723ZM14.2642 3.31385L13.5144 3.29865C13.506 3.71156 13.644 4.11414 13.9038 4.43516L14.4868 3.96329L15.0697 3.49142C15.0326 3.44556 15.0129 3.38805 15.0141 3.32906L14.2642 3.31385ZM12.7855 0.75V1.5C13.2057 1.5 13.5439 1.84513 13.5353 2.26521L14.2852 2.28041L15.035 2.29562C15.0606 1.03538 14.046 0 12.7855 0V0.75ZM3.73417 2.25H4.48417C4.48417 1.83579 4.81995 1.5 5.23417 1.5V0.75V0C3.99153 0 2.98417 1.00736 2.98417 2.25H3.73417ZM0.75 7.59447H1.5C1.5 7.27068 1.62564 6.95952 1.85047 6.72651L1.31075 6.20574L0.771031 5.68497C0.27641 6.19759 0 6.88213 0 7.59447H0.75ZM0.75 18.7467H0C0 20.2655 1.23121 21.4967 2.75 21.4967V20.7467V19.9967C2.05964 19.9967 1.5 19.4371 1.5 18.7467H0.75ZM6.19655 6.20574L6.73627 5.68497L4.31285 3.17338L3.77313 3.69415L3.23341 4.21492L5.65683 6.72651L6.19655 6.20574ZM9.71845 20.7467V19.9967H6.7573V20.7467V21.4967H9.71845V20.7467ZM6.7573 7.59447H6.0073V20.7467H6.7573H7.5073V7.59447H6.7573ZM6.7573 7.59447H7.5073C7.5073 7.20853 7.42615 6.83072 7.27315 6.48406L6.58701 6.78689L5.90086 7.08972C5.97043 7.24735 6.0073 7.41904 6.0073 7.59447H6.7573ZM6.58701 6.78689L7.27315 6.48406C7.14375 6.19086 6.9629 5.91984 6.73627 5.68497L6.19655 6.20574L5.65683 6.72651C5.75986 6.83329 5.84203 6.95643 5.90086 7.08972L6.58701 6.78689ZM16.7723 6.78689V6.03689H6.58701V6.78689V7.53689H16.7723V6.78689ZM11.9942 17.3232L12.5245 16.7928C12.5243 16.7926 12.5235 16.7918 12.522 16.7895C12.5204 16.787 12.5171 16.7812 12.5132 16.7705C12.5051 16.7486 12.4942 16.7056 12.4924 16.6345C12.4888 16.4866 12.5258 16.2648 12.6373 15.9751C12.8594 15.3978 13.3254 14.6851 14.0048 14.006L13.4745 13.4755L12.9443 12.9451C12.152 13.7371 11.5509 14.6213 11.2373 15.4365C11.0808 15.8432 10.9829 16.2666 10.9929 16.6716C11.0031 17.082 11.1279 17.5176 11.464 17.8536L11.9942 17.3232ZM13.4745 13.4755L14.0048 14.0059C14.6841 13.3268 15.3971 12.8608 15.9746 12.6387C16.2643 12.5273 16.4863 12.4902 16.6343 12.4939C16.7055 12.4957 16.7486 12.5066 16.7706 12.5147C16.7813 12.5186 16.7871 12.522 16.7896 12.5235C16.792 12.525 16.7928 12.5258 16.793 12.526L17.3233 11.9956L17.8535 11.4652C17.5174 11.1293 17.0818 11.0045 16.6715 10.9944C16.2665 10.9843 15.843 11.0822 15.4363 11.2386C14.6208 11.5522 13.7365 12.1531 12.9443 12.9452L13.4745 13.4755ZM11.9942 17.3232H11.2442C11.2442 17.7467 11.3654 18.2309 11.5449 18.6669C11.726 19.1066 11.9962 19.5696 12.3521 19.9254L12.8824 19.395L13.4126 18.8646C13.2355 18.6875 13.0616 18.4107 12.9319 18.0957C12.8006 17.7769 12.7442 17.4917 12.7442 17.3232H11.9942ZM12.8824 19.395L12.3521 19.9254C14.4436 22.0163 17.8344 22.0163 19.9259 19.9254L19.3956 19.395L18.8654 18.8646C17.3597 20.3699 14.9183 20.3699 13.4126 18.8646L12.8824 19.395ZM19.3956 19.395L19.9259 19.9254C22.0174 17.8344 22.0174 14.4442 19.9259 12.3531L19.3956 12.8835L18.8654 13.4139C20.3709 14.9191 20.3709 17.3595 18.8654 18.8646L19.3956 19.395ZM19.3956 12.8835L19.9259 12.3531C19.57 11.9973 19.1068 11.7272 18.667 11.5462C18.231 11.3667 17.7467 11.2456 17.3233 11.2456V11.9956V12.7456C17.4919 12.7456 17.7772 12.802 18.0961 12.9333C18.4112 13.063 18.6882 13.2368 18.8654 13.4139L19.3956 12.8835ZM11.9942 17.3232L11.464 17.8536C12.0446 18.4341 12.8866 18.3854 13.5385 18.1961C14.2349 17.9939 14.9892 17.5639 15.6959 16.9869L15.2215 16.4059L14.7471 15.825C14.1476 16.3146 13.57 16.625 13.1202 16.7556C12.8958 16.8208 12.7334 16.8324 12.6306 16.8217C12.5815 16.8165 12.5529 16.807 12.539 16.801C12.5322 16.7981 12.5285 16.7958 12.5269 16.7947C12.5254 16.7937 12.5248 16.7931 12.5245 16.7928L11.9942 17.3232ZM17.3233 11.9956L16.793 12.526C16.7932 12.5263 16.794 12.527 16.7955 12.5294C16.797 12.5319 16.8003 12.5377 16.8043 12.5483C16.8124 12.5703 16.8233 12.6132 16.825 12.6843C16.8287 12.8322 16.7916 13.054 16.6802 13.3437C16.4581 13.921 15.9921 14.6338 15.3127 15.3129L15.843 15.8433L16.3732 16.3737C17.1655 15.5817 17.7666 14.6975 18.0802 13.8823C18.2366 13.4756 18.3346 13.0522 18.3246 12.6472C18.3144 12.2369 18.1896 11.8013 17.8535 11.4652L17.3233 11.9956ZM15.843 15.8433L15.3128 15.3128C15.1267 15.4988 14.937 15.67 14.7471 15.825L15.2215 16.4059L15.6959 16.9869C15.9253 16.7995 16.1522 16.5947 16.3731 16.3739L15.843 15.8433ZM15.2215 16.4059L14.4803 16.5207C14.5388 16.8984 14.6376 17.3906 14.9279 17.8799C15.2253 18.3811 15.69 18.8252 16.3957 19.178L16.7311 18.5071L17.0665 17.8363C16.588 17.5971 16.3521 17.3408 16.2179 17.1145C16.0765 16.8763 16.0126 16.6138 15.9627 16.2912L15.2215 16.4059ZM6.7573 20.7467V19.9967H2.75V20.7467V21.4967H6.7573V20.7467Z" fill="var(--stroke-0, #1C1917)"/>
</svg>
