<svg preserveAspectRatio="none" width="100%" height="100%" overflow="visible" style="display: block;" viewBox="0 0 18 22" fill="none" xmlns="http://www.w3.org/2000/svg">
<path id="Vector" d="M14.1757 1.62898L13.9369 2.33995L13.9369 2.33995L14.1757 1.62898ZM16.0717 6.03799L16.7688 6.31463L16.7688 6.31463L16.0717 6.03799ZM12.7439 14.424L12.0468 14.1474L12.0468 14.1474L12.7439 14.424ZM3.32412 1.62898L3.5629 2.33995L3.5629 2.33995L3.32412 1.62898ZM4.75595 14.424L5.45307 14.1474L5.45307 14.1474L4.75595 14.424ZM1.42811 6.03799L2.12522 5.76135L1.42811 6.03799ZM0.915638 3.05884L0.244936 2.7232L0.244936 2.7232L0.915638 3.05884ZM16.5842 3.05884L17.2549 2.7232L17.2549 2.72319L16.5842 3.05884ZM10.2688 4.05223L10.5349 4.75345L10.2688 4.05223ZM14.9309 5.72194L14.2706 6.07765L14.2706 6.07765L14.9309 5.72194ZM7.46719 4.0264L7.18807 4.72253L7.18807 4.72253L7.46719 4.0264ZM2.77226 5.60986L2.11915 5.24115L2.77226 5.60986ZM15.2616 7.30515C15.576 7.57482 16.0495 7.53855 16.3192 7.22414C16.5889 6.90973 16.5526 6.43625 16.2382 6.16658L15.7499 6.73586L15.2616 7.30515ZM1.30993 6.14262C0.974482 6.38561 0.899535 6.85454 1.14253 7.18998C1.38553 7.52543 1.85445 7.60038 2.1899 7.35738L1.74991 6.75L1.30993 6.14262ZM2.39557 8.41749C2.0305 8.61319 1.8932 9.06778 2.0889 9.43285C2.2846 9.79792 2.73919 9.93522 3.10426 9.73952L2.74991 9.0785L2.39557 8.41749ZM4.45661 13.0127C4.04939 13.0885 3.78075 13.4801 3.85657 13.8873C3.93239 14.2945 4.32396 14.5631 4.73118 14.4873L4.59389 13.75L4.45661 13.0127ZM10.7577 8.5C11.1719 8.5 11.5077 8.16421 11.5077 7.75C11.5077 7.33579 11.1719 7 10.7577 7V7.75V8.5ZM10.7487 7C10.3345 7 9.99875 7.33579 9.99875 7.75C9.99875 8.16421 10.3345 8.5 10.7487 8.5V7.75V7ZM10.7499 13.5C11.1641 13.5 11.4999 13.1642 11.4999 12.75C11.4999 12.3358 11.1641 12 10.7499 12V12.75V13.5ZM8.99991 13.75C8.99991 14.1642 9.3357 14.5 9.74991 14.5C10.1641 14.5 10.4999 14.1642 10.4999 13.75H9.74991H8.99991ZM8.74991 0.75V1.5C10.5732 1.5 12.3196 1.79677 13.9369 2.33995L14.1757 1.62898L14.4145 0.918004C12.6442 0.323452 10.7365 0 8.74991 0V0.75ZM16.0717 6.03799L15.3746 5.76136L12.0468 14.1474L12.7439 14.424L13.441 14.7006L16.7688 6.31463L16.0717 6.03799ZM3.32412 1.62898L3.5629 2.33995C5.18025 1.79677 6.92665 1.5 8.74991 1.5V0.75V0C6.76328 0 4.85565 0.323452 3.08534 0.918004L3.32412 1.62898ZM4.75595 14.424L5.45307 14.1474L2.12522 5.76135L1.42811 6.03799L0.730991 6.31463L4.05883 14.7006L4.75595 14.424ZM3.32412 1.62898L3.08534 0.918004C2.43055 1.13792 1.85102 1.32996 1.39639 1.5741C0.901986 1.83961 0.513819 2.1859 0.244936 2.7232L0.915638 3.05884L1.58634 3.39449C1.691 3.18535 1.82877 3.04452 2.10606 2.8956C2.42313 2.72534 2.86107 2.57566 3.5629 2.33995L3.32412 1.62898ZM1.42811 6.03799L2.12522 5.76135C1.82056 4.99361 1.62806 4.5021 1.54324 4.11113C1.46739 3.76154 1.49671 3.57358 1.58634 3.39449L0.915638 3.05884L0.244936 2.7232C-0.0389829 3.29053 -0.0487654 3.84791 0.0773409 4.42917C0.19447 4.96905 0.444982 5.5939 0.730991 6.31463L1.42811 6.03799ZM12.7439 14.424L12.0468 14.1474C11.2006 16.2798 10.5955 17.7995 10.0248 18.7958C9.44006 19.8168 9.05268 20 8.74991 20V20.75V21.5C9.93075 21.5 10.7036 20.6289 11.3265 19.5412C11.9636 18.4289 12.6136 16.7856 13.441 14.7006L12.7439 14.424ZM4.75595 14.424L4.05883 14.7006C4.8862 16.7856 5.53628 18.4289 6.17335 19.5412C6.79626 20.6289 7.56907 21.5 8.74991 21.5V20.75V20C8.44715 20 8.05977 19.8168 7.47499 18.7958C6.90438 17.7995 6.29928 16.2798 5.45307 14.1474L4.75595 14.424ZM14.1757 1.62898L13.9369 2.33995C14.6388 2.57566 15.0767 2.72534 15.3938 2.89561C15.6711 3.04452 15.8088 3.18535 15.9135 3.39449L16.5842 3.05884L17.2549 2.72319C16.986 2.1859 16.5978 1.83961 16.1034 1.5741C15.6488 1.32996 15.0693 1.13792 14.4145 0.918004L14.1757 1.62898ZM16.0717 6.03799L16.7688 6.31463C17.0548 5.5939 17.3054 4.96905 17.4225 4.42917C17.5486 3.84791 17.5388 3.29053 17.2549 2.7232L16.5842 3.05884L15.9135 3.39449C16.0031 3.57358 16.0324 3.76154 15.9566 4.11113C15.8718 4.5021 15.6793 4.99361 15.3746 5.76136L16.0717 6.03799ZM10.2688 4.05223L10.5349 4.75345C11.9718 4.20822 13.5846 4.80433 14.2706 6.07765L14.9309 5.72194L15.5912 5.36624C14.532 3.40011 12.1104 2.5513 10.0028 3.35101L10.2688 4.05223ZM7.46719 4.0264L7.18807 4.72253C8.25718 5.15118 9.45766 5.16218 10.5349 4.75345L10.2688 4.05223L10.0028 3.35101C9.27715 3.62632 8.46586 3.61878 7.7463 3.33027L7.46719 4.0264ZM7.46719 4.0264L7.7463 3.33027C5.65454 2.49159 3.21717 3.29615 2.11915 5.24115L2.77226 5.60986L3.42537 5.97856C4.13763 4.7169 5.76308 4.15118 7.18807 4.72253L7.46719 4.0264ZM14.9309 5.72194L14.2706 6.07765C14.5236 6.54727 14.8613 6.96174 15.2616 7.30515L15.7499 6.73586L16.2382 6.16658C15.9741 5.94009 15.7545 5.66939 15.5912 5.36624L14.9309 5.72194ZM1.74991 6.75L2.1899 7.35738C2.69308 6.99288 3.11691 6.52495 3.42537 5.97856L2.77226 5.60986L2.11915 5.24115C1.91985 5.59418 1.64346 5.90101 1.30993 6.14262L1.74991 6.75ZM4.07196 8.75V9.5C5.17921 9.5 5.99991 10.3355 5.99991 11.274H6.74991H7.49991C7.49991 9.42457 5.9227 8 4.07196 8V8.75ZM2.74991 9.0785L3.10426 9.73952C3.38659 9.58817 3.71623 9.5 4.07196 9.5V8.75V8C3.46609 8 2.89332 8.15066 2.39557 8.41749L2.74991 9.0785ZM6.74991 11.274H5.99991C5.99991 12.1011 5.36843 12.8429 4.45661 13.0127L4.59389 13.75L4.73118 14.4873C6.27764 14.1994 7.49991 12.898 7.49991 11.274H6.74991ZM10.7577 7.75V7H10.7487V7.75V8.5H10.7577V7.75ZM10.7499 12.75V12C10.256 12 9.82484 12.2394 9.53208 12.5322C9.23932 12.8249 8.99991 13.2561 8.99991 13.75H9.74991H10.4999C10.4999 13.7439 10.5105 13.6751 10.5927 13.5928C10.675 13.5106 10.7438 13.5 10.7499 13.5V12.75Z" fill="var(--stroke-0, #1C1917)"/>
</svg>
