<svg preserveAspectRatio="none" width="100%" height="100%" overflow="visible" style="display: block;" viewBox="0 0 20 22" fill="none" xmlns="http://www.w3.org/2000/svg">
<path id="Vector" d="M5.24979 3.74992C5.24979 3.74992 5.78774 3.86812 6.64993 4.13138C9.38199 4.96557 11.8189 6.5827 13.7498 8.75002M10.7588 9.74992H10.7498M4.03337 6.70354C5.10923 6.99849 5.794 7.98183 5.794 9.17683C5.794 10.844 4.17405 12.1182 2.57401 11.6638M5.97399 17.4985C5.4218 16.5292 5.57256 15.258 6.41755 14.4131C7.42629 13.4043 9.04243 13.3849 10.0273 14.3698C10.1927 14.5352 10.3298 14.7185 10.4386 14.9136M10.6748 15.7433C10.3786 14.5983 9.40998 13.7587 8.2608 13.7587C6.87617 13.7587 5.75369 14.9775 5.75369 16.481C5.75369 17.2776 6.06877 17.9943 6.57098 18.4921M7.96989 17.5709L16.4291 11.8811C17.8744 10.9089 18.597 10.4229 18.7283 9.53782C18.8596 8.65275 18.385 8.05798 17.4358 6.86844C15.2574 4.13852 12.2978 2.10337 8.91219 1.13133C7.62407 0.761503 6.98002 0.576593 6.28957 0.968523C5.59912 1.36045 5.37383 2.12556 4.92327 3.65578L2.15627 13.0531C0.861797 17.4494 0.214557 19.6476 1.29743 20.4891C2.3803 21.3306 4.2435 20.0774 7.96989 17.5709Z" stroke="var(--stroke-0, #1C1917)" stroke-width="1.5" stroke-linecap="round"/>
</svg>
