<svg preserveAspectRatio="none" width="100%" height="100%" overflow="visible" style="display: block;" viewBox="0 0 19 20" fill="none" xmlns="http://www.w3.org/2000/svg">
<path id="Vector" d="M3.28795 0.0251724C4.07895 -0.0878276 5.18795 0.170172 6.62095 0.991172L6.89295 1.15217L7.05295 1.25217L7.44995 1.16917C8.96375 0.87666 10.5169 0.84959 12.04 1.08917L12.496 1.16917L12.892 1.25217L13.053 1.15217C14.438 0.312172 15.54 -0.0178275 16.375 0.00417247L16.539 0.0121724L16.686 0.0291726L16.762 0.0431725L16.812 0.0541724L16.956 0.101173C17.1917 0.198629 17.3813 0.382507 17.486 0.615173C17.8952 1.52687 18.033 2.53718 17.883 3.52517L17.836 3.79217L17.79 3.98817L17.913 4.15117C18.487 4.94617 18.843 5.87917 18.943 6.85817L18.966 7.15317L18.973 7.42517C18.973 11.2802 17.314 13.3082 14.329 14.1052L14.084 14.1662L13.952 14.1952L13.966 14.3562L13.974 14.5132L13.978 14.8782L13.976 15.0912L13.973 18.9252C13.9729 19.1701 13.883 19.4065 13.7202 19.5895C13.5575 19.7726 13.3332 19.8895 13.09 19.9182L12.973 19.9252H6.97295C6.72802 19.9251 6.49161 19.8352 6.30858 19.6725C6.12554 19.5097 6.00861 19.2854 5.97995 19.0422L5.97295 18.9252V18.1912C4.15495 18.4512 2.94295 17.7672 1.86295 16.3132L1.32795 15.5472C1.04795 15.1512 0.872951 14.9682 0.738951 14.9032L0.690951 14.8842C0.443361 14.8037 0.236908 14.6299 0.115468 14.3996C-0.00597174 14.1693 -0.0328233 13.9008 0.0406201 13.651C0.114063 13.4013 0.282011 13.19 0.50877 13.0621C0.735528 12.9342 1.00322 12.8998 1.25495 12.9662C1.89695 13.1542 2.32895 13.5342 2.82495 14.2052L3.36295 14.9742C4.12295 16.0532 4.72295 16.4332 5.97195 16.1652L5.97295 15.4872L5.95495 15.3192C5.92542 15.0455 5.9184 14.77 5.93395 14.4952L5.95095 14.3102L5.96995 14.1902L5.86195 14.1662C2.88595 13.4562 1.15895 11.5932 0.986951 8.02717L0.976951 7.71717L0.972951 7.42517C0.974109 6.34175 1.28952 5.28193 1.88095 4.37417L2.03295 4.15217L2.15495 3.98917L2.10995 3.79317C1.92967 2.91474 1.97962 2.0046 2.25495 1.15117L2.35495 0.869172L2.46095 0.616172C2.56535 0.383692 2.75456 0.19984 2.98995 0.102173L3.13395 0.0551726L3.28795 0.0251724Z" fill="var(--fill-0, #1C1917)"/>
</svg>
