<svg preserveAspectRatio="none" width="100%" height="100%" overflow="visible" style="display: block;" viewBox="0 0 20 22" fill="none" xmlns="http://www.w3.org/2000/svg">
<path id="Vector" d="M3.75 10.75C3.75 9.11649 4.57273 7.48298 5.75 6.75M9.75 4.75C9.75 3.41667 10.35 0.75 12.75 0.75M0.75 9.7778C0.75 6.7639 2.98858 3.75 5.75 3.75C7.17542 3.75 8.46153 4.5349 9.37234 5.38254C9.58397 5.57949 9.91603 5.57949 10.1277 5.38254C11.0385 4.5349 12.3246 3.75 13.75 3.75C16.5114 3.75 18.75 6.7639 18.75 9.7778C18.75 13.294 18.25 15.8056 16.25 18.8195C14.7296 20.8562 12.6997 21.3668 10.5361 19.9403C10.0743 19.6359 9.42569 19.6359 8.96395 19.9403C6.80026 21.3668 4.77044 20.8562 3.25 18.8195C1.25 15.8056 0.75 13.294 0.75 9.7778Z" stroke="var(--stroke-0, #1C1917)" stroke-width="1.5" stroke-linecap="round" stroke-linejoin="round"/>
</svg>
