<svg preserveAspectRatio="none" width="100%" height="100%" overflow="visible" style="display: block;" viewBox="0 0 27 32" fill="none" xmlns="http://www.w3.org/2000/svg">
<g id="Vector">
<path d="M18.4162 1.96619C17.6661 2.11621 16.7285 3.7789 16.3535 4.5915C16.916 5.5291 20.1039 6.09167 21.229 6.09167C22.3542 6.09167 23.2918 2.52876 22.5417 2.71628C21.7916 2.9038 19.3538 1.77867 18.4162 1.96619Z" fill="#FAFBFC"/>
<path d="M23.8543 18.8431C23.8543 24.6428 18.9009 29.3443 12.7905 29.3443C6.68018 29.3443 1.72676 24.6428 1.72676 18.8431C1.72676 13.0434 6.68018 8.34189 12.7905 8.34189C18.9009 8.34189 23.8543 13.0434 23.8543 18.8431Z" fill="#8FC766"/>
<path d="M23.1196 20.919C23.3937 19.6122 23.4075 18.264 23.1606 16.9518C22.9137 15.6396 22.4107 14.389 21.6805 13.2711C20.9503 12.1533 20.0071 11.1902 18.9047 10.4369C18.2178 9.9675 17.4774 9.58505 16.7008 9.2973L16.0152 12.566C16.4147 12.5368 16.8247 12.4665 17.2468 12.3554C18.048 12.1447 18.8685 12.6234 19.0793 13.4246C19.29 14.2259 18.8113 15.0463 18.0101 15.2571C15.1503 16.0093 12.4873 15.4507 10.1707 13.6129C9.52166 13.0979 9.413 12.1543 9.92795 11.5052C10.4429 10.8564 11.3862 10.7476 12.0352 11.2624C12.3772 11.5337 12.7247 11.7629 13.0788 11.9501L13.7643 8.68141C12.9375 8.63284 12.106 8.68559 11.2883 8.83942C9.97604 9.08629 8.72512 9.58918 7.60725 10.3194C6.48943 11.0497 5.52628 11.9928 4.77298 13.0952C4.01967 14.1977 3.49094 15.4378 3.21684 16.7446C2.94275 18.0514 2.92867 19.3994 3.17552 20.7116C3.42239 22.0239 3.92528 23.2748 4.65553 24.3927C5.38578 25.5106 6.32922 26.4737 7.43168 27.227C8.53412 27.9803 9.77424 28.5091 11.081 28.7832C12.3878 29.0572 13.7359 29.0714 15.0481 28.8245C16.3603 28.5776 17.6109 28.0746 18.7288 27.3444C19.8467 26.6141 20.8098 25.6707 21.5631 24.5683C22.3164 23.4658 22.8455 22.2258 23.1196 20.919ZM21.6811 3.41576L19.8867 3.0394C19.4108 2.93958 18.9147 3.03282 18.5075 3.29875C18.1004 3.56468 17.8157 3.98156 17.7159 4.45745L17.6817 4.62055L19.4761 4.99691C19.952 5.09673 20.4481 5.00351 20.8553 4.73756C21.2624 4.47161 21.5471 4.05477 21.6469 3.57885L21.6811 3.41576ZM24.5834 4.19474C24.3202 5.44946 23.5696 6.54847 22.4963 7.24961C21.923 7.6241 21.2826 7.86829 20.6193 7.97488C22.0376 8.94825 23.2517 10.1899 24.1925 11.6302C25.1383 13.0779 25.7897 14.6977 26.1094 16.3971C26.4291 18.0966 26.411 19.8424 26.0561 21.5349C25.7011 23.2273 25.0162 24.8333 24.0406 26.2611C23.065 27.6888 21.8176 28.9104 20.3699 29.8561C18.9221 30.8018 17.3023 31.4532 15.6029 31.773C13.9034 32.0927 12.1576 32.0746 10.4651 31.7196C8.7727 31.3646 7.16672 30.6797 5.73895 29.7041C4.31118 28.7285 3.08965 27.4811 2.14391 26.0334C1.19818 24.5857 0.546766 22.9659 0.227047 21.2664C-0.0926688 19.567 -0.0745852 17.8211 0.280386 16.1287C0.635363 14.4363 1.32029 12.8302 2.2959 11.4025C3.27151 9.97476 4.5189 8.75317 5.96661 7.80746C7.41433 6.86175 9.03416 6.2103 10.7336 5.89059C11.9394 5.66375 13.1685 5.60761 14.3854 5.72058L14.7795 3.84156C15.0426 2.58694 15.7933 1.48818 16.8665 0.787053C17.9398 0.0859136 19.2479 -0.160222 20.5026 0.102943L23.7652 0.787248C24.5761 0.957322 25.0956 1.75254 24.9255 2.56342L24.5834 4.19474Z" fill="var(--fill-0, #1C1917)"/>
</g>
</svg>
