<svg preserveAspectRatio="none" width="100%" height="100%" overflow="visible" style="display: block;" viewBox="0 0 22 22" fill="none" xmlns="http://www.w3.org/2000/svg">
<path id="Vector" d="M20.6916 12.6085L19.9547 12.469L19.9547 12.469L20.6916 12.6085ZM19.0601 11.0938L18.9307 11.8325L18.9307 11.8325L19.0601 11.0938ZM16.9833 9.33795L17.6969 9.10718L17.6969 9.10718L16.9833 9.33795ZM15.9852 8.61547L16.0163 7.86612L16.0163 7.86612L15.9852 8.61547ZM13.9532 5.77595L14.6332 6.09232L14.6332 6.09232L13.9532 5.77595ZM13.7578 4.9444L13.2973 5.53639L13.2973 5.53639L13.7578 4.9444ZM12.8478 2.37596L13.5917 2.47146L13.5917 2.47146L12.8478 2.37596ZM11.9354 0.804471L11.8561 1.55026L11.8561 1.55026L11.9354 0.804471ZM9.75781 11.4999C10.172 11.4999 10.5078 11.1641 10.5078 10.7499C10.5078 10.3357 10.172 9.99993 9.75781 9.99993V10.7499V11.4999ZM9.74883 9.99993C9.33462 9.99993 8.99883 10.3357 8.99883 10.7499C8.99883 11.1641 9.33462 11.4999 9.74883 11.4999V10.7499V9.99993ZM4.75781 9.49993C5.17203 9.49993 5.50781 9.16414 5.50781 8.74993C5.50781 8.33571 5.17203 7.99993 4.75781 7.99993V8.74993V9.49993ZM4.74883 7.99993C4.33462 7.99993 3.99883 8.33571 3.99883 8.74993C3.99883 9.16414 4.33462 9.49993 4.74883 9.49993V8.74993V7.99993ZM10.7578 17.4999C11.172 17.4999 11.5078 17.1641 11.5078 16.7499C11.5078 16.3357 11.172 15.9999 10.7578 15.9999V16.7499V17.4999ZM10.7488 15.9999C10.3346 15.9999 9.99883 16.3357 9.99883 16.7499C9.99883 17.1641 10.3346 17.4999 10.7488 17.4999V16.7499V15.9999ZM9.28033 5.28026C9.57322 4.98736 9.57322 4.51249 9.28033 4.2196C8.98744 3.9267 8.51256 3.9267 8.21967 4.2196L8.75 4.74993L9.28033 5.28026ZM7.21967 5.2196C6.92678 5.51249 6.92678 5.98736 7.21967 6.28026C7.51256 6.57315 7.98744 6.57315 8.28033 6.28026L7.75 5.74993L7.21967 5.2196ZM16.2803 13.2803C16.5732 12.9874 16.5732 12.5125 16.2803 12.2196C15.9874 11.9267 15.5126 11.9267 15.2197 12.2196L15.75 12.7499L16.2803 13.2803ZM14.2197 13.2196C13.9268 13.5125 13.9268 13.9874 14.2197 14.2803C14.5126 14.5731 14.9874 14.5731 15.2803 14.2803L14.75 13.7499L14.2197 13.2196ZM6.28033 13.2196C5.98744 12.9267 5.51256 12.9267 5.21967 13.2196C4.92678 13.5125 4.92678 13.9874 5.21967 14.2803L5.75 13.7499L6.28033 13.2196ZM6.21967 15.2803C6.51256 15.5731 6.98744 15.5731 7.28033 15.2803C7.57322 14.9874 7.57322 14.5125 7.28033 14.2196L6.75 14.7499L6.21967 15.2803ZM20.6916 12.6085L19.9547 12.469C19.1432 16.7538 15.3582 19.9999 10.8079 19.9999V20.7499V21.4999C16.0868 21.4999 20.4843 17.7334 21.4285 12.7481L20.6916 12.6085ZM10.8079 20.7499V19.9999C5.66358 19.9999 1.5 15.8525 1.5 10.7447H0.75H0C0 16.6883 4.84259 21.4999 10.8079 21.4999V20.7499ZM19.0601 11.0938L19.1895 10.355C18.5123 10.2364 17.9159 9.78435 17.6969 9.10718L16.9833 9.33795L16.2697 9.56873C16.6837 10.8489 17.7869 11.6322 18.9307 11.8325L19.0601 11.0938ZM15.9852 8.61547L16.0163 7.86612C15.5464 7.84658 15.0955 7.58178 14.8148 7.19711C14.5348 6.81336 14.4863 6.40807 14.6332 6.09232L13.9532 5.77595L13.2732 5.45958C12.8419 6.3867 13.0849 7.37105 13.6031 8.08128C14.1207 8.79058 14.9748 9.32411 15.954 9.36482L15.9852 8.61547ZM13.7578 4.9444L14.2183 4.35241C13.7712 4.00467 13.4892 3.26969 13.5917 2.47146L12.8478 2.37596L12.1039 2.28046C11.952 3.46336 12.3297 4.78378 13.2973 5.53639L13.7578 4.9444ZM0.75 10.7447H1.5C1.5 5.23767 6.54761 0.985456 11.8561 1.55026L11.9354 0.804471L12.0148 0.0586801C5.86552 -0.595583 0 4.30138 0 10.7447H0.75ZM12.8478 2.37596L13.5917 2.47146C13.6237 2.22168 13.66 1.95918 13.6709 1.73352C13.6817 1.51106 13.6758 1.22179 13.5566 0.941489C13.271 0.270434 12.5807 0.118893 12.0148 0.05868L11.9354 0.804471L11.8561 1.55026C12.1101 1.57729 12.2195 1.61305 12.2565 1.63031C12.2647 1.63413 12.2075 1.60216 12.1763 1.52885C12.1611 1.49304 12.1801 1.50743 12.1727 1.66087C12.1654 1.81112 12.1403 1.99677 12.1039 2.28046L12.8478 2.37596ZM13.9532 5.77595L14.6332 6.09232C14.6846 5.98203 14.7461 5.84779 14.7867 5.71739C14.8297 5.57918 14.8732 5.37344 14.8191 5.13699C14.7646 4.89848 14.6343 4.73096 14.5306 4.62282C14.4337 4.52168 14.3162 4.42864 14.2182 4.35241L13.7578 4.9444L13.2973 5.53639C13.3453 5.57375 13.3804 5.60176 13.4073 5.62452C13.4346 5.64759 13.4456 5.65854 13.4477 5.66075C13.4497 5.66281 13.4344 5.64739 13.415 5.61586C13.3939 5.58146 13.3708 5.53256 13.3569 5.47145C13.3429 5.41056 13.3426 5.35768 13.3462 5.31996C13.3496 5.28548 13.3559 5.267 13.3544 5.27188C13.3528 5.27685 13.3473 5.29323 13.3327 5.32759C13.3183 5.36155 13.2994 5.40344 13.2732 5.45958L13.9532 5.77595ZM16.9833 9.33795L17.6969 9.10718C17.6429 8.94013 17.5824 8.76386 17.5048 8.6101C17.4215 8.44512 17.298 8.26302 17.0948 8.12186C16.8968 7.98424 16.6889 7.93173 16.5223 7.90585C16.3636 7.8812 16.1839 7.87309 16.0163 7.86612L15.9852 8.61547L15.954 9.36482C16.1376 9.37246 16.2314 9.37865 16.292 9.38807C16.3448 9.39627 16.3021 9.3976 16.2388 9.35364C16.1705 9.30615 16.1513 9.25754 16.1656 9.28594C16.1856 9.32557 16.216 9.40256 16.2697 9.56873L16.9833 9.33795ZM20.6916 12.6085L21.4285 12.7481C21.4996 12.3731 21.5312 12.0052 21.4591 11.6707C21.3773 11.2916 21.1704 10.9944 20.8601 10.7943C20.5934 10.6224 20.2853 10.5469 20.0381 10.498C19.804 10.4517 19.4602 10.4024 19.1895 10.355L19.0601 11.0938L18.9307 11.8325C19.3014 11.8975 19.5146 11.9235 19.747 11.9695C19.8485 11.9896 19.9211 12.0079 19.9745 12.0254C20.0003 12.0338 20.0184 12.0411 20.0307 12.0466C20.0428 12.0521 20.0476 12.0552 20.0473 12.0551C20.0443 12.0531 20.0263 12.0401 20.0088 12.0146C19.9917 11.9898 19.9902 11.9749 19.9928 11.9871C20.0019 12.0292 20.0127 12.163 19.9547 12.469L20.6916 12.6085ZM9.75781 10.7499V9.99993H9.74883V10.7499V11.4999H9.75781V10.7499ZM4.75781 8.74993V7.99993H4.74883V8.74993V9.49993H4.75781V8.74993ZM10.7578 16.7499V15.9999H10.7488V16.7499V17.4999H10.7578V16.7499ZM8.75 4.74993L8.21967 4.2196L7.21967 5.2196L7.75 5.74993L8.28033 6.28026L9.28033 5.28026L8.75 4.74993ZM15.75 12.7499L15.2197 12.2196L14.2197 13.2196L14.75 13.7499L15.2803 14.2803L16.2803 13.2803L15.75 12.7499ZM5.75 13.7499L5.21967 14.2803L6.21967 15.2803L6.75 14.7499L7.28033 14.2196L6.28033 13.2196L5.75 13.7499Z" fill="var(--stroke-0, #1C1917)"/>
</svg>
