<svg preserveAspectRatio="none" width="100%" height="100%" overflow="visible" style="display: block;" viewBox="0 0 22 20" fill="none" xmlns="http://www.w3.org/2000/svg">
<path id="Vector" d="M15.7501 0.75C18.0367 0.75 21.8461 0.75 20.4507 5.7209M20.4507 5.7209C19.1169 5.88688 17.2741 6.25 16.7661 3.75M20.4507 5.7209L20.5421 6.45069C20.7202 7.8729 20.1118 9.28024 18.9471 10.14L16.7661 11.75M5.75008 0.75C3.46341 0.75 -0.345935 0.75 1.04941 5.7209M1.04941 5.7209C2.3833 5.88688 4.22608 6.25 4.73408 3.75M1.04941 5.7209L0.958019 6.45069C0.77991 7.8729 1.38837 9.28024 2.5531 10.14L4.73408 11.75M6.75008 16.75C5.29553 16.75 3.84099 16.75 2.75008 18.75M14.7501 16.75C16.2046 16.75 17.6592 16.75 18.7501 18.75M4.75008 14.25C3.75008 14.25 1.75008 13.75 0.75008 12.25M16.7501 14.25C17.7501 14.25 19.7501 13.75 20.7501 12.25M12.7501 7.75L13.2501 6.25M8.75008 7.75L8.25008 6.25M16.7501 12.9395C16.7501 15.221 14.1098 17.2159 12.3321 18.3005C11.3499 18.8998 10.1503 18.8998 9.16804 18.3005C7.39039 17.2159 4.75008 15.221 4.75008 12.9395C4.75008 9.5002 7.43637 7.75 10.7501 7.75C14.0638 7.75 16.7501 9.5002 16.7501 12.9395Z" stroke="var(--stroke-0, #1C1917)" stroke-width="1.5" stroke-linecap="round" stroke-linejoin="round"/>
</svg>
