<svg preserveAspectRatio="none" width="100%" height="100%" overflow="visible" style="display: block;" viewBox="0 0 22 22" fill="none" xmlns="http://www.w3.org/2000/svg">
<path id="Vector" d="M15.75 11.9808L15.4105 12.6496C15.6239 12.7579 15.8761 12.7579 16.0895 12.6496L15.75 11.9808ZM17.5682 11.5193L17.5682 12.2693L17.5682 12.2693L17.5682 11.5193ZM18.4773 9.5C18.8915 9.5 19.2273 9.16421 19.2273 8.75C19.2273 8.33579 18.8915 8 18.4773 8V8.75V9.5ZM3.99561 4.5C4.40982 4.5 4.74561 4.16421 4.74561 3.75C4.74561 3.33579 4.40982 3 3.99561 3V3.75V4.5ZM3.45467 3.66465L3.68759 2.95173L3.68758 2.95173L3.45467 3.66465ZM9.40496 3C8.99074 3 8.65496 3.33579 8.65496 3.75C8.65496 4.16421 8.99074 4.5 9.40496 4.5V3.75V3ZM9.17801 21.5C9.59223 21.5 9.92801 21.1642 9.92801 20.75C9.92801 20.3358 9.59223 20 9.17801 20V20.75V21.5ZM12.1388 8.75L12.8612 8.5483L12.8612 8.5483L12.1388 8.75ZM11.5218 9.35237C11.6209 9.75454 12.0273 10.0002 12.4295 9.90106C12.8317 9.80192 13.0773 9.39553 12.9782 8.99336L12.25 9.17286L11.5218 9.35237ZM10.75 16.1346H10C10 19.418 12.9331 21.5 15.75 21.5V20.75V20C13.5461 20 11.5 18.3894 11.5 16.1346H10.75ZM15.75 20.75V21.5C18.5669 21.5 21.5 19.418 21.5 16.1346H20.75H20C20 18.3894 17.9539 20 15.75 20V20.75ZM15.75 11.9808C16.0895 11.3121 16.0894 11.312 16.0892 11.3119C16.0892 11.3119 16.0891 11.3118 16.089 11.3118C16.0887 11.3117 16.0885 11.3116 16.0883 11.3114C16.0878 11.3112 16.0873 11.3109 16.0867 11.3106C16.0856 11.3101 16.0842 11.3094 16.0826 11.3086C16.0794 11.307 16.0753 11.3049 16.0703 11.3025C16.0604 11.2976 16.047 11.2911 16.0303 11.2832C15.9971 11.2675 15.9507 11.2461 15.893 11.221C15.7781 11.171 15.6162 11.1053 15.4223 11.0396C15.0436 10.9115 14.5015 10.7693 13.9318 10.7693V11.5193V12.2693C14.2712 12.2693 14.6382 12.3578 14.9414 12.4604C15.0884 12.5102 15.2106 12.5599 15.2945 12.5964C15.3362 12.6146 15.368 12.6293 15.388 12.6387C15.398 12.6435 15.405 12.6469 15.4088 12.6488C15.4108 12.6497 15.4119 12.6503 15.4121 12.6504C15.4123 12.6505 15.4122 12.6504 15.4119 12.6503C15.4118 12.6502 15.4116 12.6501 15.4114 12.65C15.4112 12.6499 15.4111 12.6499 15.411 12.6498C15.4109 12.6498 15.4108 12.6497 15.4107 12.6497C15.4106 12.6496 15.4105 12.6496 15.75 11.9808ZM13.9318 11.5193V10.7693C12.934 10.7693 11.9427 11.4168 11.2364 12.3295C10.5092 13.2692 10 14.5846 10 16.1346H10.75H11.5C11.5 14.9154 11.8998 13.9232 12.4227 13.2475C12.9664 12.5449 13.566 12.2693 13.9318 12.2693V11.5193ZM20.75 16.1346H21.5C21.5 14.5846 20.9908 13.2692 20.2636 12.3295C19.5573 11.4168 18.566 10.7693 17.5682 10.7693L17.5682 11.5193L17.5682 12.2693C17.934 12.2693 18.5336 12.5449 19.0773 13.2475C19.6002 13.9232 20 14.9154 20 16.1346H20.75ZM17.5682 11.5193L17.5682 10.7693C16.9985 10.7693 16.4564 10.9115 16.0777 11.0396C15.8838 11.1053 15.7219 11.171 15.607 11.221C15.5493 11.2461 15.5029 11.2675 15.4697 11.2832C15.453 11.2911 15.4396 11.2976 15.4297 11.3025C15.4247 11.3049 15.4206 11.307 15.4174 11.3086C15.4158 11.3094 15.4144 11.3101 15.4133 11.3106C15.4127 11.3109 15.4122 11.3112 15.4117 11.3114C15.4115 11.3116 15.4113 11.3117 15.411 11.3118C15.4109 11.3118 15.4108 11.3119 15.4108 11.3119C15.4106 11.312 15.4105 11.3121 15.75 11.9808C16.0895 12.6496 16.0894 12.6496 16.0893 12.6497C16.0892 12.6497 16.0891 12.6498 16.089 12.6498C16.0889 12.6499 16.0888 12.6499 16.0886 12.65C16.0884 12.6501 16.0882 12.6502 16.0881 12.6503C16.0878 12.6504 16.0877 12.6505 16.0879 12.6504C16.0881 12.6503 16.0892 12.6497 16.0912 12.6488C16.095 12.6469 16.102 12.6435 16.112 12.6387C16.132 12.6293 16.1638 12.6146 16.2055 12.5964C16.2894 12.5599 16.4116 12.5102 16.5586 12.4605C16.8618 12.3578 17.2288 12.2693 17.5682 12.2693L17.5682 11.5193ZM15.75 11.9808H16.5C16.5 11.4333 16.6849 10.7808 17.0416 10.2829C17.3855 9.80266 17.8577 9.5 18.4773 9.5V8.75V8C17.2786 8 16.3872 8.62043 15.8221 9.40945C15.2696 10.1807 15 11.1437 15 11.9808H15.75ZM3.99561 0.75V1.5H9.40496V0.75V0H3.99561V0.75ZM2.3728 2.25H3.1228C3.1228 1.89027 3.45691 1.5 3.99561 1.5V0.75V0C2.74181 0 1.6228 0.95288 1.6228 2.25H2.3728ZM3.99561 3.75V3C3.88548 3 3.782 2.98257 3.68759 2.95173L3.45467 3.66465L3.22176 4.37756C3.46573 4.45727 3.72639 4.5 3.99561 4.5V3.75ZM3.45467 3.66465L3.68758 2.95173C3.32505 2.83329 3.1228 2.5378 3.1228 2.25H2.3728H1.6228C1.6228 3.26842 2.32371 4.08417 3.22176 4.37757L3.45467 3.66465ZM11.0278 2.25H10.2778C10.2778 2.54161 10.0695 2.84182 9.69808 2.95646L9.91926 3.67311L10.1404 4.38975C11.0573 4.10678 11.7778 3.28293 11.7778 2.25H11.0278ZM9.91926 3.67311L9.69808 2.95646C9.60774 2.98434 9.50935 3 9.40496 3V3.75V4.5C9.66008 4.5 9.90755 4.46163 10.1404 4.38975L9.91926 3.67311ZM11.0278 2.25H11.7778C11.7778 0.95288 10.6588 0 9.40496 0V0.75V1.5C9.94366 1.5 10.2778 1.89027 10.2778 2.25H11.0278ZM9.17801 20.75V20H5.07748V20.75V21.5H9.17801V20.75ZM0.75 16.75H1.5V12.5271H0.75H0V16.75H0.75ZM5.07748 20.75V20C4.19729 20 3.53908 19.9567 3.04013 19.8554C2.54655 19.7551 2.26228 19.6085 2.08022 19.4402C1.71291 19.1007 1.5 18.4297 1.5 16.75H0.75H0C0 18.3796 0.160696 19.7086 1.06206 20.5418C1.51433 20.9598 2.08817 21.1927 2.74164 21.3254C3.38974 21.457 4.16754 21.5 5.07748 21.5V20.75ZM0.75 12.5271H1.5C1.5 9.31794 2.52417 6.96117 4.11434 4.02149L3.45467 3.66465L2.795 3.30781C1.17098 6.31007 0 8.93676 0 12.5271H0.75ZM9.91926 3.67311L9.25959 4.02994C10.2104 5.78767 10.9609 7.32024 11.4165 8.9517L12.1388 8.75L12.8612 8.5483C12.3581 6.7465 11.539 5.09119 10.5789 3.31627L9.91926 3.67311ZM12.1388 8.75L11.4165 8.9517C11.4536 9.08457 11.4887 9.21807 11.5218 9.35237L12.25 9.17286L12.9782 8.99336C12.9414 8.8439 12.9023 8.6956 12.8612 8.5483L12.1388 8.75Z" fill="var(--stroke-0, #1C1917)"/>
</svg>
