<svg preserveAspectRatio="none" width="100%" height="100%" overflow="visible" style="display: block;" viewBox="0 0 22 18" fill="none" xmlns="http://www.w3.org/2000/svg">
<path id="Vector" d="M18.9973 5.4504L19.7188 5.24583L19.7188 5.24583L18.9973 5.4504ZM2.50315 5.4504L3.22471 5.65497L2.50315 5.4504ZM2.44086 7.27587L3.06201 6.85555L3.06201 6.85555L2.44086 7.27587ZM19.0596 7.27587L19.6807 7.6962L19.6807 7.6962L19.0596 7.27587ZM2.50294 13.3926L1.80584 13.6693L1.80584 13.6693L2.50294 13.3926ZM18.9971 13.3926L18.3 13.1159L18.9971 13.3926ZM19.0593 12.0887L18.5149 12.6045L18.5149 12.6045L19.0593 12.0887ZM2.44065 12.0887L1.89619 11.5729L1.89618 11.5729L2.44065 12.0887ZM4.75 12.5C5.16421 12.5 5.5 12.1642 5.5 11.75C5.5 11.3358 5.16421 11 4.75 11V11.75V12.5ZM12.75 11C12.3358 11 12 11.3358 12 11.75C12 12.1642 12.3358 12.5 12.75 12.5V11.75V11ZM17.75 11C17.3358 11 17 11.3358 17 11.75C17 12.1642 17.3358 12.5 17.75 12.5V11.75V11ZM3.75 12.5C4.16421 12.5 4.5 12.1642 4.5 11.75C4.5 11.3358 4.16421 11 3.75 11V11.75V12.5ZM6.23149 9.4784L5.66204 9.96649L5.66204 9.96649L6.23149 9.4784ZM9.26851 9.4784L8.69907 8.99031L8.69907 8.99031L9.26851 9.4784ZM7.75781 5.5C8.17203 5.5 8.50781 5.16421 8.50781 4.75C8.50781 4.33579 8.17203 4 7.75781 4V4.75V5.5ZM7.74883 4C7.33462 4 6.99883 4.33579 6.99883 4.75C6.99883 5.16421 7.33462 5.5 7.74883 5.5V4.75V4ZM14.2803 4.28033C14.5732 3.98744 14.5732 3.51256 14.2803 3.21967C13.9874 2.92678 13.5126 2.92678 13.2197 3.21967L13.75 3.75L14.2803 4.28033ZM12.2197 4.21967C11.9268 4.51256 11.9268 4.98744 12.2197 5.28033C12.5126 5.57322 12.9874 5.57322 13.2803 5.28033L12.75 4.75L12.2197 4.21967ZM7.89613 0.75V1.5H13.6043V0.75V0H7.89613V0.75ZM13.6043 0.75V1.5C15.6716 1.5 17.5633 3.14214 18.2757 5.65497L18.9973 5.4504L19.7188 5.24583C18.8797 2.28588 16.5282 0 13.6043 0V0.75ZM2.50315 5.4504L3.22471 5.65497C3.93711 3.14214 5.82884 1.5 7.89613 1.5V0.75V0C4.97217 0 2.62075 2.28588 1.78158 5.24583L2.50315 5.4504ZM17.1719 7.75V7H4.32854V7.75V8.5H17.1719V7.75ZM2.50315 5.4504L1.78158 5.24583C1.66169 5.66873 1.5397 6.08724 1.50851 6.46079C1.47262 6.89073 1.55011 7.29778 1.81971 7.6962L2.44086 7.27587L3.06201 6.85555C3.01078 6.77985 2.99171 6.72461 3.00331 6.58557C3.01963 6.39014 3.08919 6.13298 3.22471 5.65497L2.50315 5.4504ZM4.32854 7.75V7C3.77563 7 3.47063 6.99666 3.25808 6.95484C3.10447 6.92462 3.08747 6.89317 3.06201 6.85555L2.44086 7.27587L1.81971 7.6962C2.11509 8.1327 2.51964 8.33832 2.96852 8.42663C3.35846 8.50334 3.83689 8.5 4.32854 8.5V7.75ZM18.9973 5.4504L18.2757 5.65497C18.4112 6.13297 18.4808 6.39014 18.4971 6.58557C18.5087 6.72461 18.4896 6.77985 18.4384 6.85555L19.0596 7.27587L19.6807 7.6962C19.9503 7.29778 20.0278 6.89073 19.9919 6.46079C19.9607 6.08724 19.8387 5.66873 19.7188 5.24583L18.9973 5.4504ZM17.1719 7.75V8.5C17.6635 8.5 18.142 8.50334 18.5319 8.42663C18.9808 8.33832 19.3853 8.1327 19.6807 7.6962L19.0596 7.27587L18.4384 6.85555C18.4129 6.89317 18.3959 6.92462 18.2423 6.95484C18.0298 6.99666 17.7248 7 17.1719 7V7.75ZM13.6041 16.75V16H7.89593V16.75V17.5H13.6041V16.75ZM7.89593 16.75V16C5.66836 16 3.84857 14.7498 3.20003 13.1159L2.50294 13.3926L1.80584 13.6693C2.70888 15.9444 5.13223 17.5 7.89593 17.5V16.75ZM18.9971 13.3926L18.3 13.1159C17.6514 14.7498 15.8316 16 13.6041 16V16.75V17.5C16.3678 17.5 18.7911 15.9444 19.6942 13.6693L18.9971 13.3926ZM18.9971 13.3926L19.6942 13.6693C19.8066 13.3859 19.9513 13.0377 19.9892 12.7134C20.0109 12.5276 20.0035 12.3217 19.9327 12.1085C19.8621 11.8959 19.7433 11.7201 19.6038 11.5729L19.0593 12.0887L18.5149 12.6045C18.5358 12.6266 18.5213 12.6179 18.5091 12.581C18.4966 12.5435 18.5014 12.5218 18.4994 12.5392C18.4964 12.5646 18.4854 12.6185 18.4497 12.7233C18.414 12.8279 18.3659 12.9499 18.3 13.1159L18.9971 13.3926ZM17.1717 11.75V12.5C17.7161 12.5 18.0456 12.5017 18.2825 12.535C18.3917 12.5504 18.4494 12.5688 18.4789 12.5815C18.502 12.5915 18.509 12.5982 18.5149 12.6045L19.0593 12.0887L19.6038 11.5729C19.2815 11.2326 18.8815 11.1045 18.4913 11.0496C18.1257 10.9983 17.6718 11 17.1717 11V11.75ZM2.50294 13.3926L3.20004 13.1159C3.13415 12.9499 3.08595 12.8279 3.05032 12.7233C3.01464 12.6185 3.0036 12.5646 3.00063 12.5392C2.99859 12.5218 3.00339 12.5435 2.99094 12.581C2.97869 12.6179 2.96416 12.6266 2.98512 12.6045L2.44065 12.0887L1.89618 11.5729C1.75673 11.7201 1.63785 11.8959 1.5673 12.1085C1.49653 12.3217 1.48907 12.5276 1.51077 12.7134C1.54868 13.0377 1.69339 13.3859 1.80584 13.6693L2.50294 13.3926ZM4.32833 11.75V11C3.82824 11 3.37427 10.9983 3.00872 11.0496C2.6185 11.1045 2.21852 11.2326 1.89619 11.5729L2.44065 12.0887L2.98512 12.6045C2.99101 12.5982 2.99797 12.5915 3.02113 12.5815C3.05056 12.5688 3.10832 12.5504 3.21746 12.535C3.4544 12.5017 3.78386 12.5 4.32833 12.5V11.75ZM4.32833 11.75V12.5H4.75V11.75V11H4.32833V11.75ZM17.1717 11.75V11H12.75V11.75V12.5H17.1717V11.75ZM18.75 11.75V12.5C20.2688 12.5 21.5 11.2688 21.5 9.75H20.75H20C20 10.4404 19.4404 11 18.75 11V11.75ZM0.75 9.75H0C0 11.2688 1.23122 12.5 2.75 12.5V11.75V11C2.05964 11 1.5 10.4404 1.5 9.75H0.75ZM2.75 7.75V7C1.23122 7 0 8.23122 0 9.75H0.75H1.5C1.5 9.05964 2.05964 8.5 2.75 8.5V7.75ZM18.75 7.75V8.5C19.4404 8.5 20 9.05964 20 9.75H20.75H21.5C21.5 8.23122 20.2688 7 18.75 7V7.75ZM18.75 11.75V11H17.75V11.75V12.5H18.75V11.75ZM2.75 11.75V12.5H3.75V11.75V11H2.75V11.75ZM2.75 7.75V8.5H4.75V7.75V7H2.75V7.75ZM4.75 7.75L4.18056 8.23809L5.66204 9.96649L6.23149 9.4784L6.80093 8.99031L5.31944 7.26191L4.75 7.75ZM4.75 7.75V8.5H10.75V7.75V7H4.75V7.75ZM10.75 7.75V8.5H18.75V7.75V7H10.75V7.75ZM9.26851 9.4784L9.83796 9.96649L11.3194 8.23809L10.75 7.75L10.1806 7.26191L8.69907 8.99031L9.26851 9.4784ZM6.23149 9.4784L5.66204 9.96649C6.00006 10.3608 6.30438 10.7186 6.58746 10.9677C6.88638 11.2307 7.26043 11.4634 7.75 11.4634V10.7134V9.96341C7.74944 9.96341 7.75091 9.96346 7.75233 9.96379C7.75343 9.96405 7.74931 9.96329 7.73864 9.95825C7.71441 9.94678 7.66387 9.91685 7.57836 9.8416C7.3936 9.67903 7.16863 9.41929 6.80093 8.99031L6.23149 9.4784ZM9.26851 9.4784L8.69907 8.99031C8.33137 9.41929 8.1064 9.67903 7.92164 9.8416C7.83613 9.91685 7.78559 9.94678 7.76136 9.95825C7.75069 9.96329 7.74657 9.96405 7.74767 9.96379C7.74909 9.96346 7.75056 9.96341 7.75 9.96341V10.7134V11.4634C8.23957 11.4634 8.61362 11.2307 8.91254 10.9677C9.19562 10.7186 9.49994 10.3608 9.83796 9.96649L9.26851 9.4784ZM7.75781 4.75V4H7.74883V4.75V5.5H7.75781V4.75ZM13.75 3.75L13.2197 3.21967L12.2197 4.21967L12.75 4.75L13.2803 5.28033L14.2803 4.28033L13.75 3.75Z" fill="var(--stroke-0, #1C1917)"/>
</svg>
